<?xml version="1.0" encoding="UTF-8" standalone="no"?>
<!DOCTYPE svg PUBLIC "-//W3C//DTD SVG 1.1//EN" "http://www.w3.org/Graphics/SVG/1.1/DTD/svg11.dtd">
<svg xmlns:xlink="http://www.w3.org/1999/xlink" height="158.74999999999997mm" version="1.1" viewBox="0 0 500 600" width="132.29166666666666mm" x="0mm" y="0mm" xmlns="http://www.w3.org/2000/svg">
  <rect height="1200" style="fill:rgb(255,255,255);stroke:none;" width="1000" x="0" y="0"/>
  <rect height="240" style="fill:rgb(191,191,191);fill-opacity:0.4980392156862745;stroke:none;" width="175" x="225" y="60"/>
  <line style="fill:none;stroke:rgb(63,63,191);stroke-opacity:0.24705882352941178;stroke-miterlimit:10;stroke-linecap:square;" x1="50" x2="50" y1="300" y2="300"/>
  <line style="fill:none;stroke:rgb(63,63,191);stroke-opacity:0.24705882352941178;stroke-miterlimit:10;stroke-linecap:square;" x1="50" x2="64" y1="300" y2="290"/>
  <line style="fill:none;stroke:rgb(63,63,191);stroke-opacity:0.24705882352941178;stroke-miterlimit:10;stroke-linecap:square;" x1="64" x2="79" y1="290" y2="280"/>
  <line style="fill:none;stroke:rgb(63,63,191);stroke-opacity:0.24705882352941178;stroke-miterlimit:10;stroke-linecap:square;" x1="79" x2="93" y1="280" y2="270"/>
  <line style="fill:none;stroke:rgb(63,63,191);stroke-opacity:0.24705882352941178;stroke-miterlimit:10;stroke-linecap:square;" x1="93" x2="108" y1="270" y2="260"/>
  <line style="fill:none;stroke:rgb(63,63,191);stroke-opacity:0.24705882352941178;stroke-miterlimit:10;stroke-linecap:square;" x1="108" x2="122" y1="260" y2="250"/>
  <line style="fill:none;stroke:rgb(63,63,191);stroke-opacity:0.24705882352941178;stroke-miterlimit:10;stroke-linecap:square;" x1="122" x2="137" y1="250" y2="240"/>
  <line style="fill:none;stroke:rgb(63,63,191);stroke-opacity:0.24705882352941178;stroke-miterlimit:10;stroke-linecap:square;" x1="137" x2="152" y1="240" y2="230"/>
  <line style="fill:none;stroke:rgb(63,63,191);stroke-opacity:0.24705882352941178;stroke-miterlimit:10;stroke-linecap:square;" x1="152" x2="166" y1="230" y2="220"/>
  <line style="fill:none;stroke:rgb(63,63,191);stroke-opacity:0.24705882352941178;stroke-miterlimit:10;stroke-linecap:square;" x1="166" x2="181" y1="220" y2="210"/>
  <line style="fill:none;stroke:rgb(63,63,191);stroke-opacity:0.24705882352941178;stroke-miterlimit:10;stroke-linecap:square;" x1="181" x2="195" y1="210" y2="200"/>
  <line style="fill:none;stroke:rgb(63,63,191);stroke-opacity:0.24705882352941178;stroke-miterlimit:10;stroke-linecap:square;" x1="195" x2="210" y1="200" y2="190"/>
  <line style="fill:none;stroke:rgb(63,63,191);stroke-opacity:0.24705882352941178;stroke-miterlimit:10;stroke-linecap:square;" x1="210" x2="225" y1="190" y2="180"/>
  <line style="fill:none;stroke:rgb(63,63,191);stroke-opacity:0.24705882352941178;stroke-miterlimit:10;stroke-linecap:square;" x1="225" x2="239" y1="180" y2="170"/>
  <line style="fill:none;stroke:rgb(63,63,191);stroke-opacity:0.24705882352941178;stroke-miterlimit:10;stroke-linecap:square;" x1="239" x2="254" y1="170" y2="160"/>
  <line style="fill:none;stroke:rgb(63,63,191);stroke-opacity:0.24705882352941178;stroke-miterlimit:10;stroke-linecap:square;" x1="254" x2="268" y1="160" y2="150"/>
  <line style="fill:none;stroke:rgb(63,63,191);stroke-opacity:0.24705882352941178;stroke-miterlimit:10;stroke-linecap:square;" x1="268" x2="283" y1="150" y2="140"/>
  <line style="fill:none;stroke:rgb(63,63,191);stroke-opacity:0.24705882352941178;stroke-miterlimit:10;stroke-linecap:square;" x1="283" x2="297" y1="140" y2="130"/>
  <line style="fill:none;stroke:rgb(63,63,191);stroke-opacity:0.24705882352941178;stroke-miterlimit:10;stroke-linecap:square;" x1="297" x2="312" y1="130" y2="120"/>
  <line style="fill:none;stroke:rgb(63,63,191);stroke-opacity:0.24705882352941178;stroke-miterlimit:10;stroke-linecap:square;" x1="312" x2="327" y1="120" y2="110"/>
  <line style="fill:none;stroke:rgb(63,63,191);stroke-opacity:0.24705882352941178;stroke-miterlimit:10;stroke-linecap:square;" x1="327" x2="341" y1="110" y2="100"/>
  <line style="fill:none;stroke:rgb(63,63,191);stroke-opacity:0.24705882352941178;stroke-miterlimit:10;stroke-linecap:square;" x1="341" x2="356" y1="100" y2="90"/>
  <line style="fill:none;stroke:rgb(63,63,191);stroke-opacity:0.24705882352941178;stroke-miterlimit:10;stroke-linecap:square;" x1="356" x2="370" y1="90" y2="80"/>
  <line style="fill:none;stroke:rgb(63,63,191);stroke-opacity:0.24705882352941178;stroke-miterlimit:10;stroke-linecap:square;" x1="370" x2="385" y1="80" y2="70"/>
  <line style="fill:none;stroke:rgb(63,63,191);stroke-opacity:0.24705882352941178;stroke-miterlimit:10;stroke-linecap:square;" x1="385" x2="400" y1="70" y2="60"/>
  <line style="fill:none;stroke:rgb(63,63,191);stroke-opacity:0.24705882352941178;stroke-miterlimit:10;stroke-linecap:square;" x1="400" x2="400" y1="60" y2="60"/>
  <rect height="13" style="fill:rgb(255,127,0);fill-opacity:0.7490196078431373;stroke:none;" width="4" x="48" y="286"/>
  <line style="fill:none;stroke:rgb(255,127,0);stroke-opacity:0.24705882352941178;stroke-width:2;stroke-miterlimit:10;stroke-linecap:square;" x1="50" x2="50" y1="300" y2="300"/>
  <line style="fill:none;stroke:rgb(255,127,0);stroke-opacity:0.24705882352941178;stroke-width:2;stroke-miterlimit:10;stroke-linecap:square;" x1="50" x2="50" y1="298" y2="288"/>
  <rect height="29" style="fill:rgb(255,127,0);fill-opacity:0.7490196078431373;stroke:none;" width="4" x="62" y="270"/>
  <line style="fill:none;stroke:rgb(255,127,0);stroke-opacity:0.24705882352941178;stroke-width:2;stroke-miterlimit:10;stroke-linecap:square;" x1="50" x2="64" y1="286" y2="286"/>
  <line style="fill:none;stroke:rgb(255,127,0);stroke-opacity:0.24705882352941178;stroke-width:2;stroke-miterlimit:10;stroke-linecap:square;" x1="64" x2="64" y1="284" y2="259"/>
  <rect height="26" style="fill:rgb(255,127,0);fill-opacity:0.7490196078431373;stroke:none;" width="4" x="77" y="273"/>
  <line style="fill:none;stroke:rgb(255,127,0);stroke-opacity:0.24705882352941178;stroke-width:2;stroke-miterlimit:10;stroke-linecap:square;" x1="64" x2="79" y1="257" y2="257"/>
  <line style="fill:none;stroke:rgb(255,127,0);stroke-opacity:0.24705882352941178;stroke-width:2;stroke-miterlimit:10;stroke-linecap:square;" x1="79" x2="79" y1="255" y2="232"/>
  <rect height="26" style="fill:rgb(255,127,0);fill-opacity:0.7490196078431373;stroke:none;" width="4" x="91" y="273"/>
  <line style="fill:none;stroke:rgb(255,127,0);stroke-opacity:0.24705882352941178;stroke-width:2;stroke-miterlimit:10;stroke-linecap:square;" x1="79" x2="93" y1="230" y2="230"/>
  <line style="fill:none;stroke:rgb(255,127,0);stroke-opacity:0.24705882352941178;stroke-width:2;stroke-miterlimit:10;stroke-linecap:square;" x1="93" x2="93" y1="228" y2="206"/>
  <rect height="6" style="fill:rgb(255,127,0);fill-opacity:0.7490196078431373;stroke:none;" width="4" x="106" y="293"/>
  <line style="fill:none;stroke:rgb(255,127,0);stroke-opacity:0.24705882352941178;stroke-width:2;stroke-miterlimit:10;stroke-linecap:square;" x1="93" x2="108" y1="204" y2="204"/>
  <line style="fill:none;stroke:rgb(255,127,0);stroke-opacity:0.24705882352941178;stroke-width:2;stroke-miterlimit:10;stroke-linecap:square;" x1="108" x2="108" y1="202" y2="200"/>
  <rect height="3" style="fill:rgb(255,127,0);fill-opacity:0.7490196078431373;stroke:none;" width="4" x="120" y="296"/>
  <line style="fill:none;stroke:rgb(255,127,0);stroke-opacity:0.24705882352941178;stroke-width:2;stroke-miterlimit:10;stroke-linecap:square;" x1="108" x2="122" y1="198" y2="198"/>
  <line style="fill:none;stroke:rgb(255,127,0);stroke-opacity:0.24705882352941178;stroke-width:2;stroke-miterlimit:10;stroke-linecap:square;" x1="122" x2="122" y1="196" y2="196"/>
  <rect height="6" style="fill:rgb(255,127,0);fill-opacity:0.7490196078431373;stroke:none;" width="4" x="135" y="293"/>
  <line style="fill:none;stroke:rgb(255,127,0);stroke-opacity:0.24705882352941178;stroke-width:2;stroke-miterlimit:10;stroke-linecap:square;" x1="122" x2="137" y1="194" y2="194"/>
  <line style="fill:none;stroke:rgb(255,127,0);stroke-opacity:0.24705882352941178;stroke-width:2;stroke-miterlimit:10;stroke-linecap:square;" x1="137" x2="137" y1="192" y2="190"/>
  <rect height="6" style="fill:rgb(255,127,0);fill-opacity:0.7490196078431373;stroke:none;" width="4" x="164" y="293"/>
  <line style="fill:none;stroke:rgb(255,127,0);stroke-opacity:0.24705882352941178;stroke-width:2;stroke-miterlimit:10;stroke-linecap:square;" x1="137" x2="166" y1="188" y2="188"/>
  <line style="fill:none;stroke:rgb(255,127,0);stroke-opacity:0.24705882352941178;stroke-width:2;stroke-miterlimit:10;stroke-linecap:square;" x1="166" x2="166" y1="186" y2="183"/>
  <rect height="3" style="fill:rgb(255,127,0);fill-opacity:0.7490196078431373;stroke:none;" width="4" x="193" y="296"/>
  <line style="fill:none;stroke:rgb(255,127,0);stroke-opacity:0.24705882352941178;stroke-width:2;stroke-miterlimit:10;stroke-linecap:square;" x1="166" x2="195" y1="181" y2="181"/>
  <line style="fill:none;stroke:rgb(255,127,0);stroke-opacity:0.24705882352941178;stroke-width:2;stroke-miterlimit:10;stroke-linecap:square;" x1="195" x2="195" y1="179" y2="180"/>
  <rect height="3" style="fill:rgb(255,127,0);fill-opacity:0.7490196078431373;stroke:none;" width="4" x="223" y="296"/>
  <line style="fill:none;stroke:rgb(255,127,0);stroke-opacity:0.24705882352941178;stroke-width:2;stroke-miterlimit:10;stroke-linecap:square;" x1="195" x2="225" y1="178" y2="178"/>
  <line style="fill:none;stroke:rgb(255,127,0);stroke-opacity:0.24705882352941178;stroke-width:2;stroke-miterlimit:10;stroke-linecap:square;" x1="225" x2="225" y1="176" y2="177"/>
  <rect height="23" style="fill:rgb(255,127,0);fill-opacity:0.7490196078431373;stroke:none;" width="4" x="237" y="276"/>
  <line style="fill:none;stroke:rgb(255,127,0);stroke-opacity:0.24705882352941178;stroke-width:2;stroke-miterlimit:10;stroke-linecap:square;" x1="225" x2="239" y1="175" y2="175"/>
  <line style="fill:none;stroke:rgb(255,127,0);stroke-opacity:0.24705882352941178;stroke-width:2;stroke-miterlimit:10;stroke-linecap:square;" x1="239" x2="239" y1="173" y2="154"/>
  <rect height="13" style="fill:rgb(255,127,0);fill-opacity:0.7490196078431373;stroke:none;" width="4" x="252" y="286"/>
  <line style="fill:none;stroke:rgb(255,127,0);stroke-opacity:0.24705882352941178;stroke-width:2;stroke-miterlimit:10;stroke-linecap:square;" x1="239" x2="254" y1="152" y2="152"/>
  <line style="fill:none;stroke:rgb(255,127,0);stroke-opacity:0.24705882352941178;stroke-width:2;stroke-miterlimit:10;stroke-linecap:square;" x1="254" x2="254" y1="150" y2="140"/>
  <rect height="16" style="fill:rgb(255,127,0);fill-opacity:0.7490196078431373;stroke:none;" width="4" x="281" y="283"/>
  <line style="fill:none;stroke:rgb(255,127,0);stroke-opacity:0.24705882352941178;stroke-width:2;stroke-miterlimit:10;stroke-linecap:square;" x1="254" x2="283" y1="138" y2="138"/>
  <line style="fill:none;stroke:rgb(255,127,0);stroke-opacity:0.24705882352941178;stroke-width:2;stroke-miterlimit:10;stroke-linecap:square;" x1="283" x2="283" y1="136" y2="124"/>
  <rect height="9" style="fill:rgb(255,127,0);fill-opacity:0.7490196078431373;stroke:none;" width="4" x="295" y="290"/>
  <line style="fill:none;stroke:rgb(255,127,0);stroke-opacity:0.24705882352941178;stroke-width:2;stroke-miterlimit:10;stroke-linecap:square;" x1="283" x2="297" y1="122" y2="122"/>
  <line style="fill:none;stroke:rgb(255,127,0);stroke-opacity:0.24705882352941178;stroke-width:2;stroke-miterlimit:10;stroke-linecap:square;" x1="297" x2="297" y1="120" y2="114"/>
  <rect height="6" style="fill:rgb(255,127,0);fill-opacity:0.7490196078431373;stroke:none;" width="4" x="339" y="293"/>
  <line style="fill:none;stroke:rgb(255,127,0);stroke-opacity:0.24705882352941178;stroke-width:2;stroke-miterlimit:10;stroke-linecap:square;" x1="297" x2="341" y1="112" y2="112"/>
  <line style="fill:none;stroke:rgb(255,127,0);stroke-opacity:0.24705882352941178;stroke-width:2;stroke-miterlimit:10;stroke-linecap:square;" x1="341" x2="341" y1="110" y2="108"/>
  <rect height="9" style="fill:rgb(255,127,0);fill-opacity:0.7490196078431373;stroke:none;" width="4" x="354" y="290"/>
  <line style="fill:none;stroke:rgb(255,127,0);stroke-opacity:0.24705882352941178;stroke-width:2;stroke-miterlimit:10;stroke-linecap:square;" x1="341" x2="356" y1="106" y2="106"/>
  <line style="fill:none;stroke:rgb(255,127,0);stroke-opacity:0.24705882352941178;stroke-width:2;stroke-miterlimit:10;stroke-linecap:square;" x1="356" x2="356" y1="104" y2="98"/>
  <rect height="13" style="fill:rgb(255,127,0);fill-opacity:0.7490196078431373;stroke:none;" width="4" x="368" y="286"/>
  <line style="fill:none;stroke:rgb(255,127,0);stroke-opacity:0.24705882352941178;stroke-width:2;stroke-miterlimit:10;stroke-linecap:square;" x1="356" x2="370" y1="96" y2="96"/>
  <line style="fill:none;stroke:rgb(255,127,0);stroke-opacity:0.24705882352941178;stroke-width:2;stroke-miterlimit:10;stroke-linecap:square;" x1="370" x2="370" y1="94" y2="85"/>
  <rect height="16" style="fill:rgb(255,127,0);fill-opacity:0.7490196078431373;stroke:none;" width="4" x="383" y="283"/>
  <line style="fill:none;stroke:rgb(255,127,0);stroke-opacity:0.24705882352941178;stroke-width:2;stroke-miterlimit:10;stroke-linecap:square;" x1="370" x2="385" y1="83" y2="83"/>
  <line style="fill:none;stroke:rgb(255,127,0);stroke-opacity:0.24705882352941178;stroke-width:2;stroke-miterlimit:10;stroke-linecap:square;" x1="385" x2="385" y1="81" y2="68"/>
  <rect height="6" style="fill:rgb(255,127,0);fill-opacity:0.7490196078431373;stroke:none;" width="4" x="398" y="293"/>
  <line style="fill:none;stroke:rgb(255,127,0);stroke-opacity:0.24705882352941178;stroke-width:2;stroke-miterlimit:10;stroke-linecap:square;" x1="385" x2="400" y1="66" y2="66"/>
  <line style="fill:none;stroke:rgb(255,127,0);stroke-opacity:0.24705882352941178;stroke-width:2;stroke-miterlimit:10;stroke-linecap:square;" x1="400" x2="400" y1="64" y2="62"/>
  <line style="fill:none;stroke:rgb(255,127,0);stroke-opacity:0.24705882352941178;stroke-width:2;stroke-miterlimit:10;stroke-linecap:square;" x1="400" x2="400" y1="60" y2="60"/>
  <line style="fill:none;stroke:rgb(255,127,0);stroke-opacity:0.4980392156862745;stroke-miterlimit:2;stroke-dasharray:2;" x1="50" x2="50" y1="300" y2="350"/>
  <line style="fill:none;stroke:rgb(255,127,0);stroke-opacity:0.4980392156862745;stroke-miterlimit:2;stroke-dasharray:2;" x1="50" x2="50" y1="300" y2="365"/>
  <line style="fill:none;stroke:rgb(255,127,0);stroke-opacity:0.4980392156862745;stroke-miterlimit:2;stroke-dasharray:2;" x1="50" x2="50" y1="300" y2="380"/>
  <line style="fill:none;stroke:rgb(255,127,0);stroke-opacity:0.4980392156862745;stroke-miterlimit:2;stroke-dasharray:2;" x1="50" x2="50" y1="300" y2="395"/>
  <line style="fill:none;stroke:rgb(255,127,0);stroke-opacity:0.4980392156862745;stroke-miterlimit:2;stroke-dasharray:2;" x1="64" x2="64" y1="300" y2="410"/>
  <line style="fill:none;stroke:rgb(255,127,0);stroke-opacity:0.4980392156862745;stroke-miterlimit:2;stroke-dasharray:2;" x1="64" x2="64" y1="300" y2="425"/>
  <line style="fill:none;stroke:rgb(255,127,0);stroke-opacity:0.4980392156862745;stroke-miterlimit:2;stroke-dasharray:2;" x1="64" x2="64" y1="300" y2="440"/>
  <line style="fill:none;stroke:rgb(255,127,0);stroke-opacity:0.4980392156862745;stroke-miterlimit:2;stroke-dasharray:2;" x1="64" x2="64" y1="300" y2="455"/>
  <line style="fill:none;stroke:rgb(255,127,0);stroke-opacity:0.4980392156862745;stroke-miterlimit:2;stroke-dasharray:2;" x1="64" x2="64" y1="300" y2="470"/>
  <line style="fill:none;stroke:rgb(255,127,0);stroke-opacity:0.4980392156862745;stroke-miterlimit:2;stroke-dasharray:2;" x1="64" x2="64" y1="300" y2="485"/>
  <line style="fill:none;stroke:rgb(255,127,0);stroke-opacity:0.4980392156862745;stroke-miterlimit:2;stroke-dasharray:2;" x1="64" x2="64" y1="300" y2="500"/>
  <line style="fill:none;stroke:rgb(255,127,0);stroke-opacity:0.4980392156862745;stroke-miterlimit:2;stroke-dasharray:2;" x1="64" x2="64" y1="300" y2="515"/>
  <line style="fill:none;stroke:rgb(255,127,0);stroke-opacity:0.4980392156862745;stroke-miterlimit:2;stroke-dasharray:2;" x1="64" x2="64" y1="300" y2="530"/>
  <line style="fill:none;stroke:rgb(255,127,0);stroke-opacity:0.4980392156862745;stroke-miterlimit:2;stroke-dasharray:2;" x1="79" x2="79" y1="300" y2="545"/>
  <line style="fill:none;stroke:rgb(255,127,0);stroke-opacity:0.4980392156862745;stroke-miterlimit:2;stroke-dasharray:2;" x1="79" x2="79" y1="300" y2="560"/>
  <line style="fill:none;stroke:rgb(255,127,0);stroke-opacity:0.4980392156862745;stroke-miterlimit:2;stroke-dasharray:2;" x1="79" x2="79" y1="300" y2="575"/>
  <line style="fill:none;stroke:rgb(255,127,0);stroke-opacity:0.4980392156862745;stroke-miterlimit:2;stroke-dasharray:2;" x1="79" x2="79" y1="300" y2="590"/>
  <line style="fill:none;stroke:rgb(255,127,0);stroke-opacity:0.4980392156862745;stroke-miterlimit:2;stroke-dasharray:2;" x1="79" x2="79" y1="300" y2="605"/>
  <line style="fill:none;stroke:rgb(255,127,0);stroke-opacity:0.4980392156862745;stroke-miterlimit:2;stroke-dasharray:2;" x1="79" x2="79" y1="300" y2="620"/>
  <line style="fill:none;stroke:rgb(255,127,0);stroke-opacity:0.4980392156862745;stroke-miterlimit:2;stroke-dasharray:2;" x1="79" x2="79" y1="300" y2="635"/>
  <line style="fill:none;stroke:rgb(255,127,0);stroke-opacity:0.4980392156862745;stroke-miterlimit:2;stroke-dasharray:2;" x1="79" x2="79" y1="300" y2="650"/>
  <line style="fill:none;stroke:rgb(255,127,0);stroke-opacity:0.4980392156862745;stroke-miterlimit:2;stroke-dasharray:2;" x1="93" x2="93" y1="300" y2="665"/>
  <line style="fill:none;stroke:rgb(255,127,0);stroke-opacity:0.4980392156862745;stroke-miterlimit:2;stroke-dasharray:2;" x1="93" x2="93" y1="300" y2="680"/>
  <line style="fill:none;stroke:rgb(255,127,0);stroke-opacity:0.4980392156862745;stroke-miterlimit:2;stroke-dasharray:2;" x1="93" x2="93" y1="300" y2="695"/>
  <line style="fill:none;stroke:rgb(255,127,0);stroke-opacity:0.4980392156862745;stroke-miterlimit:2;stroke-dasharray:2;" x1="93" x2="93" y1="300" y2="710"/>
  <line style="fill:none;stroke:rgb(255,127,0);stroke-opacity:0.4980392156862745;stroke-miterlimit:2;stroke-dasharray:2;" x1="93" x2="93" y1="300" y2="725"/>
  <line style="fill:none;stroke:rgb(255,127,0);stroke-opacity:0.4980392156862745;stroke-miterlimit:2;stroke-dasharray:2;" x1="93" x2="93" y1="300" y2="740"/>
  <line style="fill:none;stroke:rgb(255,127,0);stroke-opacity:0.4980392156862745;stroke-miterlimit:2;stroke-dasharray:2;" x1="93" x2="93" y1="300" y2="755"/>
  <line style="fill:none;stroke:rgb(255,127,0);stroke-opacity:0.4980392156862745;stroke-miterlimit:2;stroke-dasharray:2;" x1="93" x2="93" y1="300" y2="770"/>
  <line style="fill:none;stroke:rgb(255,127,0);stroke-opacity:0.4980392156862745;stroke-miterlimit:2;stroke-dasharray:2;" x1="108" x2="108" y1="300" y2="784"/>
  <line style="fill:none;stroke:rgb(255,127,0);stroke-opacity:0.4980392156862745;stroke-miterlimit:2;stroke-dasharray:2;" x1="108" x2="108" y1="300" y2="798"/>
  <line style="fill:none;stroke:rgb(255,127,0);stroke-opacity:0.4980392156862745;stroke-miterlimit:2;stroke-dasharray:2;" x1="122" x2="122" y1="300" y2="812"/>
  <line style="fill:none;stroke:rgb(255,127,0);stroke-opacity:0.4980392156862745;stroke-miterlimit:2;stroke-dasharray:2;" x1="137" x2="137" y1="300" y2="826"/>
  <line style="fill:none;stroke:rgb(255,127,0);stroke-opacity:0.4980392156862745;stroke-miterlimit:2;stroke-dasharray:2;" x1="137" x2="137" y1="300" y2="840"/>
  <line style="fill:none;stroke:rgb(255,127,0);stroke-opacity:0.4980392156862745;stroke-miterlimit:2;stroke-dasharray:2;" x1="166" x2="166" y1="300" y2="854"/>
  <line style="fill:none;stroke:rgb(255,127,0);stroke-opacity:0.4980392156862745;stroke-miterlimit:2;stroke-dasharray:2;" x1="166" x2="166" y1="300" y2="868"/>
  <line style="fill:none;stroke:rgb(255,127,0);stroke-opacity:0.4980392156862745;stroke-miterlimit:2;stroke-dasharray:2;" x1="195" x2="195" y1="300" y2="882"/>
  <line style="fill:none;stroke:rgb(255,127,0);stroke-opacity:0.4980392156862745;stroke-miterlimit:2;stroke-dasharray:2;" x1="225" x2="225" y1="300" y2="896"/>
  <line style="fill:none;stroke:rgb(255,127,0);stroke-opacity:0.4980392156862745;stroke-miterlimit:2;stroke-dasharray:2;" x1="239" x2="239" y1="300" y2="910"/>
  <line style="fill:none;stroke:rgb(255,127,0);stroke-opacity:0.4980392156862745;stroke-miterlimit:2;stroke-dasharray:2;" x1="239" x2="239" y1="300" y2="924"/>
  <line style="fill:none;stroke:rgb(255,127,0);stroke-opacity:0.4980392156862745;stroke-miterlimit:2;stroke-dasharray:2;" x1="239" x2="239" y1="300" y2="938"/>
  <line style="fill:none;stroke:rgb(255,127,0);stroke-opacity:0.4980392156862745;stroke-miterlimit:2;stroke-dasharray:2;" x1="239" x2="239" y1="300" y2="952"/>
  <line style="fill:none;stroke:rgb(255,127,0);stroke-opacity:0.4980392156862745;stroke-miterlimit:2;stroke-dasharray:2;" x1="239" x2="239" y1="300" y2="966"/>
  <line style="fill:none;stroke:rgb(255,127,0);stroke-opacity:0.4980392156862745;stroke-miterlimit:2;stroke-dasharray:2;" x1="239" x2="239" y1="300" y2="980"/>
  <line style="fill:none;stroke:rgb(255,127,0);stroke-opacity:0.4980392156862745;stroke-miterlimit:2;stroke-dasharray:2;" x1="239" x2="239" y1="300" y2="994"/>
  <line style="fill:none;stroke:rgb(255,127,0);stroke-opacity:0.4980392156862745;stroke-miterlimit:2;stroke-dasharray:2;" x1="254" x2="254" y1="300" y2="1008"/>
  <line style="fill:none;stroke:rgb(255,127,0);stroke-opacity:0.4980392156862745;stroke-miterlimit:2;stroke-dasharray:2;" x1="254" x2="254" y1="300" y2="1022"/>
  <line style="fill:none;stroke:rgb(255,127,0);stroke-opacity:0.4980392156862745;stroke-miterlimit:2;stroke-dasharray:2;" x1="254" x2="254" y1="300" y2="1036"/>
  <line style="fill:none;stroke:rgb(255,127,0);stroke-opacity:0.4980392156862745;stroke-miterlimit:2;stroke-dasharray:2;" x1="254" x2="254" y1="300" y2="1050"/>
  <line style="fill:none;stroke:rgb(255,127,0);stroke-opacity:0.4980392156862745;stroke-miterlimit:2;stroke-dasharray:2;" x1="283" x2="283" y1="300" y2="1064"/>
  <line style="fill:none;stroke:rgb(255,127,0);stroke-opacity:0.4980392156862745;stroke-miterlimit:2;stroke-dasharray:2;" x1="283" x2="283" y1="300" y2="1078"/>
  <line style="fill:none;stroke:rgb(255,127,0);stroke-opacity:0.4980392156862745;stroke-miterlimit:2;stroke-dasharray:2;" x1="283" x2="283" y1="300" y2="1092"/>
  <line style="fill:none;stroke:rgb(255,127,0);stroke-opacity:0.4980392156862745;stroke-miterlimit:2;stroke-dasharray:2;" x1="283" x2="283" y1="300" y2="1106"/>
  <line style="fill:none;stroke:rgb(255,127,0);stroke-opacity:0.4980392156862745;stroke-miterlimit:2;stroke-dasharray:2;" x1="283" x2="283" y1="300" y2="1120"/>
  <line style="fill:none;stroke:rgb(255,127,0);stroke-opacity:0.4980392156862745;stroke-miterlimit:2;stroke-dasharray:2;" x1="297" x2="297" y1="300" y2="1134"/>
  <line style="fill:none;stroke:rgb(255,127,0);stroke-opacity:0.4980392156862745;stroke-miterlimit:2;stroke-dasharray:2;" x1="297" x2="297" y1="300" y2="1148"/>
  <line style="fill:none;stroke:rgb(255,127,0);stroke-opacity:0.4980392156862745;stroke-miterlimit:2;stroke-dasharray:2;" x1="297" x2="297" y1="300" y2="1162"/>
  <line style="fill:none;stroke:rgb(255,127,0);stroke-opacity:0.4980392156862745;stroke-miterlimit:2;stroke-dasharray:2;" x1="341" x2="341" y1="300" y2="1176"/>
  <line style="fill:none;stroke:rgb(255,127,0);stroke-opacity:0.4980392156862745;stroke-miterlimit:2;stroke-dasharray:2;" x1="341" x2="341" y1="300" y2="1190"/>
  <line style="fill:none;stroke:rgb(255,127,0);stroke-opacity:0.4980392156862745;stroke-miterlimit:2;stroke-dasharray:2;" x1="356" x2="356" y1="300" y2="1204"/>
  <line style="fill:none;stroke:rgb(255,127,0);stroke-opacity:0.4980392156862745;stroke-miterlimit:2;stroke-dasharray:2;" x1="356" x2="356" y1="300" y2="1218"/>
  <line style="fill:none;stroke:rgb(255,127,0);stroke-opacity:0.4980392156862745;stroke-miterlimit:2;stroke-dasharray:2;" x1="356" x2="356" y1="300" y2="1232"/>
  <line style="fill:none;stroke:rgb(255,127,0);stroke-opacity:0.4980392156862745;stroke-miterlimit:2;stroke-dasharray:2;" x1="370" x2="370" y1="300" y2="1247"/>
  <line style="fill:none;stroke:rgb(255,127,0);stroke-opacity:0.4980392156862745;stroke-miterlimit:2;stroke-dasharray:2;" x1="370" x2="370" y1="300" y2="1262"/>
  <line style="fill:none;stroke:rgb(255,127,0);stroke-opacity:0.4980392156862745;stroke-miterlimit:2;stroke-dasharray:2;" x1="370" x2="370" y1="300" y2="1277"/>
  <line style="fill:none;stroke:rgb(255,127,0);stroke-opacity:0.4980392156862745;stroke-miterlimit:2;stroke-dasharray:2;" x1="370" x2="370" y1="300" y2="1292"/>
  <line style="fill:none;stroke:rgb(255,127,0);stroke-opacity:0.4980392156862745;stroke-miterlimit:2;stroke-dasharray:2;" x1="385" x2="385" y1="300" y2="1307"/>
  <line style="fill:none;stroke:rgb(255,127,0);stroke-opacity:0.4980392156862745;stroke-miterlimit:2;stroke-dasharray:2;" x1="385" x2="385" y1="300" y2="1322"/>
  <line style="fill:none;stroke:rgb(255,127,0);stroke-opacity:0.4980392156862745;stroke-miterlimit:2;stroke-dasharray:2;" x1="385" x2="385" y1="300" y2="1337"/>
  <line style="fill:none;stroke:rgb(255,127,0);stroke-opacity:0.4980392156862745;stroke-miterlimit:2;stroke-dasharray:2;" x1="385" x2="385" y1="300" y2="1352"/>
  <line style="fill:none;stroke:rgb(255,127,0);stroke-opacity:0.4980392156862745;stroke-miterlimit:2;stroke-dasharray:2;" x1="385" x2="385" y1="300" y2="1367"/>
  <line style="fill:none;stroke:rgb(255,127,0);stroke-opacity:0.4980392156862745;stroke-miterlimit:2;stroke-dasharray:2;" x1="400" x2="400" y1="300" y2="1382"/>
  <line style="fill:none;stroke:rgb(255,127,0);stroke-opacity:0.4980392156862745;stroke-miterlimit:2;stroke-dasharray:2;" x1="400" x2="400" y1="300" y2="1397"/>
  <line style="fill:none;stroke:rgb(0,0,0);stroke-width:2;stroke-miterlimit:10;stroke-linecap:square;" x1="48" x2="48" y1="60" y2="300"/>
  <line style="fill:none;stroke:rgb(0,0,0);stroke-width:2;stroke-miterlimit:10;stroke-linecap:square;" x1="48" x2="402" y1="300" y2="300"/>
  <rect height="30" style="fill:rgb(255,255,255);stroke:none;" width="17" x="42" y="308"/>
  <text style="fill:rgb(0,0,0);stroke:none;font-size:25px;font-weight:bold;" x="42" y="332">0</text>
  <rect height="30" style="fill:rgb(255,255,255);stroke:none;" width="34" x="383" y="308"/>
  <text style="fill:rgb(0,0,0);stroke:none;font-size:25px;font-weight:bold;" x="383" y="332">24</text>
  <text style="fill:rgb(0,0,0);stroke:none;font-size:25px;font-weight:bold;" x="25" y="312">0</text>
  <text style="fill:rgb(0,0,0);stroke:none;font-size:25px;font-weight:bold;" x="25" y="72">1</text>
  <text style="fill:rgb(0,0,0);stroke:none;font-size:24px;font-weight:bold;" x="8" y="41">FORTSCHEGGER_PHF8_TARGETS_DN</text>
  <rect height="12" style="fill:rgb(255,255,255);stroke:none;" width="33" x="50" y="338"/>
  <text style="fill:rgb(128,128,128);stroke:none;" x="50" y="350">RRAD</text>
  <rect height="12" style="fill:rgb(255,255,255);stroke:none;" width="34" x="50" y="353"/>
  <text style="fill:rgb(128,128,128);stroke:none;" x="50" y="365">IFFO1</text>
  <rect height="12" style="fill:rgb(255,255,255);stroke:none;" width="51" x="50" y="368"/>
  <text style="fill:rgb(128,128,128);stroke:none;" x="50" y="380">SNHG12</text>
  <rect height="12" style="fill:rgb(255,255,255);stroke:none;" width="46" x="50" y="383"/>
  <text style="fill:rgb(128,128,128);stroke:none;" x="50" y="395">TEX261</text>
  <rect height="12" style="fill:rgb(255,255,255);stroke:none;" width="35" x="64" y="398"/>
  <text style="fill:rgb(128,128,128);stroke:none;" x="64" y="410">NME7</text>
  <rect height="12" style="fill:rgb(255,255,255);stroke:none;" width="32" x="64" y="413"/>
  <text style="fill:rgb(128,128,128);stroke:none;" x="64" y="425">NFE2</text>
  <rect height="12" style="fill:rgb(255,255,255);stroke:none;" width="32" x="64" y="428"/>
  <text style="fill:rgb(128,128,128);stroke:none;" x="64" y="440">CHKA</text>
  <rect height="12" style="fill:rgb(255,255,255);stroke:none;" width="39" x="64" y="443"/>
  <text style="fill:rgb(128,128,128);stroke:none;" x="64" y="455">ZMIZ2</text>
  <rect height="12" style="fill:rgb(255,255,255);stroke:none;" width="35" x="64" y="458"/>
  <text style="fill:rgb(128,128,128);stroke:none;" x="64" y="470">BIRC3</text>
  <rect height="12" style="fill:rgb(255,255,255);stroke:none;" width="49" x="64" y="473"/>
  <text style="fill:rgb(128,128,128);stroke:none;" x="64" y="485">DPAGT1</text>
  <rect height="12" style="fill:rgb(255,255,255);stroke:none;" width="46" x="64" y="488"/>
  <text style="fill:rgb(128,128,128);stroke:none;" x="64" y="500">SLC5A6</text>
  <rect height="12" style="fill:rgb(255,255,255);stroke:none;" width="54" x="64" y="503"/>
  <text style="fill:rgb(128,128,128);stroke:none;" x="64" y="515">ST6GAL1</text>
  <rect height="12" style="fill:rgb(255,255,255);stroke:none;" width="54" x="64" y="518"/>
  <text style="fill:rgb(128,128,128);stroke:none;" x="64" y="530">ATG16L2</text>
  <rect height="12" style="fill:rgb(255,255,255);stroke:none;" width="27" x="79" y="533"/>
  <text style="fill:rgb(128,128,128);stroke:none;" x="79" y="545">PIGF</text>
  <rect height="12" style="fill:rgb(255,255,255);stroke:none;" width="31" x="79" y="548"/>
  <text style="fill:rgb(128,128,128);stroke:none;" x="79" y="560">XPR1</text>
  <rect height="12" style="fill:rgb(255,255,255);stroke:none;" width="34" x="79" y="563"/>
  <text style="fill:rgb(128,128,128);stroke:none;" x="79" y="575">DPH5</text>
  <rect height="12" style="fill:rgb(255,255,255);stroke:none;" width="34" x="79" y="578"/>
  <text style="fill:rgb(128,128,128);stroke:none;" x="79" y="590">TRIQK</text>
  <rect height="12" style="fill:rgb(255,255,255);stroke:none;" width="38" x="79" y="593"/>
  <text style="fill:rgb(128,128,128);stroke:none;" x="79" y="605">FANCL</text>
  <rect height="12" style="fill:rgb(255,255,255);stroke:none;" width="49" x="79" y="608"/>
  <text style="fill:rgb(128,128,128);stroke:none;" x="79" y="620">CCDC9B</text>
  <rect height="12" style="fill:rgb(255,255,255);stroke:none;" width="47" x="79" y="623"/>
  <text style="fill:rgb(128,128,128);stroke:none;" x="79" y="635">COL5A3</text>
  <rect height="12" style="fill:rgb(255,255,255);stroke:none;" width="59" x="79" y="638"/>
  <text style="fill:rgb(128,128,128);stroke:none;" x="79" y="650">TMEM139</text>
  <rect height="12" style="fill:rgb(255,255,255);stroke:none;" width="33" x="93" y="653"/>
  <text style="fill:rgb(128,128,128);stroke:none;" x="93" y="665">NAV2</text>
  <rect height="12" style="fill:rgb(255,255,255);stroke:none;" width="31" x="93" y="668"/>
  <text style="fill:rgb(128,128,128);stroke:none;" x="93" y="680">FUT8</text>
  <rect height="12" style="fill:rgb(255,255,255);stroke:none;" width="32" x="93" y="683"/>
  <text style="fill:rgb(128,128,128);stroke:none;" x="93" y="695">CAV1</text>
  <rect height="12" style="fill:rgb(255,255,255);stroke:none;" width="38" x="93" y="698"/>
  <text style="fill:rgb(128,128,128);stroke:none;" x="93" y="710">TRAF1</text>
  <rect height="12" style="fill:rgb(255,255,255);stroke:none;" width="40" x="93" y="713"/>
  <text style="fill:rgb(128,128,128);stroke:none;" x="93" y="725">TRNP1</text>
  <rect height="12" style="fill:rgb(255,255,255);stroke:none;" width="50" x="93" y="728"/>
  <text style="fill:rgb(128,128,128);stroke:none;" x="93" y="740">BRD3OS</text>
  <rect height="12" style="fill:rgb(255,255,255);stroke:none;" width="49" x="93" y="743"/>
  <text style="fill:rgb(128,128,128);stroke:none;" x="93" y="755">NEDD4L</text>
  <rect height="12" style="fill:rgb(255,255,255);stroke:none;" width="54" x="93" y="758"/>
  <text style="fill:rgb(128,128,128);stroke:none;" x="93" y="770">SLC27A1</text>
  <rect height="11" style="fill:rgb(255,255,255);stroke:none;" width="44" x="108" y="773"/>
  <text style="fill:rgb(128,128,128);stroke:none;font-size:11px;" x="108" y="784">TENT5B</text>
  <rect height="11" style="fill:rgb(255,255,255);stroke:none;" width="50" x="108" y="787"/>
  <text style="fill:rgb(128,128,128);stroke:none;font-size:11px;" x="108" y="798">FAM111A</text>
  <rect height="11" style="fill:rgb(255,255,255);stroke:none;" width="49" x="122" y="801"/>
  <text style="fill:rgb(128,128,128);stroke:none;font-size:11px;" x="122" y="812">PLEKHA6</text>
  <rect height="11" style="fill:rgb(255,255,255);stroke:none;" width="27" x="137" y="815"/>
  <text style="fill:rgb(128,128,128);stroke:none;font-size:11px;" x="137" y="826">LY6K</text>
  <rect height="11" style="fill:rgb(255,255,255);stroke:none;" width="33" x="137" y="829"/>
  <text style="fill:rgb(128,128,128);stroke:none;font-size:11px;" x="137" y="840">TIMP3</text>
  <rect height="11" style="fill:rgb(255,255,255);stroke:none;" width="30" x="166" y="843"/>
  <text style="fill:rgb(128,128,128);stroke:none;font-size:11px;" x="166" y="854">AQP1</text>
  <rect height="11" style="fill:rgb(255,255,255);stroke:none;" width="30" x="166" y="857"/>
  <text style="fill:rgb(128,128,128);stroke:none;font-size:11px;" x="166" y="868">ROR1</text>
  <rect height="11" style="fill:rgb(255,255,255);stroke:none;" width="40" x="195" y="871"/>
  <text style="fill:rgb(128,128,128);stroke:none;font-size:11px;" x="195" y="882">IGFBP7</text>
  <rect height="11" style="fill:rgb(255,255,255);stroke:none;" width="31" x="225" y="885"/>
  <text style="fill:rgb(128,128,128);stroke:none;font-size:11px;" x="225" y="896">ZHX3</text>
  <rect height="11" style="fill:rgb(255,255,255);stroke:none;" width="22" x="239" y="899"/>
  <text style="fill:rgb(128,128,128);stroke:none;font-size:11px;" x="239" y="910">VWF</text>
  <rect height="11" style="fill:rgb(255,255,255);stroke:none;" width="30" x="239" y="913"/>
  <text style="fill:rgb(128,128,128);stroke:none;font-size:11px;" x="239" y="924">FZD2</text>
  <rect height="11" style="fill:rgb(255,255,255);stroke:none;" width="39" x="239" y="927"/>
  <text style="fill:rgb(128,128,128);stroke:none;font-size:11px;" x="239" y="938">OSBP2</text>
  <rect height="11" style="fill:rgb(255,255,255);stroke:none;" width="44" x="239" y="941"/>
  <text style="fill:rgb(128,128,128);stroke:none;font-size:11px;" x="239" y="952">PRSS23</text>
  <rect height="11" style="fill:rgb(255,255,255);stroke:none;" width="43" x="239" y="955"/>
  <text style="fill:rgb(128,128,128);stroke:none;font-size:11px;" x="239" y="966">FGFBP1</text>
  <rect height="11" style="fill:rgb(255,255,255);stroke:none;" width="44" x="239" y="969"/>
  <text style="fill:rgb(128,128,128);stroke:none;font-size:11px;" x="239" y="980">AGPAT4</text>
  <rect height="11" style="fill:rgb(255,255,255);stroke:none;" width="52" x="239" y="983"/>
  <text style="fill:rgb(128,128,128);stroke:none;font-size:11px;" x="239" y="994">HNRNPDL</text>
  <rect height="11" style="fill:rgb(255,255,255);stroke:none;" width="38" x="254" y="997"/>
  <text style="fill:rgb(128,128,128);stroke:none;font-size:11px;" x="254" y="1008">KCNN4</text>
  <rect height="11" style="fill:rgb(255,255,255);stroke:none;" width="44" x="254" y="1011"/>
  <text style="fill:rgb(128,128,128);stroke:none;font-size:11px;" x="254" y="1022">SNRPA1</text>
  <rect height="11" style="fill:rgb(255,255,255);stroke:none;" width="46" x="254" y="1025"/>
  <text style="fill:rgb(128,128,128);stroke:none;font-size:11px;" x="254" y="1036">ZBTB47</text>
  <rect height="11" style="fill:rgb(255,255,255);stroke:none;" width="52" x="254" y="1039"/>
  <text style="fill:rgb(128,128,128);stroke:none;font-size:11px;" x="254" y="1050">KIAA2013</text>
  <rect height="11" style="fill:rgb(255,255,255);stroke:none;" width="37" x="283" y="1053"/>
  <text style="fill:rgb(128,128,128);stroke:none;font-size:11px;" x="283" y="1064">LAMC2</text>
  <rect height="11" style="fill:rgb(255,255,255);stroke:none;" width="37" x="283" y="1067"/>
  <text style="fill:rgb(128,128,128);stroke:none;font-size:11px;" x="283" y="1078">PAQR6</text>
  <rect height="11" style="fill:rgb(255,255,255);stroke:none;" width="35" x="283" y="1081"/>
  <text style="fill:rgb(128,128,128);stroke:none;font-size:11px;" x="283" y="1092">P2RY2</text>
  <rect height="11" style="fill:rgb(255,255,255);stroke:none;" width="37" x="283" y="1095"/>
  <text style="fill:rgb(128,128,128);stroke:none;font-size:11px;" x="283" y="1106">CALM1</text>
  <rect height="11" style="fill:rgb(255,255,255);stroke:none;" width="45" x="283" y="1109"/>
  <text style="fill:rgb(128,128,128);stroke:none;font-size:11px;" x="283" y="1120">HS2ST1</text>
  <rect height="11" style="fill:rgb(255,255,255);stroke:none;" width="31" x="297" y="1123"/>
  <text style="fill:rgb(128,128,128);stroke:none;font-size:11px;" x="297" y="1134">ENO2</text>
  <rect height="11" style="fill:rgb(255,255,255);stroke:none;" width="46" x="297" y="1137"/>
  <text style="fill:rgb(128,128,128);stroke:none;font-size:11px;" x="297" y="1148">B3GNT3</text>
  <rect height="11" style="fill:rgb(255,255,255);stroke:none;" width="49" x="297" y="1151"/>
  <text style="fill:rgb(128,128,128);stroke:none;font-size:11px;" x="297" y="1162">RASL10A</text>
  <rect height="11" style="fill:rgb(255,255,255);stroke:none;" width="26" x="341" y="1165"/>
  <text style="fill:rgb(128,128,128);stroke:none;font-size:11px;" x="341" y="1176">CIB1</text>
  <rect height="11" style="fill:rgb(255,255,255);stroke:none;" width="23" x="341" y="1179"/>
  <text style="fill:rgb(128,128,128);stroke:none;font-size:11px;" x="341" y="1190">IL4R</text>
  <rect height="11" style="fill:rgb(255,255,255);stroke:none;" width="30" x="356" y="1193"/>
  <text style="fill:rgb(128,128,128);stroke:none;font-size:11px;" x="356" y="1204">OASL</text>
  <rect height="11" style="fill:rgb(255,255,255);stroke:none;" width="33" x="356" y="1207"/>
  <text style="fill:rgb(128,128,128);stroke:none;font-size:11px;" x="356" y="1218">ITGA3</text>
  <rect height="11" style="fill:rgb(255,255,255);stroke:none;" width="51" x="356" y="1221"/>
  <text style="fill:rgb(128,128,128);stroke:none;font-size:11px;" x="356" y="1232">PLEKHO2</text>
  <rect height="12" style="fill:rgb(255,255,255);stroke:none;" width="43" x="370" y="1235"/>
  <text style="fill:rgb(128,128,128);stroke:none;" x="370" y="1247">MOB3C</text>
  <rect height="12" style="fill:rgb(255,255,255);stroke:none;" width="48" x="370" y="1250"/>
  <text style="fill:rgb(128,128,128);stroke:none;" x="370" y="1262">PHLDB2</text>
  <rect height="12" style="fill:rgb(255,255,255);stroke:none;" width="42" x="370" y="1265"/>
  <text style="fill:rgb(128,128,128);stroke:none;" x="370" y="1277">NFKBIE</text>
  <rect height="12" style="fill:rgb(255,255,255);stroke:none;" width="51" x="370" y="1280"/>
  <text style="fill:rgb(128,128,128);stroke:none;" x="370" y="1292">ITPRIPL2</text>
  <rect height="12" style="fill:rgb(255,255,255);stroke:none;" width="33" x="385" y="1295"/>
  <text style="fill:rgb(128,128,128);stroke:none;" x="385" y="1307">DCP2</text>
  <rect height="12" style="fill:rgb(255,255,255);stroke:none;" width="40" x="385" y="1310"/>
  <text style="fill:rgb(128,128,128);stroke:none;" x="385" y="1322">DCAF7</text>
  <rect height="12" style="fill:rgb(255,255,255);stroke:none;" width="42" x="385" y="1325"/>
  <text style="fill:rgb(128,128,128);stroke:none;" x="385" y="1337">MYEOV</text>
  <rect height="12" style="fill:rgb(255,255,255);stroke:none;" width="41" x="385" y="1340"/>
  <text style="fill:rgb(128,128,128);stroke:none;" x="385" y="1352">MST1R</text>
  <rect height="12" style="fill:rgb(255,255,255);stroke:none;" width="38" x="385" y="1355"/>
  <text style="fill:rgb(128,128,128);stroke:none;" x="385" y="1367">SYT17</text>
  <rect height="12" style="fill:rgb(255,255,255);stroke:none;" width="36" x="400" y="1370"/>
  <text style="fill:rgb(128,128,128);stroke:none;" x="400" y="1382">KLHL9</text>
  <rect height="12" style="fill:rgb(255,255,255);stroke:none;" width="53" x="400" y="1385"/>
  <text style="fill:rgb(128,128,128);stroke:none;" x="400" y="1397">DNAJC18</text>
</svg>
