<?xml version="1.0" encoding="UTF-8" standalone="no"?>
<!DOCTYPE svg PUBLIC "-//W3C//DTD SVG 1.1//EN" "http://www.w3.org/Graphics/SVG/1.1/DTD/svg11.dtd">
<svg xmlns:xlink="http://www.w3.org/1999/xlink" height="158.74999999999997mm" version="1.1" viewBox="0 0 500 600" width="132.29166666666666mm" x="0mm" y="0mm" xmlns="http://www.w3.org/2000/svg">
  <rect height="1200" style="fill:rgb(255,255,255);stroke:none;" width="1000" x="0" y="0"/>
  <rect height="240" style="fill:rgb(191,191,191);fill-opacity:0.4980392156862745;stroke:none;" width="175" x="225" y="60"/>
  <line style="fill:none;stroke:rgb(63,63,191);stroke-opacity:0.24705882352941178;stroke-miterlimit:10;stroke-linecap:square;" x1="50" x2="50" y1="300" y2="300"/>
  <line style="fill:none;stroke:rgb(63,63,191);stroke-opacity:0.24705882352941178;stroke-miterlimit:10;stroke-linecap:square;" x1="50" x2="64" y1="300" y2="290"/>
  <line style="fill:none;stroke:rgb(63,63,191);stroke-opacity:0.24705882352941178;stroke-miterlimit:10;stroke-linecap:square;" x1="64" x2="79" y1="290" y2="280"/>
  <line style="fill:none;stroke:rgb(63,63,191);stroke-opacity:0.24705882352941178;stroke-miterlimit:10;stroke-linecap:square;" x1="79" x2="93" y1="280" y2="270"/>
  <line style="fill:none;stroke:rgb(63,63,191);stroke-opacity:0.24705882352941178;stroke-miterlimit:10;stroke-linecap:square;" x1="93" x2="108" y1="270" y2="260"/>
  <line style="fill:none;stroke:rgb(63,63,191);stroke-opacity:0.24705882352941178;stroke-miterlimit:10;stroke-linecap:square;" x1="108" x2="122" y1="260" y2="250"/>
  <line style="fill:none;stroke:rgb(63,63,191);stroke-opacity:0.24705882352941178;stroke-miterlimit:10;stroke-linecap:square;" x1="122" x2="137" y1="250" y2="240"/>
  <line style="fill:none;stroke:rgb(63,63,191);stroke-opacity:0.24705882352941178;stroke-miterlimit:10;stroke-linecap:square;" x1="137" x2="152" y1="240" y2="230"/>
  <line style="fill:none;stroke:rgb(63,63,191);stroke-opacity:0.24705882352941178;stroke-miterlimit:10;stroke-linecap:square;" x1="152" x2="166" y1="230" y2="220"/>
  <line style="fill:none;stroke:rgb(63,63,191);stroke-opacity:0.24705882352941178;stroke-miterlimit:10;stroke-linecap:square;" x1="166" x2="181" y1="220" y2="210"/>
  <line style="fill:none;stroke:rgb(63,63,191);stroke-opacity:0.24705882352941178;stroke-miterlimit:10;stroke-linecap:square;" x1="181" x2="195" y1="210" y2="200"/>
  <line style="fill:none;stroke:rgb(63,63,191);stroke-opacity:0.24705882352941178;stroke-miterlimit:10;stroke-linecap:square;" x1="195" x2="210" y1="200" y2="190"/>
  <line style="fill:none;stroke:rgb(63,63,191);stroke-opacity:0.24705882352941178;stroke-miterlimit:10;stroke-linecap:square;" x1="210" x2="225" y1="190" y2="180"/>
  <line style="fill:none;stroke:rgb(63,63,191);stroke-opacity:0.24705882352941178;stroke-miterlimit:10;stroke-linecap:square;" x1="225" x2="239" y1="180" y2="170"/>
  <line style="fill:none;stroke:rgb(63,63,191);stroke-opacity:0.24705882352941178;stroke-miterlimit:10;stroke-linecap:square;" x1="239" x2="254" y1="170" y2="160"/>
  <line style="fill:none;stroke:rgb(63,63,191);stroke-opacity:0.24705882352941178;stroke-miterlimit:10;stroke-linecap:square;" x1="254" x2="268" y1="160" y2="150"/>
  <line style="fill:none;stroke:rgb(63,63,191);stroke-opacity:0.24705882352941178;stroke-miterlimit:10;stroke-linecap:square;" x1="268" x2="283" y1="150" y2="140"/>
  <line style="fill:none;stroke:rgb(63,63,191);stroke-opacity:0.24705882352941178;stroke-miterlimit:10;stroke-linecap:square;" x1="283" x2="297" y1="140" y2="130"/>
  <line style="fill:none;stroke:rgb(63,63,191);stroke-opacity:0.24705882352941178;stroke-miterlimit:10;stroke-linecap:square;" x1="297" x2="312" y1="130" y2="120"/>
  <line style="fill:none;stroke:rgb(63,63,191);stroke-opacity:0.24705882352941178;stroke-miterlimit:10;stroke-linecap:square;" x1="312" x2="327" y1="120" y2="110"/>
  <line style="fill:none;stroke:rgb(63,63,191);stroke-opacity:0.24705882352941178;stroke-miterlimit:10;stroke-linecap:square;" x1="327" x2="341" y1="110" y2="100"/>
  <line style="fill:none;stroke:rgb(63,63,191);stroke-opacity:0.24705882352941178;stroke-miterlimit:10;stroke-linecap:square;" x1="341" x2="356" y1="100" y2="90"/>
  <line style="fill:none;stroke:rgb(63,63,191);stroke-opacity:0.24705882352941178;stroke-miterlimit:10;stroke-linecap:square;" x1="356" x2="370" y1="90" y2="80"/>
  <line style="fill:none;stroke:rgb(63,63,191);stroke-opacity:0.24705882352941178;stroke-miterlimit:10;stroke-linecap:square;" x1="370" x2="385" y1="80" y2="70"/>
  <line style="fill:none;stroke:rgb(63,63,191);stroke-opacity:0.24705882352941178;stroke-miterlimit:10;stroke-linecap:square;" x1="385" x2="400" y1="70" y2="60"/>
  <line style="fill:none;stroke:rgb(63,63,191);stroke-opacity:0.24705882352941178;stroke-miterlimit:10;stroke-linecap:square;" x1="400" x2="400" y1="60" y2="60"/>
  <rect height="6" style="fill:rgb(255,127,0);fill-opacity:0.7490196078431373;stroke:none;" width="4" x="48" y="293"/>
  <line style="fill:none;stroke:rgb(255,127,0);stroke-opacity:0.24705882352941178;stroke-width:2;stroke-miterlimit:10;stroke-linecap:square;" x1="50" x2="50" y1="300" y2="300"/>
  <line style="fill:none;stroke:rgb(255,127,0);stroke-opacity:0.24705882352941178;stroke-width:2;stroke-miterlimit:10;stroke-linecap:square;" x1="50" x2="50" y1="298" y2="295"/>
  <rect height="50" style="fill:rgb(255,127,0);fill-opacity:0.7490196078431373;stroke:none;" width="4" x="62" y="249"/>
  <line style="fill:none;stroke:rgb(255,127,0);stroke-opacity:0.24705882352941178;stroke-width:2;stroke-miterlimit:10;stroke-linecap:square;" x1="50" x2="64" y1="293" y2="293"/>
  <line style="fill:none;stroke:rgb(255,127,0);stroke-opacity:0.24705882352941178;stroke-width:2;stroke-miterlimit:10;stroke-linecap:square;" x1="64" x2="64" y1="291" y2="245"/>
  <rect height="18" style="fill:rgb(255,127,0);fill-opacity:0.7490196078431373;stroke:none;" width="4" x="77" y="281"/>
  <line style="fill:none;stroke:rgb(255,127,0);stroke-opacity:0.24705882352941178;stroke-width:2;stroke-miterlimit:10;stroke-linecap:square;" x1="64" x2="79" y1="243" y2="243"/>
  <line style="fill:none;stroke:rgb(255,127,0);stroke-opacity:0.24705882352941178;stroke-width:2;stroke-miterlimit:10;stroke-linecap:square;" x1="79" x2="79" y1="241" y2="226"/>
  <rect height="6" style="fill:rgb(255,127,0);fill-opacity:0.7490196078431373;stroke:none;" width="4" x="91" y="293"/>
  <line style="fill:none;stroke:rgb(255,127,0);stroke-opacity:0.24705882352941178;stroke-width:2;stroke-miterlimit:10;stroke-linecap:square;" x1="79" x2="93" y1="224" y2="224"/>
  <line style="fill:none;stroke:rgb(255,127,0);stroke-opacity:0.24705882352941178;stroke-width:2;stroke-miterlimit:10;stroke-linecap:square;" x1="93" x2="93" y1="222" y2="219"/>
  <rect height="12" style="fill:rgb(255,127,0);fill-opacity:0.7490196078431373;stroke:none;" width="4" x="106" y="287"/>
  <line style="fill:none;stroke:rgb(255,127,0);stroke-opacity:0.24705882352941178;stroke-width:2;stroke-miterlimit:10;stroke-linecap:square;" x1="93" x2="108" y1="217" y2="217"/>
  <line style="fill:none;stroke:rgb(255,127,0);stroke-opacity:0.24705882352941178;stroke-width:2;stroke-miterlimit:10;stroke-linecap:square;" x1="108" x2="108" y1="215" y2="207"/>
  <rect height="12" style="fill:rgb(255,127,0);fill-opacity:0.7490196078431373;stroke:none;" width="4" x="120" y="287"/>
  <line style="fill:none;stroke:rgb(255,127,0);stroke-opacity:0.24705882352941178;stroke-width:2;stroke-miterlimit:10;stroke-linecap:square;" x1="108" x2="122" y1="205" y2="205"/>
  <line style="fill:none;stroke:rgb(255,127,0);stroke-opacity:0.24705882352941178;stroke-width:2;stroke-miterlimit:10;stroke-linecap:square;" x1="122" x2="122" y1="203" y2="194"/>
  <rect height="6" style="fill:rgb(255,127,0);fill-opacity:0.7490196078431373;stroke:none;" width="4" x="164" y="293"/>
  <line style="fill:none;stroke:rgb(255,127,0);stroke-opacity:0.24705882352941178;stroke-width:2;stroke-miterlimit:10;stroke-linecap:square;" x1="122" x2="166" y1="192" y2="192"/>
  <line style="fill:none;stroke:rgb(255,127,0);stroke-opacity:0.24705882352941178;stroke-width:2;stroke-miterlimit:10;stroke-linecap:square;" x1="166" x2="166" y1="190" y2="188"/>
  <rect height="6" style="fill:rgb(255,127,0);fill-opacity:0.7490196078431373;stroke:none;" width="4" x="179" y="293"/>
  <line style="fill:none;stroke:rgb(255,127,0);stroke-opacity:0.24705882352941178;stroke-width:2;stroke-miterlimit:10;stroke-linecap:square;" x1="166" x2="181" y1="186" y2="186"/>
  <line style="fill:none;stroke:rgb(255,127,0);stroke-opacity:0.24705882352941178;stroke-width:2;stroke-miterlimit:10;stroke-linecap:square;" x1="181" x2="181" y1="184" y2="182"/>
  <rect height="6" style="fill:rgb(255,127,0);fill-opacity:0.7490196078431373;stroke:none;" width="4" x="193" y="293"/>
  <line style="fill:none;stroke:rgb(255,127,0);stroke-opacity:0.24705882352941178;stroke-width:2;stroke-miterlimit:10;stroke-linecap:square;" x1="181" x2="195" y1="180" y2="180"/>
  <line style="fill:none;stroke:rgb(255,127,0);stroke-opacity:0.24705882352941178;stroke-width:2;stroke-miterlimit:10;stroke-linecap:square;" x1="195" x2="195" y1="178" y2="175"/>
  <rect height="6" style="fill:rgb(255,127,0);fill-opacity:0.7490196078431373;stroke:none;" width="4" x="208" y="293"/>
  <line style="fill:none;stroke:rgb(255,127,0);stroke-opacity:0.24705882352941178;stroke-width:2;stroke-miterlimit:10;stroke-linecap:square;" x1="195" x2="210" y1="173" y2="173"/>
  <line style="fill:none;stroke:rgb(255,127,0);stroke-opacity:0.24705882352941178;stroke-width:2;stroke-miterlimit:10;stroke-linecap:square;" x1="210" x2="210" y1="171" y2="169"/>
  <rect height="6" style="fill:rgb(255,127,0);fill-opacity:0.7490196078431373;stroke:none;" width="4" x="223" y="293"/>
  <line style="fill:none;stroke:rgb(255,127,0);stroke-opacity:0.24705882352941178;stroke-width:2;stroke-miterlimit:10;stroke-linecap:square;" x1="210" x2="225" y1="167" y2="167"/>
  <line style="fill:none;stroke:rgb(255,127,0);stroke-opacity:0.24705882352941178;stroke-width:2;stroke-miterlimit:10;stroke-linecap:square;" x1="225" x2="225" y1="165" y2="163"/>
  <rect height="6" style="fill:rgb(255,127,0);fill-opacity:0.7490196078431373;stroke:none;" width="4" x="237" y="293"/>
  <line style="fill:none;stroke:rgb(255,127,0);stroke-opacity:0.24705882352941178;stroke-width:2;stroke-miterlimit:10;stroke-linecap:square;" x1="225" x2="239" y1="161" y2="161"/>
  <line style="fill:none;stroke:rgb(255,127,0);stroke-opacity:0.24705882352941178;stroke-width:2;stroke-miterlimit:10;stroke-linecap:square;" x1="239" x2="239" y1="159" y2="156"/>
  <rect height="6" style="fill:rgb(255,127,0);fill-opacity:0.7490196078431373;stroke:none;" width="4" x="252" y="293"/>
  <line style="fill:none;stroke:rgb(255,127,0);stroke-opacity:0.24705882352941178;stroke-width:2;stroke-miterlimit:10;stroke-linecap:square;" x1="239" x2="254" y1="154" y2="154"/>
  <line style="fill:none;stroke:rgb(255,127,0);stroke-opacity:0.24705882352941178;stroke-width:2;stroke-miterlimit:10;stroke-linecap:square;" x1="254" x2="254" y1="152" y2="150"/>
  <rect height="6" style="fill:rgb(255,127,0);fill-opacity:0.7490196078431373;stroke:none;" width="4" x="266" y="293"/>
  <line style="fill:none;stroke:rgb(255,127,0);stroke-opacity:0.24705882352941178;stroke-width:2;stroke-miterlimit:10;stroke-linecap:square;" x1="254" x2="268" y1="148" y2="148"/>
  <line style="fill:none;stroke:rgb(255,127,0);stroke-opacity:0.24705882352941178;stroke-width:2;stroke-miterlimit:10;stroke-linecap:square;" x1="268" x2="268" y1="146" y2="144"/>
  <rect height="12" style="fill:rgb(255,127,0);fill-opacity:0.7490196078431373;stroke:none;" width="4" x="281" y="287"/>
  <line style="fill:none;stroke:rgb(255,127,0);stroke-opacity:0.24705882352941178;stroke-width:2;stroke-miterlimit:10;stroke-linecap:square;" x1="268" x2="283" y1="142" y2="142"/>
  <line style="fill:none;stroke:rgb(255,127,0);stroke-opacity:0.24705882352941178;stroke-width:2;stroke-miterlimit:10;stroke-linecap:square;" x1="283" x2="283" y1="140" y2="131"/>
  <rect height="6" style="fill:rgb(255,127,0);fill-opacity:0.7490196078431373;stroke:none;" width="4" x="325" y="293"/>
  <line style="fill:none;stroke:rgb(255,127,0);stroke-opacity:0.24705882352941178;stroke-width:2;stroke-miterlimit:10;stroke-linecap:square;" x1="283" x2="327" y1="129" y2="129"/>
  <line style="fill:none;stroke:rgb(255,127,0);stroke-opacity:0.24705882352941178;stroke-width:2;stroke-miterlimit:10;stroke-linecap:square;" x1="327" x2="327" y1="127" y2="125"/>
  <rect height="12" style="fill:rgb(255,127,0);fill-opacity:0.7490196078431373;stroke:none;" width="4" x="354" y="287"/>
  <line style="fill:none;stroke:rgb(255,127,0);stroke-opacity:0.24705882352941178;stroke-width:2;stroke-miterlimit:10;stroke-linecap:square;" x1="327" x2="356" y1="123" y2="123"/>
  <line style="fill:none;stroke:rgb(255,127,0);stroke-opacity:0.24705882352941178;stroke-width:2;stroke-miterlimit:10;stroke-linecap:square;" x1="356" x2="356" y1="121" y2="112"/>
  <rect height="6" style="fill:rgb(255,127,0);fill-opacity:0.7490196078431373;stroke:none;" width="4" x="368" y="293"/>
  <line style="fill:none;stroke:rgb(255,127,0);stroke-opacity:0.24705882352941178;stroke-width:2;stroke-miterlimit:10;stroke-linecap:square;" x1="356" x2="370" y1="110" y2="110"/>
  <line style="fill:none;stroke:rgb(255,127,0);stroke-opacity:0.24705882352941178;stroke-width:2;stroke-miterlimit:10;stroke-linecap:square;" x1="370" x2="370" y1="108" y2="106"/>
  <rect height="31" style="fill:rgb(255,127,0);fill-opacity:0.7490196078431373;stroke:none;" width="4" x="383" y="268"/>
  <line style="fill:none;stroke:rgb(255,127,0);stroke-opacity:0.24705882352941178;stroke-width:2;stroke-miterlimit:10;stroke-linecap:square;" x1="370" x2="385" y1="104" y2="104"/>
  <line style="fill:none;stroke:rgb(255,127,0);stroke-opacity:0.24705882352941178;stroke-width:2;stroke-miterlimit:10;stroke-linecap:square;" x1="385" x2="385" y1="102" y2="74"/>
  <rect height="12" style="fill:rgb(255,127,0);fill-opacity:0.7490196078431373;stroke:none;" width="4" x="398" y="287"/>
  <line style="fill:none;stroke:rgb(255,127,0);stroke-opacity:0.24705882352941178;stroke-width:2;stroke-miterlimit:10;stroke-linecap:square;" x1="385" x2="400" y1="72" y2="72"/>
  <line style="fill:none;stroke:rgb(255,127,0);stroke-opacity:0.24705882352941178;stroke-width:2;stroke-miterlimit:10;stroke-linecap:square;" x1="400" x2="400" y1="70" y2="62"/>
  <line style="fill:none;stroke:rgb(255,127,0);stroke-opacity:0.24705882352941178;stroke-width:2;stroke-miterlimit:10;stroke-linecap:square;" x1="400" x2="400" y1="60" y2="60"/>
  <line style="fill:none;stroke:rgb(255,127,0);stroke-opacity:0.4980392156862745;stroke-miterlimit:2;stroke-dasharray:2;" x1="50" x2="50" y1="300" y2="350"/>
  <line style="fill:none;stroke:rgb(255,127,0);stroke-opacity:0.4980392156862745;stroke-miterlimit:2;stroke-dasharray:2;" x1="64" x2="64" y1="300" y2="367"/>
  <line style="fill:none;stroke:rgb(255,127,0);stroke-opacity:0.4980392156862745;stroke-miterlimit:2;stroke-dasharray:2;" x1="64" x2="64" y1="300" y2="384"/>
  <line style="fill:none;stroke:rgb(255,127,0);stroke-opacity:0.4980392156862745;stroke-miterlimit:2;stroke-dasharray:2;" x1="64" x2="64" y1="300" y2="401"/>
  <line style="fill:none;stroke:rgb(255,127,0);stroke-opacity:0.4980392156862745;stroke-miterlimit:2;stroke-dasharray:2;" x1="64" x2="64" y1="300" y2="418"/>
  <line style="fill:none;stroke:rgb(255,127,0);stroke-opacity:0.4980392156862745;stroke-miterlimit:2;stroke-dasharray:2;" x1="64" x2="64" y1="300" y2="435"/>
  <line style="fill:none;stroke:rgb(255,127,0);stroke-opacity:0.4980392156862745;stroke-miterlimit:2;stroke-dasharray:2;" x1="64" x2="64" y1="300" y2="452"/>
  <line style="fill:none;stroke:rgb(255,127,0);stroke-opacity:0.4980392156862745;stroke-miterlimit:2;stroke-dasharray:2;" x1="64" x2="64" y1="300" y2="469"/>
  <line style="fill:none;stroke:rgb(255,127,0);stroke-opacity:0.4980392156862745;stroke-miterlimit:2;stroke-dasharray:2;" x1="64" x2="64" y1="300" y2="486"/>
  <line style="fill:none;stroke:rgb(255,127,0);stroke-opacity:0.4980392156862745;stroke-miterlimit:2;stroke-dasharray:2;" x1="79" x2="79" y1="300" y2="503"/>
  <line style="fill:none;stroke:rgb(255,127,0);stroke-opacity:0.4980392156862745;stroke-miterlimit:2;stroke-dasharray:2;" x1="79" x2="79" y1="300" y2="520"/>
  <line style="fill:none;stroke:rgb(255,127,0);stroke-opacity:0.4980392156862745;stroke-miterlimit:2;stroke-dasharray:2;" x1="79" x2="79" y1="300" y2="537"/>
  <line style="fill:none;stroke:rgb(255,127,0);stroke-opacity:0.4980392156862745;stroke-miterlimit:2;stroke-dasharray:2;" x1="93" x2="93" y1="300" y2="551"/>
  <line style="fill:none;stroke:rgb(255,127,0);stroke-opacity:0.4980392156862745;stroke-miterlimit:2;stroke-dasharray:2;" x1="108" x2="108" y1="300" y2="565"/>
  <line style="fill:none;stroke:rgb(255,127,0);stroke-opacity:0.4980392156862745;stroke-miterlimit:2;stroke-dasharray:2;" x1="108" x2="108" y1="300" y2="579"/>
  <line style="fill:none;stroke:rgb(255,127,0);stroke-opacity:0.4980392156862745;stroke-miterlimit:2;stroke-dasharray:2;" x1="122" x2="122" y1="300" y2="593"/>
  <line style="fill:none;stroke:rgb(255,127,0);stroke-opacity:0.4980392156862745;stroke-miterlimit:2;stroke-dasharray:2;" x1="122" x2="122" y1="300" y2="607"/>
  <line style="fill:none;stroke:rgb(255,127,0);stroke-opacity:0.4980392156862745;stroke-miterlimit:2;stroke-dasharray:2;" x1="166" x2="166" y1="300" y2="619"/>
  <line style="fill:none;stroke:rgb(255,127,0);stroke-opacity:0.4980392156862745;stroke-miterlimit:2;stroke-dasharray:2;" x1="181" x2="181" y1="300" y2="631"/>
  <line style="fill:none;stroke:rgb(255,127,0);stroke-opacity:0.4980392156862745;stroke-miterlimit:2;stroke-dasharray:2;" x1="195" x2="195" y1="300" y2="643"/>
  <line style="fill:none;stroke:rgb(255,127,0);stroke-opacity:0.4980392156862745;stroke-miterlimit:2;stroke-dasharray:2;" x1="210" x2="210" y1="300" y2="655"/>
  <line style="fill:none;stroke:rgb(255,127,0);stroke-opacity:0.4980392156862745;stroke-miterlimit:2;stroke-dasharray:2;" x1="225" x2="225" y1="300" y2="667"/>
  <line style="fill:none;stroke:rgb(255,127,0);stroke-opacity:0.4980392156862745;stroke-miterlimit:2;stroke-dasharray:2;" x1="239" x2="239" y1="300" y2="679"/>
  <line style="fill:none;stroke:rgb(255,127,0);stroke-opacity:0.4980392156862745;stroke-miterlimit:2;stroke-dasharray:2;" x1="254" x2="254" y1="300" y2="691"/>
  <line style="fill:none;stroke:rgb(255,127,0);stroke-opacity:0.4980392156862745;stroke-miterlimit:2;stroke-dasharray:2;" x1="268" x2="268" y1="300" y2="703"/>
  <line style="fill:none;stroke:rgb(255,127,0);stroke-opacity:0.4980392156862745;stroke-miterlimit:2;stroke-dasharray:2;" x1="283" x2="283" y1="300" y2="715"/>
  <line style="fill:none;stroke:rgb(255,127,0);stroke-opacity:0.4980392156862745;stroke-miterlimit:2;stroke-dasharray:2;" x1="283" x2="283" y1="300" y2="727"/>
  <line style="fill:none;stroke:rgb(255,127,0);stroke-opacity:0.4980392156862745;stroke-miterlimit:2;stroke-dasharray:2;" x1="327" x2="327" y1="300" y2="739"/>
  <line style="fill:none;stroke:rgb(255,127,0);stroke-opacity:0.4980392156862745;stroke-miterlimit:2;stroke-dasharray:2;" x1="356" x2="356" y1="300" y2="751"/>
  <line style="fill:none;stroke:rgb(255,127,0);stroke-opacity:0.4980392156862745;stroke-miterlimit:2;stroke-dasharray:2;" x1="356" x2="356" y1="300" y2="763"/>
  <line style="fill:none;stroke:rgb(255,127,0);stroke-opacity:0.4980392156862745;stroke-miterlimit:2;stroke-dasharray:2;" x1="370" x2="370" y1="300" y2="775"/>
  <line style="fill:none;stroke:rgb(255,127,0);stroke-opacity:0.4980392156862745;stroke-miterlimit:2;stroke-dasharray:2;" x1="385" x2="385" y1="300" y2="792"/>
  <line style="fill:none;stroke:rgb(255,127,0);stroke-opacity:0.4980392156862745;stroke-miterlimit:2;stroke-dasharray:2;" x1="385" x2="385" y1="300" y2="809"/>
  <line style="fill:none;stroke:rgb(255,127,0);stroke-opacity:0.4980392156862745;stroke-miterlimit:2;stroke-dasharray:2;" x1="385" x2="385" y1="300" y2="826"/>
  <line style="fill:none;stroke:rgb(255,127,0);stroke-opacity:0.4980392156862745;stroke-miterlimit:2;stroke-dasharray:2;" x1="385" x2="385" y1="300" y2="843"/>
  <line style="fill:none;stroke:rgb(255,127,0);stroke-opacity:0.4980392156862745;stroke-miterlimit:2;stroke-dasharray:2;" x1="385" x2="385" y1="300" y2="860"/>
  <line style="fill:none;stroke:rgb(255,127,0);stroke-opacity:0.4980392156862745;stroke-miterlimit:2;stroke-dasharray:2;" x1="400" x2="400" y1="300" y2="877"/>
  <line style="fill:none;stroke:rgb(255,127,0);stroke-opacity:0.4980392156862745;stroke-miterlimit:2;stroke-dasharray:2;" x1="400" x2="400" y1="300" y2="894"/>
  <line style="fill:none;stroke:rgb(0,0,0);stroke-width:2;stroke-miterlimit:10;stroke-linecap:square;" x1="48" x2="48" y1="60" y2="300"/>
  <line style="fill:none;stroke:rgb(0,0,0);stroke-width:2;stroke-miterlimit:10;stroke-linecap:square;" x1="48" x2="402" y1="300" y2="300"/>
  <rect height="30" style="fill:rgb(255,255,255);stroke:none;" width="17" x="42" y="308"/>
  <text style="fill:rgb(0,0,0);stroke:none;font-size:25px;font-weight:bold;" x="42" y="332">0</text>
  <rect height="30" style="fill:rgb(255,255,255);stroke:none;" width="34" x="383" y="308"/>
  <text style="fill:rgb(0,0,0);stroke:none;font-size:25px;font-weight:bold;" x="383" y="332">24</text>
  <text style="fill:rgb(0,0,0);stroke:none;font-size:25px;font-weight:bold;" x="25" y="312">0</text>
  <text style="fill:rgb(0,0,0);stroke:none;font-size:25px;font-weight:bold;" x="25" y="72">1</text>
  <text style="fill:rgb(0,0,0);stroke:none;font-size:25px;font-weight:bold;" x="35" y="42">ONKEN_UVEAL_MELANOMA_UP</text>
  <rect height="13" style="fill:rgb(255,255,255);stroke:none;" width="40" x="50" y="337"/>
  <text style="fill:rgb(128,128,128);stroke:none;font-size:13px;" x="50" y="350">TRPV2</text>
  <rect height="13" style="fill:rgb(255,255,255);stroke:none;" width="26" x="64" y="354"/>
  <text style="fill:rgb(128,128,128);stroke:none;font-size:13px;" x="64" y="367">MET</text>
  <rect height="13" style="fill:rgb(255,255,255);stroke:none;" width="45" x="64" y="371"/>
  <text style="fill:rgb(128,128,128);stroke:none;font-size:13px;" x="64" y="384">HSPH1</text>
  <rect height="13" style="fill:rgb(255,255,255);stroke:none;" width="44" x="64" y="388"/>
  <text style="fill:rgb(128,128,128);stroke:none;font-size:13px;" x="64" y="401">KNOP1</text>
  <rect height="13" style="fill:rgb(255,255,255);stroke:none;" width="37" x="64" y="405"/>
  <text style="fill:rgb(128,128,128);stroke:none;font-size:13px;" x="64" y="418">INTS8</text>
  <rect height="13" style="fill:rgb(255,255,255);stroke:none;" width="41" x="64" y="422"/>
  <text style="fill:rgb(128,128,128);stroke:none;font-size:13px;" x="64" y="435">SRSF7</text>
  <rect height="13" style="fill:rgb(255,255,255);stroke:none;" width="54" x="64" y="439"/>
  <text style="fill:rgb(128,128,128);stroke:none;font-size:13px;" x="64" y="452">UBXN2B</text>
  <rect height="13" style="fill:rgb(255,255,255);stroke:none;" width="51" x="64" y="456"/>
  <text style="fill:rgb(128,128,128);stroke:none;font-size:13px;" x="64" y="469">ZNF706</text>
  <rect height="13" style="fill:rgb(255,255,255);stroke:none;" width="58" x="64" y="473"/>
  <text style="fill:rgb(128,128,128);stroke:none;font-size:13px;" x="64" y="486">FASTKD1</text>
  <rect height="13" style="fill:rgb(255,255,255);stroke:none;" width="46" x="79" y="490"/>
  <text style="fill:rgb(128,128,128);stroke:none;font-size:13px;" x="79" y="503">ABHD3</text>
  <rect height="13" style="fill:rgb(255,255,255);stroke:none;" width="35" x="79" y="507"/>
  <text style="fill:rgb(128,128,128);stroke:none;font-size:13px;" x="79" y="520">PILRB</text>
  <rect height="13" style="fill:rgb(255,255,255);stroke:none;" width="39" x="79" y="524"/>
  <text style="fill:rgb(128,128,128);stroke:none;font-size:13px;" x="79" y="537">TPST2</text>
  <rect height="11" style="fill:rgb(255,255,255);stroke:none;" width="37" x="93" y="540"/>
  <text style="fill:rgb(128,128,128);stroke:none;font-size:11px;" x="93" y="551">CTPS1</text>
  <rect height="11" style="fill:rgb(255,255,255);stroke:none;" width="40" x="108" y="554"/>
  <text style="fill:rgb(128,128,128);stroke:none;font-size:11px;" x="108" y="565">SOCS2</text>
  <rect height="11" style="fill:rgb(255,255,255);stroke:none;" width="45" x="108" y="568"/>
  <text style="fill:rgb(128,128,128);stroke:none;font-size:11px;" x="108" y="579">TBC1D1</text>
  <rect height="11" style="fill:rgb(255,255,255);stroke:none;" width="31" x="122" y="582"/>
  <text style="fill:rgb(128,128,128);stroke:none;font-size:11px;" x="122" y="593">SGK1</text>
  <rect height="11" style="fill:rgb(255,255,255);stroke:none;" width="50" x="122" y="596"/>
  <text style="fill:rgb(128,128,128);stroke:none;font-size:11px;" x="122" y="607">CYP51A1</text>
  <rect height="9" style="fill:rgb(255,255,255);stroke:none;" width="26" x="166" y="610"/>
  <text style="fill:rgb(128,128,128);stroke:none;font-size:9px;" x="166" y="619">ASB9</text>
  <rect height="9" style="fill:rgb(255,255,255);stroke:none;" width="35" x="181" y="622"/>
  <text style="fill:rgb(128,128,128);stroke:none;font-size:9px;" x="181" y="631">ELOVL6</text>
  <rect height="9" style="fill:rgb(255,255,255);stroke:none;" width="19" x="195" y="634"/>
  <text style="fill:rgb(128,128,128);stroke:none;font-size:9px;" x="195" y="643">HK2</text>
  <rect height="9" style="fill:rgb(255,255,255);stroke:none;" width="25" x="210" y="646"/>
  <text style="fill:rgb(128,128,128);stroke:none;font-size:9px;" x="210" y="655">RPGR</text>
  <rect height="9" style="fill:rgb(255,255,255);stroke:none;" width="24" x="225" y="658"/>
  <text style="fill:rgb(128,128,128);stroke:none;font-size:9px;" x="225" y="667">ZHX3</text>
  <rect height="9" style="fill:rgb(255,255,255);stroke:none;" width="36" x="239" y="670"/>
  <text style="fill:rgb(128,128,128);stroke:none;font-size:9px;" x="239" y="679">ZNF267</text>
  <rect height="9" style="fill:rgb(255,255,255);stroke:none;" width="27" x="254" y="682"/>
  <text style="fill:rgb(128,128,128);stroke:none;font-size:9px;" x="254" y="691">NFIL3</text>
  <rect height="9" style="fill:rgb(255,255,255);stroke:none;" width="38" x="268" y="694"/>
  <text style="fill:rgb(128,128,128);stroke:none;font-size:9px;" x="268" y="703">SNRPA1</text>
  <rect height="9" style="fill:rgb(255,255,255);stroke:none;" width="31" x="283" y="706"/>
  <text style="fill:rgb(128,128,128);stroke:none;font-size:9px;" x="283" y="715">SAP30</text>
  <rect height="9" style="fill:rgb(255,255,255);stroke:none;" width="45" x="283" y="718"/>
  <text style="fill:rgb(128,128,128);stroke:none;font-size:9px;" x="283" y="727">ZDHHC11</text>
  <rect height="9" style="fill:rgb(255,255,255);stroke:none;" width="39" x="327" y="730"/>
  <text style="fill:rgb(128,128,128);stroke:none;font-size:9px;" x="327" y="739">TNFAIP2</text>
  <rect height="9" style="fill:rgb(255,255,255);stroke:none;" width="28" x="356" y="742"/>
  <text style="fill:rgb(128,128,128);stroke:none;font-size:9px;" x="356" y="751">IFFO1</text>
  <rect height="9" style="fill:rgb(255,255,255);stroke:none;" width="32" x="356" y="754"/>
  <text style="fill:rgb(128,128,128);stroke:none;font-size:9px;" x="356" y="763">CHST3</text>
  <rect height="9" style="fill:rgb(255,255,255);stroke:none;" width="26" x="370" y="766"/>
  <text style="fill:rgb(128,128,128);stroke:none;font-size:9px;" x="370" y="775">CKS2</text>
  <rect height="13" style="fill:rgb(255,255,255);stroke:none;" width="36" x="385" y="779"/>
  <text style="fill:rgb(128,128,128);stroke:none;font-size:13px;" x="385" y="792">SACS</text>
  <rect height="13" style="fill:rgb(255,255,255);stroke:none;" width="34" x="385" y="796"/>
  <text style="fill:rgb(128,128,128);stroke:none;font-size:13px;" x="385" y="809">EML3</text>
  <rect height="13" style="fill:rgb(255,255,255);stroke:none;" width="53" x="385" y="813"/>
  <text style="fill:rgb(128,128,128);stroke:none;font-size:13px;" x="385" y="826">CDC25B</text>
  <rect height="13" style="fill:rgb(255,255,255);stroke:none;" width="50" x="385" y="830"/>
  <text style="fill:rgb(128,128,128);stroke:none;font-size:13px;" x="385" y="843">GEMIN6</text>
  <rect height="13" style="fill:rgb(255,255,255);stroke:none;" width="56" x="385" y="847"/>
  <text style="fill:rgb(128,128,128);stroke:none;font-size:13px;" x="385" y="860">PPP1R10</text>
  <rect height="13" style="fill:rgb(255,255,255);stroke:none;" width="34" x="400" y="864"/>
  <text style="fill:rgb(128,128,128);stroke:none;font-size:13px;" x="400" y="877">EGR1</text>
  <rect height="13" style="fill:rgb(255,255,255);stroke:none;" width="46" x="400" y="881"/>
  <text style="fill:rgb(128,128,128);stroke:none;font-size:13px;" x="400" y="894">MORC2</text>
</svg>
