<?xml version="1.0" encoding="UTF-8" standalone="no"?>
<!DOCTYPE svg PUBLIC "-//W3C//DTD SVG 1.1//EN" "http://www.w3.org/Graphics/SVG/1.1/DTD/svg11.dtd">
<svg xmlns:xlink="http://www.w3.org/1999/xlink" height="158.74999999999997mm" version="1.1" viewBox="0 0 500 600" width="132.29166666666666mm" x="0mm" y="0mm" xmlns="http://www.w3.org/2000/svg">
  <rect height="1200" style="fill:rgb(255,255,255);stroke:none;" width="1000" x="0" y="0"/>
  <rect height="240" style="fill:rgb(191,191,191);fill-opacity:0.4980392156862745;stroke:none;" width="175" x="225" y="60"/>
  <line style="fill:none;stroke:rgb(63,63,191);stroke-opacity:0.24705882352941178;stroke-miterlimit:10;stroke-linecap:square;" x1="50" x2="-8" y1="300" y2="300"/>
  <line style="fill:none;stroke:rgb(63,63,191);stroke-opacity:0.24705882352941178;stroke-miterlimit:10;stroke-linecap:square;" x1="-8" x2="6" y1="300" y2="300"/>
  <line style="fill:none;stroke:rgb(63,63,191);stroke-opacity:0.24705882352941178;stroke-miterlimit:10;stroke-linecap:square;" x1="6" x2="20" y1="300" y2="300"/>
  <line style="fill:none;stroke:rgb(63,63,191);stroke-opacity:0.24705882352941178;stroke-miterlimit:10;stroke-linecap:square;" x1="20" x2="35" y1="300" y2="300"/>
  <line style="fill:none;stroke:rgb(63,63,191);stroke-opacity:0.24705882352941178;stroke-miterlimit:10;stroke-linecap:square;" x1="35" x2="50" y1="300" y2="300"/>
  <line style="fill:none;stroke:rgb(63,63,191);stroke-opacity:0.24705882352941178;stroke-miterlimit:10;stroke-linecap:square;" x1="50" x2="64" y1="300" y2="290"/>
  <line style="fill:none;stroke:rgb(63,63,191);stroke-opacity:0.24705882352941178;stroke-miterlimit:10;stroke-linecap:square;" x1="64" x2="79" y1="290" y2="280"/>
  <line style="fill:none;stroke:rgb(63,63,191);stroke-opacity:0.24705882352941178;stroke-miterlimit:10;stroke-linecap:square;" x1="79" x2="93" y1="280" y2="270"/>
  <line style="fill:none;stroke:rgb(63,63,191);stroke-opacity:0.24705882352941178;stroke-miterlimit:10;stroke-linecap:square;" x1="93" x2="108" y1="270" y2="260"/>
  <line style="fill:none;stroke:rgb(63,63,191);stroke-opacity:0.24705882352941178;stroke-miterlimit:10;stroke-linecap:square;" x1="108" x2="122" y1="260" y2="250"/>
  <line style="fill:none;stroke:rgb(63,63,191);stroke-opacity:0.24705882352941178;stroke-miterlimit:10;stroke-linecap:square;" x1="122" x2="137" y1="250" y2="240"/>
  <line style="fill:none;stroke:rgb(63,63,191);stroke-opacity:0.24705882352941178;stroke-miterlimit:10;stroke-linecap:square;" x1="137" x2="152" y1="240" y2="230"/>
  <line style="fill:none;stroke:rgb(63,63,191);stroke-opacity:0.24705882352941178;stroke-miterlimit:10;stroke-linecap:square;" x1="152" x2="166" y1="230" y2="220"/>
  <line style="fill:none;stroke:rgb(63,63,191);stroke-opacity:0.24705882352941178;stroke-miterlimit:10;stroke-linecap:square;" x1="166" x2="181" y1="220" y2="210"/>
  <line style="fill:none;stroke:rgb(63,63,191);stroke-opacity:0.24705882352941178;stroke-miterlimit:10;stroke-linecap:square;" x1="181" x2="195" y1="210" y2="200"/>
  <line style="fill:none;stroke:rgb(63,63,191);stroke-opacity:0.24705882352941178;stroke-miterlimit:10;stroke-linecap:square;" x1="195" x2="210" y1="200" y2="190"/>
  <line style="fill:none;stroke:rgb(63,63,191);stroke-opacity:0.24705882352941178;stroke-miterlimit:10;stroke-linecap:square;" x1="210" x2="225" y1="190" y2="180"/>
  <line style="fill:none;stroke:rgb(63,63,191);stroke-opacity:0.24705882352941178;stroke-miterlimit:10;stroke-linecap:square;" x1="225" x2="239" y1="180" y2="170"/>
  <line style="fill:none;stroke:rgb(63,63,191);stroke-opacity:0.24705882352941178;stroke-miterlimit:10;stroke-linecap:square;" x1="239" x2="254" y1="170" y2="160"/>
  <line style="fill:none;stroke:rgb(63,63,191);stroke-opacity:0.24705882352941178;stroke-miterlimit:10;stroke-linecap:square;" x1="254" x2="268" y1="160" y2="150"/>
  <line style="fill:none;stroke:rgb(63,63,191);stroke-opacity:0.24705882352941178;stroke-miterlimit:10;stroke-linecap:square;" x1="268" x2="283" y1="150" y2="140"/>
  <line style="fill:none;stroke:rgb(63,63,191);stroke-opacity:0.24705882352941178;stroke-miterlimit:10;stroke-linecap:square;" x1="283" x2="297" y1="140" y2="130"/>
  <line style="fill:none;stroke:rgb(63,63,191);stroke-opacity:0.24705882352941178;stroke-miterlimit:10;stroke-linecap:square;" x1="297" x2="312" y1="130" y2="120"/>
  <line style="fill:none;stroke:rgb(63,63,191);stroke-opacity:0.24705882352941178;stroke-miterlimit:10;stroke-linecap:square;" x1="312" x2="327" y1="120" y2="110"/>
  <line style="fill:none;stroke:rgb(63,63,191);stroke-opacity:0.24705882352941178;stroke-miterlimit:10;stroke-linecap:square;" x1="327" x2="341" y1="110" y2="100"/>
  <line style="fill:none;stroke:rgb(63,63,191);stroke-opacity:0.24705882352941178;stroke-miterlimit:10;stroke-linecap:square;" x1="341" x2="400" y1="100" y2="60"/>
  <rect height="3" style="fill:rgb(255,127,0);fill-opacity:0.7490196078431373;stroke:none;" width="4" x="-10" y="296"/>
  <line style="fill:none;stroke:rgb(255,127,0);stroke-opacity:0.24705882352941178;stroke-width:2;stroke-miterlimit:10;stroke-linecap:square;" x1="50" x2="-8" y1="300" y2="300"/>
  <line style="fill:none;stroke:rgb(255,127,0);stroke-opacity:0.24705882352941178;stroke-width:2;stroke-miterlimit:10;stroke-linecap:square;" x1="-8" x2="-8" y1="298" y2="298"/>
  <rect height="15" style="fill:rgb(255,127,0);fill-opacity:0.7490196078431373;stroke:none;" width="4" x="4" y="284"/>
  <line style="fill:none;stroke:rgb(255,127,0);stroke-opacity:0.24705882352941178;stroke-width:2;stroke-miterlimit:10;stroke-linecap:square;" x1="-8" x2="6" y1="296" y2="296"/>
  <line style="fill:none;stroke:rgb(255,127,0);stroke-opacity:0.24705882352941178;stroke-width:2;stroke-miterlimit:10;stroke-linecap:square;" x1="6" x2="6" y1="294" y2="282"/>
  <rect height="15" style="fill:rgb(255,127,0);fill-opacity:0.7490196078431373;stroke:none;" width="4" x="18" y="284"/>
  <line style="fill:none;stroke:rgb(255,127,0);stroke-opacity:0.24705882352941178;stroke-width:2;stroke-miterlimit:10;stroke-linecap:square;" x1="6" x2="20" y1="280" y2="280"/>
  <line style="fill:none;stroke:rgb(255,127,0);stroke-opacity:0.24705882352941178;stroke-width:2;stroke-miterlimit:10;stroke-linecap:square;" x1="20" x2="20" y1="278" y2="266"/>
  <rect height="15" style="fill:rgb(255,127,0);fill-opacity:0.7490196078431373;stroke:none;" width="4" x="33" y="284"/>
  <line style="fill:none;stroke:rgb(255,127,0);stroke-opacity:0.24705882352941178;stroke-width:2;stroke-miterlimit:10;stroke-linecap:square;" x1="20" x2="35" y1="264" y2="264"/>
  <line style="fill:none;stroke:rgb(255,127,0);stroke-opacity:0.24705882352941178;stroke-width:2;stroke-miterlimit:10;stroke-linecap:square;" x1="35" x2="35" y1="262" y2="250"/>
  <rect height="19" style="fill:rgb(255,127,0);fill-opacity:0.7490196078431373;stroke:none;" width="4" x="62" y="280"/>
  <line style="fill:none;stroke:rgb(255,127,0);stroke-opacity:0.24705882352941178;stroke-width:2;stroke-miterlimit:10;stroke-linecap:square;" x1="35" x2="64" y1="248" y2="248"/>
  <line style="fill:none;stroke:rgb(255,127,0);stroke-opacity:0.24705882352941178;stroke-width:2;stroke-miterlimit:10;stroke-linecap:square;" x1="64" x2="64" y1="246" y2="231"/>
  <rect height="3" style="fill:rgb(255,127,0);fill-opacity:0.7490196078431373;stroke:none;" width="4" x="77" y="296"/>
  <line style="fill:none;stroke:rgb(255,127,0);stroke-opacity:0.24705882352941178;stroke-width:2;stroke-miterlimit:10;stroke-linecap:square;" x1="64" x2="79" y1="229" y2="229"/>
  <line style="fill:none;stroke:rgb(255,127,0);stroke-opacity:0.24705882352941178;stroke-width:2;stroke-miterlimit:10;stroke-linecap:square;" x1="79" x2="79" y1="227" y2="227"/>
  <rect height="3" style="fill:rgb(255,127,0);fill-opacity:0.7490196078431373;stroke:none;" width="4" x="106" y="296"/>
  <line style="fill:none;stroke:rgb(255,127,0);stroke-opacity:0.24705882352941178;stroke-width:2;stroke-miterlimit:10;stroke-linecap:square;" x1="79" x2="108" y1="225" y2="225"/>
  <line style="fill:none;stroke:rgb(255,127,0);stroke-opacity:0.24705882352941178;stroke-width:2;stroke-miterlimit:10;stroke-linecap:square;" x1="108" x2="108" y1="223" y2="223"/>
  <rect height="7" style="fill:rgb(255,127,0);fill-opacity:0.7490196078431373;stroke:none;" width="4" x="120" y="292"/>
  <line style="fill:none;stroke:rgb(255,127,0);stroke-opacity:0.24705882352941178;stroke-width:2;stroke-miterlimit:10;stroke-linecap:square;" x1="108" x2="122" y1="221" y2="221"/>
  <line style="fill:none;stroke:rgb(255,127,0);stroke-opacity:0.24705882352941178;stroke-width:2;stroke-miterlimit:10;stroke-linecap:square;" x1="122" x2="122" y1="219" y2="215"/>
  <rect height="11" style="fill:rgb(255,127,0);fill-opacity:0.7490196078431373;stroke:none;" width="4" x="135" y="288"/>
  <line style="fill:none;stroke:rgb(255,127,0);stroke-opacity:0.24705882352941178;stroke-width:2;stroke-miterlimit:10;stroke-linecap:square;" x1="122" x2="137" y1="213" y2="213"/>
  <line style="fill:none;stroke:rgb(255,127,0);stroke-opacity:0.24705882352941178;stroke-width:2;stroke-miterlimit:10;stroke-linecap:square;" x1="137" x2="137" y1="211" y2="203"/>
  <rect height="15" style="fill:rgb(255,127,0);fill-opacity:0.7490196078431373;stroke:none;" width="4" x="150" y="284"/>
  <line style="fill:none;stroke:rgb(255,127,0);stroke-opacity:0.24705882352941178;stroke-width:2;stroke-miterlimit:10;stroke-linecap:square;" x1="137" x2="152" y1="201" y2="201"/>
  <line style="fill:none;stroke:rgb(255,127,0);stroke-opacity:0.24705882352941178;stroke-width:2;stroke-miterlimit:10;stroke-linecap:square;" x1="152" x2="152" y1="199" y2="187"/>
  <rect height="15" style="fill:rgb(255,127,0);fill-opacity:0.7490196078431373;stroke:none;" width="4" x="164" y="284"/>
  <line style="fill:none;stroke:rgb(255,127,0);stroke-opacity:0.24705882352941178;stroke-width:2;stroke-miterlimit:10;stroke-linecap:square;" x1="152" x2="166" y1="185" y2="185"/>
  <line style="fill:none;stroke:rgb(255,127,0);stroke-opacity:0.24705882352941178;stroke-width:2;stroke-miterlimit:10;stroke-linecap:square;" x1="166" x2="166" y1="183" y2="172"/>
  <rect height="7" style="fill:rgb(255,127,0);fill-opacity:0.7490196078431373;stroke:none;" width="4" x="179" y="292"/>
  <line style="fill:none;stroke:rgb(255,127,0);stroke-opacity:0.24705882352941178;stroke-width:2;stroke-miterlimit:10;stroke-linecap:square;" x1="166" x2="181" y1="170" y2="170"/>
  <line style="fill:none;stroke:rgb(255,127,0);stroke-opacity:0.24705882352941178;stroke-width:2;stroke-miterlimit:10;stroke-linecap:square;" x1="181" x2="181" y1="168" y2="164"/>
  <rect height="11" style="fill:rgb(255,127,0);fill-opacity:0.7490196078431373;stroke:none;" width="4" x="193" y="288"/>
  <line style="fill:none;stroke:rgb(255,127,0);stroke-opacity:0.24705882352941178;stroke-width:2;stroke-miterlimit:10;stroke-linecap:square;" x1="181" x2="195" y1="162" y2="162"/>
  <line style="fill:none;stroke:rgb(255,127,0);stroke-opacity:0.24705882352941178;stroke-width:2;stroke-miterlimit:10;stroke-linecap:square;" x1="195" x2="195" y1="160" y2="152"/>
  <rect height="23" style="fill:rgb(255,127,0);fill-opacity:0.7490196078431373;stroke:none;" width="4" x="208" y="276"/>
  <line style="fill:none;stroke:rgb(255,127,0);stroke-opacity:0.24705882352941178;stroke-width:2;stroke-miterlimit:10;stroke-linecap:square;" x1="195" x2="210" y1="150" y2="150"/>
  <line style="fill:none;stroke:rgb(255,127,0);stroke-opacity:0.24705882352941178;stroke-width:2;stroke-miterlimit:10;stroke-linecap:square;" x1="210" x2="210" y1="148" y2="128"/>
  <rect height="7" style="fill:rgb(255,127,0);fill-opacity:0.7490196078431373;stroke:none;" width="4" x="223" y="292"/>
  <line style="fill:none;stroke:rgb(255,127,0);stroke-opacity:0.24705882352941178;stroke-width:2;stroke-miterlimit:10;stroke-linecap:square;" x1="210" x2="225" y1="126" y2="126"/>
  <line style="fill:none;stroke:rgb(255,127,0);stroke-opacity:0.24705882352941178;stroke-width:2;stroke-miterlimit:10;stroke-linecap:square;" x1="225" x2="225" y1="124" y2="121"/>
  <rect height="3" style="fill:rgb(255,127,0);fill-opacity:0.7490196078431373;stroke:none;" width="4" x="237" y="296"/>
  <line style="fill:none;stroke:rgb(255,127,0);stroke-opacity:0.24705882352941178;stroke-width:2;stroke-miterlimit:10;stroke-linecap:square;" x1="225" x2="239" y1="119" y2="119"/>
  <line style="fill:none;stroke:rgb(255,127,0);stroke-opacity:0.24705882352941178;stroke-width:2;stroke-miterlimit:10;stroke-linecap:square;" x1="239" x2="239" y1="117" y2="117"/>
  <rect height="7" style="fill:rgb(255,127,0);fill-opacity:0.7490196078431373;stroke:none;" width="4" x="252" y="292"/>
  <line style="fill:none;stroke:rgb(255,127,0);stroke-opacity:0.24705882352941178;stroke-width:2;stroke-miterlimit:10;stroke-linecap:square;" x1="239" x2="254" y1="115" y2="115"/>
  <line style="fill:none;stroke:rgb(255,127,0);stroke-opacity:0.24705882352941178;stroke-width:2;stroke-miterlimit:10;stroke-linecap:square;" x1="254" x2="254" y1="113" y2="109"/>
  <rect height="7" style="fill:rgb(255,127,0);fill-opacity:0.7490196078431373;stroke:none;" width="4" x="266" y="292"/>
  <line style="fill:none;stroke:rgb(255,127,0);stroke-opacity:0.24705882352941178;stroke-width:2;stroke-miterlimit:10;stroke-linecap:square;" x1="254" x2="268" y1="107" y2="107"/>
  <line style="fill:none;stroke:rgb(255,127,0);stroke-opacity:0.24705882352941178;stroke-width:2;stroke-miterlimit:10;stroke-linecap:square;" x1="268" x2="268" y1="105" y2="101"/>
  <rect height="3" style="fill:rgb(255,127,0);fill-opacity:0.7490196078431373;stroke:none;" width="4" x="281" y="296"/>
  <line style="fill:none;stroke:rgb(255,127,0);stroke-opacity:0.24705882352941178;stroke-width:2;stroke-miterlimit:10;stroke-linecap:square;" x1="268" x2="283" y1="99" y2="99"/>
  <line style="fill:none;stroke:rgb(255,127,0);stroke-opacity:0.24705882352941178;stroke-width:2;stroke-miterlimit:10;stroke-linecap:square;" x1="283" x2="283" y1="97" y2="97"/>
  <rect height="11" style="fill:rgb(255,127,0);fill-opacity:0.7490196078431373;stroke:none;" width="4" x="295" y="288"/>
  <line style="fill:none;stroke:rgb(255,127,0);stroke-opacity:0.24705882352941178;stroke-width:2;stroke-miterlimit:10;stroke-linecap:square;" x1="283" x2="297" y1="95" y2="95"/>
  <line style="fill:none;stroke:rgb(255,127,0);stroke-opacity:0.24705882352941178;stroke-width:2;stroke-miterlimit:10;stroke-linecap:square;" x1="297" x2="297" y1="93" y2="85"/>
  <rect height="7" style="fill:rgb(255,127,0);fill-opacity:0.7490196078431373;stroke:none;" width="4" x="310" y="292"/>
  <line style="fill:none;stroke:rgb(255,127,0);stroke-opacity:0.24705882352941178;stroke-width:2;stroke-miterlimit:10;stroke-linecap:square;" x1="297" x2="312" y1="83" y2="83"/>
  <line style="fill:none;stroke:rgb(255,127,0);stroke-opacity:0.24705882352941178;stroke-width:2;stroke-miterlimit:10;stroke-linecap:square;" x1="312" x2="312" y1="81" y2="77"/>
  <rect height="7" style="fill:rgb(255,127,0);fill-opacity:0.7490196078431373;stroke:none;" width="4" x="325" y="292"/>
  <line style="fill:none;stroke:rgb(255,127,0);stroke-opacity:0.24705882352941178;stroke-width:2;stroke-miterlimit:10;stroke-linecap:square;" x1="312" x2="327" y1="75" y2="75"/>
  <line style="fill:none;stroke:rgb(255,127,0);stroke-opacity:0.24705882352941178;stroke-width:2;stroke-miterlimit:10;stroke-linecap:square;" x1="327" x2="327" y1="73" y2="69"/>
  <rect height="7" style="fill:rgb(255,127,0);fill-opacity:0.7490196078431373;stroke:none;" width="4" x="339" y="292"/>
  <line style="fill:none;stroke:rgb(255,127,0);stroke-opacity:0.24705882352941178;stroke-width:2;stroke-miterlimit:10;stroke-linecap:square;" x1="327" x2="341" y1="67" y2="67"/>
  <line style="fill:none;stroke:rgb(255,127,0);stroke-opacity:0.24705882352941178;stroke-width:2;stroke-miterlimit:10;stroke-linecap:square;" x1="341" x2="341" y1="65" y2="62"/>
  <line style="fill:none;stroke:rgb(255,127,0);stroke-opacity:0.24705882352941178;stroke-width:2;stroke-miterlimit:10;stroke-linecap:square;" x1="341" x2="400" y1="60" y2="60"/>
  <line style="fill:none;stroke:rgb(255,127,0);stroke-opacity:0.4980392156862745;stroke-miterlimit:2;stroke-dasharray:2;" x1="-8" x2="-8" y1="300" y2="367"/>
  <line style="fill:none;stroke:rgb(255,127,0);stroke-opacity:0.4980392156862745;stroke-miterlimit:2;stroke-dasharray:2;" x1="6" x2="6" y1="300" y2="384"/>
  <line style="fill:none;stroke:rgb(255,127,0);stroke-opacity:0.4980392156862745;stroke-miterlimit:2;stroke-dasharray:2;" x1="6" x2="6" y1="300" y2="401"/>
  <line style="fill:none;stroke:rgb(255,127,0);stroke-opacity:0.4980392156862745;stroke-miterlimit:2;stroke-dasharray:2;" x1="6" x2="6" y1="300" y2="418"/>
  <line style="fill:none;stroke:rgb(255,127,0);stroke-opacity:0.4980392156862745;stroke-miterlimit:2;stroke-dasharray:2;" x1="6" x2="6" y1="300" y2="435"/>
  <line style="fill:none;stroke:rgb(255,127,0);stroke-opacity:0.4980392156862745;stroke-miterlimit:2;stroke-dasharray:2;" x1="20" x2="20" y1="300" y2="452"/>
  <line style="fill:none;stroke:rgb(255,127,0);stroke-opacity:0.4980392156862745;stroke-miterlimit:2;stroke-dasharray:2;" x1="20" x2="20" y1="300" y2="469"/>
  <line style="fill:none;stroke:rgb(255,127,0);stroke-opacity:0.4980392156862745;stroke-miterlimit:2;stroke-dasharray:2;" x1="20" x2="20" y1="300" y2="486"/>
  <line style="fill:none;stroke:rgb(255,127,0);stroke-opacity:0.4980392156862745;stroke-miterlimit:2;stroke-dasharray:2;" x1="20" x2="20" y1="300" y2="503"/>
  <line style="fill:none;stroke:rgb(255,127,0);stroke-opacity:0.4980392156862745;stroke-miterlimit:2;stroke-dasharray:2;" x1="35" x2="35" y1="300" y2="520"/>
  <line style="fill:none;stroke:rgb(255,127,0);stroke-opacity:0.4980392156862745;stroke-miterlimit:2;stroke-dasharray:2;" x1="35" x2="35" y1="300" y2="537"/>
  <line style="fill:none;stroke:rgb(255,127,0);stroke-opacity:0.4980392156862745;stroke-miterlimit:2;stroke-dasharray:2;" x1="35" x2="35" y1="300" y2="554"/>
  <line style="fill:none;stroke:rgb(255,127,0);stroke-opacity:0.4980392156862745;stroke-miterlimit:2;stroke-dasharray:2;" x1="35" x2="35" y1="300" y2="571"/>
  <line style="fill:none;stroke:rgb(255,127,0);stroke-opacity:0.4980392156862745;stroke-miterlimit:2;stroke-dasharray:2;" x1="64" x2="64" y1="300" y2="588"/>
  <line style="fill:none;stroke:rgb(255,127,0);stroke-opacity:0.4980392156862745;stroke-miterlimit:2;stroke-dasharray:2;" x1="64" x2="64" y1="300" y2="605"/>
  <line style="fill:none;stroke:rgb(255,127,0);stroke-opacity:0.4980392156862745;stroke-miterlimit:2;stroke-dasharray:2;" x1="64" x2="64" y1="300" y2="622"/>
  <line style="fill:none;stroke:rgb(255,127,0);stroke-opacity:0.4980392156862745;stroke-miterlimit:2;stroke-dasharray:2;" x1="64" x2="64" y1="300" y2="639"/>
  <line style="fill:none;stroke:rgb(255,127,0);stroke-opacity:0.4980392156862745;stroke-miterlimit:2;stroke-dasharray:2;" x1="64" x2="64" y1="300" y2="656"/>
  <line style="fill:none;stroke:rgb(255,127,0);stroke-opacity:0.4980392156862745;stroke-miterlimit:2;stroke-dasharray:2;" x1="79" x2="79" y1="300" y2="673"/>
  <line style="fill:none;stroke:rgb(255,127,0);stroke-opacity:0.4980392156862745;stroke-miterlimit:2;stroke-dasharray:2;" x1="108" x2="108" y1="300" y2="690"/>
  <line style="fill:none;stroke:rgb(255,127,0);stroke-opacity:0.4980392156862745;stroke-miterlimit:2;stroke-dasharray:2;" x1="122" x2="122" y1="300" y2="707"/>
  <line style="fill:none;stroke:rgb(255,127,0);stroke-opacity:0.4980392156862745;stroke-miterlimit:2;stroke-dasharray:2;" x1="122" x2="122" y1="300" y2="724"/>
  <line style="fill:none;stroke:rgb(255,127,0);stroke-opacity:0.4980392156862745;stroke-miterlimit:2;stroke-dasharray:2;" x1="137" x2="137" y1="300" y2="739"/>
  <line style="fill:none;stroke:rgb(255,127,0);stroke-opacity:0.4980392156862745;stroke-miterlimit:2;stroke-dasharray:2;" x1="137" x2="137" y1="300" y2="754"/>
  <line style="fill:none;stroke:rgb(255,127,0);stroke-opacity:0.4980392156862745;stroke-miterlimit:2;stroke-dasharray:2;" x1="137" x2="137" y1="300" y2="769"/>
  <line style="fill:none;stroke:rgb(255,127,0);stroke-opacity:0.4980392156862745;stroke-miterlimit:2;stroke-dasharray:2;" x1="152" x2="152" y1="300" y2="783"/>
  <line style="fill:none;stroke:rgb(255,127,0);stroke-opacity:0.4980392156862745;stroke-miterlimit:2;stroke-dasharray:2;" x1="152" x2="152" y1="300" y2="797"/>
  <line style="fill:none;stroke:rgb(255,127,0);stroke-opacity:0.4980392156862745;stroke-miterlimit:2;stroke-dasharray:2;" x1="152" x2="152" y1="300" y2="811"/>
  <line style="fill:none;stroke:rgb(255,127,0);stroke-opacity:0.4980392156862745;stroke-miterlimit:2;stroke-dasharray:2;" x1="152" x2="152" y1="300" y2="825"/>
  <line style="fill:none;stroke:rgb(255,127,0);stroke-opacity:0.4980392156862745;stroke-miterlimit:2;stroke-dasharray:2;" x1="166" x2="166" y1="300" y2="839"/>
  <line style="fill:none;stroke:rgb(255,127,0);stroke-opacity:0.4980392156862745;stroke-miterlimit:2;stroke-dasharray:2;" x1="166" x2="166" y1="300" y2="853"/>
  <line style="fill:none;stroke:rgb(255,127,0);stroke-opacity:0.4980392156862745;stroke-miterlimit:2;stroke-dasharray:2;" x1="166" x2="166" y1="300" y2="867"/>
  <line style="fill:none;stroke:rgb(255,127,0);stroke-opacity:0.4980392156862745;stroke-miterlimit:2;stroke-dasharray:2;" x1="166" x2="166" y1="300" y2="881"/>
  <line style="fill:none;stroke:rgb(255,127,0);stroke-opacity:0.4980392156862745;stroke-miterlimit:2;stroke-dasharray:2;" x1="181" x2="181" y1="300" y2="895"/>
  <line style="fill:none;stroke:rgb(255,127,0);stroke-opacity:0.4980392156862745;stroke-miterlimit:2;stroke-dasharray:2;" x1="181" x2="181" y1="300" y2="909"/>
  <line style="fill:none;stroke:rgb(255,127,0);stroke-opacity:0.4980392156862745;stroke-miterlimit:2;stroke-dasharray:2;" x1="195" x2="195" y1="300" y2="923"/>
  <line style="fill:none;stroke:rgb(255,127,0);stroke-opacity:0.4980392156862745;stroke-miterlimit:2;stroke-dasharray:2;" x1="195" x2="195" y1="300" y2="937"/>
  <line style="fill:none;stroke:rgb(255,127,0);stroke-opacity:0.4980392156862745;stroke-miterlimit:2;stroke-dasharray:2;" x1="195" x2="195" y1="300" y2="951"/>
  <line style="fill:none;stroke:rgb(255,127,0);stroke-opacity:0.4980392156862745;stroke-miterlimit:2;stroke-dasharray:2;" x1="210" x2="210" y1="300" y2="965"/>
  <line style="fill:none;stroke:rgb(255,127,0);stroke-opacity:0.4980392156862745;stroke-miterlimit:2;stroke-dasharray:2;" x1="210" x2="210" y1="300" y2="979"/>
  <line style="fill:none;stroke:rgb(255,127,0);stroke-opacity:0.4980392156862745;stroke-miterlimit:2;stroke-dasharray:2;" x1="210" x2="210" y1="300" y2="993"/>
  <line style="fill:none;stroke:rgb(255,127,0);stroke-opacity:0.4980392156862745;stroke-miterlimit:2;stroke-dasharray:2;" x1="210" x2="210" y1="300" y2="1007"/>
  <line style="fill:none;stroke:rgb(255,127,0);stroke-opacity:0.4980392156862745;stroke-miterlimit:2;stroke-dasharray:2;" x1="210" x2="210" y1="300" y2="1021"/>
  <line style="fill:none;stroke:rgb(255,127,0);stroke-opacity:0.4980392156862745;stroke-miterlimit:2;stroke-dasharray:2;" x1="210" x2="210" y1="300" y2="1035"/>
  <line style="fill:none;stroke:rgb(255,127,0);stroke-opacity:0.4980392156862745;stroke-miterlimit:2;stroke-dasharray:2;" x1="225" x2="225" y1="300" y2="1047"/>
  <line style="fill:none;stroke:rgb(255,127,0);stroke-opacity:0.4980392156862745;stroke-miterlimit:2;stroke-dasharray:2;" x1="225" x2="225" y1="300" y2="1059"/>
  <line style="fill:none;stroke:rgb(255,127,0);stroke-opacity:0.4980392156862745;stroke-miterlimit:2;stroke-dasharray:2;" x1="239" x2="239" y1="300" y2="1071"/>
  <line style="fill:none;stroke:rgb(255,127,0);stroke-opacity:0.4980392156862745;stroke-miterlimit:2;stroke-dasharray:2;" x1="254" x2="254" y1="300" y2="1083"/>
  <line style="fill:none;stroke:rgb(255,127,0);stroke-opacity:0.4980392156862745;stroke-miterlimit:2;stroke-dasharray:2;" x1="254" x2="254" y1="300" y2="1095"/>
  <line style="fill:none;stroke:rgb(255,127,0);stroke-opacity:0.4980392156862745;stroke-miterlimit:2;stroke-dasharray:2;" x1="268" x2="268" y1="300" y2="1107"/>
  <line style="fill:none;stroke:rgb(255,127,0);stroke-opacity:0.4980392156862745;stroke-miterlimit:2;stroke-dasharray:2;" x1="268" x2="268" y1="300" y2="1119"/>
  <line style="fill:none;stroke:rgb(255,127,0);stroke-opacity:0.4980392156862745;stroke-miterlimit:2;stroke-dasharray:2;" x1="283" x2="283" y1="300" y2="1131"/>
  <line style="fill:none;stroke:rgb(255,127,0);stroke-opacity:0.4980392156862745;stroke-miterlimit:2;stroke-dasharray:2;" x1="297" x2="297" y1="300" y2="1143"/>
  <line style="fill:none;stroke:rgb(255,127,0);stroke-opacity:0.4980392156862745;stroke-miterlimit:2;stroke-dasharray:2;" x1="297" x2="297" y1="300" y2="1155"/>
  <line style="fill:none;stroke:rgb(255,127,0);stroke-opacity:0.4980392156862745;stroke-miterlimit:2;stroke-dasharray:2;" x1="297" x2="297" y1="300" y2="1167"/>
  <line style="fill:none;stroke:rgb(255,127,0);stroke-opacity:0.4980392156862745;stroke-miterlimit:2;stroke-dasharray:2;" x1="312" x2="312" y1="300" y2="1179"/>
  <line style="fill:none;stroke:rgb(255,127,0);stroke-opacity:0.4980392156862745;stroke-miterlimit:2;stroke-dasharray:2;" x1="312" x2="312" y1="300" y2="1191"/>
  <line style="fill:none;stroke:rgb(255,127,0);stroke-opacity:0.4980392156862745;stroke-miterlimit:2;stroke-dasharray:2;" x1="327" x2="327" y1="300" y2="1203"/>
  <line style="fill:none;stroke:rgb(255,127,0);stroke-opacity:0.4980392156862745;stroke-miterlimit:2;stroke-dasharray:2;" x1="327" x2="327" y1="300" y2="1215"/>
  <line style="fill:none;stroke:rgb(255,127,0);stroke-opacity:0.4980392156862745;stroke-miterlimit:2;stroke-dasharray:2;" x1="341" x2="341" y1="300" y2="1227"/>
  <line style="fill:none;stroke:rgb(255,127,0);stroke-opacity:0.4980392156862745;stroke-miterlimit:2;stroke-dasharray:2;" x1="341" x2="341" y1="300" y2="1239"/>
  <line style="fill:none;stroke:rgb(0,0,0);stroke-width:2;stroke-miterlimit:10;stroke-linecap:square;" x1="48" x2="48" y1="60" y2="300"/>
  <line style="fill:none;stroke:rgb(0,0,0);stroke-width:2;stroke-miterlimit:10;stroke-linecap:square;" x1="48" x2="402" y1="300" y2="300"/>
  <rect height="30" style="fill:rgb(255,255,255);stroke:none;" width="17" x="42" y="308"/>
  <text style="fill:rgb(0,0,0);stroke:none;font-size:25px;font-weight:bold;" x="42" y="332">0</text>
  <rect height="30" style="fill:rgb(255,255,255);stroke:none;" width="34" x="383" y="308"/>
  <text style="fill:rgb(0,0,0);stroke:none;font-size:25px;font-weight:bold;" x="383" y="332">24</text>
  <text style="fill:rgb(0,0,0);stroke:none;font-size:25px;font-weight:bold;" x="25" y="312">0</text>
  <text style="fill:rgb(0,0,0);stroke:none;font-size:25px;font-weight:bold;" x="25" y="72">1</text>
  <text style="fill:rgb(0,0,0);stroke:none;font-size:21px;font-weight:bold;" x="8" y="40">GOBP_ACTIN_FILAMENT_BASED_PROCESS</text>
  <rect height="13" style="fill:rgb(255,255,255);stroke:none;" width="41" x="-8" y="354"/>
  <text style="fill:rgb(128,128,128);stroke:none;font-size:13px;" x="-8" y="367">PRKCE</text>
  <rect height="13" style="fill:rgb(255,255,255);stroke:none;" width="26" x="6" y="371"/>
  <text style="fill:rgb(128,128,128);stroke:none;font-size:13px;" x="6" y="384">EZR</text>
  <rect height="13" style="fill:rgb(255,255,255);stroke:none;" width="31" x="6" y="388"/>
  <text style="fill:rgb(128,128,128);stroke:none;font-size:13px;" x="6" y="401">TTC8</text>
  <rect height="13" style="fill:rgb(255,255,255);stroke:none;" width="36" x="6" y="405"/>
  <text style="fill:rgb(128,128,128);stroke:none;font-size:13px;" x="6" y="418">RGCC</text>
  <rect height="13" style="fill:rgb(255,255,255);stroke:none;" width="41" x="6" y="422"/>
  <text style="fill:rgb(128,128,128);stroke:none;font-size:13px;" x="6" y="435">PALLD</text>
  <rect height="13" style="fill:rgb(255,255,255);stroke:none;" width="45" x="20" y="439"/>
  <text style="fill:rgb(128,128,128);stroke:none;font-size:13px;" x="20" y="452">ZBED3</text>
  <rect height="13" style="fill:rgb(255,255,255);stroke:none;" width="43" x="20" y="456"/>
  <text style="fill:rgb(128,128,128);stroke:none;font-size:13px;" x="20" y="469">AUTS2</text>
  <rect height="13" style="fill:rgb(255,255,255);stroke:none;" width="51" x="20" y="473"/>
  <text style="fill:rgb(128,128,128);stroke:none;font-size:13px;" x="20" y="486">SPECC1</text>
  <rect height="13" style="fill:rgb(255,255,255);stroke:none;" width="51" x="20" y="490"/>
  <text style="fill:rgb(128,128,128);stroke:none;font-size:13px;" x="20" y="503">PSTPIP2</text>
  <rect height="13" style="fill:rgb(255,255,255);stroke:none;" width="35" x="35" y="507"/>
  <text style="fill:rgb(128,128,128);stroke:none;font-size:13px;" x="35" y="520">ASB2</text>
  <rect height="13" style="fill:rgb(255,255,255);stroke:none;" width="43" x="35" y="524"/>
  <text style="fill:rgb(128,128,128);stroke:none;font-size:13px;" x="35" y="537">FZD10</text>
  <rect height="13" style="fill:rgb(255,255,255);stroke:none;" width="43" x="35" y="541"/>
  <text style="fill:rgb(128,128,128);stroke:none;font-size:13px;" x="35" y="554">KANK3</text>
  <rect height="13" style="fill:rgb(255,255,255);stroke:none;" width="49" x="35" y="558"/>
  <text style="fill:rgb(128,128,128);stroke:none;font-size:13px;" x="35" y="571">DPYSL3</text>
  <rect height="13" style="fill:rgb(255,255,255);stroke:none;" width="33" x="64" y="575"/>
  <text style="fill:rgb(128,128,128);stroke:none;font-size:13px;" x="64" y="588">BST1</text>
  <rect height="13" style="fill:rgb(255,255,255);stroke:none;" width="40" x="64" y="592"/>
  <text style="fill:rgb(128,128,128);stroke:none;font-size:13px;" x="64" y="605">TRPV4</text>
  <rect height="13" style="fill:rgb(255,255,255);stroke:none;" width="53" x="64" y="609"/>
  <text style="fill:rgb(128,128,128);stroke:none;font-size:13px;" x="64" y="622">MYO15A</text>
  <rect height="13" style="fill:rgb(255,255,255);stroke:none;" width="55" x="64" y="626"/>
  <text style="fill:rgb(128,128,128);stroke:none;font-size:13px;" x="64" y="639">CARMIL1</text>
  <rect height="13" style="fill:rgb(255,255,255);stroke:none;" width="69" x="64" y="643"/>
  <text style="fill:rgb(128,128,128);stroke:none;font-size:13px;" x="64" y="656">PPARGC1B</text>
  <rect height="13" style="fill:rgb(255,255,255);stroke:none;" width="21" x="79" y="660"/>
  <text style="fill:rgb(128,128,128);stroke:none;font-size:13px;" x="79" y="673">ID1</text>
  <rect height="13" style="fill:rgb(255,255,255);stroke:none;" width="45" x="108" y="677"/>
  <text style="fill:rgb(128,128,128);stroke:none;font-size:13px;" x="108" y="690">KCNQ1</text>
  <rect height="13" style="fill:rgb(255,255,255);stroke:none;" width="30" x="122" y="694"/>
  <text style="fill:rgb(128,128,128);stroke:none;font-size:13px;" x="122" y="707">TLE6</text>
  <rect height="13" style="fill:rgb(255,255,255);stroke:none;" width="38" x="122" y="711"/>
  <text style="fill:rgb(128,128,128);stroke:none;font-size:13px;" x="122" y="724">KCNJ2</text>
  <rect height="12" style="fill:rgb(255,255,255);stroke:none;" width="25" x="137" y="727"/>
  <text style="fill:rgb(128,128,128);stroke:none;" x="137" y="739">AVIL</text>
  <rect height="12" style="fill:rgb(255,255,255);stroke:none;" width="48" x="137" y="742"/>
  <text style="fill:rgb(128,128,128);stroke:none;" x="137" y="754">PHLDB2</text>
  <rect height="12" style="fill:rgb(255,255,255);stroke:none;" width="66" x="137" y="757"/>
  <text style="fill:rgb(128,128,128);stroke:none;" x="137" y="769">ARHGAP25</text>
  <rect height="11" style="fill:rgb(255,255,255);stroke:none;" width="21" x="152" y="772"/>
  <text style="fill:rgb(128,128,128);stroke:none;font-size:11px;" x="152" y="783">TNF</text>
  <rect height="11" style="fill:rgb(255,255,255);stroke:none;" width="37" x="152" y="786"/>
  <text style="fill:rgb(128,128,128);stroke:none;font-size:11px;" x="152" y="797">CSRP2</text>
  <rect height="11" style="fill:rgb(255,255,255);stroke:none;" width="36" x="152" y="800"/>
  <text style="fill:rgb(128,128,128);stroke:none;font-size:11px;" x="152" y="811">EPHA1</text>
  <rect height="11" style="fill:rgb(255,255,255);stroke:none;" width="32" x="152" y="814"/>
  <text style="fill:rgb(128,128,128);stroke:none;font-size:11px;" x="152" y="825">LIMA1</text>
  <rect height="11" style="fill:rgb(255,255,255);stroke:none;" width="21" x="166" y="828"/>
  <text style="fill:rgb(128,128,128);stroke:none;font-size:11px;" x="166" y="839">FES</text>
  <rect height="11" style="fill:rgb(255,255,255);stroke:none;" width="29" x="166" y="842"/>
  <text style="fill:rgb(128,128,128);stroke:none;font-size:11px;" x="166" y="853">MYL2</text>
  <rect height="11" style="fill:rgb(255,255,255);stroke:none;" width="40" x="166" y="856"/>
  <text style="fill:rgb(128,128,128);stroke:none;font-size:11px;" x="166" y="867">TMOD4</text>
  <rect height="11" style="fill:rgb(255,255,255);stroke:none;" width="36" x="166" y="870"/>
  <text style="fill:rgb(128,128,128);stroke:none;font-size:11px;" x="166" y="881">CSF1R</text>
  <rect height="11" style="fill:rgb(255,255,255);stroke:none;" width="23" x="181" y="884"/>
  <text style="fill:rgb(128,128,128);stroke:none;font-size:11px;" x="181" y="895">MET</text>
  <rect height="11" style="fill:rgb(255,255,255);stroke:none;" width="29" x="181" y="898"/>
  <text style="fill:rgb(128,128,128);stroke:none;font-size:11px;" x="181" y="909">RTKN</text>
  <rect height="11" style="fill:rgb(255,255,255);stroke:none;" width="22" x="195" y="912"/>
  <text style="fill:rgb(128,128,128);stroke:none;font-size:11px;" x="195" y="923">VILL</text>
  <rect height="11" style="fill:rgb(255,255,255);stroke:none;" width="30" x="195" y="926"/>
  <text style="fill:rgb(128,128,128);stroke:none;font-size:11px;" x="195" y="937">CDK5</text>
  <rect height="11" style="fill:rgb(255,255,255);stroke:none;" width="41" x="195" y="940"/>
  <text style="fill:rgb(128,128,128);stroke:none;font-size:11px;" x="195" y="951">MYOM2</text>
  <rect height="11" style="fill:rgb(255,255,255);stroke:none;" width="20" x="210" y="954"/>
  <text style="fill:rgb(128,128,128);stroke:none;font-size:11px;" x="210" y="965">EVL</text>
  <rect height="11" style="fill:rgb(255,255,255);stroke:none;" width="23" x="210" y="968"/>
  <text style="fill:rgb(128,128,128);stroke:none;font-size:11px;" x="210" y="979">ZYX</text>
  <rect height="11" style="fill:rgb(255,255,255);stroke:none;" width="29" x="210" y="982"/>
  <text style="fill:rgb(128,128,128);stroke:none;font-size:11px;" x="210" y="993">CAV1</text>
  <rect height="11" style="fill:rgb(255,255,255);stroke:none;" width="30" x="210" y="996"/>
  <text style="fill:rgb(128,128,128);stroke:none;font-size:11px;" x="210" y="1007">TBCK</text>
  <rect height="11" style="fill:rgb(255,255,255);stroke:none;" width="44" x="210" y="1010"/>
  <text style="fill:rgb(128,128,128);stroke:none;font-size:11px;" x="210" y="1021">NEDD4L</text>
  <rect height="11" style="fill:rgb(255,255,255);stroke:none;" width="46" x="210" y="1024"/>
  <text style="fill:rgb(128,128,128);stroke:none;font-size:11px;" x="210" y="1035">PSTPIP1</text>
  <rect height="9" style="fill:rgb(255,255,255);stroke:none;" width="31" x="225" y="1038"/>
  <text style="fill:rgb(128,128,128);stroke:none;font-size:9px;" x="225" y="1047">ACTG1</text>
  <rect height="9" style="fill:rgb(255,255,255);stroke:none;" width="31" x="225" y="1050"/>
  <text style="fill:rgb(128,128,128);stroke:none;font-size:9px;" x="225" y="1059">CCL26</text>
  <rect height="9" style="fill:rgb(255,255,255);stroke:none;" width="38" x="239" y="1062"/>
  <text style="fill:rgb(128,128,128);stroke:none;font-size:9px;" x="239" y="1071">PDGFRA</text>
  <rect height="9" style="fill:rgb(255,255,255);stroke:none;" width="32" x="254" y="1074"/>
  <text style="fill:rgb(128,128,128);stroke:none;font-size:9px;" x="254" y="1083">POF1B</text>
  <rect height="9" style="fill:rgb(255,255,255);stroke:none;" width="50" x="254" y="1086"/>
  <text style="fill:rgb(128,128,128);stroke:none;font-size:9px;" x="254" y="1095">ARHGAP44</text>
  <rect height="9" style="fill:rgb(255,255,255);stroke:none;" width="25" x="268" y="1098"/>
  <text style="fill:rgb(128,128,128);stroke:none;font-size:9px;" x="268" y="1107">CAV3</text>
  <rect height="9" style="fill:rgb(255,255,255);stroke:none;" width="35" x="268" y="1110"/>
  <text style="fill:rgb(128,128,128);stroke:none;font-size:9px;" x="268" y="1119">ABLIM3</text>
  <rect height="9" style="fill:rgb(255,255,255);stroke:none;" width="25" x="283" y="1122"/>
  <text style="fill:rgb(128,128,128);stroke:none;font-size:9px;" x="283" y="1131">AQP1</text>
  <rect height="9" style="fill:rgb(255,255,255);stroke:none;" width="32" x="297" y="1134"/>
  <text style="fill:rgb(128,128,128);stroke:none;font-size:9px;" x="297" y="1143">MYH11</text>
  <rect height="9" style="fill:rgb(255,255,255);stroke:none;" width="35" x="297" y="1146"/>
  <text style="fill:rgb(128,128,128);stroke:none;font-size:9px;" x="297" y="1155">ABLIM2</text>
  <rect height="9" style="fill:rgb(255,255,255);stroke:none;" width="37" x="297" y="1158"/>
  <text style="fill:rgb(128,128,128);stroke:none;font-size:9px;" x="297" y="1167">CXCL12</text>
  <rect height="9" style="fill:rgb(255,255,255);stroke:none;" width="25" x="312" y="1170"/>
  <text style="fill:rgb(128,128,128);stroke:none;font-size:9px;" x="312" y="1179">BCL6</text>
  <rect height="9" style="fill:rgb(255,255,255);stroke:none;" width="44" x="312" y="1182"/>
  <text style="fill:rgb(128,128,128);stroke:none;font-size:9px;" x="312" y="1191">FAM107A</text>
  <rect height="9" style="fill:rgb(255,255,255);stroke:none;" width="31" x="327" y="1194"/>
  <text style="fill:rgb(128,128,128);stroke:none;font-size:9px;" x="327" y="1203">KANK4</text>
  <rect height="9" style="fill:rgb(255,255,255);stroke:none;" width="35" x="327" y="1206"/>
  <text style="fill:rgb(128,128,128);stroke:none;font-size:9px;" x="327" y="1215">ATP1A2</text>
  <rect height="9" style="fill:rgb(255,255,255);stroke:none;" width="26" x="341" y="1218"/>
  <text style="fill:rgb(128,128,128);stroke:none;font-size:9px;" x="341" y="1227">FGD2</text>
  <rect height="9" style="fill:rgb(255,255,255);stroke:none;" width="25" x="341" y="1230"/>
  <text style="fill:rgb(128,128,128);stroke:none;font-size:9px;" x="341" y="1239">GHRL</text>
</svg>
