<?xml version="1.0" encoding="UTF-8" standalone="no"?>
<!DOCTYPE svg PUBLIC "-//W3C//DTD SVG 1.1//EN" "http://www.w3.org/Graphics/SVG/1.1/DTD/svg11.dtd">
<svg xmlns:xlink="http://www.w3.org/1999/xlink" height="158.74999999999997mm" version="1.1" viewBox="0 0 500 600" width="132.29166666666666mm" x="0mm" y="0mm" xmlns="http://www.w3.org/2000/svg">
  <rect height="1200" style="fill:rgb(255,255,255);stroke:none;" width="1000" x="0" y="0"/>
  <rect height="240" style="fill:rgb(191,191,191);fill-opacity:0.4980392156862745;stroke:none;" width="175" x="225" y="60"/>
  <line style="fill:none;stroke:rgb(63,63,191);stroke-opacity:0.24705882352941178;stroke-miterlimit:10;stroke-linecap:square;" x1="50" x2="-8" y1="300" y2="300"/>
  <line style="fill:none;stroke:rgb(63,63,191);stroke-opacity:0.24705882352941178;stroke-miterlimit:10;stroke-linecap:square;" x1="-8" x2="6" y1="300" y2="300"/>
  <line style="fill:none;stroke:rgb(63,63,191);stroke-opacity:0.24705882352941178;stroke-miterlimit:10;stroke-linecap:square;" x1="6" x2="20" y1="300" y2="300"/>
  <line style="fill:none;stroke:rgb(63,63,191);stroke-opacity:0.24705882352941178;stroke-miterlimit:10;stroke-linecap:square;" x1="20" x2="35" y1="300" y2="300"/>
  <line style="fill:none;stroke:rgb(63,63,191);stroke-opacity:0.24705882352941178;stroke-miterlimit:10;stroke-linecap:square;" x1="35" x2="50" y1="300" y2="300"/>
  <line style="fill:none;stroke:rgb(63,63,191);stroke-opacity:0.24705882352941178;stroke-miterlimit:10;stroke-linecap:square;" x1="50" x2="64" y1="300" y2="290"/>
  <line style="fill:none;stroke:rgb(63,63,191);stroke-opacity:0.24705882352941178;stroke-miterlimit:10;stroke-linecap:square;" x1="64" x2="79" y1="290" y2="280"/>
  <line style="fill:none;stroke:rgb(63,63,191);stroke-opacity:0.24705882352941178;stroke-miterlimit:10;stroke-linecap:square;" x1="79" x2="93" y1="280" y2="270"/>
  <line style="fill:none;stroke:rgb(63,63,191);stroke-opacity:0.24705882352941178;stroke-miterlimit:10;stroke-linecap:square;" x1="93" x2="108" y1="270" y2="260"/>
  <line style="fill:none;stroke:rgb(63,63,191);stroke-opacity:0.24705882352941178;stroke-miterlimit:10;stroke-linecap:square;" x1="108" x2="122" y1="260" y2="250"/>
  <line style="fill:none;stroke:rgb(63,63,191);stroke-opacity:0.24705882352941178;stroke-miterlimit:10;stroke-linecap:square;" x1="122" x2="137" y1="250" y2="240"/>
  <line style="fill:none;stroke:rgb(63,63,191);stroke-opacity:0.24705882352941178;stroke-miterlimit:10;stroke-linecap:square;" x1="137" x2="152" y1="240" y2="230"/>
  <line style="fill:none;stroke:rgb(63,63,191);stroke-opacity:0.24705882352941178;stroke-miterlimit:10;stroke-linecap:square;" x1="152" x2="166" y1="230" y2="220"/>
  <line style="fill:none;stroke:rgb(63,63,191);stroke-opacity:0.24705882352941178;stroke-miterlimit:10;stroke-linecap:square;" x1="166" x2="181" y1="220" y2="210"/>
  <line style="fill:none;stroke:rgb(63,63,191);stroke-opacity:0.24705882352941178;stroke-miterlimit:10;stroke-linecap:square;" x1="181" x2="195" y1="210" y2="200"/>
  <line style="fill:none;stroke:rgb(63,63,191);stroke-opacity:0.24705882352941178;stroke-miterlimit:10;stroke-linecap:square;" x1="195" x2="210" y1="200" y2="190"/>
  <line style="fill:none;stroke:rgb(63,63,191);stroke-opacity:0.24705882352941178;stroke-miterlimit:10;stroke-linecap:square;" x1="210" x2="225" y1="190" y2="180"/>
  <line style="fill:none;stroke:rgb(63,63,191);stroke-opacity:0.24705882352941178;stroke-miterlimit:10;stroke-linecap:square;" x1="225" x2="239" y1="180" y2="170"/>
  <line style="fill:none;stroke:rgb(63,63,191);stroke-opacity:0.24705882352941178;stroke-miterlimit:10;stroke-linecap:square;" x1="239" x2="254" y1="170" y2="160"/>
  <line style="fill:none;stroke:rgb(63,63,191);stroke-opacity:0.24705882352941178;stroke-miterlimit:10;stroke-linecap:square;" x1="254" x2="268" y1="160" y2="150"/>
  <line style="fill:none;stroke:rgb(63,63,191);stroke-opacity:0.24705882352941178;stroke-miterlimit:10;stroke-linecap:square;" x1="268" x2="283" y1="150" y2="140"/>
  <line style="fill:none;stroke:rgb(63,63,191);stroke-opacity:0.24705882352941178;stroke-miterlimit:10;stroke-linecap:square;" x1="283" x2="297" y1="140" y2="130"/>
  <line style="fill:none;stroke:rgb(63,63,191);stroke-opacity:0.24705882352941178;stroke-miterlimit:10;stroke-linecap:square;" x1="297" x2="312" y1="130" y2="120"/>
  <line style="fill:none;stroke:rgb(63,63,191);stroke-opacity:0.24705882352941178;stroke-miterlimit:10;stroke-linecap:square;" x1="312" x2="327" y1="120" y2="110"/>
  <line style="fill:none;stroke:rgb(63,63,191);stroke-opacity:0.24705882352941178;stroke-miterlimit:10;stroke-linecap:square;" x1="327" x2="341" y1="110" y2="100"/>
  <line style="fill:none;stroke:rgb(63,63,191);stroke-opacity:0.24705882352941178;stroke-miterlimit:10;stroke-linecap:square;" x1="341" x2="400" y1="100" y2="60"/>
  <rect height="7" style="fill:rgb(255,127,0);fill-opacity:0.7490196078431373;stroke:none;" width="4" x="-10" y="292"/>
  <line style="fill:none;stroke:rgb(255,127,0);stroke-opacity:0.24705882352941178;stroke-width:2;stroke-miterlimit:10;stroke-linecap:square;" x1="50" x2="-8" y1="300" y2="300"/>
  <line style="fill:none;stroke:rgb(255,127,0);stroke-opacity:0.24705882352941178;stroke-width:2;stroke-miterlimit:10;stroke-linecap:square;" x1="-8" x2="-8" y1="298" y2="294"/>
  <rect height="26" style="fill:rgb(255,127,0);fill-opacity:0.7490196078431373;stroke:none;" width="4" x="4" y="273"/>
  <line style="fill:none;stroke:rgb(255,127,0);stroke-opacity:0.24705882352941178;stroke-width:2;stroke-miterlimit:10;stroke-linecap:square;" x1="-8" x2="6" y1="292" y2="292"/>
  <line style="fill:none;stroke:rgb(255,127,0);stroke-opacity:0.24705882352941178;stroke-width:2;stroke-miterlimit:10;stroke-linecap:square;" x1="6" x2="6" y1="290" y2="268"/>
  <rect height="10" style="fill:rgb(255,127,0);fill-opacity:0.7490196078431373;stroke:none;" width="4" x="18" y="289"/>
  <line style="fill:none;stroke:rgb(255,127,0);stroke-opacity:0.24705882352941178;stroke-width:2;stroke-miterlimit:10;stroke-linecap:square;" x1="6" x2="20" y1="266" y2="266"/>
  <line style="fill:none;stroke:rgb(255,127,0);stroke-opacity:0.24705882352941178;stroke-width:2;stroke-miterlimit:10;stroke-linecap:square;" x1="20" x2="20" y1="264" y2="257"/>
  <rect height="5" style="fill:rgb(255,127,0);fill-opacity:0.7490196078431373;stroke:none;" width="4" x="33" y="294"/>
  <line style="fill:none;stroke:rgb(255,127,0);stroke-opacity:0.24705882352941178;stroke-width:2;stroke-miterlimit:10;stroke-linecap:square;" x1="20" x2="35" y1="255" y2="255"/>
  <line style="fill:none;stroke:rgb(255,127,0);stroke-opacity:0.24705882352941178;stroke-width:2;stroke-miterlimit:10;stroke-linecap:square;" x1="35" x2="35" y1="253" y2="252"/>
  <rect height="13" style="fill:rgb(255,127,0);fill-opacity:0.7490196078431373;stroke:none;" width="4" x="48" y="286"/>
  <line style="fill:none;stroke:rgb(255,127,0);stroke-opacity:0.24705882352941178;stroke-width:2;stroke-miterlimit:10;stroke-linecap:square;" x1="35" x2="50" y1="250" y2="250"/>
  <line style="fill:none;stroke:rgb(255,127,0);stroke-opacity:0.24705882352941178;stroke-width:2;stroke-miterlimit:10;stroke-linecap:square;" x1="50" x2="50" y1="248" y2="239"/>
  <rect height="13" style="fill:rgb(255,127,0);fill-opacity:0.7490196078431373;stroke:none;" width="4" x="62" y="286"/>
  <line style="fill:none;stroke:rgb(255,127,0);stroke-opacity:0.24705882352941178;stroke-width:2;stroke-miterlimit:10;stroke-linecap:square;" x1="50" x2="64" y1="237" y2="237"/>
  <line style="fill:none;stroke:rgb(255,127,0);stroke-opacity:0.24705882352941178;stroke-width:2;stroke-miterlimit:10;stroke-linecap:square;" x1="64" x2="64" y1="235" y2="226"/>
  <rect height="5" style="fill:rgb(255,127,0);fill-opacity:0.7490196078431373;stroke:none;" width="4" x="91" y="294"/>
  <line style="fill:none;stroke:rgb(255,127,0);stroke-opacity:0.24705882352941178;stroke-width:2;stroke-miterlimit:10;stroke-linecap:square;" x1="64" x2="93" y1="224" y2="224"/>
  <line style="fill:none;stroke:rgb(255,127,0);stroke-opacity:0.24705882352941178;stroke-width:2;stroke-miterlimit:10;stroke-linecap:square;" x1="93" x2="93" y1="222" y2="221"/>
  <rect height="5" style="fill:rgb(255,127,0);fill-opacity:0.7490196078431373;stroke:none;" width="4" x="106" y="294"/>
  <line style="fill:none;stroke:rgb(255,127,0);stroke-opacity:0.24705882352941178;stroke-width:2;stroke-miterlimit:10;stroke-linecap:square;" x1="93" x2="108" y1="219" y2="219"/>
  <line style="fill:none;stroke:rgb(255,127,0);stroke-opacity:0.24705882352941178;stroke-width:2;stroke-miterlimit:10;stroke-linecap:square;" x1="108" x2="108" y1="217" y2="215"/>
  <rect height="10" style="fill:rgb(255,127,0);fill-opacity:0.7490196078431373;stroke:none;" width="4" x="120" y="289"/>
  <line style="fill:none;stroke:rgb(255,127,0);stroke-opacity:0.24705882352941178;stroke-width:2;stroke-miterlimit:10;stroke-linecap:square;" x1="108" x2="122" y1="213" y2="213"/>
  <line style="fill:none;stroke:rgb(255,127,0);stroke-opacity:0.24705882352941178;stroke-width:2;stroke-miterlimit:10;stroke-linecap:square;" x1="122" x2="122" y1="211" y2="205"/>
  <rect height="10" style="fill:rgb(255,127,0);fill-opacity:0.7490196078431373;stroke:none;" width="4" x="135" y="289"/>
  <line style="fill:none;stroke:rgb(255,127,0);stroke-opacity:0.24705882352941178;stroke-width:2;stroke-miterlimit:10;stroke-linecap:square;" x1="122" x2="137" y1="203" y2="203"/>
  <line style="fill:none;stroke:rgb(255,127,0);stroke-opacity:0.24705882352941178;stroke-width:2;stroke-miterlimit:10;stroke-linecap:square;" x1="137" x2="137" y1="201" y2="195"/>
  <rect height="7" style="fill:rgb(255,127,0);fill-opacity:0.7490196078431373;stroke:none;" width="4" x="150" y="292"/>
  <line style="fill:none;stroke:rgb(255,127,0);stroke-opacity:0.24705882352941178;stroke-width:2;stroke-miterlimit:10;stroke-linecap:square;" x1="137" x2="152" y1="193" y2="193"/>
  <line style="fill:none;stroke:rgb(255,127,0);stroke-opacity:0.24705882352941178;stroke-width:2;stroke-miterlimit:10;stroke-linecap:square;" x1="152" x2="152" y1="191" y2="187"/>
  <rect height="15" style="fill:rgb(255,127,0);fill-opacity:0.7490196078431373;stroke:none;" width="4" x="164" y="284"/>
  <line style="fill:none;stroke:rgb(255,127,0);stroke-opacity:0.24705882352941178;stroke-width:2;stroke-miterlimit:10;stroke-linecap:square;" x1="152" x2="166" y1="185" y2="185"/>
  <line style="fill:none;stroke:rgb(255,127,0);stroke-opacity:0.24705882352941178;stroke-width:2;stroke-miterlimit:10;stroke-linecap:square;" x1="166" x2="166" y1="183" y2="171"/>
  <rect height="13" style="fill:rgb(255,127,0);fill-opacity:0.7490196078431373;stroke:none;" width="4" x="179" y="286"/>
  <line style="fill:none;stroke:rgb(255,127,0);stroke-opacity:0.24705882352941178;stroke-width:2;stroke-miterlimit:10;stroke-linecap:square;" x1="166" x2="181" y1="169" y2="169"/>
  <line style="fill:none;stroke:rgb(255,127,0);stroke-opacity:0.24705882352941178;stroke-width:2;stroke-miterlimit:10;stroke-linecap:square;" x1="181" x2="181" y1="167" y2="158"/>
  <rect height="13" style="fill:rgb(255,127,0);fill-opacity:0.7490196078431373;stroke:none;" width="4" x="193" y="286"/>
  <line style="fill:none;stroke:rgb(255,127,0);stroke-opacity:0.24705882352941178;stroke-width:2;stroke-miterlimit:10;stroke-linecap:square;" x1="181" x2="195" y1="156" y2="156"/>
  <line style="fill:none;stroke:rgb(255,127,0);stroke-opacity:0.24705882352941178;stroke-width:2;stroke-miterlimit:10;stroke-linecap:square;" x1="195" x2="195" y1="154" y2="145"/>
  <rect height="15" style="fill:rgb(255,127,0);fill-opacity:0.7490196078431373;stroke:none;" width="4" x="208" y="284"/>
  <line style="fill:none;stroke:rgb(255,127,0);stroke-opacity:0.24705882352941178;stroke-width:2;stroke-miterlimit:10;stroke-linecap:square;" x1="195" x2="210" y1="143" y2="143"/>
  <line style="fill:none;stroke:rgb(255,127,0);stroke-opacity:0.24705882352941178;stroke-width:2;stroke-miterlimit:10;stroke-linecap:square;" x1="210" x2="210" y1="141" y2="129"/>
  <rect height="7" style="fill:rgb(255,127,0);fill-opacity:0.7490196078431373;stroke:none;" width="4" x="223" y="292"/>
  <line style="fill:none;stroke:rgb(255,127,0);stroke-opacity:0.24705882352941178;stroke-width:2;stroke-miterlimit:10;stroke-linecap:square;" x1="210" x2="225" y1="127" y2="127"/>
  <line style="fill:none;stroke:rgb(255,127,0);stroke-opacity:0.24705882352941178;stroke-width:2;stroke-miterlimit:10;stroke-linecap:square;" x1="225" x2="225" y1="125" y2="122"/>
  <rect height="5" style="fill:rgb(255,127,0);fill-opacity:0.7490196078431373;stroke:none;" width="4" x="237" y="294"/>
  <line style="fill:none;stroke:rgb(255,127,0);stroke-opacity:0.24705882352941178;stroke-width:2;stroke-miterlimit:10;stroke-linecap:square;" x1="225" x2="239" y1="120" y2="120"/>
  <line style="fill:none;stroke:rgb(255,127,0);stroke-opacity:0.24705882352941178;stroke-width:2;stroke-miterlimit:10;stroke-linecap:square;" x1="239" x2="239" y1="118" y2="116"/>
  <rect height="2" style="fill:rgb(255,127,0);fill-opacity:0.7490196078431373;stroke:none;" width="4" x="252" y="297"/>
  <line style="fill:none;stroke:rgb(255,127,0);stroke-opacity:0.24705882352941178;stroke-width:2;stroke-miterlimit:10;stroke-linecap:square;" x1="239" x2="254" y1="114" y2="114"/>
  <line style="fill:none;stroke:rgb(255,127,0);stroke-opacity:0.24705882352941178;stroke-width:2;stroke-miterlimit:10;stroke-linecap:square;" x1="254" x2="254" y1="112" y2="114"/>
  <rect height="2" style="fill:rgb(255,127,0);fill-opacity:0.7490196078431373;stroke:none;" width="4" x="266" y="297"/>
  <line style="fill:none;stroke:rgb(255,127,0);stroke-opacity:0.24705882352941178;stroke-width:2;stroke-miterlimit:10;stroke-linecap:square;" x1="254" x2="268" y1="112" y2="112"/>
  <line style="fill:none;stroke:rgb(255,127,0);stroke-opacity:0.24705882352941178;stroke-width:2;stroke-miterlimit:10;stroke-linecap:square;" x1="268" x2="268" y1="110" y2="111"/>
  <rect height="5" style="fill:rgb(255,127,0);fill-opacity:0.7490196078431373;stroke:none;" width="4" x="281" y="294"/>
  <line style="fill:none;stroke:rgb(255,127,0);stroke-opacity:0.24705882352941178;stroke-width:2;stroke-miterlimit:10;stroke-linecap:square;" x1="268" x2="283" y1="109" y2="109"/>
  <line style="fill:none;stroke:rgb(255,127,0);stroke-opacity:0.24705882352941178;stroke-width:2;stroke-miterlimit:10;stroke-linecap:square;" x1="283" x2="283" y1="107" y2="106"/>
  <rect height="13" style="fill:rgb(255,127,0);fill-opacity:0.7490196078431373;stroke:none;" width="4" x="295" y="286"/>
  <line style="fill:none;stroke:rgb(255,127,0);stroke-opacity:0.24705882352941178;stroke-width:2;stroke-miterlimit:10;stroke-linecap:square;" x1="283" x2="297" y1="104" y2="104"/>
  <line style="fill:none;stroke:rgb(255,127,0);stroke-opacity:0.24705882352941178;stroke-width:2;stroke-miterlimit:10;stroke-linecap:square;" x1="297" x2="297" y1="102" y2="93"/>
  <rect height="15" style="fill:rgb(255,127,0);fill-opacity:0.7490196078431373;stroke:none;" width="4" x="310" y="284"/>
  <line style="fill:none;stroke:rgb(255,127,0);stroke-opacity:0.24705882352941178;stroke-width:2;stroke-miterlimit:10;stroke-linecap:square;" x1="297" x2="312" y1="91" y2="91"/>
  <line style="fill:none;stroke:rgb(255,127,0);stroke-opacity:0.24705882352941178;stroke-width:2;stroke-miterlimit:10;stroke-linecap:square;" x1="312" x2="312" y1="89" y2="77"/>
  <rect height="15" style="fill:rgb(255,127,0);fill-opacity:0.7490196078431373;stroke:none;" width="4" x="325" y="284"/>
  <line style="fill:none;stroke:rgb(255,127,0);stroke-opacity:0.24705882352941178;stroke-width:2;stroke-miterlimit:10;stroke-linecap:square;" x1="312" x2="327" y1="75" y2="75"/>
  <line style="fill:none;stroke:rgb(255,127,0);stroke-opacity:0.24705882352941178;stroke-width:2;stroke-miterlimit:10;stroke-linecap:square;" x1="327" x2="327" y1="73" y2="62"/>
  <line style="fill:none;stroke:rgb(255,127,0);stroke-opacity:0.24705882352941178;stroke-width:2;stroke-miterlimit:10;stroke-linecap:square;" x1="327" x2="400" y1="60" y2="60"/>
  <line style="fill:none;stroke:rgb(255,127,0);stroke-opacity:0.4980392156862745;stroke-miterlimit:2;stroke-dasharray:2;" x1="-8" x2="-8" y1="300" y2="367"/>
  <line style="fill:none;stroke:rgb(255,127,0);stroke-opacity:0.4980392156862745;stroke-miterlimit:2;stroke-dasharray:2;" x1="-8" x2="-8" y1="300" y2="384"/>
  <line style="fill:none;stroke:rgb(255,127,0);stroke-opacity:0.4980392156862745;stroke-miterlimit:2;stroke-dasharray:2;" x1="-8" x2="-8" y1="300" y2="401"/>
  <line style="fill:none;stroke:rgb(255,127,0);stroke-opacity:0.4980392156862745;stroke-miterlimit:2;stroke-dasharray:2;" x1="6" x2="6" y1="300" y2="418"/>
  <line style="fill:none;stroke:rgb(255,127,0);stroke-opacity:0.4980392156862745;stroke-miterlimit:2;stroke-dasharray:2;" x1="6" x2="6" y1="300" y2="435"/>
  <line style="fill:none;stroke:rgb(255,127,0);stroke-opacity:0.4980392156862745;stroke-miterlimit:2;stroke-dasharray:2;" x1="6" x2="6" y1="300" y2="452"/>
  <line style="fill:none;stroke:rgb(255,127,0);stroke-opacity:0.4980392156862745;stroke-miterlimit:2;stroke-dasharray:2;" x1="6" x2="6" y1="300" y2="469"/>
  <line style="fill:none;stroke:rgb(255,127,0);stroke-opacity:0.4980392156862745;stroke-miterlimit:2;stroke-dasharray:2;" x1="6" x2="6" y1="300" y2="486"/>
  <line style="fill:none;stroke:rgb(255,127,0);stroke-opacity:0.4980392156862745;stroke-miterlimit:2;stroke-dasharray:2;" x1="6" x2="6" y1="300" y2="503"/>
  <line style="fill:none;stroke:rgb(255,127,0);stroke-opacity:0.4980392156862745;stroke-miterlimit:2;stroke-dasharray:2;" x1="6" x2="6" y1="300" y2="520"/>
  <line style="fill:none;stroke:rgb(255,127,0);stroke-opacity:0.4980392156862745;stroke-miterlimit:2;stroke-dasharray:2;" x1="6" x2="6" y1="300" y2="537"/>
  <line style="fill:none;stroke:rgb(255,127,0);stroke-opacity:0.4980392156862745;stroke-miterlimit:2;stroke-dasharray:2;" x1="6" x2="6" y1="300" y2="554"/>
  <line style="fill:none;stroke:rgb(255,127,0);stroke-opacity:0.4980392156862745;stroke-miterlimit:2;stroke-dasharray:2;" x1="6" x2="6" y1="300" y2="571"/>
  <line style="fill:none;stroke:rgb(255,127,0);stroke-opacity:0.4980392156862745;stroke-miterlimit:2;stroke-dasharray:2;" x1="20" x2="20" y1="300" y2="586"/>
  <line style="fill:none;stroke:rgb(255,127,0);stroke-opacity:0.4980392156862745;stroke-miterlimit:2;stroke-dasharray:2;" x1="20" x2="20" y1="300" y2="601"/>
  <line style="fill:none;stroke:rgb(255,127,0);stroke-opacity:0.4980392156862745;stroke-miterlimit:2;stroke-dasharray:2;" x1="20" x2="20" y1="300" y2="616"/>
  <line style="fill:none;stroke:rgb(255,127,0);stroke-opacity:0.4980392156862745;stroke-miterlimit:2;stroke-dasharray:2;" x1="20" x2="20" y1="300" y2="631"/>
  <line style="fill:none;stroke:rgb(255,127,0);stroke-opacity:0.4980392156862745;stroke-miterlimit:2;stroke-dasharray:2;" x1="35" x2="35" y1="300" y2="646"/>
  <line style="fill:none;stroke:rgb(255,127,0);stroke-opacity:0.4980392156862745;stroke-miterlimit:2;stroke-dasharray:2;" x1="35" x2="35" y1="300" y2="661"/>
  <line style="fill:none;stroke:rgb(255,127,0);stroke-opacity:0.4980392156862745;stroke-miterlimit:2;stroke-dasharray:2;" x1="50" x2="50" y1="300" y2="676"/>
  <line style="fill:none;stroke:rgb(255,127,0);stroke-opacity:0.4980392156862745;stroke-miterlimit:2;stroke-dasharray:2;" x1="50" x2="50" y1="300" y2="691"/>
  <line style="fill:none;stroke:rgb(255,127,0);stroke-opacity:0.4980392156862745;stroke-miterlimit:2;stroke-dasharray:2;" x1="50" x2="50" y1="300" y2="706"/>
  <line style="fill:none;stroke:rgb(255,127,0);stroke-opacity:0.4980392156862745;stroke-miterlimit:2;stroke-dasharray:2;" x1="50" x2="50" y1="300" y2="721"/>
  <line style="fill:none;stroke:rgb(255,127,0);stroke-opacity:0.4980392156862745;stroke-miterlimit:2;stroke-dasharray:2;" x1="50" x2="50" y1="300" y2="736"/>
  <line style="fill:none;stroke:rgb(255,127,0);stroke-opacity:0.4980392156862745;stroke-miterlimit:2;stroke-dasharray:2;" x1="64" x2="64" y1="300" y2="751"/>
  <line style="fill:none;stroke:rgb(255,127,0);stroke-opacity:0.4980392156862745;stroke-miterlimit:2;stroke-dasharray:2;" x1="64" x2="64" y1="300" y2="766"/>
  <line style="fill:none;stroke:rgb(255,127,0);stroke-opacity:0.4980392156862745;stroke-miterlimit:2;stroke-dasharray:2;" x1="64" x2="64" y1="300" y2="781"/>
  <line style="fill:none;stroke:rgb(255,127,0);stroke-opacity:0.4980392156862745;stroke-miterlimit:2;stroke-dasharray:2;" x1="64" x2="64" y1="300" y2="796"/>
  <line style="fill:none;stroke:rgb(255,127,0);stroke-opacity:0.4980392156862745;stroke-miterlimit:2;stroke-dasharray:2;" x1="64" x2="64" y1="300" y2="811"/>
  <line style="fill:none;stroke:rgb(255,127,0);stroke-opacity:0.4980392156862745;stroke-miterlimit:2;stroke-dasharray:2;" x1="93" x2="93" y1="300" y2="825"/>
  <line style="fill:none;stroke:rgb(255,127,0);stroke-opacity:0.4980392156862745;stroke-miterlimit:2;stroke-dasharray:2;" x1="93" x2="93" y1="300" y2="839"/>
  <line style="fill:none;stroke:rgb(255,127,0);stroke-opacity:0.4980392156862745;stroke-miterlimit:2;stroke-dasharray:2;" x1="108" x2="108" y1="300" y2="853"/>
  <line style="fill:none;stroke:rgb(255,127,0);stroke-opacity:0.4980392156862745;stroke-miterlimit:2;stroke-dasharray:2;" x1="108" x2="108" y1="300" y2="867"/>
  <line style="fill:none;stroke:rgb(255,127,0);stroke-opacity:0.4980392156862745;stroke-miterlimit:2;stroke-dasharray:2;" x1="122" x2="122" y1="300" y2="881"/>
  <line style="fill:none;stroke:rgb(255,127,0);stroke-opacity:0.4980392156862745;stroke-miterlimit:2;stroke-dasharray:2;" x1="122" x2="122" y1="300" y2="895"/>
  <line style="fill:none;stroke:rgb(255,127,0);stroke-opacity:0.4980392156862745;stroke-miterlimit:2;stroke-dasharray:2;" x1="122" x2="122" y1="300" y2="909"/>
  <line style="fill:none;stroke:rgb(255,127,0);stroke-opacity:0.4980392156862745;stroke-miterlimit:2;stroke-dasharray:2;" x1="122" x2="122" y1="300" y2="923"/>
  <line style="fill:none;stroke:rgb(255,127,0);stroke-opacity:0.4980392156862745;stroke-miterlimit:2;stroke-dasharray:2;" x1="137" x2="137" y1="300" y2="937"/>
  <line style="fill:none;stroke:rgb(255,127,0);stroke-opacity:0.4980392156862745;stroke-miterlimit:2;stroke-dasharray:2;" x1="137" x2="137" y1="300" y2="951"/>
  <line style="fill:none;stroke:rgb(255,127,0);stroke-opacity:0.4980392156862745;stroke-miterlimit:2;stroke-dasharray:2;" x1="137" x2="137" y1="300" y2="965"/>
  <line style="fill:none;stroke:rgb(255,127,0);stroke-opacity:0.4980392156862745;stroke-miterlimit:2;stroke-dasharray:2;" x1="137" x2="137" y1="300" y2="979"/>
  <line style="fill:none;stroke:rgb(255,127,0);stroke-opacity:0.4980392156862745;stroke-miterlimit:2;stroke-dasharray:2;" x1="152" x2="152" y1="300" y2="993"/>
  <line style="fill:none;stroke:rgb(255,127,0);stroke-opacity:0.4980392156862745;stroke-miterlimit:2;stroke-dasharray:2;" x1="152" x2="152" y1="300" y2="1007"/>
  <line style="fill:none;stroke:rgb(255,127,0);stroke-opacity:0.4980392156862745;stroke-miterlimit:2;stroke-dasharray:2;" x1="152" x2="152" y1="300" y2="1021"/>
  <line style="fill:none;stroke:rgb(255,127,0);stroke-opacity:0.4980392156862745;stroke-miterlimit:2;stroke-dasharray:2;" x1="166" x2="166" y1="300" y2="1035"/>
  <line style="fill:none;stroke:rgb(255,127,0);stroke-opacity:0.4980392156862745;stroke-miterlimit:2;stroke-dasharray:2;" x1="166" x2="166" y1="300" y2="1049"/>
  <line style="fill:none;stroke:rgb(255,127,0);stroke-opacity:0.4980392156862745;stroke-miterlimit:2;stroke-dasharray:2;" x1="166" x2="166" y1="300" y2="1063"/>
  <line style="fill:none;stroke:rgb(255,127,0);stroke-opacity:0.4980392156862745;stroke-miterlimit:2;stroke-dasharray:2;" x1="166" x2="166" y1="300" y2="1077"/>
  <line style="fill:none;stroke:rgb(255,127,0);stroke-opacity:0.4980392156862745;stroke-miterlimit:2;stroke-dasharray:2;" x1="166" x2="166" y1="300" y2="1091"/>
  <line style="fill:none;stroke:rgb(255,127,0);stroke-opacity:0.4980392156862745;stroke-miterlimit:2;stroke-dasharray:2;" x1="166" x2="166" y1="300" y2="1105"/>
  <line style="fill:none;stroke:rgb(255,127,0);stroke-opacity:0.4980392156862745;stroke-miterlimit:2;stroke-dasharray:2;" x1="181" x2="181" y1="300" y2="1119"/>
  <line style="fill:none;stroke:rgb(255,127,0);stroke-opacity:0.4980392156862745;stroke-miterlimit:2;stroke-dasharray:2;" x1="181" x2="181" y1="300" y2="1133"/>
  <line style="fill:none;stroke:rgb(255,127,0);stroke-opacity:0.4980392156862745;stroke-miterlimit:2;stroke-dasharray:2;" x1="181" x2="181" y1="300" y2="1147"/>
  <line style="fill:none;stroke:rgb(255,127,0);stroke-opacity:0.4980392156862745;stroke-miterlimit:2;stroke-dasharray:2;" x1="181" x2="181" y1="300" y2="1161"/>
  <line style="fill:none;stroke:rgb(255,127,0);stroke-opacity:0.4980392156862745;stroke-miterlimit:2;stroke-dasharray:2;" x1="181" x2="181" y1="300" y2="1175"/>
  <line style="fill:none;stroke:rgb(255,127,0);stroke-opacity:0.4980392156862745;stroke-miterlimit:2;stroke-dasharray:2;" x1="195" x2="195" y1="300" y2="1189"/>
  <line style="fill:none;stroke:rgb(255,127,0);stroke-opacity:0.4980392156862745;stroke-miterlimit:2;stroke-dasharray:2;" x1="195" x2="195" y1="300" y2="1203"/>
  <line style="fill:none;stroke:rgb(255,127,0);stroke-opacity:0.4980392156862745;stroke-miterlimit:2;stroke-dasharray:2;" x1="195" x2="195" y1="300" y2="1217"/>
  <line style="fill:none;stroke:rgb(255,127,0);stroke-opacity:0.4980392156862745;stroke-miterlimit:2;stroke-dasharray:2;" x1="195" x2="195" y1="300" y2="1231"/>
  <line style="fill:none;stroke:rgb(255,127,0);stroke-opacity:0.4980392156862745;stroke-miterlimit:2;stroke-dasharray:2;" x1="195" x2="195" y1="300" y2="1245"/>
  <line style="fill:none;stroke:rgb(255,127,0);stroke-opacity:0.4980392156862745;stroke-miterlimit:2;stroke-dasharray:2;" x1="210" x2="210" y1="300" y2="1259"/>
  <line style="fill:none;stroke:rgb(255,127,0);stroke-opacity:0.4980392156862745;stroke-miterlimit:2;stroke-dasharray:2;" x1="210" x2="210" y1="300" y2="1273"/>
  <line style="fill:none;stroke:rgb(255,127,0);stroke-opacity:0.4980392156862745;stroke-miterlimit:2;stroke-dasharray:2;" x1="210" x2="210" y1="300" y2="1287"/>
  <line style="fill:none;stroke:rgb(255,127,0);stroke-opacity:0.4980392156862745;stroke-miterlimit:2;stroke-dasharray:2;" x1="210" x2="210" y1="300" y2="1301"/>
  <line style="fill:none;stroke:rgb(255,127,0);stroke-opacity:0.4980392156862745;stroke-miterlimit:2;stroke-dasharray:2;" x1="210" x2="210" y1="300" y2="1315"/>
  <line style="fill:none;stroke:rgb(255,127,0);stroke-opacity:0.4980392156862745;stroke-miterlimit:2;stroke-dasharray:2;" x1="210" x2="210" y1="300" y2="1329"/>
  <line style="fill:none;stroke:rgb(255,127,0);stroke-opacity:0.4980392156862745;stroke-miterlimit:2;stroke-dasharray:2;" x1="225" x2="225" y1="300" y2="1343"/>
  <line style="fill:none;stroke:rgb(255,127,0);stroke-opacity:0.4980392156862745;stroke-miterlimit:2;stroke-dasharray:2;" x1="225" x2="225" y1="300" y2="1357"/>
  <line style="fill:none;stroke:rgb(255,127,0);stroke-opacity:0.4980392156862745;stroke-miterlimit:2;stroke-dasharray:2;" x1="225" x2="225" y1="300" y2="1371"/>
  <line style="fill:none;stroke:rgb(255,127,0);stroke-opacity:0.4980392156862745;stroke-miterlimit:2;stroke-dasharray:2;" x1="239" x2="239" y1="300" y2="1385"/>
  <line style="fill:none;stroke:rgb(255,127,0);stroke-opacity:0.4980392156862745;stroke-miterlimit:2;stroke-dasharray:2;" x1="239" x2="239" y1="300" y2="1399"/>
  <line style="fill:none;stroke:rgb(255,127,0);stroke-opacity:0.4980392156862745;stroke-miterlimit:2;stroke-dasharray:2;" x1="254" x2="254" y1="300" y2="1413"/>
  <line style="fill:none;stroke:rgb(255,127,0);stroke-opacity:0.4980392156862745;stroke-miterlimit:2;stroke-dasharray:2;" x1="268" x2="268" y1="300" y2="1427"/>
  <line style="fill:none;stroke:rgb(255,127,0);stroke-opacity:0.4980392156862745;stroke-miterlimit:2;stroke-dasharray:2;" x1="283" x2="283" y1="300" y2="1441"/>
  <line style="fill:none;stroke:rgb(255,127,0);stroke-opacity:0.4980392156862745;stroke-miterlimit:2;stroke-dasharray:2;" x1="283" x2="283" y1="300" y2="1455"/>
  <line style="fill:none;stroke:rgb(255,127,0);stroke-opacity:0.4980392156862745;stroke-miterlimit:2;stroke-dasharray:2;" x1="297" x2="297" y1="300" y2="1468"/>
  <line style="fill:none;stroke:rgb(255,127,0);stroke-opacity:0.4980392156862745;stroke-miterlimit:2;stroke-dasharray:2;" x1="297" x2="297" y1="300" y2="1481"/>
  <line style="fill:none;stroke:rgb(255,127,0);stroke-opacity:0.4980392156862745;stroke-miterlimit:2;stroke-dasharray:2;" x1="297" x2="297" y1="300" y2="1494"/>
  <line style="fill:none;stroke:rgb(255,127,0);stroke-opacity:0.4980392156862745;stroke-miterlimit:2;stroke-dasharray:2;" x1="297" x2="297" y1="300" y2="1507"/>
  <line style="fill:none;stroke:rgb(255,127,0);stroke-opacity:0.4980392156862745;stroke-miterlimit:2;stroke-dasharray:2;" x1="297" x2="297" y1="300" y2="1520"/>
  <line style="fill:none;stroke:rgb(255,127,0);stroke-opacity:0.4980392156862745;stroke-miterlimit:2;stroke-dasharray:2;" x1="312" x2="312" y1="300" y2="1533"/>
  <line style="fill:none;stroke:rgb(255,127,0);stroke-opacity:0.4980392156862745;stroke-miterlimit:2;stroke-dasharray:2;" x1="312" x2="312" y1="300" y2="1546"/>
  <line style="fill:none;stroke:rgb(255,127,0);stroke-opacity:0.4980392156862745;stroke-miterlimit:2;stroke-dasharray:2;" x1="312" x2="312" y1="300" y2="1559"/>
  <line style="fill:none;stroke:rgb(255,127,0);stroke-opacity:0.4980392156862745;stroke-miterlimit:2;stroke-dasharray:2;" x1="312" x2="312" y1="300" y2="1572"/>
  <line style="fill:none;stroke:rgb(255,127,0);stroke-opacity:0.4980392156862745;stroke-miterlimit:2;stroke-dasharray:2;" x1="312" x2="312" y1="300" y2="1585"/>
  <line style="fill:none;stroke:rgb(255,127,0);stroke-opacity:0.4980392156862745;stroke-miterlimit:2;stroke-dasharray:2;" x1="312" x2="312" y1="300" y2="1598"/>
  <line style="fill:none;stroke:rgb(255,127,0);stroke-opacity:0.4980392156862745;stroke-miterlimit:2;stroke-dasharray:2;" x1="327" x2="327" y1="300" y2="1611"/>
  <line style="fill:none;stroke:rgb(255,127,0);stroke-opacity:0.4980392156862745;stroke-miterlimit:2;stroke-dasharray:2;" x1="327" x2="327" y1="300" y2="1624"/>
  <line style="fill:none;stroke:rgb(255,127,0);stroke-opacity:0.4980392156862745;stroke-miterlimit:2;stroke-dasharray:2;" x1="327" x2="327" y1="300" y2="1637"/>
  <line style="fill:none;stroke:rgb(255,127,0);stroke-opacity:0.4980392156862745;stroke-miterlimit:2;stroke-dasharray:2;" x1="327" x2="327" y1="300" y2="1650"/>
  <line style="fill:none;stroke:rgb(255,127,0);stroke-opacity:0.4980392156862745;stroke-miterlimit:2;stroke-dasharray:2;" x1="327" x2="327" y1="300" y2="1663"/>
  <line style="fill:none;stroke:rgb(255,127,0);stroke-opacity:0.4980392156862745;stroke-miterlimit:2;stroke-dasharray:2;" x1="327" x2="327" y1="300" y2="1676"/>
  <line style="fill:none;stroke:rgb(0,0,0);stroke-width:2;stroke-miterlimit:10;stroke-linecap:square;" x1="48" x2="48" y1="60" y2="300"/>
  <line style="fill:none;stroke:rgb(0,0,0);stroke-width:2;stroke-miterlimit:10;stroke-linecap:square;" x1="48" x2="402" y1="300" y2="300"/>
  <rect height="30" style="fill:rgb(255,255,255);stroke:none;" width="17" x="42" y="308"/>
  <text style="fill:rgb(0,0,0);stroke:none;font-size:25px;font-weight:bold;" x="42" y="332">0</text>
  <rect height="30" style="fill:rgb(255,255,255);stroke:none;" width="34" x="383" y="308"/>
  <text style="fill:rgb(0,0,0);stroke:none;font-size:25px;font-weight:bold;" x="383" y="332">24</text>
  <text style="fill:rgb(0,0,0);stroke:none;font-size:25px;font-weight:bold;" x="25" y="312">0</text>
  <text style="fill:rgb(0,0,0);stroke:none;font-size:25px;font-weight:bold;" x="25" y="72">1</text>
  <text style="fill:rgb(0,0,0);stroke:none;font-size:14px;font-weight:bold;" x="18" y="36">GOBP_REGULATION_OF_CELLULAR_COMPONENT_MOVEMENT</text>
  <rect height="13" style="fill:rgb(255,255,255);stroke:none;" width="44" x="-8" y="354"/>
  <text style="fill:rgb(128,128,128);stroke:none;font-size:13px;" x="-8" y="367">BMPR2</text>
  <rect height="13" style="fill:rgb(255,255,255);stroke:none;" width="37" x="-8" y="371"/>
  <text style="fill:rgb(128,128,128);stroke:none;font-size:13px;" x="-8" y="384">ITGB3</text>
  <rect height="13" style="fill:rgb(255,255,255);stroke:none;" width="41" x="-8" y="388"/>
  <text style="fill:rgb(128,128,128);stroke:none;font-size:13px;" x="-8" y="401">PRKCE</text>
  <rect height="13" style="fill:rgb(255,255,255);stroke:none;" width="36" x="6" y="405"/>
  <text style="fill:rgb(128,128,128);stroke:none;font-size:13px;" x="6" y="418">RGCC</text>
  <rect height="13" style="fill:rgb(255,255,255);stroke:none;" width="42" x="6" y="422"/>
  <text style="fill:rgb(128,128,128);stroke:none;font-size:13px;" x="6" y="435">GPER1</text>
  <rect height="13" style="fill:rgb(255,255,255);stroke:none;" width="41" x="6" y="439"/>
  <text style="fill:rgb(128,128,128);stroke:none;font-size:13px;" x="6" y="452">RNF41</text>
  <rect height="13" style="fill:rgb(255,255,255);stroke:none;" width="42" x="6" y="456"/>
  <text style="fill:rgb(128,128,128);stroke:none;font-size:13px;" x="6" y="469">CXCR4</text>
  <rect height="13" style="fill:rgb(255,255,255);stroke:none;" width="44" x="6" y="473"/>
  <text style="fill:rgb(128,128,128);stroke:none;font-size:13px;" x="6" y="486">HSPA5</text>
  <rect height="13" style="fill:rgb(255,255,255);stroke:none;" width="47" x="6" y="490"/>
  <text style="fill:rgb(128,128,128);stroke:none;font-size:13px;" x="6" y="503">NEXMIF</text>
  <rect height="13" style="fill:rgb(255,255,255);stroke:none;" width="49" x="6" y="507"/>
  <text style="fill:rgb(128,128,128);stroke:none;font-size:13px;" x="6" y="520">FGFBP1</text>
  <rect height="13" style="fill:rgb(255,255,255);stroke:none;" width="50" x="6" y="524"/>
  <text style="fill:rgb(128,128,128);stroke:none;font-size:13px;" x="6" y="537">CLEC7A</text>
  <rect height="13" style="fill:rgb(255,255,255);stroke:none;" width="58" x="6" y="541"/>
  <text style="fill:rgb(128,128,128);stroke:none;font-size:13px;" x="6" y="554">ST3GAL4</text>
  <rect height="13" style="fill:rgb(255,255,255);stroke:none;" width="62" x="6" y="558"/>
  <text style="fill:rgb(128,128,128);stroke:none;font-size:13px;" x="6" y="571">SERPINE2</text>
  <rect height="12" style="fill:rgb(255,255,255);stroke:none;" width="34" x="20" y="574"/>
  <text style="fill:rgb(128,128,128);stroke:none;" x="20" y="586">LRIG2</text>
  <rect height="12" style="fill:rgb(255,255,255);stroke:none;" width="38" x="20" y="589"/>
  <text style="fill:rgb(128,128,128);stroke:none;" x="20" y="601">TCAF2</text>
  <rect height="12" style="fill:rgb(255,255,255);stroke:none;" width="41" x="20" y="604"/>
  <text style="fill:rgb(128,128,128);stroke:none;" x="20" y="616">VEGFD</text>
  <rect height="12" style="fill:rgb(255,255,255);stroke:none;" width="47" x="20" y="619"/>
  <text style="fill:rgb(128,128,128);stroke:none;" x="20" y="631">TGFBR2</text>
  <rect height="12" style="fill:rgb(255,255,255);stroke:none;" width="36" x="35" y="634"/>
  <text style="fill:rgb(128,128,128);stroke:none;" x="35" y="646">MCAM</text>
  <rect height="12" style="fill:rgb(255,255,255);stroke:none;" width="46" x="35" y="649"/>
  <text style="fill:rgb(128,128,128);stroke:none;" x="35" y="661">DPYSL3</text>
  <rect height="12" style="fill:rgb(255,255,255);stroke:none;" width="34" x="50" y="664"/>
  <text style="fill:rgb(128,128,128);stroke:none;" x="50" y="676">ANO6</text>
  <rect height="12" style="fill:rgb(255,255,255);stroke:none;" width="40" x="50" y="679"/>
  <text style="fill:rgb(128,128,128);stroke:none;" x="50" y="691">LAMC2</text>
  <rect height="12" style="fill:rgb(255,255,255);stroke:none;" width="42" x="50" y="694"/>
  <text style="fill:rgb(128,128,128);stroke:none;" x="50" y="706">DUOX2</text>
  <rect height="12" style="fill:rgb(255,255,255);stroke:none;" width="40" x="50" y="709"/>
  <text style="fill:rgb(128,128,128);stroke:none;" x="50" y="721">VEGFA</text>
  <rect height="12" style="fill:rgb(255,255,255);stroke:none;" width="48" x="50" y="724"/>
  <text style="fill:rgb(128,128,128);stroke:none;" x="50" y="736">S100A7</text>
  <rect height="12" style="fill:rgb(255,255,255);stroke:none;" width="31" x="64" y="739"/>
  <text style="fill:rgb(128,128,128);stroke:none;" x="64" y="751">FUT3</text>
  <rect height="12" style="fill:rgb(255,255,255);stroke:none;" width="31" x="64" y="754"/>
  <text style="fill:rgb(128,128,128);stroke:none;" x="64" y="766">BST1</text>
  <rect height="12" style="fill:rgb(255,255,255);stroke:none;" width="40" x="64" y="769"/>
  <text style="fill:rgb(128,128,128);stroke:none;" x="64" y="781">DAPK2</text>
  <rect height="12" style="fill:rgb(255,255,255);stroke:none;" width="39" x="64" y="784"/>
  <text style="fill:rgb(128,128,128);stroke:none;" x="64" y="796">TRPV4</text>
  <rect height="12" style="fill:rgb(255,255,255);stroke:none;" width="51" x="64" y="799"/>
  <text style="fill:rgb(128,128,128);stroke:none;" x="64" y="811">CARMIL1</text>
  <rect height="11" style="fill:rgb(255,255,255);stroke:none;" width="28" x="93" y="814"/>
  <text style="fill:rgb(128,128,128);stroke:none;font-size:11px;" x="93" y="825">PLAU</text>
  <rect height="11" style="fill:rgb(255,255,255);stroke:none;" width="37" x="93" y="828"/>
  <text style="fill:rgb(128,128,128);stroke:none;font-size:11px;" x="93" y="839">TGFB1</text>
  <rect height="11" style="fill:rgb(255,255,255);stroke:none;" width="26" x="108" y="842"/>
  <text style="fill:rgb(128,128,128);stroke:none;font-size:11px;" x="108" y="853">CIB1</text>
  <rect height="11" style="fill:rgb(255,255,255);stroke:none;" width="34" x="108" y="856"/>
  <text style="fill:rgb(128,128,128);stroke:none;font-size:11px;" x="108" y="867">PTAFR</text>
  <rect height="11" style="fill:rgb(255,255,255);stroke:none;" width="33" x="122" y="870"/>
  <text style="fill:rgb(128,128,128);stroke:none;font-size:11px;" x="122" y="881">ITGA3</text>
  <rect height="11" style="fill:rgb(255,255,255);stroke:none;" width="33" x="122" y="884"/>
  <text style="fill:rgb(128,128,128);stroke:none;font-size:11px;" x="122" y="895">KCNJ2</text>
  <rect height="11" style="fill:rgb(255,255,255);stroke:none;" width="45" x="122" y="898"/>
  <text style="fill:rgb(128,128,128);stroke:none;font-size:11px;" x="122" y="909">BDKRB1</text>
  <rect height="11" style="fill:rgb(255,255,255);stroke:none;" width="43" x="122" y="912"/>
  <text style="fill:rgb(128,128,128);stroke:none;font-size:11px;" x="122" y="923">PHLDA2</text>
  <rect height="11" style="fill:rgb(255,255,255);stroke:none;" width="28" x="137" y="926"/>
  <text style="fill:rgb(128,128,128);stroke:none;font-size:11px;" x="137" y="937">FLCN</text>
  <rect height="11" style="fill:rgb(255,255,255);stroke:none;" width="36" x="137" y="940"/>
  <text style="fill:rgb(128,128,128);stroke:none;font-size:11px;" x="137" y="951">NR4A3</text>
  <rect height="11" style="fill:rgb(255,255,255);stroke:none;" width="44" x="137" y="954"/>
  <text style="fill:rgb(128,128,128);stroke:none;font-size:11px;" x="137" y="965">PHLDB2</text>
  <rect height="11" style="fill:rgb(255,255,255);stroke:none;" width="49" x="137" y="968"/>
  <text style="fill:rgb(128,128,128);stroke:none;font-size:11px;" x="137" y="979">TNFSF14</text>
  <rect height="11" style="fill:rgb(255,255,255);stroke:none;" width="21" x="152" y="982"/>
  <text style="fill:rgb(128,128,128);stroke:none;font-size:11px;" x="152" y="993">TNF</text>
  <rect height="11" style="fill:rgb(255,255,255);stroke:none;" width="31" x="152" y="996"/>
  <text style="fill:rgb(128,128,128);stroke:none;font-size:11px;" x="152" y="1007">LMO4</text>
  <rect height="11" style="fill:rgb(255,255,255);stroke:none;" width="36" x="152" y="1010"/>
  <text style="fill:rgb(128,128,128);stroke:none;font-size:11px;" x="152" y="1021">EPHA1</text>
  <rect height="11" style="fill:rgb(255,255,255);stroke:none;" width="21" x="166" y="1024"/>
  <text style="fill:rgb(128,128,128);stroke:none;font-size:11px;" x="166" y="1035">FES</text>
  <rect height="11" style="fill:rgb(255,255,255);stroke:none;" width="29" x="166" y="1038"/>
  <text style="fill:rgb(128,128,128);stroke:none;font-size:11px;" x="166" y="1049">CCL2</text>
  <rect height="11" style="fill:rgb(255,255,255);stroke:none;" width="31" x="166" y="1052"/>
  <text style="fill:rgb(128,128,128);stroke:none;font-size:11px;" x="166" y="1063">RIPK3</text>
  <rect height="11" style="fill:rgb(255,255,255);stroke:none;" width="38" x="166" y="1066"/>
  <text style="fill:rgb(128,128,128);stroke:none;font-size:11px;" x="166" y="1077">HDAC5</text>
  <rect height="11" style="fill:rgb(255,255,255);stroke:none;" width="36" x="166" y="1080"/>
  <text style="fill:rgb(128,128,128);stroke:none;font-size:11px;" x="166" y="1091">CSF1R</text>
  <rect height="11" style="fill:rgb(255,255,255);stroke:none;" width="44" x="166" y="1094"/>
  <text style="fill:rgb(128,128,128);stroke:none;font-size:11px;" x="166" y="1105">CX3CR1</text>
  <rect height="11" style="fill:rgb(255,255,255);stroke:none;" width="23" x="181" y="1108"/>
  <text style="fill:rgb(128,128,128);stroke:none;font-size:11px;" x="181" y="1119">MET</text>
  <rect height="11" style="fill:rgb(255,255,255);stroke:none;" width="33" x="181" y="1122"/>
  <text style="fill:rgb(128,128,128);stroke:none;font-size:11px;" x="181" y="1133">FLRT2</text>
  <rect height="11" style="fill:rgb(255,255,255);stroke:none;" width="32" x="181" y="1136"/>
  <text style="fill:rgb(128,128,128);stroke:none;font-size:11px;" x="181" y="1147">KITLG</text>
  <rect height="11" style="fill:rgb(255,255,255);stroke:none;" width="48" x="181" y="1150"/>
  <text style="fill:rgb(128,128,128);stroke:none;font-size:11px;" x="181" y="1161">ZMYND8</text>
  <rect height="11" style="fill:rgb(255,255,255);stroke:none;" width="53" x="181" y="1164"/>
  <text style="fill:rgb(128,128,128);stroke:none;font-size:11px;" x="181" y="1175">ADAMTS1</text>
  <rect height="11" style="fill:rgb(255,255,255);stroke:none;" width="22" x="195" y="1178"/>
  <text style="fill:rgb(128,128,128);stroke:none;font-size:11px;" x="195" y="1189">ADA</text>
  <rect height="11" style="fill:rgb(255,255,255);stroke:none;" width="27" x="195" y="1192"/>
  <text style="fill:rgb(128,128,128);stroke:none;font-size:11px;" x="195" y="1203">ELP6</text>
  <rect height="11" style="fill:rgb(255,255,255);stroke:none;" width="30" x="195" y="1206"/>
  <text style="fill:rgb(128,128,128);stroke:none;font-size:11px;" x="195" y="1217">CDK5</text>
  <rect height="11" style="fill:rgb(255,255,255);stroke:none;" width="43" x="195" y="1220"/>
  <text style="fill:rgb(128,128,128);stroke:none;font-size:11px;" x="195" y="1231">SLAMF8</text>
  <rect height="11" style="fill:rgb(255,255,255);stroke:none;" width="44" x="195" y="1234"/>
  <text style="fill:rgb(128,128,128);stroke:none;font-size:11px;" x="195" y="1245">SEMA4F</text>
  <rect height="11" style="fill:rgb(255,255,255);stroke:none;" width="15" x="210" y="1248"/>
  <text style="fill:rgb(128,128,128);stroke:none;font-size:11px;" x="210" y="1259">C5</text>
  <rect height="11" style="fill:rgb(255,255,255);stroke:none;" width="20" x="210" y="1262"/>
  <text style="fill:rgb(128,128,128);stroke:none;font-size:11px;" x="210" y="1273">EVL</text>
  <rect height="11" style="fill:rgb(255,255,255);stroke:none;" width="29" x="210" y="1276"/>
  <text style="fill:rgb(128,128,128);stroke:none;font-size:11px;" x="210" y="1287">NAV3</text>
  <rect height="11" style="fill:rgb(255,255,255);stroke:none;" width="29" x="210" y="1290"/>
  <text style="fill:rgb(128,128,128);stroke:none;font-size:11px;" x="210" y="1301">CAV1</text>
  <rect height="11" style="fill:rgb(255,255,255);stroke:none;" width="29" x="210" y="1304"/>
  <text style="fill:rgb(128,128,128);stroke:none;font-size:11px;" x="210" y="1315">RECK</text>
  <rect height="11" style="fill:rgb(255,255,255);stroke:none;" width="37" x="210" y="1318"/>
  <text style="fill:rgb(128,128,128);stroke:none;font-size:11px;" x="210" y="1329">TRADD</text>
  <rect height="11" style="fill:rgb(255,255,255);stroke:none;" width="39" x="225" y="1332"/>
  <text style="fill:rgb(128,128,128);stroke:none;font-size:11px;" x="225" y="1343">DOCK4</text>
  <rect height="11" style="fill:rgb(255,255,255);stroke:none;" width="38" x="225" y="1346"/>
  <text style="fill:rgb(128,128,128);stroke:none;font-size:11px;" x="225" y="1357">ACTG1</text>
  <rect height="11" style="fill:rgb(255,255,255);stroke:none;" width="36" x="225" y="1360"/>
  <text style="fill:rgb(128,128,128);stroke:none;font-size:11px;" x="225" y="1371">CCL26</text>
  <rect height="11" style="fill:rgb(255,255,255);stroke:none;" width="26" x="239" y="1374"/>
  <text style="fill:rgb(128,128,128);stroke:none;font-size:11px;" x="239" y="1385">JAM2</text>
  <rect height="11" style="fill:rgb(255,255,255);stroke:none;" width="44" x="239" y="1388"/>
  <text style="fill:rgb(128,128,128);stroke:none;font-size:11px;" x="239" y="1399">PDGFRA</text>
  <rect height="11" style="fill:rgb(255,255,255);stroke:none;" width="53" x="254" y="1402"/>
  <text style="fill:rgb(128,128,128);stroke:none;font-size:11px;" x="254" y="1413">ADAMTS9</text>
  <rect height="11" style="fill:rgb(255,255,255);stroke:none;" width="29" x="268" y="1416"/>
  <text style="fill:rgb(128,128,128);stroke:none;font-size:11px;" x="268" y="1427">CAV3</text>
  <rect height="11" style="fill:rgb(255,255,255);stroke:none;" width="25" x="283" y="1430"/>
  <text style="fill:rgb(128,128,128);stroke:none;font-size:11px;" x="283" y="1441">IRS2</text>
  <rect height="11" style="fill:rgb(255,255,255);stroke:none;" width="29" x="283" y="1444"/>
  <text style="fill:rgb(128,128,128);stroke:none;font-size:11px;" x="283" y="1455">NEFH</text>
  <rect height="10" style="fill:rgb(255,255,255);stroke:none;" width="36" x="297" y="1458"/>
  <text style="fill:rgb(128,128,128);stroke:none;font-size:10px;" x="297" y="1468">DUSP1</text>
  <rect height="10" style="fill:rgb(255,255,255);stroke:none;" width="33" x="297" y="1471"/>
  <text style="fill:rgb(128,128,128);stroke:none;font-size:10px;" x="297" y="1481">FBLN1</text>
  <rect height="10" style="fill:rgb(255,255,255);stroke:none;" width="37" x="297" y="1484"/>
  <text style="fill:rgb(128,128,128);stroke:none;font-size:10px;" x="297" y="1494">IGFBP3</text>
  <rect height="10" style="fill:rgb(255,255,255);stroke:none;" width="41" x="297" y="1497"/>
  <text style="fill:rgb(128,128,128);stroke:none;font-size:10px;" x="297" y="1507">ANGPT1</text>
  <rect height="10" style="fill:rgb(255,255,255);stroke:none;" width="40" x="297" y="1510"/>
  <text style="fill:rgb(128,128,128);stroke:none;font-size:10px;" x="297" y="1520">CXCL12</text>
  <rect height="10" style="fill:rgb(255,255,255);stroke:none;" width="25" x="312" y="1523"/>
  <text style="fill:rgb(128,128,128);stroke:none;font-size:10px;" x="312" y="1533">KLF4</text>
  <rect height="10" style="fill:rgb(255,255,255);stroke:none;" width="27" x="312" y="1536"/>
  <text style="fill:rgb(128,128,128);stroke:none;font-size:10px;" x="312" y="1546">BCL6</text>
  <rect height="10" style="fill:rgb(255,255,255);stroke:none;" width="34" x="312" y="1549"/>
  <text style="fill:rgb(128,128,128);stroke:none;font-size:10px;" x="312" y="1559">PLVAP</text>
  <rect height="10" style="fill:rgb(255,255,255);stroke:none;" width="34" x="312" y="1562"/>
  <text style="fill:rgb(128,128,128);stroke:none;font-size:10px;" x="312" y="1572">PLCB1</text>
  <rect height="10" style="fill:rgb(255,255,255);stroke:none;" width="42" x="312" y="1575"/>
  <text style="fill:rgb(128,128,128);stroke:none;font-size:10px;" x="312" y="1585">TNFAIP6</text>
  <rect height="10" style="fill:rgb(255,255,255);stroke:none;" width="47" x="312" y="1588"/>
  <text style="fill:rgb(128,128,128);stroke:none;font-size:10px;" x="312" y="1598">FAM107A</text>
  <rect height="10" style="fill:rgb(255,255,255);stroke:none;" width="20" x="327" y="1601"/>
  <text style="fill:rgb(128,128,128);stroke:none;font-size:10px;" x="327" y="1611">FN1</text>
  <rect height="10" style="fill:rgb(255,255,255);stroke:none;" width="27" x="327" y="1614"/>
  <text style="fill:rgb(128,128,128);stroke:none;font-size:10px;" x="327" y="1624">NTN1</text>
  <rect height="10" style="fill:rgb(255,255,255);stroke:none;" width="34" x="327" y="1627"/>
  <text style="fill:rgb(128,128,128);stroke:none;font-size:10px;" x="327" y="1637">ERBB4</text>
  <rect height="10" style="fill:rgb(255,255,255);stroke:none;" width="38" x="327" y="1640"/>
  <text style="fill:rgb(128,128,128);stroke:none;font-size:10px;" x="327" y="1650">ATP1A2</text>
  <rect height="10" style="fill:rgb(255,255,255);stroke:none;" width="52" x="327" y="1653"/>
  <text style="fill:rgb(128,128,128);stroke:none;font-size:10px;" x="327" y="1663">CEACAM1</text>
  <rect height="10" style="fill:rgb(255,255,255);stroke:none;" width="48" x="327" y="1666"/>
  <text style="fill:rgb(128,128,128);stroke:none;font-size:10px;" x="327" y="1676">RARRES2</text>
</svg>
