<?xml version="1.0" encoding="UTF-8" standalone="no"?>
<!DOCTYPE svg PUBLIC "-//W3C//DTD SVG 1.1//EN" "http://www.w3.org/Graphics/SVG/1.1/DTD/svg11.dtd">
<svg xmlns:xlink="http://www.w3.org/1999/xlink" height="158.74999999999997mm" version="1.1" viewBox="0 0 500 600" width="132.29166666666666mm" x="0mm" y="0mm" xmlns="http://www.w3.org/2000/svg">
  <rect height="1200" style="fill:rgb(255,255,255);stroke:none;" width="1000" x="0" y="0"/>
  <rect height="240" style="fill:rgb(191,191,191);fill-opacity:0.4980392156862745;stroke:none;" width="175" x="225" y="60"/>
  <line style="fill:none;stroke:rgb(63,63,191);stroke-opacity:0.24705882352941178;stroke-miterlimit:10;stroke-linecap:square;" x1="50" x2="-8" y1="300" y2="300"/>
  <line style="fill:none;stroke:rgb(63,63,191);stroke-opacity:0.24705882352941178;stroke-miterlimit:10;stroke-linecap:square;" x1="-8" x2="6" y1="300" y2="300"/>
  <line style="fill:none;stroke:rgb(63,63,191);stroke-opacity:0.24705882352941178;stroke-miterlimit:10;stroke-linecap:square;" x1="6" x2="20" y1="300" y2="300"/>
  <line style="fill:none;stroke:rgb(63,63,191);stroke-opacity:0.24705882352941178;stroke-miterlimit:10;stroke-linecap:square;" x1="20" x2="35" y1="300" y2="300"/>
  <line style="fill:none;stroke:rgb(63,63,191);stroke-opacity:0.24705882352941178;stroke-miterlimit:10;stroke-linecap:square;" x1="35" x2="50" y1="300" y2="300"/>
  <line style="fill:none;stroke:rgb(63,63,191);stroke-opacity:0.24705882352941178;stroke-miterlimit:10;stroke-linecap:square;" x1="50" x2="64" y1="300" y2="290"/>
  <line style="fill:none;stroke:rgb(63,63,191);stroke-opacity:0.24705882352941178;stroke-miterlimit:10;stroke-linecap:square;" x1="64" x2="79" y1="290" y2="280"/>
  <line style="fill:none;stroke:rgb(63,63,191);stroke-opacity:0.24705882352941178;stroke-miterlimit:10;stroke-linecap:square;" x1="79" x2="93" y1="280" y2="270"/>
  <line style="fill:none;stroke:rgb(63,63,191);stroke-opacity:0.24705882352941178;stroke-miterlimit:10;stroke-linecap:square;" x1="93" x2="108" y1="270" y2="260"/>
  <line style="fill:none;stroke:rgb(63,63,191);stroke-opacity:0.24705882352941178;stroke-miterlimit:10;stroke-linecap:square;" x1="108" x2="122" y1="260" y2="250"/>
  <line style="fill:none;stroke:rgb(63,63,191);stroke-opacity:0.24705882352941178;stroke-miterlimit:10;stroke-linecap:square;" x1="122" x2="137" y1="250" y2="240"/>
  <line style="fill:none;stroke:rgb(63,63,191);stroke-opacity:0.24705882352941178;stroke-miterlimit:10;stroke-linecap:square;" x1="137" x2="152" y1="240" y2="230"/>
  <line style="fill:none;stroke:rgb(63,63,191);stroke-opacity:0.24705882352941178;stroke-miterlimit:10;stroke-linecap:square;" x1="152" x2="166" y1="230" y2="220"/>
  <line style="fill:none;stroke:rgb(63,63,191);stroke-opacity:0.24705882352941178;stroke-miterlimit:10;stroke-linecap:square;" x1="166" x2="181" y1="220" y2="210"/>
  <line style="fill:none;stroke:rgb(63,63,191);stroke-opacity:0.24705882352941178;stroke-miterlimit:10;stroke-linecap:square;" x1="181" x2="195" y1="210" y2="200"/>
  <line style="fill:none;stroke:rgb(63,63,191);stroke-opacity:0.24705882352941178;stroke-miterlimit:10;stroke-linecap:square;" x1="195" x2="210" y1="200" y2="190"/>
  <line style="fill:none;stroke:rgb(63,63,191);stroke-opacity:0.24705882352941178;stroke-miterlimit:10;stroke-linecap:square;" x1="210" x2="225" y1="190" y2="180"/>
  <line style="fill:none;stroke:rgb(63,63,191);stroke-opacity:0.24705882352941178;stroke-miterlimit:10;stroke-linecap:square;" x1="225" x2="239" y1="180" y2="170"/>
  <line style="fill:none;stroke:rgb(63,63,191);stroke-opacity:0.24705882352941178;stroke-miterlimit:10;stroke-linecap:square;" x1="239" x2="254" y1="170" y2="160"/>
  <line style="fill:none;stroke:rgb(63,63,191);stroke-opacity:0.24705882352941178;stroke-miterlimit:10;stroke-linecap:square;" x1="254" x2="268" y1="160" y2="150"/>
  <line style="fill:none;stroke:rgb(63,63,191);stroke-opacity:0.24705882352941178;stroke-miterlimit:10;stroke-linecap:square;" x1="268" x2="283" y1="150" y2="140"/>
  <line style="fill:none;stroke:rgb(63,63,191);stroke-opacity:0.24705882352941178;stroke-miterlimit:10;stroke-linecap:square;" x1="283" x2="297" y1="140" y2="130"/>
  <line style="fill:none;stroke:rgb(63,63,191);stroke-opacity:0.24705882352941178;stroke-miterlimit:10;stroke-linecap:square;" x1="297" x2="312" y1="130" y2="120"/>
  <line style="fill:none;stroke:rgb(63,63,191);stroke-opacity:0.24705882352941178;stroke-miterlimit:10;stroke-linecap:square;" x1="312" x2="327" y1="120" y2="110"/>
  <line style="fill:none;stroke:rgb(63,63,191);stroke-opacity:0.24705882352941178;stroke-miterlimit:10;stroke-linecap:square;" x1="327" x2="341" y1="110" y2="100"/>
  <line style="fill:none;stroke:rgb(63,63,191);stroke-opacity:0.24705882352941178;stroke-miterlimit:10;stroke-linecap:square;" x1="341" x2="400" y1="100" y2="60"/>
  <rect height="3" style="fill:rgb(255,127,0);fill-opacity:0.7490196078431373;stroke:none;" width="4" x="-10" y="296"/>
  <line style="fill:none;stroke:rgb(255,127,0);stroke-opacity:0.24705882352941178;stroke-width:2;stroke-miterlimit:10;stroke-linecap:square;" x1="50" x2="-8" y1="300" y2="300"/>
  <line style="fill:none;stroke:rgb(255,127,0);stroke-opacity:0.24705882352941178;stroke-width:2;stroke-miterlimit:10;stroke-linecap:square;" x1="-8" x2="-8" y1="298" y2="298"/>
  <rect height="12" style="fill:rgb(255,127,0);fill-opacity:0.7490196078431373;stroke:none;" width="4" x="4" y="287"/>
  <line style="fill:none;stroke:rgb(255,127,0);stroke-opacity:0.24705882352941178;stroke-width:2;stroke-miterlimit:10;stroke-linecap:square;" x1="-8" x2="6" y1="296" y2="296"/>
  <line style="fill:none;stroke:rgb(255,127,0);stroke-opacity:0.24705882352941178;stroke-width:2;stroke-miterlimit:10;stroke-linecap:square;" x1="6" x2="6" y1="294" y2="286"/>
  <rect height="21" style="fill:rgb(255,127,0);fill-opacity:0.7490196078431373;stroke:none;" width="4" x="18" y="278"/>
  <line style="fill:none;stroke:rgb(255,127,0);stroke-opacity:0.24705882352941178;stroke-width:2;stroke-miterlimit:10;stroke-linecap:square;" x1="6" x2="20" y1="284" y2="284"/>
  <line style="fill:none;stroke:rgb(255,127,0);stroke-opacity:0.24705882352941178;stroke-width:2;stroke-miterlimit:10;stroke-linecap:square;" x1="20" x2="20" y1="282" y2="265"/>
  <rect height="9" style="fill:rgb(255,127,0);fill-opacity:0.7490196078431373;stroke:none;" width="4" x="33" y="290"/>
  <line style="fill:none;stroke:rgb(255,127,0);stroke-opacity:0.24705882352941178;stroke-width:2;stroke-miterlimit:10;stroke-linecap:square;" x1="20" x2="35" y1="263" y2="263"/>
  <line style="fill:none;stroke:rgb(255,127,0);stroke-opacity:0.24705882352941178;stroke-width:2;stroke-miterlimit:10;stroke-linecap:square;" x1="35" x2="35" y1="261" y2="256"/>
  <rect height="12" style="fill:rgb(255,127,0);fill-opacity:0.7490196078431373;stroke:none;" width="4" x="48" y="287"/>
  <line style="fill:none;stroke:rgb(255,127,0);stroke-opacity:0.24705882352941178;stroke-width:2;stroke-miterlimit:10;stroke-linecap:square;" x1="35" x2="50" y1="254" y2="254"/>
  <line style="fill:none;stroke:rgb(255,127,0);stroke-opacity:0.24705882352941178;stroke-width:2;stroke-miterlimit:10;stroke-linecap:square;" x1="50" x2="50" y1="252" y2="244"/>
  <rect height="9" style="fill:rgb(255,127,0);fill-opacity:0.7490196078431373;stroke:none;" width="4" x="62" y="290"/>
  <line style="fill:none;stroke:rgb(255,127,0);stroke-opacity:0.24705882352941178;stroke-width:2;stroke-miterlimit:10;stroke-linecap:square;" x1="50" x2="64" y1="242" y2="242"/>
  <line style="fill:none;stroke:rgb(255,127,0);stroke-opacity:0.24705882352941178;stroke-width:2;stroke-miterlimit:10;stroke-linecap:square;" x1="64" x2="64" y1="240" y2="235"/>
  <rect height="3" style="fill:rgb(255,127,0);fill-opacity:0.7490196078431373;stroke:none;" width="4" x="91" y="296"/>
  <line style="fill:none;stroke:rgb(255,127,0);stroke-opacity:0.24705882352941178;stroke-width:2;stroke-miterlimit:10;stroke-linecap:square;" x1="64" x2="93" y1="233" y2="233"/>
  <line style="fill:none;stroke:rgb(255,127,0);stroke-opacity:0.24705882352941178;stroke-width:2;stroke-miterlimit:10;stroke-linecap:square;" x1="93" x2="93" y1="231" y2="232"/>
  <rect height="15" style="fill:rgb(255,127,0);fill-opacity:0.7490196078431373;stroke:none;" width="4" x="106" y="284"/>
  <line style="fill:none;stroke:rgb(255,127,0);stroke-opacity:0.24705882352941178;stroke-width:2;stroke-miterlimit:10;stroke-linecap:square;" x1="93" x2="108" y1="230" y2="230"/>
  <line style="fill:none;stroke:rgb(255,127,0);stroke-opacity:0.24705882352941178;stroke-width:2;stroke-miterlimit:10;stroke-linecap:square;" x1="108" x2="108" y1="228" y2="216"/>
  <rect height="3" style="fill:rgb(255,127,0);fill-opacity:0.7490196078431373;stroke:none;" width="4" x="120" y="296"/>
  <line style="fill:none;stroke:rgb(255,127,0);stroke-opacity:0.24705882352941178;stroke-width:2;stroke-miterlimit:10;stroke-linecap:square;" x1="108" x2="122" y1="214" y2="214"/>
  <line style="fill:none;stroke:rgb(255,127,0);stroke-opacity:0.24705882352941178;stroke-width:2;stroke-miterlimit:10;stroke-linecap:square;" x1="122" x2="122" y1="212" y2="213"/>
  <rect height="9" style="fill:rgb(255,127,0);fill-opacity:0.7490196078431373;stroke:none;" width="4" x="135" y="290"/>
  <line style="fill:none;stroke:rgb(255,127,0);stroke-opacity:0.24705882352941178;stroke-width:2;stroke-miterlimit:10;stroke-linecap:square;" x1="122" x2="137" y1="211" y2="211"/>
  <line style="fill:none;stroke:rgb(255,127,0);stroke-opacity:0.24705882352941178;stroke-width:2;stroke-miterlimit:10;stroke-linecap:square;" x1="137" x2="137" y1="209" y2="204"/>
  <rect height="15" style="fill:rgb(255,127,0);fill-opacity:0.7490196078431373;stroke:none;" width="4" x="150" y="284"/>
  <line style="fill:none;stroke:rgb(255,127,0);stroke-opacity:0.24705882352941178;stroke-width:2;stroke-miterlimit:10;stroke-linecap:square;" x1="137" x2="152" y1="202" y2="202"/>
  <line style="fill:none;stroke:rgb(255,127,0);stroke-opacity:0.24705882352941178;stroke-width:2;stroke-miterlimit:10;stroke-linecap:square;" x1="152" x2="152" y1="200" y2="189"/>
  <rect height="15" style="fill:rgb(255,127,0);fill-opacity:0.7490196078431373;stroke:none;" width="4" x="164" y="284"/>
  <line style="fill:none;stroke:rgb(255,127,0);stroke-opacity:0.24705882352941178;stroke-width:2;stroke-miterlimit:10;stroke-linecap:square;" x1="152" x2="166" y1="187" y2="187"/>
  <line style="fill:none;stroke:rgb(255,127,0);stroke-opacity:0.24705882352941178;stroke-width:2;stroke-miterlimit:10;stroke-linecap:square;" x1="166" x2="166" y1="185" y2="174"/>
  <rect height="9" style="fill:rgb(255,127,0);fill-opacity:0.7490196078431373;stroke:none;" width="4" x="179" y="290"/>
  <line style="fill:none;stroke:rgb(255,127,0);stroke-opacity:0.24705882352941178;stroke-width:2;stroke-miterlimit:10;stroke-linecap:square;" x1="166" x2="181" y1="172" y2="172"/>
  <line style="fill:none;stroke:rgb(255,127,0);stroke-opacity:0.24705882352941178;stroke-width:2;stroke-miterlimit:10;stroke-linecap:square;" x1="181" x2="181" y1="170" y2="165"/>
  <rect height="12" style="fill:rgb(255,127,0);fill-opacity:0.7490196078431373;stroke:none;" width="4" x="193" y="287"/>
  <line style="fill:none;stroke:rgb(255,127,0);stroke-opacity:0.24705882352941178;stroke-width:2;stroke-miterlimit:10;stroke-linecap:square;" x1="181" x2="195" y1="163" y2="163"/>
  <line style="fill:none;stroke:rgb(255,127,0);stroke-opacity:0.24705882352941178;stroke-width:2;stroke-miterlimit:10;stroke-linecap:square;" x1="195" x2="195" y1="161" y2="153"/>
  <rect height="15" style="fill:rgb(255,127,0);fill-opacity:0.7490196078431373;stroke:none;" width="4" x="208" y="284"/>
  <line style="fill:none;stroke:rgb(255,127,0);stroke-opacity:0.24705882352941178;stroke-width:2;stroke-miterlimit:10;stroke-linecap:square;" x1="195" x2="210" y1="151" y2="151"/>
  <line style="fill:none;stroke:rgb(255,127,0);stroke-opacity:0.24705882352941178;stroke-width:2;stroke-miterlimit:10;stroke-linecap:square;" x1="210" x2="210" y1="149" y2="137"/>
  <rect height="6" style="fill:rgb(255,127,0);fill-opacity:0.7490196078431373;stroke:none;" width="4" x="223" y="293"/>
  <line style="fill:none;stroke:rgb(255,127,0);stroke-opacity:0.24705882352941178;stroke-width:2;stroke-miterlimit:10;stroke-linecap:square;" x1="210" x2="225" y1="135" y2="135"/>
  <line style="fill:none;stroke:rgb(255,127,0);stroke-opacity:0.24705882352941178;stroke-width:2;stroke-miterlimit:10;stroke-linecap:square;" x1="225" x2="225" y1="133" y2="131"/>
  <rect height="12" style="fill:rgb(255,127,0);fill-opacity:0.7490196078431373;stroke:none;" width="4" x="237" y="287"/>
  <line style="fill:none;stroke:rgb(255,127,0);stroke-opacity:0.24705882352941178;stroke-width:2;stroke-miterlimit:10;stroke-linecap:square;" x1="225" x2="239" y1="129" y2="129"/>
  <line style="fill:none;stroke:rgb(255,127,0);stroke-opacity:0.24705882352941178;stroke-width:2;stroke-miterlimit:10;stroke-linecap:square;" x1="239" x2="239" y1="127" y2="119"/>
  <rect height="3" style="fill:rgb(255,127,0);fill-opacity:0.7490196078431373;stroke:none;" width="4" x="252" y="296"/>
  <line style="fill:none;stroke:rgb(255,127,0);stroke-opacity:0.24705882352941178;stroke-width:2;stroke-miterlimit:10;stroke-linecap:square;" x1="239" x2="254" y1="117" y2="117"/>
  <line style="fill:none;stroke:rgb(255,127,0);stroke-opacity:0.24705882352941178;stroke-width:2;stroke-miterlimit:10;stroke-linecap:square;" x1="254" x2="254" y1="115" y2="116"/>
  <rect height="3" style="fill:rgb(255,127,0);fill-opacity:0.7490196078431373;stroke:none;" width="4" x="266" y="296"/>
  <line style="fill:none;stroke:rgb(255,127,0);stroke-opacity:0.24705882352941178;stroke-width:2;stroke-miterlimit:10;stroke-linecap:square;" x1="254" x2="268" y1="114" y2="114"/>
  <line style="fill:none;stroke:rgb(255,127,0);stroke-opacity:0.24705882352941178;stroke-width:2;stroke-miterlimit:10;stroke-linecap:square;" x1="268" x2="268" y1="112" y2="113"/>
  <rect height="12" style="fill:rgb(255,127,0);fill-opacity:0.7490196078431373;stroke:none;" width="4" x="281" y="287"/>
  <line style="fill:none;stroke:rgb(255,127,0);stroke-opacity:0.24705882352941178;stroke-width:2;stroke-miterlimit:10;stroke-linecap:square;" x1="268" x2="283" y1="111" y2="111"/>
  <line style="fill:none;stroke:rgb(255,127,0);stroke-opacity:0.24705882352941178;stroke-width:2;stroke-miterlimit:10;stroke-linecap:square;" x1="283" x2="283" y1="109" y2="101"/>
  <rect height="9" style="fill:rgb(255,127,0);fill-opacity:0.7490196078431373;stroke:none;" width="4" x="295" y="290"/>
  <line style="fill:none;stroke:rgb(255,127,0);stroke-opacity:0.24705882352941178;stroke-width:2;stroke-miterlimit:10;stroke-linecap:square;" x1="283" x2="297" y1="99" y2="99"/>
  <line style="fill:none;stroke:rgb(255,127,0);stroke-opacity:0.24705882352941178;stroke-width:2;stroke-miterlimit:10;stroke-linecap:square;" x1="297" x2="297" y1="97" y2="92"/>
  <rect height="18" style="fill:rgb(255,127,0);fill-opacity:0.7490196078431373;stroke:none;" width="4" x="310" y="281"/>
  <line style="fill:none;stroke:rgb(255,127,0);stroke-opacity:0.24705882352941178;stroke-width:2;stroke-miterlimit:10;stroke-linecap:square;" x1="297" x2="312" y1="90" y2="90"/>
  <line style="fill:none;stroke:rgb(255,127,0);stroke-opacity:0.24705882352941178;stroke-width:2;stroke-miterlimit:10;stroke-linecap:square;" x1="312" x2="312" y1="88" y2="74"/>
  <rect height="9" style="fill:rgb(255,127,0);fill-opacity:0.7490196078431373;stroke:none;" width="4" x="325" y="290"/>
  <line style="fill:none;stroke:rgb(255,127,0);stroke-opacity:0.24705882352941178;stroke-width:2;stroke-miterlimit:10;stroke-linecap:square;" x1="312" x2="327" y1="72" y2="72"/>
  <line style="fill:none;stroke:rgb(255,127,0);stroke-opacity:0.24705882352941178;stroke-width:2;stroke-miterlimit:10;stroke-linecap:square;" x1="327" x2="327" y1="70" y2="65"/>
  <rect height="3" style="fill:rgb(255,127,0);fill-opacity:0.7490196078431373;stroke:none;" width="4" x="339" y="296"/>
  <line style="fill:none;stroke:rgb(255,127,0);stroke-opacity:0.24705882352941178;stroke-width:2;stroke-miterlimit:10;stroke-linecap:square;" x1="327" x2="341" y1="63" y2="63"/>
  <line style="fill:none;stroke:rgb(255,127,0);stroke-opacity:0.24705882352941178;stroke-width:2;stroke-miterlimit:10;stroke-linecap:square;" x1="341" x2="341" y1="61" y2="62"/>
  <line style="fill:none;stroke:rgb(255,127,0);stroke-opacity:0.24705882352941178;stroke-width:2;stroke-miterlimit:10;stroke-linecap:square;" x1="341" x2="400" y1="60" y2="60"/>
  <line style="fill:none;stroke:rgb(255,127,0);stroke-opacity:0.4980392156862745;stroke-miterlimit:2;stroke-dasharray:2;" x1="-8" x2="-8" y1="300" y2="367"/>
  <line style="fill:none;stroke:rgb(255,127,0);stroke-opacity:0.4980392156862745;stroke-miterlimit:2;stroke-dasharray:2;" x1="6" x2="6" y1="300" y2="384"/>
  <line style="fill:none;stroke:rgb(255,127,0);stroke-opacity:0.4980392156862745;stroke-miterlimit:2;stroke-dasharray:2;" x1="6" x2="6" y1="300" y2="401"/>
  <line style="fill:none;stroke:rgb(255,127,0);stroke-opacity:0.4980392156862745;stroke-miterlimit:2;stroke-dasharray:2;" x1="6" x2="6" y1="300" y2="418"/>
  <line style="fill:none;stroke:rgb(255,127,0);stroke-opacity:0.4980392156862745;stroke-miterlimit:2;stroke-dasharray:2;" x1="6" x2="6" y1="300" y2="435"/>
  <line style="fill:none;stroke:rgb(255,127,0);stroke-opacity:0.4980392156862745;stroke-miterlimit:2;stroke-dasharray:2;" x1="20" x2="20" y1="300" y2="452"/>
  <line style="fill:none;stroke:rgb(255,127,0);stroke-opacity:0.4980392156862745;stroke-miterlimit:2;stroke-dasharray:2;" x1="20" x2="20" y1="300" y2="469"/>
  <line style="fill:none;stroke:rgb(255,127,0);stroke-opacity:0.4980392156862745;stroke-miterlimit:2;stroke-dasharray:2;" x1="20" x2="20" y1="300" y2="486"/>
  <line style="fill:none;stroke:rgb(255,127,0);stroke-opacity:0.4980392156862745;stroke-miterlimit:2;stroke-dasharray:2;" x1="20" x2="20" y1="300" y2="503"/>
  <line style="fill:none;stroke:rgb(255,127,0);stroke-opacity:0.4980392156862745;stroke-miterlimit:2;stroke-dasharray:2;" x1="20" x2="20" y1="300" y2="520"/>
  <line style="fill:none;stroke:rgb(255,127,0);stroke-opacity:0.4980392156862745;stroke-miterlimit:2;stroke-dasharray:2;" x1="20" x2="20" y1="300" y2="537"/>
  <line style="fill:none;stroke:rgb(255,127,0);stroke-opacity:0.4980392156862745;stroke-miterlimit:2;stroke-dasharray:2;" x1="20" x2="20" y1="300" y2="554"/>
  <line style="fill:none;stroke:rgb(255,127,0);stroke-opacity:0.4980392156862745;stroke-miterlimit:2;stroke-dasharray:2;" x1="35" x2="35" y1="300" y2="571"/>
  <line style="fill:none;stroke:rgb(255,127,0);stroke-opacity:0.4980392156862745;stroke-miterlimit:2;stroke-dasharray:2;" x1="35" x2="35" y1="300" y2="588"/>
  <line style="fill:none;stroke:rgb(255,127,0);stroke-opacity:0.4980392156862745;stroke-miterlimit:2;stroke-dasharray:2;" x1="35" x2="35" y1="300" y2="605"/>
  <line style="fill:none;stroke:rgb(255,127,0);stroke-opacity:0.4980392156862745;stroke-miterlimit:2;stroke-dasharray:2;" x1="50" x2="50" y1="300" y2="622"/>
  <line style="fill:none;stroke:rgb(255,127,0);stroke-opacity:0.4980392156862745;stroke-miterlimit:2;stroke-dasharray:2;" x1="50" x2="50" y1="300" y2="639"/>
  <line style="fill:none;stroke:rgb(255,127,0);stroke-opacity:0.4980392156862745;stroke-miterlimit:2;stroke-dasharray:2;" x1="50" x2="50" y1="300" y2="656"/>
  <line style="fill:none;stroke:rgb(255,127,0);stroke-opacity:0.4980392156862745;stroke-miterlimit:2;stroke-dasharray:2;" x1="50" x2="50" y1="300" y2="673"/>
  <line style="fill:none;stroke:rgb(255,127,0);stroke-opacity:0.4980392156862745;stroke-miterlimit:2;stroke-dasharray:2;" x1="64" x2="64" y1="300" y2="688"/>
  <line style="fill:none;stroke:rgb(255,127,0);stroke-opacity:0.4980392156862745;stroke-miterlimit:2;stroke-dasharray:2;" x1="64" x2="64" y1="300" y2="703"/>
  <line style="fill:none;stroke:rgb(255,127,0);stroke-opacity:0.4980392156862745;stroke-miterlimit:2;stroke-dasharray:2;" x1="64" x2="64" y1="300" y2="718"/>
  <line style="fill:none;stroke:rgb(255,127,0);stroke-opacity:0.4980392156862745;stroke-miterlimit:2;stroke-dasharray:2;" x1="93" x2="93" y1="300" y2="733"/>
  <line style="fill:none;stroke:rgb(255,127,0);stroke-opacity:0.4980392156862745;stroke-miterlimit:2;stroke-dasharray:2;" x1="108" x2="108" y1="300" y2="748"/>
  <line style="fill:none;stroke:rgb(255,127,0);stroke-opacity:0.4980392156862745;stroke-miterlimit:2;stroke-dasharray:2;" x1="108" x2="108" y1="300" y2="763"/>
  <line style="fill:none;stroke:rgb(255,127,0);stroke-opacity:0.4980392156862745;stroke-miterlimit:2;stroke-dasharray:2;" x1="108" x2="108" y1="300" y2="778"/>
  <line style="fill:none;stroke:rgb(255,127,0);stroke-opacity:0.4980392156862745;stroke-miterlimit:2;stroke-dasharray:2;" x1="108" x2="108" y1="300" y2="793"/>
  <line style="fill:none;stroke:rgb(255,127,0);stroke-opacity:0.4980392156862745;stroke-miterlimit:2;stroke-dasharray:2;" x1="108" x2="108" y1="300" y2="808"/>
  <line style="fill:none;stroke:rgb(255,127,0);stroke-opacity:0.4980392156862745;stroke-miterlimit:2;stroke-dasharray:2;" x1="122" x2="122" y1="300" y2="823"/>
  <line style="fill:none;stroke:rgb(255,127,0);stroke-opacity:0.4980392156862745;stroke-miterlimit:2;stroke-dasharray:2;" x1="137" x2="137" y1="300" y2="838"/>
  <line style="fill:none;stroke:rgb(255,127,0);stroke-opacity:0.4980392156862745;stroke-miterlimit:2;stroke-dasharray:2;" x1="137" x2="137" y1="300" y2="853"/>
  <line style="fill:none;stroke:rgb(255,127,0);stroke-opacity:0.4980392156862745;stroke-miterlimit:2;stroke-dasharray:2;" x1="137" x2="137" y1="300" y2="868"/>
  <line style="fill:none;stroke:rgb(255,127,0);stroke-opacity:0.4980392156862745;stroke-miterlimit:2;stroke-dasharray:2;" x1="152" x2="152" y1="300" y2="882"/>
  <line style="fill:none;stroke:rgb(255,127,0);stroke-opacity:0.4980392156862745;stroke-miterlimit:2;stroke-dasharray:2;" x1="152" x2="152" y1="300" y2="896"/>
  <line style="fill:none;stroke:rgb(255,127,0);stroke-opacity:0.4980392156862745;stroke-miterlimit:2;stroke-dasharray:2;" x1="152" x2="152" y1="300" y2="910"/>
  <line style="fill:none;stroke:rgb(255,127,0);stroke-opacity:0.4980392156862745;stroke-miterlimit:2;stroke-dasharray:2;" x1="152" x2="152" y1="300" y2="924"/>
  <line style="fill:none;stroke:rgb(255,127,0);stroke-opacity:0.4980392156862745;stroke-miterlimit:2;stroke-dasharray:2;" x1="152" x2="152" y1="300" y2="938"/>
  <line style="fill:none;stroke:rgb(255,127,0);stroke-opacity:0.4980392156862745;stroke-miterlimit:2;stroke-dasharray:2;" x1="166" x2="166" y1="300" y2="952"/>
  <line style="fill:none;stroke:rgb(255,127,0);stroke-opacity:0.4980392156862745;stroke-miterlimit:2;stroke-dasharray:2;" x1="166" x2="166" y1="300" y2="966"/>
  <line style="fill:none;stroke:rgb(255,127,0);stroke-opacity:0.4980392156862745;stroke-miterlimit:2;stroke-dasharray:2;" x1="166" x2="166" y1="300" y2="980"/>
  <line style="fill:none;stroke:rgb(255,127,0);stroke-opacity:0.4980392156862745;stroke-miterlimit:2;stroke-dasharray:2;" x1="166" x2="166" y1="300" y2="994"/>
  <line style="fill:none;stroke:rgb(255,127,0);stroke-opacity:0.4980392156862745;stroke-miterlimit:2;stroke-dasharray:2;" x1="166" x2="166" y1="300" y2="1008"/>
  <line style="fill:none;stroke:rgb(255,127,0);stroke-opacity:0.4980392156862745;stroke-miterlimit:2;stroke-dasharray:2;" x1="181" x2="181" y1="300" y2="1022"/>
  <line style="fill:none;stroke:rgb(255,127,0);stroke-opacity:0.4980392156862745;stroke-miterlimit:2;stroke-dasharray:2;" x1="181" x2="181" y1="300" y2="1036"/>
  <line style="fill:none;stroke:rgb(255,127,0);stroke-opacity:0.4980392156862745;stroke-miterlimit:2;stroke-dasharray:2;" x1="181" x2="181" y1="300" y2="1050"/>
  <line style="fill:none;stroke:rgb(255,127,0);stroke-opacity:0.4980392156862745;stroke-miterlimit:2;stroke-dasharray:2;" x1="195" x2="195" y1="300" y2="1064"/>
  <line style="fill:none;stroke:rgb(255,127,0);stroke-opacity:0.4980392156862745;stroke-miterlimit:2;stroke-dasharray:2;" x1="195" x2="195" y1="300" y2="1078"/>
  <line style="fill:none;stroke:rgb(255,127,0);stroke-opacity:0.4980392156862745;stroke-miterlimit:2;stroke-dasharray:2;" x1="195" x2="195" y1="300" y2="1092"/>
  <line style="fill:none;stroke:rgb(255,127,0);stroke-opacity:0.4980392156862745;stroke-miterlimit:2;stroke-dasharray:2;" x1="195" x2="195" y1="300" y2="1106"/>
  <line style="fill:none;stroke:rgb(255,127,0);stroke-opacity:0.4980392156862745;stroke-miterlimit:2;stroke-dasharray:2;" x1="210" x2="210" y1="300" y2="1120"/>
  <line style="fill:none;stroke:rgb(255,127,0);stroke-opacity:0.4980392156862745;stroke-miterlimit:2;stroke-dasharray:2;" x1="210" x2="210" y1="300" y2="1134"/>
  <line style="fill:none;stroke:rgb(255,127,0);stroke-opacity:0.4980392156862745;stroke-miterlimit:2;stroke-dasharray:2;" x1="210" x2="210" y1="300" y2="1148"/>
  <line style="fill:none;stroke:rgb(255,127,0);stroke-opacity:0.4980392156862745;stroke-miterlimit:2;stroke-dasharray:2;" x1="210" x2="210" y1="300" y2="1162"/>
  <line style="fill:none;stroke:rgb(255,127,0);stroke-opacity:0.4980392156862745;stroke-miterlimit:2;stroke-dasharray:2;" x1="210" x2="210" y1="300" y2="1176"/>
  <line style="fill:none;stroke:rgb(255,127,0);stroke-opacity:0.4980392156862745;stroke-miterlimit:2;stroke-dasharray:2;" x1="225" x2="225" y1="300" y2="1190"/>
  <line style="fill:none;stroke:rgb(255,127,0);stroke-opacity:0.4980392156862745;stroke-miterlimit:2;stroke-dasharray:2;" x1="225" x2="225" y1="300" y2="1204"/>
  <line style="fill:none;stroke:rgb(255,127,0);stroke-opacity:0.4980392156862745;stroke-miterlimit:2;stroke-dasharray:2;" x1="239" x2="239" y1="300" y2="1218"/>
  <line style="fill:none;stroke:rgb(255,127,0);stroke-opacity:0.4980392156862745;stroke-miterlimit:2;stroke-dasharray:2;" x1="239" x2="239" y1="300" y2="1232"/>
  <line style="fill:none;stroke:rgb(255,127,0);stroke-opacity:0.4980392156862745;stroke-miterlimit:2;stroke-dasharray:2;" x1="239" x2="239" y1="300" y2="1246"/>
  <line style="fill:none;stroke:rgb(255,127,0);stroke-opacity:0.4980392156862745;stroke-miterlimit:2;stroke-dasharray:2;" x1="239" x2="239" y1="300" y2="1260"/>
  <line style="fill:none;stroke:rgb(255,127,0);stroke-opacity:0.4980392156862745;stroke-miterlimit:2;stroke-dasharray:2;" x1="254" x2="254" y1="300" y2="1274"/>
  <line style="fill:none;stroke:rgb(255,127,0);stroke-opacity:0.4980392156862745;stroke-miterlimit:2;stroke-dasharray:2;" x1="268" x2="268" y1="300" y2="1288"/>
  <line style="fill:none;stroke:rgb(255,127,0);stroke-opacity:0.4980392156862745;stroke-miterlimit:2;stroke-dasharray:2;" x1="283" x2="283" y1="300" y2="1302"/>
  <line style="fill:none;stroke:rgb(255,127,0);stroke-opacity:0.4980392156862745;stroke-miterlimit:2;stroke-dasharray:2;" x1="283" x2="283" y1="300" y2="1316"/>
  <line style="fill:none;stroke:rgb(255,127,0);stroke-opacity:0.4980392156862745;stroke-miterlimit:2;stroke-dasharray:2;" x1="283" x2="283" y1="300" y2="1330"/>
  <line style="fill:none;stroke:rgb(255,127,0);stroke-opacity:0.4980392156862745;stroke-miterlimit:2;stroke-dasharray:2;" x1="283" x2="283" y1="300" y2="1344"/>
  <line style="fill:none;stroke:rgb(255,127,0);stroke-opacity:0.4980392156862745;stroke-miterlimit:2;stroke-dasharray:2;" x1="297" x2="297" y1="300" y2="1358"/>
  <line style="fill:none;stroke:rgb(255,127,0);stroke-opacity:0.4980392156862745;stroke-miterlimit:2;stroke-dasharray:2;" x1="297" x2="297" y1="300" y2="1372"/>
  <line style="fill:none;stroke:rgb(255,127,0);stroke-opacity:0.4980392156862745;stroke-miterlimit:2;stroke-dasharray:2;" x1="297" x2="297" y1="300" y2="1386"/>
  <line style="fill:none;stroke:rgb(255,127,0);stroke-opacity:0.4980392156862745;stroke-miterlimit:2;stroke-dasharray:2;" x1="312" x2="312" y1="300" y2="1400"/>
  <line style="fill:none;stroke:rgb(255,127,0);stroke-opacity:0.4980392156862745;stroke-miterlimit:2;stroke-dasharray:2;" x1="312" x2="312" y1="300" y2="1414"/>
  <line style="fill:none;stroke:rgb(255,127,0);stroke-opacity:0.4980392156862745;stroke-miterlimit:2;stroke-dasharray:2;" x1="312" x2="312" y1="300" y2="1428"/>
  <line style="fill:none;stroke:rgb(255,127,0);stroke-opacity:0.4980392156862745;stroke-miterlimit:2;stroke-dasharray:2;" x1="312" x2="312" y1="300" y2="1442"/>
  <line style="fill:none;stroke:rgb(255,127,0);stroke-opacity:0.4980392156862745;stroke-miterlimit:2;stroke-dasharray:2;" x1="312" x2="312" y1="300" y2="1456"/>
  <line style="fill:none;stroke:rgb(255,127,0);stroke-opacity:0.4980392156862745;stroke-miterlimit:2;stroke-dasharray:2;" x1="312" x2="312" y1="300" y2="1470"/>
  <line style="fill:none;stroke:rgb(255,127,0);stroke-opacity:0.4980392156862745;stroke-miterlimit:2;stroke-dasharray:2;" x1="327" x2="327" y1="300" y2="1484"/>
  <line style="fill:none;stroke:rgb(255,127,0);stroke-opacity:0.4980392156862745;stroke-miterlimit:2;stroke-dasharray:2;" x1="327" x2="327" y1="300" y2="1498"/>
  <line style="fill:none;stroke:rgb(255,127,0);stroke-opacity:0.4980392156862745;stroke-miterlimit:2;stroke-dasharray:2;" x1="327" x2="327" y1="300" y2="1512"/>
  <line style="fill:none;stroke:rgb(255,127,0);stroke-opacity:0.4980392156862745;stroke-miterlimit:2;stroke-dasharray:2;" x1="341" x2="341" y1="300" y2="1526"/>
  <line style="fill:none;stroke:rgb(0,0,0);stroke-width:2;stroke-miterlimit:10;stroke-linecap:square;" x1="48" x2="48" y1="60" y2="300"/>
  <line style="fill:none;stroke:rgb(0,0,0);stroke-width:2;stroke-miterlimit:10;stroke-linecap:square;" x1="48" x2="402" y1="300" y2="300"/>
  <rect height="30" style="fill:rgb(255,255,255);stroke:none;" width="17" x="42" y="308"/>
  <text style="fill:rgb(0,0,0);stroke:none;font-size:25px;font-weight:bold;" x="42" y="332">0</text>
  <rect height="30" style="fill:rgb(255,255,255);stroke:none;" width="34" x="383" y="308"/>
  <text style="fill:rgb(0,0,0);stroke:none;font-size:25px;font-weight:bold;" x="383" y="332">24</text>
  <text style="fill:rgb(0,0,0);stroke:none;font-size:25px;font-weight:bold;" x="25" y="312">0</text>
  <text style="fill:rgb(0,0,0);stroke:none;font-size:25px;font-weight:bold;" x="25" y="72">1</text>
  <text style="fill:rgb(0,0,0);stroke:none;font-size:25px;font-weight:bold;" x="25" y="42">GOBP_RESPONSE_TO_HORMONE</text>
  <rect height="13" style="fill:rgb(255,255,255);stroke:none;" width="47" x="-8" y="354"/>
  <text style="fill:rgb(128,128,128);stroke:none;font-size:14px;" x="-8" y="367">PRKCE</text>
  <rect height="13" style="fill:rgb(255,255,255);stroke:none;" width="38" x="6" y="371"/>
  <text style="fill:rgb(128,128,128);stroke:none;font-size:14px;" x="6" y="384">CRY1</text>
  <rect height="13" style="fill:rgb(255,255,255);stroke:none;" width="48" x="6" y="388"/>
  <text style="fill:rgb(128,128,128);stroke:none;font-size:14px;" x="6" y="401">GPER1</text>
  <rect height="13" style="fill:rgb(255,255,255);stroke:none;" width="41" x="6" y="405"/>
  <text style="fill:rgb(128,128,128);stroke:none;font-size:14px;" x="6" y="418">BRIP1</text>
  <rect height="13" style="fill:rgb(255,255,255);stroke:none;" width="47" x="6" y="422"/>
  <text style="fill:rgb(128,128,128);stroke:none;font-size:14px;" x="6" y="435">RAB12</text>
  <rect height="13" style="fill:rgb(255,255,255);stroke:none;" width="32" x="20" y="439"/>
  <text style="fill:rgb(128,128,128);stroke:none;font-size:14px;" x="20" y="452">ADM</text>
  <rect height="13" style="fill:rgb(255,255,255);stroke:none;" width="48" x="20" y="456"/>
  <text style="fill:rgb(128,128,128);stroke:none;font-size:14px;" x="20" y="469">BCAR3</text>
  <rect height="13" style="fill:rgb(255,255,255);stroke:none;" width="48" x="20" y="473"/>
  <text style="fill:rgb(128,128,128);stroke:none;font-size:14px;" x="20" y="486">FOXO1</text>
  <rect height="13" style="fill:rgb(255,255,255);stroke:none;" width="49" x="20" y="490"/>
  <text style="fill:rgb(128,128,128);stroke:none;font-size:14px;" x="20" y="503">ZBED3</text>
  <rect height="13" style="fill:rgb(255,255,255);stroke:none;" width="53" x="20" y="507"/>
  <text style="fill:rgb(128,128,128);stroke:none;font-size:14px;" x="20" y="520">SLC2A1</text>
  <rect height="13" style="fill:rgb(255,255,255);stroke:none;" width="57" x="20" y="524"/>
  <text style="fill:rgb(128,128,128);stroke:none;font-size:14px;" x="20" y="537">TGFBR2</text>
  <rect height="13" style="fill:rgb(255,255,255);stroke:none;" width="75" x="20" y="541"/>
  <text style="fill:rgb(128,128,128);stroke:none;font-size:14px;" x="20" y="554">C1QTNF12</text>
  <rect height="13" style="fill:rgb(255,255,255);stroke:none;" width="38" x="35" y="558"/>
  <text style="fill:rgb(128,128,128);stroke:none;font-size:13px;" x="35" y="571">DDIT4</text>
  <rect height="13" style="fill:rgb(255,255,255);stroke:none;" width="51" x="35" y="575"/>
  <text style="fill:rgb(128,128,128);stroke:none;font-size:13px;" x="35" y="588">RHOXF1</text>
  <rect height="13" style="fill:rgb(255,255,255);stroke:none;" width="62" x="35" y="592"/>
  <text style="fill:rgb(128,128,128);stroke:none;font-size:13px;" x="35" y="605">HSD11B2</text>
  <rect height="13" style="fill:rgb(255,255,255);stroke:none;" width="30" x="50" y="609"/>
  <text style="fill:rgb(128,128,128);stroke:none;font-size:13px;" x="50" y="622">GJB2</text>
  <rect height="13" style="fill:rgb(255,255,255);stroke:none;" width="46" x="50" y="626"/>
  <text style="fill:rgb(128,128,128);stroke:none;font-size:13px;" x="50" y="639">KDM3A</text>
  <rect height="13" style="fill:rgb(255,255,255);stroke:none;" width="41" x="50" y="643"/>
  <text style="fill:rgb(128,128,128);stroke:none;font-size:13px;" x="50" y="656">ARNTL</text>
  <rect height="13" style="fill:rgb(255,255,255);stroke:none;" width="52" x="50" y="660"/>
  <text style="fill:rgb(128,128,128);stroke:none;font-size:13px;" x="50" y="673">PMEPA1</text>
  <rect height="12" style="fill:rgb(255,255,255);stroke:none;" width="30" x="64" y="676"/>
  <text style="fill:rgb(128,128,128);stroke:none;" x="64" y="688">PRLR</text>
  <rect height="12" style="fill:rgb(255,255,255);stroke:none;" width="39" x="64" y="691"/>
  <text style="fill:rgb(128,128,128);stroke:none;" x="64" y="703">TRPV4</text>
  <rect height="12" style="fill:rgb(255,255,255);stroke:none;" width="65" x="64" y="706"/>
  <text style="fill:rgb(128,128,128);stroke:none;" x="64" y="718">PPARGC1B</text>
  <rect height="12" style="fill:rgb(255,255,255);stroke:none;" width="39" x="93" y="721"/>
  <text style="fill:rgb(128,128,128);stroke:none;" x="93" y="733">TGFB1</text>
  <rect height="12" style="fill:rgb(255,255,255);stroke:none;" width="25" x="108" y="736"/>
  <text style="fill:rgb(128,128,128);stroke:none;" x="108" y="748">IL4R</text>
  <rect height="12" style="fill:rgb(255,255,255);stroke:none;" width="33" x="108" y="751"/>
  <text style="fill:rgb(128,128,128);stroke:none;" x="108" y="763">EGR1</text>
  <rect height="12" style="fill:rgb(255,255,255);stroke:none;" width="41" x="108" y="766"/>
  <text style="fill:rgb(128,128,128);stroke:none;" x="108" y="778">KCNQ1</text>
  <rect height="12" style="fill:rgb(255,255,255);stroke:none;" width="38" x="108" y="781"/>
  <text style="fill:rgb(128,128,128);stroke:none;" x="108" y="793">PTAFR</text>
  <rect height="12" style="fill:rgb(255,255,255);stroke:none;" width="41" x="108" y="796"/>
  <text style="fill:rgb(128,128,128);stroke:none;" x="108" y="808">SOCS3</text>
  <rect height="12" style="fill:rgb(255,255,255);stroke:none;" width="35" x="122" y="811"/>
  <text style="fill:rgb(128,128,128);stroke:none;" x="122" y="823">ITGA3</text>
  <rect height="12" style="fill:rgb(255,255,255);stroke:none;" width="41" x="137" y="826"/>
  <text style="fill:rgb(128,128,128);stroke:none;" x="137" y="838">SESN3</text>
  <rect height="12" style="fill:rgb(255,255,255);stroke:none;" width="40" x="137" y="841"/>
  <text style="fill:rgb(128,128,128);stroke:none;" x="137" y="853">EGLN2</text>
  <rect height="12" style="fill:rgb(255,255,255);stroke:none;" width="41" x="137" y="856"/>
  <text style="fill:rgb(128,128,128);stroke:none;" x="137" y="868">NR4A3</text>
  <rect height="11" style="fill:rgb(255,255,255);stroke:none;" width="21" x="152" y="871"/>
  <text style="fill:rgb(128,128,128);stroke:none;font-size:11px;" x="152" y="882">TNF</text>
  <rect height="11" style="fill:rgb(255,255,255);stroke:none;" width="29" x="152" y="885"/>
  <text style="fill:rgb(128,128,128);stroke:none;font-size:11px;" x="152" y="896">RXRB</text>
  <rect height="11" style="fill:rgb(255,255,255);stroke:none;" width="48" x="152" y="899"/>
  <text style="fill:rgb(128,128,128);stroke:none;font-size:11px;" x="152" y="910">ZDHHC7</text>
  <rect height="11" style="fill:rgb(255,255,255);stroke:none;" width="38" x="152" y="913"/>
  <text style="fill:rgb(128,128,128);stroke:none;font-size:11px;" x="152" y="924">EIF2B4</text>
  <rect height="11" style="fill:rgb(255,255,255);stroke:none;" width="54" x="152" y="927"/>
  <text style="fill:rgb(128,128,128);stroke:none;font-size:11px;" x="152" y="938">EPM2AIP1</text>
  <rect height="11" style="fill:rgb(255,255,255);stroke:none;" width="30" x="166" y="941"/>
  <text style="fill:rgb(128,128,128);stroke:none;font-size:11px;" x="166" y="952">BRD8</text>
  <rect height="11" style="fill:rgb(255,255,255);stroke:none;" width="38" x="166" y="955"/>
  <text style="fill:rgb(128,128,128);stroke:none;font-size:11px;" x="166" y="966">HDAC5</text>
  <rect height="11" style="fill:rgb(255,255,255);stroke:none;" width="40" x="166" y="969"/>
  <text style="fill:rgb(128,128,128);stroke:none;font-size:11px;" x="166" y="980">TRIM68</text>
  <rect height="11" style="fill:rgb(255,255,255);stroke:none;" width="39" x="166" y="983"/>
  <text style="fill:rgb(128,128,128);stroke:none;font-size:11px;" x="166" y="994">ARID5A</text>
  <rect height="11" style="fill:rgb(255,255,255);stroke:none;" width="49" x="166" y="997"/>
  <text style="fill:rgb(128,128,128);stroke:none;font-size:11px;" x="166" y="1008">BCL2L11</text>
  <rect height="11" style="fill:rgb(255,255,255);stroke:none;" width="36" x="181" y="1011"/>
  <text style="fill:rgb(128,128,128);stroke:none;font-size:11px;" x="181" y="1022">NR2E3</text>
  <rect height="11" style="fill:rgb(255,255,255);stroke:none;" width="37" x="181" y="1025"/>
  <text style="fill:rgb(128,128,128);stroke:none;font-size:11px;" x="181" y="1036">GKAP1</text>
  <rect height="11" style="fill:rgb(255,255,255);stroke:none;" width="44" x="181" y="1039"/>
  <text style="fill:rgb(128,128,128);stroke:none;font-size:11px;" x="181" y="1050">HSPA1A</text>
  <rect height="11" style="fill:rgb(255,255,255);stroke:none;" width="14" x="195" y="1053"/>
  <text style="fill:rgb(128,128,128);stroke:none;font-size:11px;" x="195" y="1064">AR</text>
  <rect height="11" style="fill:rgb(255,255,255);stroke:none;" width="37" x="195" y="1067"/>
  <text style="fill:rgb(128,128,128);stroke:none;font-size:11px;" x="195" y="1078">CASP9</text>
  <rect height="11" style="fill:rgb(255,255,255);stroke:none;" width="38" x="195" y="1081"/>
  <text style="fill:rgb(128,128,128);stroke:none;font-size:11px;" x="195" y="1092">RBM14</text>
  <rect height="11" style="fill:rgb(255,255,255);stroke:none;" width="43" x="195" y="1095"/>
  <text style="fill:rgb(128,128,128);stroke:none;font-size:11px;" x="195" y="1106">AKR1C3</text>
  <rect height="11" style="fill:rgb(255,255,255);stroke:none;" width="22" x="210" y="1109"/>
  <text style="fill:rgb(128,128,128);stroke:none;font-size:11px;" x="210" y="1120">CA2</text>
  <rect height="11" style="fill:rgb(255,255,255);stroke:none;" width="29" x="210" y="1123"/>
  <text style="fill:rgb(128,128,128);stroke:none;font-size:11px;" x="210" y="1134">CAV1</text>
  <rect height="11" style="fill:rgb(255,255,255);stroke:none;" width="28" x="210" y="1137"/>
  <text style="fill:rgb(128,128,128);stroke:none;font-size:11px;" x="210" y="1148">HEYL</text>
  <rect height="11" style="fill:rgb(255,255,255);stroke:none;" width="50" x="210" y="1151"/>
  <text style="fill:rgb(128,128,128);stroke:none;font-size:11px;" x="210" y="1162">SLC27A1</text>
  <rect height="11" style="fill:rgb(255,255,255);stroke:none;" width="57" x="210" y="1165"/>
  <text style="fill:rgb(128,128,128);stroke:none;font-size:11px;" x="210" y="1176">SLC39A14</text>
  <rect height="11" style="fill:rgb(255,255,255);stroke:none;" width="37" x="225" y="1179"/>
  <text style="fill:rgb(128,128,128);stroke:none;font-size:11px;" x="225" y="1190">BRCA1</text>
  <rect height="11" style="fill:rgb(255,255,255);stroke:none;" width="45" x="225" y="1193"/>
  <text style="fill:rgb(128,128,128);stroke:none;font-size:11px;" x="225" y="1204">DHCR24</text>
  <rect height="11" style="fill:rgb(255,255,255);stroke:none;" width="29" x="239" y="1207"/>
  <text style="fill:rgb(128,128,128);stroke:none;font-size:11px;" x="239" y="1218">PDK4</text>
  <rect height="11" style="fill:rgb(255,255,255);stroke:none;" width="28" x="239" y="1221"/>
  <text style="fill:rgb(128,128,128);stroke:none;font-size:11px;" x="239" y="1232">PER1</text>
  <rect height="11" style="fill:rgb(255,255,255);stroke:none;" width="40" x="239" y="1235"/>
  <text style="fill:rgb(128,128,128);stroke:none;font-size:11px;" x="239" y="1246">SOCS2</text>
  <rect height="11" style="fill:rgb(255,255,255);stroke:none;" width="49" x="239" y="1249"/>
  <text style="fill:rgb(128,128,128);stroke:none;font-size:11px;" x="239" y="1260">HMGCS2</text>
  <rect height="11" style="fill:rgb(255,255,255);stroke:none;" width="33" x="254" y="1263"/>
  <text style="fill:rgb(128,128,128);stroke:none;font-size:11px;" x="254" y="1274">TIMP3</text>
  <rect height="11" style="fill:rgb(255,255,255);stroke:none;" width="40" x="268" y="1277"/>
  <text style="fill:rgb(128,128,128);stroke:none;font-size:11px;" x="268" y="1288">CITED4</text>
  <rect height="11" style="fill:rgb(255,255,255);stroke:none;" width="25" x="283" y="1291"/>
  <text style="fill:rgb(128,128,128);stroke:none;font-size:11px;" x="283" y="1302">IRS2</text>
  <rect height="11" style="fill:rgb(255,255,255);stroke:none;" width="30" x="283" y="1305"/>
  <text style="fill:rgb(128,128,128);stroke:none;font-size:11px;" x="283" y="1316">AQP1</text>
  <rect height="11" style="fill:rgb(255,255,255);stroke:none;" width="26" x="283" y="1319"/>
  <text style="fill:rgb(128,128,128);stroke:none;font-size:11px;" x="283" y="1330">KLF9</text>
  <rect height="11" style="fill:rgb(255,255,255);stroke:none;" width="36" x="283" y="1333"/>
  <text style="fill:rgb(128,128,128);stroke:none;font-size:11px;" x="283" y="1344">VPS18</text>
  <rect height="11" style="fill:rgb(255,255,255);stroke:none;" width="37" x="297" y="1347"/>
  <text style="fill:rgb(128,128,128);stroke:none;font-size:11px;" x="297" y="1358">PCSK9</text>
  <rect height="11" style="fill:rgb(255,255,255);stroke:none;" width="31" x="297" y="1361"/>
  <text style="fill:rgb(128,128,128);stroke:none;font-size:11px;" x="297" y="1372">SLIT3</text>
  <rect height="11" style="fill:rgb(255,255,255);stroke:none;" width="43" x="297" y="1375"/>
  <text style="fill:rgb(128,128,128);stroke:none;font-size:11px;" x="297" y="1386">CXCL12</text>
  <rect height="11" style="fill:rgb(255,255,255);stroke:none;" width="23" x="312" y="1389"/>
  <text style="fill:rgb(128,128,128);stroke:none;font-size:11px;" x="312" y="1400">A2M</text>
  <rect height="11" style="fill:rgb(255,255,255);stroke:none;" width="28" x="312" y="1403"/>
  <text style="fill:rgb(128,128,128);stroke:none;font-size:11px;" x="312" y="1414">TP63</text>
  <rect height="11" style="fill:rgb(255,255,255);stroke:none;" width="32" x="312" y="1417"/>
  <text style="fill:rgb(128,128,128);stroke:none;font-size:11px;" x="312" y="1428">SORD</text>
  <rect height="11" style="fill:rgb(255,255,255);stroke:none;" width="36" x="312" y="1431"/>
  <text style="fill:rgb(128,128,128);stroke:none;font-size:11px;" x="312" y="1442">PLCB1</text>
  <rect height="11" style="fill:rgb(255,255,255);stroke:none;" width="40" x="312" y="1445"/>
  <text style="fill:rgb(128,128,128);stroke:none;font-size:11px;" x="312" y="1456">IGFBP7</text>
  <rect height="11" style="fill:rgb(255,255,255);stroke:none;" width="50" x="312" y="1459"/>
  <text style="fill:rgb(128,128,128);stroke:none;font-size:11px;" x="312" y="1470">FAM107A</text>
  <rect height="11" style="fill:rgb(255,255,255);stroke:none;" width="42" x="327" y="1473"/>
  <text style="fill:rgb(128,128,128);stroke:none;font-size:11px;" x="327" y="1484">ATP1A2</text>
  <rect height="11" style="fill:rgb(255,255,255);stroke:none;" width="53" x="327" y="1487"/>
  <text style="fill:rgb(128,128,128);stroke:none;font-size:11px;" x="327" y="1498">CEACAM1</text>
  <rect height="11" style="fill:rgb(255,255,255);stroke:none;" width="50" x="327" y="1501"/>
  <text style="fill:rgb(128,128,128);stroke:none;font-size:11px;" x="327" y="1512">RARRES2</text>
  <rect height="11" style="fill:rgb(255,255,255);stroke:none;" width="30" x="341" y="1515"/>
  <text style="fill:rgb(128,128,128);stroke:none;font-size:11px;" x="341" y="1526">GHRL</text>
</svg>
