<?xml version="1.0" encoding="UTF-8" standalone="no"?>
<!DOCTYPE svg PUBLIC "-//W3C//DTD SVG 1.1//EN" "http://www.w3.org/Graphics/SVG/1.1/DTD/svg11.dtd">
<svg xmlns:xlink="http://www.w3.org/1999/xlink" height="158.74999999999997mm" version="1.1" viewBox="0 0 500 600" width="132.29166666666666mm" x="0mm" y="0mm" xmlns="http://www.w3.org/2000/svg">
  <rect height="1200" style="fill:rgb(255,255,255);stroke:none;" width="1000" x="0" y="0"/>
  <rect height="240" style="fill:rgb(191,191,191);fill-opacity:0.4980392156862745;stroke:none;" width="175" x="225" y="60"/>
  <line style="fill:none;stroke:rgb(63,63,191);stroke-opacity:0.24705882352941178;stroke-miterlimit:10;stroke-linecap:square;" x1="50" x2="50" y1="300" y2="300"/>
  <line style="fill:none;stroke:rgb(63,63,191);stroke-opacity:0.24705882352941178;stroke-miterlimit:10;stroke-linecap:square;" x1="50" x2="64" y1="300" y2="290"/>
  <line style="fill:none;stroke:rgb(63,63,191);stroke-opacity:0.24705882352941178;stroke-miterlimit:10;stroke-linecap:square;" x1="64" x2="79" y1="290" y2="280"/>
  <line style="fill:none;stroke:rgb(63,63,191);stroke-opacity:0.24705882352941178;stroke-miterlimit:10;stroke-linecap:square;" x1="79" x2="93" y1="280" y2="270"/>
  <line style="fill:none;stroke:rgb(63,63,191);stroke-opacity:0.24705882352941178;stroke-miterlimit:10;stroke-linecap:square;" x1="93" x2="108" y1="270" y2="260"/>
  <line style="fill:none;stroke:rgb(63,63,191);stroke-opacity:0.24705882352941178;stroke-miterlimit:10;stroke-linecap:square;" x1="108" x2="122" y1="260" y2="250"/>
  <line style="fill:none;stroke:rgb(63,63,191);stroke-opacity:0.24705882352941178;stroke-miterlimit:10;stroke-linecap:square;" x1="122" x2="137" y1="250" y2="240"/>
  <line style="fill:none;stroke:rgb(63,63,191);stroke-opacity:0.24705882352941178;stroke-miterlimit:10;stroke-linecap:square;" x1="137" x2="152" y1="240" y2="230"/>
  <line style="fill:none;stroke:rgb(63,63,191);stroke-opacity:0.24705882352941178;stroke-miterlimit:10;stroke-linecap:square;" x1="152" x2="166" y1="230" y2="220"/>
  <line style="fill:none;stroke:rgb(63,63,191);stroke-opacity:0.24705882352941178;stroke-miterlimit:10;stroke-linecap:square;" x1="166" x2="181" y1="220" y2="210"/>
  <line style="fill:none;stroke:rgb(63,63,191);stroke-opacity:0.24705882352941178;stroke-miterlimit:10;stroke-linecap:square;" x1="181" x2="195" y1="210" y2="200"/>
  <line style="fill:none;stroke:rgb(63,63,191);stroke-opacity:0.24705882352941178;stroke-miterlimit:10;stroke-linecap:square;" x1="195" x2="210" y1="200" y2="190"/>
  <line style="fill:none;stroke:rgb(63,63,191);stroke-opacity:0.24705882352941178;stroke-miterlimit:10;stroke-linecap:square;" x1="210" x2="225" y1="190" y2="180"/>
  <line style="fill:none;stroke:rgb(63,63,191);stroke-opacity:0.24705882352941178;stroke-miterlimit:10;stroke-linecap:square;" x1="225" x2="239" y1="180" y2="170"/>
  <line style="fill:none;stroke:rgb(63,63,191);stroke-opacity:0.24705882352941178;stroke-miterlimit:10;stroke-linecap:square;" x1="239" x2="254" y1="170" y2="160"/>
  <line style="fill:none;stroke:rgb(63,63,191);stroke-opacity:0.24705882352941178;stroke-miterlimit:10;stroke-linecap:square;" x1="254" x2="268" y1="160" y2="150"/>
  <line style="fill:none;stroke:rgb(63,63,191);stroke-opacity:0.24705882352941178;stroke-miterlimit:10;stroke-linecap:square;" x1="268" x2="283" y1="150" y2="140"/>
  <line style="fill:none;stroke:rgb(63,63,191);stroke-opacity:0.24705882352941178;stroke-miterlimit:10;stroke-linecap:square;" x1="283" x2="297" y1="140" y2="130"/>
  <line style="fill:none;stroke:rgb(63,63,191);stroke-opacity:0.24705882352941178;stroke-miterlimit:10;stroke-linecap:square;" x1="297" x2="312" y1="130" y2="120"/>
  <line style="fill:none;stroke:rgb(63,63,191);stroke-opacity:0.24705882352941178;stroke-miterlimit:10;stroke-linecap:square;" x1="312" x2="327" y1="120" y2="110"/>
  <line style="fill:none;stroke:rgb(63,63,191);stroke-opacity:0.24705882352941178;stroke-miterlimit:10;stroke-linecap:square;" x1="327" x2="341" y1="110" y2="100"/>
  <line style="fill:none;stroke:rgb(63,63,191);stroke-opacity:0.24705882352941178;stroke-miterlimit:10;stroke-linecap:square;" x1="341" x2="356" y1="100" y2="90"/>
  <line style="fill:none;stroke:rgb(63,63,191);stroke-opacity:0.24705882352941178;stroke-miterlimit:10;stroke-linecap:square;" x1="356" x2="370" y1="90" y2="80"/>
  <line style="fill:none;stroke:rgb(63,63,191);stroke-opacity:0.24705882352941178;stroke-miterlimit:10;stroke-linecap:square;" x1="370" x2="385" y1="80" y2="70"/>
  <line style="fill:none;stroke:rgb(63,63,191);stroke-opacity:0.24705882352941178;stroke-miterlimit:10;stroke-linecap:square;" x1="385" x2="400" y1="70" y2="60"/>
  <line style="fill:none;stroke:rgb(63,63,191);stroke-opacity:0.24705882352941178;stroke-miterlimit:10;stroke-linecap:square;" x1="400" x2="400" y1="60" y2="60"/>
  <rect height="3" style="fill:rgb(255,127,0);fill-opacity:0.7490196078431373;stroke:none;" width="4" x="48" y="296"/>
  <line style="fill:none;stroke:rgb(255,127,0);stroke-opacity:0.24705882352941178;stroke-width:2;stroke-miterlimit:10;stroke-linecap:square;" x1="50" x2="50" y1="300" y2="300"/>
  <line style="fill:none;stroke:rgb(255,127,0);stroke-opacity:0.24705882352941178;stroke-width:2;stroke-miterlimit:10;stroke-linecap:square;" x1="50" x2="50" y1="298" y2="298"/>
  <rect height="3" style="fill:rgb(255,127,0);fill-opacity:0.7490196078431373;stroke:none;" width="4" x="62" y="296"/>
  <line style="fill:none;stroke:rgb(255,127,0);stroke-opacity:0.24705882352941178;stroke-width:2;stroke-miterlimit:10;stroke-linecap:square;" x1="50" x2="64" y1="296" y2="296"/>
  <line style="fill:none;stroke:rgb(255,127,0);stroke-opacity:0.24705882352941178;stroke-width:2;stroke-miterlimit:10;stroke-linecap:square;" x1="64" x2="64" y1="294" y2="294"/>
  <rect height="14" style="fill:rgb(255,127,0);fill-opacity:0.7490196078431373;stroke:none;" width="4" x="77" y="285"/>
  <line style="fill:none;stroke:rgb(255,127,0);stroke-opacity:0.24705882352941178;stroke-width:2;stroke-miterlimit:10;stroke-linecap:square;" x1="64" x2="79" y1="292" y2="292"/>
  <line style="fill:none;stroke:rgb(255,127,0);stroke-opacity:0.24705882352941178;stroke-width:2;stroke-miterlimit:10;stroke-linecap:square;" x1="79" x2="79" y1="290" y2="280"/>
  <rect height="10" style="fill:rgb(255,127,0);fill-opacity:0.7490196078431373;stroke:none;" width="4" x="91" y="289"/>
  <line style="fill:none;stroke:rgb(255,127,0);stroke-opacity:0.24705882352941178;stroke-width:2;stroke-miterlimit:10;stroke-linecap:square;" x1="79" x2="93" y1="278" y2="278"/>
  <line style="fill:none;stroke:rgb(255,127,0);stroke-opacity:0.24705882352941178;stroke-width:2;stroke-miterlimit:10;stroke-linecap:square;" x1="93" x2="93" y1="276" y2="270"/>
  <rect height="7" style="fill:rgb(255,127,0);fill-opacity:0.7490196078431373;stroke:none;" width="4" x="106" y="292"/>
  <line style="fill:none;stroke:rgb(255,127,0);stroke-opacity:0.24705882352941178;stroke-width:2;stroke-miterlimit:10;stroke-linecap:square;" x1="93" x2="108" y1="268" y2="268"/>
  <line style="fill:none;stroke:rgb(255,127,0);stroke-opacity:0.24705882352941178;stroke-width:2;stroke-miterlimit:10;stroke-linecap:square;" x1="108" x2="108" y1="266" y2="263"/>
  <rect height="10" style="fill:rgb(255,127,0);fill-opacity:0.7490196078431373;stroke:none;" width="4" x="120" y="289"/>
  <line style="fill:none;stroke:rgb(255,127,0);stroke-opacity:0.24705882352941178;stroke-width:2;stroke-miterlimit:10;stroke-linecap:square;" x1="108" x2="122" y1="261" y2="261"/>
  <line style="fill:none;stroke:rgb(255,127,0);stroke-opacity:0.24705882352941178;stroke-width:2;stroke-miterlimit:10;stroke-linecap:square;" x1="122" x2="122" y1="259" y2="252"/>
  <rect height="7" style="fill:rgb(255,127,0);fill-opacity:0.7490196078431373;stroke:none;" width="4" x="150" y="292"/>
  <line style="fill:none;stroke:rgb(255,127,0);stroke-opacity:0.24705882352941178;stroke-width:2;stroke-miterlimit:10;stroke-linecap:square;" x1="122" x2="152" y1="250" y2="250"/>
  <line style="fill:none;stroke:rgb(255,127,0);stroke-opacity:0.24705882352941178;stroke-width:2;stroke-miterlimit:10;stroke-linecap:square;" x1="152" x2="152" y1="248" y2="245"/>
  <rect height="14" style="fill:rgb(255,127,0);fill-opacity:0.7490196078431373;stroke:none;" width="4" x="164" y="285"/>
  <line style="fill:none;stroke:rgb(255,127,0);stroke-opacity:0.24705882352941178;stroke-width:2;stroke-miterlimit:10;stroke-linecap:square;" x1="152" x2="166" y1="243" y2="243"/>
  <line style="fill:none;stroke:rgb(255,127,0);stroke-opacity:0.24705882352941178;stroke-width:2;stroke-miterlimit:10;stroke-linecap:square;" x1="166" x2="166" y1="241" y2="231"/>
  <rect height="7" style="fill:rgb(255,127,0);fill-opacity:0.7490196078431373;stroke:none;" width="4" x="179" y="292"/>
  <line style="fill:none;stroke:rgb(255,127,0);stroke-opacity:0.24705882352941178;stroke-width:2;stroke-miterlimit:10;stroke-linecap:square;" x1="166" x2="181" y1="229" y2="229"/>
  <line style="fill:none;stroke:rgb(255,127,0);stroke-opacity:0.24705882352941178;stroke-width:2;stroke-miterlimit:10;stroke-linecap:square;" x1="181" x2="181" y1="227" y2="224"/>
  <rect height="7" style="fill:rgb(255,127,0);fill-opacity:0.7490196078431373;stroke:none;" width="4" x="193" y="292"/>
  <line style="fill:none;stroke:rgb(255,127,0);stroke-opacity:0.24705882352941178;stroke-width:2;stroke-miterlimit:10;stroke-linecap:square;" x1="181" x2="195" y1="222" y2="222"/>
  <line style="fill:none;stroke:rgb(255,127,0);stroke-opacity:0.24705882352941178;stroke-width:2;stroke-miterlimit:10;stroke-linecap:square;" x1="195" x2="195" y1="220" y2="217"/>
  <rect height="21" style="fill:rgb(255,127,0);fill-opacity:0.7490196078431373;stroke:none;" width="4" x="208" y="278"/>
  <line style="fill:none;stroke:rgb(255,127,0);stroke-opacity:0.24705882352941178;stroke-width:2;stroke-miterlimit:10;stroke-linecap:square;" x1="195" x2="210" y1="215" y2="215"/>
  <line style="fill:none;stroke:rgb(255,127,0);stroke-opacity:0.24705882352941178;stroke-width:2;stroke-miterlimit:10;stroke-linecap:square;" x1="210" x2="210" y1="213" y2="196"/>
  <rect height="14" style="fill:rgb(255,127,0);fill-opacity:0.7490196078431373;stroke:none;" width="4" x="223" y="285"/>
  <line style="fill:none;stroke:rgb(255,127,0);stroke-opacity:0.24705882352941178;stroke-width:2;stroke-miterlimit:10;stroke-linecap:square;" x1="210" x2="225" y1="194" y2="194"/>
  <line style="fill:none;stroke:rgb(255,127,0);stroke-opacity:0.24705882352941178;stroke-width:2;stroke-miterlimit:10;stroke-linecap:square;" x1="225" x2="225" y1="192" y2="182"/>
  <rect height="31" style="fill:rgb(255,127,0);fill-opacity:0.7490196078431373;stroke:none;" width="4" x="237" y="268"/>
  <line style="fill:none;stroke:rgb(255,127,0);stroke-opacity:0.24705882352941178;stroke-width:2;stroke-miterlimit:10;stroke-linecap:square;" x1="225" x2="239" y1="180" y2="180"/>
  <line style="fill:none;stroke:rgb(255,127,0);stroke-opacity:0.24705882352941178;stroke-width:2;stroke-miterlimit:10;stroke-linecap:square;" x1="239" x2="239" y1="178" y2="150"/>
  <rect height="31" style="fill:rgb(255,127,0);fill-opacity:0.7490196078431373;stroke:none;" width="4" x="252" y="268"/>
  <line style="fill:none;stroke:rgb(255,127,0);stroke-opacity:0.24705882352941178;stroke-width:2;stroke-miterlimit:10;stroke-linecap:square;" x1="239" x2="254" y1="148" y2="148"/>
  <line style="fill:none;stroke:rgb(255,127,0);stroke-opacity:0.24705882352941178;stroke-width:2;stroke-miterlimit:10;stroke-linecap:square;" x1="254" x2="254" y1="146" y2="118"/>
  <rect height="17" style="fill:rgb(255,127,0);fill-opacity:0.7490196078431373;stroke:none;" width="4" x="266" y="282"/>
  <line style="fill:none;stroke:rgb(255,127,0);stroke-opacity:0.24705882352941178;stroke-width:2;stroke-miterlimit:10;stroke-linecap:square;" x1="254" x2="268" y1="116" y2="116"/>
  <line style="fill:none;stroke:rgb(255,127,0);stroke-opacity:0.24705882352941178;stroke-width:2;stroke-miterlimit:10;stroke-linecap:square;" x1="268" x2="268" y1="114" y2="100"/>
  <rect height="7" style="fill:rgb(255,127,0);fill-opacity:0.7490196078431373;stroke:none;" width="4" x="281" y="292"/>
  <line style="fill:none;stroke:rgb(255,127,0);stroke-opacity:0.24705882352941178;stroke-width:2;stroke-miterlimit:10;stroke-linecap:square;" x1="268" x2="283" y1="98" y2="98"/>
  <line style="fill:none;stroke:rgb(255,127,0);stroke-opacity:0.24705882352941178;stroke-width:2;stroke-miterlimit:10;stroke-linecap:square;" x1="283" x2="283" y1="96" y2="93"/>
  <rect height="7" style="fill:rgb(255,127,0);fill-opacity:0.7490196078431373;stroke:none;" width="4" x="295" y="292"/>
  <line style="fill:none;stroke:rgb(255,127,0);stroke-opacity:0.24705882352941178;stroke-width:2;stroke-miterlimit:10;stroke-linecap:square;" x1="283" x2="297" y1="91" y2="91"/>
  <line style="fill:none;stroke:rgb(255,127,0);stroke-opacity:0.24705882352941178;stroke-width:2;stroke-miterlimit:10;stroke-linecap:square;" x1="297" x2="297" y1="89" y2="86"/>
  <rect height="3" style="fill:rgb(255,127,0);fill-opacity:0.7490196078431373;stroke:none;" width="4" x="325" y="296"/>
  <line style="fill:none;stroke:rgb(255,127,0);stroke-opacity:0.24705882352941178;stroke-width:2;stroke-miterlimit:10;stroke-linecap:square;" x1="297" x2="327" y1="84" y2="84"/>
  <line style="fill:none;stroke:rgb(255,127,0);stroke-opacity:0.24705882352941178;stroke-width:2;stroke-miterlimit:10;stroke-linecap:square;" x1="327" x2="327" y1="82" y2="83"/>
  <rect height="10" style="fill:rgb(255,127,0);fill-opacity:0.7490196078431373;stroke:none;" width="4" x="339" y="289"/>
  <line style="fill:none;stroke:rgb(255,127,0);stroke-opacity:0.24705882352941178;stroke-width:2;stroke-miterlimit:10;stroke-linecap:square;" x1="327" x2="341" y1="81" y2="81"/>
  <line style="fill:none;stroke:rgb(255,127,0);stroke-opacity:0.24705882352941178;stroke-width:2;stroke-miterlimit:10;stroke-linecap:square;" x1="341" x2="341" y1="79" y2="72"/>
  <rect height="3" style="fill:rgb(255,127,0);fill-opacity:0.7490196078431373;stroke:none;" width="4" x="368" y="296"/>
  <line style="fill:none;stroke:rgb(255,127,0);stroke-opacity:0.24705882352941178;stroke-width:2;stroke-miterlimit:10;stroke-linecap:square;" x1="341" x2="370" y1="70" y2="70"/>
  <line style="fill:none;stroke:rgb(255,127,0);stroke-opacity:0.24705882352941178;stroke-width:2;stroke-miterlimit:10;stroke-linecap:square;" x1="370" x2="370" y1="68" y2="69"/>
  <rect height="7" style="fill:rgb(255,127,0);fill-opacity:0.7490196078431373;stroke:none;" width="4" x="383" y="292"/>
  <line style="fill:none;stroke:rgb(255,127,0);stroke-opacity:0.24705882352941178;stroke-width:2;stroke-miterlimit:10;stroke-linecap:square;" x1="370" x2="385" y1="67" y2="67"/>
  <line style="fill:none;stroke:rgb(255,127,0);stroke-opacity:0.24705882352941178;stroke-width:2;stroke-miterlimit:10;stroke-linecap:square;" x1="385" x2="385" y1="65" y2="62"/>
  <line style="fill:none;stroke:rgb(255,127,0);stroke-opacity:0.24705882352941178;stroke-width:2;stroke-miterlimit:10;stroke-linecap:square;" x1="385" x2="400" y1="60" y2="60"/>
  <line style="fill:none;stroke:rgb(255,127,0);stroke-opacity:0.4980392156862745;stroke-miterlimit:2;stroke-dasharray:2;" x1="50" x2="50" y1="300" y2="350"/>
  <line style="fill:none;stroke:rgb(255,127,0);stroke-opacity:0.4980392156862745;stroke-miterlimit:2;stroke-dasharray:2;" x1="64" x2="64" y1="300" y2="364"/>
  <line style="fill:none;stroke:rgb(255,127,0);stroke-opacity:0.4980392156862745;stroke-miterlimit:2;stroke-dasharray:2;" x1="79" x2="79" y1="300" y2="378"/>
  <line style="fill:none;stroke:rgb(255,127,0);stroke-opacity:0.4980392156862745;stroke-miterlimit:2;stroke-dasharray:2;" x1="79" x2="79" y1="300" y2="392"/>
  <line style="fill:none;stroke:rgb(255,127,0);stroke-opacity:0.4980392156862745;stroke-miterlimit:2;stroke-dasharray:2;" x1="79" x2="79" y1="300" y2="406"/>
  <line style="fill:none;stroke:rgb(255,127,0);stroke-opacity:0.4980392156862745;stroke-miterlimit:2;stroke-dasharray:2;" x1="79" x2="79" y1="300" y2="420"/>
  <line style="fill:none;stroke:rgb(255,127,0);stroke-opacity:0.4980392156862745;stroke-miterlimit:2;stroke-dasharray:2;" x1="93" x2="93" y1="300" y2="434"/>
  <line style="fill:none;stroke:rgb(255,127,0);stroke-opacity:0.4980392156862745;stroke-miterlimit:2;stroke-dasharray:2;" x1="93" x2="93" y1="300" y2="448"/>
  <line style="fill:none;stroke:rgb(255,127,0);stroke-opacity:0.4980392156862745;stroke-miterlimit:2;stroke-dasharray:2;" x1="93" x2="93" y1="300" y2="462"/>
  <line style="fill:none;stroke:rgb(255,127,0);stroke-opacity:0.4980392156862745;stroke-miterlimit:2;stroke-dasharray:2;" x1="108" x2="108" y1="300" y2="476"/>
  <line style="fill:none;stroke:rgb(255,127,0);stroke-opacity:0.4980392156862745;stroke-miterlimit:2;stroke-dasharray:2;" x1="108" x2="108" y1="300" y2="490"/>
  <line style="fill:none;stroke:rgb(255,127,0);stroke-opacity:0.4980392156862745;stroke-miterlimit:2;stroke-dasharray:2;" x1="122" x2="122" y1="300" y2="504"/>
  <line style="fill:none;stroke:rgb(255,127,0);stroke-opacity:0.4980392156862745;stroke-miterlimit:2;stroke-dasharray:2;" x1="122" x2="122" y1="300" y2="518"/>
  <line style="fill:none;stroke:rgb(255,127,0);stroke-opacity:0.4980392156862745;stroke-miterlimit:2;stroke-dasharray:2;" x1="122" x2="122" y1="300" y2="532"/>
  <line style="fill:none;stroke:rgb(255,127,0);stroke-opacity:0.4980392156862745;stroke-miterlimit:2;stroke-dasharray:2;" x1="152" x2="152" y1="300" y2="546"/>
  <line style="fill:none;stroke:rgb(255,127,0);stroke-opacity:0.4980392156862745;stroke-miterlimit:2;stroke-dasharray:2;" x1="152" x2="152" y1="300" y2="560"/>
  <line style="fill:none;stroke:rgb(255,127,0);stroke-opacity:0.4980392156862745;stroke-miterlimit:2;stroke-dasharray:2;" x1="166" x2="166" y1="300" y2="574"/>
  <line style="fill:none;stroke:rgb(255,127,0);stroke-opacity:0.4980392156862745;stroke-miterlimit:2;stroke-dasharray:2;" x1="166" x2="166" y1="300" y2="588"/>
  <line style="fill:none;stroke:rgb(255,127,0);stroke-opacity:0.4980392156862745;stroke-miterlimit:2;stroke-dasharray:2;" x1="166" x2="166" y1="300" y2="602"/>
  <line style="fill:none;stroke:rgb(255,127,0);stroke-opacity:0.4980392156862745;stroke-miterlimit:2;stroke-dasharray:2;" x1="166" x2="166" y1="300" y2="616"/>
  <line style="fill:none;stroke:rgb(255,127,0);stroke-opacity:0.4980392156862745;stroke-miterlimit:2;stroke-dasharray:2;" x1="181" x2="181" y1="300" y2="630"/>
  <line style="fill:none;stroke:rgb(255,127,0);stroke-opacity:0.4980392156862745;stroke-miterlimit:2;stroke-dasharray:2;" x1="181" x2="181" y1="300" y2="644"/>
  <line style="fill:none;stroke:rgb(255,127,0);stroke-opacity:0.4980392156862745;stroke-miterlimit:2;stroke-dasharray:2;" x1="195" x2="195" y1="300" y2="658"/>
  <line style="fill:none;stroke:rgb(255,127,0);stroke-opacity:0.4980392156862745;stroke-miterlimit:2;stroke-dasharray:2;" x1="195" x2="195" y1="300" y2="672"/>
  <line style="fill:none;stroke:rgb(255,127,0);stroke-opacity:0.4980392156862745;stroke-miterlimit:2;stroke-dasharray:2;" x1="210" x2="210" y1="300" y2="687"/>
  <line style="fill:none;stroke:rgb(255,127,0);stroke-opacity:0.4980392156862745;stroke-miterlimit:2;stroke-dasharray:2;" x1="210" x2="210" y1="300" y2="702"/>
  <line style="fill:none;stroke:rgb(255,127,0);stroke-opacity:0.4980392156862745;stroke-miterlimit:2;stroke-dasharray:2;" x1="210" x2="210" y1="300" y2="717"/>
  <line style="fill:none;stroke:rgb(255,127,0);stroke-opacity:0.4980392156862745;stroke-miterlimit:2;stroke-dasharray:2;" x1="210" x2="210" y1="300" y2="732"/>
  <line style="fill:none;stroke:rgb(255,127,0);stroke-opacity:0.4980392156862745;stroke-miterlimit:2;stroke-dasharray:2;" x1="210" x2="210" y1="300" y2="747"/>
  <line style="fill:none;stroke:rgb(255,127,0);stroke-opacity:0.4980392156862745;stroke-miterlimit:2;stroke-dasharray:2;" x1="210" x2="210" y1="300" y2="762"/>
  <line style="fill:none;stroke:rgb(255,127,0);stroke-opacity:0.4980392156862745;stroke-miterlimit:2;stroke-dasharray:2;" x1="225" x2="225" y1="300" y2="777"/>
  <line style="fill:none;stroke:rgb(255,127,0);stroke-opacity:0.4980392156862745;stroke-miterlimit:2;stroke-dasharray:2;" x1="225" x2="225" y1="300" y2="792"/>
  <line style="fill:none;stroke:rgb(255,127,0);stroke-opacity:0.4980392156862745;stroke-miterlimit:2;stroke-dasharray:2;" x1="225" x2="225" y1="300" y2="807"/>
  <line style="fill:none;stroke:rgb(255,127,0);stroke-opacity:0.4980392156862745;stroke-miterlimit:2;stroke-dasharray:2;" x1="225" x2="225" y1="300" y2="822"/>
  <line style="fill:none;stroke:rgb(255,127,0);stroke-opacity:0.4980392156862745;stroke-miterlimit:2;stroke-dasharray:2;" x1="239" x2="239" y1="300" y2="837"/>
  <line style="fill:none;stroke:rgb(255,127,0);stroke-opacity:0.4980392156862745;stroke-miterlimit:2;stroke-dasharray:2;" x1="239" x2="239" y1="300" y2="852"/>
  <line style="fill:none;stroke:rgb(255,127,0);stroke-opacity:0.4980392156862745;stroke-miterlimit:2;stroke-dasharray:2;" x1="239" x2="239" y1="300" y2="867"/>
  <line style="fill:none;stroke:rgb(255,127,0);stroke-opacity:0.4980392156862745;stroke-miterlimit:2;stroke-dasharray:2;" x1="239" x2="239" y1="300" y2="882"/>
  <line style="fill:none;stroke:rgb(255,127,0);stroke-opacity:0.4980392156862745;stroke-miterlimit:2;stroke-dasharray:2;" x1="239" x2="239" y1="300" y2="897"/>
  <line style="fill:none;stroke:rgb(255,127,0);stroke-opacity:0.4980392156862745;stroke-miterlimit:2;stroke-dasharray:2;" x1="239" x2="239" y1="300" y2="912"/>
  <line style="fill:none;stroke:rgb(255,127,0);stroke-opacity:0.4980392156862745;stroke-miterlimit:2;stroke-dasharray:2;" x1="239" x2="239" y1="300" y2="927"/>
  <line style="fill:none;stroke:rgb(255,127,0);stroke-opacity:0.4980392156862745;stroke-miterlimit:2;stroke-dasharray:2;" x1="239" x2="239" y1="300" y2="942"/>
  <line style="fill:none;stroke:rgb(255,127,0);stroke-opacity:0.4980392156862745;stroke-miterlimit:2;stroke-dasharray:2;" x1="239" x2="239" y1="300" y2="957"/>
  <line style="fill:none;stroke:rgb(255,127,0);stroke-opacity:0.4980392156862745;stroke-miterlimit:2;stroke-dasharray:2;" x1="254" x2="254" y1="300" y2="972"/>
  <line style="fill:none;stroke:rgb(255,127,0);stroke-opacity:0.4980392156862745;stroke-miterlimit:2;stroke-dasharray:2;" x1="254" x2="254" y1="300" y2="987"/>
  <line style="fill:none;stroke:rgb(255,127,0);stroke-opacity:0.4980392156862745;stroke-miterlimit:2;stroke-dasharray:2;" x1="254" x2="254" y1="300" y2="1002"/>
  <line style="fill:none;stroke:rgb(255,127,0);stroke-opacity:0.4980392156862745;stroke-miterlimit:2;stroke-dasharray:2;" x1="254" x2="254" y1="300" y2="1017"/>
  <line style="fill:none;stroke:rgb(255,127,0);stroke-opacity:0.4980392156862745;stroke-miterlimit:2;stroke-dasharray:2;" x1="254" x2="254" y1="300" y2="1032"/>
  <line style="fill:none;stroke:rgb(255,127,0);stroke-opacity:0.4980392156862745;stroke-miterlimit:2;stroke-dasharray:2;" x1="254" x2="254" y1="300" y2="1047"/>
  <line style="fill:none;stroke:rgb(255,127,0);stroke-opacity:0.4980392156862745;stroke-miterlimit:2;stroke-dasharray:2;" x1="254" x2="254" y1="300" y2="1062"/>
  <line style="fill:none;stroke:rgb(255,127,0);stroke-opacity:0.4980392156862745;stroke-miterlimit:2;stroke-dasharray:2;" x1="254" x2="254" y1="300" y2="1077"/>
  <line style="fill:none;stroke:rgb(255,127,0);stroke-opacity:0.4980392156862745;stroke-miterlimit:2;stroke-dasharray:2;" x1="254" x2="254" y1="300" y2="1092"/>
  <line style="fill:none;stroke:rgb(255,127,0);stroke-opacity:0.4980392156862745;stroke-miterlimit:2;stroke-dasharray:2;" x1="268" x2="268" y1="300" y2="1107"/>
  <line style="fill:none;stroke:rgb(255,127,0);stroke-opacity:0.4980392156862745;stroke-miterlimit:2;stroke-dasharray:2;" x1="268" x2="268" y1="300" y2="1122"/>
  <line style="fill:none;stroke:rgb(255,127,0);stroke-opacity:0.4980392156862745;stroke-miterlimit:2;stroke-dasharray:2;" x1="268" x2="268" y1="300" y2="1137"/>
  <line style="fill:none;stroke:rgb(255,127,0);stroke-opacity:0.4980392156862745;stroke-miterlimit:2;stroke-dasharray:2;" x1="268" x2="268" y1="300" y2="1152"/>
  <line style="fill:none;stroke:rgb(255,127,0);stroke-opacity:0.4980392156862745;stroke-miterlimit:2;stroke-dasharray:2;" x1="268" x2="268" y1="300" y2="1167"/>
  <line style="fill:none;stroke:rgb(255,127,0);stroke-opacity:0.4980392156862745;stroke-miterlimit:2;stroke-dasharray:2;" x1="283" x2="283" y1="300" y2="1181"/>
  <line style="fill:none;stroke:rgb(255,127,0);stroke-opacity:0.4980392156862745;stroke-miterlimit:2;stroke-dasharray:2;" x1="283" x2="283" y1="300" y2="1195"/>
  <line style="fill:none;stroke:rgb(255,127,0);stroke-opacity:0.4980392156862745;stroke-miterlimit:2;stroke-dasharray:2;" x1="297" x2="297" y1="300" y2="1209"/>
  <line style="fill:none;stroke:rgb(255,127,0);stroke-opacity:0.4980392156862745;stroke-miterlimit:2;stroke-dasharray:2;" x1="297" x2="297" y1="300" y2="1223"/>
  <line style="fill:none;stroke:rgb(255,127,0);stroke-opacity:0.4980392156862745;stroke-miterlimit:2;stroke-dasharray:2;" x1="327" x2="327" y1="300" y2="1237"/>
  <line style="fill:none;stroke:rgb(255,127,0);stroke-opacity:0.4980392156862745;stroke-miterlimit:2;stroke-dasharray:2;" x1="341" x2="341" y1="300" y2="1251"/>
  <line style="fill:none;stroke:rgb(255,127,0);stroke-opacity:0.4980392156862745;stroke-miterlimit:2;stroke-dasharray:2;" x1="341" x2="341" y1="300" y2="1265"/>
  <line style="fill:none;stroke:rgb(255,127,0);stroke-opacity:0.4980392156862745;stroke-miterlimit:2;stroke-dasharray:2;" x1="341" x2="341" y1="300" y2="1279"/>
  <line style="fill:none;stroke:rgb(255,127,0);stroke-opacity:0.4980392156862745;stroke-miterlimit:2;stroke-dasharray:2;" x1="370" x2="370" y1="300" y2="1293"/>
  <line style="fill:none;stroke:rgb(255,127,0);stroke-opacity:0.4980392156862745;stroke-miterlimit:2;stroke-dasharray:2;" x1="385" x2="385" y1="300" y2="1307"/>
  <line style="fill:none;stroke:rgb(255,127,0);stroke-opacity:0.4980392156862745;stroke-miterlimit:2;stroke-dasharray:2;" x1="385" x2="385" y1="300" y2="1321"/>
  <line style="fill:none;stroke:rgb(0,0,0);stroke-width:2;stroke-miterlimit:10;stroke-linecap:square;" x1="48" x2="48" y1="60" y2="300"/>
  <line style="fill:none;stroke:rgb(0,0,0);stroke-width:2;stroke-miterlimit:10;stroke-linecap:square;" x1="48" x2="402" y1="300" y2="300"/>
  <rect height="30" style="fill:rgb(255,255,255);stroke:none;" width="17" x="42" y="308"/>
  <text style="fill:rgb(0,0,0);stroke:none;font-size:25px;font-weight:bold;" x="42" y="332">0</text>
  <rect height="30" style="fill:rgb(255,255,255);stroke:none;" width="34" x="383" y="308"/>
  <text style="fill:rgb(0,0,0);stroke:none;font-size:25px;font-weight:bold;" x="383" y="332">24</text>
  <text style="fill:rgb(0,0,0);stroke:none;font-size:25px;font-weight:bold;" x="25" y="312">0</text>
  <text style="fill:rgb(0,0,0);stroke:none;font-size:25px;font-weight:bold;" x="25" y="72">1</text>
  <text style="fill:rgb(0,0,0);stroke:none;font-size:22px;font-weight:bold;" x="5" y="40">GOBP_IMMUNE_SYSTEM_DEVELOPMENT</text>
  <rect height="11" style="fill:rgb(255,255,255);stroke:none;" width="42" x="50" y="339"/>
  <text style="fill:rgb(128,128,128);stroke:none;font-size:11px;" x="50" y="350">LRRC17</text>
  <rect height="11" style="fill:rgb(255,255,255);stroke:none;" width="43" x="64" y="353"/>
  <text style="fill:rgb(128,128,128);stroke:none;font-size:11px;" x="64" y="364">SH3RF1</text>
  <rect height="11" style="fill:rgb(255,255,255);stroke:none;" width="26" x="79" y="367"/>
  <text style="fill:rgb(128,128,128);stroke:none;font-size:11px;" x="79" y="378">ITCH</text>
  <rect height="11" style="fill:rgb(255,255,255);stroke:none;" width="32" x="79" y="381"/>
  <text style="fill:rgb(128,128,128);stroke:none;font-size:11px;" x="79" y="392">C1QC</text>
  <rect height="11" style="fill:rgb(255,255,255);stroke:none;" width="35" x="79" y="395"/>
  <text style="fill:rgb(128,128,128);stroke:none;font-size:11px;" x="79" y="406">RNF41</text>
  <rect height="11" style="fill:rgb(255,255,255);stroke:none;" width="44" x="79" y="409"/>
  <text style="fill:rgb(128,128,128);stroke:none;font-size:11px;" x="79" y="420">TGFBR2</text>
  <rect height="11" style="fill:rgb(255,255,255);stroke:none;" width="30" x="93" y="423"/>
  <text style="fill:rgb(128,128,128);stroke:none;font-size:11px;" x="93" y="434">ROR2</text>
  <rect height="11" style="fill:rgb(255,255,255);stroke:none;" width="29" x="93" y="437"/>
  <text style="fill:rgb(128,128,128);stroke:none;font-size:11px;" x="93" y="448">TBX1</text>
  <rect height="11" style="fill:rgb(255,255,255);stroke:none;" width="56" x="93" y="451"/>
  <text style="fill:rgb(128,128,128);stroke:none;font-size:11px;" x="93" y="462">CTNNBIP1</text>
  <rect height="11" style="fill:rgb(255,255,255);stroke:none;" width="24" x="108" y="465"/>
  <text style="fill:rgb(128,128,128);stroke:none;font-size:11px;" x="108" y="476">MYB</text>
  <rect height="11" style="fill:rgb(255,255,255);stroke:none;" width="36" x="108" y="479"/>
  <text style="fill:rgb(128,128,128);stroke:none;font-size:11px;" x="108" y="490">VEGFA</text>
  <rect height="11" style="fill:rgb(255,255,255);stroke:none;" width="30" x="122" y="493"/>
  <text style="fill:rgb(128,128,128);stroke:none;font-size:11px;" x="122" y="504">FZD5</text>
  <rect height="11" style="fill:rgb(255,255,255);stroke:none;" width="32" x="122" y="507"/>
  <text style="fill:rgb(128,128,128);stroke:none;font-size:11px;" x="122" y="518">CRIP2</text>
  <rect height="11" style="fill:rgb(255,255,255);stroke:none;" width="60" x="122" y="521"/>
  <text style="fill:rgb(128,128,128);stroke:none;font-size:11px;" x="122" y="532">PPARGC1B</text>
  <rect height="11" style="fill:rgb(255,255,255);stroke:none;" width="28" x="152" y="535"/>
  <text style="fill:rgb(128,128,128);stroke:none;font-size:11px;" x="152" y="546">TFRC</text>
  <rect height="11" style="fill:rgb(255,255,255);stroke:none;" width="37" x="152" y="549"/>
  <text style="fill:rgb(128,128,128);stroke:none;font-size:11px;" x="152" y="560">TGFB1</text>
  <rect height="11" style="fill:rgb(255,255,255);stroke:none;" width="26" x="166" y="563"/>
  <text style="fill:rgb(128,128,128);stroke:none;font-size:11px;" x="166" y="574">CIB1</text>
  <rect height="11" style="fill:rgb(255,255,255);stroke:none;" width="23" x="166" y="577"/>
  <text style="fill:rgb(128,128,128);stroke:none;font-size:11px;" x="166" y="588">IL4R</text>
  <rect height="11" style="fill:rgb(255,255,255);stroke:none;" width="30" x="166" y="591"/>
  <text style="fill:rgb(128,128,128);stroke:none;font-size:11px;" x="166" y="602">EGR1</text>
  <rect height="11" style="fill:rgb(255,255,255);stroke:none;" width="29" x="166" y="605"/>
  <text style="fill:rgb(128,128,128);stroke:none;font-size:11px;" x="166" y="616">BCL3</text>
  <rect height="11" style="fill:rgb(255,255,255);stroke:none;" width="27" x="181" y="619"/>
  <text style="fill:rgb(128,128,128);stroke:none;font-size:11px;" x="181" y="630">JUNB</text>
  <rect height="11" style="fill:rgb(255,255,255);stroke:none;" width="45" x="181" y="633"/>
  <text style="fill:rgb(128,128,128);stroke:none;font-size:11px;" x="181" y="644">DNASE2</text>
  <rect height="11" style="fill:rgb(255,255,255);stroke:none;" width="28" x="195" y="647"/>
  <text style="fill:rgb(128,128,128);stroke:none;font-size:11px;" x="195" y="658">FLCN</text>
  <rect height="11" style="fill:rgb(255,255,255);stroke:none;" width="36" x="195" y="661"/>
  <text style="fill:rgb(128,128,128);stroke:none;font-size:11px;" x="195" y="672">NR4A3</text>
  <rect height="12" style="fill:rgb(255,255,255);stroke:none;" width="23" x="210" y="675"/>
  <text style="fill:rgb(128,128,128);stroke:none;" x="210" y="687">TNF</text>
  <rect height="12" style="fill:rgb(255,255,255);stroke:none;" width="33" x="210" y="690"/>
  <text style="fill:rgb(128,128,128);stroke:none;" x="210" y="702">LMO4</text>
  <rect height="12" style="fill:rgb(255,255,255);stroke:none;" width="33" x="210" y="705"/>
  <text style="fill:rgb(128,128,128);stroke:none;" x="210" y="717">HES5</text>
  <rect height="12" style="fill:rgb(255,255,255);stroke:none;" width="46" x="210" y="720"/>
  <text style="fill:rgb(128,128,128);stroke:none;" x="210" y="732">LMBR1L</text>
  <rect height="12" style="fill:rgb(255,255,255);stroke:none;" width="48" x="210" y="735"/>
  <text style="fill:rgb(128,128,128);stroke:none;" x="210" y="747">PTGER4</text>
  <rect height="12" style="fill:rgb(255,255,255);stroke:none;" width="49" x="210" y="750"/>
  <text style="fill:rgb(128,128,128);stroke:none;" x="210" y="762">CDKN2B</text>
  <rect height="12" style="fill:rgb(255,255,255);stroke:none;" width="23" x="225" y="765"/>
  <text style="fill:rgb(128,128,128);stroke:none;" x="225" y="777">FES</text>
  <rect height="12" style="fill:rgb(255,255,255);stroke:none;" width="33" x="225" y="780"/>
  <text style="fill:rgb(128,128,128);stroke:none;" x="225" y="792">CD83</text>
  <rect height="12" style="fill:rgb(255,255,255);stroke:none;" width="34" x="225" y="795"/>
  <text style="fill:rgb(128,128,128);stroke:none;" x="225" y="807">RIPK3</text>
  <rect height="12" style="fill:rgb(255,255,255);stroke:none;" width="52" x="225" y="810"/>
  <text style="fill:rgb(128,128,128);stroke:none;" x="225" y="822">BCL2L11</text>
  <rect height="12" style="fill:rgb(255,255,255);stroke:none;" width="26" x="239" y="825"/>
  <text style="fill:rgb(128,128,128);stroke:none;" x="239" y="837">IRF7</text>
  <rect height="12" style="fill:rgb(255,255,255);stroke:none;" width="30" x="239" y="840"/>
  <text style="fill:rgb(128,128,128);stroke:none;" x="239" y="852">TCTA</text>
  <rect height="12" style="fill:rgb(255,255,255);stroke:none;" width="28" x="239" y="855"/>
  <text style="fill:rgb(128,128,128);stroke:none;" x="239" y="867">KLF2</text>
  <rect height="12" style="fill:rgb(255,255,255);stroke:none;" width="42" x="239" y="870"/>
  <text style="fill:rgb(128,128,128);stroke:none;" x="239" y="882">HDAC5</text>
  <rect height="12" style="fill:rgb(255,255,255);stroke:none;" width="39" x="239" y="885"/>
  <text style="fill:rgb(128,128,128);stroke:none;" x="239" y="897">CSF1R</text>
  <rect height="12" style="fill:rgb(255,255,255);stroke:none;" width="42" x="239" y="900"/>
  <text style="fill:rgb(128,128,128);stroke:none;" x="239" y="912">HSPD1</text>
  <rect height="12" style="fill:rgb(255,255,255);stroke:none;" width="39" x="239" y="915"/>
  <text style="fill:rgb(128,128,128);stroke:none;" x="239" y="927">IL1RL2</text>
  <rect height="12" style="fill:rgb(255,255,255);stroke:none;" width="55" x="239" y="930"/>
  <text style="fill:rgb(128,128,128);stroke:none;" x="239" y="942">DCLRE1C</text>
  <rect height="12" style="fill:rgb(255,255,255);stroke:none;" width="53" x="239" y="945"/>
  <text style="fill:rgb(128,128,128);stroke:none;" x="239" y="957">L3MBTL1</text>
  <rect height="12" style="fill:rgb(255,255,255);stroke:none;" width="25" x="254" y="960"/>
  <text style="fill:rgb(128,128,128);stroke:none;" x="254" y="972">ADA</text>
  <rect height="12" style="fill:rgb(255,255,255);stroke:none;" width="32" x="254" y="975"/>
  <text style="fill:rgb(128,128,128);stroke:none;" x="254" y="987">NFE2</text>
  <rect height="12" style="fill:rgb(255,255,255);stroke:none;" width="40" x="254" y="990"/>
  <text style="fill:rgb(128,128,128);stroke:none;" x="254" y="1002">CASP9</text>
  <rect height="12" style="fill:rgb(255,255,255);stroke:none;" width="34" x="254" y="1005"/>
  <text style="fill:rgb(128,128,128);stroke:none;" x="254" y="1017">ITFG2</text>
  <rect height="12" style="fill:rgb(255,255,255);stroke:none;" width="49" x="254" y="1020"/>
  <text style="fill:rgb(128,128,128);stroke:none;" x="254" y="1032">GPR171</text>
  <rect height="12" style="fill:rgb(255,255,255);stroke:none;" width="48" x="254" y="1035"/>
  <text style="fill:rgb(128,128,128);stroke:none;" x="254" y="1047">PKNOX1</text>
  <rect height="12" style="fill:rgb(255,255,255);stroke:none;" width="47" x="254" y="1050"/>
  <text style="fill:rgb(128,128,128);stroke:none;" x="254" y="1062">SLAMF8</text>
  <rect height="12" style="fill:rgb(255,255,255);stroke:none;" width="46" x="254" y="1065"/>
  <text style="fill:rgb(128,128,128);stroke:none;" x="254" y="1077">MPIG6B</text>
  <rect height="12" style="fill:rgb(255,255,255);stroke:none;" width="54" x="254" y="1080"/>
  <text style="fill:rgb(128,128,128);stroke:none;" x="254" y="1092">CBFA2T3</text>
  <rect height="12" style="fill:rgb(255,255,255);stroke:none;" width="24" x="268" y="1095"/>
  <text style="fill:rgb(128,128,128);stroke:none;" x="268" y="1107">CA2</text>
  <rect height="12" style="fill:rgb(255,255,255);stroke:none;" width="39" x="268" y="1110"/>
  <text style="fill:rgb(128,128,128);stroke:none;" x="268" y="1122">TYRO3</text>
  <rect height="12" style="fill:rgb(255,255,255);stroke:none;" width="42" x="268" y="1125"/>
  <text style="fill:rgb(128,128,128);stroke:none;" x="268" y="1137">PDCD2</text>
  <rect height="12" style="fill:rgb(255,255,255);stroke:none;" width="51" x="268" y="1140"/>
  <text style="fill:rgb(128,128,128);stroke:none;" x="268" y="1152">WNT10B</text>
  <rect height="12" style="fill:rgb(255,255,255);stroke:none;" width="55" x="268" y="1155"/>
  <text style="fill:rgb(128,128,128);stroke:none;" x="268" y="1167">TP53BP1</text>
  <rect height="11" style="fill:rgb(255,255,255);stroke:none;" width="29" x="283" y="1170"/>
  <text style="fill:rgb(128,128,128);stroke:none;font-size:11px;" x="283" y="1181">ZFAT</text>
  <rect height="11" style="fill:rgb(255,255,255);stroke:none;" width="47" x="283" y="1184"/>
  <text style="fill:rgb(128,128,128);stroke:none;font-size:11px;" x="283" y="1195">NOTCH4</text>
  <rect height="11" style="fill:rgb(255,255,255);stroke:none;" width="39" x="297" y="1198"/>
  <text style="fill:rgb(128,128,128);stroke:none;font-size:11px;" x="297" y="1209">MTURN</text>
  <rect height="11" style="fill:rgb(255,255,255);stroke:none;" width="44" x="297" y="1212"/>
  <text style="fill:rgb(128,128,128);stroke:none;font-size:11px;" x="297" y="1223">PDGFRA</text>
  <rect height="11" style="fill:rgb(255,255,255);stroke:none;" width="46" x="327" y="1226"/>
  <text style="fill:rgb(128,128,128);stroke:none;font-size:11px;" x="327" y="1237">ZBTB16</text>
  <rect height="11" style="fill:rgb(255,255,255);stroke:none;" width="21" x="341" y="1240"/>
  <text style="fill:rgb(128,128,128);stroke:none;font-size:11px;" x="341" y="1251">TEK</text>
  <rect height="11" style="fill:rgb(255,255,255);stroke:none;" width="30" x="341" y="1254"/>
  <text style="fill:rgb(128,128,128);stroke:none;font-size:11px;" x="341" y="1265">CD86</text>
  <rect height="11" style="fill:rgb(255,255,255);stroke:none;" width="46" x="341" y="1268"/>
  <text style="fill:rgb(128,128,128);stroke:none;font-size:11px;" x="341" y="1279">TMEM98</text>
  <rect height="11" style="fill:rgb(255,255,255);stroke:none;" width="29" x="370" y="1282"/>
  <text style="fill:rgb(128,128,128);stroke:none;font-size:11px;" x="370" y="1293">BCL6</text>
  <rect height="11" style="fill:rgb(255,255,255);stroke:none;" width="30" x="385" y="1296"/>
  <text style="fill:rgb(128,128,128);stroke:none;font-size:11px;" x="385" y="1307">CD34</text>
  <rect height="11" style="fill:rgb(255,255,255);stroke:none;" width="26" x="385" y="1310"/>
  <text style="fill:rgb(128,128,128);stroke:none;font-size:11px;" x="385" y="1321">KLF4</text>
</svg>
