<?xml version="1.0" encoding="UTF-8" standalone="no"?>
<!DOCTYPE svg PUBLIC "-//W3C//DTD SVG 1.1//EN" "http://www.w3.org/Graphics/SVG/1.1/DTD/svg11.dtd">
<svg xmlns:xlink="http://www.w3.org/1999/xlink" height="158.74999999999997mm" version="1.1" viewBox="0 0 500 600" width="132.29166666666666mm" x="0mm" y="0mm" xmlns="http://www.w3.org/2000/svg">
  <rect height="1200" style="fill:rgb(255,255,255);stroke:none;" width="1000" x="0" y="0"/>
  <rect height="240" style="fill:rgb(191,191,191);fill-opacity:0.4980392156862745;stroke:none;" width="175" x="225" y="60"/>
  <line style="fill:none;stroke:rgb(63,63,191);stroke-opacity:0.24705882352941178;stroke-miterlimit:10;stroke-linecap:square;" x1="50" x2="50" y1="300" y2="300"/>
  <line style="fill:none;stroke:rgb(63,63,191);stroke-opacity:0.24705882352941178;stroke-miterlimit:10;stroke-linecap:square;" x1="50" x2="64" y1="300" y2="290"/>
  <line style="fill:none;stroke:rgb(63,63,191);stroke-opacity:0.24705882352941178;stroke-miterlimit:10;stroke-linecap:square;" x1="64" x2="79" y1="290" y2="280"/>
  <line style="fill:none;stroke:rgb(63,63,191);stroke-opacity:0.24705882352941178;stroke-miterlimit:10;stroke-linecap:square;" x1="79" x2="93" y1="280" y2="270"/>
  <line style="fill:none;stroke:rgb(63,63,191);stroke-opacity:0.24705882352941178;stroke-miterlimit:10;stroke-linecap:square;" x1="93" x2="108" y1="270" y2="260"/>
  <line style="fill:none;stroke:rgb(63,63,191);stroke-opacity:0.24705882352941178;stroke-miterlimit:10;stroke-linecap:square;" x1="108" x2="122" y1="260" y2="250"/>
  <line style="fill:none;stroke:rgb(63,63,191);stroke-opacity:0.24705882352941178;stroke-miterlimit:10;stroke-linecap:square;" x1="122" x2="137" y1="250" y2="240"/>
  <line style="fill:none;stroke:rgb(63,63,191);stroke-opacity:0.24705882352941178;stroke-miterlimit:10;stroke-linecap:square;" x1="137" x2="152" y1="240" y2="230"/>
  <line style="fill:none;stroke:rgb(63,63,191);stroke-opacity:0.24705882352941178;stroke-miterlimit:10;stroke-linecap:square;" x1="152" x2="166" y1="230" y2="220"/>
  <line style="fill:none;stroke:rgb(63,63,191);stroke-opacity:0.24705882352941178;stroke-miterlimit:10;stroke-linecap:square;" x1="166" x2="181" y1="220" y2="210"/>
  <line style="fill:none;stroke:rgb(63,63,191);stroke-opacity:0.24705882352941178;stroke-miterlimit:10;stroke-linecap:square;" x1="181" x2="195" y1="210" y2="200"/>
  <line style="fill:none;stroke:rgb(63,63,191);stroke-opacity:0.24705882352941178;stroke-miterlimit:10;stroke-linecap:square;" x1="195" x2="210" y1="200" y2="190"/>
  <line style="fill:none;stroke:rgb(63,63,191);stroke-opacity:0.24705882352941178;stroke-miterlimit:10;stroke-linecap:square;" x1="210" x2="225" y1="190" y2="180"/>
  <line style="fill:none;stroke:rgb(63,63,191);stroke-opacity:0.24705882352941178;stroke-miterlimit:10;stroke-linecap:square;" x1="225" x2="239" y1="180" y2="170"/>
  <line style="fill:none;stroke:rgb(63,63,191);stroke-opacity:0.24705882352941178;stroke-miterlimit:10;stroke-linecap:square;" x1="239" x2="254" y1="170" y2="160"/>
  <line style="fill:none;stroke:rgb(63,63,191);stroke-opacity:0.24705882352941178;stroke-miterlimit:10;stroke-linecap:square;" x1="254" x2="268" y1="160" y2="150"/>
  <line style="fill:none;stroke:rgb(63,63,191);stroke-opacity:0.24705882352941178;stroke-miterlimit:10;stroke-linecap:square;" x1="268" x2="283" y1="150" y2="140"/>
  <line style="fill:none;stroke:rgb(63,63,191);stroke-opacity:0.24705882352941178;stroke-miterlimit:10;stroke-linecap:square;" x1="283" x2="297" y1="140" y2="130"/>
  <line style="fill:none;stroke:rgb(63,63,191);stroke-opacity:0.24705882352941178;stroke-miterlimit:10;stroke-linecap:square;" x1="297" x2="312" y1="130" y2="120"/>
  <line style="fill:none;stroke:rgb(63,63,191);stroke-opacity:0.24705882352941178;stroke-miterlimit:10;stroke-linecap:square;" x1="312" x2="327" y1="120" y2="110"/>
  <line style="fill:none;stroke:rgb(63,63,191);stroke-opacity:0.24705882352941178;stroke-miterlimit:10;stroke-linecap:square;" x1="327" x2="341" y1="110" y2="100"/>
  <line style="fill:none;stroke:rgb(63,63,191);stroke-opacity:0.24705882352941178;stroke-miterlimit:10;stroke-linecap:square;" x1="341" x2="356" y1="100" y2="90"/>
  <line style="fill:none;stroke:rgb(63,63,191);stroke-opacity:0.24705882352941178;stroke-miterlimit:10;stroke-linecap:square;" x1="356" x2="370" y1="90" y2="80"/>
  <line style="fill:none;stroke:rgb(63,63,191);stroke-opacity:0.24705882352941178;stroke-miterlimit:10;stroke-linecap:square;" x1="370" x2="385" y1="80" y2="70"/>
  <line style="fill:none;stroke:rgb(63,63,191);stroke-opacity:0.24705882352941178;stroke-miterlimit:10;stroke-linecap:square;" x1="385" x2="400" y1="70" y2="60"/>
  <line style="fill:none;stroke:rgb(63,63,191);stroke-opacity:0.24705882352941178;stroke-miterlimit:10;stroke-linecap:square;" x1="400" x2="400" y1="60" y2="60"/>
  <rect height="3" style="fill:rgb(255,127,0);fill-opacity:0.7490196078431373;stroke:none;" width="4" x="48" y="296"/>
  <line style="fill:none;stroke:rgb(255,127,0);stroke-opacity:0.24705882352941178;stroke-width:2;stroke-miterlimit:10;stroke-linecap:square;" x1="50" x2="50" y1="300" y2="300"/>
  <line style="fill:none;stroke:rgb(255,127,0);stroke-opacity:0.24705882352941178;stroke-width:2;stroke-miterlimit:10;stroke-linecap:square;" x1="50" x2="50" y1="298" y2="298"/>
  <rect height="12" style="fill:rgb(255,127,0);fill-opacity:0.7490196078431373;stroke:none;" width="4" x="62" y="287"/>
  <line style="fill:none;stroke:rgb(255,127,0);stroke-opacity:0.24705882352941178;stroke-width:2;stroke-miterlimit:10;stroke-linecap:square;" x1="50" x2="64" y1="296" y2="296"/>
  <line style="fill:none;stroke:rgb(255,127,0);stroke-opacity:0.24705882352941178;stroke-width:2;stroke-miterlimit:10;stroke-linecap:square;" x1="64" x2="64" y1="294" y2="286"/>
  <rect height="3" style="fill:rgb(255,127,0);fill-opacity:0.7490196078431373;stroke:none;" width="4" x="77" y="296"/>
  <line style="fill:none;stroke:rgb(255,127,0);stroke-opacity:0.24705882352941178;stroke-width:2;stroke-miterlimit:10;stroke-linecap:square;" x1="64" x2="79" y1="284" y2="284"/>
  <line style="fill:none;stroke:rgb(255,127,0);stroke-opacity:0.24705882352941178;stroke-width:2;stroke-miterlimit:10;stroke-linecap:square;" x1="79" x2="79" y1="282" y2="283"/>
  <rect height="6" style="fill:rgb(255,127,0);fill-opacity:0.7490196078431373;stroke:none;" width="4" x="91" y="293"/>
  <line style="fill:none;stroke:rgb(255,127,0);stroke-opacity:0.24705882352941178;stroke-width:2;stroke-miterlimit:10;stroke-linecap:square;" x1="79" x2="93" y1="281" y2="281"/>
  <line style="fill:none;stroke:rgb(255,127,0);stroke-opacity:0.24705882352941178;stroke-width:2;stroke-miterlimit:10;stroke-linecap:square;" x1="93" x2="93" y1="279" y2="277"/>
  <rect height="9" style="fill:rgb(255,127,0);fill-opacity:0.7490196078431373;stroke:none;" width="4" x="106" y="290"/>
  <line style="fill:none;stroke:rgb(255,127,0);stroke-opacity:0.24705882352941178;stroke-width:2;stroke-miterlimit:10;stroke-linecap:square;" x1="93" x2="108" y1="275" y2="275"/>
  <line style="fill:none;stroke:rgb(255,127,0);stroke-opacity:0.24705882352941178;stroke-width:2;stroke-miterlimit:10;stroke-linecap:square;" x1="108" x2="108" y1="273" y2="267"/>
  <rect height="12" style="fill:rgb(255,127,0);fill-opacity:0.7490196078431373;stroke:none;" width="4" x="120" y="287"/>
  <line style="fill:none;stroke:rgb(255,127,0);stroke-opacity:0.24705882352941178;stroke-width:2;stroke-miterlimit:10;stroke-linecap:square;" x1="108" x2="122" y1="265" y2="265"/>
  <line style="fill:none;stroke:rgb(255,127,0);stroke-opacity:0.24705882352941178;stroke-width:2;stroke-miterlimit:10;stroke-linecap:square;" x1="122" x2="122" y1="263" y2="255"/>
  <rect height="3" style="fill:rgb(255,127,0);fill-opacity:0.7490196078431373;stroke:none;" width="4" x="135" y="296"/>
  <line style="fill:none;stroke:rgb(255,127,0);stroke-opacity:0.24705882352941178;stroke-width:2;stroke-miterlimit:10;stroke-linecap:square;" x1="122" x2="137" y1="253" y2="253"/>
  <line style="fill:none;stroke:rgb(255,127,0);stroke-opacity:0.24705882352941178;stroke-width:2;stroke-miterlimit:10;stroke-linecap:square;" x1="137" x2="137" y1="251" y2="252"/>
  <rect height="6" style="fill:rgb(255,127,0);fill-opacity:0.7490196078431373;stroke:none;" width="4" x="164" y="293"/>
  <line style="fill:none;stroke:rgb(255,127,0);stroke-opacity:0.24705882352941178;stroke-width:2;stroke-miterlimit:10;stroke-linecap:square;" x1="137" x2="166" y1="250" y2="250"/>
  <line style="fill:none;stroke:rgb(255,127,0);stroke-opacity:0.24705882352941178;stroke-width:2;stroke-miterlimit:10;stroke-linecap:square;" x1="166" x2="166" y1="248" y2="245"/>
  <rect height="3" style="fill:rgb(255,127,0);fill-opacity:0.7490196078431373;stroke:none;" width="4" x="179" y="296"/>
  <line style="fill:none;stroke:rgb(255,127,0);stroke-opacity:0.24705882352941178;stroke-width:2;stroke-miterlimit:10;stroke-linecap:square;" x1="166" x2="181" y1="243" y2="243"/>
  <line style="fill:none;stroke:rgb(255,127,0);stroke-opacity:0.24705882352941178;stroke-width:2;stroke-miterlimit:10;stroke-linecap:square;" x1="181" x2="181" y1="241" y2="242"/>
  <rect height="12" style="fill:rgb(255,127,0);fill-opacity:0.7490196078431373;stroke:none;" width="4" x="193" y="287"/>
  <line style="fill:none;stroke:rgb(255,127,0);stroke-opacity:0.24705882352941178;stroke-width:2;stroke-miterlimit:10;stroke-linecap:square;" x1="181" x2="195" y1="240" y2="240"/>
  <line style="fill:none;stroke:rgb(255,127,0);stroke-opacity:0.24705882352941178;stroke-width:2;stroke-miterlimit:10;stroke-linecap:square;" x1="195" x2="195" y1="238" y2="230"/>
  <rect height="6" style="fill:rgb(255,127,0);fill-opacity:0.7490196078431373;stroke:none;" width="4" x="208" y="293"/>
  <line style="fill:none;stroke:rgb(255,127,0);stroke-opacity:0.24705882352941178;stroke-width:2;stroke-miterlimit:10;stroke-linecap:square;" x1="195" x2="210" y1="228" y2="228"/>
  <line style="fill:none;stroke:rgb(255,127,0);stroke-opacity:0.24705882352941178;stroke-width:2;stroke-miterlimit:10;stroke-linecap:square;" x1="210" x2="210" y1="226" y2="224"/>
  <rect height="21" style="fill:rgb(255,127,0);fill-opacity:0.7490196078431373;stroke:none;" width="4" x="223" y="278"/>
  <line style="fill:none;stroke:rgb(255,127,0);stroke-opacity:0.24705882352941178;stroke-width:2;stroke-miterlimit:10;stroke-linecap:square;" x1="210" x2="225" y1="222" y2="222"/>
  <line style="fill:none;stroke:rgb(255,127,0);stroke-opacity:0.24705882352941178;stroke-width:2;stroke-miterlimit:10;stroke-linecap:square;" x1="225" x2="225" y1="220" y2="202"/>
  <rect height="31" style="fill:rgb(255,127,0);fill-opacity:0.7490196078431373;stroke:none;" width="4" x="237" y="268"/>
  <line style="fill:none;stroke:rgb(255,127,0);stroke-opacity:0.24705882352941178;stroke-width:2;stroke-miterlimit:10;stroke-linecap:square;" x1="225" x2="239" y1="200" y2="200"/>
  <line style="fill:none;stroke:rgb(255,127,0);stroke-opacity:0.24705882352941178;stroke-width:2;stroke-miterlimit:10;stroke-linecap:square;" x1="239" x2="239" y1="198" y2="171"/>
  <rect height="18" style="fill:rgb(255,127,0);fill-opacity:0.7490196078431373;stroke:none;" width="4" x="252" y="281"/>
  <line style="fill:none;stroke:rgb(255,127,0);stroke-opacity:0.24705882352941178;stroke-width:2;stroke-miterlimit:10;stroke-linecap:square;" x1="239" x2="254" y1="169" y2="169"/>
  <line style="fill:none;stroke:rgb(255,127,0);stroke-opacity:0.24705882352941178;stroke-width:2;stroke-miterlimit:10;stroke-linecap:square;" x1="254" x2="254" y1="167" y2="152"/>
  <rect height="31" style="fill:rgb(255,127,0);fill-opacity:0.7490196078431373;stroke:none;" width="4" x="266" y="268"/>
  <line style="fill:none;stroke:rgb(255,127,0);stroke-opacity:0.24705882352941178;stroke-width:2;stroke-miterlimit:10;stroke-linecap:square;" x1="254" x2="268" y1="150" y2="150"/>
  <line style="fill:none;stroke:rgb(255,127,0);stroke-opacity:0.24705882352941178;stroke-width:2;stroke-miterlimit:10;stroke-linecap:square;" x1="268" x2="268" y1="148" y2="121"/>
  <rect height="12" style="fill:rgb(255,127,0);fill-opacity:0.7490196078431373;stroke:none;" width="4" x="281" y="287"/>
  <line style="fill:none;stroke:rgb(255,127,0);stroke-opacity:0.24705882352941178;stroke-width:2;stroke-miterlimit:10;stroke-linecap:square;" x1="268" x2="283" y1="119" y2="119"/>
  <line style="fill:none;stroke:rgb(255,127,0);stroke-opacity:0.24705882352941178;stroke-width:2;stroke-miterlimit:10;stroke-linecap:square;" x1="283" x2="283" y1="117" y2="108"/>
  <rect height="6" style="fill:rgb(255,127,0);fill-opacity:0.7490196078431373;stroke:none;" width="4" x="295" y="293"/>
  <line style="fill:none;stroke:rgb(255,127,0);stroke-opacity:0.24705882352941178;stroke-width:2;stroke-miterlimit:10;stroke-linecap:square;" x1="283" x2="297" y1="106" y2="106"/>
  <line style="fill:none;stroke:rgb(255,127,0);stroke-opacity:0.24705882352941178;stroke-width:2;stroke-miterlimit:10;stroke-linecap:square;" x1="297" x2="297" y1="104" y2="102"/>
  <rect height="9" style="fill:rgb(255,127,0);fill-opacity:0.7490196078431373;stroke:none;" width="4" x="310" y="290"/>
  <line style="fill:none;stroke:rgb(255,127,0);stroke-opacity:0.24705882352941178;stroke-width:2;stroke-miterlimit:10;stroke-linecap:square;" x1="297" x2="312" y1="100" y2="100"/>
  <line style="fill:none;stroke:rgb(255,127,0);stroke-opacity:0.24705882352941178;stroke-width:2;stroke-miterlimit:10;stroke-linecap:square;" x1="312" x2="312" y1="98" y2="93"/>
  <rect height="6" style="fill:rgb(255,127,0);fill-opacity:0.7490196078431373;stroke:none;" width="4" x="339" y="293"/>
  <line style="fill:none;stroke:rgb(255,127,0);stroke-opacity:0.24705882352941178;stroke-width:2;stroke-miterlimit:10;stroke-linecap:square;" x1="312" x2="341" y1="91" y2="91"/>
  <line style="fill:none;stroke:rgb(255,127,0);stroke-opacity:0.24705882352941178;stroke-width:2;stroke-miterlimit:10;stroke-linecap:square;" x1="341" x2="341" y1="89" y2="86"/>
  <rect height="3" style="fill:rgb(255,127,0);fill-opacity:0.7490196078431373;stroke:none;" width="4" x="354" y="296"/>
  <line style="fill:none;stroke:rgb(255,127,0);stroke-opacity:0.24705882352941178;stroke-width:2;stroke-miterlimit:10;stroke-linecap:square;" x1="341" x2="356" y1="84" y2="84"/>
  <line style="fill:none;stroke:rgb(255,127,0);stroke-opacity:0.24705882352941178;stroke-width:2;stroke-miterlimit:10;stroke-linecap:square;" x1="356" x2="356" y1="82" y2="83"/>
  <rect height="12" style="fill:rgb(255,127,0);fill-opacity:0.7490196078431373;stroke:none;" width="4" x="368" y="287"/>
  <line style="fill:none;stroke:rgb(255,127,0);stroke-opacity:0.24705882352941178;stroke-width:2;stroke-miterlimit:10;stroke-linecap:square;" x1="356" x2="370" y1="81" y2="81"/>
  <line style="fill:none;stroke:rgb(255,127,0);stroke-opacity:0.24705882352941178;stroke-width:2;stroke-miterlimit:10;stroke-linecap:square;" x1="370" x2="370" y1="79" y2="71"/>
  <rect height="3" style="fill:rgb(255,127,0);fill-opacity:0.7490196078431373;stroke:none;" width="4" x="383" y="296"/>
  <line style="fill:none;stroke:rgb(255,127,0);stroke-opacity:0.24705882352941178;stroke-width:2;stroke-miterlimit:10;stroke-linecap:square;" x1="370" x2="385" y1="69" y2="69"/>
  <line style="fill:none;stroke:rgb(255,127,0);stroke-opacity:0.24705882352941178;stroke-width:2;stroke-miterlimit:10;stroke-linecap:square;" x1="385" x2="385" y1="67" y2="68"/>
  <rect height="6" style="fill:rgb(255,127,0);fill-opacity:0.7490196078431373;stroke:none;" width="4" x="398" y="293"/>
  <line style="fill:none;stroke:rgb(255,127,0);stroke-opacity:0.24705882352941178;stroke-width:2;stroke-miterlimit:10;stroke-linecap:square;" x1="385" x2="400" y1="66" y2="66"/>
  <line style="fill:none;stroke:rgb(255,127,0);stroke-opacity:0.24705882352941178;stroke-width:2;stroke-miterlimit:10;stroke-linecap:square;" x1="400" x2="400" y1="64" y2="62"/>
  <line style="fill:none;stroke:rgb(255,127,0);stroke-opacity:0.24705882352941178;stroke-width:2;stroke-miterlimit:10;stroke-linecap:square;" x1="400" x2="400" y1="60" y2="60"/>
  <line style="fill:none;stroke:rgb(255,127,0);stroke-opacity:0.4980392156862745;stroke-miterlimit:2;stroke-dasharray:2;" x1="50" x2="50" y1="300" y2="350"/>
  <line style="fill:none;stroke:rgb(255,127,0);stroke-opacity:0.4980392156862745;stroke-miterlimit:2;stroke-dasharray:2;" x1="64" x2="64" y1="300" y2="364"/>
  <line style="fill:none;stroke:rgb(255,127,0);stroke-opacity:0.4980392156862745;stroke-miterlimit:2;stroke-dasharray:2;" x1="64" x2="64" y1="300" y2="378"/>
  <line style="fill:none;stroke:rgb(255,127,0);stroke-opacity:0.4980392156862745;stroke-miterlimit:2;stroke-dasharray:2;" x1="64" x2="64" y1="300" y2="392"/>
  <line style="fill:none;stroke:rgb(255,127,0);stroke-opacity:0.4980392156862745;stroke-miterlimit:2;stroke-dasharray:2;" x1="64" x2="64" y1="300" y2="406"/>
  <line style="fill:none;stroke:rgb(255,127,0);stroke-opacity:0.4980392156862745;stroke-miterlimit:2;stroke-dasharray:2;" x1="79" x2="79" y1="300" y2="420"/>
  <line style="fill:none;stroke:rgb(255,127,0);stroke-opacity:0.4980392156862745;stroke-miterlimit:2;stroke-dasharray:2;" x1="93" x2="93" y1="300" y2="434"/>
  <line style="fill:none;stroke:rgb(255,127,0);stroke-opacity:0.4980392156862745;stroke-miterlimit:2;stroke-dasharray:2;" x1="93" x2="93" y1="300" y2="448"/>
  <line style="fill:none;stroke:rgb(255,127,0);stroke-opacity:0.4980392156862745;stroke-miterlimit:2;stroke-dasharray:2;" x1="108" x2="108" y1="300" y2="462"/>
  <line style="fill:none;stroke:rgb(255,127,0);stroke-opacity:0.4980392156862745;stroke-miterlimit:2;stroke-dasharray:2;" x1="108" x2="108" y1="300" y2="476"/>
  <line style="fill:none;stroke:rgb(255,127,0);stroke-opacity:0.4980392156862745;stroke-miterlimit:2;stroke-dasharray:2;" x1="108" x2="108" y1="300" y2="490"/>
  <line style="fill:none;stroke:rgb(255,127,0);stroke-opacity:0.4980392156862745;stroke-miterlimit:2;stroke-dasharray:2;" x1="122" x2="122" y1="300" y2="504"/>
  <line style="fill:none;stroke:rgb(255,127,0);stroke-opacity:0.4980392156862745;stroke-miterlimit:2;stroke-dasharray:2;" x1="122" x2="122" y1="300" y2="518"/>
  <line style="fill:none;stroke:rgb(255,127,0);stroke-opacity:0.4980392156862745;stroke-miterlimit:2;stroke-dasharray:2;" x1="122" x2="122" y1="300" y2="532"/>
  <line style="fill:none;stroke:rgb(255,127,0);stroke-opacity:0.4980392156862745;stroke-miterlimit:2;stroke-dasharray:2;" x1="122" x2="122" y1="300" y2="546"/>
  <line style="fill:none;stroke:rgb(255,127,0);stroke-opacity:0.4980392156862745;stroke-miterlimit:2;stroke-dasharray:2;" x1="137" x2="137" y1="300" y2="560"/>
  <line style="fill:none;stroke:rgb(255,127,0);stroke-opacity:0.4980392156862745;stroke-miterlimit:2;stroke-dasharray:2;" x1="166" x2="166" y1="300" y2="574"/>
  <line style="fill:none;stroke:rgb(255,127,0);stroke-opacity:0.4980392156862745;stroke-miterlimit:2;stroke-dasharray:2;" x1="166" x2="166" y1="300" y2="588"/>
  <line style="fill:none;stroke:rgb(255,127,0);stroke-opacity:0.4980392156862745;stroke-miterlimit:2;stroke-dasharray:2;" x1="181" x2="181" y1="300" y2="602"/>
  <line style="fill:none;stroke:rgb(255,127,0);stroke-opacity:0.4980392156862745;stroke-miterlimit:2;stroke-dasharray:2;" x1="195" x2="195" y1="300" y2="616"/>
  <line style="fill:none;stroke:rgb(255,127,0);stroke-opacity:0.4980392156862745;stroke-miterlimit:2;stroke-dasharray:2;" x1="195" x2="195" y1="300" y2="630"/>
  <line style="fill:none;stroke:rgb(255,127,0);stroke-opacity:0.4980392156862745;stroke-miterlimit:2;stroke-dasharray:2;" x1="195" x2="195" y1="300" y2="644"/>
  <line style="fill:none;stroke:rgb(255,127,0);stroke-opacity:0.4980392156862745;stroke-miterlimit:2;stroke-dasharray:2;" x1="195" x2="195" y1="300" y2="658"/>
  <line style="fill:none;stroke:rgb(255,127,0);stroke-opacity:0.4980392156862745;stroke-miterlimit:2;stroke-dasharray:2;" x1="210" x2="210" y1="300" y2="672"/>
  <line style="fill:none;stroke:rgb(255,127,0);stroke-opacity:0.4980392156862745;stroke-miterlimit:2;stroke-dasharray:2;" x1="210" x2="210" y1="300" y2="686"/>
  <line style="fill:none;stroke:rgb(255,127,0);stroke-opacity:0.4980392156862745;stroke-miterlimit:2;stroke-dasharray:2;" x1="225" x2="225" y1="300" y2="701"/>
  <line style="fill:none;stroke:rgb(255,127,0);stroke-opacity:0.4980392156862745;stroke-miterlimit:2;stroke-dasharray:2;" x1="225" x2="225" y1="300" y2="716"/>
  <line style="fill:none;stroke:rgb(255,127,0);stroke-opacity:0.4980392156862745;stroke-miterlimit:2;stroke-dasharray:2;" x1="225" x2="225" y1="300" y2="731"/>
  <line style="fill:none;stroke:rgb(255,127,0);stroke-opacity:0.4980392156862745;stroke-miterlimit:2;stroke-dasharray:2;" x1="225" x2="225" y1="300" y2="746"/>
  <line style="fill:none;stroke:rgb(255,127,0);stroke-opacity:0.4980392156862745;stroke-miterlimit:2;stroke-dasharray:2;" x1="225" x2="225" y1="300" y2="761"/>
  <line style="fill:none;stroke:rgb(255,127,0);stroke-opacity:0.4980392156862745;stroke-miterlimit:2;stroke-dasharray:2;" x1="225" x2="225" y1="300" y2="776"/>
  <line style="fill:none;stroke:rgb(255,127,0);stroke-opacity:0.4980392156862745;stroke-miterlimit:2;stroke-dasharray:2;" x1="225" x2="225" y1="300" y2="791"/>
  <line style="fill:none;stroke:rgb(255,127,0);stroke-opacity:0.4980392156862745;stroke-miterlimit:2;stroke-dasharray:2;" x1="239" x2="239" y1="300" y2="806"/>
  <line style="fill:none;stroke:rgb(255,127,0);stroke-opacity:0.4980392156862745;stroke-miterlimit:2;stroke-dasharray:2;" x1="239" x2="239" y1="300" y2="821"/>
  <line style="fill:none;stroke:rgb(255,127,0);stroke-opacity:0.4980392156862745;stroke-miterlimit:2;stroke-dasharray:2;" x1="239" x2="239" y1="300" y2="836"/>
  <line style="fill:none;stroke:rgb(255,127,0);stroke-opacity:0.4980392156862745;stroke-miterlimit:2;stroke-dasharray:2;" x1="239" x2="239" y1="300" y2="851"/>
  <line style="fill:none;stroke:rgb(255,127,0);stroke-opacity:0.4980392156862745;stroke-miterlimit:2;stroke-dasharray:2;" x1="239" x2="239" y1="300" y2="866"/>
  <line style="fill:none;stroke:rgb(255,127,0);stroke-opacity:0.4980392156862745;stroke-miterlimit:2;stroke-dasharray:2;" x1="239" x2="239" y1="300" y2="881"/>
  <line style="fill:none;stroke:rgb(255,127,0);stroke-opacity:0.4980392156862745;stroke-miterlimit:2;stroke-dasharray:2;" x1="239" x2="239" y1="300" y2="896"/>
  <line style="fill:none;stroke:rgb(255,127,0);stroke-opacity:0.4980392156862745;stroke-miterlimit:2;stroke-dasharray:2;" x1="239" x2="239" y1="300" y2="911"/>
  <line style="fill:none;stroke:rgb(255,127,0);stroke-opacity:0.4980392156862745;stroke-miterlimit:2;stroke-dasharray:2;" x1="239" x2="239" y1="300" y2="926"/>
  <line style="fill:none;stroke:rgb(255,127,0);stroke-opacity:0.4980392156862745;stroke-miterlimit:2;stroke-dasharray:2;" x1="239" x2="239" y1="300" y2="941"/>
  <line style="fill:none;stroke:rgb(255,127,0);stroke-opacity:0.4980392156862745;stroke-miterlimit:2;stroke-dasharray:2;" x1="254" x2="254" y1="300" y2="956"/>
  <line style="fill:none;stroke:rgb(255,127,0);stroke-opacity:0.4980392156862745;stroke-miterlimit:2;stroke-dasharray:2;" x1="254" x2="254" y1="300" y2="971"/>
  <line style="fill:none;stroke:rgb(255,127,0);stroke-opacity:0.4980392156862745;stroke-miterlimit:2;stroke-dasharray:2;" x1="254" x2="254" y1="300" y2="986"/>
  <line style="fill:none;stroke:rgb(255,127,0);stroke-opacity:0.4980392156862745;stroke-miterlimit:2;stroke-dasharray:2;" x1="254" x2="254" y1="300" y2="1001"/>
  <line style="fill:none;stroke:rgb(255,127,0);stroke-opacity:0.4980392156862745;stroke-miterlimit:2;stroke-dasharray:2;" x1="254" x2="254" y1="300" y2="1016"/>
  <line style="fill:none;stroke:rgb(255,127,0);stroke-opacity:0.4980392156862745;stroke-miterlimit:2;stroke-dasharray:2;" x1="254" x2="254" y1="300" y2="1031"/>
  <line style="fill:none;stroke:rgb(255,127,0);stroke-opacity:0.4980392156862745;stroke-miterlimit:2;stroke-dasharray:2;" x1="268" x2="268" y1="300" y2="1046"/>
  <line style="fill:none;stroke:rgb(255,127,0);stroke-opacity:0.4980392156862745;stroke-miterlimit:2;stroke-dasharray:2;" x1="268" x2="268" y1="300" y2="1061"/>
  <line style="fill:none;stroke:rgb(255,127,0);stroke-opacity:0.4980392156862745;stroke-miterlimit:2;stroke-dasharray:2;" x1="268" x2="268" y1="300" y2="1076"/>
  <line style="fill:none;stroke:rgb(255,127,0);stroke-opacity:0.4980392156862745;stroke-miterlimit:2;stroke-dasharray:2;" x1="268" x2="268" y1="300" y2="1091"/>
  <line style="fill:none;stroke:rgb(255,127,0);stroke-opacity:0.4980392156862745;stroke-miterlimit:2;stroke-dasharray:2;" x1="268" x2="268" y1="300" y2="1106"/>
  <line style="fill:none;stroke:rgb(255,127,0);stroke-opacity:0.4980392156862745;stroke-miterlimit:2;stroke-dasharray:2;" x1="268" x2="268" y1="300" y2="1121"/>
  <line style="fill:none;stroke:rgb(255,127,0);stroke-opacity:0.4980392156862745;stroke-miterlimit:2;stroke-dasharray:2;" x1="268" x2="268" y1="300" y2="1136"/>
  <line style="fill:none;stroke:rgb(255,127,0);stroke-opacity:0.4980392156862745;stroke-miterlimit:2;stroke-dasharray:2;" x1="268" x2="268" y1="300" y2="1151"/>
  <line style="fill:none;stroke:rgb(255,127,0);stroke-opacity:0.4980392156862745;stroke-miterlimit:2;stroke-dasharray:2;" x1="268" x2="268" y1="300" y2="1166"/>
  <line style="fill:none;stroke:rgb(255,127,0);stroke-opacity:0.4980392156862745;stroke-miterlimit:2;stroke-dasharray:2;" x1="268" x2="268" y1="300" y2="1181"/>
  <line style="fill:none;stroke:rgb(255,127,0);stroke-opacity:0.4980392156862745;stroke-miterlimit:2;stroke-dasharray:2;" x1="283" x2="283" y1="300" y2="1196"/>
  <line style="fill:none;stroke:rgb(255,127,0);stroke-opacity:0.4980392156862745;stroke-miterlimit:2;stroke-dasharray:2;" x1="283" x2="283" y1="300" y2="1211"/>
  <line style="fill:none;stroke:rgb(255,127,0);stroke-opacity:0.4980392156862745;stroke-miterlimit:2;stroke-dasharray:2;" x1="283" x2="283" y1="300" y2="1226"/>
  <line style="fill:none;stroke:rgb(255,127,0);stroke-opacity:0.4980392156862745;stroke-miterlimit:2;stroke-dasharray:2;" x1="283" x2="283" y1="300" y2="1241"/>
  <line style="fill:none;stroke:rgb(255,127,0);stroke-opacity:0.4980392156862745;stroke-miterlimit:2;stroke-dasharray:2;" x1="297" x2="297" y1="300" y2="1255"/>
  <line style="fill:none;stroke:rgb(255,127,0);stroke-opacity:0.4980392156862745;stroke-miterlimit:2;stroke-dasharray:2;" x1="297" x2="297" y1="300" y2="1269"/>
  <line style="fill:none;stroke:rgb(255,127,0);stroke-opacity:0.4980392156862745;stroke-miterlimit:2;stroke-dasharray:2;" x1="312" x2="312" y1="300" y2="1283"/>
  <line style="fill:none;stroke:rgb(255,127,0);stroke-opacity:0.4980392156862745;stroke-miterlimit:2;stroke-dasharray:2;" x1="312" x2="312" y1="300" y2="1297"/>
  <line style="fill:none;stroke:rgb(255,127,0);stroke-opacity:0.4980392156862745;stroke-miterlimit:2;stroke-dasharray:2;" x1="312" x2="312" y1="300" y2="1311"/>
  <line style="fill:none;stroke:rgb(255,127,0);stroke-opacity:0.4980392156862745;stroke-miterlimit:2;stroke-dasharray:2;" x1="341" x2="341" y1="300" y2="1325"/>
  <line style="fill:none;stroke:rgb(255,127,0);stroke-opacity:0.4980392156862745;stroke-miterlimit:2;stroke-dasharray:2;" x1="341" x2="341" y1="300" y2="1339"/>
  <line style="fill:none;stroke:rgb(255,127,0);stroke-opacity:0.4980392156862745;stroke-miterlimit:2;stroke-dasharray:2;" x1="356" x2="356" y1="300" y2="1353"/>
  <line style="fill:none;stroke:rgb(255,127,0);stroke-opacity:0.4980392156862745;stroke-miterlimit:2;stroke-dasharray:2;" x1="370" x2="370" y1="300" y2="1367"/>
  <line style="fill:none;stroke:rgb(255,127,0);stroke-opacity:0.4980392156862745;stroke-miterlimit:2;stroke-dasharray:2;" x1="370" x2="370" y1="300" y2="1381"/>
  <line style="fill:none;stroke:rgb(255,127,0);stroke-opacity:0.4980392156862745;stroke-miterlimit:2;stroke-dasharray:2;" x1="370" x2="370" y1="300" y2="1395"/>
  <line style="fill:none;stroke:rgb(255,127,0);stroke-opacity:0.4980392156862745;stroke-miterlimit:2;stroke-dasharray:2;" x1="370" x2="370" y1="300" y2="1409"/>
  <line style="fill:none;stroke:rgb(255,127,0);stroke-opacity:0.4980392156862745;stroke-miterlimit:2;stroke-dasharray:2;" x1="385" x2="385" y1="300" y2="1423"/>
  <line style="fill:none;stroke:rgb(255,127,0);stroke-opacity:0.4980392156862745;stroke-miterlimit:2;stroke-dasharray:2;" x1="400" x2="400" y1="300" y2="1437"/>
  <line style="fill:none;stroke:rgb(255,127,0);stroke-opacity:0.4980392156862745;stroke-miterlimit:2;stroke-dasharray:2;" x1="400" x2="400" y1="300" y2="1451"/>
  <line style="fill:none;stroke:rgb(0,0,0);stroke-width:2;stroke-miterlimit:10;stroke-linecap:square;" x1="48" x2="48" y1="60" y2="300"/>
  <line style="fill:none;stroke:rgb(0,0,0);stroke-width:2;stroke-miterlimit:10;stroke-linecap:square;" x1="48" x2="402" y1="300" y2="300"/>
  <rect height="30" style="fill:rgb(255,255,255);stroke:none;" width="17" x="42" y="308"/>
  <text style="fill:rgb(0,0,0);stroke:none;font-size:25px;font-weight:bold;" x="42" y="332">0</text>
  <rect height="30" style="fill:rgb(255,255,255);stroke:none;" width="34" x="383" y="308"/>
  <text style="fill:rgb(0,0,0);stroke:none;font-size:25px;font-weight:bold;" x="383" y="332">24</text>
  <text style="fill:rgb(0,0,0);stroke:none;font-size:25px;font-weight:bold;" x="25" y="312">0</text>
  <text style="fill:rgb(0,0,0);stroke:none;font-size:25px;font-weight:bold;" x="25" y="72">1</text>
  <text style="fill:rgb(0,0,0);stroke:none;font-size:19px;font-weight:bold;" x="2" y="39">GOBP_REGULATION_OF_HYDROLASE_ACTIVITY</text>
  <rect height="11" style="fill:rgb(255,255,255);stroke:none;" width="43" x="50" y="339"/>
  <text style="fill:rgb(128,128,128);stroke:none;font-size:11px;" x="50" y="350">SH3RF1</text>
  <rect height="11" style="fill:rgb(255,255,255);stroke:none;" width="29" x="64" y="353"/>
  <text style="fill:rgb(128,128,128);stroke:none;font-size:11px;" x="64" y="364">TTC8</text>
  <rect height="11" style="fill:rgb(255,255,255);stroke:none;" width="37" x="64" y="367"/>
  <text style="fill:rgb(128,128,128);stroke:none;font-size:11px;" x="64" y="378">GPER1</text>
  <rect height="11" style="fill:rgb(255,255,255);stroke:none;" width="43" x="64" y="381"/>
  <text style="fill:rgb(128,128,128);stroke:none;font-size:11px;" x="64" y="392">CLEC7A</text>
  <rect height="11" style="fill:rgb(255,255,255);stroke:none;" width="54" x="64" y="395"/>
  <text style="fill:rgb(128,128,128);stroke:none;font-size:11px;" x="64" y="406">SERPINE2</text>
  <rect height="11" style="fill:rgb(255,255,255);stroke:none;" width="37" x="79" y="409"/>
  <text style="fill:rgb(128,128,128);stroke:none;font-size:11px;" x="79" y="420">BCAR3</text>
  <rect height="11" style="fill:rgb(255,255,255);stroke:none;" width="31" x="93" y="423"/>
  <text style="fill:rgb(128,128,128);stroke:none;font-size:11px;" x="93" y="434">SOX7</text>
  <rect height="11" style="fill:rgb(255,255,255);stroke:none;" width="37" x="93" y="437"/>
  <text style="fill:rgb(128,128,128);stroke:none;font-size:11px;" x="93" y="448">FZD10</text>
  <rect height="11" style="fill:rgb(255,255,255);stroke:none;" width="33" x="108" y="451"/>
  <text style="fill:rgb(128,128,128);stroke:none;font-size:11px;" x="108" y="462">BIRC5</text>
  <rect height="11" style="fill:rgb(255,255,255);stroke:none;" width="36" x="108" y="465"/>
  <text style="fill:rgb(128,128,128);stroke:none;font-size:11px;" x="108" y="476">VEGFA</text>
  <rect height="11" style="fill:rgb(255,255,255);stroke:none;" width="37" x="108" y="479"/>
  <text style="fill:rgb(128,128,128);stroke:none;font-size:11px;" x="108" y="490">CALM1</text>
  <rect height="11" style="fill:rgb(255,255,255);stroke:none;" width="30" x="122" y="493"/>
  <text style="fill:rgb(128,128,128);stroke:none;font-size:11px;" x="122" y="504">NGEF</text>
  <rect height="11" style="fill:rgb(255,255,255);stroke:none;" width="37" x="122" y="507"/>
  <text style="fill:rgb(128,128,128);stroke:none;font-size:11px;" x="122" y="518">PTTG1</text>
  <rect height="11" style="fill:rgb(255,255,255);stroke:none;" width="43" x="122" y="521"/>
  <text style="fill:rgb(128,128,128);stroke:none;font-size:11px;" x="122" y="532">S100A9</text>
  <rect height="11" style="fill:rgb(255,255,255);stroke:none;" width="60" x="122" y="535"/>
  <text style="fill:rgb(128,128,128);stroke:none;font-size:11px;" x="122" y="546">PPARGC1B</text>
  <rect height="11" style="fill:rgb(255,255,255);stroke:none;" width="36" x="137" y="549"/>
  <text style="fill:rgb(128,128,128);stroke:none;font-size:11px;" x="137" y="560">LAMP3</text>
  <rect height="11" style="fill:rgb(255,255,255);stroke:none;" width="31" x="166" y="563"/>
  <text style="fill:rgb(128,128,128);stroke:none;font-size:11px;" x="166" y="574">BBC3</text>
  <rect height="11" style="fill:rgb(255,255,255);stroke:none;" width="34" x="166" y="577"/>
  <text style="fill:rgb(128,128,128);stroke:none;font-size:11px;" x="166" y="588">PTAFR</text>
  <rect height="11" style="fill:rgb(255,255,255);stroke:none;" width="30" x="181" y="591"/>
  <text style="fill:rgb(128,128,128);stroke:none;font-size:11px;" x="181" y="602">OASL</text>
  <rect height="11" style="fill:rgb(255,255,255);stroke:none;" width="28" x="195" y="605"/>
  <text style="fill:rgb(128,128,128);stroke:none;font-size:11px;" x="195" y="616">FLCN</text>
  <rect height="11" style="fill:rgb(255,255,255);stroke:none;" width="31" x="195" y="619"/>
  <text style="fill:rgb(128,128,128);stroke:none;font-size:11px;" x="195" y="630">RGS2</text>
  <rect height="11" style="fill:rgb(255,255,255);stroke:none;" width="49" x="195" y="633"/>
  <text style="fill:rgb(128,128,128);stroke:none;font-size:11px;" x="195" y="644">TNFSF14</text>
  <rect height="11" style="fill:rgb(255,255,255);stroke:none;" width="59" x="195" y="647"/>
  <text style="fill:rgb(128,128,128);stroke:none;font-size:11px;" x="195" y="658">ARHGAP25</text>
  <rect height="11" style="fill:rgb(255,255,255);stroke:none;" width="21" x="210" y="661"/>
  <text style="fill:rgb(128,128,128);stroke:none;font-size:11px;" x="210" y="672">TNF</text>
  <rect height="11" style="fill:rgb(255,255,255);stroke:none;" width="36" x="210" y="675"/>
  <text style="fill:rgb(128,128,128);stroke:none;font-size:11px;" x="210" y="686">EPHA1</text>
  <rect height="12" style="fill:rgb(255,255,255);stroke:none;" width="22" x="225" y="689"/>
  <text style="fill:rgb(128,128,128);stroke:none;" x="225" y="701">SYK</text>
  <rect height="12" style="fill:rgb(255,255,255);stroke:none;" width="31" x="225" y="704"/>
  <text style="fill:rgb(128,128,128);stroke:none;" x="225" y="716">VRK3</text>
  <rect height="12" style="fill:rgb(255,255,255);stroke:none;" width="30" x="225" y="719"/>
  <text style="fill:rgb(128,128,128);stroke:none;" x="225" y="731">CCL2</text>
  <rect height="12" style="fill:rgb(255,255,255);stroke:none;" width="34" x="225" y="734"/>
  <text style="fill:rgb(128,128,128);stroke:none;" x="225" y="746">RIPK3</text>
  <rect height="12" style="fill:rgb(255,255,255);stroke:none;" width="47" x="225" y="749"/>
  <text style="fill:rgb(128,128,128);stroke:none;" x="225" y="761">COL7A1</text>
  <rect height="12" style="fill:rgb(255,255,255);stroke:none;" width="52" x="225" y="764"/>
  <text style="fill:rgb(128,128,128);stroke:none;" x="225" y="776">BCL2L11</text>
  <rect height="12" style="fill:rgb(255,255,255);stroke:none;" width="65" x="225" y="779"/>
  <text style="fill:rgb(128,128,128);stroke:none;" x="225" y="791">ARHGEF16</text>
  <rect height="12" style="fill:rgb(255,255,255);stroke:none;" width="25" x="239" y="794"/>
  <text style="fill:rgb(128,128,128);stroke:none;" x="239" y="806">MET</text>
  <rect height="12" style="fill:rgb(255,255,255);stroke:none;" width="33" x="239" y="809"/>
  <text style="fill:rgb(128,128,128);stroke:none;" x="239" y="821">CD33</text>
  <rect height="12" style="fill:rgb(255,255,255);stroke:none;" width="28" x="239" y="824"/>
  <text style="fill:rgb(128,128,128);stroke:none;" x="239" y="836">NAIP</text>
  <rect height="12" style="fill:rgb(255,255,255);stroke:none;" width="31" x="239" y="839"/>
  <text style="fill:rgb(128,128,128);stroke:none;" x="239" y="851">NLE1</text>
  <rect height="12" style="fill:rgb(255,255,255);stroke:none;" width="34" x="239" y="854"/>
  <text style="fill:rgb(128,128,128);stroke:none;" x="239" y="866">NEIL1</text>
  <rect height="12" style="fill:rgb(255,255,255);stroke:none;" width="35" x="239" y="869"/>
  <text style="fill:rgb(128,128,128);stroke:none;" x="239" y="881">BIRC3</text>
  <rect height="12" style="fill:rgb(255,255,255);stroke:none;" width="42" x="239" y="884"/>
  <text style="fill:rgb(128,128,128);stroke:none;" x="239" y="896">HSPD1</text>
  <rect height="12" style="fill:rgb(255,255,255);stroke:none;" width="41" x="239" y="899"/>
  <text style="fill:rgb(128,128,128);stroke:none;" x="239" y="911">CARD8</text>
  <rect height="12" style="fill:rgb(255,255,255);stroke:none;" width="49" x="239" y="914"/>
  <text style="fill:rgb(128,128,128);stroke:none;" x="239" y="926">HSPA1A</text>
  <rect height="12" style="fill:rgb(255,255,255);stroke:none;" width="58" x="239" y="929"/>
  <text style="fill:rgb(128,128,128);stroke:none;" x="239" y="941">ARHGAP9</text>
  <rect height="12" style="fill:rgb(255,255,255);stroke:none;" width="30" x="254" y="944"/>
  <text style="fill:rgb(128,128,128);stroke:none;" x="254" y="956">CBLB</text>
  <rect height="12" style="fill:rgb(255,255,255);stroke:none;" width="40" x="254" y="959"/>
  <text style="fill:rgb(128,128,128);stroke:none;" x="254" y="971">CASP9</text>
  <rect height="12" style="fill:rgb(255,255,255);stroke:none;" width="40" x="254" y="974"/>
  <text style="fill:rgb(128,128,128);stroke:none;" x="254" y="986">CASP5</text>
  <rect height="12" style="fill:rgb(255,255,255);stroke:none;" width="40" x="254" y="989"/>
  <text style="fill:rgb(128,128,128);stroke:none;" x="254" y="1001">CASP4</text>
  <rect height="12" style="fill:rgb(255,255,255);stroke:none;" width="41" x="254" y="1004"/>
  <text style="fill:rgb(128,128,128);stroke:none;" x="254" y="1016">NUAK1</text>
  <rect height="12" style="fill:rgb(255,255,255);stroke:none;" width="43" x="254" y="1019"/>
  <text style="fill:rgb(128,128,128);stroke:none;" x="254" y="1031">STYXL1</text>
  <rect height="12" style="fill:rgb(255,255,255);stroke:none;" width="16" x="268" y="1034"/>
  <text style="fill:rgb(128,128,128);stroke:none;" x="268" y="1046">C5</text>
  <rect height="12" style="fill:rgb(255,255,255);stroke:none;" width="32" x="268" y="1049"/>
  <text style="fill:rgb(128,128,128);stroke:none;" x="268" y="1061">CAV1</text>
  <rect height="12" style="fill:rgb(255,255,255);stroke:none;" width="30" x="268" y="1064"/>
  <text style="fill:rgb(128,128,128);stroke:none;" x="268" y="1076">TBCK</text>
  <rect height="12" style="fill:rgb(255,255,255);stroke:none;" width="31" x="268" y="1079"/>
  <text style="fill:rgb(128,128,128);stroke:none;" x="268" y="1091">RECK</text>
  <rect height="12" style="fill:rgb(255,255,255);stroke:none;" width="42" x="268" y="1094"/>
  <text style="fill:rgb(128,128,128);stroke:none;" x="268" y="1106">ANOS1</text>
  <rect height="12" style="fill:rgb(255,255,255);stroke:none;" width="39" x="268" y="1109"/>
  <text style="fill:rgb(128,128,128);stroke:none;" x="268" y="1121">FETUB</text>
  <rect height="12" style="fill:rgb(255,255,255);stroke:none;" width="42" x="268" y="1124"/>
  <text style="fill:rgb(128,128,128);stroke:none;" x="268" y="1136">PDCD2</text>
  <rect height="12" style="fill:rgb(255,255,255);stroke:none;" width="49" x="268" y="1139"/>
  <text style="fill:rgb(128,128,128);stroke:none;" x="268" y="1151">CARD16</text>
  <rect height="12" style="fill:rgb(255,255,255);stroke:none;" width="62" x="268" y="1154"/>
  <text style="fill:rgb(128,128,128);stroke:none;" x="268" y="1166">SLC39A10</text>
  <rect height="12" style="fill:rgb(255,255,255);stroke:none;" width="62" x="268" y="1169"/>
  <text style="fill:rgb(128,128,128);stroke:none;" x="268" y="1181">SLC39A14</text>
  <rect height="12" style="fill:rgb(255,255,255);stroke:none;" width="41" x="283" y="1184"/>
  <text style="fill:rgb(128,128,128);stroke:none;" x="283" y="1196">ADAP2</text>
  <rect height="12" style="fill:rgb(255,255,255);stroke:none;" width="38" x="283" y="1199"/>
  <text style="fill:rgb(128,128,128);stroke:none;" x="283" y="1211">CCL26</text>
  <rect height="12" style="fill:rgb(255,255,255);stroke:none;" width="48" x="283" y="1214"/>
  <text style="fill:rgb(128,128,128);stroke:none;" x="283" y="1226">TBC1D1</text>
  <rect height="12" style="fill:rgb(255,255,255);stroke:none;" width="50" x="283" y="1229"/>
  <text style="fill:rgb(128,128,128);stroke:none;" x="283" y="1241">DHCR24</text>
  <rect height="11" style="fill:rgb(255,255,255);stroke:none;" width="37" x="297" y="1244"/>
  <text style="fill:rgb(128,128,128);stroke:none;font-size:11px;" x="297" y="1255">CASP1</text>
  <rect height="11" style="fill:rgb(255,255,255);stroke:none;" width="44" x="297" y="1258"/>
  <text style="fill:rgb(128,128,128);stroke:none;font-size:11px;" x="297" y="1269">PDGFRA</text>
  <rect height="11" style="fill:rgb(255,255,255);stroke:none;" width="33" x="312" y="1272"/>
  <text style="fill:rgb(128,128,128);stroke:none;font-size:11px;" x="312" y="1283">TIMP3</text>
  <rect height="11" style="fill:rgb(255,255,255);stroke:none;" width="44" x="312" y="1286"/>
  <text style="fill:rgb(128,128,128);stroke:none;font-size:11px;" x="312" y="1297">GARNL3</text>
  <rect height="11" style="fill:rgb(255,255,255);stroke:none;" width="59" x="312" y="1300"/>
  <text style="fill:rgb(128,128,128);stroke:none;font-size:11px;" x="312" y="1311">ARHGAP44</text>
  <rect height="11" style="fill:rgb(255,255,255);stroke:none;" width="30" x="341" y="1314"/>
  <text style="fill:rgb(128,128,128);stroke:none;font-size:11px;" x="341" y="1325">CD86</text>
  <rect height="11" style="fill:rgb(255,255,255);stroke:none;" width="30" x="341" y="1328"/>
  <text style="fill:rgb(128,128,128);stroke:none;font-size:11px;" x="341" y="1339">AQP1</text>
  <rect height="11" style="fill:rgb(255,255,255);stroke:none;" width="35" x="356" y="1342"/>
  <text style="fill:rgb(128,128,128);stroke:none;font-size:11px;" x="356" y="1353">FBLN1</text>
  <rect height="11" style="fill:rgb(255,255,255);stroke:none;" width="23" x="370" y="1356"/>
  <text style="fill:rgb(128,128,128);stroke:none;font-size:11px;" x="370" y="1367">A2M</text>
  <rect height="11" style="fill:rgb(255,255,255);stroke:none;" width="28" x="370" y="1370"/>
  <text style="fill:rgb(128,128,128);stroke:none;font-size:11px;" x="370" y="1381">TP63</text>
  <rect height="11" style="fill:rgb(255,255,255);stroke:none;" width="26" x="370" y="1384"/>
  <text style="fill:rgb(128,128,128);stroke:none;font-size:11px;" x="370" y="1395">KLF4</text>
  <rect height="11" style="fill:rgb(255,255,255);stroke:none;" width="29" x="370" y="1398"/>
  <text style="fill:rgb(128,128,128);stroke:none;font-size:11px;" x="370" y="1409">BCL6</text>
  <rect height="11" style="fill:rgb(255,255,255);stroke:none;" width="21" x="385" y="1412"/>
  <text style="fill:rgb(128,128,128);stroke:none;font-size:11px;" x="385" y="1423">FN1</text>
  <rect height="11" style="fill:rgb(255,255,255);stroke:none;" width="30" x="400" y="1426"/>
  <text style="fill:rgb(128,128,128);stroke:none;font-size:11px;" x="400" y="1437">FGD2</text>
  <rect height="11" style="fill:rgb(255,255,255);stroke:none;" width="39" x="400" y="1440"/>
  <text style="fill:rgb(128,128,128);stroke:none;font-size:11px;" x="400" y="1451">NMUR1</text>
</svg>
