<?xml version="1.0" encoding="UTF-8" standalone="no"?>
<!DOCTYPE svg PUBLIC "-//W3C//DTD SVG 1.1//EN" "http://www.w3.org/Graphics/SVG/1.1/DTD/svg11.dtd">
<svg xmlns:xlink="http://www.w3.org/1999/xlink" height="158.74999999999997mm" version="1.1" viewBox="0 0 500 600" width="132.29166666666666mm" x="0mm" y="0mm" xmlns="http://www.w3.org/2000/svg">
  <rect height="1200" style="fill:rgb(255,255,255);stroke:none;" width="1000" x="0" y="0"/>
  <rect height="240" style="fill:rgb(191,191,191);fill-opacity:0.4980392156862745;stroke:none;" width="175" x="225" y="60"/>
  <line style="fill:none;stroke:rgb(63,63,191);stroke-opacity:0.24705882352941178;stroke-miterlimit:10;stroke-linecap:square;" x1="50" x2="-8" y1="300" y2="300"/>
  <line style="fill:none;stroke:rgb(63,63,191);stroke-opacity:0.24705882352941178;stroke-miterlimit:10;stroke-linecap:square;" x1="-8" x2="6" y1="300" y2="300"/>
  <line style="fill:none;stroke:rgb(63,63,191);stroke-opacity:0.24705882352941178;stroke-miterlimit:10;stroke-linecap:square;" x1="6" x2="20" y1="300" y2="300"/>
  <line style="fill:none;stroke:rgb(63,63,191);stroke-opacity:0.24705882352941178;stroke-miterlimit:10;stroke-linecap:square;" x1="20" x2="35" y1="300" y2="300"/>
  <line style="fill:none;stroke:rgb(63,63,191);stroke-opacity:0.24705882352941178;stroke-miterlimit:10;stroke-linecap:square;" x1="35" x2="50" y1="300" y2="300"/>
  <line style="fill:none;stroke:rgb(63,63,191);stroke-opacity:0.24705882352941178;stroke-miterlimit:10;stroke-linecap:square;" x1="50" x2="64" y1="300" y2="290"/>
  <line style="fill:none;stroke:rgb(63,63,191);stroke-opacity:0.24705882352941178;stroke-miterlimit:10;stroke-linecap:square;" x1="64" x2="79" y1="290" y2="280"/>
  <line style="fill:none;stroke:rgb(63,63,191);stroke-opacity:0.24705882352941178;stroke-miterlimit:10;stroke-linecap:square;" x1="79" x2="93" y1="280" y2="270"/>
  <line style="fill:none;stroke:rgb(63,63,191);stroke-opacity:0.24705882352941178;stroke-miterlimit:10;stroke-linecap:square;" x1="93" x2="108" y1="270" y2="260"/>
  <line style="fill:none;stroke:rgb(63,63,191);stroke-opacity:0.24705882352941178;stroke-miterlimit:10;stroke-linecap:square;" x1="108" x2="122" y1="260" y2="250"/>
  <line style="fill:none;stroke:rgb(63,63,191);stroke-opacity:0.24705882352941178;stroke-miterlimit:10;stroke-linecap:square;" x1="122" x2="137" y1="250" y2="240"/>
  <line style="fill:none;stroke:rgb(63,63,191);stroke-opacity:0.24705882352941178;stroke-miterlimit:10;stroke-linecap:square;" x1="137" x2="152" y1="240" y2="230"/>
  <line style="fill:none;stroke:rgb(63,63,191);stroke-opacity:0.24705882352941178;stroke-miterlimit:10;stroke-linecap:square;" x1="152" x2="166" y1="230" y2="220"/>
  <line style="fill:none;stroke:rgb(63,63,191);stroke-opacity:0.24705882352941178;stroke-miterlimit:10;stroke-linecap:square;" x1="166" x2="181" y1="220" y2="210"/>
  <line style="fill:none;stroke:rgb(63,63,191);stroke-opacity:0.24705882352941178;stroke-miterlimit:10;stroke-linecap:square;" x1="181" x2="195" y1="210" y2="200"/>
  <line style="fill:none;stroke:rgb(63,63,191);stroke-opacity:0.24705882352941178;stroke-miterlimit:10;stroke-linecap:square;" x1="195" x2="210" y1="200" y2="190"/>
  <line style="fill:none;stroke:rgb(63,63,191);stroke-opacity:0.24705882352941178;stroke-miterlimit:10;stroke-linecap:square;" x1="210" x2="225" y1="190" y2="180"/>
  <line style="fill:none;stroke:rgb(63,63,191);stroke-opacity:0.24705882352941178;stroke-miterlimit:10;stroke-linecap:square;" x1="225" x2="239" y1="180" y2="170"/>
  <line style="fill:none;stroke:rgb(63,63,191);stroke-opacity:0.24705882352941178;stroke-miterlimit:10;stroke-linecap:square;" x1="239" x2="254" y1="170" y2="160"/>
  <line style="fill:none;stroke:rgb(63,63,191);stroke-opacity:0.24705882352941178;stroke-miterlimit:10;stroke-linecap:square;" x1="254" x2="268" y1="160" y2="150"/>
  <line style="fill:none;stroke:rgb(63,63,191);stroke-opacity:0.24705882352941178;stroke-miterlimit:10;stroke-linecap:square;" x1="268" x2="283" y1="150" y2="140"/>
  <line style="fill:none;stroke:rgb(63,63,191);stroke-opacity:0.24705882352941178;stroke-miterlimit:10;stroke-linecap:square;" x1="283" x2="297" y1="140" y2="130"/>
  <line style="fill:none;stroke:rgb(63,63,191);stroke-opacity:0.24705882352941178;stroke-miterlimit:10;stroke-linecap:square;" x1="297" x2="312" y1="130" y2="120"/>
  <line style="fill:none;stroke:rgb(63,63,191);stroke-opacity:0.24705882352941178;stroke-miterlimit:10;stroke-linecap:square;" x1="312" x2="327" y1="120" y2="110"/>
  <line style="fill:none;stroke:rgb(63,63,191);stroke-opacity:0.24705882352941178;stroke-miterlimit:10;stroke-linecap:square;" x1="327" x2="341" y1="110" y2="100"/>
  <line style="fill:none;stroke:rgb(63,63,191);stroke-opacity:0.24705882352941178;stroke-miterlimit:10;stroke-linecap:square;" x1="341" x2="400" y1="100" y2="60"/>
  <rect height="10" style="fill:rgb(255,127,0);fill-opacity:0.7490196078431373;stroke:none;" width="4" x="-10" y="290"/>
  <line style="fill:none;stroke:rgb(255,127,0);stroke-opacity:0.24705882352941178;stroke-width:2;stroke-miterlimit:10;stroke-linecap:square;" x1="50" x2="-8" y1="300" y2="300"/>
  <line style="fill:none;stroke:rgb(255,127,0);stroke-opacity:0.24705882352941178;stroke-width:2;stroke-miterlimit:10;stroke-linecap:square;" x1="-8" x2="-8" y1="298" y2="292"/>
  <rect height="59" style="fill:rgb(255,127,0);fill-opacity:0.7490196078431373;stroke:none;" width="4" x="4" y="240"/>
  <line style="fill:none;stroke:rgb(255,127,0);stroke-opacity:0.24705882352941178;stroke-width:2;stroke-miterlimit:10;stroke-linecap:square;" x1="-8" x2="6" y1="290" y2="290"/>
  <line style="fill:none;stroke:rgb(255,127,0);stroke-opacity:0.24705882352941178;stroke-width:2;stroke-miterlimit:10;stroke-linecap:square;" x1="6" x2="6" y1="288" y2="232"/>
  <rect height="20" style="fill:rgb(255,127,0);fill-opacity:0.7490196078431373;stroke:none;" width="4" x="18" y="280"/>
  <line style="fill:none;stroke:rgb(255,127,0);stroke-opacity:0.24705882352941178;stroke-width:2;stroke-miterlimit:10;stroke-linecap:square;" x1="6" x2="20" y1="230" y2="230"/>
  <line style="fill:none;stroke:rgb(255,127,0);stroke-opacity:0.24705882352941178;stroke-width:2;stroke-miterlimit:10;stroke-linecap:square;" x1="20" x2="20" y1="228" y2="212"/>
  <rect height="20" style="fill:rgb(255,127,0);fill-opacity:0.7490196078431373;stroke:none;" width="4" x="48" y="280"/>
  <line style="fill:none;stroke:rgb(255,127,0);stroke-opacity:0.24705882352941178;stroke-width:2;stroke-miterlimit:10;stroke-linecap:square;" x1="20" x2="50" y1="210" y2="210"/>
  <line style="fill:none;stroke:rgb(255,127,0);stroke-opacity:0.24705882352941178;stroke-width:2;stroke-miterlimit:10;stroke-linecap:square;" x1="50" x2="50" y1="208" y2="192"/>
  <rect height="10" style="fill:rgb(255,127,0);fill-opacity:0.7490196078431373;stroke:none;" width="4" x="91" y="290"/>
  <line style="fill:none;stroke:rgb(255,127,0);stroke-opacity:0.24705882352941178;stroke-width:2;stroke-miterlimit:10;stroke-linecap:square;" x1="50" x2="93" y1="190" y2="190"/>
  <line style="fill:none;stroke:rgb(255,127,0);stroke-opacity:0.24705882352941178;stroke-width:2;stroke-miterlimit:10;stroke-linecap:square;" x1="93" x2="93" y1="188" y2="182"/>
  <rect height="10" style="fill:rgb(255,127,0);fill-opacity:0.7490196078431373;stroke:none;" width="4" x="150" y="290"/>
  <line style="fill:none;stroke:rgb(255,127,0);stroke-opacity:0.24705882352941178;stroke-width:2;stroke-miterlimit:10;stroke-linecap:square;" x1="93" x2="152" y1="180" y2="180"/>
  <line style="fill:none;stroke:rgb(255,127,0);stroke-opacity:0.24705882352941178;stroke-width:2;stroke-miterlimit:10;stroke-linecap:square;" x1="152" x2="152" y1="178" y2="172"/>
  <rect height="20" style="fill:rgb(255,127,0);fill-opacity:0.7490196078431373;stroke:none;" width="4" x="164" y="280"/>
  <line style="fill:none;stroke:rgb(255,127,0);stroke-opacity:0.24705882352941178;stroke-width:2;stroke-miterlimit:10;stroke-linecap:square;" x1="152" x2="166" y1="170" y2="170"/>
  <line style="fill:none;stroke:rgb(255,127,0);stroke-opacity:0.24705882352941178;stroke-width:2;stroke-miterlimit:10;stroke-linecap:square;" x1="166" x2="166" y1="168" y2="152"/>
  <rect height="20" style="fill:rgb(255,127,0);fill-opacity:0.7490196078431373;stroke:none;" width="4" x="179" y="280"/>
  <line style="fill:none;stroke:rgb(255,127,0);stroke-opacity:0.24705882352941178;stroke-width:2;stroke-miterlimit:10;stroke-linecap:square;" x1="166" x2="181" y1="150" y2="150"/>
  <line style="fill:none;stroke:rgb(255,127,0);stroke-opacity:0.24705882352941178;stroke-width:2;stroke-miterlimit:10;stroke-linecap:square;" x1="181" x2="181" y1="148" y2="132"/>
  <rect height="20" style="fill:rgb(255,127,0);fill-opacity:0.7490196078431373;stroke:none;" width="4" x="193" y="280"/>
  <line style="fill:none;stroke:rgb(255,127,0);stroke-opacity:0.24705882352941178;stroke-width:2;stroke-miterlimit:10;stroke-linecap:square;" x1="181" x2="195" y1="130" y2="130"/>
  <line style="fill:none;stroke:rgb(255,127,0);stroke-opacity:0.24705882352941178;stroke-width:2;stroke-miterlimit:10;stroke-linecap:square;" x1="195" x2="195" y1="128" y2="111"/>
  <rect height="20" style="fill:rgb(255,127,0);fill-opacity:0.7490196078431373;stroke:none;" width="4" x="295" y="280"/>
  <line style="fill:none;stroke:rgb(255,127,0);stroke-opacity:0.24705882352941178;stroke-width:2;stroke-miterlimit:10;stroke-linecap:square;" x1="195" x2="297" y1="109" y2="109"/>
  <line style="fill:none;stroke:rgb(255,127,0);stroke-opacity:0.24705882352941178;stroke-width:2;stroke-miterlimit:10;stroke-linecap:square;" x1="297" x2="297" y1="107" y2="91"/>
  <rect height="20" style="fill:rgb(255,127,0);fill-opacity:0.7490196078431373;stroke:none;" width="4" x="325" y="280"/>
  <line style="fill:none;stroke:rgb(255,127,0);stroke-opacity:0.24705882352941178;stroke-width:2;stroke-miterlimit:10;stroke-linecap:square;" x1="297" x2="327" y1="89" y2="89"/>
  <line style="fill:none;stroke:rgb(255,127,0);stroke-opacity:0.24705882352941178;stroke-width:2;stroke-miterlimit:10;stroke-linecap:square;" x1="327" x2="327" y1="87" y2="71"/>
  <rect height="10" style="fill:rgb(255,127,0);fill-opacity:0.7490196078431373;stroke:none;" width="4" x="339" y="290"/>
  <line style="fill:none;stroke:rgb(255,127,0);stroke-opacity:0.24705882352941178;stroke-width:2;stroke-miterlimit:10;stroke-linecap:square;" x1="327" x2="341" y1="69" y2="69"/>
  <line style="fill:none;stroke:rgb(255,127,0);stroke-opacity:0.24705882352941178;stroke-width:2;stroke-miterlimit:10;stroke-linecap:square;" x1="341" x2="341" y1="67" y2="62"/>
  <line style="fill:none;stroke:rgb(255,127,0);stroke-opacity:0.24705882352941178;stroke-width:2;stroke-miterlimit:10;stroke-linecap:square;" x1="341" x2="400" y1="60" y2="60"/>
  <line style="fill:none;stroke:rgb(255,127,0);stroke-opacity:0.4980392156862745;stroke-miterlimit:2;stroke-dasharray:2;" x1="-8" x2="-8" y1="300" y2="368"/>
  <line style="fill:none;stroke:rgb(255,127,0);stroke-opacity:0.4980392156862745;stroke-miterlimit:2;stroke-dasharray:2;" x1="6" x2="6" y1="300" y2="386"/>
  <line style="fill:none;stroke:rgb(255,127,0);stroke-opacity:0.4980392156862745;stroke-miterlimit:2;stroke-dasharray:2;" x1="6" x2="6" y1="300" y2="404"/>
  <line style="fill:none;stroke:rgb(255,127,0);stroke-opacity:0.4980392156862745;stroke-miterlimit:2;stroke-dasharray:2;" x1="6" x2="6" y1="300" y2="422"/>
  <line style="fill:none;stroke:rgb(255,127,0);stroke-opacity:0.4980392156862745;stroke-miterlimit:2;stroke-dasharray:2;" x1="6" x2="6" y1="300" y2="440"/>
  <line style="fill:none;stroke:rgb(255,127,0);stroke-opacity:0.4980392156862745;stroke-miterlimit:2;stroke-dasharray:2;" x1="6" x2="6" y1="300" y2="458"/>
  <line style="fill:none;stroke:rgb(255,127,0);stroke-opacity:0.4980392156862745;stroke-miterlimit:2;stroke-dasharray:2;" x1="6" x2="6" y1="300" y2="476"/>
  <line style="fill:none;stroke:rgb(255,127,0);stroke-opacity:0.4980392156862745;stroke-miterlimit:2;stroke-dasharray:2;" x1="20" x2="20" y1="300" y2="494"/>
  <line style="fill:none;stroke:rgb(255,127,0);stroke-opacity:0.4980392156862745;stroke-miterlimit:2;stroke-dasharray:2;" x1="20" x2="20" y1="300" y2="512"/>
  <line style="fill:none;stroke:rgb(255,127,0);stroke-opacity:0.4980392156862745;stroke-miterlimit:2;stroke-dasharray:2;" x1="50" x2="50" y1="300" y2="526"/>
  <line style="fill:none;stroke:rgb(255,127,0);stroke-opacity:0.4980392156862745;stroke-miterlimit:2;stroke-dasharray:2;" x1="50" x2="50" y1="300" y2="540"/>
  <line style="fill:none;stroke:rgb(255,127,0);stroke-opacity:0.4980392156862745;stroke-miterlimit:2;stroke-dasharray:2;" x1="93" x2="93" y1="300" y2="553"/>
  <line style="fill:none;stroke:rgb(255,127,0);stroke-opacity:0.4980392156862745;stroke-miterlimit:2;stroke-dasharray:2;" x1="152" x2="152" y1="300" y2="350"/>
  <line style="fill:none;stroke:rgb(255,127,0);stroke-opacity:0.4980392156862745;stroke-miterlimit:2;stroke-dasharray:2;" x1="166" x2="166" y1="300" y2="363"/>
  <line style="fill:none;stroke:rgb(255,127,0);stroke-opacity:0.4980392156862745;stroke-miterlimit:2;stroke-dasharray:2;" x1="166" x2="166" y1="300" y2="376"/>
  <line style="fill:none;stroke:rgb(255,127,0);stroke-opacity:0.4980392156862745;stroke-miterlimit:2;stroke-dasharray:2;" x1="181" x2="181" y1="300" y2="389"/>
  <line style="fill:none;stroke:rgb(255,127,0);stroke-opacity:0.4980392156862745;stroke-miterlimit:2;stroke-dasharray:2;" x1="181" x2="181" y1="300" y2="402"/>
  <line style="fill:none;stroke:rgb(255,127,0);stroke-opacity:0.4980392156862745;stroke-miterlimit:2;stroke-dasharray:2;" x1="195" x2="195" y1="300" y2="415"/>
  <line style="fill:none;stroke:rgb(255,127,0);stroke-opacity:0.4980392156862745;stroke-miterlimit:2;stroke-dasharray:2;" x1="195" x2="195" y1="300" y2="428"/>
  <line style="fill:none;stroke:rgb(255,127,0);stroke-opacity:0.4980392156862745;stroke-miterlimit:2;stroke-dasharray:2;" x1="297" x2="297" y1="300" y2="350"/>
  <line style="fill:none;stroke:rgb(255,127,0);stroke-opacity:0.4980392156862745;stroke-miterlimit:2;stroke-dasharray:2;" x1="297" x2="297" y1="300" y2="363"/>
  <line style="fill:none;stroke:rgb(255,127,0);stroke-opacity:0.4980392156862745;stroke-miterlimit:2;stroke-dasharray:2;" x1="327" x2="327" y1="300" y2="371"/>
  <line style="fill:none;stroke:rgb(255,127,0);stroke-opacity:0.4980392156862745;stroke-miterlimit:2;stroke-dasharray:2;" x1="327" x2="327" y1="300" y2="379"/>
  <line style="fill:none;stroke:rgb(255,127,0);stroke-opacity:0.4980392156862745;stroke-miterlimit:2;stroke-dasharray:2;" x1="341" x2="341" y1="300" y2="387"/>
  <line style="fill:none;stroke:rgb(0,0,0);stroke-width:2;stroke-miterlimit:10;stroke-linecap:square;" x1="48" x2="48" y1="60" y2="300"/>
  <line style="fill:none;stroke:rgb(0,0,0);stroke-width:2;stroke-miterlimit:10;stroke-linecap:square;" x1="48" x2="402" y1="300" y2="300"/>
  <rect height="30" style="fill:rgb(255,255,255);stroke:none;" width="17" x="42" y="308"/>
  <text style="fill:rgb(0,0,0);stroke:none;font-size:25px;font-weight:bold;" x="42" y="332">0</text>
  <rect height="30" style="fill:rgb(255,255,255);stroke:none;" width="34" x="383" y="308"/>
  <text style="fill:rgb(0,0,0);stroke:none;font-size:25px;font-weight:bold;" x="383" y="332">24</text>
  <text style="fill:rgb(0,0,0);stroke:none;font-size:25px;font-weight:bold;" x="25" y="312">0</text>
  <text style="fill:rgb(0,0,0);stroke:none;font-size:25px;font-weight:bold;" x="25" y="72">1</text>
  <text style="fill:rgb(0,0,0);stroke:none;font-size:13px;font-weight:bold;" x="1" y="36">GOBP_POSITIVE_REGULATION_OF_NERVOUS_SYSTEM_DEVELOPMENT</text>
  <rect height="14" style="fill:rgb(255,255,255);stroke:none;" width="52" x="-8" y="354"/>
  <text style="fill:rgb(128,128,128);stroke:none;font-size:15px;" x="-8" y="368">BMPR2</text>
  <rect height="14" style="fill:rgb(255,255,255);stroke:none;" width="49" x="6" y="372"/>
  <text style="fill:rgb(128,128,128);stroke:none;font-size:15px;" x="6" y="386">CXCR4</text>
  <rect height="14" style="fill:rgb(255,255,255);stroke:none;" width="50" x="6" y="390"/>
  <text style="fill:rgb(128,128,128);stroke:none;font-size:15px;" x="6" y="404">GPER1</text>
  <rect height="14" style="fill:rgb(255,255,255);stroke:none;" width="49" x="6" y="408"/>
  <text style="fill:rgb(128,128,128);stroke:none;font-size:15px;" x="6" y="422">EPHB1</text>
  <rect height="14" style="fill:rgb(255,255,255);stroke:none;" width="60" x="6" y="426"/>
  <text style="fill:rgb(128,128,128);stroke:none;font-size:15px;" x="6" y="440">RNF112</text>
  <rect height="14" style="fill:rgb(255,255,255);stroke:none;" width="63" x="6" y="444"/>
  <text style="fill:rgb(128,128,128);stroke:none;font-size:15px;" x="6" y="458">CAPRIN1</text>
  <rect height="14" style="fill:rgb(255,255,255);stroke:none;" width="71" x="6" y="462"/>
  <text style="fill:rgb(128,128,128);stroke:none;font-size:15px;" x="6" y="476">SERPINE2</text>
  <rect height="14" style="fill:rgb(255,255,255);stroke:none;" width="41" x="20" y="480"/>
  <text style="fill:rgb(128,128,128);stroke:none;font-size:15px;" x="20" y="494">BDNF</text>
  <rect height="14" style="fill:rgb(255,255,255);stroke:none;" width="60" x="20" y="498"/>
  <text style="fill:rgb(128,128,128);stroke:none;font-size:15px;" x="20" y="512">AMIGO2</text>
  <rect height="11" style="fill:rgb(255,255,255);stroke:none;" width="36" x="50" y="515"/>
  <text style="fill:rgb(128,128,128);stroke:none;font-size:11px;" x="50" y="526">VEGFA</text>
  <rect height="11" style="fill:rgb(255,255,255);stroke:none;" width="51" x="50" y="529"/>
  <text style="fill:rgb(128,128,128);stroke:none;font-size:11px;" x="50" y="540">MAP3K13</text>
  <rect height="10" style="fill:rgb(255,255,255);stroke:none;" width="32" x="93" y="543"/>
  <text style="fill:rgb(128,128,128);stroke:none;font-size:10px;" x="93" y="553">TGFB1</text>
  <rect height="10" style="fill:rgb(255,255,255);stroke:none;" width="19" x="152" y="340"/>
  <text style="fill:rgb(128,128,128);stroke:none;font-size:10px;" x="152" y="350">TNF</text>
  <rect height="10" style="fill:rgb(255,255,255);stroke:none;" width="41" x="166" y="353"/>
  <text style="fill:rgb(128,128,128);stroke:none;font-size:10px;" x="166" y="363">CX3CR1</text>
  <rect height="10" style="fill:rgb(255,255,255);stroke:none;" width="38" x="166" y="366"/>
  <text style="fill:rgb(128,128,128);stroke:none;font-size:10px;" x="166" y="376">ZNF335</text>
  <rect height="10" style="fill:rgb(255,255,255);stroke:none;" width="32" x="181" y="379"/>
  <text style="fill:rgb(128,128,128);stroke:none;font-size:10px;" x="181" y="389">TRPV2</text>
  <rect height="10" style="fill:rgb(255,255,255);stroke:none;" width="30" x="181" y="392"/>
  <text style="fill:rgb(128,128,128);stroke:none;font-size:10px;" x="181" y="402">FLRT2</text>
  <rect height="10" style="fill:rgb(255,255,255);stroke:none;" width="25" x="195" y="405"/>
  <text style="fill:rgb(128,128,128);stroke:none;font-size:10px;" x="195" y="415">ELL3</text>
  <rect height="10" style="fill:rgb(255,255,255);stroke:none;" width="28" x="195" y="418"/>
  <text style="fill:rgb(128,128,128);stroke:none;font-size:10px;" x="195" y="428">ASPA</text>
  <rect height="10" style="fill:rgb(255,255,255);stroke:none;" width="38" x="297" y="340"/>
  <text style="fill:rgb(128,128,128);stroke:none;font-size:10px;" x="297" y="350">CHODL</text>
  <rect height="10" style="fill:rgb(255,255,255);stroke:none;" width="40" x="297" y="353"/>
  <text style="fill:rgb(128,128,128);stroke:none;font-size:10px;" x="297" y="363">CXCL12</text>
  <rect height="6" style="fill:rgb(255,255,255);stroke:none;" width="11" x="327" y="365"/>
  <text style="fill:rgb(128,128,128);stroke:none;font-size:6px;" x="327" y="371">FN1</text>
  <rect height="6" style="fill:rgb(255,255,255);stroke:none;" width="16" x="327" y="373"/>
  <text style="fill:rgb(128,128,128);stroke:none;font-size:6px;" x="327" y="379">NTN1</text>
  <rect height="6" style="fill:rgb(255,255,255);stroke:none;" width="17" x="341" y="381"/>
  <text style="fill:rgb(128,128,128);stroke:none;font-size:6px;" x="341" y="387">GHRL</text>
</svg>
