<?xml version="1.0" encoding="UTF-8" standalone="no"?>
<!DOCTYPE svg PUBLIC "-//W3C//DTD SVG 1.1//EN" "http://www.w3.org/Graphics/SVG/1.1/DTD/svg11.dtd">
<svg xmlns:xlink="http://www.w3.org/1999/xlink" height="158.74999999999997mm" version="1.1" viewBox="0 0 500 600" width="132.29166666666666mm" x="0mm" y="0mm" xmlns="http://www.w3.org/2000/svg">
  <rect height="1200" style="fill:rgb(255,255,255);stroke:none;" width="1000" x="0" y="0"/>
  <rect height="240" style="fill:rgb(191,191,191);fill-opacity:0.4980392156862745;stroke:none;" width="175" x="225" y="60"/>
  <line style="fill:none;stroke:rgb(63,63,191);stroke-opacity:0.24705882352941178;stroke-miterlimit:10;stroke-linecap:square;" x1="50" x2="-8" y1="300" y2="300"/>
  <line style="fill:none;stroke:rgb(63,63,191);stroke-opacity:0.24705882352941178;stroke-miterlimit:10;stroke-linecap:square;" x1="-8" x2="6" y1="300" y2="300"/>
  <line style="fill:none;stroke:rgb(63,63,191);stroke-opacity:0.24705882352941178;stroke-miterlimit:10;stroke-linecap:square;" x1="6" x2="20" y1="300" y2="300"/>
  <line style="fill:none;stroke:rgb(63,63,191);stroke-opacity:0.24705882352941178;stroke-miterlimit:10;stroke-linecap:square;" x1="20" x2="35" y1="300" y2="300"/>
  <line style="fill:none;stroke:rgb(63,63,191);stroke-opacity:0.24705882352941178;stroke-miterlimit:10;stroke-linecap:square;" x1="35" x2="50" y1="300" y2="300"/>
  <line style="fill:none;stroke:rgb(63,63,191);stroke-opacity:0.24705882352941178;stroke-miterlimit:10;stroke-linecap:square;" x1="50" x2="64" y1="300" y2="290"/>
  <line style="fill:none;stroke:rgb(63,63,191);stroke-opacity:0.24705882352941178;stroke-miterlimit:10;stroke-linecap:square;" x1="64" x2="79" y1="290" y2="280"/>
  <line style="fill:none;stroke:rgb(63,63,191);stroke-opacity:0.24705882352941178;stroke-miterlimit:10;stroke-linecap:square;" x1="79" x2="93" y1="280" y2="270"/>
  <line style="fill:none;stroke:rgb(63,63,191);stroke-opacity:0.24705882352941178;stroke-miterlimit:10;stroke-linecap:square;" x1="93" x2="108" y1="270" y2="260"/>
  <line style="fill:none;stroke:rgb(63,63,191);stroke-opacity:0.24705882352941178;stroke-miterlimit:10;stroke-linecap:square;" x1="108" x2="122" y1="260" y2="250"/>
  <line style="fill:none;stroke:rgb(63,63,191);stroke-opacity:0.24705882352941178;stroke-miterlimit:10;stroke-linecap:square;" x1="122" x2="137" y1="250" y2="240"/>
  <line style="fill:none;stroke:rgb(63,63,191);stroke-opacity:0.24705882352941178;stroke-miterlimit:10;stroke-linecap:square;" x1="137" x2="152" y1="240" y2="230"/>
  <line style="fill:none;stroke:rgb(63,63,191);stroke-opacity:0.24705882352941178;stroke-miterlimit:10;stroke-linecap:square;" x1="152" x2="166" y1="230" y2="220"/>
  <line style="fill:none;stroke:rgb(63,63,191);stroke-opacity:0.24705882352941178;stroke-miterlimit:10;stroke-linecap:square;" x1="166" x2="181" y1="220" y2="210"/>
  <line style="fill:none;stroke:rgb(63,63,191);stroke-opacity:0.24705882352941178;stroke-miterlimit:10;stroke-linecap:square;" x1="181" x2="195" y1="210" y2="200"/>
  <line style="fill:none;stroke:rgb(63,63,191);stroke-opacity:0.24705882352941178;stroke-miterlimit:10;stroke-linecap:square;" x1="195" x2="210" y1="200" y2="190"/>
  <line style="fill:none;stroke:rgb(63,63,191);stroke-opacity:0.24705882352941178;stroke-miterlimit:10;stroke-linecap:square;" x1="210" x2="225" y1="190" y2="180"/>
  <line style="fill:none;stroke:rgb(63,63,191);stroke-opacity:0.24705882352941178;stroke-miterlimit:10;stroke-linecap:square;" x1="225" x2="239" y1="180" y2="170"/>
  <line style="fill:none;stroke:rgb(63,63,191);stroke-opacity:0.24705882352941178;stroke-miterlimit:10;stroke-linecap:square;" x1="239" x2="254" y1="170" y2="160"/>
  <line style="fill:none;stroke:rgb(63,63,191);stroke-opacity:0.24705882352941178;stroke-miterlimit:10;stroke-linecap:square;" x1="254" x2="268" y1="160" y2="150"/>
  <line style="fill:none;stroke:rgb(63,63,191);stroke-opacity:0.24705882352941178;stroke-miterlimit:10;stroke-linecap:square;" x1="268" x2="283" y1="150" y2="140"/>
  <line style="fill:none;stroke:rgb(63,63,191);stroke-opacity:0.24705882352941178;stroke-miterlimit:10;stroke-linecap:square;" x1="283" x2="297" y1="140" y2="130"/>
  <line style="fill:none;stroke:rgb(63,63,191);stroke-opacity:0.24705882352941178;stroke-miterlimit:10;stroke-linecap:square;" x1="297" x2="312" y1="130" y2="120"/>
  <line style="fill:none;stroke:rgb(63,63,191);stroke-opacity:0.24705882352941178;stroke-miterlimit:10;stroke-linecap:square;" x1="312" x2="327" y1="120" y2="110"/>
  <line style="fill:none;stroke:rgb(63,63,191);stroke-opacity:0.24705882352941178;stroke-miterlimit:10;stroke-linecap:square;" x1="327" x2="341" y1="110" y2="100"/>
  <line style="fill:none;stroke:rgb(63,63,191);stroke-opacity:0.24705882352941178;stroke-miterlimit:10;stroke-linecap:square;" x1="341" x2="400" y1="100" y2="60"/>
  <rect height="8" style="fill:rgb(255,127,0);fill-opacity:0.7490196078431373;stroke:none;" width="4" x="-10" y="291"/>
  <line style="fill:none;stroke:rgb(255,127,0);stroke-opacity:0.24705882352941178;stroke-width:2;stroke-miterlimit:10;stroke-linecap:square;" x1="50" x2="-8" y1="300" y2="300"/>
  <line style="fill:none;stroke:rgb(255,127,0);stroke-opacity:0.24705882352941178;stroke-width:2;stroke-miterlimit:10;stroke-linecap:square;" x1="-8" x2="-8" y1="298" y2="293"/>
  <rect height="17" style="fill:rgb(255,127,0);fill-opacity:0.7490196078431373;stroke:none;" width="4" x="4" y="282"/>
  <line style="fill:none;stroke:rgb(255,127,0);stroke-opacity:0.24705882352941178;stroke-width:2;stroke-miterlimit:10;stroke-linecap:square;" x1="-8" x2="6" y1="291" y2="291"/>
  <line style="fill:none;stroke:rgb(255,127,0);stroke-opacity:0.24705882352941178;stroke-width:2;stroke-miterlimit:10;stroke-linecap:square;" x1="6" x2="6" y1="289" y2="275"/>
  <rect height="14" style="fill:rgb(255,127,0);fill-opacity:0.7490196078431373;stroke:none;" width="4" x="18" y="285"/>
  <line style="fill:none;stroke:rgb(255,127,0);stroke-opacity:0.24705882352941178;stroke-width:2;stroke-miterlimit:10;stroke-linecap:square;" x1="6" x2="20" y1="273" y2="273"/>
  <line style="fill:none;stroke:rgb(255,127,0);stroke-opacity:0.24705882352941178;stroke-width:2;stroke-miterlimit:10;stroke-linecap:square;" x1="20" x2="20" y1="271" y2="261"/>
  <rect height="5" style="fill:rgb(255,127,0);fill-opacity:0.7490196078431373;stroke:none;" width="4" x="48" y="294"/>
  <line style="fill:none;stroke:rgb(255,127,0);stroke-opacity:0.24705882352941178;stroke-width:2;stroke-miterlimit:10;stroke-linecap:square;" x1="20" x2="50" y1="259" y2="259"/>
  <line style="fill:none;stroke:rgb(255,127,0);stroke-opacity:0.24705882352941178;stroke-width:2;stroke-miterlimit:10;stroke-linecap:square;" x1="50" x2="50" y1="257" y2="255"/>
  <rect height="5" style="fill:rgb(255,127,0);fill-opacity:0.7490196078431373;stroke:none;" width="4" x="77" y="294"/>
  <line style="fill:none;stroke:rgb(255,127,0);stroke-opacity:0.24705882352941178;stroke-width:2;stroke-miterlimit:10;stroke-linecap:square;" x1="50" x2="79" y1="253" y2="253"/>
  <line style="fill:none;stroke:rgb(255,127,0);stroke-opacity:0.24705882352941178;stroke-width:2;stroke-miterlimit:10;stroke-linecap:square;" x1="79" x2="79" y1="251" y2="249"/>
  <rect height="14" style="fill:rgb(255,127,0);fill-opacity:0.7490196078431373;stroke:none;" width="4" x="91" y="285"/>
  <line style="fill:none;stroke:rgb(255,127,0);stroke-opacity:0.24705882352941178;stroke-width:2;stroke-miterlimit:10;stroke-linecap:square;" x1="79" x2="93" y1="247" y2="247"/>
  <line style="fill:none;stroke:rgb(255,127,0);stroke-opacity:0.24705882352941178;stroke-width:2;stroke-miterlimit:10;stroke-linecap:square;" x1="93" x2="93" y1="245" y2="235"/>
  <rect height="5" style="fill:rgb(255,127,0);fill-opacity:0.7490196078431373;stroke:none;" width="4" x="106" y="294"/>
  <line style="fill:none;stroke:rgb(255,127,0);stroke-opacity:0.24705882352941178;stroke-width:2;stroke-miterlimit:10;stroke-linecap:square;" x1="93" x2="108" y1="233" y2="233"/>
  <line style="fill:none;stroke:rgb(255,127,0);stroke-opacity:0.24705882352941178;stroke-width:2;stroke-miterlimit:10;stroke-linecap:square;" x1="108" x2="108" y1="231" y2="229"/>
  <rect height="11" style="fill:rgb(255,127,0);fill-opacity:0.7490196078431373;stroke:none;" width="4" x="135" y="288"/>
  <line style="fill:none;stroke:rgb(255,127,0);stroke-opacity:0.24705882352941178;stroke-width:2;stroke-miterlimit:10;stroke-linecap:square;" x1="108" x2="137" y1="227" y2="227"/>
  <line style="fill:none;stroke:rgb(255,127,0);stroke-opacity:0.24705882352941178;stroke-width:2;stroke-miterlimit:10;stroke-linecap:square;" x1="137" x2="137" y1="225" y2="218"/>
  <rect height="11" style="fill:rgb(255,127,0);fill-opacity:0.7490196078431373;stroke:none;" width="4" x="150" y="288"/>
  <line style="fill:none;stroke:rgb(255,127,0);stroke-opacity:0.24705882352941178;stroke-width:2;stroke-miterlimit:10;stroke-linecap:square;" x1="137" x2="152" y1="216" y2="216"/>
  <line style="fill:none;stroke:rgb(255,127,0);stroke-opacity:0.24705882352941178;stroke-width:2;stroke-miterlimit:10;stroke-linecap:square;" x1="152" x2="152" y1="214" y2="206"/>
  <rect height="11" style="fill:rgb(255,127,0);fill-opacity:0.7490196078431373;stroke:none;" width="4" x="164" y="288"/>
  <line style="fill:none;stroke:rgb(255,127,0);stroke-opacity:0.24705882352941178;stroke-width:2;stroke-miterlimit:10;stroke-linecap:square;" x1="152" x2="166" y1="204" y2="204"/>
  <line style="fill:none;stroke:rgb(255,127,0);stroke-opacity:0.24705882352941178;stroke-width:2;stroke-miterlimit:10;stroke-linecap:square;" x1="166" x2="166" y1="202" y2="195"/>
  <rect height="14" style="fill:rgb(255,127,0);fill-opacity:0.7490196078431373;stroke:none;" width="4" x="179" y="285"/>
  <line style="fill:none;stroke:rgb(255,127,0);stroke-opacity:0.24705882352941178;stroke-width:2;stroke-miterlimit:10;stroke-linecap:square;" x1="166" x2="181" y1="193" y2="193"/>
  <line style="fill:none;stroke:rgb(255,127,0);stroke-opacity:0.24705882352941178;stroke-width:2;stroke-miterlimit:10;stroke-linecap:square;" x1="181" x2="181" y1="191" y2="180"/>
  <rect height="28" style="fill:rgb(255,127,0);fill-opacity:0.7490196078431373;stroke:none;" width="4" x="193" y="271"/>
  <line style="fill:none;stroke:rgb(255,127,0);stroke-opacity:0.24705882352941178;stroke-width:2;stroke-miterlimit:10;stroke-linecap:square;" x1="181" x2="195" y1="178" y2="178"/>
  <line style="fill:none;stroke:rgb(255,127,0);stroke-opacity:0.24705882352941178;stroke-width:2;stroke-miterlimit:10;stroke-linecap:square;" x1="195" x2="195" y1="176" y2="151"/>
  <rect height="14" style="fill:rgb(255,127,0);fill-opacity:0.7490196078431373;stroke:none;" width="4" x="208" y="285"/>
  <line style="fill:none;stroke:rgb(255,127,0);stroke-opacity:0.24705882352941178;stroke-width:2;stroke-miterlimit:10;stroke-linecap:square;" x1="195" x2="210" y1="149" y2="149"/>
  <line style="fill:none;stroke:rgb(255,127,0);stroke-opacity:0.24705882352941178;stroke-width:2;stroke-miterlimit:10;stroke-linecap:square;" x1="210" x2="210" y1="147" y2="137"/>
  <rect height="11" style="fill:rgb(255,127,0);fill-opacity:0.7490196078431373;stroke:none;" width="4" x="223" y="288"/>
  <line style="fill:none;stroke:rgb(255,127,0);stroke-opacity:0.24705882352941178;stroke-width:2;stroke-miterlimit:10;stroke-linecap:square;" x1="210" x2="225" y1="135" y2="135"/>
  <line style="fill:none;stroke:rgb(255,127,0);stroke-opacity:0.24705882352941178;stroke-width:2;stroke-miterlimit:10;stroke-linecap:square;" x1="225" x2="225" y1="133" y2="125"/>
  <rect height="8" style="fill:rgb(255,127,0);fill-opacity:0.7490196078431373;stroke:none;" width="4" x="237" y="291"/>
  <line style="fill:none;stroke:rgb(255,127,0);stroke-opacity:0.24705882352941178;stroke-width:2;stroke-miterlimit:10;stroke-linecap:square;" x1="225" x2="239" y1="123" y2="123"/>
  <line style="fill:none;stroke:rgb(255,127,0);stroke-opacity:0.24705882352941178;stroke-width:2;stroke-miterlimit:10;stroke-linecap:square;" x1="239" x2="239" y1="121" y2="116"/>
  <rect height="5" style="fill:rgb(255,127,0);fill-opacity:0.7490196078431373;stroke:none;" width="4" x="252" y="294"/>
  <line style="fill:none;stroke:rgb(255,127,0);stroke-opacity:0.24705882352941178;stroke-width:2;stroke-miterlimit:10;stroke-linecap:square;" x1="239" x2="254" y1="114" y2="114"/>
  <line style="fill:none;stroke:rgb(255,127,0);stroke-opacity:0.24705882352941178;stroke-width:2;stroke-miterlimit:10;stroke-linecap:square;" x1="254" x2="254" y1="112" y2="111"/>
  <rect height="5" style="fill:rgb(255,127,0);fill-opacity:0.7490196078431373;stroke:none;" width="4" x="266" y="294"/>
  <line style="fill:none;stroke:rgb(255,127,0);stroke-opacity:0.24705882352941178;stroke-width:2;stroke-miterlimit:10;stroke-linecap:square;" x1="254" x2="268" y1="109" y2="109"/>
  <line style="fill:none;stroke:rgb(255,127,0);stroke-opacity:0.24705882352941178;stroke-width:2;stroke-miterlimit:10;stroke-linecap:square;" x1="268" x2="268" y1="107" y2="105"/>
  <rect height="5" style="fill:rgb(255,127,0);fill-opacity:0.7490196078431373;stroke:none;" width="4" x="281" y="294"/>
  <line style="fill:none;stroke:rgb(255,127,0);stroke-opacity:0.24705882352941178;stroke-width:2;stroke-miterlimit:10;stroke-linecap:square;" x1="268" x2="283" y1="103" y2="103"/>
  <line style="fill:none;stroke:rgb(255,127,0);stroke-opacity:0.24705882352941178;stroke-width:2;stroke-miterlimit:10;stroke-linecap:square;" x1="283" x2="283" y1="101" y2="99"/>
  <rect height="5" style="fill:rgb(255,127,0);fill-opacity:0.7490196078431373;stroke:none;" width="4" x="295" y="294"/>
  <line style="fill:none;stroke:rgb(255,127,0);stroke-opacity:0.24705882352941178;stroke-width:2;stroke-miterlimit:10;stroke-linecap:square;" x1="283" x2="297" y1="97" y2="97"/>
  <line style="fill:none;stroke:rgb(255,127,0);stroke-opacity:0.24705882352941178;stroke-width:2;stroke-miterlimit:10;stroke-linecap:square;" x1="297" x2="297" y1="95" y2="93"/>
  <rect height="11" style="fill:rgb(255,127,0);fill-opacity:0.7490196078431373;stroke:none;" width="4" x="310" y="288"/>
  <line style="fill:none;stroke:rgb(255,127,0);stroke-opacity:0.24705882352941178;stroke-width:2;stroke-miterlimit:10;stroke-linecap:square;" x1="297" x2="312" y1="91" y2="91"/>
  <line style="fill:none;stroke:rgb(255,127,0);stroke-opacity:0.24705882352941178;stroke-width:2;stroke-miterlimit:10;stroke-linecap:square;" x1="312" x2="312" y1="89" y2="82"/>
  <rect height="14" style="fill:rgb(255,127,0);fill-opacity:0.7490196078431373;stroke:none;" width="4" x="325" y="285"/>
  <line style="fill:none;stroke:rgb(255,127,0);stroke-opacity:0.24705882352941178;stroke-width:2;stroke-miterlimit:10;stroke-linecap:square;" x1="312" x2="327" y1="80" y2="80"/>
  <line style="fill:none;stroke:rgb(255,127,0);stroke-opacity:0.24705882352941178;stroke-width:2;stroke-miterlimit:10;stroke-linecap:square;" x1="327" x2="327" y1="78" y2="67"/>
  <rect height="5" style="fill:rgb(255,127,0);fill-opacity:0.7490196078431373;stroke:none;" width="4" x="339" y="294"/>
  <line style="fill:none;stroke:rgb(255,127,0);stroke-opacity:0.24705882352941178;stroke-width:2;stroke-miterlimit:10;stroke-linecap:square;" x1="327" x2="341" y1="65" y2="65"/>
  <line style="fill:none;stroke:rgb(255,127,0);stroke-opacity:0.24705882352941178;stroke-width:2;stroke-miterlimit:10;stroke-linecap:square;" x1="341" x2="341" y1="63" y2="62"/>
  <line style="fill:none;stroke:rgb(255,127,0);stroke-opacity:0.24705882352941178;stroke-width:2;stroke-miterlimit:10;stroke-linecap:square;" x1="341" x2="400" y1="60" y2="60"/>
  <line style="fill:none;stroke:rgb(255,127,0);stroke-opacity:0.4980392156862745;stroke-miterlimit:2;stroke-dasharray:2;" x1="-8" x2="-8" y1="300" y2="367"/>
  <line style="fill:none;stroke:rgb(255,127,0);stroke-opacity:0.4980392156862745;stroke-miterlimit:2;stroke-dasharray:2;" x1="-8" x2="-8" y1="300" y2="384"/>
  <line style="fill:none;stroke:rgb(255,127,0);stroke-opacity:0.4980392156862745;stroke-miterlimit:2;stroke-dasharray:2;" x1="-8" x2="-8" y1="300" y2="401"/>
  <line style="fill:none;stroke:rgb(255,127,0);stroke-opacity:0.4980392156862745;stroke-miterlimit:2;stroke-dasharray:2;" x1="6" x2="6" y1="300" y2="418"/>
  <line style="fill:none;stroke:rgb(255,127,0);stroke-opacity:0.4980392156862745;stroke-miterlimit:2;stroke-dasharray:2;" x1="6" x2="6" y1="300" y2="435"/>
  <line style="fill:none;stroke:rgb(255,127,0);stroke-opacity:0.4980392156862745;stroke-miterlimit:2;stroke-dasharray:2;" x1="6" x2="6" y1="300" y2="452"/>
  <line style="fill:none;stroke:rgb(255,127,0);stroke-opacity:0.4980392156862745;stroke-miterlimit:2;stroke-dasharray:2;" x1="6" x2="6" y1="300" y2="469"/>
  <line style="fill:none;stroke:rgb(255,127,0);stroke-opacity:0.4980392156862745;stroke-miterlimit:2;stroke-dasharray:2;" x1="6" x2="6" y1="300" y2="486"/>
  <line style="fill:none;stroke:rgb(255,127,0);stroke-opacity:0.4980392156862745;stroke-miterlimit:2;stroke-dasharray:2;" x1="6" x2="6" y1="300" y2="503"/>
  <line style="fill:none;stroke:rgb(255,127,0);stroke-opacity:0.4980392156862745;stroke-miterlimit:2;stroke-dasharray:2;" x1="20" x2="20" y1="300" y2="520"/>
  <line style="fill:none;stroke:rgb(255,127,0);stroke-opacity:0.4980392156862745;stroke-miterlimit:2;stroke-dasharray:2;" x1="20" x2="20" y1="300" y2="537"/>
  <line style="fill:none;stroke:rgb(255,127,0);stroke-opacity:0.4980392156862745;stroke-miterlimit:2;stroke-dasharray:2;" x1="20" x2="20" y1="300" y2="554"/>
  <line style="fill:none;stroke:rgb(255,127,0);stroke-opacity:0.4980392156862745;stroke-miterlimit:2;stroke-dasharray:2;" x1="20" x2="20" y1="300" y2="571"/>
  <line style="fill:none;stroke:rgb(255,127,0);stroke-opacity:0.4980392156862745;stroke-miterlimit:2;stroke-dasharray:2;" x1="20" x2="20" y1="300" y2="588"/>
  <line style="fill:none;stroke:rgb(255,127,0);stroke-opacity:0.4980392156862745;stroke-miterlimit:2;stroke-dasharray:2;" x1="50" x2="50" y1="300" y2="603"/>
  <line style="fill:none;stroke:rgb(255,127,0);stroke-opacity:0.4980392156862745;stroke-miterlimit:2;stroke-dasharray:2;" x1="50" x2="50" y1="300" y2="618"/>
  <line style="fill:none;stroke:rgb(255,127,0);stroke-opacity:0.4980392156862745;stroke-miterlimit:2;stroke-dasharray:2;" x1="79" x2="79" y1="300" y2="633"/>
  <line style="fill:none;stroke:rgb(255,127,0);stroke-opacity:0.4980392156862745;stroke-miterlimit:2;stroke-dasharray:2;" x1="79" x2="79" y1="300" y2="648"/>
  <line style="fill:none;stroke:rgb(255,127,0);stroke-opacity:0.4980392156862745;stroke-miterlimit:2;stroke-dasharray:2;" x1="93" x2="93" y1="300" y2="663"/>
  <line style="fill:none;stroke:rgb(255,127,0);stroke-opacity:0.4980392156862745;stroke-miterlimit:2;stroke-dasharray:2;" x1="93" x2="93" y1="300" y2="678"/>
  <line style="fill:none;stroke:rgb(255,127,0);stroke-opacity:0.4980392156862745;stroke-miterlimit:2;stroke-dasharray:2;" x1="93" x2="93" y1="300" y2="693"/>
  <line style="fill:none;stroke:rgb(255,127,0);stroke-opacity:0.4980392156862745;stroke-miterlimit:2;stroke-dasharray:2;" x1="93" x2="93" y1="300" y2="708"/>
  <line style="fill:none;stroke:rgb(255,127,0);stroke-opacity:0.4980392156862745;stroke-miterlimit:2;stroke-dasharray:2;" x1="93" x2="93" y1="300" y2="723"/>
  <line style="fill:none;stroke:rgb(255,127,0);stroke-opacity:0.4980392156862745;stroke-miterlimit:2;stroke-dasharray:2;" x1="108" x2="108" y1="300" y2="738"/>
  <line style="fill:none;stroke:rgb(255,127,0);stroke-opacity:0.4980392156862745;stroke-miterlimit:2;stroke-dasharray:2;" x1="108" x2="108" y1="300" y2="753"/>
  <line style="fill:none;stroke:rgb(255,127,0);stroke-opacity:0.4980392156862745;stroke-miterlimit:2;stroke-dasharray:2;" x1="137" x2="137" y1="300" y2="767"/>
  <line style="fill:none;stroke:rgb(255,127,0);stroke-opacity:0.4980392156862745;stroke-miterlimit:2;stroke-dasharray:2;" x1="137" x2="137" y1="300" y2="781"/>
  <line style="fill:none;stroke:rgb(255,127,0);stroke-opacity:0.4980392156862745;stroke-miterlimit:2;stroke-dasharray:2;" x1="137" x2="137" y1="300" y2="795"/>
  <line style="fill:none;stroke:rgb(255,127,0);stroke-opacity:0.4980392156862745;stroke-miterlimit:2;stroke-dasharray:2;" x1="137" x2="137" y1="300" y2="809"/>
  <line style="fill:none;stroke:rgb(255,127,0);stroke-opacity:0.4980392156862745;stroke-miterlimit:2;stroke-dasharray:2;" x1="152" x2="152" y1="300" y2="823"/>
  <line style="fill:none;stroke:rgb(255,127,0);stroke-opacity:0.4980392156862745;stroke-miterlimit:2;stroke-dasharray:2;" x1="152" x2="152" y1="300" y2="837"/>
  <line style="fill:none;stroke:rgb(255,127,0);stroke-opacity:0.4980392156862745;stroke-miterlimit:2;stroke-dasharray:2;" x1="152" x2="152" y1="300" y2="851"/>
  <line style="fill:none;stroke:rgb(255,127,0);stroke-opacity:0.4980392156862745;stroke-miterlimit:2;stroke-dasharray:2;" x1="152" x2="152" y1="300" y2="865"/>
  <line style="fill:none;stroke:rgb(255,127,0);stroke-opacity:0.4980392156862745;stroke-miterlimit:2;stroke-dasharray:2;" x1="166" x2="166" y1="300" y2="879"/>
  <line style="fill:none;stroke:rgb(255,127,0);stroke-opacity:0.4980392156862745;stroke-miterlimit:2;stroke-dasharray:2;" x1="166" x2="166" y1="300" y2="893"/>
  <line style="fill:none;stroke:rgb(255,127,0);stroke-opacity:0.4980392156862745;stroke-miterlimit:2;stroke-dasharray:2;" x1="166" x2="166" y1="300" y2="907"/>
  <line style="fill:none;stroke:rgb(255,127,0);stroke-opacity:0.4980392156862745;stroke-miterlimit:2;stroke-dasharray:2;" x1="166" x2="166" y1="300" y2="921"/>
  <line style="fill:none;stroke:rgb(255,127,0);stroke-opacity:0.4980392156862745;stroke-miterlimit:2;stroke-dasharray:2;" x1="181" x2="181" y1="300" y2="935"/>
  <line style="fill:none;stroke:rgb(255,127,0);stroke-opacity:0.4980392156862745;stroke-miterlimit:2;stroke-dasharray:2;" x1="181" x2="181" y1="300" y2="949"/>
  <line style="fill:none;stroke:rgb(255,127,0);stroke-opacity:0.4980392156862745;stroke-miterlimit:2;stroke-dasharray:2;" x1="181" x2="181" y1="300" y2="963"/>
  <line style="fill:none;stroke:rgb(255,127,0);stroke-opacity:0.4980392156862745;stroke-miterlimit:2;stroke-dasharray:2;" x1="181" x2="181" y1="300" y2="977"/>
  <line style="fill:none;stroke:rgb(255,127,0);stroke-opacity:0.4980392156862745;stroke-miterlimit:2;stroke-dasharray:2;" x1="181" x2="181" y1="300" y2="991"/>
  <line style="fill:none;stroke:rgb(255,127,0);stroke-opacity:0.4980392156862745;stroke-miterlimit:2;stroke-dasharray:2;" x1="195" x2="195" y1="300" y2="1005"/>
  <line style="fill:none;stroke:rgb(255,127,0);stroke-opacity:0.4980392156862745;stroke-miterlimit:2;stroke-dasharray:2;" x1="195" x2="195" y1="300" y2="1019"/>
  <line style="fill:none;stroke:rgb(255,127,0);stroke-opacity:0.4980392156862745;stroke-miterlimit:2;stroke-dasharray:2;" x1="195" x2="195" y1="300" y2="1033"/>
  <line style="fill:none;stroke:rgb(255,127,0);stroke-opacity:0.4980392156862745;stroke-miterlimit:2;stroke-dasharray:2;" x1="195" x2="195" y1="300" y2="1047"/>
  <line style="fill:none;stroke:rgb(255,127,0);stroke-opacity:0.4980392156862745;stroke-miterlimit:2;stroke-dasharray:2;" x1="195" x2="195" y1="300" y2="1061"/>
  <line style="fill:none;stroke:rgb(255,127,0);stroke-opacity:0.4980392156862745;stroke-miterlimit:2;stroke-dasharray:2;" x1="195" x2="195" y1="300" y2="1075"/>
  <line style="fill:none;stroke:rgb(255,127,0);stroke-opacity:0.4980392156862745;stroke-miterlimit:2;stroke-dasharray:2;" x1="195" x2="195" y1="300" y2="1089"/>
  <line style="fill:none;stroke:rgb(255,127,0);stroke-opacity:0.4980392156862745;stroke-miterlimit:2;stroke-dasharray:2;" x1="195" x2="195" y1="300" y2="1103"/>
  <line style="fill:none;stroke:rgb(255,127,0);stroke-opacity:0.4980392156862745;stroke-miterlimit:2;stroke-dasharray:2;" x1="195" x2="195" y1="300" y2="1117"/>
  <line style="fill:none;stroke:rgb(255,127,0);stroke-opacity:0.4980392156862745;stroke-miterlimit:2;stroke-dasharray:2;" x1="195" x2="195" y1="300" y2="1131"/>
  <line style="fill:none;stroke:rgb(255,127,0);stroke-opacity:0.4980392156862745;stroke-miterlimit:2;stroke-dasharray:2;" x1="210" x2="210" y1="300" y2="1145"/>
  <line style="fill:none;stroke:rgb(255,127,0);stroke-opacity:0.4980392156862745;stroke-miterlimit:2;stroke-dasharray:2;" x1="210" x2="210" y1="300" y2="1159"/>
  <line style="fill:none;stroke:rgb(255,127,0);stroke-opacity:0.4980392156862745;stroke-miterlimit:2;stroke-dasharray:2;" x1="210" x2="210" y1="300" y2="1173"/>
  <line style="fill:none;stroke:rgb(255,127,0);stroke-opacity:0.4980392156862745;stroke-miterlimit:2;stroke-dasharray:2;" x1="210" x2="210" y1="300" y2="1187"/>
  <line style="fill:none;stroke:rgb(255,127,0);stroke-opacity:0.4980392156862745;stroke-miterlimit:2;stroke-dasharray:2;" x1="210" x2="210" y1="300" y2="1201"/>
  <line style="fill:none;stroke:rgb(255,127,0);stroke-opacity:0.4980392156862745;stroke-miterlimit:2;stroke-dasharray:2;" x1="225" x2="225" y1="300" y2="1215"/>
  <line style="fill:none;stroke:rgb(255,127,0);stroke-opacity:0.4980392156862745;stroke-miterlimit:2;stroke-dasharray:2;" x1="225" x2="225" y1="300" y2="1229"/>
  <line style="fill:none;stroke:rgb(255,127,0);stroke-opacity:0.4980392156862745;stroke-miterlimit:2;stroke-dasharray:2;" x1="225" x2="225" y1="300" y2="1243"/>
  <line style="fill:none;stroke:rgb(255,127,0);stroke-opacity:0.4980392156862745;stroke-miterlimit:2;stroke-dasharray:2;" x1="225" x2="225" y1="300" y2="1257"/>
  <line style="fill:none;stroke:rgb(255,127,0);stroke-opacity:0.4980392156862745;stroke-miterlimit:2;stroke-dasharray:2;" x1="239" x2="239" y1="300" y2="1271"/>
  <line style="fill:none;stroke:rgb(255,127,0);stroke-opacity:0.4980392156862745;stroke-miterlimit:2;stroke-dasharray:2;" x1="239" x2="239" y1="300" y2="1285"/>
  <line style="fill:none;stroke:rgb(255,127,0);stroke-opacity:0.4980392156862745;stroke-miterlimit:2;stroke-dasharray:2;" x1="239" x2="239" y1="300" y2="1299"/>
  <line style="fill:none;stroke:rgb(255,127,0);stroke-opacity:0.4980392156862745;stroke-miterlimit:2;stroke-dasharray:2;" x1="254" x2="254" y1="300" y2="1313"/>
  <line style="fill:none;stroke:rgb(255,127,0);stroke-opacity:0.4980392156862745;stroke-miterlimit:2;stroke-dasharray:2;" x1="254" x2="254" y1="300" y2="1327"/>
  <line style="fill:none;stroke:rgb(255,127,0);stroke-opacity:0.4980392156862745;stroke-miterlimit:2;stroke-dasharray:2;" x1="268" x2="268" y1="300" y2="1341"/>
  <line style="fill:none;stroke:rgb(255,127,0);stroke-opacity:0.4980392156862745;stroke-miterlimit:2;stroke-dasharray:2;" x1="268" x2="268" y1="300" y2="1355"/>
  <line style="fill:none;stroke:rgb(255,127,0);stroke-opacity:0.4980392156862745;stroke-miterlimit:2;stroke-dasharray:2;" x1="283" x2="283" y1="300" y2="1369"/>
  <line style="fill:none;stroke:rgb(255,127,0);stroke-opacity:0.4980392156862745;stroke-miterlimit:2;stroke-dasharray:2;" x1="283" x2="283" y1="300" y2="1383"/>
  <line style="fill:none;stroke:rgb(255,127,0);stroke-opacity:0.4980392156862745;stroke-miterlimit:2;stroke-dasharray:2;" x1="297" x2="297" y1="300" y2="1397"/>
  <line style="fill:none;stroke:rgb(255,127,0);stroke-opacity:0.4980392156862745;stroke-miterlimit:2;stroke-dasharray:2;" x1="297" x2="297" y1="300" y2="1411"/>
  <line style="fill:none;stroke:rgb(255,127,0);stroke-opacity:0.4980392156862745;stroke-miterlimit:2;stroke-dasharray:2;" x1="312" x2="312" y1="300" y2="1425"/>
  <line style="fill:none;stroke:rgb(255,127,0);stroke-opacity:0.4980392156862745;stroke-miterlimit:2;stroke-dasharray:2;" x1="312" x2="312" y1="300" y2="1439"/>
  <line style="fill:none;stroke:rgb(255,127,0);stroke-opacity:0.4980392156862745;stroke-miterlimit:2;stroke-dasharray:2;" x1="312" x2="312" y1="300" y2="1453"/>
  <line style="fill:none;stroke:rgb(255,127,0);stroke-opacity:0.4980392156862745;stroke-miterlimit:2;stroke-dasharray:2;" x1="312" x2="312" y1="300" y2="1467"/>
  <line style="fill:none;stroke:rgb(255,127,0);stroke-opacity:0.4980392156862745;stroke-miterlimit:2;stroke-dasharray:2;" x1="327" x2="327" y1="300" y2="1481"/>
  <line style="fill:none;stroke:rgb(255,127,0);stroke-opacity:0.4980392156862745;stroke-miterlimit:2;stroke-dasharray:2;" x1="327" x2="327" y1="300" y2="1495"/>
  <line style="fill:none;stroke:rgb(255,127,0);stroke-opacity:0.4980392156862745;stroke-miterlimit:2;stroke-dasharray:2;" x1="327" x2="327" y1="300" y2="1509"/>
  <line style="fill:none;stroke:rgb(255,127,0);stroke-opacity:0.4980392156862745;stroke-miterlimit:2;stroke-dasharray:2;" x1="327" x2="327" y1="300" y2="1523"/>
  <line style="fill:none;stroke:rgb(255,127,0);stroke-opacity:0.4980392156862745;stroke-miterlimit:2;stroke-dasharray:2;" x1="327" x2="327" y1="300" y2="1537"/>
  <line style="fill:none;stroke:rgb(255,127,0);stroke-opacity:0.4980392156862745;stroke-miterlimit:2;stroke-dasharray:2;" x1="341" x2="341" y1="300" y2="1551"/>
  <line style="fill:none;stroke:rgb(255,127,0);stroke-opacity:0.4980392156862745;stroke-miterlimit:2;stroke-dasharray:2;" x1="341" x2="341" y1="300" y2="1565"/>
  <line style="fill:none;stroke:rgb(0,0,0);stroke-width:2;stroke-miterlimit:10;stroke-linecap:square;" x1="48" x2="48" y1="60" y2="300"/>
  <line style="fill:none;stroke:rgb(0,0,0);stroke-width:2;stroke-miterlimit:10;stroke-linecap:square;" x1="48" x2="402" y1="300" y2="300"/>
  <rect height="30" style="fill:rgb(255,255,255);stroke:none;" width="17" x="42" y="308"/>
  <text style="fill:rgb(0,0,0);stroke:none;font-size:25px;font-weight:bold;" x="42" y="332">0</text>
  <rect height="30" style="fill:rgb(255,255,255);stroke:none;" width="34" x="383" y="308"/>
  <text style="fill:rgb(0,0,0);stroke:none;font-size:25px;font-weight:bold;" x="383" y="332">24</text>
  <text style="fill:rgb(0,0,0);stroke:none;font-size:25px;font-weight:bold;" x="25" y="312">0</text>
  <text style="fill:rgb(0,0,0);stroke:none;font-size:25px;font-weight:bold;" x="25" y="72">1</text>
  <text style="fill:rgb(0,0,0);stroke:none;font-size:11px;font-weight:bold;" x="13" y="35">GOBP_NEGATIVE_REGULATION_OF_MULTICELLULAR_ORGANISMAL_PROCESS</text>
  <rect height="13" style="fill:rgb(255,255,255);stroke:none;" width="50" x="-8" y="354"/>
  <text style="fill:rgb(128,128,128);stroke:none;font-size:14px;" x="-8" y="367">BMPR2</text>
  <rect height="13" style="fill:rgb(255,255,255);stroke:none;" width="48" x="-8" y="371"/>
  <text style="fill:rgb(128,128,128);stroke:none;font-size:14px;" x="-8" y="384">ECSCR</text>
  <rect height="13" style="fill:rgb(255,255,255);stroke:none;" width="55" x="-8" y="388"/>
  <text style="fill:rgb(128,128,128);stroke:none;font-size:14px;" x="-8" y="401">LRRC17</text>
  <rect height="13" style="fill:rgb(255,255,255);stroke:none;" width="29" x="6" y="405"/>
  <text style="fill:rgb(128,128,128);stroke:none;font-size:14px;" x="6" y="418">EZR</text>
  <rect height="13" style="fill:rgb(255,255,255);stroke:none;" width="37" x="6" y="422"/>
  <text style="fill:rgb(128,128,128);stroke:none;font-size:14px;" x="6" y="435">CTSK</text>
  <rect height="13" style="fill:rgb(255,255,255);stroke:none;" width="38" x="6" y="439"/>
  <text style="fill:rgb(128,128,128);stroke:none;font-size:14px;" x="6" y="452">CRY1</text>
  <rect height="13" style="fill:rgb(255,255,255);stroke:none;" width="32" x="6" y="456"/>
  <text style="fill:rgb(128,128,128);stroke:none;font-size:14px;" x="6" y="469">ITCH</text>
  <rect height="13" style="fill:rgb(255,255,255);stroke:none;" width="41" x="6" y="473"/>
  <text style="fill:rgb(128,128,128);stroke:none;font-size:14px;" x="6" y="486">RGCC</text>
  <rect height="13" style="fill:rgb(255,255,255);stroke:none;" width="68" x="6" y="490"/>
  <text style="fill:rgb(128,128,128);stroke:none;font-size:14px;" x="6" y="503">SERPINE2</text>
  <rect height="13" style="fill:rgb(255,255,255);stroke:none;" width="32" x="20" y="507"/>
  <text style="fill:rgb(128,128,128);stroke:none;font-size:14px;" x="20" y="520">ADM</text>
  <rect height="13" style="fill:rgb(255,255,255);stroke:none;" width="31" x="20" y="524"/>
  <text style="fill:rgb(128,128,128);stroke:none;font-size:14px;" x="20" y="537">RAI1</text>
  <rect height="13" style="fill:rgb(255,255,255);stroke:none;" width="40" x="20" y="541"/>
  <text style="fill:rgb(128,128,128);stroke:none;font-size:14px;" x="20" y="554">C1QC</text>
  <rect height="13" style="fill:rgb(255,255,255);stroke:none;" width="48" x="20" y="558"/>
  <text style="fill:rgb(128,128,128);stroke:none;font-size:14px;" x="20" y="571">FOXO1</text>
  <rect height="13" style="fill:rgb(255,255,255);stroke:none;" width="57" x="20" y="575"/>
  <text style="fill:rgb(128,128,128);stroke:none;font-size:14px;" x="20" y="588">TGFBR2</text>
  <rect height="12" style="fill:rgb(255,255,255);stroke:none;" width="30" x="50" y="591"/>
  <text style="fill:rgb(128,128,128);stroke:none;" x="50" y="603">LRP4</text>
  <rect height="12" style="fill:rgb(255,255,255);stroke:none;" width="38" x="50" y="606"/>
  <text style="fill:rgb(128,128,128);stroke:none;" x="50" y="618">ARNTL</text>
  <rect height="12" style="fill:rgb(255,255,255);stroke:none;" width="20" x="79" y="621"/>
  <text style="fill:rgb(128,128,128);stroke:none;" x="79" y="633">ID1</text>
  <rect height="12" style="fill:rgb(255,255,255);stroke:none;" width="35" x="79" y="636"/>
  <text style="fill:rgb(128,128,128);stroke:none;" x="79" y="648">APOM</text>
  <rect height="12" style="fill:rgb(255,255,255);stroke:none;" width="31" x="93" y="651"/>
  <text style="fill:rgb(128,128,128);stroke:none;" x="93" y="663">PLAU</text>
  <rect height="12" style="fill:rgb(255,255,255);stroke:none;" width="26" x="93" y="666"/>
  <text style="fill:rgb(128,128,128);stroke:none;" x="93" y="678">IRF1</text>
  <rect height="12" style="fill:rgb(255,255,255);stroke:none;" width="30" x="93" y="681"/>
  <text style="fill:rgb(128,128,128);stroke:none;" x="93" y="693">BCL3</text>
  <rect height="12" style="fill:rgb(255,255,255);stroke:none;" width="38" x="93" y="696"/>
  <text style="fill:rgb(128,128,128);stroke:none;" x="93" y="708">ALOX5</text>
  <rect height="12" style="fill:rgb(255,255,255);stroke:none;" width="39" x="93" y="711"/>
  <text style="fill:rgb(128,128,128);stroke:none;" x="93" y="723">TGFB1</text>
  <rect height="12" style="fill:rgb(255,255,255);stroke:none;" width="25" x="108" y="726"/>
  <text style="fill:rgb(128,128,128);stroke:none;" x="108" y="738">IL4R</text>
  <rect height="12" style="fill:rgb(255,255,255);stroke:none;" width="40" x="108" y="741"/>
  <text style="fill:rgb(128,128,128);stroke:none;" x="108" y="753">EFNB3</text>
  <rect height="11" style="fill:rgb(255,255,255);stroke:none;" width="32" x="137" y="756"/>
  <text style="fill:rgb(128,128,128);stroke:none;font-size:11px;" x="137" y="767">ORM1</text>
  <rect height="11" style="fill:rgb(255,255,255);stroke:none;" width="28" x="137" y="770"/>
  <text style="fill:rgb(128,128,128);stroke:none;font-size:11px;" x="137" y="781">FLCN</text>
  <rect height="11" style="fill:rgb(255,255,255);stroke:none;" width="31" x="137" y="784"/>
  <text style="fill:rgb(128,128,128);stroke:none;font-size:11px;" x="137" y="795">RGS2</text>
  <rect height="11" style="fill:rgb(255,255,255);stroke:none;" width="45" x="137" y="798"/>
  <text style="fill:rgb(128,128,128);stroke:none;font-size:11px;" x="137" y="809">DCANP1</text>
  <rect height="11" style="fill:rgb(255,255,255);stroke:none;" width="21" x="152" y="812"/>
  <text style="fill:rgb(128,128,128);stroke:none;font-size:11px;" x="152" y="823">TNF</text>
  <rect height="11" style="fill:rgb(255,255,255);stroke:none;" width="30" x="152" y="826"/>
  <text style="fill:rgb(128,128,128);stroke:none;font-size:11px;" x="152" y="837">HES5</text>
  <rect height="11" style="fill:rgb(255,255,255);stroke:none;" width="39" x="152" y="840"/>
  <text style="fill:rgb(128,128,128);stroke:none;font-size:11px;" x="152" y="851">PGAM5</text>
  <rect height="11" style="fill:rgb(255,255,255);stroke:none;" width="46" x="152" y="854"/>
  <text style="fill:rgb(128,128,128);stroke:none;font-size:11px;" x="152" y="865">CDKN2B</text>
  <rect height="11" style="fill:rgb(255,255,255);stroke:none;" width="30" x="166" y="868"/>
  <text style="fill:rgb(128,128,128);stroke:none;font-size:11px;" x="166" y="879">CD83</text>
  <rect height="11" style="fill:rgb(255,255,255);stroke:none;" width="29" x="166" y="882"/>
  <text style="fill:rgb(128,128,128);stroke:none;font-size:11px;" x="166" y="893">TCTA</text>
  <rect height="11" style="fill:rgb(255,255,255);stroke:none;" width="38" x="166" y="896"/>
  <text style="fill:rgb(128,128,128);stroke:none;font-size:11px;" x="166" y="907">HDAC5</text>
  <rect height="11" style="fill:rgb(255,255,255);stroke:none;" width="44" x="166" y="910"/>
  <text style="fill:rgb(128,128,128);stroke:none;font-size:11px;" x="166" y="921">CX3CR1</text>
  <rect height="11" style="fill:rgb(255,255,255);stroke:none;" width="30" x="181" y="924"/>
  <text style="fill:rgb(128,128,128);stroke:none;font-size:11px;" x="181" y="935">CD33</text>
  <rect height="11" style="fill:rgb(255,255,255);stroke:none;" width="26" x="181" y="938"/>
  <text style="fill:rgb(128,128,128);stroke:none;font-size:11px;" x="181" y="949">KLF2</text>
  <rect height="11" style="fill:rgb(255,255,255);stroke:none;" width="37" x="181" y="952"/>
  <text style="fill:rgb(128,128,128);stroke:none;font-size:11px;" x="181" y="963">CARD8</text>
  <rect height="11" style="fill:rgb(255,255,255);stroke:none;" width="53" x="181" y="966"/>
  <text style="fill:rgb(128,128,128);stroke:none;font-size:11px;" x="181" y="977">ADAMTS1</text>
  <rect height="11" style="fill:rgb(255,255,255);stroke:none;" width="59" x="181" y="980"/>
  <text style="fill:rgb(128,128,128);stroke:none;font-size:11px;" x="181" y="991">RAB11FIP3</text>
  <rect height="11" style="fill:rgb(255,255,255);stroke:none;" width="22" x="195" y="994"/>
  <text style="fill:rgb(128,128,128);stroke:none;font-size:11px;" x="195" y="1005">ADA</text>
  <rect height="11" style="fill:rgb(255,255,255);stroke:none;" width="31" x="195" y="1008"/>
  <text style="fill:rgb(128,128,128);stroke:none;font-size:11px;" x="195" y="1019">THBD</text>
  <rect height="11" style="fill:rgb(255,255,255);stroke:none;" width="30" x="195" y="1022"/>
  <text style="fill:rgb(128,128,128);stroke:none;font-size:11px;" x="195" y="1033">ARG2</text>
  <rect height="11" style="fill:rgb(255,255,255);stroke:none;" width="27" x="195" y="1036"/>
  <text style="fill:rgb(128,128,128);stroke:none;font-size:11px;" x="195" y="1047">LDLR</text>
  <rect height="11" style="fill:rgb(255,255,255);stroke:none;" width="23" x="195" y="1050"/>
  <text style="fill:rgb(128,128,128);stroke:none;font-size:11px;" x="195" y="1061">IL37</text>
  <rect height="11" style="fill:rgb(255,255,255);stroke:none;" width="30" x="195" y="1064"/>
  <text style="fill:rgb(128,128,128);stroke:none;font-size:11px;" x="195" y="1075">CDK5</text>
  <rect height="11" style="fill:rgb(255,255,255);stroke:none;" width="41" x="195" y="1078"/>
  <text style="fill:rgb(128,128,128);stroke:none;font-size:11px;" x="195" y="1089">HMGCR</text>
  <rect height="11" style="fill:rgb(255,255,255);stroke:none;" width="44" x="195" y="1092"/>
  <text style="fill:rgb(128,128,128);stroke:none;font-size:11px;" x="195" y="1103">ZNF706</text>
  <rect height="11" style="fill:rgb(255,255,255);stroke:none;" width="43" x="195" y="1106"/>
  <text style="fill:rgb(128,128,128);stroke:none;font-size:11px;" x="195" y="1117">SLAMF8</text>
  <rect height="11" style="fill:rgb(255,255,255);stroke:none;" width="44" x="195" y="1120"/>
  <text style="fill:rgb(128,128,128);stroke:none;font-size:11px;" x="195" y="1131">SEMA4F</text>
  <rect height="11" style="fill:rgb(255,255,255);stroke:none;" width="20" x="210" y="1134"/>
  <text style="fill:rgb(128,128,128);stroke:none;font-size:11px;" x="210" y="1145">EVL</text>
  <rect height="11" style="fill:rgb(255,255,255);stroke:none;" width="29" x="210" y="1148"/>
  <text style="fill:rgb(128,128,128);stroke:none;font-size:11px;" x="210" y="1159">NAV3</text>
  <rect height="11" style="fill:rgb(255,255,255);stroke:none;" width="38" x="210" y="1162"/>
  <text style="fill:rgb(128,128,128);stroke:none;font-size:11px;" x="210" y="1173">IL17RD</text>
  <rect height="11" style="fill:rgb(255,255,255);stroke:none;" width="44" x="210" y="1176"/>
  <text style="fill:rgb(128,128,128);stroke:none;font-size:11px;" x="210" y="1187">CARD16</text>
  <rect height="11" style="fill:rgb(255,255,255);stroke:none;" width="44" x="210" y="1190"/>
  <text style="fill:rgb(128,128,128);stroke:none;font-size:11px;" x="210" y="1201">TSPAN8</text>
  <rect height="11" style="fill:rgb(255,255,255);stroke:none;" width="33" x="225" y="1204"/>
  <text style="fill:rgb(128,128,128);stroke:none;font-size:11px;" x="225" y="1215">WWC1</text>
  <rect height="11" style="fill:rgb(255,255,255);stroke:none;" width="26" x="225" y="1218"/>
  <text style="fill:rgb(128,128,128);stroke:none;font-size:11px;" x="225" y="1229">KLF7</text>
  <rect height="11" style="fill:rgb(255,255,255);stroke:none;" width="39" x="225" y="1232"/>
  <text style="fill:rgb(128,128,128);stroke:none;font-size:11px;" x="225" y="1243">DOCK4</text>
  <rect height="11" style="fill:rgb(255,255,255);stroke:none;" width="37" x="225" y="1246"/>
  <text style="fill:rgb(128,128,128);stroke:none;font-size:11px;" x="225" y="1257">ADRB2</text>
  <rect height="11" style="fill:rgb(255,255,255);stroke:none;" width="26" x="239" y="1260"/>
  <text style="fill:rgb(128,128,128);stroke:none;font-size:11px;" x="239" y="1271">JAM2</text>
  <rect height="11" style="fill:rgb(255,255,255);stroke:none;" width="40" x="239" y="1274"/>
  <text style="fill:rgb(128,128,128);stroke:none;font-size:11px;" x="239" y="1285">SOCS2</text>
  <rect height="11" style="fill:rgb(255,255,255);stroke:none;" width="44" x="239" y="1288"/>
  <text style="fill:rgb(128,128,128);stroke:none;font-size:11px;" x="239" y="1299">PDGFRA</text>
  <rect height="11" style="fill:rgb(255,255,255);stroke:none;" width="53" x="254" y="1302"/>
  <text style="fill:rgb(128,128,128);stroke:none;font-size:11px;" x="254" y="1313">ADAMTS9</text>
  <rect height="11" style="fill:rgb(255,255,255);stroke:none;" width="50" x="254" y="1316"/>
  <text style="fill:rgb(128,128,128);stroke:none;font-size:11px;" x="254" y="1327">CYP51A1</text>
  <rect height="11" style="fill:rgb(255,255,255);stroke:none;" width="29" x="268" y="1330"/>
  <text style="fill:rgb(128,128,128);stroke:none;font-size:11px;" x="268" y="1341">CAV3</text>
  <rect height="11" style="fill:rgb(255,255,255);stroke:none;" width="46" x="268" y="1344"/>
  <text style="fill:rgb(128,128,128);stroke:none;font-size:11px;" x="268" y="1355">TMEM98</text>
  <rect height="11" style="fill:rgb(255,255,255);stroke:none;" width="38" x="283" y="1358"/>
  <text style="fill:rgb(128,128,128);stroke:none;font-size:11px;" x="283" y="1369">ZFPM2</text>
  <rect height="11" style="fill:rgb(255,255,255);stroke:none;" width="52" x="283" y="1372"/>
  <text style="fill:rgb(128,128,128);stroke:none;font-size:11px;" x="283" y="1383">C1QTNF3</text>
  <rect height="11" style="fill:rgb(255,255,255);stroke:none;" width="37" x="297" y="1386"/>
  <text style="fill:rgb(128,128,128);stroke:none;font-size:11px;" x="297" y="1397">PCSK9</text>
  <rect height="11" style="fill:rgb(255,255,255);stroke:none;" width="45" x="297" y="1400"/>
  <text style="fill:rgb(128,128,128);stroke:none;font-size:11px;" x="297" y="1411">ANGPT1</text>
  <rect height="11" style="fill:rgb(255,255,255);stroke:none;" width="28" x="312" y="1414"/>
  <text style="fill:rgb(128,128,128);stroke:none;font-size:11px;" x="312" y="1425">TP63</text>
  <rect height="11" style="fill:rgb(255,255,255);stroke:none;" width="26" x="312" y="1428"/>
  <text style="fill:rgb(128,128,128);stroke:none;font-size:11px;" x="312" y="1439">KLF4</text>
  <rect height="11" style="fill:rgb(255,255,255);stroke:none;" width="29" x="312" y="1442"/>
  <text style="fill:rgb(128,128,128);stroke:none;font-size:11px;" x="312" y="1453">BCL6</text>
  <rect height="11" style="fill:rgb(255,255,255);stroke:none;" width="45" x="312" y="1456"/>
  <text style="fill:rgb(128,128,128);stroke:none;font-size:11px;" x="312" y="1467">TNFAIP6</text>
  <rect height="11" style="fill:rgb(255,255,255);stroke:none;" width="21" x="327" y="1470"/>
  <text style="fill:rgb(128,128,128);stroke:none;font-size:11px;" x="327" y="1481">FN1</text>
  <rect height="11" style="fill:rgb(255,255,255);stroke:none;" width="30" x="327" y="1484"/>
  <text style="fill:rgb(128,128,128);stroke:none;font-size:11px;" x="327" y="1495">CD34</text>
  <rect height="11" style="fill:rgb(255,255,255);stroke:none;" width="30" x="327" y="1498"/>
  <text style="fill:rgb(128,128,128);stroke:none;font-size:11px;" x="327" y="1509">NTN1</text>
  <rect height="11" style="fill:rgb(255,255,255);stroke:none;" width="42" x="327" y="1512"/>
  <text style="fill:rgb(128,128,128);stroke:none;font-size:11px;" x="327" y="1523">ATP1A2</text>
  <rect height="11" style="fill:rgb(255,255,255);stroke:none;" width="53" x="327" y="1526"/>
  <text style="fill:rgb(128,128,128);stroke:none;font-size:11px;" x="327" y="1537">CEACAM1</text>
  <rect height="11" style="fill:rgb(255,255,255);stroke:none;" width="30" x="341" y="1540"/>
  <text style="fill:rgb(128,128,128);stroke:none;font-size:11px;" x="341" y="1551">GHRL</text>
  <rect height="11" style="fill:rgb(255,255,255);stroke:none;" width="31" x="341" y="1554"/>
  <text style="fill:rgb(128,128,128);stroke:none;font-size:11px;" x="341" y="1565">IRAK3</text>
</svg>
