<?xml version="1.0" encoding="UTF-8" standalone="no"?>
<!DOCTYPE svg PUBLIC "-//W3C//DTD SVG 1.1//EN" "http://www.w3.org/Graphics/SVG/1.1/DTD/svg11.dtd">
<svg xmlns:xlink="http://www.w3.org/1999/xlink" height="158.74999999999997mm" version="1.1" viewBox="0 0 500 600" width="132.29166666666666mm" x="0mm" y="0mm" xmlns="http://www.w3.org/2000/svg">
  <rect height="1200" style="fill:rgb(255,255,255);stroke:none;" width="1000" x="0" y="0"/>
  <rect height="240" style="fill:rgb(191,191,191);fill-opacity:0.4980392156862745;stroke:none;" width="175" x="225" y="60"/>
  <line style="fill:none;stroke:rgb(63,63,191);stroke-opacity:0.24705882352941178;stroke-miterlimit:10;stroke-linecap:square;" x1="50" x2="50" y1="300" y2="300"/>
  <line style="fill:none;stroke:rgb(63,63,191);stroke-opacity:0.24705882352941178;stroke-miterlimit:10;stroke-linecap:square;" x1="50" x2="64" y1="300" y2="290"/>
  <line style="fill:none;stroke:rgb(63,63,191);stroke-opacity:0.24705882352941178;stroke-miterlimit:10;stroke-linecap:square;" x1="64" x2="79" y1="290" y2="280"/>
  <line style="fill:none;stroke:rgb(63,63,191);stroke-opacity:0.24705882352941178;stroke-miterlimit:10;stroke-linecap:square;" x1="79" x2="93" y1="280" y2="270"/>
  <line style="fill:none;stroke:rgb(63,63,191);stroke-opacity:0.24705882352941178;stroke-miterlimit:10;stroke-linecap:square;" x1="93" x2="108" y1="270" y2="260"/>
  <line style="fill:none;stroke:rgb(63,63,191);stroke-opacity:0.24705882352941178;stroke-miterlimit:10;stroke-linecap:square;" x1="108" x2="122" y1="260" y2="250"/>
  <line style="fill:none;stroke:rgb(63,63,191);stroke-opacity:0.24705882352941178;stroke-miterlimit:10;stroke-linecap:square;" x1="122" x2="137" y1="250" y2="240"/>
  <line style="fill:none;stroke:rgb(63,63,191);stroke-opacity:0.24705882352941178;stroke-miterlimit:10;stroke-linecap:square;" x1="137" x2="152" y1="240" y2="230"/>
  <line style="fill:none;stroke:rgb(63,63,191);stroke-opacity:0.24705882352941178;stroke-miterlimit:10;stroke-linecap:square;" x1="152" x2="166" y1="230" y2="220"/>
  <line style="fill:none;stroke:rgb(63,63,191);stroke-opacity:0.24705882352941178;stroke-miterlimit:10;stroke-linecap:square;" x1="166" x2="181" y1="220" y2="210"/>
  <line style="fill:none;stroke:rgb(63,63,191);stroke-opacity:0.24705882352941178;stroke-miterlimit:10;stroke-linecap:square;" x1="181" x2="195" y1="210" y2="200"/>
  <line style="fill:none;stroke:rgb(63,63,191);stroke-opacity:0.24705882352941178;stroke-miterlimit:10;stroke-linecap:square;" x1="195" x2="210" y1="200" y2="190"/>
  <line style="fill:none;stroke:rgb(63,63,191);stroke-opacity:0.24705882352941178;stroke-miterlimit:10;stroke-linecap:square;" x1="210" x2="225" y1="190" y2="180"/>
  <line style="fill:none;stroke:rgb(63,63,191);stroke-opacity:0.24705882352941178;stroke-miterlimit:10;stroke-linecap:square;" x1="225" x2="239" y1="180" y2="170"/>
  <line style="fill:none;stroke:rgb(63,63,191);stroke-opacity:0.24705882352941178;stroke-miterlimit:10;stroke-linecap:square;" x1="239" x2="254" y1="170" y2="160"/>
  <line style="fill:none;stroke:rgb(63,63,191);stroke-opacity:0.24705882352941178;stroke-miterlimit:10;stroke-linecap:square;" x1="254" x2="268" y1="160" y2="150"/>
  <line style="fill:none;stroke:rgb(63,63,191);stroke-opacity:0.24705882352941178;stroke-miterlimit:10;stroke-linecap:square;" x1="268" x2="283" y1="150" y2="140"/>
  <line style="fill:none;stroke:rgb(63,63,191);stroke-opacity:0.24705882352941178;stroke-miterlimit:10;stroke-linecap:square;" x1="283" x2="297" y1="140" y2="130"/>
  <line style="fill:none;stroke:rgb(63,63,191);stroke-opacity:0.24705882352941178;stroke-miterlimit:10;stroke-linecap:square;" x1="297" x2="312" y1="130" y2="120"/>
  <line style="fill:none;stroke:rgb(63,63,191);stroke-opacity:0.24705882352941178;stroke-miterlimit:10;stroke-linecap:square;" x1="312" x2="327" y1="120" y2="110"/>
  <line style="fill:none;stroke:rgb(63,63,191);stroke-opacity:0.24705882352941178;stroke-miterlimit:10;stroke-linecap:square;" x1="327" x2="341" y1="110" y2="100"/>
  <line style="fill:none;stroke:rgb(63,63,191);stroke-opacity:0.24705882352941178;stroke-miterlimit:10;stroke-linecap:square;" x1="341" x2="356" y1="100" y2="90"/>
  <line style="fill:none;stroke:rgb(63,63,191);stroke-opacity:0.24705882352941178;stroke-miterlimit:10;stroke-linecap:square;" x1="356" x2="370" y1="90" y2="80"/>
  <line style="fill:none;stroke:rgb(63,63,191);stroke-opacity:0.24705882352941178;stroke-miterlimit:10;stroke-linecap:square;" x1="370" x2="385" y1="80" y2="70"/>
  <line style="fill:none;stroke:rgb(63,63,191);stroke-opacity:0.24705882352941178;stroke-miterlimit:10;stroke-linecap:square;" x1="385" x2="400" y1="70" y2="60"/>
  <line style="fill:none;stroke:rgb(63,63,191);stroke-opacity:0.24705882352941178;stroke-miterlimit:10;stroke-linecap:square;" x1="400" x2="400" y1="60" y2="60"/>
  <rect height="2" style="fill:rgb(255,127,0);fill-opacity:0.7490196078431373;stroke:none;" width="4" x="48" y="297"/>
  <line style="fill:none;stroke:rgb(255,127,0);stroke-opacity:0.24705882352941178;stroke-width:2;stroke-miterlimit:10;stroke-linecap:square;" x1="50" x2="50" y1="300" y2="300"/>
  <line style="fill:none;stroke:rgb(255,127,0);stroke-opacity:0.24705882352941178;stroke-width:2;stroke-miterlimit:10;stroke-linecap:square;" x1="50" x2="50" y1="298" y2="299"/>
  <rect height="10" style="fill:rgb(255,127,0);fill-opacity:0.7490196078431373;stroke:none;" width="4" x="62" y="289"/>
  <line style="fill:none;stroke:rgb(255,127,0);stroke-opacity:0.24705882352941178;stroke-width:2;stroke-miterlimit:10;stroke-linecap:square;" x1="50" x2="64" y1="297" y2="297"/>
  <line style="fill:none;stroke:rgb(255,127,0);stroke-opacity:0.24705882352941178;stroke-width:2;stroke-miterlimit:10;stroke-linecap:square;" x1="64" x2="64" y1="295" y2="288"/>
  <rect height="5" style="fill:rgb(255,127,0);fill-opacity:0.7490196078431373;stroke:none;" width="4" x="77" y="294"/>
  <line style="fill:none;stroke:rgb(255,127,0);stroke-opacity:0.24705882352941178;stroke-width:2;stroke-miterlimit:10;stroke-linecap:square;" x1="64" x2="79" y1="286" y2="286"/>
  <line style="fill:none;stroke:rgb(255,127,0);stroke-opacity:0.24705882352941178;stroke-width:2;stroke-miterlimit:10;stroke-linecap:square;" x1="79" x2="79" y1="284" y2="282"/>
  <rect height="19" style="fill:rgb(255,127,0);fill-opacity:0.7490196078431373;stroke:none;" width="4" x="91" y="280"/>
  <line style="fill:none;stroke:rgb(255,127,0);stroke-opacity:0.24705882352941178;stroke-width:2;stroke-miterlimit:10;stroke-linecap:square;" x1="79" x2="93" y1="280" y2="280"/>
  <line style="fill:none;stroke:rgb(255,127,0);stroke-opacity:0.24705882352941178;stroke-width:2;stroke-miterlimit:10;stroke-linecap:square;" x1="93" x2="93" y1="278" y2="263"/>
  <rect height="5" style="fill:rgb(255,127,0);fill-opacity:0.7490196078431373;stroke:none;" width="4" x="106" y="294"/>
  <line style="fill:none;stroke:rgb(255,127,0);stroke-opacity:0.24705882352941178;stroke-width:2;stroke-miterlimit:10;stroke-linecap:square;" x1="93" x2="108" y1="261" y2="261"/>
  <line style="fill:none;stroke:rgb(255,127,0);stroke-opacity:0.24705882352941178;stroke-width:2;stroke-miterlimit:10;stroke-linecap:square;" x1="108" x2="108" y1="259" y2="258"/>
  <rect height="2" style="fill:rgb(255,127,0);fill-opacity:0.7490196078431373;stroke:none;" width="4" x="120" y="297"/>
  <line style="fill:none;stroke:rgb(255,127,0);stroke-opacity:0.24705882352941178;stroke-width:2;stroke-miterlimit:10;stroke-linecap:square;" x1="108" x2="122" y1="256" y2="256"/>
  <line style="fill:none;stroke:rgb(255,127,0);stroke-opacity:0.24705882352941178;stroke-width:2;stroke-miterlimit:10;stroke-linecap:square;" x1="122" x2="122" y1="254" y2="255"/>
  <rect height="8" style="fill:rgb(255,127,0);fill-opacity:0.7490196078431373;stroke:none;" width="4" x="135" y="291"/>
  <line style="fill:none;stroke:rgb(255,127,0);stroke-opacity:0.24705882352941178;stroke-width:2;stroke-miterlimit:10;stroke-linecap:square;" x1="122" x2="137" y1="253" y2="253"/>
  <line style="fill:none;stroke:rgb(255,127,0);stroke-opacity:0.24705882352941178;stroke-width:2;stroke-miterlimit:10;stroke-linecap:square;" x1="137" x2="137" y1="251" y2="247"/>
  <rect height="2" style="fill:rgb(255,127,0);fill-opacity:0.7490196078431373;stroke:none;" width="4" x="150" y="297"/>
  <line style="fill:none;stroke:rgb(255,127,0);stroke-opacity:0.24705882352941178;stroke-width:2;stroke-miterlimit:10;stroke-linecap:square;" x1="137" x2="152" y1="245" y2="245"/>
  <line style="fill:none;stroke:rgb(255,127,0);stroke-opacity:0.24705882352941178;stroke-width:2;stroke-miterlimit:10;stroke-linecap:square;" x1="152" x2="152" y1="243" y2="244"/>
  <rect height="5" style="fill:rgb(255,127,0);fill-opacity:0.7490196078431373;stroke:none;" width="4" x="164" y="294"/>
  <line style="fill:none;stroke:rgb(255,127,0);stroke-opacity:0.24705882352941178;stroke-width:2;stroke-miterlimit:10;stroke-linecap:square;" x1="152" x2="166" y1="242" y2="242"/>
  <line style="fill:none;stroke:rgb(255,127,0);stroke-opacity:0.24705882352941178;stroke-width:2;stroke-miterlimit:10;stroke-linecap:square;" x1="166" x2="166" y1="240" y2="239"/>
  <rect height="10" style="fill:rgb(255,127,0);fill-opacity:0.7490196078431373;stroke:none;" width="4" x="193" y="289"/>
  <line style="fill:none;stroke:rgb(255,127,0);stroke-opacity:0.24705882352941178;stroke-width:2;stroke-miterlimit:10;stroke-linecap:square;" x1="166" x2="195" y1="237" y2="237"/>
  <line style="fill:none;stroke:rgb(255,127,0);stroke-opacity:0.24705882352941178;stroke-width:2;stroke-miterlimit:10;stroke-linecap:square;" x1="195" x2="195" y1="235" y2="228"/>
  <rect height="10" style="fill:rgb(255,127,0);fill-opacity:0.7490196078431373;stroke:none;" width="4" x="208" y="289"/>
  <line style="fill:none;stroke:rgb(255,127,0);stroke-opacity:0.24705882352941178;stroke-width:2;stroke-miterlimit:10;stroke-linecap:square;" x1="195" x2="210" y1="226" y2="226"/>
  <line style="fill:none;stroke:rgb(255,127,0);stroke-opacity:0.24705882352941178;stroke-width:2;stroke-miterlimit:10;stroke-linecap:square;" x1="210" x2="210" y1="224" y2="217"/>
  <rect height="19" style="fill:rgb(255,127,0);fill-opacity:0.7490196078431373;stroke:none;" width="4" x="223" y="280"/>
  <line style="fill:none;stroke:rgb(255,127,0);stroke-opacity:0.24705882352941178;stroke-width:2;stroke-miterlimit:10;stroke-linecap:square;" x1="210" x2="225" y1="215" y2="215"/>
  <line style="fill:none;stroke:rgb(255,127,0);stroke-opacity:0.24705882352941178;stroke-width:2;stroke-miterlimit:10;stroke-linecap:square;" x1="225" x2="225" y1="213" y2="198"/>
  <rect height="30" style="fill:rgb(255,127,0);fill-opacity:0.7490196078431373;stroke:none;" width="4" x="237" y="270"/>
  <line style="fill:none;stroke:rgb(255,127,0);stroke-opacity:0.24705882352941178;stroke-width:2;stroke-miterlimit:10;stroke-linecap:square;" x1="225" x2="239" y1="196" y2="196"/>
  <line style="fill:none;stroke:rgb(255,127,0);stroke-opacity:0.24705882352941178;stroke-width:2;stroke-miterlimit:10;stroke-linecap:square;" x1="239" x2="239" y1="194" y2="168"/>
  <rect height="32" style="fill:rgb(255,127,0);fill-opacity:0.7490196078431373;stroke:none;" width="4" x="252" y="267"/>
  <line style="fill:none;stroke:rgb(255,127,0);stroke-opacity:0.24705882352941178;stroke-width:2;stroke-miterlimit:10;stroke-linecap:square;" x1="239" x2="254" y1="166" y2="166"/>
  <line style="fill:none;stroke:rgb(255,127,0);stroke-opacity:0.24705882352941178;stroke-width:2;stroke-miterlimit:10;stroke-linecap:square;" x1="254" x2="254" y1="164" y2="135"/>
  <rect height="13" style="fill:rgb(255,127,0);fill-opacity:0.7490196078431373;stroke:none;" width="4" x="266" y="286"/>
  <line style="fill:none;stroke:rgb(255,127,0);stroke-opacity:0.24705882352941178;stroke-width:2;stroke-miterlimit:10;stroke-linecap:square;" x1="254" x2="268" y1="133" y2="133"/>
  <line style="fill:none;stroke:rgb(255,127,0);stroke-opacity:0.24705882352941178;stroke-width:2;stroke-miterlimit:10;stroke-linecap:square;" x1="268" x2="268" y1="131" y2="122"/>
  <rect height="13" style="fill:rgb(255,127,0);fill-opacity:0.7490196078431373;stroke:none;" width="4" x="281" y="286"/>
  <line style="fill:none;stroke:rgb(255,127,0);stroke-opacity:0.24705882352941178;stroke-width:2;stroke-miterlimit:10;stroke-linecap:square;" x1="268" x2="283" y1="120" y2="120"/>
  <line style="fill:none;stroke:rgb(255,127,0);stroke-opacity:0.24705882352941178;stroke-width:2;stroke-miterlimit:10;stroke-linecap:square;" x1="283" x2="283" y1="118" y2="108"/>
  <rect height="16" style="fill:rgb(255,127,0);fill-opacity:0.7490196078431373;stroke:none;" width="4" x="295" y="283"/>
  <line style="fill:none;stroke:rgb(255,127,0);stroke-opacity:0.24705882352941178;stroke-width:2;stroke-miterlimit:10;stroke-linecap:square;" x1="283" x2="297" y1="106" y2="106"/>
  <line style="fill:none;stroke:rgb(255,127,0);stroke-opacity:0.24705882352941178;stroke-width:2;stroke-miterlimit:10;stroke-linecap:square;" x1="297" x2="297" y1="104" y2="91"/>
  <rect height="5" style="fill:rgb(255,127,0);fill-opacity:0.7490196078431373;stroke:none;" width="4" x="310" y="294"/>
  <line style="fill:none;stroke:rgb(255,127,0);stroke-opacity:0.24705882352941178;stroke-width:2;stroke-miterlimit:10;stroke-linecap:square;" x1="297" x2="312" y1="89" y2="89"/>
  <line style="fill:none;stroke:rgb(255,127,0);stroke-opacity:0.24705882352941178;stroke-width:2;stroke-miterlimit:10;stroke-linecap:square;" x1="312" x2="312" y1="87" y2="86"/>
  <rect height="8" style="fill:rgb(255,127,0);fill-opacity:0.7490196078431373;stroke:none;" width="4" x="325" y="291"/>
  <line style="fill:none;stroke:rgb(255,127,0);stroke-opacity:0.24705882352941178;stroke-width:2;stroke-miterlimit:10;stroke-linecap:square;" x1="312" x2="327" y1="84" y2="84"/>
  <line style="fill:none;stroke:rgb(255,127,0);stroke-opacity:0.24705882352941178;stroke-width:2;stroke-miterlimit:10;stroke-linecap:square;" x1="327" x2="327" y1="82" y2="78"/>
  <rect height="5" style="fill:rgb(255,127,0);fill-opacity:0.7490196078431373;stroke:none;" width="4" x="339" y="294"/>
  <line style="fill:none;stroke:rgb(255,127,0);stroke-opacity:0.24705882352941178;stroke-width:2;stroke-miterlimit:10;stroke-linecap:square;" x1="327" x2="341" y1="76" y2="76"/>
  <line style="fill:none;stroke:rgb(255,127,0);stroke-opacity:0.24705882352941178;stroke-width:2;stroke-miterlimit:10;stroke-linecap:square;" x1="341" x2="341" y1="74" y2="72"/>
  <rect height="2" style="fill:rgb(255,127,0);fill-opacity:0.7490196078431373;stroke:none;" width="4" x="354" y="297"/>
  <line style="fill:none;stroke:rgb(255,127,0);stroke-opacity:0.24705882352941178;stroke-width:2;stroke-miterlimit:10;stroke-linecap:square;" x1="341" x2="356" y1="70" y2="70"/>
  <line style="fill:none;stroke:rgb(255,127,0);stroke-opacity:0.24705882352941178;stroke-width:2;stroke-miterlimit:10;stroke-linecap:square;" x1="356" x2="356" y1="68" y2="70"/>
  <rect height="2" style="fill:rgb(255,127,0);fill-opacity:0.7490196078431373;stroke:none;" width="4" x="368" y="297"/>
  <line style="fill:none;stroke:rgb(255,127,0);stroke-opacity:0.24705882352941178;stroke-width:2;stroke-miterlimit:10;stroke-linecap:square;" x1="356" x2="370" y1="68" y2="68"/>
  <line style="fill:none;stroke:rgb(255,127,0);stroke-opacity:0.24705882352941178;stroke-width:2;stroke-miterlimit:10;stroke-linecap:square;" x1="370" x2="370" y1="66" y2="67"/>
  <rect height="5" style="fill:rgb(255,127,0);fill-opacity:0.7490196078431373;stroke:none;" width="4" x="383" y="294"/>
  <line style="fill:none;stroke:rgb(255,127,0);stroke-opacity:0.24705882352941178;stroke-width:2;stroke-miterlimit:10;stroke-linecap:square;" x1="370" x2="385" y1="65" y2="65"/>
  <line style="fill:none;stroke:rgb(255,127,0);stroke-opacity:0.24705882352941178;stroke-width:2;stroke-miterlimit:10;stroke-linecap:square;" x1="385" x2="385" y1="63" y2="62"/>
  <line style="fill:none;stroke:rgb(255,127,0);stroke-opacity:0.24705882352941178;stroke-width:2;stroke-miterlimit:10;stroke-linecap:square;" x1="385" x2="400" y1="60" y2="60"/>
  <line style="fill:none;stroke:rgb(255,127,0);stroke-opacity:0.4980392156862745;stroke-miterlimit:2;stroke-dasharray:2;" x1="50" x2="50" y1="300" y2="350"/>
  <line style="fill:none;stroke:rgb(255,127,0);stroke-opacity:0.4980392156862745;stroke-miterlimit:2;stroke-dasharray:2;" x1="64" x2="64" y1="300" y2="364"/>
  <line style="fill:none;stroke:rgb(255,127,0);stroke-opacity:0.4980392156862745;stroke-miterlimit:2;stroke-dasharray:2;" x1="64" x2="64" y1="300" y2="378"/>
  <line style="fill:none;stroke:rgb(255,127,0);stroke-opacity:0.4980392156862745;stroke-miterlimit:2;stroke-dasharray:2;" x1="64" x2="64" y1="300" y2="392"/>
  <line style="fill:none;stroke:rgb(255,127,0);stroke-opacity:0.4980392156862745;stroke-miterlimit:2;stroke-dasharray:2;" x1="64" x2="64" y1="300" y2="406"/>
  <line style="fill:none;stroke:rgb(255,127,0);stroke-opacity:0.4980392156862745;stroke-miterlimit:2;stroke-dasharray:2;" x1="79" x2="79" y1="300" y2="420"/>
  <line style="fill:none;stroke:rgb(255,127,0);stroke-opacity:0.4980392156862745;stroke-miterlimit:2;stroke-dasharray:2;" x1="79" x2="79" y1="300" y2="434"/>
  <line style="fill:none;stroke:rgb(255,127,0);stroke-opacity:0.4980392156862745;stroke-miterlimit:2;stroke-dasharray:2;" x1="93" x2="93" y1="300" y2="448"/>
  <line style="fill:none;stroke:rgb(255,127,0);stroke-opacity:0.4980392156862745;stroke-miterlimit:2;stroke-dasharray:2;" x1="93" x2="93" y1="300" y2="462"/>
  <line style="fill:none;stroke:rgb(255,127,0);stroke-opacity:0.4980392156862745;stroke-miterlimit:2;stroke-dasharray:2;" x1="93" x2="93" y1="300" y2="476"/>
  <line style="fill:none;stroke:rgb(255,127,0);stroke-opacity:0.4980392156862745;stroke-miterlimit:2;stroke-dasharray:2;" x1="93" x2="93" y1="300" y2="490"/>
  <line style="fill:none;stroke:rgb(255,127,0);stroke-opacity:0.4980392156862745;stroke-miterlimit:2;stroke-dasharray:2;" x1="93" x2="93" y1="300" y2="504"/>
  <line style="fill:none;stroke:rgb(255,127,0);stroke-opacity:0.4980392156862745;stroke-miterlimit:2;stroke-dasharray:2;" x1="93" x2="93" y1="300" y2="518"/>
  <line style="fill:none;stroke:rgb(255,127,0);stroke-opacity:0.4980392156862745;stroke-miterlimit:2;stroke-dasharray:2;" x1="93" x2="93" y1="300" y2="532"/>
  <line style="fill:none;stroke:rgb(255,127,0);stroke-opacity:0.4980392156862745;stroke-miterlimit:2;stroke-dasharray:2;" x1="108" x2="108" y1="300" y2="546"/>
  <line style="fill:none;stroke:rgb(255,127,0);stroke-opacity:0.4980392156862745;stroke-miterlimit:2;stroke-dasharray:2;" x1="108" x2="108" y1="300" y2="560"/>
  <line style="fill:none;stroke:rgb(255,127,0);stroke-opacity:0.4980392156862745;stroke-miterlimit:2;stroke-dasharray:2;" x1="122" x2="122" y1="300" y2="574"/>
  <line style="fill:none;stroke:rgb(255,127,0);stroke-opacity:0.4980392156862745;stroke-miterlimit:2;stroke-dasharray:2;" x1="137" x2="137" y1="300" y2="588"/>
  <line style="fill:none;stroke:rgb(255,127,0);stroke-opacity:0.4980392156862745;stroke-miterlimit:2;stroke-dasharray:2;" x1="137" x2="137" y1="300" y2="602"/>
  <line style="fill:none;stroke:rgb(255,127,0);stroke-opacity:0.4980392156862745;stroke-miterlimit:2;stroke-dasharray:2;" x1="137" x2="137" y1="300" y2="616"/>
  <line style="fill:none;stroke:rgb(255,127,0);stroke-opacity:0.4980392156862745;stroke-miterlimit:2;stroke-dasharray:2;" x1="152" x2="152" y1="300" y2="630"/>
  <line style="fill:none;stroke:rgb(255,127,0);stroke-opacity:0.4980392156862745;stroke-miterlimit:2;stroke-dasharray:2;" x1="166" x2="166" y1="300" y2="644"/>
  <line style="fill:none;stroke:rgb(255,127,0);stroke-opacity:0.4980392156862745;stroke-miterlimit:2;stroke-dasharray:2;" x1="166" x2="166" y1="300" y2="658"/>
  <line style="fill:none;stroke:rgb(255,127,0);stroke-opacity:0.4980392156862745;stroke-miterlimit:2;stroke-dasharray:2;" x1="195" x2="195" y1="300" y2="672"/>
  <line style="fill:none;stroke:rgb(255,127,0);stroke-opacity:0.4980392156862745;stroke-miterlimit:2;stroke-dasharray:2;" x1="195" x2="195" y1="300" y2="686"/>
  <line style="fill:none;stroke:rgb(255,127,0);stroke-opacity:0.4980392156862745;stroke-miterlimit:2;stroke-dasharray:2;" x1="195" x2="195" y1="300" y2="700"/>
  <line style="fill:none;stroke:rgb(255,127,0);stroke-opacity:0.4980392156862745;stroke-miterlimit:2;stroke-dasharray:2;" x1="195" x2="195" y1="300" y2="714"/>
  <line style="fill:none;stroke:rgb(255,127,0);stroke-opacity:0.4980392156862745;stroke-miterlimit:2;stroke-dasharray:2;" x1="210" x2="210" y1="300" y2="729"/>
  <line style="fill:none;stroke:rgb(255,127,0);stroke-opacity:0.4980392156862745;stroke-miterlimit:2;stroke-dasharray:2;" x1="210" x2="210" y1="300" y2="744"/>
  <line style="fill:none;stroke:rgb(255,127,0);stroke-opacity:0.4980392156862745;stroke-miterlimit:2;stroke-dasharray:2;" x1="210" x2="210" y1="300" y2="759"/>
  <line style="fill:none;stroke:rgb(255,127,0);stroke-opacity:0.4980392156862745;stroke-miterlimit:2;stroke-dasharray:2;" x1="210" x2="210" y1="300" y2="774"/>
  <line style="fill:none;stroke:rgb(255,127,0);stroke-opacity:0.4980392156862745;stroke-miterlimit:2;stroke-dasharray:2;" x1="225" x2="225" y1="300" y2="789"/>
  <line style="fill:none;stroke:rgb(255,127,0);stroke-opacity:0.4980392156862745;stroke-miterlimit:2;stroke-dasharray:2;" x1="225" x2="225" y1="300" y2="804"/>
  <line style="fill:none;stroke:rgb(255,127,0);stroke-opacity:0.4980392156862745;stroke-miterlimit:2;stroke-dasharray:2;" x1="225" x2="225" y1="300" y2="819"/>
  <line style="fill:none;stroke:rgb(255,127,0);stroke-opacity:0.4980392156862745;stroke-miterlimit:2;stroke-dasharray:2;" x1="225" x2="225" y1="300" y2="834"/>
  <line style="fill:none;stroke:rgb(255,127,0);stroke-opacity:0.4980392156862745;stroke-miterlimit:2;stroke-dasharray:2;" x1="225" x2="225" y1="300" y2="849"/>
  <line style="fill:none;stroke:rgb(255,127,0);stroke-opacity:0.4980392156862745;stroke-miterlimit:2;stroke-dasharray:2;" x1="225" x2="225" y1="300" y2="864"/>
  <line style="fill:none;stroke:rgb(255,127,0);stroke-opacity:0.4980392156862745;stroke-miterlimit:2;stroke-dasharray:2;" x1="225" x2="225" y1="300" y2="879"/>
  <line style="fill:none;stroke:rgb(255,127,0);stroke-opacity:0.4980392156862745;stroke-miterlimit:2;stroke-dasharray:2;" x1="239" x2="239" y1="300" y2="894"/>
  <line style="fill:none;stroke:rgb(255,127,0);stroke-opacity:0.4980392156862745;stroke-miterlimit:2;stroke-dasharray:2;" x1="239" x2="239" y1="300" y2="909"/>
  <line style="fill:none;stroke:rgb(255,127,0);stroke-opacity:0.4980392156862745;stroke-miterlimit:2;stroke-dasharray:2;" x1="239" x2="239" y1="300" y2="924"/>
  <line style="fill:none;stroke:rgb(255,127,0);stroke-opacity:0.4980392156862745;stroke-miterlimit:2;stroke-dasharray:2;" x1="239" x2="239" y1="300" y2="939"/>
  <line style="fill:none;stroke:rgb(255,127,0);stroke-opacity:0.4980392156862745;stroke-miterlimit:2;stroke-dasharray:2;" x1="239" x2="239" y1="300" y2="954"/>
  <line style="fill:none;stroke:rgb(255,127,0);stroke-opacity:0.4980392156862745;stroke-miterlimit:2;stroke-dasharray:2;" x1="239" x2="239" y1="300" y2="969"/>
  <line style="fill:none;stroke:rgb(255,127,0);stroke-opacity:0.4980392156862745;stroke-miterlimit:2;stroke-dasharray:2;" x1="239" x2="239" y1="300" y2="984"/>
  <line style="fill:none;stroke:rgb(255,127,0);stroke-opacity:0.4980392156862745;stroke-miterlimit:2;stroke-dasharray:2;" x1="239" x2="239" y1="300" y2="999"/>
  <line style="fill:none;stroke:rgb(255,127,0);stroke-opacity:0.4980392156862745;stroke-miterlimit:2;stroke-dasharray:2;" x1="239" x2="239" y1="300" y2="1014"/>
  <line style="fill:none;stroke:rgb(255,127,0);stroke-opacity:0.4980392156862745;stroke-miterlimit:2;stroke-dasharray:2;" x1="239" x2="239" y1="300" y2="1029"/>
  <line style="fill:none;stroke:rgb(255,127,0);stroke-opacity:0.4980392156862745;stroke-miterlimit:2;stroke-dasharray:2;" x1="239" x2="239" y1="300" y2="1044"/>
  <line style="fill:none;stroke:rgb(255,127,0);stroke-opacity:0.4980392156862745;stroke-miterlimit:2;stroke-dasharray:2;" x1="254" x2="254" y1="300" y2="1059"/>
  <line style="fill:none;stroke:rgb(255,127,0);stroke-opacity:0.4980392156862745;stroke-miterlimit:2;stroke-dasharray:2;" x1="254" x2="254" y1="300" y2="1074"/>
  <line style="fill:none;stroke:rgb(255,127,0);stroke-opacity:0.4980392156862745;stroke-miterlimit:2;stroke-dasharray:2;" x1="254" x2="254" y1="300" y2="1089"/>
  <line style="fill:none;stroke:rgb(255,127,0);stroke-opacity:0.4980392156862745;stroke-miterlimit:2;stroke-dasharray:2;" x1="254" x2="254" y1="300" y2="1104"/>
  <line style="fill:none;stroke:rgb(255,127,0);stroke-opacity:0.4980392156862745;stroke-miterlimit:2;stroke-dasharray:2;" x1="254" x2="254" y1="300" y2="1119"/>
  <line style="fill:none;stroke:rgb(255,127,0);stroke-opacity:0.4980392156862745;stroke-miterlimit:2;stroke-dasharray:2;" x1="254" x2="254" y1="300" y2="1134"/>
  <line style="fill:none;stroke:rgb(255,127,0);stroke-opacity:0.4980392156862745;stroke-miterlimit:2;stroke-dasharray:2;" x1="254" x2="254" y1="300" y2="1149"/>
  <line style="fill:none;stroke:rgb(255,127,0);stroke-opacity:0.4980392156862745;stroke-miterlimit:2;stroke-dasharray:2;" x1="254" x2="254" y1="300" y2="1164"/>
  <line style="fill:none;stroke:rgb(255,127,0);stroke-opacity:0.4980392156862745;stroke-miterlimit:2;stroke-dasharray:2;" x1="254" x2="254" y1="300" y2="1179"/>
  <line style="fill:none;stroke:rgb(255,127,0);stroke-opacity:0.4980392156862745;stroke-miterlimit:2;stroke-dasharray:2;" x1="254" x2="254" y1="300" y2="1194"/>
  <line style="fill:none;stroke:rgb(255,127,0);stroke-opacity:0.4980392156862745;stroke-miterlimit:2;stroke-dasharray:2;" x1="254" x2="254" y1="300" y2="1209"/>
  <line style="fill:none;stroke:rgb(255,127,0);stroke-opacity:0.4980392156862745;stroke-miterlimit:2;stroke-dasharray:2;" x1="254" x2="254" y1="300" y2="1224"/>
  <line style="fill:none;stroke:rgb(255,127,0);stroke-opacity:0.4980392156862745;stroke-miterlimit:2;stroke-dasharray:2;" x1="268" x2="268" y1="300" y2="1239"/>
  <line style="fill:none;stroke:rgb(255,127,0);stroke-opacity:0.4980392156862745;stroke-miterlimit:2;stroke-dasharray:2;" x1="268" x2="268" y1="300" y2="1254"/>
  <line style="fill:none;stroke:rgb(255,127,0);stroke-opacity:0.4980392156862745;stroke-miterlimit:2;stroke-dasharray:2;" x1="268" x2="268" y1="300" y2="1269"/>
  <line style="fill:none;stroke:rgb(255,127,0);stroke-opacity:0.4980392156862745;stroke-miterlimit:2;stroke-dasharray:2;" x1="268" x2="268" y1="300" y2="1284"/>
  <line style="fill:none;stroke:rgb(255,127,0);stroke-opacity:0.4980392156862745;stroke-miterlimit:2;stroke-dasharray:2;" x1="268" x2="268" y1="300" y2="1299"/>
  <line style="fill:none;stroke:rgb(255,127,0);stroke-opacity:0.4980392156862745;stroke-miterlimit:2;stroke-dasharray:2;" x1="283" x2="283" y1="300" y2="1314"/>
  <line style="fill:none;stroke:rgb(255,127,0);stroke-opacity:0.4980392156862745;stroke-miterlimit:2;stroke-dasharray:2;" x1="283" x2="283" y1="300" y2="1329"/>
  <line style="fill:none;stroke:rgb(255,127,0);stroke-opacity:0.4980392156862745;stroke-miterlimit:2;stroke-dasharray:2;" x1="283" x2="283" y1="300" y2="1344"/>
  <line style="fill:none;stroke:rgb(255,127,0);stroke-opacity:0.4980392156862745;stroke-miterlimit:2;stroke-dasharray:2;" x1="283" x2="283" y1="300" y2="1359"/>
  <line style="fill:none;stroke:rgb(255,127,0);stroke-opacity:0.4980392156862745;stroke-miterlimit:2;stroke-dasharray:2;" x1="283" x2="283" y1="300" y2="1374"/>
  <line style="fill:none;stroke:rgb(255,127,0);stroke-opacity:0.4980392156862745;stroke-miterlimit:2;stroke-dasharray:2;" x1="297" x2="297" y1="300" y2="1389"/>
  <line style="fill:none;stroke:rgb(255,127,0);stroke-opacity:0.4980392156862745;stroke-miterlimit:2;stroke-dasharray:2;" x1="297" x2="297" y1="300" y2="1404"/>
  <line style="fill:none;stroke:rgb(255,127,0);stroke-opacity:0.4980392156862745;stroke-miterlimit:2;stroke-dasharray:2;" x1="297" x2="297" y1="300" y2="1419"/>
  <line style="fill:none;stroke:rgb(255,127,0);stroke-opacity:0.4980392156862745;stroke-miterlimit:2;stroke-dasharray:2;" x1="297" x2="297" y1="300" y2="1434"/>
  <line style="fill:none;stroke:rgb(255,127,0);stroke-opacity:0.4980392156862745;stroke-miterlimit:2;stroke-dasharray:2;" x1="297" x2="297" y1="300" y2="1449"/>
  <line style="fill:none;stroke:rgb(255,127,0);stroke-opacity:0.4980392156862745;stroke-miterlimit:2;stroke-dasharray:2;" x1="297" x2="297" y1="300" y2="1464"/>
  <line style="fill:none;stroke:rgb(255,127,0);stroke-opacity:0.4980392156862745;stroke-miterlimit:2;stroke-dasharray:2;" x1="312" x2="312" y1="300" y2="1478"/>
  <line style="fill:none;stroke:rgb(255,127,0);stroke-opacity:0.4980392156862745;stroke-miterlimit:2;stroke-dasharray:2;" x1="312" x2="312" y1="300" y2="1492"/>
  <line style="fill:none;stroke:rgb(255,127,0);stroke-opacity:0.4980392156862745;stroke-miterlimit:2;stroke-dasharray:2;" x1="327" x2="327" y1="300" y2="1506"/>
  <line style="fill:none;stroke:rgb(255,127,0);stroke-opacity:0.4980392156862745;stroke-miterlimit:2;stroke-dasharray:2;" x1="327" x2="327" y1="300" y2="1520"/>
  <line style="fill:none;stroke:rgb(255,127,0);stroke-opacity:0.4980392156862745;stroke-miterlimit:2;stroke-dasharray:2;" x1="327" x2="327" y1="300" y2="1534"/>
  <line style="fill:none;stroke:rgb(255,127,0);stroke-opacity:0.4980392156862745;stroke-miterlimit:2;stroke-dasharray:2;" x1="341" x2="341" y1="300" y2="1548"/>
  <line style="fill:none;stroke:rgb(255,127,0);stroke-opacity:0.4980392156862745;stroke-miterlimit:2;stroke-dasharray:2;" x1="341" x2="341" y1="300" y2="1562"/>
  <line style="fill:none;stroke:rgb(255,127,0);stroke-opacity:0.4980392156862745;stroke-miterlimit:2;stroke-dasharray:2;" x1="356" x2="356" y1="300" y2="1576"/>
  <line style="fill:none;stroke:rgb(255,127,0);stroke-opacity:0.4980392156862745;stroke-miterlimit:2;stroke-dasharray:2;" x1="370" x2="370" y1="300" y2="1590"/>
  <line style="fill:none;stroke:rgb(255,127,0);stroke-opacity:0.4980392156862745;stroke-miterlimit:2;stroke-dasharray:2;" x1="385" x2="385" y1="300" y2="1604"/>
  <line style="fill:none;stroke:rgb(255,127,0);stroke-opacity:0.4980392156862745;stroke-miterlimit:2;stroke-dasharray:2;" x1="385" x2="385" y1="300" y2="1618"/>
  <line style="fill:none;stroke:rgb(0,0,0);stroke-width:2;stroke-miterlimit:10;stroke-linecap:square;" x1="48" x2="48" y1="60" y2="300"/>
  <line style="fill:none;stroke:rgb(0,0,0);stroke-width:2;stroke-miterlimit:10;stroke-linecap:square;" x1="48" x2="402" y1="300" y2="300"/>
  <rect height="30" style="fill:rgb(255,255,255);stroke:none;" width="17" x="42" y="308"/>
  <text style="fill:rgb(0,0,0);stroke:none;font-size:25px;font-weight:bold;" x="42" y="332">0</text>
  <rect height="30" style="fill:rgb(255,255,255);stroke:none;" width="34" x="383" y="308"/>
  <text style="fill:rgb(0,0,0);stroke:none;font-size:25px;font-weight:bold;" x="383" y="332">24</text>
  <text style="fill:rgb(0,0,0);stroke:none;font-size:25px;font-weight:bold;" x="25" y="312">0</text>
  <text style="fill:rgb(0,0,0);stroke:none;font-size:25px;font-weight:bold;" x="25" y="72">1</text>
  <text style="fill:rgb(0,0,0);stroke:none;font-size:25px;font-weight:bold;" x="10" y="42">GOBP_LIPID_METABOLIC_PROCESS</text>
  <rect height="11" style="fill:rgb(255,255,255);stroke:none;" width="36" x="50" y="339"/>
  <text style="fill:rgb(128,128,128);stroke:none;font-size:11px;" x="50" y="350">PRKCE</text>
  <rect height="11" style="fill:rgb(255,255,255);stroke:none;" width="26" x="64" y="353"/>
  <text style="fill:rgb(128,128,128);stroke:none;font-size:11px;" x="64" y="364">IPMK</text>
  <rect height="11" style="fill:rgb(255,255,255);stroke:none;" width="37" x="64" y="367"/>
  <text style="fill:rgb(128,128,128);stroke:none;font-size:11px;" x="64" y="378">GPER1</text>
  <rect height="11" style="fill:rgb(255,255,255);stroke:none;" width="36" x="64" y="381"/>
  <text style="fill:rgb(128,128,128);stroke:none;font-size:11px;" x="64" y="392">PPM1L</text>
  <rect height="11" style="fill:rgb(255,255,255);stroke:none;" width="44" x="64" y="395"/>
  <text style="fill:rgb(128,128,128);stroke:none;font-size:11px;" x="64" y="406">AGPAT4</text>
  <rect height="11" style="fill:rgb(255,255,255);stroke:none;" width="51" x="79" y="409"/>
  <text style="fill:rgb(128,128,128);stroke:none;font-size:11px;" x="79" y="420">ST3GAL4</text>
  <rect height="11" style="fill:rgb(255,255,255);stroke:none;" width="59" x="79" y="423"/>
  <text style="fill:rgb(128,128,128);stroke:none;font-size:11px;" x="79" y="434">PPARGC1A</text>
  <rect height="11" style="fill:rgb(255,255,255);stroke:none;" width="29" x="93" y="437"/>
  <text style="fill:rgb(128,128,128);stroke:none;font-size:11px;" x="93" y="448">PDK1</text>
  <rect height="11" style="fill:rgb(255,255,255);stroke:none;" width="31" x="93" y="451"/>
  <text style="fill:rgb(128,128,128);stroke:none;font-size:11px;" x="93" y="462">CDS2</text>
  <rect height="11" style="fill:rgb(255,255,255);stroke:none;" width="34" x="93" y="465"/>
  <text style="fill:rgb(128,128,128);stroke:none;font-size:11px;" x="93" y="476">VLDLR</text>
  <rect height="11" style="fill:rgb(255,255,255);stroke:none;" width="38" x="93" y="479"/>
  <text style="fill:rgb(128,128,128);stroke:none;font-size:11px;" x="93" y="490">DHRS3</text>
  <rect height="11" style="fill:rgb(255,255,255);stroke:none;" width="50" x="93" y="493"/>
  <text style="fill:rgb(128,128,128);stroke:none;font-size:11px;" x="93" y="504">SEC14L2</text>
  <rect height="11" style="fill:rgb(255,255,255);stroke:none;" width="53" x="93" y="507"/>
  <text style="fill:rgb(128,128,128);stroke:none;font-size:11px;" x="93" y="518">HSD11B2</text>
  <rect height="11" style="fill:rgb(255,255,255);stroke:none;" width="49" x="93" y="521"/>
  <text style="fill:rgb(128,128,128);stroke:none;font-size:11px;" x="93" y="532">PLEKHA1</text>
  <rect height="11" style="fill:rgb(255,255,255);stroke:none;" width="39" x="108" y="535"/>
  <text style="fill:rgb(128,128,128);stroke:none;font-size:11px;" x="108" y="546">ABCG1</text>
  <rect height="11" style="fill:rgb(255,255,255);stroke:none;" width="45" x="108" y="549"/>
  <text style="fill:rgb(128,128,128);stroke:none;font-size:11px;" x="108" y="560">DHRS13</text>
  <rect height="11" style="fill:rgb(255,255,255);stroke:none;" width="27" x="122" y="563"/>
  <text style="fill:rgb(128,128,128);stroke:none;font-size:11px;" x="122" y="574">PRLR</text>
  <rect height="11" style="fill:rgb(255,255,255);stroke:none;" width="28" x="137" y="577"/>
  <text style="fill:rgb(128,128,128);stroke:none;font-size:11px;" x="137" y="588">FUT3</text>
  <rect height="11" style="fill:rgb(255,255,255);stroke:none;" width="32" x="137" y="591"/>
  <text style="fill:rgb(128,128,128);stroke:none;font-size:11px;" x="137" y="602">APOM</text>
  <rect height="11" style="fill:rgb(255,255,255);stroke:none;" width="37" x="137" y="605"/>
  <text style="fill:rgb(128,128,128);stroke:none;font-size:11px;" x="137" y="616">NPAS2</text>
  <rect height="11" style="fill:rgb(255,255,255);stroke:none;" width="37" x="152" y="619"/>
  <text style="fill:rgb(128,128,128);stroke:none;font-size:11px;" x="152" y="630">TGFB1</text>
  <rect height="11" style="fill:rgb(255,255,255);stroke:none;" width="30" x="166" y="633"/>
  <text style="fill:rgb(128,128,128);stroke:none;font-size:11px;" x="166" y="644">ECH1</text>
  <rect height="11" style="fill:rgb(255,255,255);stroke:none;" width="30" x="166" y="647"/>
  <text style="fill:rgb(128,128,128);stroke:none;font-size:11px;" x="166" y="658">EGR1</text>
  <rect height="11" style="fill:rgb(255,255,255);stroke:none;" width="23" x="195" y="661"/>
  <text style="fill:rgb(128,128,128);stroke:none;font-size:11px;" x="195" y="672">AVIL</text>
  <rect height="11" style="fill:rgb(255,255,255);stroke:none;" width="29" x="195" y="675"/>
  <text style="fill:rgb(128,128,128);stroke:none;font-size:11px;" x="195" y="686">ALG2</text>
  <rect height="11" style="fill:rgb(255,255,255);stroke:none;" width="36" x="195" y="689"/>
  <text style="fill:rgb(128,128,128);stroke:none;font-size:11px;" x="195" y="700">NR4A3</text>
  <rect height="11" style="fill:rgb(255,255,255);stroke:none;" width="51" x="195" y="703"/>
  <text style="fill:rgb(128,128,128);stroke:none;font-size:11px;" x="195" y="714">ST3GAL2</text>
  <rect height="12" style="fill:rgb(255,255,255);stroke:none;" width="23" x="210" y="717"/>
  <text style="fill:rgb(128,128,128);stroke:none;" x="210" y="729">TNF</text>
  <rect height="12" style="fill:rgb(255,255,255);stroke:none;" width="41" x="210" y="732"/>
  <text style="fill:rgb(128,128,128);stroke:none;" x="210" y="744">HCAR2</text>
  <rect height="12" style="fill:rgb(255,255,255);stroke:none;" width="35" x="210" y="747"/>
  <text style="fill:rgb(128,128,128);stroke:none;" x="210" y="759">LIMA1</text>
  <rect height="12" style="fill:rgb(255,255,255);stroke:none;" width="43" x="210" y="762"/>
  <text style="fill:rgb(128,128,128);stroke:none;" x="210" y="774">MORC2</text>
  <rect height="12" style="fill:rgb(255,255,255);stroke:none;" width="35" x="225" y="777"/>
  <text style="fill:rgb(128,128,128);stroke:none;" x="225" y="789">GCDH</text>
  <rect height="12" style="fill:rgb(255,255,255);stroke:none;" width="31" x="225" y="792"/>
  <text style="fill:rgb(128,128,128);stroke:none;" x="225" y="804">NFYB</text>
  <rect height="12" style="fill:rgb(255,255,255);stroke:none;" width="40" x="225" y="807"/>
  <text style="fill:rgb(128,128,128);stroke:none;" x="225" y="819">CERS4</text>
  <rect height="12" style="fill:rgb(255,255,255);stroke:none;" width="32" x="225" y="822"/>
  <text style="fill:rgb(128,128,128);stroke:none;" x="225" y="834">LIPT1</text>
  <rect height="12" style="fill:rgb(255,255,255);stroke:none;" width="47" x="225" y="837"/>
  <text style="fill:rgb(128,128,128);stroke:none;" x="225" y="849">THNSL2</text>
  <rect height="12" style="fill:rgb(255,255,255);stroke:none;" width="55" x="225" y="852"/>
  <text style="fill:rgb(128,128,128);stroke:none;" x="225" y="864">PLA2G4A</text>
  <rect height="12" style="fill:rgb(255,255,255);stroke:none;" width="55" x="225" y="867"/>
  <text style="fill:rgb(128,128,128);stroke:none;" x="225" y="879">CYP39A1</text>
  <rect height="12" style="fill:rgb(255,255,255);stroke:none;" width="29" x="239" y="882"/>
  <text style="fill:rgb(128,128,128);stroke:none;" x="239" y="894">PIGO</text>
  <rect height="12" style="fill:rgb(255,255,255);stroke:none;" width="28" x="239" y="897"/>
  <text style="fill:rgb(128,128,128);stroke:none;" x="239" y="909">PIGV</text>
  <rect height="12" style="fill:rgb(255,255,255);stroke:none;" width="31" x="239" y="912"/>
  <text style="fill:rgb(128,128,128);stroke:none;" x="239" y="924">FUT2</text>
  <rect height="12" style="fill:rgb(255,255,255);stroke:none;" width="32" x="239" y="927"/>
  <text style="fill:rgb(128,128,128);stroke:none;" x="239" y="939">CHKA</text>
  <rect height="12" style="fill:rgb(255,255,255);stroke:none;" width="31" x="239" y="942"/>
  <text style="fill:rgb(128,128,128);stroke:none;" x="239" y="954">NFYA</text>
  <rect height="12" style="fill:rgb(255,255,255);stroke:none;" width="38" x="239" y="957"/>
  <text style="fill:rgb(128,128,128);stroke:none;" x="239" y="969">ACSL3</text>
  <rect height="12" style="fill:rgb(255,255,255);stroke:none;" width="42" x="239" y="972"/>
  <text style="fill:rgb(128,128,128);stroke:none;" x="239" y="984">CH25H</text>
  <rect height="12" style="fill:rgb(255,255,255);stroke:none;" width="39" x="239" y="987"/>
  <text style="fill:rgb(128,128,128);stroke:none;" x="239" y="999">CSF1R</text>
  <rect height="12" style="fill:rgb(255,255,255);stroke:none;" width="42" x="239" y="1002"/>
  <text style="fill:rgb(128,128,128);stroke:none;" x="239" y="1014">NR1D2</text>
  <rect height="12" style="fill:rgb(255,255,255);stroke:none;" width="57" x="239" y="1017"/>
  <text style="fill:rgb(128,128,128);stroke:none;" x="239" y="1029">SDR16C5</text>
  <rect height="12" style="fill:rgb(255,255,255);stroke:none;" width="54" x="239" y="1032"/>
  <text style="fill:rgb(128,128,128);stroke:none;" x="239" y="1044">PLA2G4F</text>
  <rect height="12" style="fill:rgb(255,255,255);stroke:none;" width="28" x="254" y="1047"/>
  <text style="fill:rgb(128,128,128);stroke:none;" x="254" y="1059">PIGP</text>
  <rect height="12" style="fill:rgb(255,255,255);stroke:none;" width="31" x="254" y="1062"/>
  <text style="fill:rgb(128,128,128);stroke:none;" x="254" y="1074">ALG8</text>
  <rect height="12" style="fill:rgb(255,255,255);stroke:none;" width="27" x="254" y="1077"/>
  <text style="fill:rgb(128,128,128);stroke:none;" x="254" y="1089">PIGF</text>
  <rect height="12" style="fill:rgb(255,255,255);stroke:none;" width="35" x="254" y="1092"/>
  <text style="fill:rgb(128,128,128);stroke:none;" x="254" y="1104">OMA1</text>
  <rect height="12" style="fill:rgb(255,255,255);stroke:none;" width="33" x="254" y="1107"/>
  <text style="fill:rgb(128,128,128);stroke:none;" x="254" y="1119">GPC2</text>
  <rect height="12" style="fill:rgb(255,255,255);stroke:none;" width="29" x="254" y="1122"/>
  <text style="fill:rgb(128,128,128);stroke:none;" x="254" y="1134">LDLR</text>
  <rect height="12" style="fill:rgb(255,255,255);stroke:none;" width="34" x="254" y="1137"/>
  <text style="fill:rgb(128,128,128);stroke:none;" x="254" y="1149">NAGA</text>
  <rect height="12" style="fill:rgb(255,255,255);stroke:none;" width="40" x="254" y="1152"/>
  <text style="fill:rgb(128,128,128);stroke:none;" x="254" y="1164">CES4A</text>
  <rect height="12" style="fill:rgb(255,255,255);stroke:none;" width="42" x="254" y="1167"/>
  <text style="fill:rgb(128,128,128);stroke:none;" x="254" y="1179">ABHD3</text>
  <rect height="12" style="fill:rgb(255,255,255);stroke:none;" width="44" x="254" y="1182"/>
  <text style="fill:rgb(128,128,128);stroke:none;" x="254" y="1194">HMGCR</text>
  <rect height="12" style="fill:rgb(255,255,255);stroke:none;" width="47" x="254" y="1197"/>
  <text style="fill:rgb(128,128,128);stroke:none;" x="254" y="1209">AKR1C3</text>
  <rect height="12" style="fill:rgb(255,255,255);stroke:none;" width="58" x="254" y="1212"/>
  <text style="fill:rgb(128,128,128);stroke:none;" x="254" y="1224">HSD17B7</text>
  <rect height="12" style="fill:rgb(255,255,255);stroke:none;" width="39" x="268" y="1227"/>
  <text style="fill:rgb(128,128,128);stroke:none;" x="268" y="1239">APOL2</text>
  <rect height="12" style="fill:rgb(255,255,255);stroke:none;" width="51" x="268" y="1242"/>
  <text style="fill:rgb(128,128,128);stroke:none;" x="268" y="1254">WNT10B</text>
  <rect height="12" style="fill:rgb(255,255,255);stroke:none;" width="47" x="268" y="1257"/>
  <text style="fill:rgb(128,128,128);stroke:none;" x="268" y="1269">PNPLA1</text>
  <rect height="12" style="fill:rgb(255,255,255);stroke:none;" width="54" x="268" y="1272"/>
  <text style="fill:rgb(128,128,128);stroke:none;" x="268" y="1284">SLC27A1</text>
  <rect height="12" style="fill:rgb(255,255,255);stroke:none;" width="54" x="268" y="1287"/>
  <text style="fill:rgb(128,128,128);stroke:none;" x="268" y="1299">GAL3ST4</text>
  <rect height="12" style="fill:rgb(255,255,255);stroke:none;" width="33" x="283" y="1302"/>
  <text style="fill:rgb(128,128,128);stroke:none;" x="283" y="1314">ASPG</text>
  <rect height="12" style="fill:rgb(255,255,255);stroke:none;" width="32" x="283" y="1317"/>
  <text style="fill:rgb(128,128,128);stroke:none;" x="283" y="1329">LDAH</text>
  <rect height="12" style="fill:rgb(255,255,255);stroke:none;" width="40" x="283" y="1332"/>
  <text style="fill:rgb(128,128,128);stroke:none;" x="283" y="1344">BRCA1</text>
  <rect height="12" style="fill:rgb(255,255,255);stroke:none;" width="41" x="283" y="1347"/>
  <text style="fill:rgb(128,128,128);stroke:none;" x="283" y="1359">AADAC</text>
  <rect height="12" style="fill:rgb(255,255,255);stroke:none;" width="50" x="283" y="1362"/>
  <text style="fill:rgb(128,128,128);stroke:none;" x="283" y="1374">DHCR24</text>
  <rect height="12" style="fill:rgb(255,255,255);stroke:none;" width="32" x="297" y="1377"/>
  <text style="fill:rgb(128,128,128);stroke:none;" x="297" y="1389">PDK4</text>
  <rect height="12" style="fill:rgb(255,255,255);stroke:none;" width="40" x="297" y="1392"/>
  <text style="fill:rgb(128,128,128);stroke:none;" x="297" y="1404">ACACA</text>
  <rect height="12" style="fill:rgb(255,255,255);stroke:none;" width="41" x="297" y="1407"/>
  <text style="fill:rgb(128,128,128);stroke:none;" x="297" y="1419">SOCS2</text>
  <rect height="12" style="fill:rgb(255,255,255);stroke:none;" width="36" x="297" y="1422"/>
  <text style="fill:rgb(128,128,128);stroke:none;" x="297" y="1434">TBL1X</text>
  <rect height="12" style="fill:rgb(255,255,255);stroke:none;" width="49" x="297" y="1437"/>
  <text style="fill:rgb(128,128,128);stroke:none;" x="297" y="1449">PDGFRA</text>
  <rect height="12" style="fill:rgb(255,255,255);stroke:none;" width="55" x="297" y="1452"/>
  <text style="fill:rgb(128,128,128);stroke:none;" x="297" y="1464">CYP2C18</text>
  <rect height="11" style="fill:rgb(255,255,255);stroke:none;" width="36" x="312" y="1467"/>
  <text style="fill:rgb(128,128,128);stroke:none;font-size:11px;" x="312" y="1478">EPHX2</text>
  <rect height="11" style="fill:rgb(255,255,255);stroke:none;" width="50" x="312" y="1481"/>
  <text style="fill:rgb(128,128,128);stroke:none;font-size:11px;" x="312" y="1492">CYP51A1</text>
  <rect height="11" style="fill:rgb(255,255,255);stroke:none;" width="37" x="327" y="1495"/>
  <text style="fill:rgb(128,128,128);stroke:none;font-size:11px;" x="327" y="1506">TTC7B</text>
  <rect height="11" style="fill:rgb(255,255,255);stroke:none;" width="36" x="327" y="1509"/>
  <text style="fill:rgb(128,128,128);stroke:none;font-size:11px;" x="327" y="1520">ACAT2</text>
  <rect height="11" style="fill:rgb(255,255,255);stroke:none;" width="42" x="327" y="1523"/>
  <text style="fill:rgb(128,128,128);stroke:none;font-size:11px;" x="327" y="1534">ELOVL6</text>
  <rect height="11" style="fill:rgb(255,255,255);stroke:none;" width="21" x="341" y="1537"/>
  <text style="fill:rgb(128,128,128);stroke:none;font-size:11px;" x="341" y="1548">TEK</text>
  <rect height="11" style="fill:rgb(255,255,255);stroke:none;" width="25" x="341" y="1551"/>
  <text style="fill:rgb(128,128,128);stroke:none;font-size:11px;" x="341" y="1562">IRS2</text>
  <rect height="11" style="fill:rgb(255,255,255);stroke:none;" width="28" x="356" y="1565"/>
  <text style="fill:rgb(128,128,128);stroke:none;font-size:11px;" x="356" y="1576">PER2</text>
  <rect height="11" style="fill:rgb(255,255,255);stroke:none;" width="40" x="370" y="1579"/>
  <text style="fill:rgb(128,128,128);stroke:none;font-size:11px;" x="370" y="1590">IGFBP7</text>
  <rect height="11" style="fill:rgb(255,255,255);stroke:none;" width="38" x="385" y="1593"/>
  <text style="fill:rgb(128,128,128);stroke:none;font-size:11px;" x="385" y="1604">ADH1C</text>
  <rect height="11" style="fill:rgb(255,255,255);stroke:none;" width="50" x="385" y="1607"/>
  <text style="fill:rgb(128,128,128);stroke:none;font-size:11px;" x="385" y="1618">RARRES2</text>
</svg>
