<?xml version="1.0" encoding="UTF-8" standalone="no"?>
<!DOCTYPE svg PUBLIC "-//W3C//DTD SVG 1.1//EN" "http://www.w3.org/Graphics/SVG/1.1/DTD/svg11.dtd">
<svg xmlns:xlink="http://www.w3.org/1999/xlink" height="158.74999999999997mm" version="1.1" viewBox="0 0 500 600" width="132.29166666666666mm" x="0mm" y="0mm" xmlns="http://www.w3.org/2000/svg">
  <rect height="1200" style="fill:rgb(255,255,255);stroke:none;" width="1000" x="0" y="0"/>
  <rect height="240" style="fill:rgb(191,191,191);fill-opacity:0.4980392156862745;stroke:none;" width="175" x="225" y="60"/>
  <line style="fill:none;stroke:rgb(63,63,191);stroke-opacity:0.24705882352941178;stroke-miterlimit:10;stroke-linecap:square;" x1="50" x2="-8" y1="300" y2="300"/>
  <line style="fill:none;stroke:rgb(63,63,191);stroke-opacity:0.24705882352941178;stroke-miterlimit:10;stroke-linecap:square;" x1="-8" x2="6" y1="300" y2="300"/>
  <line style="fill:none;stroke:rgb(63,63,191);stroke-opacity:0.24705882352941178;stroke-miterlimit:10;stroke-linecap:square;" x1="6" x2="20" y1="300" y2="300"/>
  <line style="fill:none;stroke:rgb(63,63,191);stroke-opacity:0.24705882352941178;stroke-miterlimit:10;stroke-linecap:square;" x1="20" x2="35" y1="300" y2="300"/>
  <line style="fill:none;stroke:rgb(63,63,191);stroke-opacity:0.24705882352941178;stroke-miterlimit:10;stroke-linecap:square;" x1="35" x2="50" y1="300" y2="300"/>
  <line style="fill:none;stroke:rgb(63,63,191);stroke-opacity:0.24705882352941178;stroke-miterlimit:10;stroke-linecap:square;" x1="50" x2="64" y1="300" y2="290"/>
  <line style="fill:none;stroke:rgb(63,63,191);stroke-opacity:0.24705882352941178;stroke-miterlimit:10;stroke-linecap:square;" x1="64" x2="79" y1="290" y2="280"/>
  <line style="fill:none;stroke:rgb(63,63,191);stroke-opacity:0.24705882352941178;stroke-miterlimit:10;stroke-linecap:square;" x1="79" x2="93" y1="280" y2="270"/>
  <line style="fill:none;stroke:rgb(63,63,191);stroke-opacity:0.24705882352941178;stroke-miterlimit:10;stroke-linecap:square;" x1="93" x2="108" y1="270" y2="260"/>
  <line style="fill:none;stroke:rgb(63,63,191);stroke-opacity:0.24705882352941178;stroke-miterlimit:10;stroke-linecap:square;" x1="108" x2="122" y1="260" y2="250"/>
  <line style="fill:none;stroke:rgb(63,63,191);stroke-opacity:0.24705882352941178;stroke-miterlimit:10;stroke-linecap:square;" x1="122" x2="137" y1="250" y2="240"/>
  <line style="fill:none;stroke:rgb(63,63,191);stroke-opacity:0.24705882352941178;stroke-miterlimit:10;stroke-linecap:square;" x1="137" x2="152" y1="240" y2="230"/>
  <line style="fill:none;stroke:rgb(63,63,191);stroke-opacity:0.24705882352941178;stroke-miterlimit:10;stroke-linecap:square;" x1="152" x2="166" y1="230" y2="220"/>
  <line style="fill:none;stroke:rgb(63,63,191);stroke-opacity:0.24705882352941178;stroke-miterlimit:10;stroke-linecap:square;" x1="166" x2="181" y1="220" y2="210"/>
  <line style="fill:none;stroke:rgb(63,63,191);stroke-opacity:0.24705882352941178;stroke-miterlimit:10;stroke-linecap:square;" x1="181" x2="195" y1="210" y2="200"/>
  <line style="fill:none;stroke:rgb(63,63,191);stroke-opacity:0.24705882352941178;stroke-miterlimit:10;stroke-linecap:square;" x1="195" x2="210" y1="200" y2="190"/>
  <line style="fill:none;stroke:rgb(63,63,191);stroke-opacity:0.24705882352941178;stroke-miterlimit:10;stroke-linecap:square;" x1="210" x2="225" y1="190" y2="180"/>
  <line style="fill:none;stroke:rgb(63,63,191);stroke-opacity:0.24705882352941178;stroke-miterlimit:10;stroke-linecap:square;" x1="225" x2="239" y1="180" y2="170"/>
  <line style="fill:none;stroke:rgb(63,63,191);stroke-opacity:0.24705882352941178;stroke-miterlimit:10;stroke-linecap:square;" x1="239" x2="254" y1="170" y2="160"/>
  <line style="fill:none;stroke:rgb(63,63,191);stroke-opacity:0.24705882352941178;stroke-miterlimit:10;stroke-linecap:square;" x1="254" x2="268" y1="160" y2="150"/>
  <line style="fill:none;stroke:rgb(63,63,191);stroke-opacity:0.24705882352941178;stroke-miterlimit:10;stroke-linecap:square;" x1="268" x2="283" y1="150" y2="140"/>
  <line style="fill:none;stroke:rgb(63,63,191);stroke-opacity:0.24705882352941178;stroke-miterlimit:10;stroke-linecap:square;" x1="283" x2="297" y1="140" y2="130"/>
  <line style="fill:none;stroke:rgb(63,63,191);stroke-opacity:0.24705882352941178;stroke-miterlimit:10;stroke-linecap:square;" x1="297" x2="312" y1="130" y2="120"/>
  <line style="fill:none;stroke:rgb(63,63,191);stroke-opacity:0.24705882352941178;stroke-miterlimit:10;stroke-linecap:square;" x1="312" x2="327" y1="120" y2="110"/>
  <line style="fill:none;stroke:rgb(63,63,191);stroke-opacity:0.24705882352941178;stroke-miterlimit:10;stroke-linecap:square;" x1="327" x2="341" y1="110" y2="100"/>
  <line style="fill:none;stroke:rgb(63,63,191);stroke-opacity:0.24705882352941178;stroke-miterlimit:10;stroke-linecap:square;" x1="341" x2="400" y1="100" y2="60"/>
  <rect height="6" style="fill:rgb(255,127,0);fill-opacity:0.7490196078431373;stroke:none;" width="4" x="-10" y="293"/>
  <line style="fill:none;stroke:rgb(255,127,0);stroke-opacity:0.24705882352941178;stroke-width:2;stroke-miterlimit:10;stroke-linecap:square;" x1="50" x2="-8" y1="300" y2="300"/>
  <line style="fill:none;stroke:rgb(255,127,0);stroke-opacity:0.24705882352941178;stroke-width:2;stroke-miterlimit:10;stroke-linecap:square;" x1="-8" x2="-8" y1="298" y2="295"/>
  <rect height="19" style="fill:rgb(255,127,0);fill-opacity:0.7490196078431373;stroke:none;" width="4" x="4" y="280"/>
  <line style="fill:none;stroke:rgb(255,127,0);stroke-opacity:0.24705882352941178;stroke-width:2;stroke-miterlimit:10;stroke-linecap:square;" x1="-8" x2="6" y1="293" y2="293"/>
  <line style="fill:none;stroke:rgb(255,127,0);stroke-opacity:0.24705882352941178;stroke-width:2;stroke-miterlimit:10;stroke-linecap:square;" x1="6" x2="6" y1="291" y2="275"/>
  <rect height="13" style="fill:rgb(255,127,0);fill-opacity:0.7490196078431373;stroke:none;" width="4" x="18" y="286"/>
  <line style="fill:none;stroke:rgb(255,127,0);stroke-opacity:0.24705882352941178;stroke-width:2;stroke-miterlimit:10;stroke-linecap:square;" x1="6" x2="20" y1="273" y2="273"/>
  <line style="fill:none;stroke:rgb(255,127,0);stroke-opacity:0.24705882352941178;stroke-width:2;stroke-miterlimit:10;stroke-linecap:square;" x1="20" x2="20" y1="271" y2="262"/>
  <rect height="16" style="fill:rgb(255,127,0);fill-opacity:0.7490196078431373;stroke:none;" width="4" x="48" y="283"/>
  <line style="fill:none;stroke:rgb(255,127,0);stroke-opacity:0.24705882352941178;stroke-width:2;stroke-miterlimit:10;stroke-linecap:square;" x1="20" x2="50" y1="260" y2="260"/>
  <line style="fill:none;stroke:rgb(255,127,0);stroke-opacity:0.24705882352941178;stroke-width:2;stroke-miterlimit:10;stroke-linecap:square;" x1="50" x2="50" y1="258" y2="246"/>
  <rect height="3" style="fill:rgb(255,127,0);fill-opacity:0.7490196078431373;stroke:none;" width="4" x="62" y="296"/>
  <line style="fill:none;stroke:rgb(255,127,0);stroke-opacity:0.24705882352941178;stroke-width:2;stroke-miterlimit:10;stroke-linecap:square;" x1="50" x2="64" y1="244" y2="244"/>
  <line style="fill:none;stroke:rgb(255,127,0);stroke-opacity:0.24705882352941178;stroke-width:2;stroke-miterlimit:10;stroke-linecap:square;" x1="64" x2="64" y1="242" y2="242"/>
  <rect height="3" style="fill:rgb(255,127,0);fill-opacity:0.7490196078431373;stroke:none;" width="4" x="77" y="296"/>
  <line style="fill:none;stroke:rgb(255,127,0);stroke-opacity:0.24705882352941178;stroke-width:2;stroke-miterlimit:10;stroke-linecap:square;" x1="64" x2="79" y1="240" y2="240"/>
  <line style="fill:none;stroke:rgb(255,127,0);stroke-opacity:0.24705882352941178;stroke-width:2;stroke-miterlimit:10;stroke-linecap:square;" x1="79" x2="79" y1="238" y2="239"/>
  <rect height="9" style="fill:rgb(255,127,0);fill-opacity:0.7490196078431373;stroke:none;" width="4" x="91" y="290"/>
  <line style="fill:none;stroke:rgb(255,127,0);stroke-opacity:0.24705882352941178;stroke-width:2;stroke-miterlimit:10;stroke-linecap:square;" x1="79" x2="93" y1="237" y2="237"/>
  <line style="fill:none;stroke:rgb(255,127,0);stroke-opacity:0.24705882352941178;stroke-width:2;stroke-miterlimit:10;stroke-linecap:square;" x1="93" x2="93" y1="235" y2="229"/>
  <rect height="9" style="fill:rgb(255,127,0);fill-opacity:0.7490196078431373;stroke:none;" width="4" x="106" y="290"/>
  <line style="fill:none;stroke:rgb(255,127,0);stroke-opacity:0.24705882352941178;stroke-width:2;stroke-miterlimit:10;stroke-linecap:square;" x1="93" x2="108" y1="227" y2="227"/>
  <line style="fill:none;stroke:rgb(255,127,0);stroke-opacity:0.24705882352941178;stroke-width:2;stroke-miterlimit:10;stroke-linecap:square;" x1="108" x2="108" y1="225" y2="219"/>
  <rect height="3" style="fill:rgb(255,127,0);fill-opacity:0.7490196078431373;stroke:none;" width="4" x="120" y="296"/>
  <line style="fill:none;stroke:rgb(255,127,0);stroke-opacity:0.24705882352941178;stroke-width:2;stroke-miterlimit:10;stroke-linecap:square;" x1="108" x2="122" y1="217" y2="217"/>
  <line style="fill:none;stroke:rgb(255,127,0);stroke-opacity:0.24705882352941178;stroke-width:2;stroke-miterlimit:10;stroke-linecap:square;" x1="122" x2="122" y1="215" y2="216"/>
  <rect height="6" style="fill:rgb(255,127,0);fill-opacity:0.7490196078431373;stroke:none;" width="4" x="135" y="293"/>
  <line style="fill:none;stroke:rgb(255,127,0);stroke-opacity:0.24705882352941178;stroke-width:2;stroke-miterlimit:10;stroke-linecap:square;" x1="122" x2="137" y1="214" y2="214"/>
  <line style="fill:none;stroke:rgb(255,127,0);stroke-opacity:0.24705882352941178;stroke-width:2;stroke-miterlimit:10;stroke-linecap:square;" x1="137" x2="137" y1="212" y2="209"/>
  <rect height="16" style="fill:rgb(255,127,0);fill-opacity:0.7490196078431373;stroke:none;" width="4" x="150" y="283"/>
  <line style="fill:none;stroke:rgb(255,127,0);stroke-opacity:0.24705882352941178;stroke-width:2;stroke-miterlimit:10;stroke-linecap:square;" x1="137" x2="152" y1="207" y2="207"/>
  <line style="fill:none;stroke:rgb(255,127,0);stroke-opacity:0.24705882352941178;stroke-width:2;stroke-miterlimit:10;stroke-linecap:square;" x1="152" x2="152" y1="205" y2="193"/>
  <rect height="19" style="fill:rgb(255,127,0);fill-opacity:0.7490196078431373;stroke:none;" width="4" x="164" y="280"/>
  <line style="fill:none;stroke:rgb(255,127,0);stroke-opacity:0.24705882352941178;stroke-width:2;stroke-miterlimit:10;stroke-linecap:square;" x1="152" x2="166" y1="191" y2="191"/>
  <line style="fill:none;stroke:rgb(255,127,0);stroke-opacity:0.24705882352941178;stroke-width:2;stroke-miterlimit:10;stroke-linecap:square;" x1="166" x2="166" y1="189" y2="173"/>
  <rect height="19" style="fill:rgb(255,127,0);fill-opacity:0.7490196078431373;stroke:none;" width="4" x="179" y="280"/>
  <line style="fill:none;stroke:rgb(255,127,0);stroke-opacity:0.24705882352941178;stroke-width:2;stroke-miterlimit:10;stroke-linecap:square;" x1="166" x2="181" y1="171" y2="171"/>
  <line style="fill:none;stroke:rgb(255,127,0);stroke-opacity:0.24705882352941178;stroke-width:2;stroke-miterlimit:10;stroke-linecap:square;" x1="181" x2="181" y1="169" y2="154"/>
  <rect height="19" style="fill:rgb(255,127,0);fill-opacity:0.7490196078431373;stroke:none;" width="4" x="193" y="280"/>
  <line style="fill:none;stroke:rgb(255,127,0);stroke-opacity:0.24705882352941178;stroke-width:2;stroke-miterlimit:10;stroke-linecap:square;" x1="181" x2="195" y1="152" y2="152"/>
  <line style="fill:none;stroke:rgb(255,127,0);stroke-opacity:0.24705882352941178;stroke-width:2;stroke-miterlimit:10;stroke-linecap:square;" x1="195" x2="195" y1="150" y2="134"/>
  <rect height="13" style="fill:rgb(255,127,0);fill-opacity:0.7490196078431373;stroke:none;" width="4" x="208" y="286"/>
  <line style="fill:none;stroke:rgb(255,127,0);stroke-opacity:0.24705882352941178;stroke-width:2;stroke-miterlimit:10;stroke-linecap:square;" x1="195" x2="210" y1="132" y2="132"/>
  <line style="fill:none;stroke:rgb(255,127,0);stroke-opacity:0.24705882352941178;stroke-width:2;stroke-miterlimit:10;stroke-linecap:square;" x1="210" x2="210" y1="130" y2="121"/>
  <rect height="6" style="fill:rgb(255,127,0);fill-opacity:0.7490196078431373;stroke:none;" width="4" x="223" y="293"/>
  <line style="fill:none;stroke:rgb(255,127,0);stroke-opacity:0.24705882352941178;stroke-width:2;stroke-miterlimit:10;stroke-linecap:square;" x1="210" x2="225" y1="119" y2="119"/>
  <line style="fill:none;stroke:rgb(255,127,0);stroke-opacity:0.24705882352941178;stroke-width:2;stroke-miterlimit:10;stroke-linecap:square;" x1="225" x2="225" y1="117" y2="114"/>
  <rect height="6" style="fill:rgb(255,127,0);fill-opacity:0.7490196078431373;stroke:none;" width="4" x="237" y="293"/>
  <line style="fill:none;stroke:rgb(255,127,0);stroke-opacity:0.24705882352941178;stroke-width:2;stroke-miterlimit:10;stroke-linecap:square;" x1="225" x2="239" y1="112" y2="112"/>
  <line style="fill:none;stroke:rgb(255,127,0);stroke-opacity:0.24705882352941178;stroke-width:2;stroke-miterlimit:10;stroke-linecap:square;" x1="239" x2="239" y1="110" y2="108"/>
  <rect height="6" style="fill:rgb(255,127,0);fill-opacity:0.7490196078431373;stroke:none;" width="4" x="252" y="293"/>
  <line style="fill:none;stroke:rgb(255,127,0);stroke-opacity:0.24705882352941178;stroke-width:2;stroke-miterlimit:10;stroke-linecap:square;" x1="239" x2="254" y1="106" y2="106"/>
  <line style="fill:none;stroke:rgb(255,127,0);stroke-opacity:0.24705882352941178;stroke-width:2;stroke-miterlimit:10;stroke-linecap:square;" x1="254" x2="254" y1="104" y2="101"/>
  <rect height="3" style="fill:rgb(255,127,0);fill-opacity:0.7490196078431373;stroke:none;" width="4" x="266" y="296"/>
  <line style="fill:none;stroke:rgb(255,127,0);stroke-opacity:0.24705882352941178;stroke-width:2;stroke-miterlimit:10;stroke-linecap:square;" x1="254" x2="268" y1="99" y2="99"/>
  <line style="fill:none;stroke:rgb(255,127,0);stroke-opacity:0.24705882352941178;stroke-width:2;stroke-miterlimit:10;stroke-linecap:square;" x1="268" x2="268" y1="97" y2="98"/>
  <rect height="13" style="fill:rgb(255,127,0);fill-opacity:0.7490196078431373;stroke:none;" width="4" x="281" y="286"/>
  <line style="fill:none;stroke:rgb(255,127,0);stroke-opacity:0.24705882352941178;stroke-width:2;stroke-miterlimit:10;stroke-linecap:square;" x1="268" x2="283" y1="96" y2="96"/>
  <line style="fill:none;stroke:rgb(255,127,0);stroke-opacity:0.24705882352941178;stroke-width:2;stroke-miterlimit:10;stroke-linecap:square;" x1="283" x2="283" y1="94" y2="85"/>
  <rect height="6" style="fill:rgb(255,127,0);fill-opacity:0.7490196078431373;stroke:none;" width="4" x="295" y="293"/>
  <line style="fill:none;stroke:rgb(255,127,0);stroke-opacity:0.24705882352941178;stroke-width:2;stroke-miterlimit:10;stroke-linecap:square;" x1="283" x2="297" y1="83" y2="83"/>
  <line style="fill:none;stroke:rgb(255,127,0);stroke-opacity:0.24705882352941178;stroke-width:2;stroke-miterlimit:10;stroke-linecap:square;" x1="297" x2="297" y1="81" y2="78"/>
  <rect height="13" style="fill:rgb(255,127,0);fill-opacity:0.7490196078431373;stroke:none;" width="4" x="325" y="286"/>
  <line style="fill:none;stroke:rgb(255,127,0);stroke-opacity:0.24705882352941178;stroke-width:2;stroke-miterlimit:10;stroke-linecap:square;" x1="297" x2="327" y1="76" y2="76"/>
  <line style="fill:none;stroke:rgb(255,127,0);stroke-opacity:0.24705882352941178;stroke-width:2;stroke-miterlimit:10;stroke-linecap:square;" x1="327" x2="327" y1="74" y2="65"/>
  <rect height="3" style="fill:rgb(255,127,0);fill-opacity:0.7490196078431373;stroke:none;" width="4" x="339" y="296"/>
  <line style="fill:none;stroke:rgb(255,127,0);stroke-opacity:0.24705882352941178;stroke-width:2;stroke-miterlimit:10;stroke-linecap:square;" x1="327" x2="341" y1="63" y2="63"/>
  <line style="fill:none;stroke:rgb(255,127,0);stroke-opacity:0.24705882352941178;stroke-width:2;stroke-miterlimit:10;stroke-linecap:square;" x1="341" x2="341" y1="61" y2="62"/>
  <line style="fill:none;stroke:rgb(255,127,0);stroke-opacity:0.24705882352941178;stroke-width:2;stroke-miterlimit:10;stroke-linecap:square;" x1="341" x2="400" y1="60" y2="60"/>
  <line style="fill:none;stroke:rgb(255,127,0);stroke-opacity:0.4980392156862745;stroke-miterlimit:2;stroke-dasharray:2;" x1="-8" x2="-8" y1="300" y2="367"/>
  <line style="fill:none;stroke:rgb(255,127,0);stroke-opacity:0.4980392156862745;stroke-miterlimit:2;stroke-dasharray:2;" x1="-8" x2="-8" y1="300" y2="384"/>
  <line style="fill:none;stroke:rgb(255,127,0);stroke-opacity:0.4980392156862745;stroke-miterlimit:2;stroke-dasharray:2;" x1="6" x2="6" y1="300" y2="401"/>
  <line style="fill:none;stroke:rgb(255,127,0);stroke-opacity:0.4980392156862745;stroke-miterlimit:2;stroke-dasharray:2;" x1="6" x2="6" y1="300" y2="418"/>
  <line style="fill:none;stroke:rgb(255,127,0);stroke-opacity:0.4980392156862745;stroke-miterlimit:2;stroke-dasharray:2;" x1="6" x2="6" y1="300" y2="435"/>
  <line style="fill:none;stroke:rgb(255,127,0);stroke-opacity:0.4980392156862745;stroke-miterlimit:2;stroke-dasharray:2;" x1="6" x2="6" y1="300" y2="452"/>
  <line style="fill:none;stroke:rgb(255,127,0);stroke-opacity:0.4980392156862745;stroke-miterlimit:2;stroke-dasharray:2;" x1="6" x2="6" y1="300" y2="469"/>
  <line style="fill:none;stroke:rgb(255,127,0);stroke-opacity:0.4980392156862745;stroke-miterlimit:2;stroke-dasharray:2;" x1="6" x2="6" y1="300" y2="486"/>
  <line style="fill:none;stroke:rgb(255,127,0);stroke-opacity:0.4980392156862745;stroke-miterlimit:2;stroke-dasharray:2;" x1="20" x2="20" y1="300" y2="503"/>
  <line style="fill:none;stroke:rgb(255,127,0);stroke-opacity:0.4980392156862745;stroke-miterlimit:2;stroke-dasharray:2;" x1="20" x2="20" y1="300" y2="520"/>
  <line style="fill:none;stroke:rgb(255,127,0);stroke-opacity:0.4980392156862745;stroke-miterlimit:2;stroke-dasharray:2;" x1="20" x2="20" y1="300" y2="537"/>
  <line style="fill:none;stroke:rgb(255,127,0);stroke-opacity:0.4980392156862745;stroke-miterlimit:2;stroke-dasharray:2;" x1="20" x2="20" y1="300" y2="554"/>
  <line style="fill:none;stroke:rgb(255,127,0);stroke-opacity:0.4980392156862745;stroke-miterlimit:2;stroke-dasharray:2;" x1="50" x2="50" y1="300" y2="571"/>
  <line style="fill:none;stroke:rgb(255,127,0);stroke-opacity:0.4980392156862745;stroke-miterlimit:2;stroke-dasharray:2;" x1="50" x2="50" y1="300" y2="588"/>
  <line style="fill:none;stroke:rgb(255,127,0);stroke-opacity:0.4980392156862745;stroke-miterlimit:2;stroke-dasharray:2;" x1="50" x2="50" y1="300" y2="605"/>
  <line style="fill:none;stroke:rgb(255,127,0);stroke-opacity:0.4980392156862745;stroke-miterlimit:2;stroke-dasharray:2;" x1="50" x2="50" y1="300" y2="622"/>
  <line style="fill:none;stroke:rgb(255,127,0);stroke-opacity:0.4980392156862745;stroke-miterlimit:2;stroke-dasharray:2;" x1="50" x2="50" y1="300" y2="639"/>
  <line style="fill:none;stroke:rgb(255,127,0);stroke-opacity:0.4980392156862745;stroke-miterlimit:2;stroke-dasharray:2;" x1="64" x2="64" y1="300" y2="656"/>
  <line style="fill:none;stroke:rgb(255,127,0);stroke-opacity:0.4980392156862745;stroke-miterlimit:2;stroke-dasharray:2;" x1="79" x2="79" y1="300" y2="673"/>
  <line style="fill:none;stroke:rgb(255,127,0);stroke-opacity:0.4980392156862745;stroke-miterlimit:2;stroke-dasharray:2;" x1="93" x2="93" y1="300" y2="690"/>
  <line style="fill:none;stroke:rgb(255,127,0);stroke-opacity:0.4980392156862745;stroke-miterlimit:2;stroke-dasharray:2;" x1="93" x2="93" y1="300" y2="707"/>
  <line style="fill:none;stroke:rgb(255,127,0);stroke-opacity:0.4980392156862745;stroke-miterlimit:2;stroke-dasharray:2;" x1="93" x2="93" y1="300" y2="724"/>
  <line style="fill:none;stroke:rgb(255,127,0);stroke-opacity:0.4980392156862745;stroke-miterlimit:2;stroke-dasharray:2;" x1="108" x2="108" y1="300" y2="741"/>
  <line style="fill:none;stroke:rgb(255,127,0);stroke-opacity:0.4980392156862745;stroke-miterlimit:2;stroke-dasharray:2;" x1="108" x2="108" y1="300" y2="758"/>
  <line style="fill:none;stroke:rgb(255,127,0);stroke-opacity:0.4980392156862745;stroke-miterlimit:2;stroke-dasharray:2;" x1="108" x2="108" y1="300" y2="775"/>
  <line style="fill:none;stroke:rgb(255,127,0);stroke-opacity:0.4980392156862745;stroke-miterlimit:2;stroke-dasharray:2;" x1="122" x2="122" y1="300" y2="792"/>
  <line style="fill:none;stroke:rgb(255,127,0);stroke-opacity:0.4980392156862745;stroke-miterlimit:2;stroke-dasharray:2;" x1="137" x2="137" y1="300" y2="809"/>
  <line style="fill:none;stroke:rgb(255,127,0);stroke-opacity:0.4980392156862745;stroke-miterlimit:2;stroke-dasharray:2;" x1="137" x2="137" y1="300" y2="826"/>
  <line style="fill:none;stroke:rgb(255,127,0);stroke-opacity:0.4980392156862745;stroke-miterlimit:2;stroke-dasharray:2;" x1="152" x2="152" y1="300" y2="840"/>
  <line style="fill:none;stroke:rgb(255,127,0);stroke-opacity:0.4980392156862745;stroke-miterlimit:2;stroke-dasharray:2;" x1="152" x2="152" y1="300" y2="854"/>
  <line style="fill:none;stroke:rgb(255,127,0);stroke-opacity:0.4980392156862745;stroke-miterlimit:2;stroke-dasharray:2;" x1="152" x2="152" y1="300" y2="868"/>
  <line style="fill:none;stroke:rgb(255,127,0);stroke-opacity:0.4980392156862745;stroke-miterlimit:2;stroke-dasharray:2;" x1="152" x2="152" y1="300" y2="882"/>
  <line style="fill:none;stroke:rgb(255,127,0);stroke-opacity:0.4980392156862745;stroke-miterlimit:2;stroke-dasharray:2;" x1="152" x2="152" y1="300" y2="896"/>
  <line style="fill:none;stroke:rgb(255,127,0);stroke-opacity:0.4980392156862745;stroke-miterlimit:2;stroke-dasharray:2;" x1="166" x2="166" y1="300" y2="910"/>
  <line style="fill:none;stroke:rgb(255,127,0);stroke-opacity:0.4980392156862745;stroke-miterlimit:2;stroke-dasharray:2;" x1="166" x2="166" y1="300" y2="924"/>
  <line style="fill:none;stroke:rgb(255,127,0);stroke-opacity:0.4980392156862745;stroke-miterlimit:2;stroke-dasharray:2;" x1="166" x2="166" y1="300" y2="938"/>
  <line style="fill:none;stroke:rgb(255,127,0);stroke-opacity:0.4980392156862745;stroke-miterlimit:2;stroke-dasharray:2;" x1="166" x2="166" y1="300" y2="952"/>
  <line style="fill:none;stroke:rgb(255,127,0);stroke-opacity:0.4980392156862745;stroke-miterlimit:2;stroke-dasharray:2;" x1="166" x2="166" y1="300" y2="966"/>
  <line style="fill:none;stroke:rgb(255,127,0);stroke-opacity:0.4980392156862745;stroke-miterlimit:2;stroke-dasharray:2;" x1="166" x2="166" y1="300" y2="980"/>
  <line style="fill:none;stroke:rgb(255,127,0);stroke-opacity:0.4980392156862745;stroke-miterlimit:2;stroke-dasharray:2;" x1="181" x2="181" y1="300" y2="994"/>
  <line style="fill:none;stroke:rgb(255,127,0);stroke-opacity:0.4980392156862745;stroke-miterlimit:2;stroke-dasharray:2;" x1="181" x2="181" y1="300" y2="1008"/>
  <line style="fill:none;stroke:rgb(255,127,0);stroke-opacity:0.4980392156862745;stroke-miterlimit:2;stroke-dasharray:2;" x1="181" x2="181" y1="300" y2="1022"/>
  <line style="fill:none;stroke:rgb(255,127,0);stroke-opacity:0.4980392156862745;stroke-miterlimit:2;stroke-dasharray:2;" x1="181" x2="181" y1="300" y2="1036"/>
  <line style="fill:none;stroke:rgb(255,127,0);stroke-opacity:0.4980392156862745;stroke-miterlimit:2;stroke-dasharray:2;" x1="181" x2="181" y1="300" y2="1050"/>
  <line style="fill:none;stroke:rgb(255,127,0);stroke-opacity:0.4980392156862745;stroke-miterlimit:2;stroke-dasharray:2;" x1="181" x2="181" y1="300" y2="1064"/>
  <line style="fill:none;stroke:rgb(255,127,0);stroke-opacity:0.4980392156862745;stroke-miterlimit:2;stroke-dasharray:2;" x1="195" x2="195" y1="300" y2="1078"/>
  <line style="fill:none;stroke:rgb(255,127,0);stroke-opacity:0.4980392156862745;stroke-miterlimit:2;stroke-dasharray:2;" x1="195" x2="195" y1="300" y2="1092"/>
  <line style="fill:none;stroke:rgb(255,127,0);stroke-opacity:0.4980392156862745;stroke-miterlimit:2;stroke-dasharray:2;" x1="195" x2="195" y1="300" y2="1106"/>
  <line style="fill:none;stroke:rgb(255,127,0);stroke-opacity:0.4980392156862745;stroke-miterlimit:2;stroke-dasharray:2;" x1="195" x2="195" y1="300" y2="1120"/>
  <line style="fill:none;stroke:rgb(255,127,0);stroke-opacity:0.4980392156862745;stroke-miterlimit:2;stroke-dasharray:2;" x1="195" x2="195" y1="300" y2="1134"/>
  <line style="fill:none;stroke:rgb(255,127,0);stroke-opacity:0.4980392156862745;stroke-miterlimit:2;stroke-dasharray:2;" x1="195" x2="195" y1="300" y2="1148"/>
  <line style="fill:none;stroke:rgb(255,127,0);stroke-opacity:0.4980392156862745;stroke-miterlimit:2;stroke-dasharray:2;" x1="210" x2="210" y1="300" y2="1162"/>
  <line style="fill:none;stroke:rgb(255,127,0);stroke-opacity:0.4980392156862745;stroke-miterlimit:2;stroke-dasharray:2;" x1="210" x2="210" y1="300" y2="1176"/>
  <line style="fill:none;stroke:rgb(255,127,0);stroke-opacity:0.4980392156862745;stroke-miterlimit:2;stroke-dasharray:2;" x1="210" x2="210" y1="300" y2="1190"/>
  <line style="fill:none;stroke:rgb(255,127,0);stroke-opacity:0.4980392156862745;stroke-miterlimit:2;stroke-dasharray:2;" x1="210" x2="210" y1="300" y2="1204"/>
  <line style="fill:none;stroke:rgb(255,127,0);stroke-opacity:0.4980392156862745;stroke-miterlimit:2;stroke-dasharray:2;" x1="225" x2="225" y1="300" y2="1217"/>
  <line style="fill:none;stroke:rgb(255,127,0);stroke-opacity:0.4980392156862745;stroke-miterlimit:2;stroke-dasharray:2;" x1="225" x2="225" y1="300" y2="1230"/>
  <line style="fill:none;stroke:rgb(255,127,0);stroke-opacity:0.4980392156862745;stroke-miterlimit:2;stroke-dasharray:2;" x1="239" x2="239" y1="300" y2="1243"/>
  <line style="fill:none;stroke:rgb(255,127,0);stroke-opacity:0.4980392156862745;stroke-miterlimit:2;stroke-dasharray:2;" x1="239" x2="239" y1="300" y2="1256"/>
  <line style="fill:none;stroke:rgb(255,127,0);stroke-opacity:0.4980392156862745;stroke-miterlimit:2;stroke-dasharray:2;" x1="254" x2="254" y1="300" y2="1269"/>
  <line style="fill:none;stroke:rgb(255,127,0);stroke-opacity:0.4980392156862745;stroke-miterlimit:2;stroke-dasharray:2;" x1="254" x2="254" y1="300" y2="1282"/>
  <line style="fill:none;stroke:rgb(255,127,0);stroke-opacity:0.4980392156862745;stroke-miterlimit:2;stroke-dasharray:2;" x1="268" x2="268" y1="300" y2="1295"/>
  <line style="fill:none;stroke:rgb(255,127,0);stroke-opacity:0.4980392156862745;stroke-miterlimit:2;stroke-dasharray:2;" x1="283" x2="283" y1="300" y2="1308"/>
  <line style="fill:none;stroke:rgb(255,127,0);stroke-opacity:0.4980392156862745;stroke-miterlimit:2;stroke-dasharray:2;" x1="283" x2="283" y1="300" y2="1321"/>
  <line style="fill:none;stroke:rgb(255,127,0);stroke-opacity:0.4980392156862745;stroke-miterlimit:2;stroke-dasharray:2;" x1="283" x2="283" y1="300" y2="1334"/>
  <line style="fill:none;stroke:rgb(255,127,0);stroke-opacity:0.4980392156862745;stroke-miterlimit:2;stroke-dasharray:2;" x1="283" x2="283" y1="300" y2="1347"/>
  <line style="fill:none;stroke:rgb(255,127,0);stroke-opacity:0.4980392156862745;stroke-miterlimit:2;stroke-dasharray:2;" x1="297" x2="297" y1="300" y2="1360"/>
  <line style="fill:none;stroke:rgb(255,127,0);stroke-opacity:0.4980392156862745;stroke-miterlimit:2;stroke-dasharray:2;" x1="297" x2="297" y1="300" y2="1373"/>
  <line style="fill:none;stroke:rgb(255,127,0);stroke-opacity:0.4980392156862745;stroke-miterlimit:2;stroke-dasharray:2;" x1="327" x2="327" y1="300" y2="1386"/>
  <line style="fill:none;stroke:rgb(255,127,0);stroke-opacity:0.4980392156862745;stroke-miterlimit:2;stroke-dasharray:2;" x1="327" x2="327" y1="300" y2="1399"/>
  <line style="fill:none;stroke:rgb(255,127,0);stroke-opacity:0.4980392156862745;stroke-miterlimit:2;stroke-dasharray:2;" x1="327" x2="327" y1="300" y2="1412"/>
  <line style="fill:none;stroke:rgb(255,127,0);stroke-opacity:0.4980392156862745;stroke-miterlimit:2;stroke-dasharray:2;" x1="327" x2="327" y1="300" y2="1425"/>
  <line style="fill:none;stroke:rgb(255,127,0);stroke-opacity:0.4980392156862745;stroke-miterlimit:2;stroke-dasharray:2;" x1="341" x2="341" y1="300" y2="1438"/>
  <line style="fill:none;stroke:rgb(0,0,0);stroke-width:2;stroke-miterlimit:10;stroke-linecap:square;" x1="48" x2="48" y1="60" y2="300"/>
  <line style="fill:none;stroke:rgb(0,0,0);stroke-width:2;stroke-miterlimit:10;stroke-linecap:square;" x1="48" x2="402" y1="300" y2="300"/>
  <rect height="30" style="fill:rgb(255,255,255);stroke:none;" width="17" x="42" y="308"/>
  <text style="fill:rgb(0,0,0);stroke:none;font-size:25px;font-weight:bold;" x="42" y="332">0</text>
  <rect height="30" style="fill:rgb(255,255,255);stroke:none;" width="34" x="383" y="308"/>
  <text style="fill:rgb(0,0,0);stroke:none;font-size:25px;font-weight:bold;" x="383" y="332">24</text>
  <text style="fill:rgb(0,0,0);stroke:none;font-size:25px;font-weight:bold;" x="25" y="312">0</text>
  <text style="fill:rgb(0,0,0);stroke:none;font-size:25px;font-weight:bold;" x="25" y="72">1</text>
  <text style="fill:rgb(0,0,0);stroke:none;font-size:25px;font-weight:bold;" x="61" y="42">GOBP_EXPORT_FROM_CELL</text>
  <rect height="13" style="fill:rgb(255,255,255);stroke:none;" width="41" x="-8" y="354"/>
  <text style="fill:rgb(128,128,128);stroke:none;font-size:13px;" x="-8" y="367">PRKCE</text>
  <rect height="13" style="fill:rgb(255,255,255);stroke:none;" width="58" x="-8" y="371"/>
  <text style="fill:rgb(128,128,128);stroke:none;font-size:13px;" x="-8" y="384">SLC47A2</text>
  <rect height="13" style="fill:rgb(255,255,255);stroke:none;" width="26" x="6" y="388"/>
  <text style="fill:rgb(128,128,128);stroke:none;font-size:13px;" x="6" y="401">EZR</text>
  <rect height="13" style="fill:rgb(255,255,255);stroke:none;" width="32" x="6" y="405"/>
  <text style="fill:rgb(128,128,128);stroke:none;font-size:13px;" x="6" y="418">CRY1</text>
  <rect height="13" style="fill:rgb(255,255,255);stroke:none;" width="36" x="6" y="422"/>
  <text style="fill:rgb(128,128,128);stroke:none;font-size:13px;" x="6" y="435">RGCC</text>
  <rect height="13" style="fill:rgb(255,255,255);stroke:none;" width="42" x="6" y="439"/>
  <text style="fill:rgb(128,128,128);stroke:none;font-size:13px;" x="6" y="452">GPER1</text>
  <rect height="13" style="fill:rgb(255,255,255);stroke:none;" width="42" x="6" y="456"/>
  <text style="fill:rgb(128,128,128);stroke:none;font-size:13px;" x="6" y="469">RAB12</text>
  <rect height="13" style="fill:rgb(255,255,255);stroke:none;" width="62" x="6" y="473"/>
  <text style="fill:rgb(128,128,128);stroke:none;font-size:13px;" x="6" y="486">SERPINE2</text>
  <rect height="13" style="fill:rgb(255,255,255);stroke:none;" width="30" x="20" y="490"/>
  <text style="fill:rgb(128,128,128);stroke:none;font-size:13px;" x="20" y="503">ADM</text>
  <rect height="13" style="fill:rgb(255,255,255);stroke:none;" width="45" x="20" y="507"/>
  <text style="fill:rgb(128,128,128);stroke:none;font-size:13px;" x="20" y="520">KCNN4</text>
  <rect height="13" style="fill:rgb(255,255,255);stroke:none;" width="48" x="20" y="524"/>
  <text style="fill:rgb(128,128,128);stroke:none;font-size:13px;" x="20" y="537">SNCAIP</text>
  <rect height="13" style="fill:rgb(255,255,255);stroke:none;" width="67" x="20" y="541"/>
  <text style="fill:rgb(128,128,128);stroke:none;font-size:13px;" x="20" y="554">C1QTNF12</text>
  <rect height="13" style="fill:rgb(255,255,255);stroke:none;" width="37" x="50" y="558"/>
  <text style="fill:rgb(128,128,128);stroke:none;font-size:13px;" x="50" y="571">ANO6</text>
  <rect height="13" style="fill:rgb(255,255,255);stroke:none;" width="45" x="50" y="575"/>
  <text style="fill:rgb(128,128,128);stroke:none;font-size:13px;" x="50" y="588">ABCG1</text>
  <rect height="13" style="fill:rgb(255,255,255);stroke:none;" width="41" x="50" y="592"/>
  <text style="fill:rgb(128,128,128);stroke:none;font-size:13px;" x="50" y="605">ARNTL</text>
  <rect height="13" style="fill:rgb(255,255,255);stroke:none;" width="45" x="50" y="609"/>
  <text style="fill:rgb(128,128,128);stroke:none;font-size:13px;" x="50" y="622">CADPS</text>
  <rect height="13" style="fill:rgb(255,255,255);stroke:none;" width="44" x="50" y="626"/>
  <text style="fill:rgb(128,128,128);stroke:none;font-size:13px;" x="50" y="639">CALM1</text>
  <rect height="13" style="fill:rgb(255,255,255);stroke:none;" width="40" x="64" y="643"/>
  <text style="fill:rgb(128,128,128);stroke:none;font-size:13px;" x="64" y="656">TRPV4</text>
  <rect height="13" style="fill:rgb(255,255,255);stroke:none;" width="46" x="79" y="660"/>
  <text style="fill:rgb(128,128,128);stroke:none;font-size:13px;" x="79" y="673">BAIAP3</text>
  <rect height="13" style="fill:rgb(255,255,255);stroke:none;" width="42" x="93" y="677"/>
  <text style="fill:rgb(128,128,128);stroke:none;font-size:13px;" x="93" y="690">ALOX5</text>
  <rect height="13" style="fill:rgb(255,255,255);stroke:none;" width="41" x="93" y="694"/>
  <text style="fill:rgb(128,128,128);stroke:none;font-size:13px;" x="93" y="707">TGFB1</text>
  <rect height="13" style="fill:rgb(255,255,255);stroke:none;" width="52" x="93" y="711"/>
  <text style="fill:rgb(128,128,128);stroke:none;font-size:13px;" x="93" y="724">TNFAIP2</text>
  <rect height="13" style="fill:rgb(255,255,255);stroke:none;" width="26" x="108" y="728"/>
  <text style="fill:rgb(128,128,128);stroke:none;font-size:13px;" x="108" y="741">IL4R</text>
  <rect height="13" style="fill:rgb(255,255,255);stroke:none;" width="45" x="108" y="745"/>
  <text style="fill:rgb(128,128,128);stroke:none;font-size:13px;" x="108" y="758">KCNQ1</text>
  <rect height="13" style="fill:rgb(255,255,255);stroke:none;" width="39" x="108" y="762"/>
  <text style="fill:rgb(128,128,128);stroke:none;font-size:13px;" x="108" y="775">PTAFR</text>
  <rect height="13" style="fill:rgb(255,255,255);stroke:none;" width="54" x="122" y="779"/>
  <text style="fill:rgb(128,128,128);stroke:none;font-size:13px;" x="122" y="792">SCAMP5</text>
  <rect height="13" style="fill:rgb(255,255,255);stroke:none;" width="38" x="137" y="796"/>
  <text style="fill:rgb(128,128,128);stroke:none;font-size:13px;" x="137" y="809">SYTL3</text>
  <rect height="13" style="fill:rgb(255,255,255);stroke:none;" width="43" x="137" y="813"/>
  <text style="fill:rgb(128,128,128);stroke:none;font-size:13px;" x="137" y="826">NR4A3</text>
  <rect height="11" style="fill:rgb(255,255,255);stroke:none;" width="21" x="152" y="829"/>
  <text style="fill:rgb(128,128,128);stroke:none;font-size:11px;" x="152" y="840">TNF</text>
  <rect height="11" style="fill:rgb(255,255,255);stroke:none;" width="37" x="152" y="843"/>
  <text style="fill:rgb(128,128,128);stroke:none;font-size:11px;" x="152" y="854">HCAR2</text>
  <rect height="11" style="fill:rgb(255,255,255);stroke:none;" width="37" x="152" y="857"/>
  <text style="fill:rgb(128,128,128);stroke:none;font-size:11px;" x="152" y="868">APBB3</text>
  <rect height="11" style="fill:rgb(255,255,255);stroke:none;" width="36" x="152" y="871"/>
  <text style="fill:rgb(128,128,128);stroke:none;font-size:11px;" x="152" y="882">SYT17</text>
  <rect height="11" style="fill:rgb(255,255,255);stroke:none;" width="35" x="152" y="885"/>
  <text style="fill:rgb(128,128,128);stroke:none;font-size:11px;" x="152" y="896">TRPV6</text>
  <rect height="11" style="fill:rgb(255,255,255);stroke:none;" width="22" x="166" y="899"/>
  <text style="fill:rgb(128,128,128);stroke:none;font-size:11px;" x="166" y="910">SYK</text>
  <rect height="11" style="fill:rgb(255,255,255);stroke:none;" width="21" x="166" y="913"/>
  <text style="fill:rgb(128,128,128);stroke:none;font-size:11px;" x="166" y="924">FES</text>
  <rect height="11" style="fill:rgb(255,255,255);stroke:none;" width="25" x="166" y="927"/>
  <text style="fill:rgb(128,128,128);stroke:none;font-size:11px;" x="166" y="938">PPID</text>
  <rect height="11" style="fill:rgb(255,255,255);stroke:none;" width="36" x="166" y="941"/>
  <text style="fill:rgb(128,128,128);stroke:none;font-size:11px;" x="166" y="952">STX1A</text>
  <rect height="11" style="fill:rgb(255,255,255);stroke:none;" width="41" x="166" y="955"/>
  <text style="fill:rgb(128,128,128);stroke:none;font-size:11px;" x="166" y="966">SNAPIN</text>
  <rect height="11" style="fill:rgb(255,255,255);stroke:none;" width="50" x="166" y="969"/>
  <text style="fill:rgb(128,128,128);stroke:none;font-size:11px;" x="166" y="980">PLA2G4A</text>
  <rect height="11" style="fill:rgb(255,255,255);stroke:none;" width="30" x="181" y="983"/>
  <text style="fill:rgb(128,128,128);stroke:none;font-size:11px;" x="181" y="994">CD33</text>
  <rect height="11" style="fill:rgb(255,255,255);stroke:none;" width="38" x="181" y="997"/>
  <text style="fill:rgb(128,128,128);stroke:none;font-size:11px;" x="181" y="1008">ABCC5</text>
  <rect height="11" style="fill:rgb(255,255,255);stroke:none;" width="32" x="181" y="1011"/>
  <text style="fill:rgb(128,128,128);stroke:none;font-size:11px;" x="181" y="1022">SIRT4</text>
  <rect height="11" style="fill:rgb(255,255,255);stroke:none;" width="40" x="181" y="1025"/>
  <text style="fill:rgb(128,128,128);stroke:none;font-size:11px;" x="181" y="1036">MON1A</text>
  <rect height="11" style="fill:rgb(255,255,255);stroke:none;" width="57" x="181" y="1039"/>
  <text style="fill:rgb(128,128,128);stroke:none;font-size:11px;" x="181" y="1050">SLC16A10</text>
  <rect height="11" style="fill:rgb(255,255,255);stroke:none;" width="59" x="181" y="1053"/>
  <text style="fill:rgb(128,128,128);stroke:none;font-size:11px;" x="181" y="1064">RAB11FIP3</text>
  <rect height="11" style="fill:rgb(255,255,255);stroke:none;" width="30" x="195" y="1067"/>
  <text style="fill:rgb(128,128,128);stroke:none;font-size:11px;" x="195" y="1078">CDK5</text>
  <rect height="11" style="fill:rgb(255,255,255);stroke:none;" width="35" x="195" y="1081"/>
  <text style="fill:rgb(128,128,128);stroke:none;font-size:11px;" x="195" y="1092">HYAL3</text>
  <rect height="11" style="fill:rgb(255,255,255);stroke:none;" width="41" x="195" y="1095"/>
  <text style="fill:rgb(128,128,128);stroke:none;font-size:11px;" x="195" y="1106">HMGCR</text>
  <rect height="11" style="fill:rgb(255,255,255);stroke:none;" width="46" x="195" y="1109"/>
  <text style="fill:rgb(128,128,128);stroke:none;font-size:11px;" x="195" y="1120">GABBR1</text>
  <rect height="11" style="fill:rgb(255,255,255);stroke:none;" width="42" x="195" y="1123"/>
  <text style="fill:rgb(128,128,128);stroke:none;font-size:11px;" x="195" y="1134">RPH3AL</text>
  <rect height="11" style="fill:rgb(255,255,255);stroke:none;" width="43" x="195" y="1137"/>
  <text style="fill:rgb(128,128,128);stroke:none;font-size:11px;" x="195" y="1148">RAB27A</text>
  <rect height="11" style="fill:rgb(255,255,255);stroke:none;" width="30" x="210" y="1151"/>
  <text style="fill:rgb(128,128,128);stroke:none;font-size:11px;" x="210" y="1162">NKD2</text>
  <rect height="11" style="fill:rgb(255,255,255);stroke:none;" width="34" x="210" y="1165"/>
  <text style="fill:rgb(128,128,128);stroke:none;font-size:11px;" x="210" y="1176">PREPL</text>
  <rect height="11" style="fill:rgb(255,255,255);stroke:none;" width="37" x="210" y="1179"/>
  <text style="fill:rgb(128,128,128);stroke:none;font-size:11px;" x="210" y="1190">TYRO3</text>
  <rect height="11" style="fill:rgb(255,255,255);stroke:none;" width="50" x="210" y="1193"/>
  <text style="fill:rgb(128,128,128);stroke:none;font-size:11px;" x="210" y="1204">SLC27A1</text>
  <rect height="10" style="fill:rgb(255,255,255);stroke:none;" width="26" x="225" y="1207"/>
  <text style="fill:rgb(128,128,128);stroke:none;font-size:10px;" x="225" y="1217">CFTR</text>
  <rect height="10" style="fill:rgb(255,255,255);stroke:none;" width="25" x="225" y="1220"/>
  <text style="fill:rgb(128,128,128);stroke:none;font-size:10px;" x="225" y="1230">KLF7</text>
  <rect height="10" style="fill:rgb(255,255,255);stroke:none;" width="39" x="239" y="1233"/>
  <text style="fill:rgb(128,128,128);stroke:none;font-size:10px;" x="239" y="1243">MYOM1</text>
  <rect height="10" style="fill:rgb(255,255,255);stroke:none;" width="38" x="239" y="1246"/>
  <text style="fill:rgb(128,128,128);stroke:none;font-size:10px;" x="239" y="1256">UQCC2</text>
  <rect height="10" style="fill:rgb(255,255,255);stroke:none;" width="47" x="254" y="1259"/>
  <text style="fill:rgb(128,128,128);stroke:none;font-size:10px;" x="254" y="1269">CYP51A1</text>
  <rect height="10" style="fill:rgb(255,255,255);stroke:none;" width="56" x="254" y="1272"/>
  <text style="fill:rgb(128,128,128);stroke:none;font-size:10px;" x="254" y="1282">ARHGAP44</text>
  <rect height="10" style="fill:rgb(255,255,255);stroke:none;" width="42" x="268" y="1285"/>
  <text style="fill:rgb(128,128,128);stroke:none;font-size:10px;" x="268" y="1295">EXOC6B</text>
  <rect height="10" style="fill:rgb(255,255,255);stroke:none;" width="23" x="283" y="1298"/>
  <text style="fill:rgb(128,128,128);stroke:none;font-size:10px;" x="283" y="1308">IRS2</text>
  <rect height="10" style="fill:rgb(255,255,255);stroke:none;" width="32" x="283" y="1311"/>
  <text style="fill:rgb(128,128,128);stroke:none;font-size:10px;" x="283" y="1321">RIMS3</text>
  <rect height="10" style="fill:rgb(255,255,255);stroke:none;" width="33" x="283" y="1324"/>
  <text style="fill:rgb(128,128,128);stroke:none;font-size:10px;" x="283" y="1334">VPS18</text>
  <rect height="10" style="fill:rgb(255,255,255);stroke:none;" width="47" x="283" y="1337"/>
  <text style="fill:rgb(128,128,128);stroke:none;font-size:10px;" x="283" y="1347">C1QTNF3</text>
  <rect height="10" style="fill:rgb(255,255,255);stroke:none;" width="27" x="297" y="1350"/>
  <text style="fill:rgb(128,128,128);stroke:none;font-size:10px;" x="297" y="1360">PER2</text>
  <rect height="10" style="fill:rgb(255,255,255);stroke:none;" width="40" x="297" y="1363"/>
  <text style="fill:rgb(128,128,128);stroke:none;font-size:10px;" x="297" y="1373">CXCL12</text>
  <rect height="10" style="fill:rgb(255,255,255);stroke:none;" width="25" x="327" y="1376"/>
  <text style="fill:rgb(128,128,128);stroke:none;font-size:10px;" x="327" y="1386">RFX3</text>
  <rect height="10" style="fill:rgb(255,255,255);stroke:none;" width="33" x="327" y="1389"/>
  <text style="fill:rgb(128,128,128);stroke:none;font-size:10px;" x="327" y="1399">MYRIP</text>
  <rect height="10" style="fill:rgb(255,255,255);stroke:none;" width="38" x="327" y="1402"/>
  <text style="fill:rgb(128,128,128);stroke:none;font-size:10px;" x="327" y="1412">ATP1A2</text>
  <rect height="10" style="fill:rgb(255,255,255);stroke:none;" width="52" x="327" y="1415"/>
  <text style="fill:rgb(128,128,128);stroke:none;font-size:10px;" x="327" y="1425">CEACAM1</text>
  <rect height="10" style="fill:rgb(255,255,255);stroke:none;" width="29" x="341" y="1428"/>
  <text style="fill:rgb(128,128,128);stroke:none;font-size:10px;" x="341" y="1438">GHRL</text>
</svg>
