<?xml version="1.0" encoding="UTF-8" standalone="no"?>
<!DOCTYPE svg PUBLIC "-//W3C//DTD SVG 1.1//EN" "http://www.w3.org/Graphics/SVG/1.1/DTD/svg11.dtd">
<svg xmlns:xlink="http://www.w3.org/1999/xlink" height="158.74999999999997mm" version="1.1" viewBox="0 0 500 600" width="132.29166666666666mm" x="0mm" y="0mm" xmlns="http://www.w3.org/2000/svg">
  <rect height="1200" style="fill:rgb(255,255,255);stroke:none;" width="1000" x="0" y="0"/>
  <rect height="240" style="fill:rgb(191,191,191);fill-opacity:0.4980392156862745;stroke:none;" width="175" x="225" y="60"/>
  <line style="fill:none;stroke:rgb(63,63,191);stroke-opacity:0.24705882352941178;stroke-miterlimit:10;stroke-linecap:square;" x1="50" x2="50" y1="300" y2="300"/>
  <line style="fill:none;stroke:rgb(63,63,191);stroke-opacity:0.24705882352941178;stroke-miterlimit:10;stroke-linecap:square;" x1="50" x2="64" y1="300" y2="290"/>
  <line style="fill:none;stroke:rgb(63,63,191);stroke-opacity:0.24705882352941178;stroke-miterlimit:10;stroke-linecap:square;" x1="64" x2="79" y1="290" y2="280"/>
  <line style="fill:none;stroke:rgb(63,63,191);stroke-opacity:0.24705882352941178;stroke-miterlimit:10;stroke-linecap:square;" x1="79" x2="93" y1="280" y2="270"/>
  <line style="fill:none;stroke:rgb(63,63,191);stroke-opacity:0.24705882352941178;stroke-miterlimit:10;stroke-linecap:square;" x1="93" x2="108" y1="270" y2="260"/>
  <line style="fill:none;stroke:rgb(63,63,191);stroke-opacity:0.24705882352941178;stroke-miterlimit:10;stroke-linecap:square;" x1="108" x2="122" y1="260" y2="250"/>
  <line style="fill:none;stroke:rgb(63,63,191);stroke-opacity:0.24705882352941178;stroke-miterlimit:10;stroke-linecap:square;" x1="122" x2="137" y1="250" y2="240"/>
  <line style="fill:none;stroke:rgb(63,63,191);stroke-opacity:0.24705882352941178;stroke-miterlimit:10;stroke-linecap:square;" x1="137" x2="152" y1="240" y2="230"/>
  <line style="fill:none;stroke:rgb(63,63,191);stroke-opacity:0.24705882352941178;stroke-miterlimit:10;stroke-linecap:square;" x1="152" x2="166" y1="230" y2="220"/>
  <line style="fill:none;stroke:rgb(63,63,191);stroke-opacity:0.24705882352941178;stroke-miterlimit:10;stroke-linecap:square;" x1="166" x2="181" y1="220" y2="210"/>
  <line style="fill:none;stroke:rgb(63,63,191);stroke-opacity:0.24705882352941178;stroke-miterlimit:10;stroke-linecap:square;" x1="181" x2="195" y1="210" y2="200"/>
  <line style="fill:none;stroke:rgb(63,63,191);stroke-opacity:0.24705882352941178;stroke-miterlimit:10;stroke-linecap:square;" x1="195" x2="210" y1="200" y2="190"/>
  <line style="fill:none;stroke:rgb(63,63,191);stroke-opacity:0.24705882352941178;stroke-miterlimit:10;stroke-linecap:square;" x1="210" x2="225" y1="190" y2="180"/>
  <line style="fill:none;stroke:rgb(63,63,191);stroke-opacity:0.24705882352941178;stroke-miterlimit:10;stroke-linecap:square;" x1="225" x2="239" y1="180" y2="170"/>
  <line style="fill:none;stroke:rgb(63,63,191);stroke-opacity:0.24705882352941178;stroke-miterlimit:10;stroke-linecap:square;" x1="239" x2="254" y1="170" y2="160"/>
  <line style="fill:none;stroke:rgb(63,63,191);stroke-opacity:0.24705882352941178;stroke-miterlimit:10;stroke-linecap:square;" x1="254" x2="268" y1="160" y2="150"/>
  <line style="fill:none;stroke:rgb(63,63,191);stroke-opacity:0.24705882352941178;stroke-miterlimit:10;stroke-linecap:square;" x1="268" x2="283" y1="150" y2="140"/>
  <line style="fill:none;stroke:rgb(63,63,191);stroke-opacity:0.24705882352941178;stroke-miterlimit:10;stroke-linecap:square;" x1="283" x2="297" y1="140" y2="130"/>
  <line style="fill:none;stroke:rgb(63,63,191);stroke-opacity:0.24705882352941178;stroke-miterlimit:10;stroke-linecap:square;" x1="297" x2="312" y1="130" y2="120"/>
  <line style="fill:none;stroke:rgb(63,63,191);stroke-opacity:0.24705882352941178;stroke-miterlimit:10;stroke-linecap:square;" x1="312" x2="327" y1="120" y2="110"/>
  <line style="fill:none;stroke:rgb(63,63,191);stroke-opacity:0.24705882352941178;stroke-miterlimit:10;stroke-linecap:square;" x1="327" x2="341" y1="110" y2="100"/>
  <line style="fill:none;stroke:rgb(63,63,191);stroke-opacity:0.24705882352941178;stroke-miterlimit:10;stroke-linecap:square;" x1="341" x2="356" y1="100" y2="90"/>
  <line style="fill:none;stroke:rgb(63,63,191);stroke-opacity:0.24705882352941178;stroke-miterlimit:10;stroke-linecap:square;" x1="356" x2="370" y1="90" y2="80"/>
  <line style="fill:none;stroke:rgb(63,63,191);stroke-opacity:0.24705882352941178;stroke-miterlimit:10;stroke-linecap:square;" x1="370" x2="385" y1="80" y2="70"/>
  <line style="fill:none;stroke:rgb(63,63,191);stroke-opacity:0.24705882352941178;stroke-miterlimit:10;stroke-linecap:square;" x1="385" x2="400" y1="70" y2="60"/>
  <line style="fill:none;stroke:rgb(63,63,191);stroke-opacity:0.24705882352941178;stroke-miterlimit:10;stroke-linecap:square;" x1="400" x2="400" y1="60" y2="60"/>
  <rect height="12" style="fill:rgb(255,127,0);fill-opacity:0.7490196078431373;stroke:none;" width="4" x="48" y="287"/>
  <line style="fill:none;stroke:rgb(255,127,0);stroke-opacity:0.24705882352941178;stroke-width:2;stroke-miterlimit:10;stroke-linecap:square;" x1="50" x2="50" y1="300" y2="300"/>
  <line style="fill:none;stroke:rgb(255,127,0);stroke-opacity:0.24705882352941178;stroke-width:2;stroke-miterlimit:10;stroke-linecap:square;" x1="50" x2="50" y1="298" y2="289"/>
  <rect height="27" style="fill:rgb(255,127,0);fill-opacity:0.7490196078431373;stroke:none;" width="4" x="62" y="272"/>
  <line style="fill:none;stroke:rgb(255,127,0);stroke-opacity:0.24705882352941178;stroke-width:2;stroke-miterlimit:10;stroke-linecap:square;" x1="50" x2="64" y1="287" y2="287"/>
  <line style="fill:none;stroke:rgb(255,127,0);stroke-opacity:0.24705882352941178;stroke-width:2;stroke-miterlimit:10;stroke-linecap:square;" x1="64" x2="64" y1="285" y2="262"/>
  <rect height="3" style="fill:rgb(255,127,0);fill-opacity:0.7490196078431373;stroke:none;" width="4" x="77" y="296"/>
  <line style="fill:none;stroke:rgb(255,127,0);stroke-opacity:0.24705882352941178;stroke-width:2;stroke-miterlimit:10;stroke-linecap:square;" x1="64" x2="79" y1="260" y2="260"/>
  <line style="fill:none;stroke:rgb(255,127,0);stroke-opacity:0.24705882352941178;stroke-width:2;stroke-miterlimit:10;stroke-linecap:square;" x1="79" x2="79" y1="258" y2="258"/>
  <rect height="6" style="fill:rgb(255,127,0);fill-opacity:0.7490196078431373;stroke:none;" width="4" x="106" y="293"/>
  <line style="fill:none;stroke:rgb(255,127,0);stroke-opacity:0.24705882352941178;stroke-width:2;stroke-miterlimit:10;stroke-linecap:square;" x1="79" x2="108" y1="256" y2="256"/>
  <line style="fill:none;stroke:rgb(255,127,0);stroke-opacity:0.24705882352941178;stroke-width:2;stroke-miterlimit:10;stroke-linecap:square;" x1="108" x2="108" y1="254" y2="252"/>
  <rect height="3" style="fill:rgb(255,127,0);fill-opacity:0.7490196078431373;stroke:none;" width="4" x="120" y="296"/>
  <line style="fill:none;stroke:rgb(255,127,0);stroke-opacity:0.24705882352941178;stroke-width:2;stroke-miterlimit:10;stroke-linecap:square;" x1="108" x2="122" y1="250" y2="250"/>
  <line style="fill:none;stroke:rgb(255,127,0);stroke-opacity:0.24705882352941178;stroke-width:2;stroke-miterlimit:10;stroke-linecap:square;" x1="122" x2="122" y1="248" y2="249"/>
  <rect height="12" style="fill:rgb(255,127,0);fill-opacity:0.7490196078431373;stroke:none;" width="4" x="150" y="287"/>
  <line style="fill:none;stroke:rgb(255,127,0);stroke-opacity:0.24705882352941178;stroke-width:2;stroke-miterlimit:10;stroke-linecap:square;" x1="122" x2="152" y1="247" y2="247"/>
  <line style="fill:none;stroke:rgb(255,127,0);stroke-opacity:0.24705882352941178;stroke-width:2;stroke-miterlimit:10;stroke-linecap:square;" x1="152" x2="152" y1="245" y2="237"/>
  <rect height="12" style="fill:rgb(255,127,0);fill-opacity:0.7490196078431373;stroke:none;" width="4" x="164" y="287"/>
  <line style="fill:none;stroke:rgb(255,127,0);stroke-opacity:0.24705882352941178;stroke-width:2;stroke-miterlimit:10;stroke-linecap:square;" x1="152" x2="166" y1="235" y2="235"/>
  <line style="fill:none;stroke:rgb(255,127,0);stroke-opacity:0.24705882352941178;stroke-width:2;stroke-miterlimit:10;stroke-linecap:square;" x1="166" x2="166" y1="233" y2="225"/>
  <rect height="6" style="fill:rgb(255,127,0);fill-opacity:0.7490196078431373;stroke:none;" width="4" x="193" y="293"/>
  <line style="fill:none;stroke:rgb(255,127,0);stroke-opacity:0.24705882352941178;stroke-width:2;stroke-miterlimit:10;stroke-linecap:square;" x1="166" x2="195" y1="223" y2="223"/>
  <line style="fill:none;stroke:rgb(255,127,0);stroke-opacity:0.24705882352941178;stroke-width:2;stroke-miterlimit:10;stroke-linecap:square;" x1="195" x2="195" y1="221" y2="218"/>
  <rect height="12" style="fill:rgb(255,127,0);fill-opacity:0.7490196078431373;stroke:none;" width="4" x="208" y="287"/>
  <line style="fill:none;stroke:rgb(255,127,0);stroke-opacity:0.24705882352941178;stroke-width:2;stroke-miterlimit:10;stroke-linecap:square;" x1="195" x2="210" y1="216" y2="216"/>
  <line style="fill:none;stroke:rgb(255,127,0);stroke-opacity:0.24705882352941178;stroke-width:2;stroke-miterlimit:10;stroke-linecap:square;" x1="210" x2="210" y1="214" y2="206"/>
  <rect height="33" style="fill:rgb(255,127,0);fill-opacity:0.7490196078431373;stroke:none;" width="4" x="223" y="266"/>
  <line style="fill:none;stroke:rgb(255,127,0);stroke-opacity:0.24705882352941178;stroke-width:2;stroke-miterlimit:10;stroke-linecap:square;" x1="210" x2="225" y1="204" y2="204"/>
  <line style="fill:none;stroke:rgb(255,127,0);stroke-opacity:0.24705882352941178;stroke-width:2;stroke-miterlimit:10;stroke-linecap:square;" x1="225" x2="225" y1="202" y2="172"/>
  <rect height="24" style="fill:rgb(255,127,0);fill-opacity:0.7490196078431373;stroke:none;" width="4" x="237" y="275"/>
  <line style="fill:none;stroke:rgb(255,127,0);stroke-opacity:0.24705882352941178;stroke-width:2;stroke-miterlimit:10;stroke-linecap:square;" x1="225" x2="239" y1="170" y2="170"/>
  <line style="fill:none;stroke:rgb(255,127,0);stroke-opacity:0.24705882352941178;stroke-width:2;stroke-miterlimit:10;stroke-linecap:square;" x1="239" x2="239" y1="168" y2="148"/>
  <rect height="24" style="fill:rgb(255,127,0);fill-opacity:0.7490196078431373;stroke:none;" width="4" x="252" y="275"/>
  <line style="fill:none;stroke:rgb(255,127,0);stroke-opacity:0.24705882352941178;stroke-width:2;stroke-miterlimit:10;stroke-linecap:square;" x1="239" x2="254" y1="146" y2="146"/>
  <line style="fill:none;stroke:rgb(255,127,0);stroke-opacity:0.24705882352941178;stroke-width:2;stroke-miterlimit:10;stroke-linecap:square;" x1="254" x2="254" y1="144" y2="123"/>
  <rect height="24" style="fill:rgb(255,127,0);fill-opacity:0.7490196078431373;stroke:none;" width="4" x="266" y="275"/>
  <line style="fill:none;stroke:rgb(255,127,0);stroke-opacity:0.24705882352941178;stroke-width:2;stroke-miterlimit:10;stroke-linecap:square;" x1="254" x2="268" y1="121" y2="121"/>
  <line style="fill:none;stroke:rgb(255,127,0);stroke-opacity:0.24705882352941178;stroke-width:2;stroke-miterlimit:10;stroke-linecap:square;" x1="268" x2="268" y1="119" y2="98"/>
  <rect height="6" style="fill:rgb(255,127,0);fill-opacity:0.7490196078431373;stroke:none;" width="4" x="281" y="293"/>
  <line style="fill:none;stroke:rgb(255,127,0);stroke-opacity:0.24705882352941178;stroke-width:2;stroke-miterlimit:10;stroke-linecap:square;" x1="268" x2="283" y1="96" y2="96"/>
  <line style="fill:none;stroke:rgb(255,127,0);stroke-opacity:0.24705882352941178;stroke-width:2;stroke-miterlimit:10;stroke-linecap:square;" x1="283" x2="283" y1="94" y2="92"/>
  <rect height="3" style="fill:rgb(255,127,0);fill-opacity:0.7490196078431373;stroke:none;" width="4" x="295" y="296"/>
  <line style="fill:none;stroke:rgb(255,127,0);stroke-opacity:0.24705882352941178;stroke-width:2;stroke-miterlimit:10;stroke-linecap:square;" x1="283" x2="297" y1="90" y2="90"/>
  <line style="fill:none;stroke:rgb(255,127,0);stroke-opacity:0.24705882352941178;stroke-width:2;stroke-miterlimit:10;stroke-linecap:square;" x1="297" x2="297" y1="88" y2="89"/>
  <rect height="6" style="fill:rgb(255,127,0);fill-opacity:0.7490196078431373;stroke:none;" width="4" x="325" y="293"/>
  <line style="fill:none;stroke:rgb(255,127,0);stroke-opacity:0.24705882352941178;stroke-width:2;stroke-miterlimit:10;stroke-linecap:square;" x1="297" x2="327" y1="87" y2="87"/>
  <line style="fill:none;stroke:rgb(255,127,0);stroke-opacity:0.24705882352941178;stroke-width:2;stroke-miterlimit:10;stroke-linecap:square;" x1="327" x2="327" y1="85" y2="83"/>
  <rect height="9" style="fill:rgb(255,127,0);fill-opacity:0.7490196078431373;stroke:none;" width="4" x="339" y="290"/>
  <line style="fill:none;stroke:rgb(255,127,0);stroke-opacity:0.24705882352941178;stroke-width:2;stroke-miterlimit:10;stroke-linecap:square;" x1="327" x2="341" y1="81" y2="81"/>
  <line style="fill:none;stroke:rgb(255,127,0);stroke-opacity:0.24705882352941178;stroke-width:2;stroke-miterlimit:10;stroke-linecap:square;" x1="341" x2="341" y1="79" y2="74"/>
  <rect height="6" style="fill:rgb(255,127,0);fill-opacity:0.7490196078431373;stroke:none;" width="4" x="368" y="293"/>
  <line style="fill:none;stroke:rgb(255,127,0);stroke-opacity:0.24705882352941178;stroke-width:2;stroke-miterlimit:10;stroke-linecap:square;" x1="341" x2="370" y1="72" y2="72"/>
  <line style="fill:none;stroke:rgb(255,127,0);stroke-opacity:0.24705882352941178;stroke-width:2;stroke-miterlimit:10;stroke-linecap:square;" x1="370" x2="370" y1="70" y2="68"/>
  <rect height="6" style="fill:rgb(255,127,0);fill-opacity:0.7490196078431373;stroke:none;" width="4" x="383" y="293"/>
  <line style="fill:none;stroke:rgb(255,127,0);stroke-opacity:0.24705882352941178;stroke-width:2;stroke-miterlimit:10;stroke-linecap:square;" x1="370" x2="385" y1="66" y2="66"/>
  <line style="fill:none;stroke:rgb(255,127,0);stroke-opacity:0.24705882352941178;stroke-width:2;stroke-miterlimit:10;stroke-linecap:square;" x1="385" x2="385" y1="64" y2="62"/>
  <line style="fill:none;stroke:rgb(255,127,0);stroke-opacity:0.24705882352941178;stroke-width:2;stroke-miterlimit:10;stroke-linecap:square;" x1="385" x2="400" y1="60" y2="60"/>
  <line style="fill:none;stroke:rgb(255,127,0);stroke-opacity:0.4980392156862745;stroke-miterlimit:2;stroke-dasharray:2;" x1="50" x2="50" y1="300" y2="350"/>
  <line style="fill:none;stroke:rgb(255,127,0);stroke-opacity:0.4980392156862745;stroke-miterlimit:2;stroke-dasharray:2;" x1="50" x2="50" y1="300" y2="364"/>
  <line style="fill:none;stroke:rgb(255,127,0);stroke-opacity:0.4980392156862745;stroke-miterlimit:2;stroke-dasharray:2;" x1="50" x2="50" y1="300" y2="378"/>
  <line style="fill:none;stroke:rgb(255,127,0);stroke-opacity:0.4980392156862745;stroke-miterlimit:2;stroke-dasharray:2;" x1="50" x2="50" y1="300" y2="392"/>
  <line style="fill:none;stroke:rgb(255,127,0);stroke-opacity:0.4980392156862745;stroke-miterlimit:2;stroke-dasharray:2;" x1="64" x2="64" y1="300" y2="406"/>
  <line style="fill:none;stroke:rgb(255,127,0);stroke-opacity:0.4980392156862745;stroke-miterlimit:2;stroke-dasharray:2;" x1="64" x2="64" y1="300" y2="420"/>
  <line style="fill:none;stroke:rgb(255,127,0);stroke-opacity:0.4980392156862745;stroke-miterlimit:2;stroke-dasharray:2;" x1="64" x2="64" y1="300" y2="434"/>
  <line style="fill:none;stroke:rgb(255,127,0);stroke-opacity:0.4980392156862745;stroke-miterlimit:2;stroke-dasharray:2;" x1="64" x2="64" y1="300" y2="448"/>
  <line style="fill:none;stroke:rgb(255,127,0);stroke-opacity:0.4980392156862745;stroke-miterlimit:2;stroke-dasharray:2;" x1="64" x2="64" y1="300" y2="462"/>
  <line style="fill:none;stroke:rgb(255,127,0);stroke-opacity:0.4980392156862745;stroke-miterlimit:2;stroke-dasharray:2;" x1="64" x2="64" y1="300" y2="476"/>
  <line style="fill:none;stroke:rgb(255,127,0);stroke-opacity:0.4980392156862745;stroke-miterlimit:2;stroke-dasharray:2;" x1="64" x2="64" y1="300" y2="490"/>
  <line style="fill:none;stroke:rgb(255,127,0);stroke-opacity:0.4980392156862745;stroke-miterlimit:2;stroke-dasharray:2;" x1="64" x2="64" y1="300" y2="504"/>
  <line style="fill:none;stroke:rgb(255,127,0);stroke-opacity:0.4980392156862745;stroke-miterlimit:2;stroke-dasharray:2;" x1="64" x2="64" y1="300" y2="518"/>
  <line style="fill:none;stroke:rgb(255,127,0);stroke-opacity:0.4980392156862745;stroke-miterlimit:2;stroke-dasharray:2;" x1="79" x2="79" y1="300" y2="532"/>
  <line style="fill:none;stroke:rgb(255,127,0);stroke-opacity:0.4980392156862745;stroke-miterlimit:2;stroke-dasharray:2;" x1="108" x2="108" y1="300" y2="546"/>
  <line style="fill:none;stroke:rgb(255,127,0);stroke-opacity:0.4980392156862745;stroke-miterlimit:2;stroke-dasharray:2;" x1="108" x2="108" y1="300" y2="560"/>
  <line style="fill:none;stroke:rgb(255,127,0);stroke-opacity:0.4980392156862745;stroke-miterlimit:2;stroke-dasharray:2;" x1="122" x2="122" y1="300" y2="574"/>
  <line style="fill:none;stroke:rgb(255,127,0);stroke-opacity:0.4980392156862745;stroke-miterlimit:2;stroke-dasharray:2;" x1="152" x2="152" y1="300" y2="588"/>
  <line style="fill:none;stroke:rgb(255,127,0);stroke-opacity:0.4980392156862745;stroke-miterlimit:2;stroke-dasharray:2;" x1="152" x2="152" y1="300" y2="602"/>
  <line style="fill:none;stroke:rgb(255,127,0);stroke-opacity:0.4980392156862745;stroke-miterlimit:2;stroke-dasharray:2;" x1="152" x2="152" y1="300" y2="616"/>
  <line style="fill:none;stroke:rgb(255,127,0);stroke-opacity:0.4980392156862745;stroke-miterlimit:2;stroke-dasharray:2;" x1="152" x2="152" y1="300" y2="630"/>
  <line style="fill:none;stroke:rgb(255,127,0);stroke-opacity:0.4980392156862745;stroke-miterlimit:2;stroke-dasharray:2;" x1="166" x2="166" y1="300" y2="644"/>
  <line style="fill:none;stroke:rgb(255,127,0);stroke-opacity:0.4980392156862745;stroke-miterlimit:2;stroke-dasharray:2;" x1="166" x2="166" y1="300" y2="658"/>
  <line style="fill:none;stroke:rgb(255,127,0);stroke-opacity:0.4980392156862745;stroke-miterlimit:2;stroke-dasharray:2;" x1="166" x2="166" y1="300" y2="672"/>
  <line style="fill:none;stroke:rgb(255,127,0);stroke-opacity:0.4980392156862745;stroke-miterlimit:2;stroke-dasharray:2;" x1="166" x2="166" y1="300" y2="686"/>
  <line style="fill:none;stroke:rgb(255,127,0);stroke-opacity:0.4980392156862745;stroke-miterlimit:2;stroke-dasharray:2;" x1="195" x2="195" y1="300" y2="700"/>
  <line style="fill:none;stroke:rgb(255,127,0);stroke-opacity:0.4980392156862745;stroke-miterlimit:2;stroke-dasharray:2;" x1="195" x2="195" y1="300" y2="714"/>
  <line style="fill:none;stroke:rgb(255,127,0);stroke-opacity:0.4980392156862745;stroke-miterlimit:2;stroke-dasharray:2;" x1="210" x2="210" y1="300" y2="729"/>
  <line style="fill:none;stroke:rgb(255,127,0);stroke-opacity:0.4980392156862745;stroke-miterlimit:2;stroke-dasharray:2;" x1="210" x2="210" y1="300" y2="744"/>
  <line style="fill:none;stroke:rgb(255,127,0);stroke-opacity:0.4980392156862745;stroke-miterlimit:2;stroke-dasharray:2;" x1="210" x2="210" y1="300" y2="759"/>
  <line style="fill:none;stroke:rgb(255,127,0);stroke-opacity:0.4980392156862745;stroke-miterlimit:2;stroke-dasharray:2;" x1="210" x2="210" y1="300" y2="774"/>
  <line style="fill:none;stroke:rgb(255,127,0);stroke-opacity:0.4980392156862745;stroke-miterlimit:2;stroke-dasharray:2;" x1="225" x2="225" y1="300" y2="789"/>
  <line style="fill:none;stroke:rgb(255,127,0);stroke-opacity:0.4980392156862745;stroke-miterlimit:2;stroke-dasharray:2;" x1="225" x2="225" y1="300" y2="804"/>
  <line style="fill:none;stroke:rgb(255,127,0);stroke-opacity:0.4980392156862745;stroke-miterlimit:2;stroke-dasharray:2;" x1="225" x2="225" y1="300" y2="819"/>
  <line style="fill:none;stroke:rgb(255,127,0);stroke-opacity:0.4980392156862745;stroke-miterlimit:2;stroke-dasharray:2;" x1="225" x2="225" y1="300" y2="834"/>
  <line style="fill:none;stroke:rgb(255,127,0);stroke-opacity:0.4980392156862745;stroke-miterlimit:2;stroke-dasharray:2;" x1="225" x2="225" y1="300" y2="849"/>
  <line style="fill:none;stroke:rgb(255,127,0);stroke-opacity:0.4980392156862745;stroke-miterlimit:2;stroke-dasharray:2;" x1="225" x2="225" y1="300" y2="864"/>
  <line style="fill:none;stroke:rgb(255,127,0);stroke-opacity:0.4980392156862745;stroke-miterlimit:2;stroke-dasharray:2;" x1="225" x2="225" y1="300" y2="879"/>
  <line style="fill:none;stroke:rgb(255,127,0);stroke-opacity:0.4980392156862745;stroke-miterlimit:2;stroke-dasharray:2;" x1="225" x2="225" y1="300" y2="894"/>
  <line style="fill:none;stroke:rgb(255,127,0);stroke-opacity:0.4980392156862745;stroke-miterlimit:2;stroke-dasharray:2;" x1="225" x2="225" y1="300" y2="909"/>
  <line style="fill:none;stroke:rgb(255,127,0);stroke-opacity:0.4980392156862745;stroke-miterlimit:2;stroke-dasharray:2;" x1="225" x2="225" y1="300" y2="924"/>
  <line style="fill:none;stroke:rgb(255,127,0);stroke-opacity:0.4980392156862745;stroke-miterlimit:2;stroke-dasharray:2;" x1="225" x2="225" y1="300" y2="939"/>
  <line style="fill:none;stroke:rgb(255,127,0);stroke-opacity:0.4980392156862745;stroke-miterlimit:2;stroke-dasharray:2;" x1="239" x2="239" y1="300" y2="954"/>
  <line style="fill:none;stroke:rgb(255,127,0);stroke-opacity:0.4980392156862745;stroke-miterlimit:2;stroke-dasharray:2;" x1="239" x2="239" y1="300" y2="969"/>
  <line style="fill:none;stroke:rgb(255,127,0);stroke-opacity:0.4980392156862745;stroke-miterlimit:2;stroke-dasharray:2;" x1="239" x2="239" y1="300" y2="984"/>
  <line style="fill:none;stroke:rgb(255,127,0);stroke-opacity:0.4980392156862745;stroke-miterlimit:2;stroke-dasharray:2;" x1="239" x2="239" y1="300" y2="999"/>
  <line style="fill:none;stroke:rgb(255,127,0);stroke-opacity:0.4980392156862745;stroke-miterlimit:2;stroke-dasharray:2;" x1="239" x2="239" y1="300" y2="1014"/>
  <line style="fill:none;stroke:rgb(255,127,0);stroke-opacity:0.4980392156862745;stroke-miterlimit:2;stroke-dasharray:2;" x1="239" x2="239" y1="300" y2="1029"/>
  <line style="fill:none;stroke:rgb(255,127,0);stroke-opacity:0.4980392156862745;stroke-miterlimit:2;stroke-dasharray:2;" x1="239" x2="239" y1="300" y2="1044"/>
  <line style="fill:none;stroke:rgb(255,127,0);stroke-opacity:0.4980392156862745;stroke-miterlimit:2;stroke-dasharray:2;" x1="239" x2="239" y1="300" y2="1059"/>
  <line style="fill:none;stroke:rgb(255,127,0);stroke-opacity:0.4980392156862745;stroke-miterlimit:2;stroke-dasharray:2;" x1="254" x2="254" y1="300" y2="1074"/>
  <line style="fill:none;stroke:rgb(255,127,0);stroke-opacity:0.4980392156862745;stroke-miterlimit:2;stroke-dasharray:2;" x1="254" x2="254" y1="300" y2="1089"/>
  <line style="fill:none;stroke:rgb(255,127,0);stroke-opacity:0.4980392156862745;stroke-miterlimit:2;stroke-dasharray:2;" x1="254" x2="254" y1="300" y2="1104"/>
  <line style="fill:none;stroke:rgb(255,127,0);stroke-opacity:0.4980392156862745;stroke-miterlimit:2;stroke-dasharray:2;" x1="254" x2="254" y1="300" y2="1119"/>
  <line style="fill:none;stroke:rgb(255,127,0);stroke-opacity:0.4980392156862745;stroke-miterlimit:2;stroke-dasharray:2;" x1="254" x2="254" y1="300" y2="1134"/>
  <line style="fill:none;stroke:rgb(255,127,0);stroke-opacity:0.4980392156862745;stroke-miterlimit:2;stroke-dasharray:2;" x1="254" x2="254" y1="300" y2="1149"/>
  <line style="fill:none;stroke:rgb(255,127,0);stroke-opacity:0.4980392156862745;stroke-miterlimit:2;stroke-dasharray:2;" x1="254" x2="254" y1="300" y2="1164"/>
  <line style="fill:none;stroke:rgb(255,127,0);stroke-opacity:0.4980392156862745;stroke-miterlimit:2;stroke-dasharray:2;" x1="254" x2="254" y1="300" y2="1179"/>
  <line style="fill:none;stroke:rgb(255,127,0);stroke-opacity:0.4980392156862745;stroke-miterlimit:2;stroke-dasharray:2;" x1="268" x2="268" y1="300" y2="1194"/>
  <line style="fill:none;stroke:rgb(255,127,0);stroke-opacity:0.4980392156862745;stroke-miterlimit:2;stroke-dasharray:2;" x1="268" x2="268" y1="300" y2="1209"/>
  <line style="fill:none;stroke:rgb(255,127,0);stroke-opacity:0.4980392156862745;stroke-miterlimit:2;stroke-dasharray:2;" x1="268" x2="268" y1="300" y2="1224"/>
  <line style="fill:none;stroke:rgb(255,127,0);stroke-opacity:0.4980392156862745;stroke-miterlimit:2;stroke-dasharray:2;" x1="268" x2="268" y1="300" y2="1239"/>
  <line style="fill:none;stroke:rgb(255,127,0);stroke-opacity:0.4980392156862745;stroke-miterlimit:2;stroke-dasharray:2;" x1="268" x2="268" y1="300" y2="1254"/>
  <line style="fill:none;stroke:rgb(255,127,0);stroke-opacity:0.4980392156862745;stroke-miterlimit:2;stroke-dasharray:2;" x1="268" x2="268" y1="300" y2="1269"/>
  <line style="fill:none;stroke:rgb(255,127,0);stroke-opacity:0.4980392156862745;stroke-miterlimit:2;stroke-dasharray:2;" x1="268" x2="268" y1="300" y2="1284"/>
  <line style="fill:none;stroke:rgb(255,127,0);stroke-opacity:0.4980392156862745;stroke-miterlimit:2;stroke-dasharray:2;" x1="268" x2="268" y1="300" y2="1299"/>
  <line style="fill:none;stroke:rgb(255,127,0);stroke-opacity:0.4980392156862745;stroke-miterlimit:2;stroke-dasharray:2;" x1="283" x2="283" y1="300" y2="1313"/>
  <line style="fill:none;stroke:rgb(255,127,0);stroke-opacity:0.4980392156862745;stroke-miterlimit:2;stroke-dasharray:2;" x1="283" x2="283" y1="300" y2="1327"/>
  <line style="fill:none;stroke:rgb(255,127,0);stroke-opacity:0.4980392156862745;stroke-miterlimit:2;stroke-dasharray:2;" x1="297" x2="297" y1="300" y2="1341"/>
  <line style="fill:none;stroke:rgb(255,127,0);stroke-opacity:0.4980392156862745;stroke-miterlimit:2;stroke-dasharray:2;" x1="327" x2="327" y1="300" y2="1355"/>
  <line style="fill:none;stroke:rgb(255,127,0);stroke-opacity:0.4980392156862745;stroke-miterlimit:2;stroke-dasharray:2;" x1="327" x2="327" y1="300" y2="1369"/>
  <line style="fill:none;stroke:rgb(255,127,0);stroke-opacity:0.4980392156862745;stroke-miterlimit:2;stroke-dasharray:2;" x1="341" x2="341" y1="300" y2="1383"/>
  <line style="fill:none;stroke:rgb(255,127,0);stroke-opacity:0.4980392156862745;stroke-miterlimit:2;stroke-dasharray:2;" x1="341" x2="341" y1="300" y2="1397"/>
  <line style="fill:none;stroke:rgb(255,127,0);stroke-opacity:0.4980392156862745;stroke-miterlimit:2;stroke-dasharray:2;" x1="341" x2="341" y1="300" y2="1411"/>
  <line style="fill:none;stroke:rgb(255,127,0);stroke-opacity:0.4980392156862745;stroke-miterlimit:2;stroke-dasharray:2;" x1="370" x2="370" y1="300" y2="1425"/>
  <line style="fill:none;stroke:rgb(255,127,0);stroke-opacity:0.4980392156862745;stroke-miterlimit:2;stroke-dasharray:2;" x1="370" x2="370" y1="300" y2="1439"/>
  <line style="fill:none;stroke:rgb(255,127,0);stroke-opacity:0.4980392156862745;stroke-miterlimit:2;stroke-dasharray:2;" x1="385" x2="385" y1="300" y2="1453"/>
  <line style="fill:none;stroke:rgb(255,127,0);stroke-opacity:0.4980392156862745;stroke-miterlimit:2;stroke-dasharray:2;" x1="385" x2="385" y1="300" y2="1467"/>
  <line style="fill:none;stroke:rgb(0,0,0);stroke-width:2;stroke-miterlimit:10;stroke-linecap:square;" x1="48" x2="48" y1="60" y2="300"/>
  <line style="fill:none;stroke:rgb(0,0,0);stroke-width:2;stroke-miterlimit:10;stroke-linecap:square;" x1="48" x2="402" y1="300" y2="300"/>
  <rect height="30" style="fill:rgb(255,255,255);stroke:none;" width="17" x="42" y="308"/>
  <text style="fill:rgb(0,0,0);stroke:none;font-size:25px;font-weight:bold;" x="42" y="332">0</text>
  <rect height="30" style="fill:rgb(255,255,255);stroke:none;" width="34" x="383" y="308"/>
  <text style="fill:rgb(0,0,0);stroke:none;font-size:25px;font-weight:bold;" x="383" y="332">24</text>
  <text style="fill:rgb(0,0,0);stroke:none;font-size:25px;font-weight:bold;" x="25" y="312">0</text>
  <text style="fill:rgb(0,0,0);stroke:none;font-size:25px;font-weight:bold;" x="25" y="72">1</text>
  <text style="fill:rgb(0,0,0);stroke:none;font-size:25px;font-weight:bold;" x="80" y="42">GOBP_CELL_ACTIVATION</text>
  <rect height="11" style="fill:rgb(255,255,255);stroke:none;" width="34" x="50" y="339"/>
  <text style="fill:rgb(128,128,128);stroke:none;font-size:11px;" x="50" y="350">ITGB3</text>
  <rect height="11" style="fill:rgb(255,255,255);stroke:none;" width="36" x="50" y="353"/>
  <text style="fill:rgb(128,128,128);stroke:none;font-size:11px;" x="50" y="364">PRKCE</text>
  <rect height="11" style="fill:rgb(255,255,255);stroke:none;" width="36" x="50" y="367"/>
  <text style="fill:rgb(128,128,128);stroke:none;font-size:11px;" x="50" y="378">ATAD5</text>
  <rect height="11" style="fill:rgb(255,255,255);stroke:none;" width="43" x="50" y="381"/>
  <text style="fill:rgb(128,128,128);stroke:none;font-size:11px;" x="50" y="392">SH3RF1</text>
  <rect height="11" style="fill:rgb(255,255,255);stroke:none;" width="22" x="64" y="395"/>
  <text style="fill:rgb(128,128,128);stroke:none;font-size:11px;" x="64" y="406">VWF</text>
  <rect height="11" style="fill:rgb(255,255,255);stroke:none;" width="26" x="64" y="409"/>
  <text style="fill:rgb(128,128,128);stroke:none;font-size:11px;" x="64" y="420">ITCH</text>
  <rect height="11" style="fill:rgb(255,255,255);stroke:none;" width="32" x="64" y="423"/>
  <text style="fill:rgb(128,128,128);stroke:none;font-size:11px;" x="64" y="434">RGCC</text>
  <rect height="11" style="fill:rgb(255,255,255);stroke:none;" width="37" x="64" y="437"/>
  <text style="fill:rgb(128,128,128);stroke:none;font-size:11px;" x="64" y="448">GPER1</text>
  <rect height="11" style="fill:rgb(255,255,255);stroke:none;" width="37" x="64" y="451"/>
  <text style="fill:rgb(128,128,128);stroke:none;font-size:11px;" x="64" y="462">EPHB1</text>
  <rect height="11" style="fill:rgb(255,255,255);stroke:none;" width="35" x="64" y="465"/>
  <text style="fill:rgb(128,128,128);stroke:none;font-size:11px;" x="64" y="476">RNF41</text>
  <rect height="11" style="fill:rgb(255,255,255);stroke:none;" width="30" x="64" y="479"/>
  <text style="fill:rgb(128,128,128);stroke:none;font-size:11px;" x="64" y="490">NFIL3</text>
  <rect height="11" style="fill:rgb(255,255,255);stroke:none;" width="43" x="64" y="493"/>
  <text style="fill:rgb(128,128,128);stroke:none;font-size:11px;" x="64" y="504">CLEC7A</text>
  <rect height="11" style="fill:rgb(255,255,255);stroke:none;" width="54" x="64" y="507"/>
  <text style="fill:rgb(128,128,128);stroke:none;font-size:11px;" x="64" y="518">SERPINE2</text>
  <rect height="11" style="fill:rgb(255,255,255);stroke:none;" width="44" x="79" y="521"/>
  <text style="fill:rgb(128,128,128);stroke:none;font-size:11px;" x="79" y="532">TGFBR2</text>
  <rect height="11" style="fill:rgb(255,255,255);stroke:none;" width="24" x="108" y="535"/>
  <text style="fill:rgb(128,128,128);stroke:none;font-size:11px;" x="108" y="546">MYB</text>
  <rect height="11" style="fill:rgb(255,255,255);stroke:none;" width="30" x="108" y="549"/>
  <text style="fill:rgb(128,128,128);stroke:none;font-size:11px;" x="108" y="560">FZD5</text>
  <rect height="11" style="fill:rgb(255,255,255);stroke:none;" width="30" x="122" y="563"/>
  <text style="fill:rgb(128,128,128);stroke:none;font-size:11px;" x="122" y="574">BST1</text>
  <rect height="11" style="fill:rgb(255,255,255);stroke:none;" width="28" x="152" y="577"/>
  <text style="fill:rgb(128,128,128);stroke:none;font-size:11px;" x="152" y="588">TFRC</text>
  <rect height="11" style="fill:rgb(255,255,255);stroke:none;" width="23" x="152" y="591"/>
  <text style="fill:rgb(128,128,128);stroke:none;font-size:11px;" x="152" y="602">IRF1</text>
  <rect height="11" style="fill:rgb(255,255,255);stroke:none;" width="29" x="152" y="605"/>
  <text style="fill:rgb(128,128,128);stroke:none;font-size:11px;" x="152" y="616">BCL3</text>
  <rect height="11" style="fill:rgb(255,255,255);stroke:none;" width="37" x="152" y="619"/>
  <text style="fill:rgb(128,128,128);stroke:none;font-size:11px;" x="152" y="630">TGFB1</text>
  <rect height="11" style="fill:rgb(255,255,255);stroke:none;" width="23" x="166" y="633"/>
  <text style="fill:rgb(128,128,128);stroke:none;font-size:11px;" x="166" y="644">IL4R</text>
  <rect height="11" style="fill:rgb(255,255,255);stroke:none;" width="30" x="166" y="647"/>
  <text style="fill:rgb(128,128,128);stroke:none;font-size:11px;" x="166" y="658">EGR1</text>
  <rect height="11" style="fill:rgb(255,255,255);stroke:none;" width="34" x="166" y="661"/>
  <text style="fill:rgb(128,128,128);stroke:none;font-size:11px;" x="166" y="672">PTAFR</text>
  <rect height="11" style="fill:rgb(255,255,255);stroke:none;" width="36" x="166" y="675"/>
  <text style="fill:rgb(128,128,128);stroke:none;font-size:11px;" x="166" y="686">EFNB3</text>
  <rect height="11" style="fill:rgb(255,255,255);stroke:none;" width="36" x="195" y="689"/>
  <text style="fill:rgb(128,128,128);stroke:none;font-size:11px;" x="195" y="700">NR4A3</text>
  <rect height="11" style="fill:rgb(255,255,255);stroke:none;" width="49" x="195" y="703"/>
  <text style="fill:rgb(128,128,128);stroke:none;font-size:11px;" x="195" y="714">TNFSF14</text>
  <rect height="12" style="fill:rgb(255,255,255);stroke:none;" width="23" x="210" y="717"/>
  <text style="fill:rgb(128,128,128);stroke:none;" x="210" y="729">TNF</text>
  <rect height="12" style="fill:rgb(255,255,255);stroke:none;" width="33" x="210" y="732"/>
  <text style="fill:rgb(128,128,128);stroke:none;" x="210" y="744">LMO4</text>
  <rect height="12" style="fill:rgb(255,255,255);stroke:none;" width="46" x="210" y="747"/>
  <text style="fill:rgb(128,128,128);stroke:none;" x="210" y="759">LMBR1L</text>
  <rect height="12" style="fill:rgb(255,255,255);stroke:none;" width="50" x="210" y="762"/>
  <text style="fill:rgb(128,128,128);stroke:none;" x="210" y="774">DNASE1</text>
  <rect height="12" style="fill:rgb(255,255,255);stroke:none;" width="22" x="225" y="777"/>
  <text style="fill:rgb(128,128,128);stroke:none;" x="225" y="789">SYK</text>
  <rect height="12" style="fill:rgb(255,255,255);stroke:none;" width="23" x="225" y="792"/>
  <text style="fill:rgb(128,128,128);stroke:none;" x="225" y="804">FES</text>
  <rect height="12" style="fill:rgb(255,255,255);stroke:none;" width="33" x="225" y="807"/>
  <text style="fill:rgb(128,128,128);stroke:none;" x="225" y="819">CD83</text>
  <rect height="12" style="fill:rgb(255,255,255);stroke:none;" width="30" x="225" y="822"/>
  <text style="fill:rgb(128,128,128);stroke:none;" x="225" y="834">CCL2</text>
  <rect height="12" style="fill:rgb(255,255,255);stroke:none;" width="35" x="225" y="837"/>
  <text style="fill:rgb(128,128,128);stroke:none;" x="225" y="849">GPAM</text>
  <rect height="12" style="fill:rgb(255,255,255);stroke:none;" width="34" x="225" y="852"/>
  <text style="fill:rgb(128,128,128);stroke:none;" x="225" y="864">RIPK3</text>
  <rect height="12" style="fill:rgb(255,255,255);stroke:none;" width="39" x="225" y="867"/>
  <text style="fill:rgb(128,128,128);stroke:none;" x="225" y="879">CTPS1</text>
  <rect height="12" style="fill:rgb(255,255,255);stroke:none;" width="42" x="225" y="882"/>
  <text style="fill:rgb(128,128,128);stroke:none;" x="225" y="894">HDAC5</text>
  <rect height="12" style="fill:rgb(255,255,255);stroke:none;" width="47" x="225" y="897"/>
  <text style="fill:rgb(128,128,128);stroke:none;" x="225" y="909">CX3CR1</text>
  <rect height="12" style="fill:rgb(255,255,255);stroke:none;" width="49" x="225" y="912"/>
  <text style="fill:rgb(128,128,128);stroke:none;" x="225" y="924">ZNF335</text>
  <rect height="12" style="fill:rgb(255,255,255);stroke:none;" width="55" x="225" y="927"/>
  <text style="fill:rgb(128,128,128);stroke:none;" x="225" y="939">PLA2G4A</text>
  <rect height="12" style="fill:rgb(255,255,255);stroke:none;" width="33" x="239" y="942"/>
  <text style="fill:rgb(128,128,128);stroke:none;" x="239" y="954">CD33</text>
  <rect height="12" style="fill:rgb(255,255,255);stroke:none;" width="42" x="239" y="957"/>
  <text style="fill:rgb(128,128,128);stroke:none;" x="239" y="969">HSPD1</text>
  <rect height="12" style="fill:rgb(255,255,255);stroke:none;" width="42" x="239" y="972"/>
  <text style="fill:rgb(128,128,128);stroke:none;" x="239" y="984">HSPH1</text>
  <rect height="12" style="fill:rgb(255,255,255);stroke:none;" width="33" x="239" y="987"/>
  <text style="fill:rgb(128,128,128);stroke:none;" x="239" y="999">IL2RB</text>
  <rect height="12" style="fill:rgb(255,255,255);stroke:none;" width="48" x="239" y="1002"/>
  <text style="fill:rgb(128,128,128);stroke:none;" x="239" y="1014">PKNOX1</text>
  <rect height="12" style="fill:rgb(255,255,255);stroke:none;" width="39" x="239" y="1017"/>
  <text style="fill:rgb(128,128,128);stroke:none;" x="239" y="1029">IL1RL2</text>
  <rect height="12" style="fill:rgb(255,255,255);stroke:none;" width="55" x="239" y="1032"/>
  <text style="fill:rgb(128,128,128);stroke:none;" x="239" y="1044">DCLRE1C</text>
  <rect height="12" style="fill:rgb(255,255,255);stroke:none;" width="64" x="239" y="1047"/>
  <text style="fill:rgb(128,128,128);stroke:none;" x="239" y="1059">TNFAIP8L2</text>
  <rect height="12" style="fill:rgb(255,255,255);stroke:none;" width="25" x="254" y="1062"/>
  <text style="fill:rgb(128,128,128);stroke:none;" x="254" y="1074">ADA</text>
  <rect height="12" style="fill:rgb(255,255,255);stroke:none;" width="30" x="254" y="1077"/>
  <text style="fill:rgb(128,128,128);stroke:none;" x="254" y="1089">CBLB</text>
  <rect height="12" style="fill:rgb(255,255,255);stroke:none;" width="33" x="254" y="1092"/>
  <text style="fill:rgb(128,128,128);stroke:none;" x="254" y="1104">THBD</text>
  <rect height="12" style="fill:rgb(255,255,255);stroke:none;" width="33" x="254" y="1107"/>
  <text style="fill:rgb(128,128,128);stroke:none;" x="254" y="1119">ARG2</text>
  <rect height="12" style="fill:rgb(255,255,255);stroke:none;" width="29" x="254" y="1122"/>
  <text style="fill:rgb(128,128,128);stroke:none;" x="254" y="1134">LDLR</text>
  <rect height="12" style="fill:rgb(255,255,255);stroke:none;" width="34" x="254" y="1137"/>
  <text style="fill:rgb(128,128,128);stroke:none;" x="254" y="1149">ITFG2</text>
  <rect height="12" style="fill:rgb(255,255,255);stroke:none;" width="47" x="254" y="1152"/>
  <text style="fill:rgb(128,128,128);stroke:none;" x="254" y="1164">SLAMF8</text>
  <rect height="12" style="fill:rgb(255,255,255);stroke:none;" width="48" x="254" y="1167"/>
  <text style="fill:rgb(128,128,128);stroke:none;" x="254" y="1179">RAB27A</text>
  <rect height="12" style="fill:rgb(255,255,255);stroke:none;" width="25" x="268" y="1182"/>
  <text style="fill:rgb(128,128,128);stroke:none;" x="268" y="1194">IL33</text>
  <rect height="12" style="fill:rgb(255,255,255);stroke:none;" width="32" x="268" y="1197"/>
  <text style="fill:rgb(128,128,128);stroke:none;" x="268" y="1209">CAV1</text>
  <rect height="12" style="fill:rgb(255,255,255);stroke:none;" width="39" x="268" y="1212"/>
  <text style="fill:rgb(128,128,128);stroke:none;" x="268" y="1224">TYRO3</text>
  <rect height="12" style="fill:rgb(255,255,255);stroke:none;" width="42" x="268" y="1227"/>
  <text style="fill:rgb(128,128,128);stroke:none;" x="268" y="1239">WDFY4</text>
  <rect height="12" style="fill:rgb(255,255,255);stroke:none;" width="32" x="268" y="1242"/>
  <text style="fill:rgb(128,128,128);stroke:none;" x="268" y="1254">IGLL1</text>
  <rect height="12" style="fill:rgb(255,255,255);stroke:none;" width="47" x="268" y="1257"/>
  <text style="fill:rgb(128,128,128);stroke:none;" x="268" y="1269">SLAMF7</text>
  <rect height="12" style="fill:rgb(255,255,255);stroke:none;" width="55" x="268" y="1272"/>
  <text style="fill:rgb(128,128,128);stroke:none;" x="268" y="1284">TP53BP1</text>
  <rect height="12" style="fill:rgb(255,255,255);stroke:none;" width="62" x="268" y="1287"/>
  <text style="fill:rgb(128,128,128);stroke:none;" x="268" y="1299">SLC39A10</text>
  <rect height="11" style="fill:rgb(255,255,255);stroke:none;" width="38" x="283" y="1302"/>
  <text style="fill:rgb(128,128,128);stroke:none;font-size:11px;" x="283" y="1313">ACTG1</text>
  <rect height="11" style="fill:rgb(255,255,255);stroke:none;" width="44" x="283" y="1316"/>
  <text style="fill:rgb(128,128,128);stroke:none;font-size:11px;" x="283" y="1327">BTN3A1</text>
  <rect height="11" style="fill:rgb(255,255,255);stroke:none;" width="44" x="297" y="1330"/>
  <text style="fill:rgb(128,128,128);stroke:none;font-size:11px;" x="297" y="1341">PDGFRA</text>
  <rect height="11" style="fill:rgb(255,255,255);stroke:none;" width="46" x="327" y="1344"/>
  <text style="fill:rgb(128,128,128);stroke:none;font-size:11px;" x="327" y="1355">ZBTB16</text>
  <rect height="11" style="fill:rgb(255,255,255);stroke:none;" width="46" x="327" y="1358"/>
  <text style="fill:rgb(128,128,128);stroke:none;font-size:11px;" x="327" y="1369">TMEM98</text>
  <rect height="11" style="fill:rgb(255,255,255);stroke:none;" width="30" x="341" y="1372"/>
  <text style="fill:rgb(128,128,128);stroke:none;font-size:11px;" x="341" y="1383">CD86</text>
  <rect height="11" style="fill:rgb(255,255,255);stroke:none;" width="25" x="341" y="1386"/>
  <text style="fill:rgb(128,128,128);stroke:none;font-size:11px;" x="341" y="1397">IRS2</text>
  <rect height="11" style="fill:rgb(255,255,255);stroke:none;" width="32" x="341" y="1400"/>
  <text style="fill:rgb(128,128,128);stroke:none;font-size:11px;" x="341" y="1411">CTSG</text>
  <rect height="11" style="fill:rgb(255,255,255);stroke:none;" width="29" x="370" y="1414"/>
  <text style="fill:rgb(128,128,128);stroke:none;font-size:11px;" x="370" y="1425">BCL6</text>
  <rect height="11" style="fill:rgb(255,255,255);stroke:none;" width="36" x="370" y="1428"/>
  <text style="fill:rgb(128,128,128);stroke:none;font-size:11px;" x="370" y="1439">PLCB1</text>
  <rect height="11" style="fill:rgb(255,255,255);stroke:none;" width="21" x="385" y="1442"/>
  <text style="fill:rgb(128,128,128);stroke:none;font-size:11px;" x="385" y="1453">FN1</text>
  <rect height="11" style="fill:rgb(255,255,255);stroke:none;" width="53" x="385" y="1456"/>
  <text style="fill:rgb(128,128,128);stroke:none;font-size:11px;" x="385" y="1467">CEACAM1</text>
</svg>
