<?xml version="1.0" encoding="UTF-8" standalone="no"?>
<!DOCTYPE svg PUBLIC "-//W3C//DTD SVG 1.1//EN" "http://www.w3.org/Graphics/SVG/1.1/DTD/svg11.dtd">
<svg xmlns:xlink="http://www.w3.org/1999/xlink" height="158.74999999999997mm" version="1.1" viewBox="0 0 500 600" width="132.29166666666666mm" x="0mm" y="0mm" xmlns="http://www.w3.org/2000/svg">
  <rect height="1200" style="fill:rgb(255,255,255);stroke:none;" width="1000" x="0" y="0"/>
  <rect height="240" style="fill:rgb(191,191,191);fill-opacity:0.4980392156862745;stroke:none;" width="175" x="225" y="60"/>
  <line style="fill:none;stroke:rgb(63,63,191);stroke-opacity:0.24705882352941178;stroke-miterlimit:10;stroke-linecap:square;" x1="50" x2="50" y1="300" y2="300"/>
  <line style="fill:none;stroke:rgb(63,63,191);stroke-opacity:0.24705882352941178;stroke-miterlimit:10;stroke-linecap:square;" x1="50" x2="64" y1="300" y2="290"/>
  <line style="fill:none;stroke:rgb(63,63,191);stroke-opacity:0.24705882352941178;stroke-miterlimit:10;stroke-linecap:square;" x1="64" x2="79" y1="290" y2="280"/>
  <line style="fill:none;stroke:rgb(63,63,191);stroke-opacity:0.24705882352941178;stroke-miterlimit:10;stroke-linecap:square;" x1="79" x2="93" y1="280" y2="270"/>
  <line style="fill:none;stroke:rgb(63,63,191);stroke-opacity:0.24705882352941178;stroke-miterlimit:10;stroke-linecap:square;" x1="93" x2="108" y1="270" y2="260"/>
  <line style="fill:none;stroke:rgb(63,63,191);stroke-opacity:0.24705882352941178;stroke-miterlimit:10;stroke-linecap:square;" x1="108" x2="122" y1="260" y2="250"/>
  <line style="fill:none;stroke:rgb(63,63,191);stroke-opacity:0.24705882352941178;stroke-miterlimit:10;stroke-linecap:square;" x1="122" x2="137" y1="250" y2="240"/>
  <line style="fill:none;stroke:rgb(63,63,191);stroke-opacity:0.24705882352941178;stroke-miterlimit:10;stroke-linecap:square;" x1="137" x2="152" y1="240" y2="230"/>
  <line style="fill:none;stroke:rgb(63,63,191);stroke-opacity:0.24705882352941178;stroke-miterlimit:10;stroke-linecap:square;" x1="152" x2="166" y1="230" y2="220"/>
  <line style="fill:none;stroke:rgb(63,63,191);stroke-opacity:0.24705882352941178;stroke-miterlimit:10;stroke-linecap:square;" x1="166" x2="181" y1="220" y2="210"/>
  <line style="fill:none;stroke:rgb(63,63,191);stroke-opacity:0.24705882352941178;stroke-miterlimit:10;stroke-linecap:square;" x1="181" x2="195" y1="210" y2="200"/>
  <line style="fill:none;stroke:rgb(63,63,191);stroke-opacity:0.24705882352941178;stroke-miterlimit:10;stroke-linecap:square;" x1="195" x2="210" y1="200" y2="190"/>
  <line style="fill:none;stroke:rgb(63,63,191);stroke-opacity:0.24705882352941178;stroke-miterlimit:10;stroke-linecap:square;" x1="210" x2="225" y1="190" y2="180"/>
  <line style="fill:none;stroke:rgb(63,63,191);stroke-opacity:0.24705882352941178;stroke-miterlimit:10;stroke-linecap:square;" x1="225" x2="239" y1="180" y2="170"/>
  <line style="fill:none;stroke:rgb(63,63,191);stroke-opacity:0.24705882352941178;stroke-miterlimit:10;stroke-linecap:square;" x1="239" x2="254" y1="170" y2="160"/>
  <line style="fill:none;stroke:rgb(63,63,191);stroke-opacity:0.24705882352941178;stroke-miterlimit:10;stroke-linecap:square;" x1="254" x2="268" y1="160" y2="150"/>
  <line style="fill:none;stroke:rgb(63,63,191);stroke-opacity:0.24705882352941178;stroke-miterlimit:10;stroke-linecap:square;" x1="268" x2="283" y1="150" y2="140"/>
  <line style="fill:none;stroke:rgb(63,63,191);stroke-opacity:0.24705882352941178;stroke-miterlimit:10;stroke-linecap:square;" x1="283" x2="297" y1="140" y2="130"/>
  <line style="fill:none;stroke:rgb(63,63,191);stroke-opacity:0.24705882352941178;stroke-miterlimit:10;stroke-linecap:square;" x1="297" x2="312" y1="130" y2="120"/>
  <line style="fill:none;stroke:rgb(63,63,191);stroke-opacity:0.24705882352941178;stroke-miterlimit:10;stroke-linecap:square;" x1="312" x2="327" y1="120" y2="110"/>
  <line style="fill:none;stroke:rgb(63,63,191);stroke-opacity:0.24705882352941178;stroke-miterlimit:10;stroke-linecap:square;" x1="327" x2="341" y1="110" y2="100"/>
  <line style="fill:none;stroke:rgb(63,63,191);stroke-opacity:0.24705882352941178;stroke-miterlimit:10;stroke-linecap:square;" x1="341" x2="356" y1="100" y2="90"/>
  <line style="fill:none;stroke:rgb(63,63,191);stroke-opacity:0.24705882352941178;stroke-miterlimit:10;stroke-linecap:square;" x1="356" x2="370" y1="90" y2="80"/>
  <line style="fill:none;stroke:rgb(63,63,191);stroke-opacity:0.24705882352941178;stroke-miterlimit:10;stroke-linecap:square;" x1="370" x2="385" y1="80" y2="70"/>
  <line style="fill:none;stroke:rgb(63,63,191);stroke-opacity:0.24705882352941178;stroke-miterlimit:10;stroke-linecap:square;" x1="385" x2="400" y1="70" y2="60"/>
  <line style="fill:none;stroke:rgb(63,63,191);stroke-opacity:0.24705882352941178;stroke-miterlimit:10;stroke-linecap:square;" x1="400" x2="400" y1="60" y2="60"/>
  <rect height="11" style="fill:rgb(255,127,0);fill-opacity:0.7490196078431373;stroke:none;" width="4" x="48" y="288"/>
  <line style="fill:none;stroke:rgb(255,127,0);stroke-opacity:0.24705882352941178;stroke-width:2;stroke-miterlimit:10;stroke-linecap:square;" x1="50" x2="50" y1="300" y2="300"/>
  <line style="fill:none;stroke:rgb(255,127,0);stroke-opacity:0.24705882352941178;stroke-width:2;stroke-miterlimit:10;stroke-linecap:square;" x1="50" x2="50" y1="298" y2="290"/>
  <rect height="11" style="fill:rgb(255,127,0);fill-opacity:0.7490196078431373;stroke:none;" width="4" x="62" y="288"/>
  <line style="fill:none;stroke:rgb(255,127,0);stroke-opacity:0.24705882352941178;stroke-width:2;stroke-miterlimit:10;stroke-linecap:square;" x1="50" x2="64" y1="288" y2="288"/>
  <line style="fill:none;stroke:rgb(255,127,0);stroke-opacity:0.24705882352941178;stroke-width:2;stroke-miterlimit:10;stroke-linecap:square;" x1="64" x2="64" y1="286" y2="279"/>
  <rect height="15" style="fill:rgb(255,127,0);fill-opacity:0.7490196078431373;stroke:none;" width="4" x="77" y="284"/>
  <line style="fill:none;stroke:rgb(255,127,0);stroke-opacity:0.24705882352941178;stroke-width:2;stroke-miterlimit:10;stroke-linecap:square;" x1="64" x2="79" y1="277" y2="277"/>
  <line style="fill:none;stroke:rgb(255,127,0);stroke-opacity:0.24705882352941178;stroke-width:2;stroke-miterlimit:10;stroke-linecap:square;" x1="79" x2="79" y1="275" y2="263"/>
  <rect height="3" style="fill:rgb(255,127,0);fill-opacity:0.7490196078431373;stroke:none;" width="4" x="91" y="296"/>
  <line style="fill:none;stroke:rgb(255,127,0);stroke-opacity:0.24705882352941178;stroke-width:2;stroke-miterlimit:10;stroke-linecap:square;" x1="79" x2="93" y1="261" y2="261"/>
  <line style="fill:none;stroke:rgb(255,127,0);stroke-opacity:0.24705882352941178;stroke-width:2;stroke-miterlimit:10;stroke-linecap:square;" x1="93" x2="93" y1="259" y2="260"/>
  <rect height="11" style="fill:rgb(255,127,0);fill-opacity:0.7490196078431373;stroke:none;" width="4" x="106" y="288"/>
  <line style="fill:none;stroke:rgb(255,127,0);stroke-opacity:0.24705882352941178;stroke-width:2;stroke-miterlimit:10;stroke-linecap:square;" x1="93" x2="108" y1="258" y2="258"/>
  <line style="fill:none;stroke:rgb(255,127,0);stroke-opacity:0.24705882352941178;stroke-width:2;stroke-miterlimit:10;stroke-linecap:square;" x1="108" x2="108" y1="256" y2="248"/>
  <rect height="3" style="fill:rgb(255,127,0);fill-opacity:0.7490196078431373;stroke:none;" width="4" x="120" y="296"/>
  <line style="fill:none;stroke:rgb(255,127,0);stroke-opacity:0.24705882352941178;stroke-width:2;stroke-miterlimit:10;stroke-linecap:square;" x1="108" x2="122" y1="246" y2="246"/>
  <line style="fill:none;stroke:rgb(255,127,0);stroke-opacity:0.24705882352941178;stroke-width:2;stroke-miterlimit:10;stroke-linecap:square;" x1="122" x2="122" y1="244" y2="244"/>
  <rect height="3" style="fill:rgb(255,127,0);fill-opacity:0.7490196078431373;stroke:none;" width="4" x="179" y="296"/>
  <line style="fill:none;stroke:rgb(255,127,0);stroke-opacity:0.24705882352941178;stroke-width:2;stroke-miterlimit:10;stroke-linecap:square;" x1="122" x2="181" y1="242" y2="242"/>
  <line style="fill:none;stroke:rgb(255,127,0);stroke-opacity:0.24705882352941178;stroke-width:2;stroke-miterlimit:10;stroke-linecap:square;" x1="181" x2="181" y1="240" y2="241"/>
  <rect height="15" style="fill:rgb(255,127,0);fill-opacity:0.7490196078431373;stroke:none;" width="4" x="193" y="284"/>
  <line style="fill:none;stroke:rgb(255,127,0);stroke-opacity:0.24705882352941178;stroke-width:2;stroke-miterlimit:10;stroke-linecap:square;" x1="181" x2="195" y1="239" y2="239"/>
  <line style="fill:none;stroke:rgb(255,127,0);stroke-opacity:0.24705882352941178;stroke-width:2;stroke-miterlimit:10;stroke-linecap:square;" x1="195" x2="195" y1="237" y2="225"/>
  <rect height="19" style="fill:rgb(255,127,0);fill-opacity:0.7490196078431373;stroke:none;" width="4" x="208" y="280"/>
  <line style="fill:none;stroke:rgb(255,127,0);stroke-opacity:0.24705882352941178;stroke-width:2;stroke-miterlimit:10;stroke-linecap:square;" x1="195" x2="210" y1="223" y2="223"/>
  <line style="fill:none;stroke:rgb(255,127,0);stroke-opacity:0.24705882352941178;stroke-width:2;stroke-miterlimit:10;stroke-linecap:square;" x1="210" x2="210" y1="221" y2="206"/>
  <rect height="26" style="fill:rgb(255,127,0);fill-opacity:0.7490196078431373;stroke:none;" width="4" x="223" y="273"/>
  <line style="fill:none;stroke:rgb(255,127,0);stroke-opacity:0.24705882352941178;stroke-width:2;stroke-miterlimit:10;stroke-linecap:square;" x1="210" x2="225" y1="204" y2="204"/>
  <line style="fill:none;stroke:rgb(255,127,0);stroke-opacity:0.24705882352941178;stroke-width:2;stroke-miterlimit:10;stroke-linecap:square;" x1="225" x2="225" y1="202" y2="180"/>
  <rect height="26" style="fill:rgb(255,127,0);fill-opacity:0.7490196078431373;stroke:none;" width="4" x="237" y="273"/>
  <line style="fill:none;stroke:rgb(255,127,0);stroke-opacity:0.24705882352941178;stroke-width:2;stroke-miterlimit:10;stroke-linecap:square;" x1="225" x2="239" y1="178" y2="178"/>
  <line style="fill:none;stroke:rgb(255,127,0);stroke-opacity:0.24705882352941178;stroke-width:2;stroke-miterlimit:10;stroke-linecap:square;" x1="239" x2="239" y1="176" y2="153"/>
  <rect height="26" style="fill:rgb(255,127,0);fill-opacity:0.7490196078431373;stroke:none;" width="4" x="252" y="273"/>
  <line style="fill:none;stroke:rgb(255,127,0);stroke-opacity:0.24705882352941178;stroke-width:2;stroke-miterlimit:10;stroke-linecap:square;" x1="239" x2="254" y1="151" y2="151"/>
  <line style="fill:none;stroke:rgb(255,127,0);stroke-opacity:0.24705882352941178;stroke-width:2;stroke-miterlimit:10;stroke-linecap:square;" x1="254" x2="254" y1="149" y2="126"/>
  <rect height="7" style="fill:rgb(255,127,0);fill-opacity:0.7490196078431373;stroke:none;" width="4" x="266" y="292"/>
  <line style="fill:none;stroke:rgb(255,127,0);stroke-opacity:0.24705882352941178;stroke-width:2;stroke-miterlimit:10;stroke-linecap:square;" x1="254" x2="268" y1="124" y2="124"/>
  <line style="fill:none;stroke:rgb(255,127,0);stroke-opacity:0.24705882352941178;stroke-width:2;stroke-miterlimit:10;stroke-linecap:square;" x1="268" x2="268" y1="122" y2="119"/>
  <rect height="7" style="fill:rgb(255,127,0);fill-opacity:0.7490196078431373;stroke:none;" width="4" x="281" y="292"/>
  <line style="fill:none;stroke:rgb(255,127,0);stroke-opacity:0.24705882352941178;stroke-width:2;stroke-miterlimit:10;stroke-linecap:square;" x1="268" x2="283" y1="117" y2="117"/>
  <line style="fill:none;stroke:rgb(255,127,0);stroke-opacity:0.24705882352941178;stroke-width:2;stroke-miterlimit:10;stroke-linecap:square;" x1="283" x2="283" y1="115" y2="111"/>
  <rect height="11" style="fill:rgb(255,127,0);fill-opacity:0.7490196078431373;stroke:none;" width="4" x="295" y="288"/>
  <line style="fill:none;stroke:rgb(255,127,0);stroke-opacity:0.24705882352941178;stroke-width:2;stroke-miterlimit:10;stroke-linecap:square;" x1="283" x2="297" y1="109" y2="109"/>
  <line style="fill:none;stroke:rgb(255,127,0);stroke-opacity:0.24705882352941178;stroke-width:2;stroke-miterlimit:10;stroke-linecap:square;" x1="297" x2="297" y1="107" y2="100"/>
  <rect height="7" style="fill:rgb(255,127,0);fill-opacity:0.7490196078431373;stroke:none;" width="4" x="310" y="292"/>
  <line style="fill:none;stroke:rgb(255,127,0);stroke-opacity:0.24705882352941178;stroke-width:2;stroke-miterlimit:10;stroke-linecap:square;" x1="297" x2="312" y1="98" y2="98"/>
  <line style="fill:none;stroke:rgb(255,127,0);stroke-opacity:0.24705882352941178;stroke-width:2;stroke-miterlimit:10;stroke-linecap:square;" x1="312" x2="312" y1="96" y2="92"/>
  <rect height="3" style="fill:rgb(255,127,0);fill-opacity:0.7490196078431373;stroke:none;" width="4" x="325" y="296"/>
  <line style="fill:none;stroke:rgb(255,127,0);stroke-opacity:0.24705882352941178;stroke-width:2;stroke-miterlimit:10;stroke-linecap:square;" x1="312" x2="327" y1="90" y2="90"/>
  <line style="fill:none;stroke:rgb(255,127,0);stroke-opacity:0.24705882352941178;stroke-width:2;stroke-miterlimit:10;stroke-linecap:square;" x1="327" x2="327" y1="88" y2="88"/>
  <rect height="3" style="fill:rgb(255,127,0);fill-opacity:0.7490196078431373;stroke:none;" width="4" x="339" y="296"/>
  <line style="fill:none;stroke:rgb(255,127,0);stroke-opacity:0.24705882352941178;stroke-width:2;stroke-miterlimit:10;stroke-linecap:square;" x1="327" x2="341" y1="86" y2="86"/>
  <line style="fill:none;stroke:rgb(255,127,0);stroke-opacity:0.24705882352941178;stroke-width:2;stroke-miterlimit:10;stroke-linecap:square;" x1="341" x2="341" y1="84" y2="84"/>
  <rect height="7" style="fill:rgb(255,127,0);fill-opacity:0.7490196078431373;stroke:none;" width="4" x="354" y="292"/>
  <line style="fill:none;stroke:rgb(255,127,0);stroke-opacity:0.24705882352941178;stroke-width:2;stroke-miterlimit:10;stroke-linecap:square;" x1="341" x2="356" y1="82" y2="82"/>
  <line style="fill:none;stroke:rgb(255,127,0);stroke-opacity:0.24705882352941178;stroke-width:2;stroke-miterlimit:10;stroke-linecap:square;" x1="356" x2="356" y1="80" y2="77"/>
  <rect height="7" style="fill:rgb(255,127,0);fill-opacity:0.7490196078431373;stroke:none;" width="4" x="368" y="292"/>
  <line style="fill:none;stroke:rgb(255,127,0);stroke-opacity:0.24705882352941178;stroke-width:2;stroke-miterlimit:10;stroke-linecap:square;" x1="356" x2="370" y1="75" y2="75"/>
  <line style="fill:none;stroke:rgb(255,127,0);stroke-opacity:0.24705882352941178;stroke-width:2;stroke-miterlimit:10;stroke-linecap:square;" x1="370" x2="370" y1="73" y2="69"/>
  <rect height="7" style="fill:rgb(255,127,0);fill-opacity:0.7490196078431373;stroke:none;" width="4" x="398" y="292"/>
  <line style="fill:none;stroke:rgb(255,127,0);stroke-opacity:0.24705882352941178;stroke-width:2;stroke-miterlimit:10;stroke-linecap:square;" x1="370" x2="400" y1="67" y2="67"/>
  <line style="fill:none;stroke:rgb(255,127,0);stroke-opacity:0.24705882352941178;stroke-width:2;stroke-miterlimit:10;stroke-linecap:square;" x1="400" x2="400" y1="65" y2="62"/>
  <line style="fill:none;stroke:rgb(255,127,0);stroke-opacity:0.24705882352941178;stroke-width:2;stroke-miterlimit:10;stroke-linecap:square;" x1="400" x2="400" y1="60" y2="60"/>
  <line style="fill:none;stroke:rgb(255,127,0);stroke-opacity:0.4980392156862745;stroke-miterlimit:2;stroke-dasharray:2;" x1="50" x2="50" y1="300" y2="350"/>
  <line style="fill:none;stroke:rgb(255,127,0);stroke-opacity:0.4980392156862745;stroke-miterlimit:2;stroke-dasharray:2;" x1="50" x2="50" y1="300" y2="364"/>
  <line style="fill:none;stroke:rgb(255,127,0);stroke-opacity:0.4980392156862745;stroke-miterlimit:2;stroke-dasharray:2;" x1="50" x2="50" y1="300" y2="378"/>
  <line style="fill:none;stroke:rgb(255,127,0);stroke-opacity:0.4980392156862745;stroke-miterlimit:2;stroke-dasharray:2;" x1="64" x2="64" y1="300" y2="392"/>
  <line style="fill:none;stroke:rgb(255,127,0);stroke-opacity:0.4980392156862745;stroke-miterlimit:2;stroke-dasharray:2;" x1="64" x2="64" y1="300" y2="406"/>
  <line style="fill:none;stroke:rgb(255,127,0);stroke-opacity:0.4980392156862745;stroke-miterlimit:2;stroke-dasharray:2;" x1="64" x2="64" y1="300" y2="420"/>
  <line style="fill:none;stroke:rgb(255,127,0);stroke-opacity:0.4980392156862745;stroke-miterlimit:2;stroke-dasharray:2;" x1="79" x2="79" y1="300" y2="434"/>
  <line style="fill:none;stroke:rgb(255,127,0);stroke-opacity:0.4980392156862745;stroke-miterlimit:2;stroke-dasharray:2;" x1="79" x2="79" y1="300" y2="448"/>
  <line style="fill:none;stroke:rgb(255,127,0);stroke-opacity:0.4980392156862745;stroke-miterlimit:2;stroke-dasharray:2;" x1="79" x2="79" y1="300" y2="462"/>
  <line style="fill:none;stroke:rgb(255,127,0);stroke-opacity:0.4980392156862745;stroke-miterlimit:2;stroke-dasharray:2;" x1="79" x2="79" y1="300" y2="476"/>
  <line style="fill:none;stroke:rgb(255,127,0);stroke-opacity:0.4980392156862745;stroke-miterlimit:2;stroke-dasharray:2;" x1="93" x2="93" y1="300" y2="490"/>
  <line style="fill:none;stroke:rgb(255,127,0);stroke-opacity:0.4980392156862745;stroke-miterlimit:2;stroke-dasharray:2;" x1="108" x2="108" y1="300" y2="504"/>
  <line style="fill:none;stroke:rgb(255,127,0);stroke-opacity:0.4980392156862745;stroke-miterlimit:2;stroke-dasharray:2;" x1="108" x2="108" y1="300" y2="518"/>
  <line style="fill:none;stroke:rgb(255,127,0);stroke-opacity:0.4980392156862745;stroke-miterlimit:2;stroke-dasharray:2;" x1="108" x2="108" y1="300" y2="532"/>
  <line style="fill:none;stroke:rgb(255,127,0);stroke-opacity:0.4980392156862745;stroke-miterlimit:2;stroke-dasharray:2;" x1="122" x2="122" y1="300" y2="546"/>
  <line style="fill:none;stroke:rgb(255,127,0);stroke-opacity:0.4980392156862745;stroke-miterlimit:2;stroke-dasharray:2;" x1="181" x2="181" y1="300" y2="350"/>
  <line style="fill:none;stroke:rgb(255,127,0);stroke-opacity:0.4980392156862745;stroke-miterlimit:2;stroke-dasharray:2;" x1="195" x2="195" y1="300" y2="367"/>
  <line style="fill:none;stroke:rgb(255,127,0);stroke-opacity:0.4980392156862745;stroke-miterlimit:2;stroke-dasharray:2;" x1="195" x2="195" y1="300" y2="384"/>
  <line style="fill:none;stroke:rgb(255,127,0);stroke-opacity:0.4980392156862745;stroke-miterlimit:2;stroke-dasharray:2;" x1="195" x2="195" y1="300" y2="401"/>
  <line style="fill:none;stroke:rgb(255,127,0);stroke-opacity:0.4980392156862745;stroke-miterlimit:2;stroke-dasharray:2;" x1="195" x2="195" y1="300" y2="418"/>
  <line style="fill:none;stroke:rgb(255,127,0);stroke-opacity:0.4980392156862745;stroke-miterlimit:2;stroke-dasharray:2;" x1="210" x2="210" y1="300" y2="435"/>
  <line style="fill:none;stroke:rgb(255,127,0);stroke-opacity:0.4980392156862745;stroke-miterlimit:2;stroke-dasharray:2;" x1="210" x2="210" y1="300" y2="452"/>
  <line style="fill:none;stroke:rgb(255,127,0);stroke-opacity:0.4980392156862745;stroke-miterlimit:2;stroke-dasharray:2;" x1="210" x2="210" y1="300" y2="469"/>
  <line style="fill:none;stroke:rgb(255,127,0);stroke-opacity:0.4980392156862745;stroke-miterlimit:2;stroke-dasharray:2;" x1="210" x2="210" y1="300" y2="486"/>
  <line style="fill:none;stroke:rgb(255,127,0);stroke-opacity:0.4980392156862745;stroke-miterlimit:2;stroke-dasharray:2;" x1="210" x2="210" y1="300" y2="503"/>
  <line style="fill:none;stroke:rgb(255,127,0);stroke-opacity:0.4980392156862745;stroke-miterlimit:2;stroke-dasharray:2;" x1="225" x2="225" y1="300" y2="520"/>
  <line style="fill:none;stroke:rgb(255,127,0);stroke-opacity:0.4980392156862745;stroke-miterlimit:2;stroke-dasharray:2;" x1="225" x2="225" y1="300" y2="537"/>
  <line style="fill:none;stroke:rgb(255,127,0);stroke-opacity:0.4980392156862745;stroke-miterlimit:2;stroke-dasharray:2;" x1="225" x2="225" y1="300" y2="554"/>
  <line style="fill:none;stroke:rgb(255,127,0);stroke-opacity:0.4980392156862745;stroke-miterlimit:2;stroke-dasharray:2;" x1="225" x2="225" y1="300" y2="571"/>
  <line style="fill:none;stroke:rgb(255,127,0);stroke-opacity:0.4980392156862745;stroke-miterlimit:2;stroke-dasharray:2;" x1="225" x2="225" y1="300" y2="588"/>
  <line style="fill:none;stroke:rgb(255,127,0);stroke-opacity:0.4980392156862745;stroke-miterlimit:2;stroke-dasharray:2;" x1="225" x2="225" y1="300" y2="605"/>
  <line style="fill:none;stroke:rgb(255,127,0);stroke-opacity:0.4980392156862745;stroke-miterlimit:2;stroke-dasharray:2;" x1="225" x2="225" y1="300" y2="622"/>
  <line style="fill:none;stroke:rgb(255,127,0);stroke-opacity:0.4980392156862745;stroke-miterlimit:2;stroke-dasharray:2;" x1="239" x2="239" y1="300" y2="639"/>
  <line style="fill:none;stroke:rgb(255,127,0);stroke-opacity:0.4980392156862745;stroke-miterlimit:2;stroke-dasharray:2;" x1="239" x2="239" y1="300" y2="656"/>
  <line style="fill:none;stroke:rgb(255,127,0);stroke-opacity:0.4980392156862745;stroke-miterlimit:2;stroke-dasharray:2;" x1="239" x2="239" y1="300" y2="673"/>
  <line style="fill:none;stroke:rgb(255,127,0);stroke-opacity:0.4980392156862745;stroke-miterlimit:2;stroke-dasharray:2;" x1="239" x2="239" y1="300" y2="690"/>
  <line style="fill:none;stroke:rgb(255,127,0);stroke-opacity:0.4980392156862745;stroke-miterlimit:2;stroke-dasharray:2;" x1="239" x2="239" y1="300" y2="707"/>
  <line style="fill:none;stroke:rgb(255,127,0);stroke-opacity:0.4980392156862745;stroke-miterlimit:2;stroke-dasharray:2;" x1="239" x2="239" y1="300" y2="724"/>
  <line style="fill:none;stroke:rgb(255,127,0);stroke-opacity:0.4980392156862745;stroke-miterlimit:2;stroke-dasharray:2;" x1="239" x2="239" y1="300" y2="741"/>
  <line style="fill:none;stroke:rgb(255,127,0);stroke-opacity:0.4980392156862745;stroke-miterlimit:2;stroke-dasharray:2;" x1="254" x2="254" y1="300" y2="758"/>
  <line style="fill:none;stroke:rgb(255,127,0);stroke-opacity:0.4980392156862745;stroke-miterlimit:2;stroke-dasharray:2;" x1="254" x2="254" y1="300" y2="775"/>
  <line style="fill:none;stroke:rgb(255,127,0);stroke-opacity:0.4980392156862745;stroke-miterlimit:2;stroke-dasharray:2;" x1="254" x2="254" y1="300" y2="792"/>
  <line style="fill:none;stroke:rgb(255,127,0);stroke-opacity:0.4980392156862745;stroke-miterlimit:2;stroke-dasharray:2;" x1="254" x2="254" y1="300" y2="809"/>
  <line style="fill:none;stroke:rgb(255,127,0);stroke-opacity:0.4980392156862745;stroke-miterlimit:2;stroke-dasharray:2;" x1="254" x2="254" y1="300" y2="826"/>
  <line style="fill:none;stroke:rgb(255,127,0);stroke-opacity:0.4980392156862745;stroke-miterlimit:2;stroke-dasharray:2;" x1="254" x2="254" y1="300" y2="843"/>
  <line style="fill:none;stroke:rgb(255,127,0);stroke-opacity:0.4980392156862745;stroke-miterlimit:2;stroke-dasharray:2;" x1="254" x2="254" y1="300" y2="860"/>
  <line style="fill:none;stroke:rgb(255,127,0);stroke-opacity:0.4980392156862745;stroke-miterlimit:2;stroke-dasharray:2;" x1="268" x2="268" y1="300" y2="874"/>
  <line style="fill:none;stroke:rgb(255,127,0);stroke-opacity:0.4980392156862745;stroke-miterlimit:2;stroke-dasharray:2;" x1="268" x2="268" y1="300" y2="888"/>
  <line style="fill:none;stroke:rgb(255,127,0);stroke-opacity:0.4980392156862745;stroke-miterlimit:2;stroke-dasharray:2;" x1="283" x2="283" y1="300" y2="902"/>
  <line style="fill:none;stroke:rgb(255,127,0);stroke-opacity:0.4980392156862745;stroke-miterlimit:2;stroke-dasharray:2;" x1="283" x2="283" y1="300" y2="916"/>
  <line style="fill:none;stroke:rgb(255,127,0);stroke-opacity:0.4980392156862745;stroke-miterlimit:2;stroke-dasharray:2;" x1="297" x2="297" y1="300" y2="930"/>
  <line style="fill:none;stroke:rgb(255,127,0);stroke-opacity:0.4980392156862745;stroke-miterlimit:2;stroke-dasharray:2;" x1="297" x2="297" y1="300" y2="944"/>
  <line style="fill:none;stroke:rgb(255,127,0);stroke-opacity:0.4980392156862745;stroke-miterlimit:2;stroke-dasharray:2;" x1="297" x2="297" y1="300" y2="958"/>
  <line style="fill:none;stroke:rgb(255,127,0);stroke-opacity:0.4980392156862745;stroke-miterlimit:2;stroke-dasharray:2;" x1="312" x2="312" y1="300" y2="972"/>
  <line style="fill:none;stroke:rgb(255,127,0);stroke-opacity:0.4980392156862745;stroke-miterlimit:2;stroke-dasharray:2;" x1="312" x2="312" y1="300" y2="986"/>
  <line style="fill:none;stroke:rgb(255,127,0);stroke-opacity:0.4980392156862745;stroke-miterlimit:2;stroke-dasharray:2;" x1="327" x2="327" y1="300" y2="1000"/>
  <line style="fill:none;stroke:rgb(255,127,0);stroke-opacity:0.4980392156862745;stroke-miterlimit:2;stroke-dasharray:2;" x1="341" x2="341" y1="300" y2="1014"/>
  <line style="fill:none;stroke:rgb(255,127,0);stroke-opacity:0.4980392156862745;stroke-miterlimit:2;stroke-dasharray:2;" x1="356" x2="356" y1="300" y2="1028"/>
  <line style="fill:none;stroke:rgb(255,127,0);stroke-opacity:0.4980392156862745;stroke-miterlimit:2;stroke-dasharray:2;" x1="356" x2="356" y1="300" y2="1042"/>
  <line style="fill:none;stroke:rgb(255,127,0);stroke-opacity:0.4980392156862745;stroke-miterlimit:2;stroke-dasharray:2;" x1="370" x2="370" y1="300" y2="1056"/>
  <line style="fill:none;stroke:rgb(255,127,0);stroke-opacity:0.4980392156862745;stroke-miterlimit:2;stroke-dasharray:2;" x1="370" x2="370" y1="300" y2="1070"/>
  <line style="fill:none;stroke:rgb(255,127,0);stroke-opacity:0.4980392156862745;stroke-miterlimit:2;stroke-dasharray:2;" x1="400" x2="400" y1="300" y2="1084"/>
  <line style="fill:none;stroke:rgb(255,127,0);stroke-opacity:0.4980392156862745;stroke-miterlimit:2;stroke-dasharray:2;" x1="400" x2="400" y1="300" y2="1098"/>
  <line style="fill:none;stroke:rgb(0,0,0);stroke-width:2;stroke-miterlimit:10;stroke-linecap:square;" x1="48" x2="48" y1="60" y2="300"/>
  <line style="fill:none;stroke:rgb(0,0,0);stroke-width:2;stroke-miterlimit:10;stroke-linecap:square;" x1="48" x2="402" y1="300" y2="300"/>
  <rect height="30" style="fill:rgb(255,255,255);stroke:none;" width="17" x="42" y="308"/>
  <text style="fill:rgb(0,0,0);stroke:none;font-size:25px;font-weight:bold;" x="42" y="332">0</text>
  <rect height="30" style="fill:rgb(255,255,255);stroke:none;" width="34" x="383" y="308"/>
  <text style="fill:rgb(0,0,0);stroke:none;font-size:25px;font-weight:bold;" x="383" y="332">24</text>
  <text style="fill:rgb(0,0,0);stroke:none;font-size:25px;font-weight:bold;" x="25" y="312">0</text>
  <text style="fill:rgb(0,0,0);stroke:none;font-size:25px;font-weight:bold;" x="25" y="72">1</text>
  <text style="fill:rgb(0,0,0);stroke:none;font-size:23px;font-weight:bold;" x="4" y="41">GOBP_CHROMOSOME_ORGANIZATION</text>
  <rect height="11" style="fill:rgb(255,255,255);stroke:none;" width="30" x="50" y="339"/>
  <text style="fill:rgb(128,128,128);stroke:none;font-size:11px;" x="50" y="350">BRD4</text>
  <rect height="11" style="fill:rgb(255,255,255);stroke:none;" width="38" x="50" y="353"/>
  <text style="fill:rgb(128,128,128);stroke:none;font-size:11px;" x="50" y="364">CENPC</text>
  <rect height="11" style="fill:rgb(255,255,255);stroke:none;" width="44" x="50" y="367"/>
  <text style="fill:rgb(128,128,128);stroke:none;font-size:11px;" x="50" y="378">UBE2E1</text>
  <rect height="11" style="fill:rgb(255,255,255);stroke:none;" width="37" x="64" y="381"/>
  <text style="fill:rgb(128,128,128);stroke:none;font-size:11px;" x="64" y="392">GPER1</text>
  <rect height="11" style="fill:rgb(255,255,255);stroke:none;" width="32" x="64" y="395"/>
  <text style="fill:rgb(128,128,128);stroke:none;font-size:11px;" x="64" y="406">BRIP1</text>
  <rect height="11" style="fill:rgb(255,255,255);stroke:none;" width="36" x="64" y="409"/>
  <text style="fill:rgb(128,128,128);stroke:none;font-size:11px;" x="64" y="420">POLE2</text>
  <rect height="11" style="fill:rgb(255,255,255);stroke:none;" width="27" x="79" y="423"/>
  <text style="fill:rgb(128,128,128);stroke:none;font-size:11px;" x="79" y="434">ING2</text>
  <rect height="11" style="fill:rgb(255,255,255);stroke:none;" width="37" x="79" y="437"/>
  <text style="fill:rgb(128,128,128);stroke:none;font-size:11px;" x="79" y="448">FBXO4</text>
  <rect height="11" style="fill:rgb(255,255,255);stroke:none;" width="37" x="79" y="451"/>
  <text style="fill:rgb(128,128,128);stroke:none;font-size:11px;" x="79" y="462">AUTS2</text>
  <rect height="11" style="fill:rgb(255,255,255);stroke:none;" width="59" x="79" y="465"/>
  <text style="fill:rgb(128,128,128);stroke:none;font-size:11px;" x="79" y="476">PPARGC1A</text>
  <rect height="11" style="fill:rgb(255,255,255);stroke:none;" width="44" x="93" y="479"/>
  <text style="fill:rgb(128,128,128);stroke:none;font-size:11px;" x="93" y="490">RAD23B</text>
  <rect height="11" style="fill:rgb(255,255,255);stroke:none;" width="24" x="108" y="493"/>
  <text style="fill:rgb(128,128,128);stroke:none;font-size:11px;" x="108" y="504">MYB</text>
  <rect height="11" style="fill:rgb(255,255,255);stroke:none;" width="38" x="108" y="507"/>
  <text style="fill:rgb(128,128,128);stroke:none;font-size:11px;" x="108" y="518">KDM3A</text>
  <rect height="11" style="fill:rgb(255,255,255);stroke:none;" width="36" x="108" y="521"/>
  <text style="fill:rgb(128,128,128);stroke:none;font-size:11px;" x="108" y="532">VEGFA</text>
  <rect height="11" style="fill:rgb(255,255,255);stroke:none;" width="37" x="122" y="535"/>
  <text style="fill:rgb(128,128,128);stroke:none;font-size:11px;" x="122" y="546">PTTG1</text>
  <rect height="11" style="fill:rgb(255,255,255);stroke:none;" width="36" x="181" y="339"/>
  <text style="fill:rgb(128,128,128);stroke:none;font-size:11px;" x="181" y="350">AURKA</text>
  <rect height="13" style="fill:rgb(255,255,255);stroke:none;" width="33" x="195" y="354"/>
  <text style="fill:rgb(128,128,128);stroke:none;font-size:13px;" x="195" y="367">FLCN</text>
  <rect height="13" style="fill:rgb(255,255,255);stroke:none;" width="26" x="195" y="371"/>
  <text style="fill:rgb(128,128,128);stroke:none;font-size:13px;" x="195" y="384">PIF1</text>
  <rect height="13" style="fill:rgb(255,255,255);stroke:none;" width="33" x="195" y="388"/>
  <text style="fill:rgb(128,128,128);stroke:none;font-size:13px;" x="195" y="401">CCT5</text>
  <rect height="13" style="fill:rgb(255,255,255);stroke:none;" width="44" x="195" y="405"/>
  <text style="fill:rgb(128,128,128);stroke:none;font-size:13px;" x="195" y="418">TUBG2</text>
  <rect height="13" style="fill:rgb(255,255,255);stroke:none;" width="44" x="210" y="422"/>
  <text style="fill:rgb(128,128,128);stroke:none;font-size:13px;" x="210" y="435">TUBG1</text>
  <rect height="13" style="fill:rgb(255,255,255);stroke:none;" width="46" x="210" y="439"/>
  <text style="fill:rgb(128,128,128);stroke:none;font-size:13px;" x="210" y="452">MORC2</text>
  <rect height="13" style="fill:rgb(255,255,255);stroke:none;" width="53" x="210" y="456"/>
  <text style="fill:rgb(128,128,128);stroke:none;font-size:13px;" x="210" y="469">COPS7A</text>
  <rect height="13" style="fill:rgb(255,255,255);stroke:none;" width="59" x="210" y="473"/>
  <text style="fill:rgb(128,128,128);stroke:none;font-size:13px;" x="210" y="486">DCLRE1A</text>
  <rect height="13" style="fill:rgb(255,255,255);stroke:none;" width="59" x="210" y="490"/>
  <text style="fill:rgb(128,128,128);stroke:none;font-size:13px;" x="210" y="503">SERTAD1</text>
  <rect height="13" style="fill:rgb(255,255,255);stroke:none;" width="35" x="225" y="507"/>
  <text style="fill:rgb(128,128,128);stroke:none;font-size:13px;" x="225" y="520">DCP2</text>
  <rect height="13" style="fill:rgb(255,255,255);stroke:none;" width="32" x="225" y="524"/>
  <text style="fill:rgb(128,128,128);stroke:none;font-size:13px;" x="225" y="537">SLX4</text>
  <rect height="13" style="fill:rgb(255,255,255);stroke:none;" width="35" x="225" y="541"/>
  <text style="fill:rgb(128,128,128);stroke:none;font-size:13px;" x="225" y="554">BRD8</text>
  <rect height="13" style="fill:rgb(255,255,255);stroke:none;" width="44" x="225" y="558"/>
  <text style="fill:rgb(128,128,128);stroke:none;font-size:13px;" x="225" y="571">RCCD1</text>
  <rect height="13" style="fill:rgb(255,255,255);stroke:none;" width="41" x="225" y="575"/>
  <text style="fill:rgb(128,128,128);stroke:none;font-size:13px;" x="225" y="588">CHTF8</text>
  <rect height="13" style="fill:rgb(255,255,255);stroke:none;" width="43" x="225" y="592"/>
  <text style="fill:rgb(128,128,128);stroke:none;font-size:13px;" x="225" y="605">RAD50</text>
  <rect height="13" style="fill:rgb(255,255,255);stroke:none;" width="56" x="225" y="609"/>
  <text style="fill:rgb(128,128,128);stroke:none;font-size:13px;" x="225" y="622">PPP1R10</text>
  <rect height="13" style="fill:rgb(255,255,255);stroke:none;" width="34" x="239" y="626"/>
  <text style="fill:rgb(128,128,128);stroke:none;font-size:13px;" x="239" y="639">EML3</text>
  <rect height="13" style="fill:rgb(255,255,255);stroke:none;" width="32" x="239" y="643"/>
  <text style="fill:rgb(128,128,128);stroke:none;font-size:13px;" x="239" y="656">EYA2</text>
  <rect height="13" style="fill:rgb(255,255,255);stroke:none;" width="46" x="239" y="660"/>
  <text style="fill:rgb(128,128,128);stroke:none;font-size:13px;" x="239" y="673">HDAC5</text>
  <rect height="13" style="fill:rgb(255,255,255);stroke:none;" width="52" x="239" y="677"/>
  <text style="fill:rgb(128,128,128);stroke:none;font-size:13px;" x="239" y="690">SETMAR</text>
  <rect height="13" style="fill:rgb(255,255,255);stroke:none;" width="59" x="239" y="694"/>
  <text style="fill:rgb(128,128,128);stroke:none;font-size:13px;" x="239" y="707">DCLRE1C</text>
  <rect height="13" style="fill:rgb(255,255,255);stroke:none;" width="60" x="239" y="711"/>
  <text style="fill:rgb(128,128,128);stroke:none;font-size:13px;" x="239" y="724">SDR16C5</text>
  <rect height="13" style="fill:rgb(255,255,255);stroke:none;" width="57" x="239" y="728"/>
  <text style="fill:rgb(128,128,128);stroke:none;font-size:13px;" x="239" y="741">L3MBTL1</text>
  <rect height="13" style="fill:rgb(255,255,255);stroke:none;" width="29" x="254" y="745"/>
  <text style="fill:rgb(128,128,128);stroke:none;font-size:13px;" x="254" y="758">OIP5</text>
  <rect height="13" style="fill:rgb(255,255,255);stroke:none;" width="33" x="254" y="762"/>
  <text style="fill:rgb(128,128,128);stroke:none;font-size:13px;" x="254" y="775">NFE2</text>
  <rect height="13" style="fill:rgb(255,255,255);stroke:none;" width="44" x="254" y="779"/>
  <text style="fill:rgb(128,128,128);stroke:none;font-size:13px;" x="254" y="792">RBM14</text>
  <rect height="13" style="fill:rgb(255,255,255);stroke:none;" width="57" x="254" y="796"/>
  <text style="fill:rgb(128,128,128);stroke:none;font-size:13px;" x="254" y="809">ZCWPW1</text>
  <rect height="13" style="fill:rgb(255,255,255);stroke:none;" width="51" x="254" y="813"/>
  <text style="fill:rgb(128,128,128);stroke:none;font-size:13px;" x="254" y="826">PPHLN1</text>
  <rect height="13" style="fill:rgb(255,255,255);stroke:none;" width="53" x="254" y="830"/>
  <text style="fill:rgb(128,128,128);stroke:none;font-size:13px;" x="254" y="843">RAD51D</text>
  <rect height="13" style="fill:rgb(255,255,255);stroke:none;" width="50" x="254" y="847"/>
  <text style="fill:rgb(128,128,128);stroke:none;font-size:13px;" x="254" y="860">RECQL5</text>
  <rect height="11" style="fill:rgb(255,255,255);stroke:none;" width="29" x="268" y="863"/>
  <text style="fill:rgb(128,128,128);stroke:none;font-size:11px;" x="268" y="874">NAV2</text>
  <rect height="11" style="fill:rgb(255,255,255);stroke:none;" width="34" x="268" y="877"/>
  <text style="fill:rgb(128,128,128);stroke:none;font-size:11px;" x="268" y="888">RTEL1</text>
  <rect height="11" style="fill:rgb(255,255,255);stroke:none;" width="37" x="283" y="891"/>
  <text style="fill:rgb(128,128,128);stroke:none;font-size:11px;" x="283" y="902">BRCA1</text>
  <rect height="11" style="fill:rgb(255,255,255);stroke:none;" width="37" x="283" y="905"/>
  <text style="fill:rgb(128,128,128);stroke:none;font-size:11px;" x="283" y="916">SATB2</text>
  <rect height="11" style="fill:rgb(255,255,255);stroke:none;" width="35" x="297" y="919"/>
  <text style="fill:rgb(128,128,128);stroke:none;font-size:11px;" x="297" y="930">TBL1X</text>
  <rect height="11" style="fill:rgb(255,255,255);stroke:none;" width="37" x="297" y="933"/>
  <text style="fill:rgb(128,128,128);stroke:none;font-size:11px;" x="297" y="944">ATF7IP</text>
  <rect height="11" style="fill:rgb(255,255,255);stroke:none;" width="58" x="297" y="947"/>
  <text style="fill:rgb(128,128,128);stroke:none;font-size:11px;" x="297" y="958">HSP90AA1</text>
  <rect height="11" style="fill:rgb(255,255,255);stroke:none;" width="28" x="312" y="961"/>
  <text style="fill:rgb(128,128,128);stroke:none;font-size:11px;" x="312" y="972">PER1</text>
  <rect height="11" style="fill:rgb(255,255,255);stroke:none;" width="50" x="312" y="975"/>
  <text style="fill:rgb(128,128,128);stroke:none;font-size:11px;" x="312" y="986">PABPC1L</text>
  <rect height="11" style="fill:rgb(255,255,255);stroke:none;" width="36" x="327" y="989"/>
  <text style="fill:rgb(128,128,128);stroke:none;font-size:11px;" x="327" y="1000">POLA1</text>
  <rect height="11" style="fill:rgb(255,255,255);stroke:none;" width="28" x="341" y="1003"/>
  <text style="fill:rgb(128,128,128);stroke:none;font-size:11px;" x="341" y="1014">DPF3</text>
  <rect height="11" style="fill:rgb(255,255,255);stroke:none;" width="28" x="356" y="1017"/>
  <text style="fill:rgb(128,128,128);stroke:none;font-size:11px;" x="356" y="1028">PER2</text>
  <rect height="11" style="fill:rgb(255,255,255);stroke:none;" width="38" x="356" y="1031"/>
  <text style="fill:rgb(128,128,128);stroke:none;font-size:11px;" x="356" y="1042">DUSP1</text>
  <rect height="11" style="fill:rgb(255,255,255);stroke:none;" width="25" x="370" y="1045"/>
  <text style="fill:rgb(128,128,128);stroke:none;font-size:11px;" x="370" y="1056">GEM</text>
  <rect height="11" style="fill:rgb(255,255,255);stroke:none;" width="29" x="370" y="1059"/>
  <text style="fill:rgb(128,128,128);stroke:none;font-size:11px;" x="370" y="1070">BCL6</text>
  <rect height="11" style="fill:rgb(255,255,255);stroke:none;" width="31" x="400" y="1073"/>
  <text style="fill:rgb(128,128,128);stroke:none;font-size:11px;" x="400" y="1084">CHD1</text>
  <rect height="11" style="fill:rgb(255,255,255);stroke:none;" width="38" x="400" y="1087"/>
  <text style="fill:rgb(128,128,128);stroke:none;font-size:11px;" x="400" y="1098">CDCA4</text>
</svg>
