<?xml version="1.0" encoding="UTF-8" standalone="no"?>
<!DOCTYPE svg PUBLIC "-//W3C//DTD SVG 1.1//EN" "http://www.w3.org/Graphics/SVG/1.1/DTD/svg11.dtd">
<svg xmlns:xlink="http://www.w3.org/1999/xlink" height="158.74999999999997mm" version="1.1" viewBox="0 0 500 600" width="132.29166666666666mm" x="0mm" y="0mm" xmlns="http://www.w3.org/2000/svg">
  <rect height="1200" style="fill:rgb(255,255,255);stroke:none;" width="1000" x="0" y="0"/>
  <rect height="240" style="fill:rgb(191,191,191);fill-opacity:0.4980392156862745;stroke:none;" width="175" x="225" y="60"/>
  <line style="fill:none;stroke:rgb(63,63,191);stroke-opacity:0.24705882352941178;stroke-miterlimit:10;stroke-linecap:square;" x1="50" x2="50" y1="300" y2="300"/>
  <line style="fill:none;stroke:rgb(63,63,191);stroke-opacity:0.24705882352941178;stroke-miterlimit:10;stroke-linecap:square;" x1="50" x2="64" y1="300" y2="290"/>
  <line style="fill:none;stroke:rgb(63,63,191);stroke-opacity:0.24705882352941178;stroke-miterlimit:10;stroke-linecap:square;" x1="64" x2="79" y1="290" y2="280"/>
  <line style="fill:none;stroke:rgb(63,63,191);stroke-opacity:0.24705882352941178;stroke-miterlimit:10;stroke-linecap:square;" x1="79" x2="93" y1="280" y2="270"/>
  <line style="fill:none;stroke:rgb(63,63,191);stroke-opacity:0.24705882352941178;stroke-miterlimit:10;stroke-linecap:square;" x1="93" x2="108" y1="270" y2="260"/>
  <line style="fill:none;stroke:rgb(63,63,191);stroke-opacity:0.24705882352941178;stroke-miterlimit:10;stroke-linecap:square;" x1="108" x2="122" y1="260" y2="250"/>
  <line style="fill:none;stroke:rgb(63,63,191);stroke-opacity:0.24705882352941178;stroke-miterlimit:10;stroke-linecap:square;" x1="122" x2="137" y1="250" y2="240"/>
  <line style="fill:none;stroke:rgb(63,63,191);stroke-opacity:0.24705882352941178;stroke-miterlimit:10;stroke-linecap:square;" x1="137" x2="152" y1="240" y2="230"/>
  <line style="fill:none;stroke:rgb(63,63,191);stroke-opacity:0.24705882352941178;stroke-miterlimit:10;stroke-linecap:square;" x1="152" x2="166" y1="230" y2="220"/>
  <line style="fill:none;stroke:rgb(63,63,191);stroke-opacity:0.24705882352941178;stroke-miterlimit:10;stroke-linecap:square;" x1="166" x2="181" y1="220" y2="210"/>
  <line style="fill:none;stroke:rgb(63,63,191);stroke-opacity:0.24705882352941178;stroke-miterlimit:10;stroke-linecap:square;" x1="181" x2="195" y1="210" y2="200"/>
  <line style="fill:none;stroke:rgb(63,63,191);stroke-opacity:0.24705882352941178;stroke-miterlimit:10;stroke-linecap:square;" x1="195" x2="210" y1="200" y2="190"/>
  <line style="fill:none;stroke:rgb(63,63,191);stroke-opacity:0.24705882352941178;stroke-miterlimit:10;stroke-linecap:square;" x1="210" x2="225" y1="190" y2="180"/>
  <line style="fill:none;stroke:rgb(63,63,191);stroke-opacity:0.24705882352941178;stroke-miterlimit:10;stroke-linecap:square;" x1="225" x2="239" y1="180" y2="170"/>
  <line style="fill:none;stroke:rgb(63,63,191);stroke-opacity:0.24705882352941178;stroke-miterlimit:10;stroke-linecap:square;" x1="239" x2="254" y1="170" y2="160"/>
  <line style="fill:none;stroke:rgb(63,63,191);stroke-opacity:0.24705882352941178;stroke-miterlimit:10;stroke-linecap:square;" x1="254" x2="268" y1="160" y2="150"/>
  <line style="fill:none;stroke:rgb(63,63,191);stroke-opacity:0.24705882352941178;stroke-miterlimit:10;stroke-linecap:square;" x1="268" x2="283" y1="150" y2="140"/>
  <line style="fill:none;stroke:rgb(63,63,191);stroke-opacity:0.24705882352941178;stroke-miterlimit:10;stroke-linecap:square;" x1="283" x2="297" y1="140" y2="130"/>
  <line style="fill:none;stroke:rgb(63,63,191);stroke-opacity:0.24705882352941178;stroke-miterlimit:10;stroke-linecap:square;" x1="297" x2="312" y1="130" y2="120"/>
  <line style="fill:none;stroke:rgb(63,63,191);stroke-opacity:0.24705882352941178;stroke-miterlimit:10;stroke-linecap:square;" x1="312" x2="327" y1="120" y2="110"/>
  <line style="fill:none;stroke:rgb(63,63,191);stroke-opacity:0.24705882352941178;stroke-miterlimit:10;stroke-linecap:square;" x1="327" x2="341" y1="110" y2="100"/>
  <line style="fill:none;stroke:rgb(63,63,191);stroke-opacity:0.24705882352941178;stroke-miterlimit:10;stroke-linecap:square;" x1="341" x2="356" y1="100" y2="90"/>
  <line style="fill:none;stroke:rgb(63,63,191);stroke-opacity:0.24705882352941178;stroke-miterlimit:10;stroke-linecap:square;" x1="356" x2="370" y1="90" y2="80"/>
  <line style="fill:none;stroke:rgb(63,63,191);stroke-opacity:0.24705882352941178;stroke-miterlimit:10;stroke-linecap:square;" x1="370" x2="385" y1="80" y2="70"/>
  <line style="fill:none;stroke:rgb(63,63,191);stroke-opacity:0.24705882352941178;stroke-miterlimit:10;stroke-linecap:square;" x1="385" x2="400" y1="70" y2="60"/>
  <line style="fill:none;stroke:rgb(63,63,191);stroke-opacity:0.24705882352941178;stroke-miterlimit:10;stroke-linecap:square;" x1="400" x2="400" y1="60" y2="60"/>
  <rect height="10" style="fill:rgb(255,127,0);fill-opacity:0.7490196078431373;stroke:none;" width="4" x="62" y="289"/>
  <line style="fill:none;stroke:rgb(255,127,0);stroke-opacity:0.24705882352941178;stroke-width:2;stroke-miterlimit:10;stroke-linecap:square;" x1="50" x2="64" y1="300" y2="300"/>
  <line style="fill:none;stroke:rgb(255,127,0);stroke-opacity:0.24705882352941178;stroke-width:2;stroke-miterlimit:10;stroke-linecap:square;" x1="64" x2="64" y1="298" y2="291"/>
  <rect height="10" style="fill:rgb(255,127,0);fill-opacity:0.7490196078431373;stroke:none;" width="4" x="77" y="289"/>
  <line style="fill:none;stroke:rgb(255,127,0);stroke-opacity:0.24705882352941178;stroke-width:2;stroke-miterlimit:10;stroke-linecap:square;" x1="64" x2="79" y1="289" y2="289"/>
  <line style="fill:none;stroke:rgb(255,127,0);stroke-opacity:0.24705882352941178;stroke-width:2;stroke-miterlimit:10;stroke-linecap:square;" x1="79" x2="79" y1="287" y2="281"/>
  <rect height="6" style="fill:rgb(255,127,0);fill-opacity:0.7490196078431373;stroke:none;" width="4" x="91" y="293"/>
  <line style="fill:none;stroke:rgb(255,127,0);stroke-opacity:0.24705882352941178;stroke-width:2;stroke-miterlimit:10;stroke-linecap:square;" x1="79" x2="93" y1="279" y2="279"/>
  <line style="fill:none;stroke:rgb(255,127,0);stroke-opacity:0.24705882352941178;stroke-width:2;stroke-miterlimit:10;stroke-linecap:square;" x1="93" x2="93" y1="277" y2="274"/>
  <rect height="6" style="fill:rgb(255,127,0);fill-opacity:0.7490196078431373;stroke:none;" width="4" x="106" y="293"/>
  <line style="fill:none;stroke:rgb(255,127,0);stroke-opacity:0.24705882352941178;stroke-width:2;stroke-miterlimit:10;stroke-linecap:square;" x1="93" x2="108" y1="272" y2="272"/>
  <line style="fill:none;stroke:rgb(255,127,0);stroke-opacity:0.24705882352941178;stroke-width:2;stroke-miterlimit:10;stroke-linecap:square;" x1="108" x2="108" y1="270" y2="267"/>
  <rect height="3" style="fill:rgb(255,127,0);fill-opacity:0.7490196078431373;stroke:none;" width="4" x="120" y="296"/>
  <line style="fill:none;stroke:rgb(255,127,0);stroke-opacity:0.24705882352941178;stroke-width:2;stroke-miterlimit:10;stroke-linecap:square;" x1="108" x2="122" y1="265" y2="265"/>
  <line style="fill:none;stroke:rgb(255,127,0);stroke-opacity:0.24705882352941178;stroke-width:2;stroke-miterlimit:10;stroke-linecap:square;" x1="122" x2="122" y1="263" y2="263"/>
  <rect height="3" style="fill:rgb(255,127,0);fill-opacity:0.7490196078431373;stroke:none;" width="4" x="135" y="296"/>
  <line style="fill:none;stroke:rgb(255,127,0);stroke-opacity:0.24705882352941178;stroke-width:2;stroke-miterlimit:10;stroke-linecap:square;" x1="122" x2="137" y1="261" y2="261"/>
  <line style="fill:none;stroke:rgb(255,127,0);stroke-opacity:0.24705882352941178;stroke-width:2;stroke-miterlimit:10;stroke-linecap:square;" x1="137" x2="137" y1="259" y2="260"/>
  <rect height="13" style="fill:rgb(255,127,0);fill-opacity:0.7490196078431373;stroke:none;" width="4" x="164" y="286"/>
  <line style="fill:none;stroke:rgb(255,127,0);stroke-opacity:0.24705882352941178;stroke-width:2;stroke-miterlimit:10;stroke-linecap:square;" x1="137" x2="166" y1="258" y2="258"/>
  <line style="fill:none;stroke:rgb(255,127,0);stroke-opacity:0.24705882352941178;stroke-width:2;stroke-miterlimit:10;stroke-linecap:square;" x1="166" x2="166" y1="256" y2="246"/>
  <rect height="3" style="fill:rgb(255,127,0);fill-opacity:0.7490196078431373;stroke:none;" width="4" x="193" y="296"/>
  <line style="fill:none;stroke:rgb(255,127,0);stroke-opacity:0.24705882352941178;stroke-width:2;stroke-miterlimit:10;stroke-linecap:square;" x1="166" x2="195" y1="244" y2="244"/>
  <line style="fill:none;stroke:rgb(255,127,0);stroke-opacity:0.24705882352941178;stroke-width:2;stroke-miterlimit:10;stroke-linecap:square;" x1="195" x2="195" y1="242" y2="242"/>
  <rect height="10" style="fill:rgb(255,127,0);fill-opacity:0.7490196078431373;stroke:none;" width="4" x="208" y="289"/>
  <line style="fill:none;stroke:rgb(255,127,0);stroke-opacity:0.24705882352941178;stroke-width:2;stroke-miterlimit:10;stroke-linecap:square;" x1="195" x2="210" y1="240" y2="240"/>
  <line style="fill:none;stroke:rgb(255,127,0);stroke-opacity:0.24705882352941178;stroke-width:2;stroke-miterlimit:10;stroke-linecap:square;" x1="210" x2="210" y1="238" y2="232"/>
  <rect height="17" style="fill:rgb(255,127,0);fill-opacity:0.7490196078431373;stroke:none;" width="4" x="223" y="282"/>
  <line style="fill:none;stroke:rgb(255,127,0);stroke-opacity:0.24705882352941178;stroke-width:2;stroke-miterlimit:10;stroke-linecap:square;" x1="210" x2="225" y1="230" y2="230"/>
  <line style="fill:none;stroke:rgb(255,127,0);stroke-opacity:0.24705882352941178;stroke-width:2;stroke-miterlimit:10;stroke-linecap:square;" x1="225" x2="225" y1="228" y2="215"/>
  <rect height="31" style="fill:rgb(255,127,0);fill-opacity:0.7490196078431373;stroke:none;" width="4" x="237" y="268"/>
  <line style="fill:none;stroke:rgb(255,127,0);stroke-opacity:0.24705882352941178;stroke-width:2;stroke-miterlimit:10;stroke-linecap:square;" x1="225" x2="239" y1="213" y2="213"/>
  <line style="fill:none;stroke:rgb(255,127,0);stroke-opacity:0.24705882352941178;stroke-width:2;stroke-miterlimit:10;stroke-linecap:square;" x1="239" x2="239" y1="211" y2="183"/>
  <rect height="41" style="fill:rgb(255,127,0);fill-opacity:0.7490196078431373;stroke:none;" width="4" x="252" y="258"/>
  <line style="fill:none;stroke:rgb(255,127,0);stroke-opacity:0.24705882352941178;stroke-width:2;stroke-miterlimit:10;stroke-linecap:square;" x1="239" x2="254" y1="181" y2="181"/>
  <line style="fill:none;stroke:rgb(255,127,0);stroke-opacity:0.24705882352941178;stroke-width:2;stroke-miterlimit:10;stroke-linecap:square;" x1="254" x2="254" y1="179" y2="141"/>
  <rect height="27" style="fill:rgb(255,127,0);fill-opacity:0.7490196078431373;stroke:none;" width="4" x="266" y="272"/>
  <line style="fill:none;stroke:rgb(255,127,0);stroke-opacity:0.24705882352941178;stroke-width:2;stroke-miterlimit:10;stroke-linecap:square;" x1="254" x2="268" y1="139" y2="139"/>
  <line style="fill:none;stroke:rgb(255,127,0);stroke-opacity:0.24705882352941178;stroke-width:2;stroke-miterlimit:10;stroke-linecap:square;" x1="268" x2="268" y1="137" y2="114"/>
  <rect height="10" style="fill:rgb(255,127,0);fill-opacity:0.7490196078431373;stroke:none;" width="4" x="281" y="289"/>
  <line style="fill:none;stroke:rgb(255,127,0);stroke-opacity:0.24705882352941178;stroke-width:2;stroke-miterlimit:10;stroke-linecap:square;" x1="268" x2="283" y1="112" y2="112"/>
  <line style="fill:none;stroke:rgb(255,127,0);stroke-opacity:0.24705882352941178;stroke-width:2;stroke-miterlimit:10;stroke-linecap:square;" x1="283" x2="283" y1="110" y2="103"/>
  <rect height="10" style="fill:rgb(255,127,0);fill-opacity:0.7490196078431373;stroke:none;" width="4" x="295" y="289"/>
  <line style="fill:none;stroke:rgb(255,127,0);stroke-opacity:0.24705882352941178;stroke-width:2;stroke-miterlimit:10;stroke-linecap:square;" x1="283" x2="297" y1="101" y2="101"/>
  <line style="fill:none;stroke:rgb(255,127,0);stroke-opacity:0.24705882352941178;stroke-width:2;stroke-miterlimit:10;stroke-linecap:square;" x1="297" x2="297" y1="99" y2="93"/>
  <rect height="6" style="fill:rgb(255,127,0);fill-opacity:0.7490196078431373;stroke:none;" width="4" x="339" y="293"/>
  <line style="fill:none;stroke:rgb(255,127,0);stroke-opacity:0.24705882352941178;stroke-width:2;stroke-miterlimit:10;stroke-linecap:square;" x1="297" x2="341" y1="91" y2="91"/>
  <line style="fill:none;stroke:rgb(255,127,0);stroke-opacity:0.24705882352941178;stroke-width:2;stroke-miterlimit:10;stroke-linecap:square;" x1="341" x2="341" y1="89" y2="86"/>
  <rect height="6" style="fill:rgb(255,127,0);fill-opacity:0.7490196078431373;stroke:none;" width="4" x="354" y="293"/>
  <line style="fill:none;stroke:rgb(255,127,0);stroke-opacity:0.24705882352941178;stroke-width:2;stroke-miterlimit:10;stroke-linecap:square;" x1="341" x2="356" y1="84" y2="84"/>
  <line style="fill:none;stroke:rgb(255,127,0);stroke-opacity:0.24705882352941178;stroke-width:2;stroke-miterlimit:10;stroke-linecap:square;" x1="356" x2="356" y1="82" y2="79"/>
  <rect height="6" style="fill:rgb(255,127,0);fill-opacity:0.7490196078431373;stroke:none;" width="4" x="368" y="293"/>
  <line style="fill:none;stroke:rgb(255,127,0);stroke-opacity:0.24705882352941178;stroke-width:2;stroke-miterlimit:10;stroke-linecap:square;" x1="356" x2="370" y1="77" y2="77"/>
  <line style="fill:none;stroke:rgb(255,127,0);stroke-opacity:0.24705882352941178;stroke-width:2;stroke-miterlimit:10;stroke-linecap:square;" x1="370" x2="370" y1="75" y2="72"/>
  <rect height="6" style="fill:rgb(255,127,0);fill-opacity:0.7490196078431373;stroke:none;" width="4" x="383" y="293"/>
  <line style="fill:none;stroke:rgb(255,127,0);stroke-opacity:0.24705882352941178;stroke-width:2;stroke-miterlimit:10;stroke-linecap:square;" x1="370" x2="385" y1="70" y2="70"/>
  <line style="fill:none;stroke:rgb(255,127,0);stroke-opacity:0.24705882352941178;stroke-width:2;stroke-miterlimit:10;stroke-linecap:square;" x1="385" x2="385" y1="68" y2="65"/>
  <rect height="3" style="fill:rgb(255,127,0);fill-opacity:0.7490196078431373;stroke:none;" width="4" x="398" y="296"/>
  <line style="fill:none;stroke:rgb(255,127,0);stroke-opacity:0.24705882352941178;stroke-width:2;stroke-miterlimit:10;stroke-linecap:square;" x1="385" x2="400" y1="63" y2="63"/>
  <line style="fill:none;stroke:rgb(255,127,0);stroke-opacity:0.24705882352941178;stroke-width:2;stroke-miterlimit:10;stroke-linecap:square;" x1="400" x2="400" y1="61" y2="62"/>
  <line style="fill:none;stroke:rgb(255,127,0);stroke-opacity:0.24705882352941178;stroke-width:2;stroke-miterlimit:10;stroke-linecap:square;" x1="400" x2="400" y1="60" y2="60"/>
  <line style="fill:none;stroke:rgb(255,127,0);stroke-opacity:0.4980392156862745;stroke-miterlimit:2;stroke-dasharray:2;" x1="64" x2="64" y1="300" y2="350"/>
  <line style="fill:none;stroke:rgb(255,127,0);stroke-opacity:0.4980392156862745;stroke-miterlimit:2;stroke-dasharray:2;" x1="64" x2="64" y1="300" y2="363"/>
  <line style="fill:none;stroke:rgb(255,127,0);stroke-opacity:0.4980392156862745;stroke-miterlimit:2;stroke-dasharray:2;" x1="64" x2="64" y1="300" y2="376"/>
  <line style="fill:none;stroke:rgb(255,127,0);stroke-opacity:0.4980392156862745;stroke-miterlimit:2;stroke-dasharray:2;" x1="79" x2="79" y1="300" y2="389"/>
  <line style="fill:none;stroke:rgb(255,127,0);stroke-opacity:0.4980392156862745;stroke-miterlimit:2;stroke-dasharray:2;" x1="79" x2="79" y1="300" y2="402"/>
  <line style="fill:none;stroke:rgb(255,127,0);stroke-opacity:0.4980392156862745;stroke-miterlimit:2;stroke-dasharray:2;" x1="79" x2="79" y1="300" y2="415"/>
  <line style="fill:none;stroke:rgb(255,127,0);stroke-opacity:0.4980392156862745;stroke-miterlimit:2;stroke-dasharray:2;" x1="93" x2="93" y1="300" y2="428"/>
  <line style="fill:none;stroke:rgb(255,127,0);stroke-opacity:0.4980392156862745;stroke-miterlimit:2;stroke-dasharray:2;" x1="93" x2="93" y1="300" y2="441"/>
  <line style="fill:none;stroke:rgb(255,127,0);stroke-opacity:0.4980392156862745;stroke-miterlimit:2;stroke-dasharray:2;" x1="108" x2="108" y1="300" y2="454"/>
  <line style="fill:none;stroke:rgb(255,127,0);stroke-opacity:0.4980392156862745;stroke-miterlimit:2;stroke-dasharray:2;" x1="108" x2="108" y1="300" y2="467"/>
  <line style="fill:none;stroke:rgb(255,127,0);stroke-opacity:0.4980392156862745;stroke-miterlimit:2;stroke-dasharray:2;" x1="122" x2="122" y1="300" y2="480"/>
  <line style="fill:none;stroke:rgb(255,127,0);stroke-opacity:0.4980392156862745;stroke-miterlimit:2;stroke-dasharray:2;" x1="137" x2="137" y1="300" y2="493"/>
  <line style="fill:none;stroke:rgb(255,127,0);stroke-opacity:0.4980392156862745;stroke-miterlimit:2;stroke-dasharray:2;" x1="166" x2="166" y1="300" y2="506"/>
  <line style="fill:none;stroke:rgb(255,127,0);stroke-opacity:0.4980392156862745;stroke-miterlimit:2;stroke-dasharray:2;" x1="166" x2="166" y1="300" y2="519"/>
  <line style="fill:none;stroke:rgb(255,127,0);stroke-opacity:0.4980392156862745;stroke-miterlimit:2;stroke-dasharray:2;" x1="166" x2="166" y1="300" y2="532"/>
  <line style="fill:none;stroke:rgb(255,127,0);stroke-opacity:0.4980392156862745;stroke-miterlimit:2;stroke-dasharray:2;" x1="166" x2="166" y1="300" y2="545"/>
  <line style="fill:none;stroke:rgb(255,127,0);stroke-opacity:0.4980392156862745;stroke-miterlimit:2;stroke-dasharray:2;" x1="195" x2="195" y1="300" y2="558"/>
  <line style="fill:none;stroke:rgb(255,127,0);stroke-opacity:0.4980392156862745;stroke-miterlimit:2;stroke-dasharray:2;" x1="210" x2="210" y1="300" y2="572"/>
  <line style="fill:none;stroke:rgb(255,127,0);stroke-opacity:0.4980392156862745;stroke-miterlimit:2;stroke-dasharray:2;" x1="210" x2="210" y1="300" y2="586"/>
  <line style="fill:none;stroke:rgb(255,127,0);stroke-opacity:0.4980392156862745;stroke-miterlimit:2;stroke-dasharray:2;" x1="210" x2="210" y1="300" y2="600"/>
  <line style="fill:none;stroke:rgb(255,127,0);stroke-opacity:0.4980392156862745;stroke-miterlimit:2;stroke-dasharray:2;" x1="225" x2="225" y1="300" y2="615"/>
  <line style="fill:none;stroke:rgb(255,127,0);stroke-opacity:0.4980392156862745;stroke-miterlimit:2;stroke-dasharray:2;" x1="225" x2="225" y1="300" y2="630"/>
  <line style="fill:none;stroke:rgb(255,127,0);stroke-opacity:0.4980392156862745;stroke-miterlimit:2;stroke-dasharray:2;" x1="225" x2="225" y1="300" y2="645"/>
  <line style="fill:none;stroke:rgb(255,127,0);stroke-opacity:0.4980392156862745;stroke-miterlimit:2;stroke-dasharray:2;" x1="225" x2="225" y1="300" y2="660"/>
  <line style="fill:none;stroke:rgb(255,127,0);stroke-opacity:0.4980392156862745;stroke-miterlimit:2;stroke-dasharray:2;" x1="225" x2="225" y1="300" y2="675"/>
  <line style="fill:none;stroke:rgb(255,127,0);stroke-opacity:0.4980392156862745;stroke-miterlimit:2;stroke-dasharray:2;" x1="239" x2="239" y1="300" y2="690"/>
  <line style="fill:none;stroke:rgb(255,127,0);stroke-opacity:0.4980392156862745;stroke-miterlimit:2;stroke-dasharray:2;" x1="239" x2="239" y1="300" y2="705"/>
  <line style="fill:none;stroke:rgb(255,127,0);stroke-opacity:0.4980392156862745;stroke-miterlimit:2;stroke-dasharray:2;" x1="239" x2="239" y1="300" y2="720"/>
  <line style="fill:none;stroke:rgb(255,127,0);stroke-opacity:0.4980392156862745;stroke-miterlimit:2;stroke-dasharray:2;" x1="239" x2="239" y1="300" y2="735"/>
  <line style="fill:none;stroke:rgb(255,127,0);stroke-opacity:0.4980392156862745;stroke-miterlimit:2;stroke-dasharray:2;" x1="239" x2="239" y1="300" y2="750"/>
  <line style="fill:none;stroke:rgb(255,127,0);stroke-opacity:0.4980392156862745;stroke-miterlimit:2;stroke-dasharray:2;" x1="239" x2="239" y1="300" y2="765"/>
  <line style="fill:none;stroke:rgb(255,127,0);stroke-opacity:0.4980392156862745;stroke-miterlimit:2;stroke-dasharray:2;" x1="239" x2="239" y1="300" y2="780"/>
  <line style="fill:none;stroke:rgb(255,127,0);stroke-opacity:0.4980392156862745;stroke-miterlimit:2;stroke-dasharray:2;" x1="239" x2="239" y1="300" y2="795"/>
  <line style="fill:none;stroke:rgb(255,127,0);stroke-opacity:0.4980392156862745;stroke-miterlimit:2;stroke-dasharray:2;" x1="239" x2="239" y1="300" y2="810"/>
  <line style="fill:none;stroke:rgb(255,127,0);stroke-opacity:0.4980392156862745;stroke-miterlimit:2;stroke-dasharray:2;" x1="254" x2="254" y1="300" y2="825"/>
  <line style="fill:none;stroke:rgb(255,127,0);stroke-opacity:0.4980392156862745;stroke-miterlimit:2;stroke-dasharray:2;" x1="254" x2="254" y1="300" y2="840"/>
  <line style="fill:none;stroke:rgb(255,127,0);stroke-opacity:0.4980392156862745;stroke-miterlimit:2;stroke-dasharray:2;" x1="254" x2="254" y1="300" y2="855"/>
  <line style="fill:none;stroke:rgb(255,127,0);stroke-opacity:0.4980392156862745;stroke-miterlimit:2;stroke-dasharray:2;" x1="254" x2="254" y1="300" y2="870"/>
  <line style="fill:none;stroke:rgb(255,127,0);stroke-opacity:0.4980392156862745;stroke-miterlimit:2;stroke-dasharray:2;" x1="254" x2="254" y1="300" y2="885"/>
  <line style="fill:none;stroke:rgb(255,127,0);stroke-opacity:0.4980392156862745;stroke-miterlimit:2;stroke-dasharray:2;" x1="254" x2="254" y1="300" y2="900"/>
  <line style="fill:none;stroke:rgb(255,127,0);stroke-opacity:0.4980392156862745;stroke-miterlimit:2;stroke-dasharray:2;" x1="254" x2="254" y1="300" y2="915"/>
  <line style="fill:none;stroke:rgb(255,127,0);stroke-opacity:0.4980392156862745;stroke-miterlimit:2;stroke-dasharray:2;" x1="254" x2="254" y1="300" y2="930"/>
  <line style="fill:none;stroke:rgb(255,127,0);stroke-opacity:0.4980392156862745;stroke-miterlimit:2;stroke-dasharray:2;" x1="254" x2="254" y1="300" y2="945"/>
  <line style="fill:none;stroke:rgb(255,127,0);stroke-opacity:0.4980392156862745;stroke-miterlimit:2;stroke-dasharray:2;" x1="254" x2="254" y1="300" y2="960"/>
  <line style="fill:none;stroke:rgb(255,127,0);stroke-opacity:0.4980392156862745;stroke-miterlimit:2;stroke-dasharray:2;" x1="254" x2="254" y1="300" y2="975"/>
  <line style="fill:none;stroke:rgb(255,127,0);stroke-opacity:0.4980392156862745;stroke-miterlimit:2;stroke-dasharray:2;" x1="254" x2="254" y1="300" y2="990"/>
  <line style="fill:none;stroke:rgb(255,127,0);stroke-opacity:0.4980392156862745;stroke-miterlimit:2;stroke-dasharray:2;" x1="268" x2="268" y1="300" y2="1005"/>
  <line style="fill:none;stroke:rgb(255,127,0);stroke-opacity:0.4980392156862745;stroke-miterlimit:2;stroke-dasharray:2;" x1="268" x2="268" y1="300" y2="1020"/>
  <line style="fill:none;stroke:rgb(255,127,0);stroke-opacity:0.4980392156862745;stroke-miterlimit:2;stroke-dasharray:2;" x1="268" x2="268" y1="300" y2="1035"/>
  <line style="fill:none;stroke:rgb(255,127,0);stroke-opacity:0.4980392156862745;stroke-miterlimit:2;stroke-dasharray:2;" x1="268" x2="268" y1="300" y2="1050"/>
  <line style="fill:none;stroke:rgb(255,127,0);stroke-opacity:0.4980392156862745;stroke-miterlimit:2;stroke-dasharray:2;" x1="268" x2="268" y1="300" y2="1065"/>
  <line style="fill:none;stroke:rgb(255,127,0);stroke-opacity:0.4980392156862745;stroke-miterlimit:2;stroke-dasharray:2;" x1="268" x2="268" y1="300" y2="1080"/>
  <line style="fill:none;stroke:rgb(255,127,0);stroke-opacity:0.4980392156862745;stroke-miterlimit:2;stroke-dasharray:2;" x1="268" x2="268" y1="300" y2="1095"/>
  <line style="fill:none;stroke:rgb(255,127,0);stroke-opacity:0.4980392156862745;stroke-miterlimit:2;stroke-dasharray:2;" x1="268" x2="268" y1="300" y2="1110"/>
  <line style="fill:none;stroke:rgb(255,127,0);stroke-opacity:0.4980392156862745;stroke-miterlimit:2;stroke-dasharray:2;" x1="283" x2="283" y1="300" y2="1124"/>
  <line style="fill:none;stroke:rgb(255,127,0);stroke-opacity:0.4980392156862745;stroke-miterlimit:2;stroke-dasharray:2;" x1="283" x2="283" y1="300" y2="1138"/>
  <line style="fill:none;stroke:rgb(255,127,0);stroke-opacity:0.4980392156862745;stroke-miterlimit:2;stroke-dasharray:2;" x1="283" x2="283" y1="300" y2="1152"/>
  <line style="fill:none;stroke:rgb(255,127,0);stroke-opacity:0.4980392156862745;stroke-miterlimit:2;stroke-dasharray:2;" x1="297" x2="297" y1="300" y2="1166"/>
  <line style="fill:none;stroke:rgb(255,127,0);stroke-opacity:0.4980392156862745;stroke-miterlimit:2;stroke-dasharray:2;" x1="297" x2="297" y1="300" y2="1180"/>
  <line style="fill:none;stroke:rgb(255,127,0);stroke-opacity:0.4980392156862745;stroke-miterlimit:2;stroke-dasharray:2;" x1="297" x2="297" y1="300" y2="1194"/>
  <line style="fill:none;stroke:rgb(255,127,0);stroke-opacity:0.4980392156862745;stroke-miterlimit:2;stroke-dasharray:2;" x1="341" x2="341" y1="300" y2="1207"/>
  <line style="fill:none;stroke:rgb(255,127,0);stroke-opacity:0.4980392156862745;stroke-miterlimit:2;stroke-dasharray:2;" x1="341" x2="341" y1="300" y2="1220"/>
  <line style="fill:none;stroke:rgb(255,127,0);stroke-opacity:0.4980392156862745;stroke-miterlimit:2;stroke-dasharray:2;" x1="356" x2="356" y1="300" y2="1233"/>
  <line style="fill:none;stroke:rgb(255,127,0);stroke-opacity:0.4980392156862745;stroke-miterlimit:2;stroke-dasharray:2;" x1="356" x2="356" y1="300" y2="1246"/>
  <line style="fill:none;stroke:rgb(255,127,0);stroke-opacity:0.4980392156862745;stroke-miterlimit:2;stroke-dasharray:2;" x1="370" x2="370" y1="300" y2="1259"/>
  <line style="fill:none;stroke:rgb(255,127,0);stroke-opacity:0.4980392156862745;stroke-miterlimit:2;stroke-dasharray:2;" x1="370" x2="370" y1="300" y2="1272"/>
  <line style="fill:none;stroke:rgb(255,127,0);stroke-opacity:0.4980392156862745;stroke-miterlimit:2;stroke-dasharray:2;" x1="385" x2="385" y1="300" y2="1285"/>
  <line style="fill:none;stroke:rgb(255,127,0);stroke-opacity:0.4980392156862745;stroke-miterlimit:2;stroke-dasharray:2;" x1="385" x2="385" y1="300" y2="1298"/>
  <line style="fill:none;stroke:rgb(255,127,0);stroke-opacity:0.4980392156862745;stroke-miterlimit:2;stroke-dasharray:2;" x1="400" x2="400" y1="300" y2="1311"/>
  <line style="fill:none;stroke:rgb(0,0,0);stroke-width:2;stroke-miterlimit:10;stroke-linecap:square;" x1="48" x2="48" y1="60" y2="300"/>
  <line style="fill:none;stroke:rgb(0,0,0);stroke-width:2;stroke-miterlimit:10;stroke-linecap:square;" x1="48" x2="402" y1="300" y2="300"/>
  <rect height="30" style="fill:rgb(255,255,255);stroke:none;" width="17" x="42" y="308"/>
  <text style="fill:rgb(0,0,0);stroke:none;font-size:25px;font-weight:bold;" x="42" y="332">0</text>
  <rect height="30" style="fill:rgb(255,255,255);stroke:none;" width="34" x="383" y="308"/>
  <text style="fill:rgb(0,0,0);stroke:none;font-size:25px;font-weight:bold;" x="383" y="332">24</text>
  <text style="fill:rgb(0,0,0);stroke:none;font-size:25px;font-weight:bold;" x="25" y="312">0</text>
  <text style="fill:rgb(0,0,0);stroke:none;font-size:25px;font-weight:bold;" x="25" y="72">1</text>
  <text style="fill:rgb(0,0,0);stroke:none;font-size:17px;font-weight:bold;" x="10" y="38">GOBP_DEFENSE_RESPONSE_TO_OTHER_ORGANISM</text>
  <rect height="10" style="fill:rgb(255,255,255);stroke:none;" width="21" x="64" y="340"/>
  <text style="fill:rgb(128,128,128);stroke:none;font-size:10px;" x="64" y="350">C1S</text>
  <rect height="10" style="fill:rgb(255,255,255);stroke:none;" width="35" x="64" y="353"/>
  <text style="fill:rgb(128,128,128);stroke:none;font-size:10px;" x="64" y="363">GPER1</text>
  <rect height="10" style="fill:rgb(255,255,255);stroke:none;" width="42" x="64" y="366"/>
  <text style="fill:rgb(128,128,128);stroke:none;font-size:10px;" x="64" y="376">CLEC7A</text>
  <rect height="10" style="fill:rgb(255,255,255);stroke:none;" width="28" x="79" y="379"/>
  <text style="fill:rgb(128,128,128);stroke:none;font-size:10px;" x="79" y="389">PRG2</text>
  <rect height="10" style="fill:rgb(255,255,255);stroke:none;" width="24" x="79" y="392"/>
  <text style="fill:rgb(128,128,128);stroke:none;font-size:10px;" x="79" y="402">ITCH</text>
  <rect height="10" style="fill:rgb(255,255,255);stroke:none;" width="30" x="79" y="405"/>
  <text style="fill:rgb(128,128,128);stroke:none;font-size:10px;" x="79" y="415">C1QC</text>
  <rect height="10" style="fill:rgb(255,255,255);stroke:none;" width="27" x="93" y="418"/>
  <text style="fill:rgb(128,128,128);stroke:none;font-size:10px;" x="93" y="428">MT2A</text>
  <rect height="10" style="fill:rgb(255,255,255);stroke:none;" width="30" x="93" y="431"/>
  <text style="fill:rgb(128,128,128);stroke:none;font-size:10px;" x="93" y="441">DDIT4</text>
  <rect height="10" style="fill:rgb(255,255,255);stroke:none;" width="37" x="108" y="444"/>
  <text style="fill:rgb(128,128,128);stroke:none;font-size:10px;" x="108" y="454">BNIP3L</text>
  <rect height="10" style="fill:rgb(255,255,255);stroke:none;" width="50" x="108" y="457"/>
  <text style="fill:rgb(128,128,128);stroke:none;font-size:10px;" x="108" y="467">ZDHHC11</text>
  <rect height="10" style="fill:rgb(255,255,255);stroke:none;" width="38" x="122" y="470"/>
  <text style="fill:rgb(128,128,128);stroke:none;font-size:10px;" x="122" y="480">S100A7</text>
  <rect height="10" style="fill:rgb(255,255,255);stroke:none;" width="38" x="137" y="483"/>
  <text style="fill:rgb(128,128,128);stroke:none;font-size:10px;" x="137" y="493">S100A9</text>
  <rect height="10" style="fill:rgb(255,255,255);stroke:none;" width="22" x="166" y="496"/>
  <text style="fill:rgb(128,128,128);stroke:none;font-size:10px;" x="166" y="506">IL4R</text>
  <rect height="10" style="fill:rgb(255,255,255);stroke:none;" width="28" x="166" y="509"/>
  <text style="fill:rgb(128,128,128);stroke:none;font-size:10px;" x="166" y="519">EGR1</text>
  <rect height="10" style="fill:rgb(255,255,255);stroke:none;" width="27" x="166" y="522"/>
  <text style="fill:rgb(128,128,128);stroke:none;font-size:10px;" x="166" y="532">BCL3</text>
  <rect height="10" style="fill:rgb(255,255,255);stroke:none;" width="32" x="166" y="535"/>
  <text style="fill:rgb(128,128,128);stroke:none;font-size:10px;" x="166" y="545">PTAFR</text>
  <rect height="10" style="fill:rgb(255,255,255);stroke:none;" width="33" x="195" y="548"/>
  <text style="fill:rgb(128,128,128);stroke:none;font-size:10px;" x="195" y="558">LEAP2</text>
  <rect height="11" style="fill:rgb(255,255,255);stroke:none;" width="21" x="210" y="561"/>
  <text style="fill:rgb(128,128,128);stroke:none;font-size:11px;" x="210" y="572">TNF</text>
  <rect height="11" style="fill:rgb(255,255,255);stroke:none;" width="38" x="210" y="575"/>
  <text style="fill:rgb(128,128,128);stroke:none;font-size:11px;" x="210" y="586">MST1R</text>
  <rect height="11" style="fill:rgb(255,255,255);stroke:none;" width="38" x="210" y="589"/>
  <text style="fill:rgb(128,128,128);stroke:none;font-size:11px;" x="210" y="600">IL10RB</text>
  <rect height="12" style="fill:rgb(255,255,255);stroke:none;" width="23" x="225" y="603"/>
  <text style="fill:rgb(128,128,128);stroke:none;" x="225" y="615">FES</text>
  <rect height="12" style="fill:rgb(255,255,255);stroke:none;" width="30" x="225" y="618"/>
  <text style="fill:rgb(128,128,128);stroke:none;" x="225" y="630">CCL2</text>
  <rect height="12" style="fill:rgb(255,255,255);stroke:none;" width="34" x="225" y="633"/>
  <text style="fill:rgb(128,128,128);stroke:none;" x="225" y="645">RIPK3</text>
  <rect height="12" style="fill:rgb(255,255,255);stroke:none;" width="44" x="225" y="648"/>
  <text style="fill:rgb(128,128,128);stroke:none;" x="225" y="660">TRIM68</text>
  <rect height="12" style="fill:rgb(255,255,255);stroke:none;" width="44" x="225" y="663"/>
  <text style="fill:rgb(128,128,128);stroke:none;" x="225" y="675">ARID5A</text>
  <rect height="12" style="fill:rgb(255,255,255);stroke:none;" width="31" x="239" y="678"/>
  <text style="fill:rgb(128,128,128);stroke:none;" x="239" y="690">RTP4</text>
  <rect height="12" style="fill:rgb(255,255,255);stroke:none;" width="26" x="239" y="693"/>
  <text style="fill:rgb(128,128,128);stroke:none;" x="239" y="705">IRF7</text>
  <rect height="12" style="fill:rgb(255,255,255);stroke:none;" width="28" x="239" y="708"/>
  <text style="fill:rgb(128,128,128);stroke:none;" x="239" y="720">NAIP</text>
  <rect height="12" style="fill:rgb(255,255,255);stroke:none;" width="43" x="239" y="723"/>
  <text style="fill:rgb(128,128,128);stroke:none;" x="239" y="735">MPEG1</text>
  <rect height="12" style="fill:rgb(255,255,255);stroke:none;" width="35" x="239" y="738"/>
  <text style="fill:rgb(128,128,128);stroke:none;" x="239" y="750">BIRC3</text>
  <rect height="12" style="fill:rgb(255,255,255);stroke:none;" width="39" x="239" y="753"/>
  <text style="fill:rgb(128,128,128);stroke:none;" x="239" y="765">CSF1R</text>
  <rect height="12" style="fill:rgb(255,255,255);stroke:none;" width="38" x="239" y="768"/>
  <text style="fill:rgb(128,128,128);stroke:none;" x="239" y="780">LCE3B</text>
  <rect height="12" style="fill:rgb(255,255,255);stroke:none;" width="39" x="239" y="783"/>
  <text style="fill:rgb(128,128,128);stroke:none;" x="239" y="795">IL1RL2</text>
  <rect height="12" style="fill:rgb(255,255,255);stroke:none;" width="64" x="239" y="798"/>
  <text style="fill:rgb(128,128,128);stroke:none;" x="239" y="810">TNFAIP8L2</text>
  <rect height="12" style="fill:rgb(255,255,255);stroke:none;" width="30" x="254" y="813"/>
  <text style="fill:rgb(128,128,128);stroke:none;" x="254" y="825">CLPB</text>
  <rect height="12" style="fill:rgb(255,255,255);stroke:none;" width="33" x="254" y="828"/>
  <text style="fill:rgb(128,128,128);stroke:none;" x="254" y="840">ARG2</text>
  <rect height="12" style="fill:rgb(255,255,255);stroke:none;" width="29" x="254" y="843"/>
  <text style="fill:rgb(128,128,128);stroke:none;" x="254" y="855">TLR5</text>
  <rect height="12" style="fill:rgb(255,255,255);stroke:none;" width="40" x="254" y="858"/>
  <text style="fill:rgb(128,128,128);stroke:none;" x="254" y="870">CASP4</text>
  <rect height="12" style="fill:rgb(255,255,255);stroke:none;" width="42" x="254" y="873"/>
  <text style="fill:rgb(128,128,128);stroke:none;" x="254" y="885">RBM14</text>
  <rect height="12" style="fill:rgb(255,255,255);stroke:none;" width="41" x="254" y="888"/>
  <text style="fill:rgb(128,128,128);stroke:none;" x="254" y="900">CD207</text>
  <rect height="12" style="fill:rgb(255,255,255);stroke:none;" width="47" x="254" y="903"/>
  <text style="fill:rgb(128,128,128);stroke:none;" x="254" y="915">RNASEL</text>
  <rect height="12" style="fill:rgb(255,255,255);stroke:none;" width="49" x="254" y="918"/>
  <text style="fill:rgb(128,128,128);stroke:none;" x="254" y="930">RNASE7</text>
  <rect height="12" style="fill:rgb(255,255,255);stroke:none;" width="47" x="254" y="933"/>
  <text style="fill:rgb(128,128,128);stroke:none;" x="254" y="945">SLAMF8</text>
  <rect height="12" style="fill:rgb(255,255,255);stroke:none;" width="48" x="254" y="948"/>
  <text style="fill:rgb(128,128,128);stroke:none;" x="254" y="960">RAB27A</text>
  <rect height="12" style="fill:rgb(255,255,255);stroke:none;" width="47" x="254" y="963"/>
  <text style="fill:rgb(128,128,128);stroke:none;" x="254" y="975">RAET1E</text>
  <rect height="12" style="fill:rgb(255,255,255);stroke:none;" width="54" x="254" y="978"/>
  <text style="fill:rgb(128,128,128);stroke:none;" x="254" y="990">SLC26A6</text>
  <rect height="12" style="fill:rgb(255,255,255);stroke:none;" width="23" x="268" y="993"/>
  <text style="fill:rgb(128,128,128);stroke:none;" x="268" y="1005">ZYX</text>
  <rect height="12" style="fill:rgb(255,255,255);stroke:none;" width="25" x="268" y="1008"/>
  <text style="fill:rgb(128,128,128);stroke:none;" x="268" y="1020">IL33</text>
  <rect height="12" style="fill:rgb(255,255,255);stroke:none;" width="36" x="268" y="1023"/>
  <text style="fill:rgb(128,128,128);stroke:none;" x="268" y="1035">TRIM5</text>
  <rect height="12" style="fill:rgb(255,255,255);stroke:none;" width="39" x="268" y="1038"/>
  <text style="fill:rgb(128,128,128);stroke:none;" x="268" y="1050">TYRO3</text>
  <rect height="12" style="fill:rgb(255,255,255);stroke:none;" width="32" x="268" y="1053"/>
  <text style="fill:rgb(128,128,128);stroke:none;" x="268" y="1065">IGLL1</text>
  <rect height="12" style="fill:rgb(255,255,255);stroke:none;" width="49" x="268" y="1068"/>
  <text style="fill:rgb(128,128,128);stroke:none;" x="268" y="1080">RNASE6</text>
  <rect height="12" style="fill:rgb(255,255,255);stroke:none;" width="47" x="268" y="1083"/>
  <text style="fill:rgb(128,128,128);stroke:none;" x="268" y="1095">SLAMF7</text>
  <rect height="12" style="fill:rgb(255,255,255);stroke:none;" width="50" x="268" y="1098"/>
  <text style="fill:rgb(128,128,128);stroke:none;" x="268" y="1110">PSTPIP1</text>
  <rect height="11" style="fill:rgb(255,255,255);stroke:none;" width="15" x="283" y="1113"/>
  <text style="fill:rgb(128,128,128);stroke:none;font-size:11px;" x="283" y="1124">C5</text>
  <rect height="11" style="fill:rgb(255,255,255);stroke:none;" width="36" x="283" y="1127"/>
  <text style="fill:rgb(128,128,128);stroke:none;font-size:11px;" x="283" y="1138">ACTR3</text>
  <rect height="11" style="fill:rgb(255,255,255);stroke:none;" width="36" x="283" y="1141"/>
  <text style="fill:rgb(128,128,128);stroke:none;font-size:11px;" x="283" y="1152">CCL26</text>
  <rect height="11" style="fill:rgb(255,255,255);stroke:none;" width="37" x="297" y="1155"/>
  <text style="fill:rgb(128,128,128);stroke:none;font-size:11px;" x="297" y="1166">CASP1</text>
  <rect height="11" style="fill:rgb(255,255,255);stroke:none;" width="58" x="297" y="1169"/>
  <text style="fill:rgb(128,128,128);stroke:none;font-size:11px;" x="297" y="1180">HSP90AA1</text>
  <rect height="11" style="fill:rgb(255,255,255);stroke:none;" width="58" x="297" y="1183"/>
  <text style="fill:rgb(128,128,128);stroke:none;font-size:11px;" x="297" y="1194">DEFB103B</text>
  <rect height="10" style="fill:rgb(255,255,255);stroke:none;" width="28" x="341" y="1197"/>
  <text style="fill:rgb(128,128,128);stroke:none;font-size:10px;" x="341" y="1207">AQP1</text>
  <rect height="10" style="fill:rgb(255,255,255);stroke:none;" width="28" x="341" y="1210"/>
  <text style="fill:rgb(128,128,128);stroke:none;font-size:10px;" x="341" y="1220">CTSG</text>
  <rect height="10" style="fill:rgb(255,255,255);stroke:none;" width="24" x="356" y="1223"/>
  <text style="fill:rgb(128,128,128);stroke:none;font-size:10px;" x="356" y="1233">DCD</text>
  <rect height="10" style="fill:rgb(255,255,255);stroke:none;" width="36" x="356" y="1236"/>
  <text style="fill:rgb(128,128,128);stroke:none;font-size:10px;" x="356" y="1246">TRIM35</text>
  <rect height="10" style="fill:rgb(255,255,255);stroke:none;" width="22" x="370" y="1249"/>
  <text style="fill:rgb(128,128,128);stroke:none;font-size:10px;" x="370" y="1259">CFH</text>
  <rect height="10" style="fill:rgb(255,255,255);stroke:none;" width="22" x="370" y="1262"/>
  <text style="fill:rgb(128,128,128);stroke:none;font-size:10px;" x="370" y="1272">A2M</text>
  <rect height="10" style="fill:rgb(255,255,255);stroke:none;" width="21" x="385" y="1275"/>
  <text style="fill:rgb(128,128,128);stroke:none;font-size:10px;" x="385" y="1285">C1R</text>
  <rect height="10" style="fill:rgb(255,255,255);stroke:none;" width="48" x="385" y="1288"/>
  <text style="fill:rgb(128,128,128);stroke:none;font-size:10px;" x="385" y="1298">RARRES2</text>
  <rect height="10" style="fill:rgb(255,255,255);stroke:none;" width="21" x="400" y="1301"/>
  <text style="fill:rgb(128,128,128);stroke:none;font-size:10px;" x="400" y="1311">HPX</text>
</svg>
