<?xml version="1.0" encoding="UTF-8" standalone="no"?>
<!DOCTYPE svg PUBLIC "-//W3C//DTD SVG 1.1//EN" "http://www.w3.org/Graphics/SVG/1.1/DTD/svg11.dtd">
<svg xmlns:xlink="http://www.w3.org/1999/xlink" height="158.74999999999997mm" version="1.1" viewBox="0 0 500 600" width="132.29166666666666mm" x="0mm" y="0mm" xmlns="http://www.w3.org/2000/svg">
  <rect height="1200" style="fill:rgb(255,255,255);stroke:none;" width="1000" x="0" y="0"/>
  <rect height="240" style="fill:rgb(191,191,191);fill-opacity:0.4980392156862745;stroke:none;" width="175" x="225" y="60"/>
  <line style="fill:none;stroke:rgb(63,63,191);stroke-opacity:0.24705882352941178;stroke-miterlimit:10;stroke-linecap:square;" x1="50" x2="50" y1="300" y2="300"/>
  <line style="fill:none;stroke:rgb(63,63,191);stroke-opacity:0.24705882352941178;stroke-miterlimit:10;stroke-linecap:square;" x1="50" x2="64" y1="300" y2="290"/>
  <line style="fill:none;stroke:rgb(63,63,191);stroke-opacity:0.24705882352941178;stroke-miterlimit:10;stroke-linecap:square;" x1="64" x2="79" y1="290" y2="280"/>
  <line style="fill:none;stroke:rgb(63,63,191);stroke-opacity:0.24705882352941178;stroke-miterlimit:10;stroke-linecap:square;" x1="79" x2="93" y1="280" y2="270"/>
  <line style="fill:none;stroke:rgb(63,63,191);stroke-opacity:0.24705882352941178;stroke-miterlimit:10;stroke-linecap:square;" x1="93" x2="108" y1="270" y2="260"/>
  <line style="fill:none;stroke:rgb(63,63,191);stroke-opacity:0.24705882352941178;stroke-miterlimit:10;stroke-linecap:square;" x1="108" x2="122" y1="260" y2="250"/>
  <line style="fill:none;stroke:rgb(63,63,191);stroke-opacity:0.24705882352941178;stroke-miterlimit:10;stroke-linecap:square;" x1="122" x2="137" y1="250" y2="240"/>
  <line style="fill:none;stroke:rgb(63,63,191);stroke-opacity:0.24705882352941178;stroke-miterlimit:10;stroke-linecap:square;" x1="137" x2="152" y1="240" y2="230"/>
  <line style="fill:none;stroke:rgb(63,63,191);stroke-opacity:0.24705882352941178;stroke-miterlimit:10;stroke-linecap:square;" x1="152" x2="166" y1="230" y2="220"/>
  <line style="fill:none;stroke:rgb(63,63,191);stroke-opacity:0.24705882352941178;stroke-miterlimit:10;stroke-linecap:square;" x1="166" x2="181" y1="220" y2="210"/>
  <line style="fill:none;stroke:rgb(63,63,191);stroke-opacity:0.24705882352941178;stroke-miterlimit:10;stroke-linecap:square;" x1="181" x2="195" y1="210" y2="200"/>
  <line style="fill:none;stroke:rgb(63,63,191);stroke-opacity:0.24705882352941178;stroke-miterlimit:10;stroke-linecap:square;" x1="195" x2="210" y1="200" y2="190"/>
  <line style="fill:none;stroke:rgb(63,63,191);stroke-opacity:0.24705882352941178;stroke-miterlimit:10;stroke-linecap:square;" x1="210" x2="225" y1="190" y2="180"/>
  <line style="fill:none;stroke:rgb(63,63,191);stroke-opacity:0.24705882352941178;stroke-miterlimit:10;stroke-linecap:square;" x1="225" x2="239" y1="180" y2="170"/>
  <line style="fill:none;stroke:rgb(63,63,191);stroke-opacity:0.24705882352941178;stroke-miterlimit:10;stroke-linecap:square;" x1="239" x2="254" y1="170" y2="160"/>
  <line style="fill:none;stroke:rgb(63,63,191);stroke-opacity:0.24705882352941178;stroke-miterlimit:10;stroke-linecap:square;" x1="254" x2="268" y1="160" y2="150"/>
  <line style="fill:none;stroke:rgb(63,63,191);stroke-opacity:0.24705882352941178;stroke-miterlimit:10;stroke-linecap:square;" x1="268" x2="283" y1="150" y2="140"/>
  <line style="fill:none;stroke:rgb(63,63,191);stroke-opacity:0.24705882352941178;stroke-miterlimit:10;stroke-linecap:square;" x1="283" x2="297" y1="140" y2="130"/>
  <line style="fill:none;stroke:rgb(63,63,191);stroke-opacity:0.24705882352941178;stroke-miterlimit:10;stroke-linecap:square;" x1="297" x2="312" y1="130" y2="120"/>
  <line style="fill:none;stroke:rgb(63,63,191);stroke-opacity:0.24705882352941178;stroke-miterlimit:10;stroke-linecap:square;" x1="312" x2="327" y1="120" y2="110"/>
  <line style="fill:none;stroke:rgb(63,63,191);stroke-opacity:0.24705882352941178;stroke-miterlimit:10;stroke-linecap:square;" x1="327" x2="341" y1="110" y2="100"/>
  <line style="fill:none;stroke:rgb(63,63,191);stroke-opacity:0.24705882352941178;stroke-miterlimit:10;stroke-linecap:square;" x1="341" x2="356" y1="100" y2="90"/>
  <line style="fill:none;stroke:rgb(63,63,191);stroke-opacity:0.24705882352941178;stroke-miterlimit:10;stroke-linecap:square;" x1="356" x2="370" y1="90" y2="80"/>
  <line style="fill:none;stroke:rgb(63,63,191);stroke-opacity:0.24705882352941178;stroke-miterlimit:10;stroke-linecap:square;" x1="370" x2="385" y1="80" y2="70"/>
  <line style="fill:none;stroke:rgb(63,63,191);stroke-opacity:0.24705882352941178;stroke-miterlimit:10;stroke-linecap:square;" x1="385" x2="400" y1="70" y2="60"/>
  <line style="fill:none;stroke:rgb(63,63,191);stroke-opacity:0.24705882352941178;stroke-miterlimit:10;stroke-linecap:square;" x1="400" x2="400" y1="60" y2="60"/>
  <rect height="16" style="fill:rgb(255,127,0);fill-opacity:0.7490196078431373;stroke:none;" width="4" x="62" y="283"/>
  <line style="fill:none;stroke:rgb(255,127,0);stroke-opacity:0.24705882352941178;stroke-width:2;stroke-miterlimit:10;stroke-linecap:square;" x1="50" x2="64" y1="300" y2="300"/>
  <line style="fill:none;stroke:rgb(255,127,0);stroke-opacity:0.24705882352941178;stroke-width:2;stroke-miterlimit:10;stroke-linecap:square;" x1="64" x2="64" y1="298" y2="285"/>
  <rect height="5" style="fill:rgb(255,127,0);fill-opacity:0.7490196078431373;stroke:none;" width="4" x="77" y="294"/>
  <line style="fill:none;stroke:rgb(255,127,0);stroke-opacity:0.24705882352941178;stroke-width:2;stroke-miterlimit:10;stroke-linecap:square;" x1="64" x2="79" y1="283" y2="283"/>
  <line style="fill:none;stroke:rgb(255,127,0);stroke-opacity:0.24705882352941178;stroke-width:2;stroke-miterlimit:10;stroke-linecap:square;" x1="79" x2="79" y1="281" y2="279"/>
  <rect height="5" style="fill:rgb(255,127,0);fill-opacity:0.7490196078431373;stroke:none;" width="4" x="106" y="294"/>
  <line style="fill:none;stroke:rgb(255,127,0);stroke-opacity:0.24705882352941178;stroke-width:2;stroke-miterlimit:10;stroke-linecap:square;" x1="79" x2="108" y1="277" y2="277"/>
  <line style="fill:none;stroke:rgb(255,127,0);stroke-opacity:0.24705882352941178;stroke-width:2;stroke-miterlimit:10;stroke-linecap:square;" x1="108" x2="108" y1="275" y2="274"/>
  <rect height="22" style="fill:rgb(255,127,0);fill-opacity:0.7490196078431373;stroke:none;" width="4" x="120" y="277"/>
  <line style="fill:none;stroke:rgb(255,127,0);stroke-opacity:0.24705882352941178;stroke-width:2;stroke-miterlimit:10;stroke-linecap:square;" x1="108" x2="122" y1="272" y2="272"/>
  <line style="fill:none;stroke:rgb(255,127,0);stroke-opacity:0.24705882352941178;stroke-width:2;stroke-miterlimit:10;stroke-linecap:square;" x1="122" x2="122" y1="270" y2="251"/>
  <rect height="11" style="fill:rgb(255,127,0);fill-opacity:0.7490196078431373;stroke:none;" width="4" x="208" y="288"/>
  <line style="fill:none;stroke:rgb(255,127,0);stroke-opacity:0.24705882352941178;stroke-width:2;stroke-miterlimit:10;stroke-linecap:square;" x1="122" x2="210" y1="249" y2="249"/>
  <line style="fill:none;stroke:rgb(255,127,0);stroke-opacity:0.24705882352941178;stroke-width:2;stroke-miterlimit:10;stroke-linecap:square;" x1="210" x2="210" y1="247" y2="240"/>
  <rect height="11" style="fill:rgb(255,127,0);fill-opacity:0.7490196078431373;stroke:none;" width="4" x="223" y="288"/>
  <line style="fill:none;stroke:rgb(255,127,0);stroke-opacity:0.24705882352941178;stroke-width:2;stroke-miterlimit:10;stroke-linecap:square;" x1="210" x2="225" y1="238" y2="238"/>
  <line style="fill:none;stroke:rgb(255,127,0);stroke-opacity:0.24705882352941178;stroke-width:2;stroke-miterlimit:10;stroke-linecap:square;" x1="225" x2="225" y1="236" y2="229"/>
  <rect height="16" style="fill:rgb(255,127,0);fill-opacity:0.7490196078431373;stroke:none;" width="4" x="237" y="283"/>
  <line style="fill:none;stroke:rgb(255,127,0);stroke-opacity:0.24705882352941178;stroke-width:2;stroke-miterlimit:10;stroke-linecap:square;" x1="225" x2="239" y1="227" y2="227"/>
  <line style="fill:none;stroke:rgb(255,127,0);stroke-opacity:0.24705882352941178;stroke-width:2;stroke-miterlimit:10;stroke-linecap:square;" x1="239" x2="239" y1="225" y2="212"/>
  <rect height="55" style="fill:rgb(255,127,0);fill-opacity:0.7490196078431373;stroke:none;" width="4" x="252" y="244"/>
  <line style="fill:none;stroke:rgb(255,127,0);stroke-opacity:0.24705882352941178;stroke-width:2;stroke-miterlimit:10;stroke-linecap:square;" x1="239" x2="254" y1="210" y2="210"/>
  <line style="fill:none;stroke:rgb(255,127,0);stroke-opacity:0.24705882352941178;stroke-width:2;stroke-miterlimit:10;stroke-linecap:square;" x1="254" x2="254" y1="208" y2="156"/>
  <rect height="27" style="fill:rgb(255,127,0);fill-opacity:0.7490196078431373;stroke:none;" width="4" x="266" y="272"/>
  <line style="fill:none;stroke:rgb(255,127,0);stroke-opacity:0.24705882352941178;stroke-width:2;stroke-miterlimit:10;stroke-linecap:square;" x1="254" x2="268" y1="154" y2="154"/>
  <line style="fill:none;stroke:rgb(255,127,0);stroke-opacity:0.24705882352941178;stroke-width:2;stroke-miterlimit:10;stroke-linecap:square;" x1="268" x2="268" y1="152" y2="128"/>
  <rect height="11" style="fill:rgb(255,127,0);fill-opacity:0.7490196078431373;stroke:none;" width="4" x="295" y="288"/>
  <line style="fill:none;stroke:rgb(255,127,0);stroke-opacity:0.24705882352941178;stroke-width:2;stroke-miterlimit:10;stroke-linecap:square;" x1="268" x2="297" y1="126" y2="126"/>
  <line style="fill:none;stroke:rgb(255,127,0);stroke-opacity:0.24705882352941178;stroke-width:2;stroke-miterlimit:10;stroke-linecap:square;" x1="297" x2="297" y1="124" y2="117"/>
  <rect height="5" style="fill:rgb(255,127,0);fill-opacity:0.7490196078431373;stroke:none;" width="4" x="339" y="294"/>
  <line style="fill:none;stroke:rgb(255,127,0);stroke-opacity:0.24705882352941178;stroke-width:2;stroke-miterlimit:10;stroke-linecap:square;" x1="297" x2="341" y1="115" y2="115"/>
  <line style="fill:none;stroke:rgb(255,127,0);stroke-opacity:0.24705882352941178;stroke-width:2;stroke-miterlimit:10;stroke-linecap:square;" x1="341" x2="341" y1="113" y2="112"/>
  <rect height="27" style="fill:rgb(255,127,0);fill-opacity:0.7490196078431373;stroke:none;" width="4" x="368" y="272"/>
  <line style="fill:none;stroke:rgb(255,127,0);stroke-opacity:0.24705882352941178;stroke-width:2;stroke-miterlimit:10;stroke-linecap:square;" x1="341" x2="370" y1="110" y2="110"/>
  <line style="fill:none;stroke:rgb(255,127,0);stroke-opacity:0.24705882352941178;stroke-width:2;stroke-miterlimit:10;stroke-linecap:square;" x1="370" x2="370" y1="108" y2="84"/>
  <rect height="5" style="fill:rgb(255,127,0);fill-opacity:0.7490196078431373;stroke:none;" width="4" x="383" y="294"/>
  <line style="fill:none;stroke:rgb(255,127,0);stroke-opacity:0.24705882352941178;stroke-width:2;stroke-miterlimit:10;stroke-linecap:square;" x1="370" x2="385" y1="82" y2="82"/>
  <line style="fill:none;stroke:rgb(255,127,0);stroke-opacity:0.24705882352941178;stroke-width:2;stroke-miterlimit:10;stroke-linecap:square;" x1="385" x2="385" y1="80" y2="78"/>
  <rect height="16" style="fill:rgb(255,127,0);fill-opacity:0.7490196078431373;stroke:none;" width="4" x="398" y="283"/>
  <line style="fill:none;stroke:rgb(255,127,0);stroke-opacity:0.24705882352941178;stroke-width:2;stroke-miterlimit:10;stroke-linecap:square;" x1="385" x2="400" y1="76" y2="76"/>
  <line style="fill:none;stroke:rgb(255,127,0);stroke-opacity:0.24705882352941178;stroke-width:2;stroke-miterlimit:10;stroke-linecap:square;" x1="400" x2="400" y1="74" y2="62"/>
  <line style="fill:none;stroke:rgb(255,127,0);stroke-opacity:0.24705882352941178;stroke-width:2;stroke-miterlimit:10;stroke-linecap:square;" x1="400" x2="400" y1="60" y2="60"/>
  <line style="fill:none;stroke:rgb(255,127,0);stroke-opacity:0.4980392156862745;stroke-miterlimit:2;stroke-dasharray:2;" x1="64" x2="64" y1="300" y2="350"/>
  <line style="fill:none;stroke:rgb(255,127,0);stroke-opacity:0.4980392156862745;stroke-miterlimit:2;stroke-dasharray:2;" x1="64" x2="64" y1="300" y2="363"/>
  <line style="fill:none;stroke:rgb(255,127,0);stroke-opacity:0.4980392156862745;stroke-miterlimit:2;stroke-dasharray:2;" x1="64" x2="64" y1="300" y2="376"/>
  <line style="fill:none;stroke:rgb(255,127,0);stroke-opacity:0.4980392156862745;stroke-miterlimit:2;stroke-dasharray:2;" x1="79" x2="79" y1="300" y2="389"/>
  <line style="fill:none;stroke:rgb(255,127,0);stroke-opacity:0.4980392156862745;stroke-miterlimit:2;stroke-dasharray:2;" x1="108" x2="108" y1="300" y2="402"/>
  <line style="fill:none;stroke:rgb(255,127,0);stroke-opacity:0.4980392156862745;stroke-miterlimit:2;stroke-dasharray:2;" x1="122" x2="122" y1="300" y2="415"/>
  <line style="fill:none;stroke:rgb(255,127,0);stroke-opacity:0.4980392156862745;stroke-miterlimit:2;stroke-dasharray:2;" x1="122" x2="122" y1="300" y2="428"/>
  <line style="fill:none;stroke:rgb(255,127,0);stroke-opacity:0.4980392156862745;stroke-miterlimit:2;stroke-dasharray:2;" x1="122" x2="122" y1="300" y2="441"/>
  <line style="fill:none;stroke:rgb(255,127,0);stroke-opacity:0.4980392156862745;stroke-miterlimit:2;stroke-dasharray:2;" x1="122" x2="122" y1="300" y2="454"/>
  <line style="fill:none;stroke:rgb(255,127,0);stroke-opacity:0.4980392156862745;stroke-miterlimit:2;stroke-dasharray:2;" x1="210" x2="210" y1="300" y2="350"/>
  <line style="fill:none;stroke:rgb(255,127,0);stroke-opacity:0.4980392156862745;stroke-miterlimit:2;stroke-dasharray:2;" x1="210" x2="210" y1="300" y2="364"/>
  <line style="fill:none;stroke:rgb(255,127,0);stroke-opacity:0.4980392156862745;stroke-miterlimit:2;stroke-dasharray:2;" x1="225" x2="225" y1="300" y2="378"/>
  <line style="fill:none;stroke:rgb(255,127,0);stroke-opacity:0.4980392156862745;stroke-miterlimit:2;stroke-dasharray:2;" x1="225" x2="225" y1="300" y2="392"/>
  <line style="fill:none;stroke:rgb(255,127,0);stroke-opacity:0.4980392156862745;stroke-miterlimit:2;stroke-dasharray:2;" x1="239" x2="239" y1="300" y2="409"/>
  <line style="fill:none;stroke:rgb(255,127,0);stroke-opacity:0.4980392156862745;stroke-miterlimit:2;stroke-dasharray:2;" x1="239" x2="239" y1="300" y2="426"/>
  <line style="fill:none;stroke:rgb(255,127,0);stroke-opacity:0.4980392156862745;stroke-miterlimit:2;stroke-dasharray:2;" x1="239" x2="239" y1="300" y2="443"/>
  <line style="fill:none;stroke:rgb(255,127,0);stroke-opacity:0.4980392156862745;stroke-miterlimit:2;stroke-dasharray:2;" x1="254" x2="254" y1="300" y2="460"/>
  <line style="fill:none;stroke:rgb(255,127,0);stroke-opacity:0.4980392156862745;stroke-miterlimit:2;stroke-dasharray:2;" x1="254" x2="254" y1="300" y2="477"/>
  <line style="fill:none;stroke:rgb(255,127,0);stroke-opacity:0.4980392156862745;stroke-miterlimit:2;stroke-dasharray:2;" x1="254" x2="254" y1="300" y2="494"/>
  <line style="fill:none;stroke:rgb(255,127,0);stroke-opacity:0.4980392156862745;stroke-miterlimit:2;stroke-dasharray:2;" x1="254" x2="254" y1="300" y2="511"/>
  <line style="fill:none;stroke:rgb(255,127,0);stroke-opacity:0.4980392156862745;stroke-miterlimit:2;stroke-dasharray:2;" x1="254" x2="254" y1="300" y2="528"/>
  <line style="fill:none;stroke:rgb(255,127,0);stroke-opacity:0.4980392156862745;stroke-miterlimit:2;stroke-dasharray:2;" x1="254" x2="254" y1="300" y2="545"/>
  <line style="fill:none;stroke:rgb(255,127,0);stroke-opacity:0.4980392156862745;stroke-miterlimit:2;stroke-dasharray:2;" x1="254" x2="254" y1="300" y2="562"/>
  <line style="fill:none;stroke:rgb(255,127,0);stroke-opacity:0.4980392156862745;stroke-miterlimit:2;stroke-dasharray:2;" x1="254" x2="254" y1="300" y2="579"/>
  <line style="fill:none;stroke:rgb(255,127,0);stroke-opacity:0.4980392156862745;stroke-miterlimit:2;stroke-dasharray:2;" x1="254" x2="254" y1="300" y2="596"/>
  <line style="fill:none;stroke:rgb(255,127,0);stroke-opacity:0.4980392156862745;stroke-miterlimit:2;stroke-dasharray:2;" x1="254" x2="254" y1="300" y2="613"/>
  <line style="fill:none;stroke:rgb(255,127,0);stroke-opacity:0.4980392156862745;stroke-miterlimit:2;stroke-dasharray:2;" x1="268" x2="268" y1="300" y2="630"/>
  <line style="fill:none;stroke:rgb(255,127,0);stroke-opacity:0.4980392156862745;stroke-miterlimit:2;stroke-dasharray:2;" x1="268" x2="268" y1="300" y2="647"/>
  <line style="fill:none;stroke:rgb(255,127,0);stroke-opacity:0.4980392156862745;stroke-miterlimit:2;stroke-dasharray:2;" x1="268" x2="268" y1="300" y2="664"/>
  <line style="fill:none;stroke:rgb(255,127,0);stroke-opacity:0.4980392156862745;stroke-miterlimit:2;stroke-dasharray:2;" x1="268" x2="268" y1="300" y2="681"/>
  <line style="fill:none;stroke:rgb(255,127,0);stroke-opacity:0.4980392156862745;stroke-miterlimit:2;stroke-dasharray:2;" x1="268" x2="268" y1="300" y2="698"/>
  <line style="fill:none;stroke:rgb(255,127,0);stroke-opacity:0.4980392156862745;stroke-miterlimit:2;stroke-dasharray:2;" x1="297" x2="297" y1="300" y2="711"/>
  <line style="fill:none;stroke:rgb(255,127,0);stroke-opacity:0.4980392156862745;stroke-miterlimit:2;stroke-dasharray:2;" x1="297" x2="297" y1="300" y2="724"/>
  <line style="fill:none;stroke:rgb(255,127,0);stroke-opacity:0.4980392156862745;stroke-miterlimit:2;stroke-dasharray:2;" x1="341" x2="341" y1="300" y2="737"/>
  <line style="fill:none;stroke:rgb(255,127,0);stroke-opacity:0.4980392156862745;stroke-miterlimit:2;stroke-dasharray:2;" x1="370" x2="370" y1="300" y2="750"/>
  <line style="fill:none;stroke:rgb(255,127,0);stroke-opacity:0.4980392156862745;stroke-miterlimit:2;stroke-dasharray:2;" x1="370" x2="370" y1="300" y2="763"/>
  <line style="fill:none;stroke:rgb(255,127,0);stroke-opacity:0.4980392156862745;stroke-miterlimit:2;stroke-dasharray:2;" x1="370" x2="370" y1="300" y2="776"/>
  <line style="fill:none;stroke:rgb(255,127,0);stroke-opacity:0.4980392156862745;stroke-miterlimit:2;stroke-dasharray:2;" x1="370" x2="370" y1="300" y2="789"/>
  <line style="fill:none;stroke:rgb(255,127,0);stroke-opacity:0.4980392156862745;stroke-miterlimit:2;stroke-dasharray:2;" x1="370" x2="370" y1="300" y2="802"/>
  <line style="fill:none;stroke:rgb(255,127,0);stroke-opacity:0.4980392156862745;stroke-miterlimit:2;stroke-dasharray:2;" x1="385" x2="385" y1="300" y2="815"/>
  <line style="fill:none;stroke:rgb(255,127,0);stroke-opacity:0.4980392156862745;stroke-miterlimit:2;stroke-dasharray:2;" x1="400" x2="400" y1="300" y2="828"/>
  <line style="fill:none;stroke:rgb(255,127,0);stroke-opacity:0.4980392156862745;stroke-miterlimit:2;stroke-dasharray:2;" x1="400" x2="400" y1="300" y2="841"/>
  <line style="fill:none;stroke:rgb(255,127,0);stroke-opacity:0.4980392156862745;stroke-miterlimit:2;stroke-dasharray:2;" x1="400" x2="400" y1="300" y2="854"/>
  <line style="fill:none;stroke:rgb(0,0,0);stroke-width:2;stroke-miterlimit:10;stroke-linecap:square;" x1="48" x2="48" y1="60" y2="300"/>
  <line style="fill:none;stroke:rgb(0,0,0);stroke-width:2;stroke-miterlimit:10;stroke-linecap:square;" x1="48" x2="402" y1="300" y2="300"/>
  <rect height="30" style="fill:rgb(255,255,255);stroke:none;" width="17" x="42" y="308"/>
  <text style="fill:rgb(0,0,0);stroke:none;font-size:25px;font-weight:bold;" x="42" y="332">0</text>
  <rect height="30" style="fill:rgb(255,255,255);stroke:none;" width="34" x="383" y="308"/>
  <text style="fill:rgb(0,0,0);stroke:none;font-size:25px;font-weight:bold;" x="383" y="332">24</text>
  <text style="fill:rgb(0,0,0);stroke:none;font-size:25px;font-weight:bold;" x="25" y="312">0</text>
  <text style="fill:rgb(0,0,0);stroke:none;font-size:25px;font-weight:bold;" x="25" y="72">1</text>
  <text style="fill:rgb(0,0,0);stroke:none;font-size:19px;font-weight:bold;" x="10" y="39">GOBP_REGULATION_OF_DEFENSE_RESPONSE</text>
  <rect height="10" style="fill:rgb(255,255,255);stroke:none;" width="24" x="64" y="340"/>
  <text style="fill:rgb(128,128,128);stroke:none;font-size:10px;" x="64" y="350">ITCH</text>
  <rect height="10" style="fill:rgb(255,255,255);stroke:none;" width="35" x="64" y="353"/>
  <text style="fill:rgb(128,128,128);stroke:none;font-size:10px;" x="64" y="363">GPER1</text>
  <rect height="10" style="fill:rgb(255,255,255);stroke:none;" width="42" x="64" y="366"/>
  <text style="fill:rgb(128,128,128);stroke:none;font-size:10px;" x="64" y="376">CLEC7A</text>
  <rect height="10" style="fill:rgb(255,255,255);stroke:none;" width="53" x="79" y="379"/>
  <text style="fill:rgb(128,128,128);stroke:none;font-size:10px;" x="79" y="389">C1QTNF12</text>
  <rect height="10" style="fill:rgb(255,255,255);stroke:none;" width="50" x="108" y="392"/>
  <text style="fill:rgb(128,128,128);stroke:none;font-size:10px;" x="108" y="402">ZDHHC11</text>
  <rect height="10" style="fill:rgb(255,255,255);stroke:none;" width="25" x="122" y="405"/>
  <text style="fill:rgb(128,128,128);stroke:none;font-size:10px;" x="122" y="415">BST1</text>
  <rect height="10" style="fill:rgb(255,255,255);stroke:none;" width="35" x="122" y="418"/>
  <text style="fill:rgb(128,128,128);stroke:none;font-size:10px;" x="122" y="428">NPAS2</text>
  <rect height="10" style="fill:rgb(255,255,255);stroke:none;" width="32" x="122" y="431"/>
  <text style="fill:rgb(128,128,128);stroke:none;font-size:10px;" x="122" y="441">TRPV4</text>
  <rect height="10" style="fill:rgb(255,255,255);stroke:none;" width="38" x="122" y="444"/>
  <text style="fill:rgb(128,128,128);stroke:none;font-size:10px;" x="122" y="454">S100A9</text>
  <rect height="11" style="fill:rgb(255,255,255);stroke:none;" width="21" x="210" y="339"/>
  <text style="fill:rgb(128,128,128);stroke:none;font-size:11px;" x="210" y="350">TNF</text>
  <rect height="11" style="fill:rgb(255,255,255);stroke:none;" width="45" x="210" y="353"/>
  <text style="fill:rgb(128,128,128);stroke:none;font-size:11px;" x="210" y="364">DNASE1</text>
  <rect height="11" style="fill:rgb(255,255,255);stroke:none;" width="22" x="225" y="367"/>
  <text style="fill:rgb(128,128,128);stroke:none;font-size:11px;" x="225" y="378">SYK</text>
  <rect height="11" style="fill:rgb(255,255,255);stroke:none;" width="23" x="225" y="381"/>
  <text style="fill:rgb(128,128,128);stroke:none;font-size:11px;" x="225" y="392">IRF7</text>
  <rect height="13" style="fill:rgb(255,255,255);stroke:none;" width="37" x="239" y="396"/>
  <text style="fill:rgb(128,128,128);stroke:none;font-size:13px;" x="239" y="409">BIRC3</text>
  <rect height="13" style="fill:rgb(255,255,255);stroke:none;" width="41" x="239" y="413"/>
  <text style="fill:rgb(128,128,128);stroke:none;font-size:13px;" x="239" y="426">IL1RL2</text>
  <rect height="13" style="fill:rgb(255,255,255);stroke:none;" width="67" x="239" y="430"/>
  <text style="fill:rgb(128,128,128);stroke:none;font-size:13px;" x="239" y="443">TNFAIP8L2</text>
  <rect height="13" style="fill:rgb(255,255,255);stroke:none;" width="28" x="254" y="447"/>
  <text style="fill:rgb(128,128,128);stroke:none;font-size:13px;" x="254" y="460">ADA</text>
  <rect height="13" style="fill:rgb(255,255,255);stroke:none;" width="32" x="254" y="464"/>
  <text style="fill:rgb(128,128,128);stroke:none;font-size:13px;" x="254" y="477">LDLR</text>
  <rect height="13" style="fill:rgb(255,255,255);stroke:none;" width="35" x="254" y="481"/>
  <text style="fill:rgb(128,128,128);stroke:none;font-size:13px;" x="254" y="494">ARG2</text>
  <rect height="13" style="fill:rgb(255,255,255);stroke:none;" width="26" x="254" y="498"/>
  <text style="fill:rgb(128,128,128);stroke:none;font-size:13px;" x="254" y="511">IL37</text>
  <rect height="13" style="fill:rgb(255,255,255);stroke:none;" width="43" x="254" y="515"/>
  <text style="fill:rgb(128,128,128);stroke:none;font-size:13px;" x="254" y="528">CASP5</text>
  <rect height="13" style="fill:rgb(255,255,255);stroke:none;" width="37" x="254" y="532"/>
  <text style="fill:rgb(128,128,128);stroke:none;font-size:13px;" x="254" y="545">TRIM5</text>
  <rect height="13" style="fill:rgb(255,255,255);stroke:none;" width="43" x="254" y="549"/>
  <text style="fill:rgb(128,128,128);stroke:none;font-size:13px;" x="254" y="562">CASP4</text>
  <rect height="13" style="fill:rgb(255,255,255);stroke:none;" width="44" x="254" y="566"/>
  <text style="fill:rgb(128,128,128);stroke:none;font-size:13px;" x="254" y="579">RBM14</text>
  <rect height="13" style="fill:rgb(255,255,255);stroke:none;" width="51" x="254" y="583"/>
  <text style="fill:rgb(128,128,128);stroke:none;font-size:13px;" x="254" y="596">SLAMF8</text>
  <rect height="13" style="fill:rgb(255,255,255);stroke:none;" width="48" x="254" y="600"/>
  <text style="fill:rgb(128,128,128);stroke:none;font-size:13px;" x="254" y="613">RAET1E</text>
  <rect height="13" style="fill:rgb(255,255,255);stroke:none;" width="25" x="268" y="617"/>
  <text style="fill:rgb(128,128,128);stroke:none;font-size:13px;" x="268" y="630">ZYX</text>
  <rect height="13" style="fill:rgb(255,255,255);stroke:none;" width="36" x="268" y="634"/>
  <text style="fill:rgb(128,128,128);stroke:none;font-size:13px;" x="268" y="647">AKNA</text>
  <rect height="13" style="fill:rgb(255,255,255);stroke:none;" width="26" x="268" y="651"/>
  <text style="fill:rgb(128,128,128);stroke:none;font-size:13px;" x="268" y="664">IL33</text>
  <rect height="13" style="fill:rgb(255,255,255);stroke:none;" width="44" x="268" y="668"/>
  <text style="fill:rgb(128,128,128);stroke:none;font-size:13px;" x="268" y="681">TRADD</text>
  <rect height="13" style="fill:rgb(255,255,255);stroke:none;" width="40" x="268" y="685"/>
  <text style="fill:rgb(128,128,128);stroke:none;font-size:13px;" x="268" y="698">TYRO3</text>
  <rect height="10" style="fill:rgb(255,255,255);stroke:none;" width="35" x="297" y="701"/>
  <text style="fill:rgb(128,128,128);stroke:none;font-size:10px;" x="297" y="711">CASP1</text>
  <rect height="10" style="fill:rgb(255,255,255);stroke:none;" width="54" x="297" y="714"/>
  <text style="fill:rgb(128,128,128);stroke:none;font-size:10px;" x="297" y="724">HSP90AA1</text>
  <rect height="10" style="fill:rgb(255,255,255);stroke:none;" width="47" x="341" y="727"/>
  <text style="fill:rgb(128,128,128);stroke:none;font-size:10px;" x="341" y="737">C1QTNF3</text>
  <rect height="10" style="fill:rgb(255,255,255);stroke:none;" width="22" x="370" y="740"/>
  <text style="fill:rgb(128,128,128);stroke:none;font-size:10px;" x="370" y="750">CFH</text>
  <rect height="10" style="fill:rgb(255,255,255);stroke:none;" width="22" x="370" y="753"/>
  <text style="fill:rgb(128,128,128);stroke:none;font-size:10px;" x="370" y="763">A2M</text>
  <rect height="10" style="fill:rgb(255,255,255);stroke:none;" width="25" x="370" y="766"/>
  <text style="fill:rgb(128,128,128);stroke:none;font-size:10px;" x="370" y="776">KLF4</text>
  <rect height="10" style="fill:rgb(255,255,255);stroke:none;" width="27" x="370" y="779"/>
  <text style="fill:rgb(128,128,128);stroke:none;font-size:10px;" x="370" y="789">BCL6</text>
  <rect height="10" style="fill:rgb(255,255,255);stroke:none;" width="42" x="370" y="792"/>
  <text style="fill:rgb(128,128,128);stroke:none;font-size:10px;" x="370" y="802">TNFAIP6</text>
  <rect height="10" style="fill:rgb(255,255,255);stroke:none;" width="34" x="385" y="805"/>
  <text style="fill:rgb(128,128,128);stroke:none;font-size:10px;" x="385" y="815">KLRC4</text>
  <rect height="10" style="fill:rgb(255,255,255);stroke:none;" width="21" x="400" y="818"/>
  <text style="fill:rgb(128,128,128);stroke:none;font-size:10px;" x="400" y="828">HPX</text>
  <rect height="10" style="fill:rgb(255,255,255);stroke:none;" width="28" x="400" y="831"/>
  <text style="fill:rgb(128,128,128);stroke:none;font-size:10px;" x="400" y="841">BRD4</text>
  <rect height="10" style="fill:rgb(255,255,255);stroke:none;" width="29" x="400" y="844"/>
  <text style="fill:rgb(128,128,128);stroke:none;font-size:10px;" x="400" y="854">GHRL</text>
</svg>
