<?xml version="1.0" encoding="UTF-8" standalone="no"?>
<!DOCTYPE svg PUBLIC "-//W3C//DTD SVG 1.1//EN" "http://www.w3.org/Graphics/SVG/1.1/DTD/svg11.dtd">
<svg xmlns:xlink="http://www.w3.org/1999/xlink" height="158.74999999999997mm" version="1.1" viewBox="0 0 500 600" width="132.29166666666666mm" x="0mm" y="0mm" xmlns="http://www.w3.org/2000/svg">
  <rect height="1200" style="fill:rgb(255,255,255);stroke:none;" width="1000" x="0" y="0"/>
  <rect height="240" style="fill:rgb(191,191,191);fill-opacity:0.4980392156862745;stroke:none;" width="175" x="225" y="60"/>
  <line style="fill:none;stroke:rgb(63,63,191);stroke-opacity:0.24705882352941178;stroke-miterlimit:10;stroke-linecap:square;" x1="50" x2="50" y1="300" y2="300"/>
  <line style="fill:none;stroke:rgb(63,63,191);stroke-opacity:0.24705882352941178;stroke-miterlimit:10;stroke-linecap:square;" x1="50" x2="64" y1="300" y2="290"/>
  <line style="fill:none;stroke:rgb(63,63,191);stroke-opacity:0.24705882352941178;stroke-miterlimit:10;stroke-linecap:square;" x1="64" x2="79" y1="290" y2="280"/>
  <line style="fill:none;stroke:rgb(63,63,191);stroke-opacity:0.24705882352941178;stroke-miterlimit:10;stroke-linecap:square;" x1="79" x2="93" y1="280" y2="270"/>
  <line style="fill:none;stroke:rgb(63,63,191);stroke-opacity:0.24705882352941178;stroke-miterlimit:10;stroke-linecap:square;" x1="93" x2="108" y1="270" y2="260"/>
  <line style="fill:none;stroke:rgb(63,63,191);stroke-opacity:0.24705882352941178;stroke-miterlimit:10;stroke-linecap:square;" x1="108" x2="122" y1="260" y2="250"/>
  <line style="fill:none;stroke:rgb(63,63,191);stroke-opacity:0.24705882352941178;stroke-miterlimit:10;stroke-linecap:square;" x1="122" x2="137" y1="250" y2="240"/>
  <line style="fill:none;stroke:rgb(63,63,191);stroke-opacity:0.24705882352941178;stroke-miterlimit:10;stroke-linecap:square;" x1="137" x2="152" y1="240" y2="230"/>
  <line style="fill:none;stroke:rgb(63,63,191);stroke-opacity:0.24705882352941178;stroke-miterlimit:10;stroke-linecap:square;" x1="152" x2="166" y1="230" y2="220"/>
  <line style="fill:none;stroke:rgb(63,63,191);stroke-opacity:0.24705882352941178;stroke-miterlimit:10;stroke-linecap:square;" x1="166" x2="181" y1="220" y2="210"/>
  <line style="fill:none;stroke:rgb(63,63,191);stroke-opacity:0.24705882352941178;stroke-miterlimit:10;stroke-linecap:square;" x1="181" x2="195" y1="210" y2="200"/>
  <line style="fill:none;stroke:rgb(63,63,191);stroke-opacity:0.24705882352941178;stroke-miterlimit:10;stroke-linecap:square;" x1="195" x2="210" y1="200" y2="190"/>
  <line style="fill:none;stroke:rgb(63,63,191);stroke-opacity:0.24705882352941178;stroke-miterlimit:10;stroke-linecap:square;" x1="210" x2="225" y1="190" y2="180"/>
  <line style="fill:none;stroke:rgb(63,63,191);stroke-opacity:0.24705882352941178;stroke-miterlimit:10;stroke-linecap:square;" x1="225" x2="239" y1="180" y2="170"/>
  <line style="fill:none;stroke:rgb(63,63,191);stroke-opacity:0.24705882352941178;stroke-miterlimit:10;stroke-linecap:square;" x1="239" x2="254" y1="170" y2="160"/>
  <line style="fill:none;stroke:rgb(63,63,191);stroke-opacity:0.24705882352941178;stroke-miterlimit:10;stroke-linecap:square;" x1="254" x2="268" y1="160" y2="150"/>
  <line style="fill:none;stroke:rgb(63,63,191);stroke-opacity:0.24705882352941178;stroke-miterlimit:10;stroke-linecap:square;" x1="268" x2="283" y1="150" y2="140"/>
  <line style="fill:none;stroke:rgb(63,63,191);stroke-opacity:0.24705882352941178;stroke-miterlimit:10;stroke-linecap:square;" x1="283" x2="297" y1="140" y2="130"/>
  <line style="fill:none;stroke:rgb(63,63,191);stroke-opacity:0.24705882352941178;stroke-miterlimit:10;stroke-linecap:square;" x1="297" x2="312" y1="130" y2="120"/>
  <line style="fill:none;stroke:rgb(63,63,191);stroke-opacity:0.24705882352941178;stroke-miterlimit:10;stroke-linecap:square;" x1="312" x2="327" y1="120" y2="110"/>
  <line style="fill:none;stroke:rgb(63,63,191);stroke-opacity:0.24705882352941178;stroke-miterlimit:10;stroke-linecap:square;" x1="327" x2="341" y1="110" y2="100"/>
  <line style="fill:none;stroke:rgb(63,63,191);stroke-opacity:0.24705882352941178;stroke-miterlimit:10;stroke-linecap:square;" x1="341" x2="356" y1="100" y2="90"/>
  <line style="fill:none;stroke:rgb(63,63,191);stroke-opacity:0.24705882352941178;stroke-miterlimit:10;stroke-linecap:square;" x1="356" x2="370" y1="90" y2="80"/>
  <line style="fill:none;stroke:rgb(63,63,191);stroke-opacity:0.24705882352941178;stroke-miterlimit:10;stroke-linecap:square;" x1="370" x2="385" y1="80" y2="70"/>
  <line style="fill:none;stroke:rgb(63,63,191);stroke-opacity:0.24705882352941178;stroke-miterlimit:10;stroke-linecap:square;" x1="385" x2="400" y1="70" y2="60"/>
  <line style="fill:none;stroke:rgb(63,63,191);stroke-opacity:0.24705882352941178;stroke-miterlimit:10;stroke-linecap:square;" x1="400" x2="400" y1="60" y2="60"/>
  <rect height="17" style="fill:rgb(255,127,0);fill-opacity:0.7490196078431373;stroke:none;" width="4" x="62" y="282"/>
  <line style="fill:none;stroke:rgb(255,127,0);stroke-opacity:0.24705882352941178;stroke-width:2;stroke-miterlimit:10;stroke-linecap:square;" x1="50" x2="64" y1="300" y2="300"/>
  <line style="fill:none;stroke:rgb(255,127,0);stroke-opacity:0.24705882352941178;stroke-width:2;stroke-miterlimit:10;stroke-linecap:square;" x1="64" x2="64" y1="298" y2="284"/>
  <rect height="11" style="fill:rgb(255,127,0);fill-opacity:0.7490196078431373;stroke:none;" width="4" x="77" y="288"/>
  <line style="fill:none;stroke:rgb(255,127,0);stroke-opacity:0.24705882352941178;stroke-width:2;stroke-miterlimit:10;stroke-linecap:square;" x1="64" x2="79" y1="282" y2="282"/>
  <line style="fill:none;stroke:rgb(255,127,0);stroke-opacity:0.24705882352941178;stroke-width:2;stroke-miterlimit:10;stroke-linecap:square;" x1="79" x2="79" y1="280" y2="272"/>
  <rect height="17" style="fill:rgb(255,127,0);fill-opacity:0.7490196078431373;stroke:none;" width="4" x="91" y="282"/>
  <line style="fill:none;stroke:rgb(255,127,0);stroke-opacity:0.24705882352941178;stroke-width:2;stroke-miterlimit:10;stroke-linecap:square;" x1="79" x2="93" y1="270" y2="270"/>
  <line style="fill:none;stroke:rgb(255,127,0);stroke-opacity:0.24705882352941178;stroke-width:2;stroke-miterlimit:10;stroke-linecap:square;" x1="93" x2="93" y1="268" y2="255"/>
  <rect height="11" style="fill:rgb(255,127,0);fill-opacity:0.7490196078431373;stroke:none;" width="4" x="150" y="288"/>
  <line style="fill:none;stroke:rgb(255,127,0);stroke-opacity:0.24705882352941178;stroke-width:2;stroke-miterlimit:10;stroke-linecap:square;" x1="93" x2="152" y1="253" y2="253"/>
  <line style="fill:none;stroke:rgb(255,127,0);stroke-opacity:0.24705882352941178;stroke-width:2;stroke-miterlimit:10;stroke-linecap:square;" x1="152" x2="152" y1="251" y2="243"/>
  <rect height="5" style="fill:rgb(255,127,0);fill-opacity:0.7490196078431373;stroke:none;" width="4" x="164" y="294"/>
  <line style="fill:none;stroke:rgb(255,127,0);stroke-opacity:0.24705882352941178;stroke-width:2;stroke-miterlimit:10;stroke-linecap:square;" x1="152" x2="166" y1="241" y2="241"/>
  <line style="fill:none;stroke:rgb(255,127,0);stroke-opacity:0.24705882352941178;stroke-width:2;stroke-miterlimit:10;stroke-linecap:square;" x1="166" x2="166" y1="239" y2="237"/>
  <rect height="5" style="fill:rgb(255,127,0);fill-opacity:0.7490196078431373;stroke:none;" width="4" x="193" y="294"/>
  <line style="fill:none;stroke:rgb(255,127,0);stroke-opacity:0.24705882352941178;stroke-width:2;stroke-miterlimit:10;stroke-linecap:square;" x1="166" x2="195" y1="235" y2="235"/>
  <line style="fill:none;stroke:rgb(255,127,0);stroke-opacity:0.24705882352941178;stroke-width:2;stroke-miterlimit:10;stroke-linecap:square;" x1="195" x2="195" y1="233" y2="231"/>
  <rect height="17" style="fill:rgb(255,127,0);fill-opacity:0.7490196078431373;stroke:none;" width="4" x="208" y="282"/>
  <line style="fill:none;stroke:rgb(255,127,0);stroke-opacity:0.24705882352941178;stroke-width:2;stroke-miterlimit:10;stroke-linecap:square;" x1="195" x2="210" y1="229" y2="229"/>
  <line style="fill:none;stroke:rgb(255,127,0);stroke-opacity:0.24705882352941178;stroke-width:2;stroke-miterlimit:10;stroke-linecap:square;" x1="210" x2="210" y1="227" y2="214"/>
  <rect height="40" style="fill:rgb(255,127,0);fill-opacity:0.7490196078431373;stroke:none;" width="4" x="223" y="259"/>
  <line style="fill:none;stroke:rgb(255,127,0);stroke-opacity:0.24705882352941178;stroke-width:2;stroke-miterlimit:10;stroke-linecap:square;" x1="210" x2="225" y1="212" y2="212"/>
  <line style="fill:none;stroke:rgb(255,127,0);stroke-opacity:0.24705882352941178;stroke-width:2;stroke-miterlimit:10;stroke-linecap:square;" x1="225" x2="225" y1="210" y2="173"/>
  <rect height="29" style="fill:rgb(255,127,0);fill-opacity:0.7490196078431373;stroke:none;" width="4" x="237" y="270"/>
  <line style="fill:none;stroke:rgb(255,127,0);stroke-opacity:0.24705882352941178;stroke-width:2;stroke-miterlimit:10;stroke-linecap:square;" x1="225" x2="239" y1="171" y2="171"/>
  <line style="fill:none;stroke:rgb(255,127,0);stroke-opacity:0.24705882352941178;stroke-width:2;stroke-miterlimit:10;stroke-linecap:square;" x1="239" x2="239" y1="169" y2="143"/>
  <rect height="29" style="fill:rgb(255,127,0);fill-opacity:0.7490196078431373;stroke:none;" width="4" x="252" y="270"/>
  <line style="fill:none;stroke:rgb(255,127,0);stroke-opacity:0.24705882352941178;stroke-width:2;stroke-miterlimit:10;stroke-linecap:square;" x1="239" x2="254" y1="141" y2="141"/>
  <line style="fill:none;stroke:rgb(255,127,0);stroke-opacity:0.24705882352941178;stroke-width:2;stroke-miterlimit:10;stroke-linecap:square;" x1="254" x2="254" y1="139" y2="114"/>
  <rect height="17" style="fill:rgb(255,127,0);fill-opacity:0.7490196078431373;stroke:none;" width="4" x="266" y="282"/>
  <line style="fill:none;stroke:rgb(255,127,0);stroke-opacity:0.24705882352941178;stroke-width:2;stroke-miterlimit:10;stroke-linecap:square;" x1="254" x2="268" y1="112" y2="112"/>
  <line style="fill:none;stroke:rgb(255,127,0);stroke-opacity:0.24705882352941178;stroke-width:2;stroke-miterlimit:10;stroke-linecap:square;" x1="268" x2="268" y1="110" y2="97"/>
  <rect height="17" style="fill:rgb(255,127,0);fill-opacity:0.7490196078431373;stroke:none;" width="4" x="295" y="282"/>
  <line style="fill:none;stroke:rgb(255,127,0);stroke-opacity:0.24705882352941178;stroke-width:2;stroke-miterlimit:10;stroke-linecap:square;" x1="268" x2="297" y1="95" y2="95"/>
  <line style="fill:none;stroke:rgb(255,127,0);stroke-opacity:0.24705882352941178;stroke-width:2;stroke-miterlimit:10;stroke-linecap:square;" x1="297" x2="297" y1="93" y2="79"/>
  <rect height="11" style="fill:rgb(255,127,0);fill-opacity:0.7490196078431373;stroke:none;" width="4" x="325" y="288"/>
  <line style="fill:none;stroke:rgb(255,127,0);stroke-opacity:0.24705882352941178;stroke-width:2;stroke-miterlimit:10;stroke-linecap:square;" x1="297" x2="327" y1="77" y2="77"/>
  <line style="fill:none;stroke:rgb(255,127,0);stroke-opacity:0.24705882352941178;stroke-width:2;stroke-miterlimit:10;stroke-linecap:square;" x1="327" x2="327" y1="75" y2="67"/>
  <rect height="5" style="fill:rgb(255,127,0);fill-opacity:0.7490196078431373;stroke:none;" width="4" x="354" y="294"/>
  <line style="fill:none;stroke:rgb(255,127,0);stroke-opacity:0.24705882352941178;stroke-width:2;stroke-miterlimit:10;stroke-linecap:square;" x1="327" x2="356" y1="65" y2="65"/>
  <line style="fill:none;stroke:rgb(255,127,0);stroke-opacity:0.24705882352941178;stroke-width:2;stroke-miterlimit:10;stroke-linecap:square;" x1="356" x2="356" y1="63" y2="62"/>
  <line style="fill:none;stroke:rgb(255,127,0);stroke-opacity:0.24705882352941178;stroke-width:2;stroke-miterlimit:10;stroke-linecap:square;" x1="356" x2="400" y1="60" y2="60"/>
  <line style="fill:none;stroke:rgb(255,127,0);stroke-opacity:0.4980392156862745;stroke-miterlimit:2;stroke-dasharray:2;" x1="64" x2="64" y1="300" y2="350"/>
  <line style="fill:none;stroke:rgb(255,127,0);stroke-opacity:0.4980392156862745;stroke-miterlimit:2;stroke-dasharray:2;" x1="64" x2="64" y1="300" y2="363"/>
  <line style="fill:none;stroke:rgb(255,127,0);stroke-opacity:0.4980392156862745;stroke-miterlimit:2;stroke-dasharray:2;" x1="64" x2="64" y1="300" y2="376"/>
  <line style="fill:none;stroke:rgb(255,127,0);stroke-opacity:0.4980392156862745;stroke-miterlimit:2;stroke-dasharray:2;" x1="79" x2="79" y1="300" y2="389"/>
  <line style="fill:none;stroke:rgb(255,127,0);stroke-opacity:0.4980392156862745;stroke-miterlimit:2;stroke-dasharray:2;" x1="79" x2="79" y1="300" y2="402"/>
  <line style="fill:none;stroke:rgb(255,127,0);stroke-opacity:0.4980392156862745;stroke-miterlimit:2;stroke-dasharray:2;" x1="93" x2="93" y1="300" y2="415"/>
  <line style="fill:none;stroke:rgb(255,127,0);stroke-opacity:0.4980392156862745;stroke-miterlimit:2;stroke-dasharray:2;" x1="93" x2="93" y1="300" y2="428"/>
  <line style="fill:none;stroke:rgb(255,127,0);stroke-opacity:0.4980392156862745;stroke-miterlimit:2;stroke-dasharray:2;" x1="93" x2="93" y1="300" y2="441"/>
  <line style="fill:none;stroke:rgb(255,127,0);stroke-opacity:0.4980392156862745;stroke-miterlimit:2;stroke-dasharray:2;" x1="152" x2="152" y1="300" y2="350"/>
  <line style="fill:none;stroke:rgb(255,127,0);stroke-opacity:0.4980392156862745;stroke-miterlimit:2;stroke-dasharray:2;" x1="152" x2="152" y1="300" y2="363"/>
  <line style="fill:none;stroke:rgb(255,127,0);stroke-opacity:0.4980392156862745;stroke-miterlimit:2;stroke-dasharray:2;" x1="166" x2="166" y1="300" y2="376"/>
  <line style="fill:none;stroke:rgb(255,127,0);stroke-opacity:0.4980392156862745;stroke-miterlimit:2;stroke-dasharray:2;" x1="195" x2="195" y1="300" y2="389"/>
  <line style="fill:none;stroke:rgb(255,127,0);stroke-opacity:0.4980392156862745;stroke-miterlimit:2;stroke-dasharray:2;" x1="210" x2="210" y1="300" y2="406"/>
  <line style="fill:none;stroke:rgb(255,127,0);stroke-opacity:0.4980392156862745;stroke-miterlimit:2;stroke-dasharray:2;" x1="210" x2="210" y1="300" y2="423"/>
  <line style="fill:none;stroke:rgb(255,127,0);stroke-opacity:0.4980392156862745;stroke-miterlimit:2;stroke-dasharray:2;" x1="210" x2="210" y1="300" y2="440"/>
  <line style="fill:none;stroke:rgb(255,127,0);stroke-opacity:0.4980392156862745;stroke-miterlimit:2;stroke-dasharray:2;" x1="225" x2="225" y1="300" y2="457"/>
  <line style="fill:none;stroke:rgb(255,127,0);stroke-opacity:0.4980392156862745;stroke-miterlimit:2;stroke-dasharray:2;" x1="225" x2="225" y1="300" y2="474"/>
  <line style="fill:none;stroke:rgb(255,127,0);stroke-opacity:0.4980392156862745;stroke-miterlimit:2;stroke-dasharray:2;" x1="225" x2="225" y1="300" y2="491"/>
  <line style="fill:none;stroke:rgb(255,127,0);stroke-opacity:0.4980392156862745;stroke-miterlimit:2;stroke-dasharray:2;" x1="225" x2="225" y1="300" y2="508"/>
  <line style="fill:none;stroke:rgb(255,127,0);stroke-opacity:0.4980392156862745;stroke-miterlimit:2;stroke-dasharray:2;" x1="225" x2="225" y1="300" y2="525"/>
  <line style="fill:none;stroke:rgb(255,127,0);stroke-opacity:0.4980392156862745;stroke-miterlimit:2;stroke-dasharray:2;" x1="225" x2="225" y1="300" y2="542"/>
  <line style="fill:none;stroke:rgb(255,127,0);stroke-opacity:0.4980392156862745;stroke-miterlimit:2;stroke-dasharray:2;" x1="225" x2="225" y1="300" y2="559"/>
  <line style="fill:none;stroke:rgb(255,127,0);stroke-opacity:0.4980392156862745;stroke-miterlimit:2;stroke-dasharray:2;" x1="239" x2="239" y1="300" y2="576"/>
  <line style="fill:none;stroke:rgb(255,127,0);stroke-opacity:0.4980392156862745;stroke-miterlimit:2;stroke-dasharray:2;" x1="239" x2="239" y1="300" y2="593"/>
  <line style="fill:none;stroke:rgb(255,127,0);stroke-opacity:0.4980392156862745;stroke-miterlimit:2;stroke-dasharray:2;" x1="239" x2="239" y1="300" y2="610"/>
  <line style="fill:none;stroke:rgb(255,127,0);stroke-opacity:0.4980392156862745;stroke-miterlimit:2;stroke-dasharray:2;" x1="239" x2="239" y1="300" y2="627"/>
  <line style="fill:none;stroke:rgb(255,127,0);stroke-opacity:0.4980392156862745;stroke-miterlimit:2;stroke-dasharray:2;" x1="239" x2="239" y1="300" y2="644"/>
  <line style="fill:none;stroke:rgb(255,127,0);stroke-opacity:0.4980392156862745;stroke-miterlimit:2;stroke-dasharray:2;" x1="254" x2="254" y1="300" y2="661"/>
  <line style="fill:none;stroke:rgb(255,127,0);stroke-opacity:0.4980392156862745;stroke-miterlimit:2;stroke-dasharray:2;" x1="254" x2="254" y1="300" y2="678"/>
  <line style="fill:none;stroke:rgb(255,127,0);stroke-opacity:0.4980392156862745;stroke-miterlimit:2;stroke-dasharray:2;" x1="254" x2="254" y1="300" y2="695"/>
  <line style="fill:none;stroke:rgb(255,127,0);stroke-opacity:0.4980392156862745;stroke-miterlimit:2;stroke-dasharray:2;" x1="254" x2="254" y1="300" y2="712"/>
  <line style="fill:none;stroke:rgb(255,127,0);stroke-opacity:0.4980392156862745;stroke-miterlimit:2;stroke-dasharray:2;" x1="254" x2="254" y1="300" y2="729"/>
  <line style="fill:none;stroke:rgb(255,127,0);stroke-opacity:0.4980392156862745;stroke-miterlimit:2;stroke-dasharray:2;" x1="268" x2="268" y1="300" y2="746"/>
  <line style="fill:none;stroke:rgb(255,127,0);stroke-opacity:0.4980392156862745;stroke-miterlimit:2;stroke-dasharray:2;" x1="268" x2="268" y1="300" y2="763"/>
  <line style="fill:none;stroke:rgb(255,127,0);stroke-opacity:0.4980392156862745;stroke-miterlimit:2;stroke-dasharray:2;" x1="268" x2="268" y1="300" y2="780"/>
  <line style="fill:none;stroke:rgb(255,127,0);stroke-opacity:0.4980392156862745;stroke-miterlimit:2;stroke-dasharray:2;" x1="297" x2="297" y1="300" y2="793"/>
  <line style="fill:none;stroke:rgb(255,127,0);stroke-opacity:0.4980392156862745;stroke-miterlimit:2;stroke-dasharray:2;" x1="297" x2="297" y1="300" y2="806"/>
  <line style="fill:none;stroke:rgb(255,127,0);stroke-opacity:0.4980392156862745;stroke-miterlimit:2;stroke-dasharray:2;" x1="297" x2="297" y1="300" y2="819"/>
  <line style="fill:none;stroke:rgb(255,127,0);stroke-opacity:0.4980392156862745;stroke-miterlimit:2;stroke-dasharray:2;" x1="327" x2="327" y1="300" y2="832"/>
  <line style="fill:none;stroke:rgb(255,127,0);stroke-opacity:0.4980392156862745;stroke-miterlimit:2;stroke-dasharray:2;" x1="327" x2="327" y1="300" y2="845"/>
  <line style="fill:none;stroke:rgb(255,127,0);stroke-opacity:0.4980392156862745;stroke-miterlimit:2;stroke-dasharray:2;" x1="356" x2="356" y1="300" y2="858"/>
  <line style="fill:none;stroke:rgb(0,0,0);stroke-width:2;stroke-miterlimit:10;stroke-linecap:square;" x1="48" x2="48" y1="60" y2="300"/>
  <line style="fill:none;stroke:rgb(0,0,0);stroke-width:2;stroke-miterlimit:10;stroke-linecap:square;" x1="48" x2="402" y1="300" y2="300"/>
  <rect height="30" style="fill:rgb(255,255,255);stroke:none;" width="17" x="42" y="308"/>
  <text style="fill:rgb(0,0,0);stroke:none;font-size:25px;font-weight:bold;" x="42" y="332">0</text>
  <rect height="30" style="fill:rgb(255,255,255);stroke:none;" width="34" x="383" y="308"/>
  <text style="fill:rgb(0,0,0);stroke:none;font-size:25px;font-weight:bold;" x="383" y="332">24</text>
  <text style="fill:rgb(0,0,0);stroke:none;font-size:25px;font-weight:bold;" x="25" y="312">0</text>
  <text style="fill:rgb(0,0,0);stroke:none;font-size:25px;font-weight:bold;" x="25" y="72">1</text>
  <text style="fill:rgb(0,0,0);stroke:none;font-size:16px;font-weight:bold;" x="15" y="37">GOBP_ORGANOPHOSPHATE_BIOSYNTHETIC_PROCESS</text>
  <rect height="10" style="fill:rgb(255,255,255);stroke:none;" width="26" x="64" y="340"/>
  <text style="fill:rgb(128,128,128);stroke:none;font-size:10px;" x="64" y="350">IPMK</text>
  <rect height="10" style="fill:rgb(255,255,255);stroke:none;" width="35" x="64" y="353"/>
  <text style="fill:rgb(128,128,128);stroke:none;font-size:10px;" x="64" y="363">GPER1</text>
  <rect height="10" style="fill:rgb(255,255,255);stroke:none;" width="40" x="64" y="366"/>
  <text style="fill:rgb(128,128,128);stroke:none;font-size:10px;" x="64" y="376">AGPAT4</text>
  <rect height="10" style="fill:rgb(255,255,255);stroke:none;" width="29" x="79" y="379"/>
  <text style="fill:rgb(128,128,128);stroke:none;font-size:10px;" x="79" y="389">CDS2</text>
  <rect height="10" style="fill:rgb(255,255,255);stroke:none;" width="57" x="79" y="392"/>
  <text style="fill:rgb(128,128,128);stroke:none;font-size:10px;" x="79" y="402">PPARGC1A</text>
  <rect height="10" style="fill:rgb(255,255,255);stroke:none;" width="22" x="93" y="405"/>
  <text style="fill:rgb(128,128,128);stroke:none;font-size:10px;" x="93" y="415">ADK</text>
  <rect height="10" style="fill:rgb(255,255,255);stroke:none;" width="28" x="93" y="418"/>
  <text style="fill:rgb(128,128,128);stroke:none;font-size:10px;" x="93" y="428">PDK1</text>
  <rect height="10" style="fill:rgb(255,255,255);stroke:none;" width="36" x="93" y="431"/>
  <text style="fill:rgb(128,128,128);stroke:none;font-size:10px;" x="93" y="441">ADCY4</text>
  <rect height="10" style="fill:rgb(255,255,255);stroke:none;" width="28" x="152" y="340"/>
  <text style="fill:rgb(128,128,128);stroke:none;font-size:10px;" x="152" y="350">UPP1</text>
  <rect height="10" style="fill:rgb(255,255,255);stroke:none;" width="32" x="152" y="353"/>
  <text style="fill:rgb(128,128,128);stroke:none;font-size:10px;" x="152" y="363">TGFB1</text>
  <rect height="10" style="fill:rgb(255,255,255);stroke:none;" width="32" x="166" y="366"/>
  <text style="fill:rgb(128,128,128);stroke:none;font-size:10px;" x="166" y="376">PTAFR</text>
  <rect height="10" style="fill:rgb(255,255,255);stroke:none;" width="28" x="195" y="379"/>
  <text style="fill:rgb(128,128,128);stroke:none;font-size:10px;" x="195" y="389">FLCN</text>
  <rect height="13" style="fill:rgb(255,255,255);stroke:none;" width="35" x="210" y="393"/>
  <text style="fill:rgb(128,128,128);stroke:none;font-size:13px;" x="210" y="406">RRM2</text>
  <rect height="13" style="fill:rgb(255,255,255);stroke:none;" width="45" x="210" y="410"/>
  <text style="fill:rgb(128,128,128);stroke:none;font-size:13px;" x="210" y="423">NMRK1</text>
  <rect height="13" style="fill:rgb(255,255,255);stroke:none;" width="46" x="210" y="427"/>
  <text style="fill:rgb(128,128,128);stroke:none;font-size:13px;" x="210" y="440">AMPD2</text>
  <rect height="13" style="fill:rgb(255,255,255);stroke:none;" width="28" x="225" y="444"/>
  <text style="fill:rgb(128,128,128);stroke:none;font-size:13px;" x="225" y="457">CAD</text>
  <rect height="13" style="fill:rgb(255,255,255);stroke:none;" width="39" x="225" y="461"/>
  <text style="fill:rgb(128,128,128);stroke:none;font-size:13px;" x="225" y="474">GCDH</text>
  <rect height="13" style="fill:rgb(255,255,255);stroke:none;" width="38" x="225" y="478"/>
  <text style="fill:rgb(128,128,128);stroke:none;font-size:13px;" x="225" y="491">GPAM</text>
  <rect height="13" style="fill:rgb(255,255,255);stroke:none;" width="41" x="225" y="495"/>
  <text style="fill:rgb(128,128,128);stroke:none;font-size:13px;" x="225" y="508">CTPS1</text>
  <rect height="13" style="fill:rgb(255,255,255);stroke:none;" width="42" x="225" y="512"/>
  <text style="fill:rgb(128,128,128);stroke:none;font-size:13px;" x="225" y="525">ACSL3</text>
  <rect height="13" style="fill:rgb(255,255,255);stroke:none;" width="58" x="225" y="529"/>
  <text style="fill:rgb(128,128,128);stroke:none;font-size:13px;" x="225" y="542">SLC35B3</text>
  <rect height="13" style="fill:rgb(255,255,255);stroke:none;" width="59" x="225" y="546"/>
  <text style="fill:rgb(128,128,128);stroke:none;font-size:13px;" x="225" y="559">PLA2G4A</text>
  <rect height="13" style="fill:rgb(255,255,255);stroke:none;" width="31" x="239" y="563"/>
  <text style="fill:rgb(128,128,128);stroke:none;font-size:13px;" x="239" y="576">PIGO</text>
  <rect height="13" style="fill:rgb(255,255,255);stroke:none;" width="30" x="239" y="580"/>
  <text style="fill:rgb(128,128,128);stroke:none;font-size:13px;" x="239" y="593">PIGV</text>
  <rect height="13" style="fill:rgb(255,255,255);stroke:none;" width="36" x="239" y="597"/>
  <text style="fill:rgb(128,128,128);stroke:none;font-size:13px;" x="239" y="610">CHKA</text>
  <rect height="13" style="fill:rgb(255,255,255);stroke:none;" width="37" x="239" y="614"/>
  <text style="fill:rgb(128,128,128);stroke:none;font-size:13px;" x="239" y="627">NME7</text>
  <rect height="13" style="fill:rgb(255,255,255);stroke:none;" width="50" x="239" y="631"/>
  <text style="fill:rgb(128,128,128);stroke:none;font-size:13px;" x="239" y="644">DHODH</text>
  <rect height="13" style="fill:rgb(255,255,255);stroke:none;" width="28" x="254" y="648"/>
  <text style="fill:rgb(128,128,128);stroke:none;font-size:13px;" x="254" y="661">ADA</text>
  <rect height="13" style="fill:rgb(255,255,255);stroke:none;" width="29" x="254" y="665"/>
  <text style="fill:rgb(128,128,128);stroke:none;font-size:13px;" x="254" y="678">PIGP</text>
  <rect height="13" style="fill:rgb(255,255,255);stroke:none;" width="36" x="254" y="682"/>
  <text style="fill:rgb(128,128,128);stroke:none;font-size:13px;" x="254" y="695">CHKB</text>
  <rect height="13" style="fill:rgb(255,255,255);stroke:none;" width="28" x="254" y="699"/>
  <text style="fill:rgb(128,128,128);stroke:none;font-size:13px;" x="254" y="712">PIGF</text>
  <rect height="13" style="fill:rgb(255,255,255);stroke:none;" width="46" x="254" y="716"/>
  <text style="fill:rgb(128,128,128);stroke:none;font-size:13px;" x="254" y="729">ABHD3</text>
  <rect height="13" style="fill:rgb(255,255,255);stroke:none;" width="33" x="268" y="733"/>
  <text style="fill:rgb(128,128,128);stroke:none;font-size:13px;" x="268" y="746">QPRT</text>
  <rect height="13" style="fill:rgb(255,255,255);stroke:none;" width="31" x="268" y="750"/>
  <text style="fill:rgb(128,128,128);stroke:none;font-size:13px;" x="268" y="763">XYLB</text>
  <rect height="13" style="fill:rgb(255,255,255);stroke:none;" width="58" x="268" y="767"/>
  <text style="fill:rgb(128,128,128);stroke:none;font-size:13px;" x="268" y="780">SLC27A1</text>
  <rect height="10" style="fill:rgb(255,255,255);stroke:none;" width="28" x="297" y="783"/>
  <text style="fill:rgb(128,128,128);stroke:none;font-size:10px;" x="297" y="793">NPR2</text>
  <rect height="10" style="fill:rgb(255,255,255);stroke:none;" width="28" x="297" y="796"/>
  <text style="fill:rgb(128,128,128);stroke:none;font-size:10px;" x="297" y="806">PDK4</text>
  <rect height="10" style="fill:rgb(255,255,255);stroke:none;" width="36" x="297" y="809"/>
  <text style="fill:rgb(128,128,128);stroke:none;font-size:10px;" x="297" y="819">SOCS2</text>
  <rect height="10" style="fill:rgb(255,255,255);stroke:none;" width="31" x="327" y="822"/>
  <text style="fill:rgb(128,128,128);stroke:none;font-size:10px;" x="327" y="832">TTC7B</text>
  <rect height="10" style="fill:rgb(255,255,255);stroke:none;" width="40" x="327" y="835"/>
  <text style="fill:rgb(128,128,128);stroke:none;font-size:10px;" x="327" y="845">ELOVL6</text>
  <rect height="10" style="fill:rgb(255,255,255);stroke:none;" width="30" x="356" y="848"/>
  <text style="fill:rgb(128,128,128);stroke:none;font-size:10px;" x="356" y="858">NNMT</text>
</svg>
