<?xml version="1.0" encoding="UTF-8" standalone="no"?>
<!DOCTYPE svg PUBLIC "-//W3C//DTD SVG 1.1//EN" "http://www.w3.org/Graphics/SVG/1.1/DTD/svg11.dtd">
<svg xmlns:xlink="http://www.w3.org/1999/xlink" height="158.74999999999997mm" version="1.1" viewBox="0 0 500 600" width="132.29166666666666mm" x="0mm" y="0mm" xmlns="http://www.w3.org/2000/svg">
  <rect height="1200" style="fill:rgb(255,255,255);stroke:none;" width="1000" x="0" y="0"/>
  <rect height="240" style="fill:rgb(191,191,191);fill-opacity:0.4980392156862745;stroke:none;" width="175" x="225" y="60"/>
  <line style="fill:none;stroke:rgb(63,63,191);stroke-opacity:0.24705882352941178;stroke-miterlimit:10;stroke-linecap:square;" x1="50" x2="50" y1="300" y2="300"/>
  <line style="fill:none;stroke:rgb(63,63,191);stroke-opacity:0.24705882352941178;stroke-miterlimit:10;stroke-linecap:square;" x1="50" x2="64" y1="300" y2="290"/>
  <line style="fill:none;stroke:rgb(63,63,191);stroke-opacity:0.24705882352941178;stroke-miterlimit:10;stroke-linecap:square;" x1="64" x2="79" y1="290" y2="280"/>
  <line style="fill:none;stroke:rgb(63,63,191);stroke-opacity:0.24705882352941178;stroke-miterlimit:10;stroke-linecap:square;" x1="79" x2="93" y1="280" y2="270"/>
  <line style="fill:none;stroke:rgb(63,63,191);stroke-opacity:0.24705882352941178;stroke-miterlimit:10;stroke-linecap:square;" x1="93" x2="108" y1="270" y2="260"/>
  <line style="fill:none;stroke:rgb(63,63,191);stroke-opacity:0.24705882352941178;stroke-miterlimit:10;stroke-linecap:square;" x1="108" x2="122" y1="260" y2="250"/>
  <line style="fill:none;stroke:rgb(63,63,191);stroke-opacity:0.24705882352941178;stroke-miterlimit:10;stroke-linecap:square;" x1="122" x2="137" y1="250" y2="240"/>
  <line style="fill:none;stroke:rgb(63,63,191);stroke-opacity:0.24705882352941178;stroke-miterlimit:10;stroke-linecap:square;" x1="137" x2="152" y1="240" y2="230"/>
  <line style="fill:none;stroke:rgb(63,63,191);stroke-opacity:0.24705882352941178;stroke-miterlimit:10;stroke-linecap:square;" x1="152" x2="166" y1="230" y2="220"/>
  <line style="fill:none;stroke:rgb(63,63,191);stroke-opacity:0.24705882352941178;stroke-miterlimit:10;stroke-linecap:square;" x1="166" x2="181" y1="220" y2="210"/>
  <line style="fill:none;stroke:rgb(63,63,191);stroke-opacity:0.24705882352941178;stroke-miterlimit:10;stroke-linecap:square;" x1="181" x2="195" y1="210" y2="200"/>
  <line style="fill:none;stroke:rgb(63,63,191);stroke-opacity:0.24705882352941178;stroke-miterlimit:10;stroke-linecap:square;" x1="195" x2="210" y1="200" y2="190"/>
  <line style="fill:none;stroke:rgb(63,63,191);stroke-opacity:0.24705882352941178;stroke-miterlimit:10;stroke-linecap:square;" x1="210" x2="225" y1="190" y2="180"/>
  <line style="fill:none;stroke:rgb(63,63,191);stroke-opacity:0.24705882352941178;stroke-miterlimit:10;stroke-linecap:square;" x1="225" x2="239" y1="180" y2="170"/>
  <line style="fill:none;stroke:rgb(63,63,191);stroke-opacity:0.24705882352941178;stroke-miterlimit:10;stroke-linecap:square;" x1="239" x2="254" y1="170" y2="160"/>
  <line style="fill:none;stroke:rgb(63,63,191);stroke-opacity:0.24705882352941178;stroke-miterlimit:10;stroke-linecap:square;" x1="254" x2="268" y1="160" y2="150"/>
  <line style="fill:none;stroke:rgb(63,63,191);stroke-opacity:0.24705882352941178;stroke-miterlimit:10;stroke-linecap:square;" x1="268" x2="283" y1="150" y2="140"/>
  <line style="fill:none;stroke:rgb(63,63,191);stroke-opacity:0.24705882352941178;stroke-miterlimit:10;stroke-linecap:square;" x1="283" x2="297" y1="140" y2="130"/>
  <line style="fill:none;stroke:rgb(63,63,191);stroke-opacity:0.24705882352941178;stroke-miterlimit:10;stroke-linecap:square;" x1="297" x2="312" y1="130" y2="120"/>
  <line style="fill:none;stroke:rgb(63,63,191);stroke-opacity:0.24705882352941178;stroke-miterlimit:10;stroke-linecap:square;" x1="312" x2="327" y1="120" y2="110"/>
  <line style="fill:none;stroke:rgb(63,63,191);stroke-opacity:0.24705882352941178;stroke-miterlimit:10;stroke-linecap:square;" x1="327" x2="341" y1="110" y2="100"/>
  <line style="fill:none;stroke:rgb(63,63,191);stroke-opacity:0.24705882352941178;stroke-miterlimit:10;stroke-linecap:square;" x1="341" x2="356" y1="100" y2="90"/>
  <line style="fill:none;stroke:rgb(63,63,191);stroke-opacity:0.24705882352941178;stroke-miterlimit:10;stroke-linecap:square;" x1="356" x2="370" y1="90" y2="80"/>
  <line style="fill:none;stroke:rgb(63,63,191);stroke-opacity:0.24705882352941178;stroke-miterlimit:10;stroke-linecap:square;" x1="370" x2="385" y1="80" y2="70"/>
  <line style="fill:none;stroke:rgb(63,63,191);stroke-opacity:0.24705882352941178;stroke-miterlimit:10;stroke-linecap:square;" x1="385" x2="400" y1="70" y2="60"/>
  <line style="fill:none;stroke:rgb(63,63,191);stroke-opacity:0.24705882352941178;stroke-miterlimit:10;stroke-linecap:square;" x1="400" x2="400" y1="60" y2="60"/>
  <rect height="4" style="fill:rgb(255,127,0);fill-opacity:0.7490196078431373;stroke:none;" width="4" x="48" y="295"/>
  <line style="fill:none;stroke:rgb(255,127,0);stroke-opacity:0.24705882352941178;stroke-width:2;stroke-miterlimit:10;stroke-linecap:square;" x1="50" x2="50" y1="300" y2="300"/>
  <line style="fill:none;stroke:rgb(255,127,0);stroke-opacity:0.24705882352941178;stroke-width:2;stroke-miterlimit:10;stroke-linecap:square;" x1="50" x2="50" y1="298" y2="297"/>
  <rect height="8" style="fill:rgb(255,127,0);fill-opacity:0.7490196078431373;stroke:none;" width="4" x="77" y="291"/>
  <line style="fill:none;stroke:rgb(255,127,0);stroke-opacity:0.24705882352941178;stroke-width:2;stroke-miterlimit:10;stroke-linecap:square;" x1="50" x2="79" y1="295" y2="295"/>
  <line style="fill:none;stroke:rgb(255,127,0);stroke-opacity:0.24705882352941178;stroke-width:2;stroke-miterlimit:10;stroke-linecap:square;" x1="79" x2="79" y1="293" y2="289"/>
  <rect height="20" style="fill:rgb(255,127,0);fill-opacity:0.7490196078431373;stroke:none;" width="4" x="91" y="279"/>
  <line style="fill:none;stroke:rgb(255,127,0);stroke-opacity:0.24705882352941178;stroke-width:2;stroke-miterlimit:10;stroke-linecap:square;" x1="79" x2="93" y1="287" y2="287"/>
  <line style="fill:none;stroke:rgb(255,127,0);stroke-opacity:0.24705882352941178;stroke-width:2;stroke-miterlimit:10;stroke-linecap:square;" x1="93" x2="93" y1="285" y2="268"/>
  <rect height="12" style="fill:rgb(255,127,0);fill-opacity:0.7490196078431373;stroke:none;" width="4" x="106" y="287"/>
  <line style="fill:none;stroke:rgb(255,127,0);stroke-opacity:0.24705882352941178;stroke-width:2;stroke-miterlimit:10;stroke-linecap:square;" x1="93" x2="108" y1="266" y2="266"/>
  <line style="fill:none;stroke:rgb(255,127,0);stroke-opacity:0.24705882352941178;stroke-width:2;stroke-miterlimit:10;stroke-linecap:square;" x1="108" x2="108" y1="264" y2="256"/>
  <rect height="16" style="fill:rgb(255,127,0);fill-opacity:0.7490196078431373;stroke:none;" width="4" x="120" y="283"/>
  <line style="fill:none;stroke:rgb(255,127,0);stroke-opacity:0.24705882352941178;stroke-width:2;stroke-miterlimit:10;stroke-linecap:square;" x1="108" x2="122" y1="254" y2="254"/>
  <line style="fill:none;stroke:rgb(255,127,0);stroke-opacity:0.24705882352941178;stroke-width:2;stroke-miterlimit:10;stroke-linecap:square;" x1="122" x2="122" y1="252" y2="239"/>
  <rect height="8" style="fill:rgb(255,127,0);fill-opacity:0.7490196078431373;stroke:none;" width="4" x="135" y="291"/>
  <line style="fill:none;stroke:rgb(255,127,0);stroke-opacity:0.24705882352941178;stroke-width:2;stroke-miterlimit:10;stroke-linecap:square;" x1="122" x2="137" y1="237" y2="237"/>
  <line style="fill:none;stroke:rgb(255,127,0);stroke-opacity:0.24705882352941178;stroke-width:2;stroke-miterlimit:10;stroke-linecap:square;" x1="137" x2="137" y1="235" y2="231"/>
  <rect height="8" style="fill:rgb(255,127,0);fill-opacity:0.7490196078431373;stroke:none;" width="4" x="150" y="291"/>
  <line style="fill:none;stroke:rgb(255,127,0);stroke-opacity:0.24705882352941178;stroke-width:2;stroke-miterlimit:10;stroke-linecap:square;" x1="137" x2="152" y1="229" y2="229"/>
  <line style="fill:none;stroke:rgb(255,127,0);stroke-opacity:0.24705882352941178;stroke-width:2;stroke-miterlimit:10;stroke-linecap:square;" x1="152" x2="152" y1="227" y2="223"/>
  <rect height="4" style="fill:rgb(255,127,0);fill-opacity:0.7490196078431373;stroke:none;" width="4" x="179" y="295"/>
  <line style="fill:none;stroke:rgb(255,127,0);stroke-opacity:0.24705882352941178;stroke-width:2;stroke-miterlimit:10;stroke-linecap:square;" x1="152" x2="181" y1="221" y2="221"/>
  <line style="fill:none;stroke:rgb(255,127,0);stroke-opacity:0.24705882352941178;stroke-width:2;stroke-miterlimit:10;stroke-linecap:square;" x1="181" x2="181" y1="219" y2="219"/>
  <rect height="16" style="fill:rgb(255,127,0);fill-opacity:0.7490196078431373;stroke:none;" width="4" x="193" y="283"/>
  <line style="fill:none;stroke:rgb(255,127,0);stroke-opacity:0.24705882352941178;stroke-width:2;stroke-miterlimit:10;stroke-linecap:square;" x1="181" x2="195" y1="217" y2="217"/>
  <line style="fill:none;stroke:rgb(255,127,0);stroke-opacity:0.24705882352941178;stroke-width:2;stroke-miterlimit:10;stroke-linecap:square;" x1="195" x2="195" y1="215" y2="202"/>
  <rect height="12" style="fill:rgb(255,127,0);fill-opacity:0.7490196078431373;stroke:none;" width="4" x="208" y="287"/>
  <line style="fill:none;stroke:rgb(255,127,0);stroke-opacity:0.24705882352941178;stroke-width:2;stroke-miterlimit:10;stroke-linecap:square;" x1="195" x2="210" y1="200" y2="200"/>
  <line style="fill:none;stroke:rgb(255,127,0);stroke-opacity:0.24705882352941178;stroke-width:2;stroke-miterlimit:10;stroke-linecap:square;" x1="210" x2="210" y1="198" y2="190"/>
  <rect height="12" style="fill:rgb(255,127,0);fill-opacity:0.7490196078431373;stroke:none;" width="4" x="223" y="287"/>
  <line style="fill:none;stroke:rgb(255,127,0);stroke-opacity:0.24705882352941178;stroke-width:2;stroke-miterlimit:10;stroke-linecap:square;" x1="210" x2="225" y1="188" y2="188"/>
  <line style="fill:none;stroke:rgb(255,127,0);stroke-opacity:0.24705882352941178;stroke-width:2;stroke-miterlimit:10;stroke-linecap:square;" x1="225" x2="225" y1="186" y2="177"/>
  <rect height="33" style="fill:rgb(255,127,0);fill-opacity:0.7490196078431373;stroke:none;" width="4" x="237" y="266"/>
  <line style="fill:none;stroke:rgb(255,127,0);stroke-opacity:0.24705882352941178;stroke-width:2;stroke-miterlimit:10;stroke-linecap:square;" x1="225" x2="239" y1="175" y2="175"/>
  <line style="fill:none;stroke:rgb(255,127,0);stroke-opacity:0.24705882352941178;stroke-width:2;stroke-miterlimit:10;stroke-linecap:square;" x1="239" x2="239" y1="173" y2="144"/>
  <rect height="24" style="fill:rgb(255,127,0);fill-opacity:0.7490196078431373;stroke:none;" width="4" x="252" y="275"/>
  <line style="fill:none;stroke:rgb(255,127,0);stroke-opacity:0.24705882352941178;stroke-width:2;stroke-miterlimit:10;stroke-linecap:square;" x1="239" x2="254" y1="142" y2="142"/>
  <line style="fill:none;stroke:rgb(255,127,0);stroke-opacity:0.24705882352941178;stroke-width:2;stroke-miterlimit:10;stroke-linecap:square;" x1="254" x2="254" y1="140" y2="119"/>
  <rect height="8" style="fill:rgb(255,127,0);fill-opacity:0.7490196078431373;stroke:none;" width="4" x="266" y="291"/>
  <line style="fill:none;stroke:rgb(255,127,0);stroke-opacity:0.24705882352941178;stroke-width:2;stroke-miterlimit:10;stroke-linecap:square;" x1="254" x2="268" y1="117" y2="117"/>
  <line style="fill:none;stroke:rgb(255,127,0);stroke-opacity:0.24705882352941178;stroke-width:2;stroke-miterlimit:10;stroke-linecap:square;" x1="268" x2="268" y1="115" y2="111"/>
  <rect height="24" style="fill:rgb(255,127,0);fill-opacity:0.7490196078431373;stroke:none;" width="4" x="281" y="275"/>
  <line style="fill:none;stroke:rgb(255,127,0);stroke-opacity:0.24705882352941178;stroke-width:2;stroke-miterlimit:10;stroke-linecap:square;" x1="268" x2="283" y1="109" y2="109"/>
  <line style="fill:none;stroke:rgb(255,127,0);stroke-opacity:0.24705882352941178;stroke-width:2;stroke-miterlimit:10;stroke-linecap:square;" x1="283" x2="283" y1="107" y2="86"/>
  <rect height="12" style="fill:rgb(255,127,0);fill-opacity:0.7490196078431373;stroke:none;" width="4" x="295" y="287"/>
  <line style="fill:none;stroke:rgb(255,127,0);stroke-opacity:0.24705882352941178;stroke-width:2;stroke-miterlimit:10;stroke-linecap:square;" x1="283" x2="297" y1="84" y2="84"/>
  <line style="fill:none;stroke:rgb(255,127,0);stroke-opacity:0.24705882352941178;stroke-width:2;stroke-miterlimit:10;stroke-linecap:square;" x1="297" x2="297" y1="82" y2="74"/>
  <rect height="4" style="fill:rgb(255,127,0);fill-opacity:0.7490196078431373;stroke:none;" width="4" x="325" y="295"/>
  <line style="fill:none;stroke:rgb(255,127,0);stroke-opacity:0.24705882352941178;stroke-width:2;stroke-miterlimit:10;stroke-linecap:square;" x1="297" x2="327" y1="72" y2="72"/>
  <line style="fill:none;stroke:rgb(255,127,0);stroke-opacity:0.24705882352941178;stroke-width:2;stroke-miterlimit:10;stroke-linecap:square;" x1="327" x2="327" y1="70" y2="70"/>
  <rect height="4" style="fill:rgb(255,127,0);fill-opacity:0.7490196078431373;stroke:none;" width="4" x="339" y="295"/>
  <line style="fill:none;stroke:rgb(255,127,0);stroke-opacity:0.24705882352941178;stroke-width:2;stroke-miterlimit:10;stroke-linecap:square;" x1="327" x2="341" y1="68" y2="68"/>
  <line style="fill:none;stroke:rgb(255,127,0);stroke-opacity:0.24705882352941178;stroke-width:2;stroke-miterlimit:10;stroke-linecap:square;" x1="341" x2="341" y1="66" y2="66"/>
  <rect height="4" style="fill:rgb(255,127,0);fill-opacity:0.7490196078431373;stroke:none;" width="4" x="368" y="295"/>
  <line style="fill:none;stroke:rgb(255,127,0);stroke-opacity:0.24705882352941178;stroke-width:2;stroke-miterlimit:10;stroke-linecap:square;" x1="341" x2="370" y1="64" y2="64"/>
  <line style="fill:none;stroke:rgb(255,127,0);stroke-opacity:0.24705882352941178;stroke-width:2;stroke-miterlimit:10;stroke-linecap:square;" x1="370" x2="370" y1="62" y2="62"/>
  <line style="fill:none;stroke:rgb(255,127,0);stroke-opacity:0.24705882352941178;stroke-width:2;stroke-miterlimit:10;stroke-linecap:square;" x1="370" x2="400" y1="60" y2="60"/>
  <line style="fill:none;stroke:rgb(255,127,0);stroke-opacity:0.4980392156862745;stroke-miterlimit:2;stroke-dasharray:2;" x1="50" x2="50" y1="300" y2="350"/>
  <line style="fill:none;stroke:rgb(255,127,0);stroke-opacity:0.4980392156862745;stroke-miterlimit:2;stroke-dasharray:2;" x1="79" x2="79" y1="300" y2="363"/>
  <line style="fill:none;stroke:rgb(255,127,0);stroke-opacity:0.4980392156862745;stroke-miterlimit:2;stroke-dasharray:2;" x1="79" x2="79" y1="300" y2="376"/>
  <line style="fill:none;stroke:rgb(255,127,0);stroke-opacity:0.4980392156862745;stroke-miterlimit:2;stroke-dasharray:2;" x1="93" x2="93" y1="300" y2="389"/>
  <line style="fill:none;stroke:rgb(255,127,0);stroke-opacity:0.4980392156862745;stroke-miterlimit:2;stroke-dasharray:2;" x1="93" x2="93" y1="300" y2="402"/>
  <line style="fill:none;stroke:rgb(255,127,0);stroke-opacity:0.4980392156862745;stroke-miterlimit:2;stroke-dasharray:2;" x1="93" x2="93" y1="300" y2="415"/>
  <line style="fill:none;stroke:rgb(255,127,0);stroke-opacity:0.4980392156862745;stroke-miterlimit:2;stroke-dasharray:2;" x1="93" x2="93" y1="300" y2="428"/>
  <line style="fill:none;stroke:rgb(255,127,0);stroke-opacity:0.4980392156862745;stroke-miterlimit:2;stroke-dasharray:2;" x1="93" x2="93" y1="300" y2="441"/>
  <line style="fill:none;stroke:rgb(255,127,0);stroke-opacity:0.4980392156862745;stroke-miterlimit:2;stroke-dasharray:2;" x1="108" x2="108" y1="300" y2="454"/>
  <line style="fill:none;stroke:rgb(255,127,0);stroke-opacity:0.4980392156862745;stroke-miterlimit:2;stroke-dasharray:2;" x1="108" x2="108" y1="300" y2="467"/>
  <line style="fill:none;stroke:rgb(255,127,0);stroke-opacity:0.4980392156862745;stroke-miterlimit:2;stroke-dasharray:2;" x1="108" x2="108" y1="300" y2="480"/>
  <line style="fill:none;stroke:rgb(255,127,0);stroke-opacity:0.4980392156862745;stroke-miterlimit:2;stroke-dasharray:2;" x1="122" x2="122" y1="300" y2="493"/>
  <line style="fill:none;stroke:rgb(255,127,0);stroke-opacity:0.4980392156862745;stroke-miterlimit:2;stroke-dasharray:2;" x1="122" x2="122" y1="300" y2="506"/>
  <line style="fill:none;stroke:rgb(255,127,0);stroke-opacity:0.4980392156862745;stroke-miterlimit:2;stroke-dasharray:2;" x1="122" x2="122" y1="300" y2="519"/>
  <line style="fill:none;stroke:rgb(255,127,0);stroke-opacity:0.4980392156862745;stroke-miterlimit:2;stroke-dasharray:2;" x1="122" x2="122" y1="300" y2="532"/>
  <line style="fill:none;stroke:rgb(255,127,0);stroke-opacity:0.4980392156862745;stroke-miterlimit:2;stroke-dasharray:2;" x1="137" x2="137" y1="300" y2="545"/>
  <line style="fill:none;stroke:rgb(255,127,0);stroke-opacity:0.4980392156862745;stroke-miterlimit:2;stroke-dasharray:2;" x1="137" x2="137" y1="300" y2="558"/>
  <line style="fill:none;stroke:rgb(255,127,0);stroke-opacity:0.4980392156862745;stroke-miterlimit:2;stroke-dasharray:2;" x1="152" x2="152" y1="300" y2="571"/>
  <line style="fill:none;stroke:rgb(255,127,0);stroke-opacity:0.4980392156862745;stroke-miterlimit:2;stroke-dasharray:2;" x1="152" x2="152" y1="300" y2="584"/>
  <line style="fill:none;stroke:rgb(255,127,0);stroke-opacity:0.4980392156862745;stroke-miterlimit:2;stroke-dasharray:2;" x1="181" x2="181" y1="300" y2="597"/>
  <line style="fill:none;stroke:rgb(255,127,0);stroke-opacity:0.4980392156862745;stroke-miterlimit:2;stroke-dasharray:2;" x1="195" x2="195" y1="300" y2="612"/>
  <line style="fill:none;stroke:rgb(255,127,0);stroke-opacity:0.4980392156862745;stroke-miterlimit:2;stroke-dasharray:2;" x1="195" x2="195" y1="300" y2="627"/>
  <line style="fill:none;stroke:rgb(255,127,0);stroke-opacity:0.4980392156862745;stroke-miterlimit:2;stroke-dasharray:2;" x1="195" x2="195" y1="300" y2="642"/>
  <line style="fill:none;stroke:rgb(255,127,0);stroke-opacity:0.4980392156862745;stroke-miterlimit:2;stroke-dasharray:2;" x1="195" x2="195" y1="300" y2="657"/>
  <line style="fill:none;stroke:rgb(255,127,0);stroke-opacity:0.4980392156862745;stroke-miterlimit:2;stroke-dasharray:2;" x1="210" x2="210" y1="300" y2="672"/>
  <line style="fill:none;stroke:rgb(255,127,0);stroke-opacity:0.4980392156862745;stroke-miterlimit:2;stroke-dasharray:2;" x1="210" x2="210" y1="300" y2="687"/>
  <line style="fill:none;stroke:rgb(255,127,0);stroke-opacity:0.4980392156862745;stroke-miterlimit:2;stroke-dasharray:2;" x1="210" x2="210" y1="300" y2="702"/>
  <line style="fill:none;stroke:rgb(255,127,0);stroke-opacity:0.4980392156862745;stroke-miterlimit:2;stroke-dasharray:2;" x1="225" x2="225" y1="300" y2="717"/>
  <line style="fill:none;stroke:rgb(255,127,0);stroke-opacity:0.4980392156862745;stroke-miterlimit:2;stroke-dasharray:2;" x1="225" x2="225" y1="300" y2="732"/>
  <line style="fill:none;stroke:rgb(255,127,0);stroke-opacity:0.4980392156862745;stroke-miterlimit:2;stroke-dasharray:2;" x1="225" x2="225" y1="300" y2="747"/>
  <line style="fill:none;stroke:rgb(255,127,0);stroke-opacity:0.4980392156862745;stroke-miterlimit:2;stroke-dasharray:2;" x1="239" x2="239" y1="300" y2="762"/>
  <line style="fill:none;stroke:rgb(255,127,0);stroke-opacity:0.4980392156862745;stroke-miterlimit:2;stroke-dasharray:2;" x1="239" x2="239" y1="300" y2="777"/>
  <line style="fill:none;stroke:rgb(255,127,0);stroke-opacity:0.4980392156862745;stroke-miterlimit:2;stroke-dasharray:2;" x1="239" x2="239" y1="300" y2="792"/>
  <line style="fill:none;stroke:rgb(255,127,0);stroke-opacity:0.4980392156862745;stroke-miterlimit:2;stroke-dasharray:2;" x1="239" x2="239" y1="300" y2="807"/>
  <line style="fill:none;stroke:rgb(255,127,0);stroke-opacity:0.4980392156862745;stroke-miterlimit:2;stroke-dasharray:2;" x1="239" x2="239" y1="300" y2="822"/>
  <line style="fill:none;stroke:rgb(255,127,0);stroke-opacity:0.4980392156862745;stroke-miterlimit:2;stroke-dasharray:2;" x1="239" x2="239" y1="300" y2="837"/>
  <line style="fill:none;stroke:rgb(255,127,0);stroke-opacity:0.4980392156862745;stroke-miterlimit:2;stroke-dasharray:2;" x1="239" x2="239" y1="300" y2="852"/>
  <line style="fill:none;stroke:rgb(255,127,0);stroke-opacity:0.4980392156862745;stroke-miterlimit:2;stroke-dasharray:2;" x1="239" x2="239" y1="300" y2="867"/>
  <line style="fill:none;stroke:rgb(255,127,0);stroke-opacity:0.4980392156862745;stroke-miterlimit:2;stroke-dasharray:2;" x1="254" x2="254" y1="300" y2="882"/>
  <line style="fill:none;stroke:rgb(255,127,0);stroke-opacity:0.4980392156862745;stroke-miterlimit:2;stroke-dasharray:2;" x1="254" x2="254" y1="300" y2="897"/>
  <line style="fill:none;stroke:rgb(255,127,0);stroke-opacity:0.4980392156862745;stroke-miterlimit:2;stroke-dasharray:2;" x1="254" x2="254" y1="300" y2="912"/>
  <line style="fill:none;stroke:rgb(255,127,0);stroke-opacity:0.4980392156862745;stroke-miterlimit:2;stroke-dasharray:2;" x1="254" x2="254" y1="300" y2="927"/>
  <line style="fill:none;stroke:rgb(255,127,0);stroke-opacity:0.4980392156862745;stroke-miterlimit:2;stroke-dasharray:2;" x1="254" x2="254" y1="300" y2="942"/>
  <line style="fill:none;stroke:rgb(255,127,0);stroke-opacity:0.4980392156862745;stroke-miterlimit:2;stroke-dasharray:2;" x1="254" x2="254" y1="300" y2="957"/>
  <line style="fill:none;stroke:rgb(255,127,0);stroke-opacity:0.4980392156862745;stroke-miterlimit:2;stroke-dasharray:2;" x1="268" x2="268" y1="300" y2="972"/>
  <line style="fill:none;stroke:rgb(255,127,0);stroke-opacity:0.4980392156862745;stroke-miterlimit:2;stroke-dasharray:2;" x1="268" x2="268" y1="300" y2="987"/>
  <line style="fill:none;stroke:rgb(255,127,0);stroke-opacity:0.4980392156862745;stroke-miterlimit:2;stroke-dasharray:2;" x1="283" x2="283" y1="300" y2="1002"/>
  <line style="fill:none;stroke:rgb(255,127,0);stroke-opacity:0.4980392156862745;stroke-miterlimit:2;stroke-dasharray:2;" x1="283" x2="283" y1="300" y2="1017"/>
  <line style="fill:none;stroke:rgb(255,127,0);stroke-opacity:0.4980392156862745;stroke-miterlimit:2;stroke-dasharray:2;" x1="283" x2="283" y1="300" y2="1032"/>
  <line style="fill:none;stroke:rgb(255,127,0);stroke-opacity:0.4980392156862745;stroke-miterlimit:2;stroke-dasharray:2;" x1="283" x2="283" y1="300" y2="1047"/>
  <line style="fill:none;stroke:rgb(255,127,0);stroke-opacity:0.4980392156862745;stroke-miterlimit:2;stroke-dasharray:2;" x1="283" x2="283" y1="300" y2="1062"/>
  <line style="fill:none;stroke:rgb(255,127,0);stroke-opacity:0.4980392156862745;stroke-miterlimit:2;stroke-dasharray:2;" x1="283" x2="283" y1="300" y2="1077"/>
  <line style="fill:none;stroke:rgb(255,127,0);stroke-opacity:0.4980392156862745;stroke-miterlimit:2;stroke-dasharray:2;" x1="297" x2="297" y1="300" y2="1091"/>
  <line style="fill:none;stroke:rgb(255,127,0);stroke-opacity:0.4980392156862745;stroke-miterlimit:2;stroke-dasharray:2;" x1="297" x2="297" y1="300" y2="1105"/>
  <line style="fill:none;stroke:rgb(255,127,0);stroke-opacity:0.4980392156862745;stroke-miterlimit:2;stroke-dasharray:2;" x1="297" x2="297" y1="300" y2="1119"/>
  <line style="fill:none;stroke:rgb(255,127,0);stroke-opacity:0.4980392156862745;stroke-miterlimit:2;stroke-dasharray:2;" x1="327" x2="327" y1="300" y2="1132"/>
  <line style="fill:none;stroke:rgb(255,127,0);stroke-opacity:0.4980392156862745;stroke-miterlimit:2;stroke-dasharray:2;" x1="341" x2="341" y1="300" y2="1145"/>
  <line style="fill:none;stroke:rgb(255,127,0);stroke-opacity:0.4980392156862745;stroke-miterlimit:2;stroke-dasharray:2;" x1="370" x2="370" y1="300" y2="1158"/>
  <line style="fill:none;stroke:rgb(0,0,0);stroke-width:2;stroke-miterlimit:10;stroke-linecap:square;" x1="48" x2="48" y1="60" y2="300"/>
  <line style="fill:none;stroke:rgb(0,0,0);stroke-width:2;stroke-miterlimit:10;stroke-linecap:square;" x1="48" x2="402" y1="300" y2="300"/>
  <rect height="30" style="fill:rgb(255,255,255);stroke:none;" width="17" x="42" y="308"/>
  <text style="fill:rgb(0,0,0);stroke:none;font-size:25px;font-weight:bold;" x="42" y="332">0</text>
  <rect height="30" style="fill:rgb(255,255,255);stroke:none;" width="34" x="383" y="308"/>
  <text style="fill:rgb(0,0,0);stroke:none;font-size:25px;font-weight:bold;" x="383" y="332">24</text>
  <text style="fill:rgb(0,0,0);stroke:none;font-size:25px;font-weight:bold;" x="25" y="312">0</text>
  <text style="fill:rgb(0,0,0);stroke:none;font-size:25px;font-weight:bold;" x="25" y="72">1</text>
  <text style="fill:rgb(0,0,0);stroke:none;font-size:14px;font-weight:bold;" x="14" y="36">GOBP_CARBOHYDRATE_DERIVATIVE_BIOSYNTHETIC_PROCESS</text>
  <rect height="10" style="fill:rgb(255,255,255);stroke:none;" width="36" x="50" y="340"/>
  <text style="fill:rgb(128,128,128);stroke:none;font-size:10px;" x="50" y="350">BMPR2</text>
  <rect height="10" style="fill:rgb(255,255,255);stroke:none;" width="45" x="79" y="353"/>
  <text style="fill:rgb(128,128,128);stroke:none;font-size:10px;" x="79" y="363">ST3GAL4</text>
  <rect height="10" style="fill:rgb(255,255,255);stroke:none;" width="57" x="79" y="366"/>
  <text style="fill:rgb(128,128,128);stroke:none;font-size:10px;" x="79" y="376">PPARGC1A</text>
  <rect height="10" style="fill:rgb(255,255,255);stroke:none;" width="22" x="93" y="379"/>
  <text style="fill:rgb(128,128,128);stroke:none;font-size:10px;" x="93" y="389">ADK</text>
  <rect height="10" style="fill:rgb(255,255,255);stroke:none;" width="28" x="93" y="392"/>
  <text style="fill:rgb(128,128,128);stroke:none;font-size:10px;" x="93" y="402">PDK1</text>
  <rect height="10" style="fill:rgb(255,255,255);stroke:none;" width="31" x="93" y="405"/>
  <text style="fill:rgb(128,128,128);stroke:none;font-size:10px;" x="93" y="415">FUT11</text>
  <rect height="10" style="fill:rgb(255,255,255);stroke:none;" width="36" x="93" y="418"/>
  <text style="fill:rgb(128,128,128);stroke:none;font-size:10px;" x="93" y="428">ADCY4</text>
  <rect height="10" style="fill:rgb(255,255,255);stroke:none;" width="46" x="93" y="431"/>
  <text style="fill:rgb(128,128,128);stroke:none;font-size:10px;" x="93" y="441">GALNT18</text>
  <rect height="10" style="fill:rgb(255,255,255);stroke:none;" width="31" x="108" y="444"/>
  <text style="fill:rgb(128,128,128);stroke:none;font-size:10px;" x="108" y="454">FMOD</text>
  <rect height="10" style="fill:rgb(255,255,255);stroke:none;" width="42" x="108" y="457"/>
  <text style="fill:rgb(128,128,128);stroke:none;font-size:10px;" x="108" y="467">MGAT4A</text>
  <rect height="10" style="fill:rgb(255,255,255);stroke:none;" width="46" x="108" y="470"/>
  <text style="fill:rgb(128,128,128);stroke:none;font-size:10px;" x="108" y="480">PRPS1L1</text>
  <rect height="10" style="fill:rgb(255,255,255);stroke:none;" width="34" x="122" y="483"/>
  <text style="fill:rgb(128,128,128);stroke:none;font-size:10px;" x="122" y="493">CHST3</text>
  <rect height="10" style="fill:rgb(255,255,255);stroke:none;" width="39" x="122" y="496"/>
  <text style="fill:rgb(128,128,128);stroke:none;font-size:10px;" x="122" y="506">HS2ST1</text>
  <rect height="10" style="fill:rgb(255,255,255);stroke:none;" width="40" x="122" y="509"/>
  <text style="fill:rgb(128,128,128);stroke:none;font-size:10px;" x="122" y="519">B3GNT3</text>
  <rect height="10" style="fill:rgb(255,255,255);stroke:none;" width="40" x="122" y="522"/>
  <text style="fill:rgb(128,128,128);stroke:none;font-size:10px;" x="122" y="532">UAP1L1</text>
  <rect height="10" style="fill:rgb(255,255,255);stroke:none;" width="25" x="137" y="535"/>
  <text style="fill:rgb(128,128,128);stroke:none;font-size:10px;" x="137" y="545">FUT3</text>
  <rect height="10" style="fill:rgb(255,255,255);stroke:none;" width="39" x="137" y="548"/>
  <text style="fill:rgb(128,128,128);stroke:none;font-size:10px;" x="137" y="558">HS3ST1</text>
  <rect height="10" style="fill:rgb(255,255,255);stroke:none;" width="28" x="152" y="561"/>
  <text style="fill:rgb(128,128,128);stroke:none;font-size:10px;" x="152" y="571">UPP1</text>
  <rect height="10" style="fill:rgb(255,255,255);stroke:none;" width="32" x="152" y="574"/>
  <text style="fill:rgb(128,128,128);stroke:none;font-size:10px;" x="152" y="584">TGFB1</text>
  <rect height="10" style="fill:rgb(255,255,255);stroke:none;" width="40" x="181" y="587"/>
  <text style="fill:rgb(128,128,128);stroke:none;font-size:10px;" x="181" y="597">B3GNT4</text>
  <rect height="12" style="fill:rgb(255,255,255);stroke:none;" width="30" x="195" y="600"/>
  <text style="fill:rgb(128,128,128);stroke:none;" x="195" y="612">FLCN</text>
  <rect height="12" style="fill:rgb(255,255,255);stroke:none;" width="31" x="195" y="615"/>
  <text style="fill:rgb(128,128,128);stroke:none;" x="195" y="627">ALG2</text>
  <rect height="12" style="fill:rgb(255,255,255);stroke:none;" width="33" x="195" y="630"/>
  <text style="fill:rgb(128,128,128);stroke:none;" x="195" y="642">HAS3</text>
  <rect height="12" style="fill:rgb(255,255,255);stroke:none;" width="54" x="195" y="645"/>
  <text style="fill:rgb(128,128,128);stroke:none;" x="195" y="657">ST3GAL2</text>
  <rect height="12" style="fill:rgb(255,255,255);stroke:none;" width="21" x="210" y="660"/>
  <text style="fill:rgb(128,128,128);stroke:none;" x="210" y="672">MPI</text>
  <rect height="12" style="fill:rgb(255,255,255);stroke:none;" width="34" x="210" y="675"/>
  <text style="fill:rgb(128,128,128);stroke:none;" x="210" y="687">RRM2</text>
  <rect height="12" style="fill:rgb(255,255,255);stroke:none;" width="43" x="210" y="690"/>
  <text style="fill:rgb(128,128,128);stroke:none;" x="210" y="702">AMPD2</text>
  <rect height="12" style="fill:rgb(255,255,255);stroke:none;" width="25" x="225" y="705"/>
  <text style="fill:rgb(128,128,128);stroke:none;" x="225" y="717">CAD</text>
  <rect height="12" style="fill:rgb(255,255,255);stroke:none;" width="35" x="225" y="720"/>
  <text style="fill:rgb(128,128,128);stroke:none;" x="225" y="732">GCDH</text>
  <rect height="12" style="fill:rgb(255,255,255);stroke:none;" width="39" x="225" y="735"/>
  <text style="fill:rgb(128,128,128);stroke:none;" x="225" y="747">CTPS1</text>
  <rect height="12" style="fill:rgb(255,255,255);stroke:none;" width="29" x="239" y="750"/>
  <text style="fill:rgb(128,128,128);stroke:none;" x="239" y="762">PIGO</text>
  <rect height="12" style="fill:rgb(255,255,255);stroke:none;" width="28" x="239" y="765"/>
  <text style="fill:rgb(128,128,128);stroke:none;" x="239" y="777">PIGV</text>
  <rect height="12" style="fill:rgb(255,255,255);stroke:none;" width="31" x="239" y="780"/>
  <text style="fill:rgb(128,128,128);stroke:none;" x="239" y="792">FUT2</text>
  <rect height="12" style="fill:rgb(255,255,255);stroke:none;" width="33" x="239" y="795"/>
  <text style="fill:rgb(128,128,128);stroke:none;" x="239" y="807">NAGK</text>
  <rect height="12" style="fill:rgb(255,255,255);stroke:none;" width="43" x="239" y="810"/>
  <text style="fill:rgb(128,128,128);stroke:none;" x="239" y="822">GMPPB</text>
  <rect height="12" style="fill:rgb(255,255,255);stroke:none;" width="38" x="239" y="825"/>
  <text style="fill:rgb(128,128,128);stroke:none;" x="239" y="837">ACSL3</text>
  <rect height="12" style="fill:rgb(255,255,255);stroke:none;" width="45" x="239" y="840"/>
  <text style="fill:rgb(128,128,128);stroke:none;" x="239" y="852">DHODH</text>
  <rect height="12" style="fill:rgb(255,255,255);stroke:none;" width="54" x="239" y="855"/>
  <text style="fill:rgb(128,128,128);stroke:none;" x="239" y="867">ST6GAL1</text>
  <rect height="12" style="fill:rgb(255,255,255);stroke:none;" width="25" x="254" y="870"/>
  <text style="fill:rgb(128,128,128);stroke:none;" x="254" y="882">ADA</text>
  <rect height="12" style="fill:rgb(255,255,255);stroke:none;" width="28" x="254" y="885"/>
  <text style="fill:rgb(128,128,128);stroke:none;" x="254" y="897">PIGP</text>
  <rect height="12" style="fill:rgb(255,255,255);stroke:none;" width="31" x="254" y="900"/>
  <text style="fill:rgb(128,128,128);stroke:none;" x="254" y="912">ALG8</text>
  <rect height="12" style="fill:rgb(255,255,255);stroke:none;" width="27" x="254" y="915"/>
  <text style="fill:rgb(128,128,128);stroke:none;" x="254" y="927">PIGF</text>
  <rect height="12" style="fill:rgb(255,255,255);stroke:none;" width="33" x="254" y="930"/>
  <text style="fill:rgb(128,128,128);stroke:none;" x="254" y="942">GPC2</text>
  <rect height="12" style="fill:rgb(255,255,255);stroke:none;" width="40" x="254" y="945"/>
  <text style="fill:rgb(128,128,128);stroke:none;" x="254" y="957">ABCC5</text>
  <rect height="12" style="fill:rgb(255,255,255);stroke:none;" width="25" x="268" y="960"/>
  <text style="fill:rgb(128,128,128);stroke:none;" x="268" y="972">IL33</text>
  <rect height="12" style="fill:rgb(255,255,255);stroke:none;" width="54" x="268" y="975"/>
  <text style="fill:rgb(128,128,128);stroke:none;" x="268" y="987">GAL3ST4</text>
  <rect height="12" style="fill:rgb(255,255,255);stroke:none;" width="24" x="283" y="990"/>
  <text style="fill:rgb(128,128,128);stroke:none;" x="283" y="1002">UST</text>
  <rect height="12" style="fill:rgb(255,255,255);stroke:none;" width="28" x="283" y="1005"/>
  <text style="fill:rgb(128,128,128);stroke:none;" x="283" y="1017">XYLB</text>
  <rect height="12" style="fill:rgb(255,255,255);stroke:none;" width="31" x="283" y="1020"/>
  <text style="fill:rgb(128,128,128);stroke:none;" x="283" y="1032">FUT8</text>
  <rect height="12" style="fill:rgb(255,255,255);stroke:none;" width="40" x="283" y="1035"/>
  <text style="fill:rgb(128,128,128);stroke:none;" x="283" y="1047">TMTC1</text>
  <rect height="12" style="fill:rgb(255,255,255);stroke:none;" width="46" x="283" y="1050"/>
  <text style="fill:rgb(128,128,128);stroke:none;" x="283" y="1062">SDF2L1</text>
  <rect height="12" style="fill:rgb(255,255,255);stroke:none;" width="55" x="283" y="1065"/>
  <text style="fill:rgb(128,128,128);stroke:none;" x="283" y="1077">GALNT14</text>
  <rect height="11" style="fill:rgb(255,255,255);stroke:none;" width="29" x="297" y="1080"/>
  <text style="fill:rgb(128,128,128);stroke:none;font-size:11px;" x="297" y="1091">PDK4</text>
  <rect height="11" style="fill:rgb(255,255,255);stroke:none;" width="29" x="297" y="1094"/>
  <text style="fill:rgb(128,128,128);stroke:none;font-size:11px;" x="297" y="1105">NPR2</text>
  <rect height="11" style="fill:rgb(255,255,255);stroke:none;" width="37" x="297" y="1108"/>
  <text style="fill:rgb(128,128,128);stroke:none;font-size:11px;" x="297" y="1119">ACACA</text>
  <rect height="10" style="fill:rgb(255,255,255);stroke:none;" width="40" x="327" y="1122"/>
  <text style="fill:rgb(128,128,128);stroke:none;font-size:10px;" x="327" y="1132">ELOVL6</text>
  <rect height="10" style="fill:rgb(255,255,255);stroke:none;" width="32" x="341" y="1135"/>
  <text style="fill:rgb(128,128,128);stroke:none;font-size:10px;" x="341" y="1145">GMDS</text>
  <rect height="10" style="fill:rgb(255,255,255);stroke:none;" width="23" x="370" y="1148"/>
  <text style="fill:rgb(128,128,128);stroke:none;font-size:10px;" x="370" y="1158">LUM</text>
</svg>
