<?xml version="1.0" encoding="UTF-8" standalone="no"?>
<!DOCTYPE svg PUBLIC "-//W3C//DTD SVG 1.1//EN" "http://www.w3.org/Graphics/SVG/1.1/DTD/svg11.dtd">
<svg xmlns:xlink="http://www.w3.org/1999/xlink" height="158.74999999999997mm" version="1.1" viewBox="0 0 500 600" width="132.29166666666666mm" x="0mm" y="0mm" xmlns="http://www.w3.org/2000/svg">
  <rect height="1200" style="fill:rgb(255,255,255);stroke:none;" width="1000" x="0" y="0"/>
  <rect height="240" style="fill:rgb(191,191,191);fill-opacity:0.4980392156862745;stroke:none;" width="175" x="225" y="60"/>
  <line style="fill:none;stroke:rgb(63,63,191);stroke-opacity:0.24705882352941178;stroke-miterlimit:10;stroke-linecap:square;" x1="50" x2="50" y1="300" y2="300"/>
  <line style="fill:none;stroke:rgb(63,63,191);stroke-opacity:0.24705882352941178;stroke-miterlimit:10;stroke-linecap:square;" x1="50" x2="64" y1="300" y2="290"/>
  <line style="fill:none;stroke:rgb(63,63,191);stroke-opacity:0.24705882352941178;stroke-miterlimit:10;stroke-linecap:square;" x1="64" x2="79" y1="290" y2="280"/>
  <line style="fill:none;stroke:rgb(63,63,191);stroke-opacity:0.24705882352941178;stroke-miterlimit:10;stroke-linecap:square;" x1="79" x2="93" y1="280" y2="270"/>
  <line style="fill:none;stroke:rgb(63,63,191);stroke-opacity:0.24705882352941178;stroke-miterlimit:10;stroke-linecap:square;" x1="93" x2="108" y1="270" y2="260"/>
  <line style="fill:none;stroke:rgb(63,63,191);stroke-opacity:0.24705882352941178;stroke-miterlimit:10;stroke-linecap:square;" x1="108" x2="122" y1="260" y2="250"/>
  <line style="fill:none;stroke:rgb(63,63,191);stroke-opacity:0.24705882352941178;stroke-miterlimit:10;stroke-linecap:square;" x1="122" x2="137" y1="250" y2="240"/>
  <line style="fill:none;stroke:rgb(63,63,191);stroke-opacity:0.24705882352941178;stroke-miterlimit:10;stroke-linecap:square;" x1="137" x2="152" y1="240" y2="230"/>
  <line style="fill:none;stroke:rgb(63,63,191);stroke-opacity:0.24705882352941178;stroke-miterlimit:10;stroke-linecap:square;" x1="152" x2="166" y1="230" y2="220"/>
  <line style="fill:none;stroke:rgb(63,63,191);stroke-opacity:0.24705882352941178;stroke-miterlimit:10;stroke-linecap:square;" x1="166" x2="181" y1="220" y2="210"/>
  <line style="fill:none;stroke:rgb(63,63,191);stroke-opacity:0.24705882352941178;stroke-miterlimit:10;stroke-linecap:square;" x1="181" x2="195" y1="210" y2="200"/>
  <line style="fill:none;stroke:rgb(63,63,191);stroke-opacity:0.24705882352941178;stroke-miterlimit:10;stroke-linecap:square;" x1="195" x2="210" y1="200" y2="190"/>
  <line style="fill:none;stroke:rgb(63,63,191);stroke-opacity:0.24705882352941178;stroke-miterlimit:10;stroke-linecap:square;" x1="210" x2="225" y1="190" y2="180"/>
  <line style="fill:none;stroke:rgb(63,63,191);stroke-opacity:0.24705882352941178;stroke-miterlimit:10;stroke-linecap:square;" x1="225" x2="239" y1="180" y2="170"/>
  <line style="fill:none;stroke:rgb(63,63,191);stroke-opacity:0.24705882352941178;stroke-miterlimit:10;stroke-linecap:square;" x1="239" x2="254" y1="170" y2="160"/>
  <line style="fill:none;stroke:rgb(63,63,191);stroke-opacity:0.24705882352941178;stroke-miterlimit:10;stroke-linecap:square;" x1="254" x2="268" y1="160" y2="150"/>
  <line style="fill:none;stroke:rgb(63,63,191);stroke-opacity:0.24705882352941178;stroke-miterlimit:10;stroke-linecap:square;" x1="268" x2="283" y1="150" y2="140"/>
  <line style="fill:none;stroke:rgb(63,63,191);stroke-opacity:0.24705882352941178;stroke-miterlimit:10;stroke-linecap:square;" x1="283" x2="297" y1="140" y2="130"/>
  <line style="fill:none;stroke:rgb(63,63,191);stroke-opacity:0.24705882352941178;stroke-miterlimit:10;stroke-linecap:square;" x1="297" x2="312" y1="130" y2="120"/>
  <line style="fill:none;stroke:rgb(63,63,191);stroke-opacity:0.24705882352941178;stroke-miterlimit:10;stroke-linecap:square;" x1="312" x2="327" y1="120" y2="110"/>
  <line style="fill:none;stroke:rgb(63,63,191);stroke-opacity:0.24705882352941178;stroke-miterlimit:10;stroke-linecap:square;" x1="327" x2="341" y1="110" y2="100"/>
  <line style="fill:none;stroke:rgb(63,63,191);stroke-opacity:0.24705882352941178;stroke-miterlimit:10;stroke-linecap:square;" x1="341" x2="356" y1="100" y2="90"/>
  <line style="fill:none;stroke:rgb(63,63,191);stroke-opacity:0.24705882352941178;stroke-miterlimit:10;stroke-linecap:square;" x1="356" x2="370" y1="90" y2="80"/>
  <line style="fill:none;stroke:rgb(63,63,191);stroke-opacity:0.24705882352941178;stroke-miterlimit:10;stroke-linecap:square;" x1="370" x2="385" y1="80" y2="70"/>
  <line style="fill:none;stroke:rgb(63,63,191);stroke-opacity:0.24705882352941178;stroke-miterlimit:10;stroke-linecap:square;" x1="385" x2="400" y1="70" y2="60"/>
  <line style="fill:none;stroke:rgb(63,63,191);stroke-opacity:0.24705882352941178;stroke-miterlimit:10;stroke-linecap:square;" x1="400" x2="400" y1="60" y2="60"/>
  <rect height="9" style="fill:rgb(255,127,0);fill-opacity:0.7490196078431373;stroke:none;" width="4" x="48" y="290"/>
  <line style="fill:none;stroke:rgb(255,127,0);stroke-opacity:0.24705882352941178;stroke-width:2;stroke-miterlimit:10;stroke-linecap:square;" x1="50" x2="50" y1="300" y2="300"/>
  <line style="fill:none;stroke:rgb(255,127,0);stroke-opacity:0.24705882352941178;stroke-width:2;stroke-miterlimit:10;stroke-linecap:square;" x1="50" x2="50" y1="298" y2="292"/>
  <rect height="22" style="fill:rgb(255,127,0);fill-opacity:0.7490196078431373;stroke:none;" width="4" x="62" y="277"/>
  <line style="fill:none;stroke:rgb(255,127,0);stroke-opacity:0.24705882352941178;stroke-width:2;stroke-miterlimit:10;stroke-linecap:square;" x1="50" x2="64" y1="290" y2="290"/>
  <line style="fill:none;stroke:rgb(255,127,0);stroke-opacity:0.24705882352941178;stroke-width:2;stroke-miterlimit:10;stroke-linecap:square;" x1="64" x2="64" y1="288" y2="270"/>
  <rect height="4" style="fill:rgb(255,127,0);fill-opacity:0.7490196078431373;stroke:none;" width="4" x="77" y="295"/>
  <line style="fill:none;stroke:rgb(255,127,0);stroke-opacity:0.24705882352941178;stroke-width:2;stroke-miterlimit:10;stroke-linecap:square;" x1="64" x2="79" y1="268" y2="268"/>
  <line style="fill:none;stroke:rgb(255,127,0);stroke-opacity:0.24705882352941178;stroke-width:2;stroke-miterlimit:10;stroke-linecap:square;" x1="79" x2="79" y1="266" y2="265"/>
  <rect height="4" style="fill:rgb(255,127,0);fill-opacity:0.7490196078431373;stroke:none;" width="4" x="106" y="295"/>
  <line style="fill:none;stroke:rgb(255,127,0);stroke-opacity:0.24705882352941178;stroke-width:2;stroke-miterlimit:10;stroke-linecap:square;" x1="79" x2="108" y1="263" y2="263"/>
  <line style="fill:none;stroke:rgb(255,127,0);stroke-opacity:0.24705882352941178;stroke-width:2;stroke-miterlimit:10;stroke-linecap:square;" x1="108" x2="108" y1="261" y2="261"/>
  <rect height="4" style="fill:rgb(255,127,0);fill-opacity:0.7490196078431373;stroke:none;" width="4" x="120" y="295"/>
  <line style="fill:none;stroke:rgb(255,127,0);stroke-opacity:0.24705882352941178;stroke-width:2;stroke-miterlimit:10;stroke-linecap:square;" x1="108" x2="122" y1="259" y2="259"/>
  <line style="fill:none;stroke:rgb(255,127,0);stroke-opacity:0.24705882352941178;stroke-width:2;stroke-miterlimit:10;stroke-linecap:square;" x1="122" x2="122" y1="257" y2="256"/>
  <rect height="13" style="fill:rgb(255,127,0);fill-opacity:0.7490196078431373;stroke:none;" width="4" x="150" y="286"/>
  <line style="fill:none;stroke:rgb(255,127,0);stroke-opacity:0.24705882352941178;stroke-width:2;stroke-miterlimit:10;stroke-linecap:square;" x1="122" x2="152" y1="254" y2="254"/>
  <line style="fill:none;stroke:rgb(255,127,0);stroke-opacity:0.24705882352941178;stroke-width:2;stroke-miterlimit:10;stroke-linecap:square;" x1="152" x2="152" y1="252" y2="243"/>
  <rect height="13" style="fill:rgb(255,127,0);fill-opacity:0.7490196078431373;stroke:none;" width="4" x="164" y="286"/>
  <line style="fill:none;stroke:rgb(255,127,0);stroke-opacity:0.24705882352941178;stroke-width:2;stroke-miterlimit:10;stroke-linecap:square;" x1="152" x2="166" y1="241" y2="241"/>
  <line style="fill:none;stroke:rgb(255,127,0);stroke-opacity:0.24705882352941178;stroke-width:2;stroke-miterlimit:10;stroke-linecap:square;" x1="166" x2="166" y1="239" y2="229"/>
  <rect height="9" style="fill:rgb(255,127,0);fill-opacity:0.7490196078431373;stroke:none;" width="4" x="193" y="290"/>
  <line style="fill:none;stroke:rgb(255,127,0);stroke-opacity:0.24705882352941178;stroke-width:2;stroke-miterlimit:10;stroke-linecap:square;" x1="166" x2="195" y1="227" y2="227"/>
  <line style="fill:none;stroke:rgb(255,127,0);stroke-opacity:0.24705882352941178;stroke-width:2;stroke-miterlimit:10;stroke-linecap:square;" x1="195" x2="195" y1="225" y2="220"/>
  <rect height="9" style="fill:rgb(255,127,0);fill-opacity:0.7490196078431373;stroke:none;" width="4" x="208" y="290"/>
  <line style="fill:none;stroke:rgb(255,127,0);stroke-opacity:0.24705882352941178;stroke-width:2;stroke-miterlimit:10;stroke-linecap:square;" x1="195" x2="210" y1="218" y2="218"/>
  <line style="fill:none;stroke:rgb(255,127,0);stroke-opacity:0.24705882352941178;stroke-width:2;stroke-miterlimit:10;stroke-linecap:square;" x1="210" x2="210" y1="216" y2="211"/>
  <rect height="36" style="fill:rgb(255,127,0);fill-opacity:0.7490196078431373;stroke:none;" width="4" x="223" y="263"/>
  <line style="fill:none;stroke:rgb(255,127,0);stroke-opacity:0.24705882352941178;stroke-width:2;stroke-miterlimit:10;stroke-linecap:square;" x1="210" x2="225" y1="209" y2="209"/>
  <line style="fill:none;stroke:rgb(255,127,0);stroke-opacity:0.24705882352941178;stroke-width:2;stroke-miterlimit:10;stroke-linecap:square;" x1="225" x2="225" y1="207" y2="175"/>
  <rect height="22" style="fill:rgb(255,127,0);fill-opacity:0.7490196078431373;stroke:none;" width="4" x="237" y="277"/>
  <line style="fill:none;stroke:rgb(255,127,0);stroke-opacity:0.24705882352941178;stroke-width:2;stroke-miterlimit:10;stroke-linecap:square;" x1="225" x2="239" y1="173" y2="173"/>
  <line style="fill:none;stroke:rgb(255,127,0);stroke-opacity:0.24705882352941178;stroke-width:2;stroke-miterlimit:10;stroke-linecap:square;" x1="239" x2="239" y1="171" y2="152"/>
  <rect height="27" style="fill:rgb(255,127,0);fill-opacity:0.7490196078431373;stroke:none;" width="4" x="252" y="272"/>
  <line style="fill:none;stroke:rgb(255,127,0);stroke-opacity:0.24705882352941178;stroke-width:2;stroke-miterlimit:10;stroke-linecap:square;" x1="239" x2="254" y1="150" y2="150"/>
  <line style="fill:none;stroke:rgb(255,127,0);stroke-opacity:0.24705882352941178;stroke-width:2;stroke-miterlimit:10;stroke-linecap:square;" x1="254" x2="254" y1="148" y2="125"/>
  <rect height="27" style="fill:rgb(255,127,0);fill-opacity:0.7490196078431373;stroke:none;" width="4" x="266" y="272"/>
  <line style="fill:none;stroke:rgb(255,127,0);stroke-opacity:0.24705882352941178;stroke-width:2;stroke-miterlimit:10;stroke-linecap:square;" x1="254" x2="268" y1="123" y2="123"/>
  <line style="fill:none;stroke:rgb(255,127,0);stroke-opacity:0.24705882352941178;stroke-width:2;stroke-miterlimit:10;stroke-linecap:square;" x1="268" x2="268" y1="121" y2="98"/>
  <rect height="4" style="fill:rgb(255,127,0);fill-opacity:0.7490196078431373;stroke:none;" width="4" x="295" y="295"/>
  <line style="fill:none;stroke:rgb(255,127,0);stroke-opacity:0.24705882352941178;stroke-width:2;stroke-miterlimit:10;stroke-linecap:square;" x1="268" x2="297" y1="96" y2="96"/>
  <line style="fill:none;stroke:rgb(255,127,0);stroke-opacity:0.24705882352941178;stroke-width:2;stroke-miterlimit:10;stroke-linecap:square;" x1="297" x2="297" y1="94" y2="93"/>
  <rect height="4" style="fill:rgb(255,127,0);fill-opacity:0.7490196078431373;stroke:none;" width="4" x="325" y="295"/>
  <line style="fill:none;stroke:rgb(255,127,0);stroke-opacity:0.24705882352941178;stroke-width:2;stroke-miterlimit:10;stroke-linecap:square;" x1="297" x2="327" y1="91" y2="91"/>
  <line style="fill:none;stroke:rgb(255,127,0);stroke-opacity:0.24705882352941178;stroke-width:2;stroke-miterlimit:10;stroke-linecap:square;" x1="327" x2="327" y1="89" y2="89"/>
  <rect height="13" style="fill:rgb(255,127,0);fill-opacity:0.7490196078431373;stroke:none;" width="4" x="339" y="286"/>
  <line style="fill:none;stroke:rgb(255,127,0);stroke-opacity:0.24705882352941178;stroke-width:2;stroke-miterlimit:10;stroke-linecap:square;" x1="327" x2="341" y1="87" y2="87"/>
  <line style="fill:none;stroke:rgb(255,127,0);stroke-opacity:0.24705882352941178;stroke-width:2;stroke-miterlimit:10;stroke-linecap:square;" x1="341" x2="341" y1="85" y2="75"/>
  <rect height="4" style="fill:rgb(255,127,0);fill-opacity:0.7490196078431373;stroke:none;" width="4" x="368" y="295"/>
  <line style="fill:none;stroke:rgb(255,127,0);stroke-opacity:0.24705882352941178;stroke-width:2;stroke-miterlimit:10;stroke-linecap:square;" x1="341" x2="370" y1="73" y2="73"/>
  <line style="fill:none;stroke:rgb(255,127,0);stroke-opacity:0.24705882352941178;stroke-width:2;stroke-miterlimit:10;stroke-linecap:square;" x1="370" x2="370" y1="71" y2="71"/>
  <rect height="9" style="fill:rgb(255,127,0);fill-opacity:0.7490196078431373;stroke:none;" width="4" x="383" y="290"/>
  <line style="fill:none;stroke:rgb(255,127,0);stroke-opacity:0.24705882352941178;stroke-width:2;stroke-miterlimit:10;stroke-linecap:square;" x1="370" x2="385" y1="69" y2="69"/>
  <line style="fill:none;stroke:rgb(255,127,0);stroke-opacity:0.24705882352941178;stroke-width:2;stroke-miterlimit:10;stroke-linecap:square;" x1="385" x2="385" y1="67" y2="62"/>
  <line style="fill:none;stroke:rgb(255,127,0);stroke-opacity:0.24705882352941178;stroke-width:2;stroke-miterlimit:10;stroke-linecap:square;" x1="385" x2="400" y1="60" y2="60"/>
  <line style="fill:none;stroke:rgb(255,127,0);stroke-opacity:0.4980392156862745;stroke-miterlimit:2;stroke-dasharray:2;" x1="50" x2="50" y1="300" y2="350"/>
  <line style="fill:none;stroke:rgb(255,127,0);stroke-opacity:0.4980392156862745;stroke-miterlimit:2;stroke-dasharray:2;" x1="50" x2="50" y1="300" y2="363"/>
  <line style="fill:none;stroke:rgb(255,127,0);stroke-opacity:0.4980392156862745;stroke-miterlimit:2;stroke-dasharray:2;" x1="64" x2="64" y1="300" y2="376"/>
  <line style="fill:none;stroke:rgb(255,127,0);stroke-opacity:0.4980392156862745;stroke-miterlimit:2;stroke-dasharray:2;" x1="64" x2="64" y1="300" y2="389"/>
  <line style="fill:none;stroke:rgb(255,127,0);stroke-opacity:0.4980392156862745;stroke-miterlimit:2;stroke-dasharray:2;" x1="64" x2="64" y1="300" y2="402"/>
  <line style="fill:none;stroke:rgb(255,127,0);stroke-opacity:0.4980392156862745;stroke-miterlimit:2;stroke-dasharray:2;" x1="64" x2="64" y1="300" y2="415"/>
  <line style="fill:none;stroke:rgb(255,127,0);stroke-opacity:0.4980392156862745;stroke-miterlimit:2;stroke-dasharray:2;" x1="64" x2="64" y1="300" y2="428"/>
  <line style="fill:none;stroke:rgb(255,127,0);stroke-opacity:0.4980392156862745;stroke-miterlimit:2;stroke-dasharray:2;" x1="79" x2="79" y1="300" y2="441"/>
  <line style="fill:none;stroke:rgb(255,127,0);stroke-opacity:0.4980392156862745;stroke-miterlimit:2;stroke-dasharray:2;" x1="108" x2="108" y1="300" y2="454"/>
  <line style="fill:none;stroke:rgb(255,127,0);stroke-opacity:0.4980392156862745;stroke-miterlimit:2;stroke-dasharray:2;" x1="122" x2="122" y1="300" y2="467"/>
  <line style="fill:none;stroke:rgb(255,127,0);stroke-opacity:0.4980392156862745;stroke-miterlimit:2;stroke-dasharray:2;" x1="152" x2="152" y1="300" y2="350"/>
  <line style="fill:none;stroke:rgb(255,127,0);stroke-opacity:0.4980392156862745;stroke-miterlimit:2;stroke-dasharray:2;" x1="152" x2="152" y1="300" y2="363"/>
  <line style="fill:none;stroke:rgb(255,127,0);stroke-opacity:0.4980392156862745;stroke-miterlimit:2;stroke-dasharray:2;" x1="152" x2="152" y1="300" y2="376"/>
  <line style="fill:none;stroke:rgb(255,127,0);stroke-opacity:0.4980392156862745;stroke-miterlimit:2;stroke-dasharray:2;" x1="166" x2="166" y1="300" y2="389"/>
  <line style="fill:none;stroke:rgb(255,127,0);stroke-opacity:0.4980392156862745;stroke-miterlimit:2;stroke-dasharray:2;" x1="166" x2="166" y1="300" y2="402"/>
  <line style="fill:none;stroke:rgb(255,127,0);stroke-opacity:0.4980392156862745;stroke-miterlimit:2;stroke-dasharray:2;" x1="166" x2="166" y1="300" y2="415"/>
  <line style="fill:none;stroke:rgb(255,127,0);stroke-opacity:0.4980392156862745;stroke-miterlimit:2;stroke-dasharray:2;" x1="195" x2="195" y1="300" y2="428"/>
  <line style="fill:none;stroke:rgb(255,127,0);stroke-opacity:0.4980392156862745;stroke-miterlimit:2;stroke-dasharray:2;" x1="195" x2="195" y1="300" y2="441"/>
  <line style="fill:none;stroke:rgb(255,127,0);stroke-opacity:0.4980392156862745;stroke-miterlimit:2;stroke-dasharray:2;" x1="210" x2="210" y1="300" y2="454"/>
  <line style="fill:none;stroke:rgb(255,127,0);stroke-opacity:0.4980392156862745;stroke-miterlimit:2;stroke-dasharray:2;" x1="210" x2="210" y1="300" y2="467"/>
  <line style="fill:none;stroke:rgb(255,127,0);stroke-opacity:0.4980392156862745;stroke-miterlimit:2;stroke-dasharray:2;" x1="225" x2="225" y1="300" y2="484"/>
  <line style="fill:none;stroke:rgb(255,127,0);stroke-opacity:0.4980392156862745;stroke-miterlimit:2;stroke-dasharray:2;" x1="225" x2="225" y1="300" y2="501"/>
  <line style="fill:none;stroke:rgb(255,127,0);stroke-opacity:0.4980392156862745;stroke-miterlimit:2;stroke-dasharray:2;" x1="225" x2="225" y1="300" y2="518"/>
  <line style="fill:none;stroke:rgb(255,127,0);stroke-opacity:0.4980392156862745;stroke-miterlimit:2;stroke-dasharray:2;" x1="225" x2="225" y1="300" y2="535"/>
  <line style="fill:none;stroke:rgb(255,127,0);stroke-opacity:0.4980392156862745;stroke-miterlimit:2;stroke-dasharray:2;" x1="225" x2="225" y1="300" y2="552"/>
  <line style="fill:none;stroke:rgb(255,127,0);stroke-opacity:0.4980392156862745;stroke-miterlimit:2;stroke-dasharray:2;" x1="225" x2="225" y1="300" y2="569"/>
  <line style="fill:none;stroke:rgb(255,127,0);stroke-opacity:0.4980392156862745;stroke-miterlimit:2;stroke-dasharray:2;" x1="225" x2="225" y1="300" y2="586"/>
  <line style="fill:none;stroke:rgb(255,127,0);stroke-opacity:0.4980392156862745;stroke-miterlimit:2;stroke-dasharray:2;" x1="225" x2="225" y1="300" y2="603"/>
  <line style="fill:none;stroke:rgb(255,127,0);stroke-opacity:0.4980392156862745;stroke-miterlimit:2;stroke-dasharray:2;" x1="239" x2="239" y1="300" y2="620"/>
  <line style="fill:none;stroke:rgb(255,127,0);stroke-opacity:0.4980392156862745;stroke-miterlimit:2;stroke-dasharray:2;" x1="239" x2="239" y1="300" y2="637"/>
  <line style="fill:none;stroke:rgb(255,127,0);stroke-opacity:0.4980392156862745;stroke-miterlimit:2;stroke-dasharray:2;" x1="239" x2="239" y1="300" y2="654"/>
  <line style="fill:none;stroke:rgb(255,127,0);stroke-opacity:0.4980392156862745;stroke-miterlimit:2;stroke-dasharray:2;" x1="239" x2="239" y1="300" y2="671"/>
  <line style="fill:none;stroke:rgb(255,127,0);stroke-opacity:0.4980392156862745;stroke-miterlimit:2;stroke-dasharray:2;" x1="239" x2="239" y1="300" y2="688"/>
  <line style="fill:none;stroke:rgb(255,127,0);stroke-opacity:0.4980392156862745;stroke-miterlimit:2;stroke-dasharray:2;" x1="254" x2="254" y1="300" y2="705"/>
  <line style="fill:none;stroke:rgb(255,127,0);stroke-opacity:0.4980392156862745;stroke-miterlimit:2;stroke-dasharray:2;" x1="254" x2="254" y1="300" y2="722"/>
  <line style="fill:none;stroke:rgb(255,127,0);stroke-opacity:0.4980392156862745;stroke-miterlimit:2;stroke-dasharray:2;" x1="254" x2="254" y1="300" y2="739"/>
  <line style="fill:none;stroke:rgb(255,127,0);stroke-opacity:0.4980392156862745;stroke-miterlimit:2;stroke-dasharray:2;" x1="254" x2="254" y1="300" y2="756"/>
  <line style="fill:none;stroke:rgb(255,127,0);stroke-opacity:0.4980392156862745;stroke-miterlimit:2;stroke-dasharray:2;" x1="254" x2="254" y1="300" y2="773"/>
  <line style="fill:none;stroke:rgb(255,127,0);stroke-opacity:0.4980392156862745;stroke-miterlimit:2;stroke-dasharray:2;" x1="254" x2="254" y1="300" y2="790"/>
  <line style="fill:none;stroke:rgb(255,127,0);stroke-opacity:0.4980392156862745;stroke-miterlimit:2;stroke-dasharray:2;" x1="268" x2="268" y1="300" y2="807"/>
  <line style="fill:none;stroke:rgb(255,127,0);stroke-opacity:0.4980392156862745;stroke-miterlimit:2;stroke-dasharray:2;" x1="268" x2="268" y1="300" y2="824"/>
  <line style="fill:none;stroke:rgb(255,127,0);stroke-opacity:0.4980392156862745;stroke-miterlimit:2;stroke-dasharray:2;" x1="268" x2="268" y1="300" y2="841"/>
  <line style="fill:none;stroke:rgb(255,127,0);stroke-opacity:0.4980392156862745;stroke-miterlimit:2;stroke-dasharray:2;" x1="268" x2="268" y1="300" y2="858"/>
  <line style="fill:none;stroke:rgb(255,127,0);stroke-opacity:0.4980392156862745;stroke-miterlimit:2;stroke-dasharray:2;" x1="268" x2="268" y1="300" y2="875"/>
  <line style="fill:none;stroke:rgb(255,127,0);stroke-opacity:0.4980392156862745;stroke-miterlimit:2;stroke-dasharray:2;" x1="268" x2="268" y1="300" y2="892"/>
  <line style="fill:none;stroke:rgb(255,127,0);stroke-opacity:0.4980392156862745;stroke-miterlimit:2;stroke-dasharray:2;" x1="297" x2="297" y1="300" y2="905"/>
  <line style="fill:none;stroke:rgb(255,127,0);stroke-opacity:0.4980392156862745;stroke-miterlimit:2;stroke-dasharray:2;" x1="327" x2="327" y1="300" y2="918"/>
  <line style="fill:none;stroke:rgb(255,127,0);stroke-opacity:0.4980392156862745;stroke-miterlimit:2;stroke-dasharray:2;" x1="341" x2="341" y1="300" y2="931"/>
  <line style="fill:none;stroke:rgb(255,127,0);stroke-opacity:0.4980392156862745;stroke-miterlimit:2;stroke-dasharray:2;" x1="341" x2="341" y1="300" y2="944"/>
  <line style="fill:none;stroke:rgb(255,127,0);stroke-opacity:0.4980392156862745;stroke-miterlimit:2;stroke-dasharray:2;" x1="341" x2="341" y1="300" y2="957"/>
  <line style="fill:none;stroke:rgb(255,127,0);stroke-opacity:0.4980392156862745;stroke-miterlimit:2;stroke-dasharray:2;" x1="370" x2="370" y1="300" y2="970"/>
  <line style="fill:none;stroke:rgb(255,127,0);stroke-opacity:0.4980392156862745;stroke-miterlimit:2;stroke-dasharray:2;" x1="385" x2="385" y1="300" y2="983"/>
  <line style="fill:none;stroke:rgb(255,127,0);stroke-opacity:0.4980392156862745;stroke-miterlimit:2;stroke-dasharray:2;" x1="385" x2="385" y1="300" y2="996"/>
  <line style="fill:none;stroke:rgb(0,0,0);stroke-width:2;stroke-miterlimit:10;stroke-linecap:square;" x1="48" x2="48" y1="60" y2="300"/>
  <line style="fill:none;stroke:rgb(0,0,0);stroke-width:2;stroke-miterlimit:10;stroke-linecap:square;" x1="48" x2="402" y1="300" y2="300"/>
  <rect height="30" style="fill:rgb(255,255,255);stroke:none;" width="17" x="42" y="308"/>
  <text style="fill:rgb(0,0,0);stroke:none;font-size:25px;font-weight:bold;" x="42" y="332">0</text>
  <rect height="30" style="fill:rgb(255,255,255);stroke:none;" width="34" x="383" y="308"/>
  <text style="fill:rgb(0,0,0);stroke:none;font-size:25px;font-weight:bold;" x="383" y="332">24</text>
  <text style="fill:rgb(0,0,0);stroke:none;font-size:25px;font-weight:bold;" x="25" y="312">0</text>
  <text style="fill:rgb(0,0,0);stroke:none;font-size:25px;font-weight:bold;" x="25" y="72">1</text>
  <text style="fill:rgb(0,0,0);stroke:none;font-size:21px;font-weight:bold;" x="5" y="40">GOBP_REGULATION_OF_CELL_ACTIVATION</text>
  <rect height="10" style="fill:rgb(255,255,255);stroke:none;" width="33" x="50" y="340"/>
  <text style="fill:rgb(128,128,128);stroke:none;font-size:10px;" x="50" y="350">ATAD5</text>
  <rect height="10" style="fill:rgb(255,255,255);stroke:none;" width="40" x="50" y="353"/>
  <text style="fill:rgb(128,128,128);stroke:none;font-size:10px;" x="50" y="363">SH3RF1</text>
  <rect height="10" style="fill:rgb(255,255,255);stroke:none;" width="24" x="64" y="366"/>
  <text style="fill:rgb(128,128,128);stroke:none;font-size:10px;" x="64" y="376">ITCH</text>
  <rect height="10" style="fill:rgb(255,255,255);stroke:none;" width="35" x="64" y="379"/>
  <text style="fill:rgb(128,128,128);stroke:none;font-size:10px;" x="64" y="389">GPER1</text>
  <rect height="10" style="fill:rgb(255,255,255);stroke:none;" width="33" x="64" y="392"/>
  <text style="fill:rgb(128,128,128);stroke:none;font-size:10px;" x="64" y="402">RNF41</text>
  <rect height="10" style="fill:rgb(255,255,255);stroke:none;" width="42" x="64" y="405"/>
  <text style="fill:rgb(128,128,128);stroke:none;font-size:10px;" x="64" y="415">CLEC7A</text>
  <rect height="10" style="fill:rgb(255,255,255);stroke:none;" width="52" x="64" y="418"/>
  <text style="fill:rgb(128,128,128);stroke:none;font-size:10px;" x="64" y="428">SERPINE2</text>
  <rect height="10" style="fill:rgb(255,255,255);stroke:none;" width="39" x="79" y="431"/>
  <text style="fill:rgb(128,128,128);stroke:none;font-size:10px;" x="79" y="441">TGFBR2</text>
  <rect height="10" style="fill:rgb(255,255,255);stroke:none;" width="23" x="108" y="444"/>
  <text style="fill:rgb(128,128,128);stroke:none;font-size:10px;" x="108" y="454">MYB</text>
  <rect height="10" style="fill:rgb(255,255,255);stroke:none;" width="25" x="122" y="457"/>
  <text style="fill:rgb(128,128,128);stroke:none;font-size:10px;" x="122" y="467">BST1</text>
  <rect height="10" style="fill:rgb(255,255,255);stroke:none;" width="26" x="152" y="340"/>
  <text style="fill:rgb(128,128,128);stroke:none;font-size:10px;" x="152" y="350">TFRC</text>
  <rect height="10" style="fill:rgb(255,255,255);stroke:none;" width="22" x="152" y="353"/>
  <text style="fill:rgb(128,128,128);stroke:none;font-size:10px;" x="152" y="363">IRF1</text>
  <rect height="10" style="fill:rgb(255,255,255);stroke:none;" width="32" x="152" y="366"/>
  <text style="fill:rgb(128,128,128);stroke:none;font-size:10px;" x="152" y="376">TGFB1</text>
  <rect height="10" style="fill:rgb(255,255,255);stroke:none;" width="22" x="166" y="379"/>
  <text style="fill:rgb(128,128,128);stroke:none;font-size:10px;" x="166" y="389">IL4R</text>
  <rect height="10" style="fill:rgb(255,255,255);stroke:none;" width="32" x="166" y="392"/>
  <text style="fill:rgb(128,128,128);stroke:none;font-size:10px;" x="166" y="402">PTAFR</text>
  <rect height="10" style="fill:rgb(255,255,255);stroke:none;" width="34" x="166" y="405"/>
  <text style="fill:rgb(128,128,128);stroke:none;font-size:10px;" x="166" y="415">EFNB3</text>
  <rect height="10" style="fill:rgb(255,255,255);stroke:none;" width="34" x="195" y="418"/>
  <text style="fill:rgb(128,128,128);stroke:none;font-size:10px;" x="195" y="428">NR4A3</text>
  <rect height="10" style="fill:rgb(255,255,255);stroke:none;" width="44" x="195" y="431"/>
  <text style="fill:rgb(128,128,128);stroke:none;font-size:10px;" x="195" y="441">TNFSF14</text>
  <rect height="10" style="fill:rgb(255,255,255);stroke:none;" width="19" x="210" y="444"/>
  <text style="fill:rgb(128,128,128);stroke:none;font-size:10px;" x="210" y="454">TNF</text>
  <rect height="10" style="fill:rgb(255,255,255);stroke:none;" width="29" x="210" y="457"/>
  <text style="fill:rgb(128,128,128);stroke:none;font-size:10px;" x="210" y="467">LMO4</text>
  <rect height="13" style="fill:rgb(255,255,255);stroke:none;" width="24" x="225" y="471"/>
  <text style="fill:rgb(128,128,128);stroke:none;font-size:13px;" x="225" y="484">SYK</text>
  <rect height="13" style="fill:rgb(255,255,255);stroke:none;" width="24" x="225" y="488"/>
  <text style="fill:rgb(128,128,128);stroke:none;font-size:13px;" x="225" y="501">FES</text>
  <rect height="13" style="fill:rgb(255,255,255);stroke:none;" width="35" x="225" y="505"/>
  <text style="fill:rgb(128,128,128);stroke:none;font-size:13px;" x="225" y="518">CD83</text>
  <rect height="13" style="fill:rgb(255,255,255);stroke:none;" width="33" x="225" y="522"/>
  <text style="fill:rgb(128,128,128);stroke:none;font-size:13px;" x="225" y="535">CCL2</text>
  <rect height="13" style="fill:rgb(255,255,255);stroke:none;" width="38" x="225" y="539"/>
  <text style="fill:rgb(128,128,128);stroke:none;font-size:13px;" x="225" y="552">GPAM</text>
  <rect height="13" style="fill:rgb(255,255,255);stroke:none;" width="35" x="225" y="556"/>
  <text style="fill:rgb(128,128,128);stroke:none;font-size:13px;" x="225" y="569">RIPK3</text>
  <rect height="13" style="fill:rgb(255,255,255);stroke:none;" width="51" x="225" y="573"/>
  <text style="fill:rgb(128,128,128);stroke:none;font-size:13px;" x="225" y="586">ZNF335</text>
  <rect height="13" style="fill:rgb(255,255,255);stroke:none;" width="59" x="225" y="590"/>
  <text style="fill:rgb(128,128,128);stroke:none;font-size:13px;" x="225" y="603">PLA2G4A</text>
  <rect height="13" style="fill:rgb(255,255,255);stroke:none;" width="35" x="239" y="607"/>
  <text style="fill:rgb(128,128,128);stroke:none;font-size:13px;" x="239" y="620">CD33</text>
  <rect height="13" style="fill:rgb(255,255,255);stroke:none;" width="45" x="239" y="624"/>
  <text style="fill:rgb(128,128,128);stroke:none;font-size:13px;" x="239" y="637">HSPD1</text>
  <rect height="13" style="fill:rgb(255,255,255);stroke:none;" width="45" x="239" y="641"/>
  <text style="fill:rgb(128,128,128);stroke:none;font-size:13px;" x="239" y="654">HSPH1</text>
  <rect height="13" style="fill:rgb(255,255,255);stroke:none;" width="41" x="239" y="658"/>
  <text style="fill:rgb(128,128,128);stroke:none;font-size:13px;" x="239" y="671">IL1RL2</text>
  <rect height="13" style="fill:rgb(255,255,255);stroke:none;" width="67" x="239" y="675"/>
  <text style="fill:rgb(128,128,128);stroke:none;font-size:13px;" x="239" y="688">TNFAIP8L2</text>
  <rect height="13" style="fill:rgb(255,255,255);stroke:none;" width="28" x="254" y="692"/>
  <text style="fill:rgb(128,128,128);stroke:none;font-size:13px;" x="254" y="705">ADA</text>
  <rect height="13" style="fill:rgb(255,255,255);stroke:none;" width="34" x="254" y="709"/>
  <text style="fill:rgb(128,128,128);stroke:none;font-size:13px;" x="254" y="722">CBLB</text>
  <rect height="13" style="fill:rgb(255,255,255);stroke:none;" width="36" x="254" y="726"/>
  <text style="fill:rgb(128,128,128);stroke:none;font-size:13px;" x="254" y="739">THBD</text>
  <rect height="13" style="fill:rgb(255,255,255);stroke:none;" width="35" x="254" y="743"/>
  <text style="fill:rgb(128,128,128);stroke:none;font-size:13px;" x="254" y="756">ARG2</text>
  <rect height="13" style="fill:rgb(255,255,255);stroke:none;" width="32" x="254" y="760"/>
  <text style="fill:rgb(128,128,128);stroke:none;font-size:13px;" x="254" y="773">LDLR</text>
  <rect height="13" style="fill:rgb(255,255,255);stroke:none;" width="51" x="254" y="777"/>
  <text style="fill:rgb(128,128,128);stroke:none;font-size:13px;" x="254" y="790">SLAMF8</text>
  <rect height="13" style="fill:rgb(255,255,255);stroke:none;" width="26" x="268" y="794"/>
  <text style="fill:rgb(128,128,128);stroke:none;font-size:13px;" x="268" y="807">IL33</text>
  <rect height="13" style="fill:rgb(255,255,255);stroke:none;" width="35" x="268" y="811"/>
  <text style="fill:rgb(128,128,128);stroke:none;font-size:13px;" x="268" y="824">CAV1</text>
  <rect height="13" style="fill:rgb(255,255,255);stroke:none;" width="40" x="268" y="828"/>
  <text style="fill:rgb(128,128,128);stroke:none;font-size:13px;" x="268" y="841">TYRO3</text>
  <rect height="13" style="fill:rgb(255,255,255);stroke:none;" width="35" x="268" y="845"/>
  <text style="fill:rgb(128,128,128);stroke:none;font-size:13px;" x="268" y="858">IGLL1</text>
  <rect height="13" style="fill:rgb(255,255,255);stroke:none;" width="56" x="268" y="862"/>
  <text style="fill:rgb(128,128,128);stroke:none;font-size:13px;" x="268" y="875">TP53BP1</text>
  <rect height="13" style="fill:rgb(255,255,255);stroke:none;" width="66" x="268" y="879"/>
  <text style="fill:rgb(128,128,128);stroke:none;font-size:13px;" x="268" y="892">SLC39A10</text>
  <rect height="10" style="fill:rgb(255,255,255);stroke:none;" width="43" x="297" y="895"/>
  <text style="fill:rgb(128,128,128);stroke:none;font-size:10px;" x="297" y="905">PDGFRA</text>
  <rect height="10" style="fill:rgb(255,255,255);stroke:none;" width="37" x="327" y="908"/>
  <text style="fill:rgb(128,128,128);stroke:none;font-size:10px;" x="327" y="918">ZBTB16</text>
  <rect height="10" style="fill:rgb(255,255,255);stroke:none;" width="28" x="341" y="921"/>
  <text style="fill:rgb(128,128,128);stroke:none;font-size:10px;" x="341" y="931">CD86</text>
  <rect height="10" style="fill:rgb(255,255,255);stroke:none;" width="23" x="341" y="934"/>
  <text style="fill:rgb(128,128,128);stroke:none;font-size:10px;" x="341" y="944">IRS2</text>
  <rect height="10" style="fill:rgb(255,255,255);stroke:none;" width="28" x="341" y="947"/>
  <text style="fill:rgb(128,128,128);stroke:none;font-size:10px;" x="341" y="957">CTSG</text>
  <rect height="10" style="fill:rgb(255,255,255);stroke:none;" width="27" x="370" y="960"/>
  <text style="fill:rgb(128,128,128);stroke:none;font-size:10px;" x="370" y="970">BCL6</text>
  <rect height="10" style="fill:rgb(255,255,255);stroke:none;" width="20" x="385" y="973"/>
  <text style="fill:rgb(128,128,128);stroke:none;font-size:10px;" x="385" y="983">FN1</text>
  <rect height="10" style="fill:rgb(255,255,255);stroke:none;" width="52" x="385" y="986"/>
  <text style="fill:rgb(128,128,128);stroke:none;font-size:10px;" x="385" y="996">CEACAM1</text>
</svg>
