<?xml version="1.0" encoding="UTF-8" standalone="no"?>
<!DOCTYPE svg PUBLIC "-//W3C//DTD SVG 1.1//EN" "http://www.w3.org/Graphics/SVG/1.1/DTD/svg11.dtd">
<svg xmlns:xlink="http://www.w3.org/1999/xlink" height="158.74999999999997mm" version="1.1" viewBox="0 0 500 600" width="132.29166666666666mm" x="0mm" y="0mm" xmlns="http://www.w3.org/2000/svg">
  <rect height="1200" style="fill:rgb(255,255,255);stroke:none;" width="1000" x="0" y="0"/>
  <rect height="240" style="fill:rgb(191,191,191);fill-opacity:0.4980392156862745;stroke:none;" width="175" x="225" y="60"/>
  <line style="fill:none;stroke:rgb(63,63,191);stroke-opacity:0.24705882352941178;stroke-miterlimit:10;stroke-linecap:square;" x1="50" x2="-8" y1="300" y2="300"/>
  <line style="fill:none;stroke:rgb(63,63,191);stroke-opacity:0.24705882352941178;stroke-miterlimit:10;stroke-linecap:square;" x1="-8" x2="6" y1="300" y2="300"/>
  <line style="fill:none;stroke:rgb(63,63,191);stroke-opacity:0.24705882352941178;stroke-miterlimit:10;stroke-linecap:square;" x1="6" x2="20" y1="300" y2="300"/>
  <line style="fill:none;stroke:rgb(63,63,191);stroke-opacity:0.24705882352941178;stroke-miterlimit:10;stroke-linecap:square;" x1="20" x2="35" y1="300" y2="300"/>
  <line style="fill:none;stroke:rgb(63,63,191);stroke-opacity:0.24705882352941178;stroke-miterlimit:10;stroke-linecap:square;" x1="35" x2="50" y1="300" y2="300"/>
  <line style="fill:none;stroke:rgb(63,63,191);stroke-opacity:0.24705882352941178;stroke-miterlimit:10;stroke-linecap:square;" x1="50" x2="64" y1="300" y2="290"/>
  <line style="fill:none;stroke:rgb(63,63,191);stroke-opacity:0.24705882352941178;stroke-miterlimit:10;stroke-linecap:square;" x1="64" x2="79" y1="290" y2="280"/>
  <line style="fill:none;stroke:rgb(63,63,191);stroke-opacity:0.24705882352941178;stroke-miterlimit:10;stroke-linecap:square;" x1="79" x2="93" y1="280" y2="270"/>
  <line style="fill:none;stroke:rgb(63,63,191);stroke-opacity:0.24705882352941178;stroke-miterlimit:10;stroke-linecap:square;" x1="93" x2="108" y1="270" y2="260"/>
  <line style="fill:none;stroke:rgb(63,63,191);stroke-opacity:0.24705882352941178;stroke-miterlimit:10;stroke-linecap:square;" x1="108" x2="122" y1="260" y2="250"/>
  <line style="fill:none;stroke:rgb(63,63,191);stroke-opacity:0.24705882352941178;stroke-miterlimit:10;stroke-linecap:square;" x1="122" x2="137" y1="250" y2="240"/>
  <line style="fill:none;stroke:rgb(63,63,191);stroke-opacity:0.24705882352941178;stroke-miterlimit:10;stroke-linecap:square;" x1="137" x2="152" y1="240" y2="230"/>
  <line style="fill:none;stroke:rgb(63,63,191);stroke-opacity:0.24705882352941178;stroke-miterlimit:10;stroke-linecap:square;" x1="152" x2="166" y1="230" y2="220"/>
  <line style="fill:none;stroke:rgb(63,63,191);stroke-opacity:0.24705882352941178;stroke-miterlimit:10;stroke-linecap:square;" x1="166" x2="181" y1="220" y2="210"/>
  <line style="fill:none;stroke:rgb(63,63,191);stroke-opacity:0.24705882352941178;stroke-miterlimit:10;stroke-linecap:square;" x1="181" x2="195" y1="210" y2="200"/>
  <line style="fill:none;stroke:rgb(63,63,191);stroke-opacity:0.24705882352941178;stroke-miterlimit:10;stroke-linecap:square;" x1="195" x2="210" y1="200" y2="190"/>
  <line style="fill:none;stroke:rgb(63,63,191);stroke-opacity:0.24705882352941178;stroke-miterlimit:10;stroke-linecap:square;" x1="210" x2="225" y1="190" y2="180"/>
  <line style="fill:none;stroke:rgb(63,63,191);stroke-opacity:0.24705882352941178;stroke-miterlimit:10;stroke-linecap:square;" x1="225" x2="239" y1="180" y2="170"/>
  <line style="fill:none;stroke:rgb(63,63,191);stroke-opacity:0.24705882352941178;stroke-miterlimit:10;stroke-linecap:square;" x1="239" x2="254" y1="170" y2="160"/>
  <line style="fill:none;stroke:rgb(63,63,191);stroke-opacity:0.24705882352941178;stroke-miterlimit:10;stroke-linecap:square;" x1="254" x2="268" y1="160" y2="150"/>
  <line style="fill:none;stroke:rgb(63,63,191);stroke-opacity:0.24705882352941178;stroke-miterlimit:10;stroke-linecap:square;" x1="268" x2="283" y1="150" y2="140"/>
  <line style="fill:none;stroke:rgb(63,63,191);stroke-opacity:0.24705882352941178;stroke-miterlimit:10;stroke-linecap:square;" x1="283" x2="297" y1="140" y2="130"/>
  <line style="fill:none;stroke:rgb(63,63,191);stroke-opacity:0.24705882352941178;stroke-miterlimit:10;stroke-linecap:square;" x1="297" x2="312" y1="130" y2="120"/>
  <line style="fill:none;stroke:rgb(63,63,191);stroke-opacity:0.24705882352941178;stroke-miterlimit:10;stroke-linecap:square;" x1="312" x2="327" y1="120" y2="110"/>
  <line style="fill:none;stroke:rgb(63,63,191);stroke-opacity:0.24705882352941178;stroke-miterlimit:10;stroke-linecap:square;" x1="327" x2="341" y1="110" y2="100"/>
  <line style="fill:none;stroke:rgb(63,63,191);stroke-opacity:0.24705882352941178;stroke-miterlimit:10;stroke-linecap:square;" x1="341" x2="400" y1="100" y2="60"/>
  <rect height="14" style="fill:rgb(255,127,0);fill-opacity:0.7490196078431373;stroke:none;" width="4" x="4" y="285"/>
  <line style="fill:none;stroke:rgb(255,127,0);stroke-opacity:0.24705882352941178;stroke-width:2;stroke-miterlimit:10;stroke-linecap:square;" x1="50" x2="6" y1="300" y2="300"/>
  <line style="fill:none;stroke:rgb(255,127,0);stroke-opacity:0.24705882352941178;stroke-width:2;stroke-miterlimit:10;stroke-linecap:square;" x1="6" x2="6" y1="298" y2="287"/>
  <rect height="4" style="fill:rgb(255,127,0);fill-opacity:0.7490196078431373;stroke:none;" width="4" x="18" y="295"/>
  <line style="fill:none;stroke:rgb(255,127,0);stroke-opacity:0.24705882352941178;stroke-width:2;stroke-miterlimit:10;stroke-linecap:square;" x1="6" x2="20" y1="285" y2="285"/>
  <line style="fill:none;stroke:rgb(255,127,0);stroke-opacity:0.24705882352941178;stroke-width:2;stroke-miterlimit:10;stroke-linecap:square;" x1="20" x2="20" y1="283" y2="282"/>
  <rect height="4" style="fill:rgb(255,127,0);fill-opacity:0.7490196078431373;stroke:none;" width="4" x="48" y="295"/>
  <line style="fill:none;stroke:rgb(255,127,0);stroke-opacity:0.24705882352941178;stroke-width:2;stroke-miterlimit:10;stroke-linecap:square;" x1="20" x2="50" y1="280" y2="280"/>
  <line style="fill:none;stroke:rgb(255,127,0);stroke-opacity:0.24705882352941178;stroke-width:2;stroke-miterlimit:10;stroke-linecap:square;" x1="50" x2="50" y1="278" y2="277"/>
  <rect height="19" style="fill:rgb(255,127,0);fill-opacity:0.7490196078431373;stroke:none;" width="4" x="62" y="280"/>
  <line style="fill:none;stroke:rgb(255,127,0);stroke-opacity:0.24705882352941178;stroke-width:2;stroke-miterlimit:10;stroke-linecap:square;" x1="50" x2="64" y1="275" y2="275"/>
  <line style="fill:none;stroke:rgb(255,127,0);stroke-opacity:0.24705882352941178;stroke-width:2;stroke-miterlimit:10;stroke-linecap:square;" x1="64" x2="64" y1="273" y2="257"/>
  <rect height="9" style="fill:rgb(255,127,0);fill-opacity:0.7490196078431373;stroke:none;" width="4" x="91" y="290"/>
  <line style="fill:none;stroke:rgb(255,127,0);stroke-opacity:0.24705882352941178;stroke-width:2;stroke-miterlimit:10;stroke-linecap:square;" x1="64" x2="93" y1="255" y2="255"/>
  <line style="fill:none;stroke:rgb(255,127,0);stroke-opacity:0.24705882352941178;stroke-width:2;stroke-miterlimit:10;stroke-linecap:square;" x1="93" x2="93" y1="253" y2="248"/>
  <rect height="4" style="fill:rgb(255,127,0);fill-opacity:0.7490196078431373;stroke:none;" width="4" x="106" y="295"/>
  <line style="fill:none;stroke:rgb(255,127,0);stroke-opacity:0.24705882352941178;stroke-width:2;stroke-miterlimit:10;stroke-linecap:square;" x1="93" x2="108" y1="246" y2="246"/>
  <line style="fill:none;stroke:rgb(255,127,0);stroke-opacity:0.24705882352941178;stroke-width:2;stroke-miterlimit:10;stroke-linecap:square;" x1="108" x2="108" y1="244" y2="243"/>
  <rect height="9" style="fill:rgb(255,127,0);fill-opacity:0.7490196078431373;stroke:none;" width="4" x="150" y="290"/>
  <line style="fill:none;stroke:rgb(255,127,0);stroke-opacity:0.24705882352941178;stroke-width:2;stroke-miterlimit:10;stroke-linecap:square;" x1="108" x2="152" y1="241" y2="241"/>
  <line style="fill:none;stroke:rgb(255,127,0);stroke-opacity:0.24705882352941178;stroke-width:2;stroke-miterlimit:10;stroke-linecap:square;" x1="152" x2="152" y1="239" y2="233"/>
  <rect height="14" style="fill:rgb(255,127,0);fill-opacity:0.7490196078431373;stroke:none;" width="4" x="164" y="285"/>
  <line style="fill:none;stroke:rgb(255,127,0);stroke-opacity:0.24705882352941178;stroke-width:2;stroke-miterlimit:10;stroke-linecap:square;" x1="152" x2="166" y1="231" y2="231"/>
  <line style="fill:none;stroke:rgb(255,127,0);stroke-opacity:0.24705882352941178;stroke-width:2;stroke-miterlimit:10;stroke-linecap:square;" x1="166" x2="166" y1="229" y2="218"/>
  <rect height="14" style="fill:rgb(255,127,0);fill-opacity:0.7490196078431373;stroke:none;" width="4" x="179" y="285"/>
  <line style="fill:none;stroke:rgb(255,127,0);stroke-opacity:0.24705882352941178;stroke-width:2;stroke-miterlimit:10;stroke-linecap:square;" x1="166" x2="181" y1="216" y2="216"/>
  <line style="fill:none;stroke:rgb(255,127,0);stroke-opacity:0.24705882352941178;stroke-width:2;stroke-miterlimit:10;stroke-linecap:square;" x1="181" x2="181" y1="214" y2="204"/>
  <rect height="48" style="fill:rgb(255,127,0);fill-opacity:0.7490196078431373;stroke:none;" width="4" x="193" y="251"/>
  <line style="fill:none;stroke:rgb(255,127,0);stroke-opacity:0.24705882352941178;stroke-width:2;stroke-miterlimit:10;stroke-linecap:square;" x1="181" x2="195" y1="202" y2="202"/>
  <line style="fill:none;stroke:rgb(255,127,0);stroke-opacity:0.24705882352941178;stroke-width:2;stroke-miterlimit:10;stroke-linecap:square;" x1="195" x2="195" y1="200" y2="155"/>
  <rect height="24" style="fill:rgb(255,127,0);fill-opacity:0.7490196078431373;stroke:none;" width="4" x="208" y="275"/>
  <line style="fill:none;stroke:rgb(255,127,0);stroke-opacity:0.24705882352941178;stroke-width:2;stroke-miterlimit:10;stroke-linecap:square;" x1="195" x2="210" y1="153" y2="153"/>
  <line style="fill:none;stroke:rgb(255,127,0);stroke-opacity:0.24705882352941178;stroke-width:2;stroke-miterlimit:10;stroke-linecap:square;" x1="210" x2="210" y1="151" y2="130"/>
  <rect height="9" style="fill:rgb(255,127,0);fill-opacity:0.7490196078431373;stroke:none;" width="4" x="237" y="290"/>
  <line style="fill:none;stroke:rgb(255,127,0);stroke-opacity:0.24705882352941178;stroke-width:2;stroke-miterlimit:10;stroke-linecap:square;" x1="210" x2="239" y1="128" y2="128"/>
  <line style="fill:none;stroke:rgb(255,127,0);stroke-opacity:0.24705882352941178;stroke-width:2;stroke-miterlimit:10;stroke-linecap:square;" x1="239" x2="239" y1="126" y2="120"/>
  <rect height="4" style="fill:rgb(255,127,0);fill-opacity:0.7490196078431373;stroke:none;" width="4" x="281" y="295"/>
  <line style="fill:none;stroke:rgb(255,127,0);stroke-opacity:0.24705882352941178;stroke-width:2;stroke-miterlimit:10;stroke-linecap:square;" x1="239" x2="283" y1="118" y2="118"/>
  <line style="fill:none;stroke:rgb(255,127,0);stroke-opacity:0.24705882352941178;stroke-width:2;stroke-miterlimit:10;stroke-linecap:square;" x1="283" x2="283" y1="116" y2="115"/>
  <rect height="24" style="fill:rgb(255,127,0);fill-opacity:0.7490196078431373;stroke:none;" width="4" x="310" y="275"/>
  <line style="fill:none;stroke:rgb(255,127,0);stroke-opacity:0.24705882352941178;stroke-width:2;stroke-miterlimit:10;stroke-linecap:square;" x1="283" x2="312" y1="113" y2="113"/>
  <line style="fill:none;stroke:rgb(255,127,0);stroke-opacity:0.24705882352941178;stroke-width:2;stroke-miterlimit:10;stroke-linecap:square;" x1="312" x2="312" y1="111" y2="91"/>
  <rect height="9" style="fill:rgb(255,127,0);fill-opacity:0.7490196078431373;stroke:none;" width="4" x="325" y="290"/>
  <line style="fill:none;stroke:rgb(255,127,0);stroke-opacity:0.24705882352941178;stroke-width:2;stroke-miterlimit:10;stroke-linecap:square;" x1="312" x2="327" y1="89" y2="89"/>
  <line style="fill:none;stroke:rgb(255,127,0);stroke-opacity:0.24705882352941178;stroke-width:2;stroke-miterlimit:10;stroke-linecap:square;" x1="327" x2="327" y1="87" y2="81"/>
  <rect height="19" style="fill:rgb(255,127,0);fill-opacity:0.7490196078431373;stroke:none;" width="4" x="339" y="280"/>
  <line style="fill:none;stroke:rgb(255,127,0);stroke-opacity:0.24705882352941178;stroke-width:2;stroke-miterlimit:10;stroke-linecap:square;" x1="327" x2="341" y1="79" y2="79"/>
  <line style="fill:none;stroke:rgb(255,127,0);stroke-opacity:0.24705882352941178;stroke-width:2;stroke-miterlimit:10;stroke-linecap:square;" x1="341" x2="341" y1="77" y2="62"/>
  <line style="fill:none;stroke:rgb(255,127,0);stroke-opacity:0.24705882352941178;stroke-width:2;stroke-miterlimit:10;stroke-linecap:square;" x1="341" x2="400" y1="60" y2="60"/>
  <line style="fill:none;stroke:rgb(255,127,0);stroke-opacity:0.4980392156862745;stroke-miterlimit:2;stroke-dasharray:2;" x1="6" x2="6" y1="300" y2="350"/>
  <line style="fill:none;stroke:rgb(255,127,0);stroke-opacity:0.4980392156862745;stroke-miterlimit:2;stroke-dasharray:2;" x1="6" x2="6" y1="300" y2="363"/>
  <line style="fill:none;stroke:rgb(255,127,0);stroke-opacity:0.4980392156862745;stroke-miterlimit:2;stroke-dasharray:2;" x1="6" x2="6" y1="300" y2="376"/>
  <line style="fill:none;stroke:rgb(255,127,0);stroke-opacity:0.4980392156862745;stroke-miterlimit:2;stroke-dasharray:2;" x1="20" x2="20" y1="300" y2="389"/>
  <line style="fill:none;stroke:rgb(255,127,0);stroke-opacity:0.4980392156862745;stroke-miterlimit:2;stroke-dasharray:2;" x1="50" x2="50" y1="300" y2="402"/>
  <line style="fill:none;stroke:rgb(255,127,0);stroke-opacity:0.4980392156862745;stroke-miterlimit:2;stroke-dasharray:2;" x1="64" x2="64" y1="300" y2="415"/>
  <line style="fill:none;stroke:rgb(255,127,0);stroke-opacity:0.4980392156862745;stroke-miterlimit:2;stroke-dasharray:2;" x1="64" x2="64" y1="300" y2="428"/>
  <line style="fill:none;stroke:rgb(255,127,0);stroke-opacity:0.4980392156862745;stroke-miterlimit:2;stroke-dasharray:2;" x1="64" x2="64" y1="300" y2="441"/>
  <line style="fill:none;stroke:rgb(255,127,0);stroke-opacity:0.4980392156862745;stroke-miterlimit:2;stroke-dasharray:2;" x1="64" x2="64" y1="300" y2="454"/>
  <line style="fill:none;stroke:rgb(255,127,0);stroke-opacity:0.4980392156862745;stroke-miterlimit:2;stroke-dasharray:2;" x1="93" x2="93" y1="300" y2="467"/>
  <line style="fill:none;stroke:rgb(255,127,0);stroke-opacity:0.4980392156862745;stroke-miterlimit:2;stroke-dasharray:2;" x1="93" x2="93" y1="300" y2="480"/>
  <line style="fill:none;stroke:rgb(255,127,0);stroke-opacity:0.4980392156862745;stroke-miterlimit:2;stroke-dasharray:2;" x1="108" x2="108" y1="300" y2="493"/>
  <line style="fill:none;stroke:rgb(255,127,0);stroke-opacity:0.4980392156862745;stroke-miterlimit:2;stroke-dasharray:2;" x1="152" x2="152" y1="300" y2="350"/>
  <line style="fill:none;stroke:rgb(255,127,0);stroke-opacity:0.4980392156862745;stroke-miterlimit:2;stroke-dasharray:2;" x1="152" x2="152" y1="300" y2="363"/>
  <line style="fill:none;stroke:rgb(255,127,0);stroke-opacity:0.4980392156862745;stroke-miterlimit:2;stroke-dasharray:2;" x1="166" x2="166" y1="300" y2="380"/>
  <line style="fill:none;stroke:rgb(255,127,0);stroke-opacity:0.4980392156862745;stroke-miterlimit:2;stroke-dasharray:2;" x1="166" x2="166" y1="300" y2="397"/>
  <line style="fill:none;stroke:rgb(255,127,0);stroke-opacity:0.4980392156862745;stroke-miterlimit:2;stroke-dasharray:2;" x1="166" x2="166" y1="300" y2="414"/>
  <line style="fill:none;stroke:rgb(255,127,0);stroke-opacity:0.4980392156862745;stroke-miterlimit:2;stroke-dasharray:2;" x1="181" x2="181" y1="300" y2="431"/>
  <line style="fill:none;stroke:rgb(255,127,0);stroke-opacity:0.4980392156862745;stroke-miterlimit:2;stroke-dasharray:2;" x1="181" x2="181" y1="300" y2="448"/>
  <line style="fill:none;stroke:rgb(255,127,0);stroke-opacity:0.4980392156862745;stroke-miterlimit:2;stroke-dasharray:2;" x1="181" x2="181" y1="300" y2="465"/>
  <line style="fill:none;stroke:rgb(255,127,0);stroke-opacity:0.4980392156862745;stroke-miterlimit:2;stroke-dasharray:2;" x1="195" x2="195" y1="300" y2="482"/>
  <line style="fill:none;stroke:rgb(255,127,0);stroke-opacity:0.4980392156862745;stroke-miterlimit:2;stroke-dasharray:2;" x1="195" x2="195" y1="300" y2="499"/>
  <line style="fill:none;stroke:rgb(255,127,0);stroke-opacity:0.4980392156862745;stroke-miterlimit:2;stroke-dasharray:2;" x1="195" x2="195" y1="300" y2="516"/>
  <line style="fill:none;stroke:rgb(255,127,0);stroke-opacity:0.4980392156862745;stroke-miterlimit:2;stroke-dasharray:2;" x1="195" x2="195" y1="300" y2="533"/>
  <line style="fill:none;stroke:rgb(255,127,0);stroke-opacity:0.4980392156862745;stroke-miterlimit:2;stroke-dasharray:2;" x1="195" x2="195" y1="300" y2="550"/>
  <line style="fill:none;stroke:rgb(255,127,0);stroke-opacity:0.4980392156862745;stroke-miterlimit:2;stroke-dasharray:2;" x1="195" x2="195" y1="300" y2="567"/>
  <line style="fill:none;stroke:rgb(255,127,0);stroke-opacity:0.4980392156862745;stroke-miterlimit:2;stroke-dasharray:2;" x1="195" x2="195" y1="300" y2="584"/>
  <line style="fill:none;stroke:rgb(255,127,0);stroke-opacity:0.4980392156862745;stroke-miterlimit:2;stroke-dasharray:2;" x1="195" x2="195" y1="300" y2="601"/>
  <line style="fill:none;stroke:rgb(255,127,0);stroke-opacity:0.4980392156862745;stroke-miterlimit:2;stroke-dasharray:2;" x1="195" x2="195" y1="300" y2="618"/>
  <line style="fill:none;stroke:rgb(255,127,0);stroke-opacity:0.4980392156862745;stroke-miterlimit:2;stroke-dasharray:2;" x1="195" x2="195" y1="300" y2="635"/>
  <line style="fill:none;stroke:rgb(255,127,0);stroke-opacity:0.4980392156862745;stroke-miterlimit:2;stroke-dasharray:2;" x1="210" x2="210" y1="300" y2="652"/>
  <line style="fill:none;stroke:rgb(255,127,0);stroke-opacity:0.4980392156862745;stroke-miterlimit:2;stroke-dasharray:2;" x1="210" x2="210" y1="300" y2="669"/>
  <line style="fill:none;stroke:rgb(255,127,0);stroke-opacity:0.4980392156862745;stroke-miterlimit:2;stroke-dasharray:2;" x1="210" x2="210" y1="300" y2="686"/>
  <line style="fill:none;stroke:rgb(255,127,0);stroke-opacity:0.4980392156862745;stroke-miterlimit:2;stroke-dasharray:2;" x1="210" x2="210" y1="300" y2="703"/>
  <line style="fill:none;stroke:rgb(255,127,0);stroke-opacity:0.4980392156862745;stroke-miterlimit:2;stroke-dasharray:2;" x1="210" x2="210" y1="300" y2="720"/>
  <line style="fill:none;stroke:rgb(255,127,0);stroke-opacity:0.4980392156862745;stroke-miterlimit:2;stroke-dasharray:2;" x1="239" x2="239" y1="300" y2="733"/>
  <line style="fill:none;stroke:rgb(255,127,0);stroke-opacity:0.4980392156862745;stroke-miterlimit:2;stroke-dasharray:2;" x1="239" x2="239" y1="300" y2="746"/>
  <line style="fill:none;stroke:rgb(255,127,0);stroke-opacity:0.4980392156862745;stroke-miterlimit:2;stroke-dasharray:2;" x1="283" x2="283" y1="300" y2="759"/>
  <line style="fill:none;stroke:rgb(255,127,0);stroke-opacity:0.4980392156862745;stroke-miterlimit:2;stroke-dasharray:2;" x1="312" x2="312" y1="300" y2="772"/>
  <line style="fill:none;stroke:rgb(255,127,0);stroke-opacity:0.4980392156862745;stroke-miterlimit:2;stroke-dasharray:2;" x1="312" x2="312" y1="300" y2="785"/>
  <line style="fill:none;stroke:rgb(255,127,0);stroke-opacity:0.4980392156862745;stroke-miterlimit:2;stroke-dasharray:2;" x1="312" x2="312" y1="300" y2="798"/>
  <line style="fill:none;stroke:rgb(255,127,0);stroke-opacity:0.4980392156862745;stroke-miterlimit:2;stroke-dasharray:2;" x1="312" x2="312" y1="300" y2="811"/>
  <line style="fill:none;stroke:rgb(255,127,0);stroke-opacity:0.4980392156862745;stroke-miterlimit:2;stroke-dasharray:2;" x1="312" x2="312" y1="300" y2="824"/>
  <line style="fill:none;stroke:rgb(255,127,0);stroke-opacity:0.4980392156862745;stroke-miterlimit:2;stroke-dasharray:2;" x1="327" x2="327" y1="300" y2="837"/>
  <line style="fill:none;stroke:rgb(255,127,0);stroke-opacity:0.4980392156862745;stroke-miterlimit:2;stroke-dasharray:2;" x1="327" x2="327" y1="300" y2="850"/>
  <line style="fill:none;stroke:rgb(255,127,0);stroke-opacity:0.4980392156862745;stroke-miterlimit:2;stroke-dasharray:2;" x1="341" x2="341" y1="300" y2="863"/>
  <line style="fill:none;stroke:rgb(255,127,0);stroke-opacity:0.4980392156862745;stroke-miterlimit:2;stroke-dasharray:2;" x1="341" x2="341" y1="300" y2="876"/>
  <line style="fill:none;stroke:rgb(255,127,0);stroke-opacity:0.4980392156862745;stroke-miterlimit:2;stroke-dasharray:2;" x1="341" x2="341" y1="300" y2="889"/>
  <line style="fill:none;stroke:rgb(255,127,0);stroke-opacity:0.4980392156862745;stroke-miterlimit:2;stroke-dasharray:2;" x1="341" x2="341" y1="300" y2="902"/>
  <line style="fill:none;stroke:rgb(0,0,0);stroke-width:2;stroke-miterlimit:10;stroke-linecap:square;" x1="48" x2="48" y1="60" y2="300"/>
  <line style="fill:none;stroke:rgb(0,0,0);stroke-width:2;stroke-miterlimit:10;stroke-linecap:square;" x1="48" x2="402" y1="300" y2="300"/>
  <rect height="30" style="fill:rgb(255,255,255);stroke:none;" width="17" x="42" y="308"/>
  <text style="fill:rgb(0,0,0);stroke:none;font-size:25px;font-weight:bold;" x="42" y="332">0</text>
  <rect height="30" style="fill:rgb(255,255,255);stroke:none;" width="34" x="383" y="308"/>
  <text style="fill:rgb(0,0,0);stroke:none;font-size:25px;font-weight:bold;" x="383" y="332">24</text>
  <text style="fill:rgb(0,0,0);stroke:none;font-size:25px;font-weight:bold;" x="25" y="312">0</text>
  <text style="fill:rgb(0,0,0);stroke:none;font-size:25px;font-weight:bold;" x="25" y="72">1</text>
  <text style="fill:rgb(0,0,0);stroke:none;font-size:19px;font-weight:bold;" x="10" y="39">GOBP_REGULATION_OF_DEFENSE_RESPONSE</text>
  <rect height="10" style="fill:rgb(255,255,255);stroke:none;" width="24" x="6" y="340"/>
  <text style="fill:rgb(128,128,128);stroke:none;font-size:10px;" x="6" y="350">ITCH</text>
  <rect height="10" style="fill:rgb(255,255,255);stroke:none;" width="35" x="6" y="353"/>
  <text style="fill:rgb(128,128,128);stroke:none;font-size:10px;" x="6" y="363">GPER1</text>
  <rect height="10" style="fill:rgb(255,255,255);stroke:none;" width="42" x="6" y="366"/>
  <text style="fill:rgb(128,128,128);stroke:none;font-size:10px;" x="6" y="376">CLEC7A</text>
  <rect height="10" style="fill:rgb(255,255,255);stroke:none;" width="53" x="20" y="379"/>
  <text style="fill:rgb(128,128,128);stroke:none;font-size:10px;" x="20" y="389">C1QTNF12</text>
  <rect height="10" style="fill:rgb(255,255,255);stroke:none;" width="50" x="50" y="392"/>
  <text style="fill:rgb(128,128,128);stroke:none;font-size:10px;" x="50" y="402">ZDHHC11</text>
  <rect height="10" style="fill:rgb(255,255,255);stroke:none;" width="25" x="64" y="405"/>
  <text style="fill:rgb(128,128,128);stroke:none;font-size:10px;" x="64" y="415">BST1</text>
  <rect height="10" style="fill:rgb(255,255,255);stroke:none;" width="35" x="64" y="418"/>
  <text style="fill:rgb(128,128,128);stroke:none;font-size:10px;" x="64" y="428">NPAS2</text>
  <rect height="10" style="fill:rgb(255,255,255);stroke:none;" width="32" x="64" y="431"/>
  <text style="fill:rgb(128,128,128);stroke:none;font-size:10px;" x="64" y="441">TRPV4</text>
  <rect height="10" style="fill:rgb(255,255,255);stroke:none;" width="38" x="64" y="444"/>
  <text style="fill:rgb(128,128,128);stroke:none;font-size:10px;" x="64" y="454">S100A9</text>
  <rect height="10" style="fill:rgb(255,255,255);stroke:none;" width="22" x="93" y="457"/>
  <text style="fill:rgb(128,128,128);stroke:none;font-size:10px;" x="93" y="467">IRF1</text>
  <rect height="10" style="fill:rgb(255,255,255);stroke:none;" width="33" x="93" y="470"/>
  <text style="fill:rgb(128,128,128);stroke:none;font-size:10px;" x="93" y="480">ALOX5</text>
  <rect height="10" style="fill:rgb(255,255,255);stroke:none;" width="36" x="108" y="483"/>
  <text style="fill:rgb(128,128,128);stroke:none;font-size:10px;" x="108" y="493">SOCS3</text>
  <rect height="10" style="fill:rgb(255,255,255);stroke:none;" width="19" x="152" y="340"/>
  <text style="fill:rgb(128,128,128);stroke:none;font-size:10px;" x="152" y="350">TNF</text>
  <rect height="10" style="fill:rgb(255,255,255);stroke:none;" width="43" x="152" y="353"/>
  <text style="fill:rgb(128,128,128);stroke:none;font-size:10px;" x="152" y="363">DNASE1</text>
  <rect height="13" style="fill:rgb(255,255,255);stroke:none;" width="24" x="166" y="367"/>
  <text style="fill:rgb(128,128,128);stroke:none;font-size:13px;" x="166" y="380">SYK</text>
  <rect height="13" style="fill:rgb(255,255,255);stroke:none;" width="26" x="166" y="384"/>
  <text style="fill:rgb(128,128,128);stroke:none;font-size:13px;" x="166" y="397">IRF7</text>
  <rect height="13" style="fill:rgb(255,255,255);stroke:none;" width="43" x="166" y="401"/>
  <text style="fill:rgb(128,128,128);stroke:none;font-size:13px;" x="166" y="414">USP18</text>
  <rect height="13" style="fill:rgb(255,255,255);stroke:none;" width="37" x="181" y="418"/>
  <text style="fill:rgb(128,128,128);stroke:none;font-size:13px;" x="181" y="431">BIRC3</text>
  <rect height="13" style="fill:rgb(255,255,255);stroke:none;" width="41" x="181" y="435"/>
  <text style="fill:rgb(128,128,128);stroke:none;font-size:13px;" x="181" y="448">IL1RL2</text>
  <rect height="13" style="fill:rgb(255,255,255);stroke:none;" width="67" x="181" y="452"/>
  <text style="fill:rgb(128,128,128);stroke:none;font-size:13px;" x="181" y="465">TNFAIP8L2</text>
  <rect height="13" style="fill:rgb(255,255,255);stroke:none;" width="28" x="195" y="469"/>
  <text style="fill:rgb(128,128,128);stroke:none;font-size:13px;" x="195" y="482">ADA</text>
  <rect height="13" style="fill:rgb(255,255,255);stroke:none;" width="35" x="195" y="486"/>
  <text style="fill:rgb(128,128,128);stroke:none;font-size:13px;" x="195" y="499">ARG2</text>
  <rect height="13" style="fill:rgb(255,255,255);stroke:none;" width="32" x="195" y="503"/>
  <text style="fill:rgb(128,128,128);stroke:none;font-size:13px;" x="195" y="516">LDLR</text>
  <rect height="13" style="fill:rgb(255,255,255);stroke:none;" width="26" x="195" y="520"/>
  <text style="fill:rgb(128,128,128);stroke:none;font-size:13px;" x="195" y="533">IL37</text>
  <rect height="13" style="fill:rgb(255,255,255);stroke:none;" width="43" x="195" y="537"/>
  <text style="fill:rgb(128,128,128);stroke:none;font-size:13px;" x="195" y="550">CASP5</text>
  <rect height="13" style="fill:rgb(255,255,255);stroke:none;" width="37" x="195" y="554"/>
  <text style="fill:rgb(128,128,128);stroke:none;font-size:13px;" x="195" y="567">TRIM5</text>
  <rect height="13" style="fill:rgb(255,255,255);stroke:none;" width="43" x="195" y="571"/>
  <text style="fill:rgb(128,128,128);stroke:none;font-size:13px;" x="195" y="584">CASP4</text>
  <rect height="13" style="fill:rgb(255,255,255);stroke:none;" width="44" x="195" y="588"/>
  <text style="fill:rgb(128,128,128);stroke:none;font-size:13px;" x="195" y="601">RBM14</text>
  <rect height="13" style="fill:rgb(255,255,255);stroke:none;" width="51" x="195" y="605"/>
  <text style="fill:rgb(128,128,128);stroke:none;font-size:13px;" x="195" y="618">SLAMF8</text>
  <rect height="13" style="fill:rgb(255,255,255);stroke:none;" width="48" x="195" y="622"/>
  <text style="fill:rgb(128,128,128);stroke:none;font-size:13px;" x="195" y="635">RAET1E</text>
  <rect height="13" style="fill:rgb(255,255,255);stroke:none;" width="25" x="210" y="639"/>
  <text style="fill:rgb(128,128,128);stroke:none;font-size:13px;" x="210" y="652">ZYX</text>
  <rect height="13" style="fill:rgb(255,255,255);stroke:none;" width="36" x="210" y="656"/>
  <text style="fill:rgb(128,128,128);stroke:none;font-size:13px;" x="210" y="669">AKNA</text>
  <rect height="13" style="fill:rgb(255,255,255);stroke:none;" width="26" x="210" y="673"/>
  <text style="fill:rgb(128,128,128);stroke:none;font-size:13px;" x="210" y="686">IL33</text>
  <rect height="13" style="fill:rgb(255,255,255);stroke:none;" width="44" x="210" y="690"/>
  <text style="fill:rgb(128,128,128);stroke:none;font-size:13px;" x="210" y="703">TRADD</text>
  <rect height="13" style="fill:rgb(255,255,255);stroke:none;" width="40" x="210" y="707"/>
  <text style="fill:rgb(128,128,128);stroke:none;font-size:13px;" x="210" y="720">TYRO3</text>
  <rect height="10" style="fill:rgb(255,255,255);stroke:none;" width="35" x="239" y="723"/>
  <text style="fill:rgb(128,128,128);stroke:none;font-size:10px;" x="239" y="733">CASP1</text>
  <rect height="10" style="fill:rgb(255,255,255);stroke:none;" width="54" x="239" y="736"/>
  <text style="fill:rgb(128,128,128);stroke:none;font-size:10px;" x="239" y="746">HSP90AA1</text>
  <rect height="10" style="fill:rgb(255,255,255);stroke:none;" width="47" x="283" y="749"/>
  <text style="fill:rgb(128,128,128);stroke:none;font-size:10px;" x="283" y="759">C1QTNF3</text>
  <rect height="10" style="fill:rgb(255,255,255);stroke:none;" width="22" x="312" y="762"/>
  <text style="fill:rgb(128,128,128);stroke:none;font-size:10px;" x="312" y="772">CFH</text>
  <rect height="10" style="fill:rgb(255,255,255);stroke:none;" width="22" x="312" y="775"/>
  <text style="fill:rgb(128,128,128);stroke:none;font-size:10px;" x="312" y="785">A2M</text>
  <rect height="10" style="fill:rgb(255,255,255);stroke:none;" width="25" x="312" y="788"/>
  <text style="fill:rgb(128,128,128);stroke:none;font-size:10px;" x="312" y="798">KLF4</text>
  <rect height="10" style="fill:rgb(255,255,255);stroke:none;" width="27" x="312" y="801"/>
  <text style="fill:rgb(128,128,128);stroke:none;font-size:10px;" x="312" y="811">BCL6</text>
  <rect height="10" style="fill:rgb(255,255,255);stroke:none;" width="42" x="312" y="814"/>
  <text style="fill:rgb(128,128,128);stroke:none;font-size:10px;" x="312" y="824">TNFAIP6</text>
  <rect height="10" style="fill:rgb(255,255,255);stroke:none;" width="34" x="327" y="827"/>
  <text style="fill:rgb(128,128,128);stroke:none;font-size:10px;" x="327" y="837">KLRC4</text>
  <rect height="10" style="fill:rgb(255,255,255);stroke:none;" width="52" x="327" y="840"/>
  <text style="fill:rgb(128,128,128);stroke:none;font-size:10px;" x="327" y="850">CEACAM1</text>
  <rect height="10" style="fill:rgb(255,255,255);stroke:none;" width="21" x="341" y="853"/>
  <text style="fill:rgb(128,128,128);stroke:none;font-size:10px;" x="341" y="863">HPX</text>
  <rect height="10" style="fill:rgb(255,255,255);stroke:none;" width="28" x="341" y="866"/>
  <text style="fill:rgb(128,128,128);stroke:none;font-size:10px;" x="341" y="876">BRD4</text>
  <rect height="10" style="fill:rgb(255,255,255);stroke:none;" width="29" x="341" y="879"/>
  <text style="fill:rgb(128,128,128);stroke:none;font-size:10px;" x="341" y="889">GHRL</text>
  <rect height="10" style="fill:rgb(255,255,255);stroke:none;" width="30" x="341" y="892"/>
  <text style="fill:rgb(128,128,128);stroke:none;font-size:10px;" x="341" y="902">IRAK3</text>
</svg>
