<?xml version="1.0" encoding="UTF-8" standalone="no"?>
<!DOCTYPE svg PUBLIC "-//W3C//DTD SVG 1.1//EN" "http://www.w3.org/Graphics/SVG/1.1/DTD/svg11.dtd">
<svg xmlns:xlink="http://www.w3.org/1999/xlink" height="158.74999999999997mm" version="1.1" viewBox="0 0 500 600" width="132.29166666666666mm" x="0mm" y="0mm" xmlns="http://www.w3.org/2000/svg">
  <rect height="1200" style="fill:rgb(255,255,255);stroke:none;" width="1000" x="0" y="0"/>
  <rect height="240" style="fill:rgb(191,191,191);fill-opacity:0.4980392156862745;stroke:none;" width="175" x="225" y="60"/>
  <line style="fill:none;stroke:rgb(63,63,191);stroke-opacity:0.24705882352941178;stroke-miterlimit:10;stroke-linecap:square;" x1="50" x2="50" y1="300" y2="300"/>
  <line style="fill:none;stroke:rgb(63,63,191);stroke-opacity:0.24705882352941178;stroke-miterlimit:10;stroke-linecap:square;" x1="50" x2="64" y1="300" y2="290"/>
  <line style="fill:none;stroke:rgb(63,63,191);stroke-opacity:0.24705882352941178;stroke-miterlimit:10;stroke-linecap:square;" x1="64" x2="79" y1="290" y2="280"/>
  <line style="fill:none;stroke:rgb(63,63,191);stroke-opacity:0.24705882352941178;stroke-miterlimit:10;stroke-linecap:square;" x1="79" x2="93" y1="280" y2="270"/>
  <line style="fill:none;stroke:rgb(63,63,191);stroke-opacity:0.24705882352941178;stroke-miterlimit:10;stroke-linecap:square;" x1="93" x2="108" y1="270" y2="260"/>
  <line style="fill:none;stroke:rgb(63,63,191);stroke-opacity:0.24705882352941178;stroke-miterlimit:10;stroke-linecap:square;" x1="108" x2="122" y1="260" y2="250"/>
  <line style="fill:none;stroke:rgb(63,63,191);stroke-opacity:0.24705882352941178;stroke-miterlimit:10;stroke-linecap:square;" x1="122" x2="137" y1="250" y2="240"/>
  <line style="fill:none;stroke:rgb(63,63,191);stroke-opacity:0.24705882352941178;stroke-miterlimit:10;stroke-linecap:square;" x1="137" x2="152" y1="240" y2="230"/>
  <line style="fill:none;stroke:rgb(63,63,191);stroke-opacity:0.24705882352941178;stroke-miterlimit:10;stroke-linecap:square;" x1="152" x2="166" y1="230" y2="220"/>
  <line style="fill:none;stroke:rgb(63,63,191);stroke-opacity:0.24705882352941178;stroke-miterlimit:10;stroke-linecap:square;" x1="166" x2="181" y1="220" y2="210"/>
  <line style="fill:none;stroke:rgb(63,63,191);stroke-opacity:0.24705882352941178;stroke-miterlimit:10;stroke-linecap:square;" x1="181" x2="195" y1="210" y2="200"/>
  <line style="fill:none;stroke:rgb(63,63,191);stroke-opacity:0.24705882352941178;stroke-miterlimit:10;stroke-linecap:square;" x1="195" x2="210" y1="200" y2="190"/>
  <line style="fill:none;stroke:rgb(63,63,191);stroke-opacity:0.24705882352941178;stroke-miterlimit:10;stroke-linecap:square;" x1="210" x2="225" y1="190" y2="180"/>
  <line style="fill:none;stroke:rgb(63,63,191);stroke-opacity:0.24705882352941178;stroke-miterlimit:10;stroke-linecap:square;" x1="225" x2="239" y1="180" y2="170"/>
  <line style="fill:none;stroke:rgb(63,63,191);stroke-opacity:0.24705882352941178;stroke-miterlimit:10;stroke-linecap:square;" x1="239" x2="254" y1="170" y2="160"/>
  <line style="fill:none;stroke:rgb(63,63,191);stroke-opacity:0.24705882352941178;stroke-miterlimit:10;stroke-linecap:square;" x1="254" x2="268" y1="160" y2="150"/>
  <line style="fill:none;stroke:rgb(63,63,191);stroke-opacity:0.24705882352941178;stroke-miterlimit:10;stroke-linecap:square;" x1="268" x2="283" y1="150" y2="140"/>
  <line style="fill:none;stroke:rgb(63,63,191);stroke-opacity:0.24705882352941178;stroke-miterlimit:10;stroke-linecap:square;" x1="283" x2="297" y1="140" y2="130"/>
  <line style="fill:none;stroke:rgb(63,63,191);stroke-opacity:0.24705882352941178;stroke-miterlimit:10;stroke-linecap:square;" x1="297" x2="312" y1="130" y2="120"/>
  <line style="fill:none;stroke:rgb(63,63,191);stroke-opacity:0.24705882352941178;stroke-miterlimit:10;stroke-linecap:square;" x1="312" x2="327" y1="120" y2="110"/>
  <line style="fill:none;stroke:rgb(63,63,191);stroke-opacity:0.24705882352941178;stroke-miterlimit:10;stroke-linecap:square;" x1="327" x2="341" y1="110" y2="100"/>
  <line style="fill:none;stroke:rgb(63,63,191);stroke-opacity:0.24705882352941178;stroke-miterlimit:10;stroke-linecap:square;" x1="341" x2="356" y1="100" y2="90"/>
  <line style="fill:none;stroke:rgb(63,63,191);stroke-opacity:0.24705882352941178;stroke-miterlimit:10;stroke-linecap:square;" x1="356" x2="370" y1="90" y2="80"/>
  <line style="fill:none;stroke:rgb(63,63,191);stroke-opacity:0.24705882352941178;stroke-miterlimit:10;stroke-linecap:square;" x1="370" x2="385" y1="80" y2="70"/>
  <line style="fill:none;stroke:rgb(63,63,191);stroke-opacity:0.24705882352941178;stroke-miterlimit:10;stroke-linecap:square;" x1="385" x2="400" y1="70" y2="60"/>
  <line style="fill:none;stroke:rgb(63,63,191);stroke-opacity:0.24705882352941178;stroke-miterlimit:10;stroke-linecap:square;" x1="400" x2="400" y1="60" y2="60"/>
  <rect height="19" style="fill:rgb(255,127,0);fill-opacity:0.7490196078431373;stroke:none;" width="4" x="62" y="280"/>
  <line style="fill:none;stroke:rgb(255,127,0);stroke-opacity:0.24705882352941178;stroke-width:2;stroke-miterlimit:10;stroke-linecap:square;" x1="50" x2="64" y1="300" y2="300"/>
  <line style="fill:none;stroke:rgb(255,127,0);stroke-opacity:0.24705882352941178;stroke-width:2;stroke-miterlimit:10;stroke-linecap:square;" x1="64" x2="64" y1="298" y2="282"/>
  <rect height="11" style="fill:rgb(255,127,0);fill-opacity:0.7490196078431373;stroke:none;" width="4" x="77" y="288"/>
  <line style="fill:none;stroke:rgb(255,127,0);stroke-opacity:0.24705882352941178;stroke-width:2;stroke-miterlimit:10;stroke-linecap:square;" x1="64" x2="79" y1="280" y2="280"/>
  <line style="fill:none;stroke:rgb(255,127,0);stroke-opacity:0.24705882352941178;stroke-width:2;stroke-miterlimit:10;stroke-linecap:square;" x1="79" x2="79" y1="278" y2="271"/>
  <rect height="3" style="fill:rgb(255,127,0);fill-opacity:0.7490196078431373;stroke:none;" width="4" x="91" y="296"/>
  <line style="fill:none;stroke:rgb(255,127,0);stroke-opacity:0.24705882352941178;stroke-width:2;stroke-miterlimit:10;stroke-linecap:square;" x1="79" x2="93" y1="269" y2="269"/>
  <line style="fill:none;stroke:rgb(255,127,0);stroke-opacity:0.24705882352941178;stroke-width:2;stroke-miterlimit:10;stroke-linecap:square;" x1="93" x2="93" y1="267" y2="267"/>
  <rect height="11" style="fill:rgb(255,127,0);fill-opacity:0.7490196078431373;stroke:none;" width="4" x="106" y="288"/>
  <line style="fill:none;stroke:rgb(255,127,0);stroke-opacity:0.24705882352941178;stroke-width:2;stroke-miterlimit:10;stroke-linecap:square;" x1="93" x2="108" y1="265" y2="265"/>
  <line style="fill:none;stroke:rgb(255,127,0);stroke-opacity:0.24705882352941178;stroke-width:2;stroke-miterlimit:10;stroke-linecap:square;" x1="108" x2="108" y1="263" y2="256"/>
  <rect height="7" style="fill:rgb(255,127,0);fill-opacity:0.7490196078431373;stroke:none;" width="4" x="120" y="292"/>
  <line style="fill:none;stroke:rgb(255,127,0);stroke-opacity:0.24705882352941178;stroke-width:2;stroke-miterlimit:10;stroke-linecap:square;" x1="108" x2="122" y1="254" y2="254"/>
  <line style="fill:none;stroke:rgb(255,127,0);stroke-opacity:0.24705882352941178;stroke-width:2;stroke-miterlimit:10;stroke-linecap:square;" x1="122" x2="122" y1="252" y2="248"/>
  <rect height="7" style="fill:rgb(255,127,0);fill-opacity:0.7490196078431373;stroke:none;" width="4" x="135" y="292"/>
  <line style="fill:none;stroke:rgb(255,127,0);stroke-opacity:0.24705882352941178;stroke-width:2;stroke-miterlimit:10;stroke-linecap:square;" x1="122" x2="137" y1="246" y2="246"/>
  <line style="fill:none;stroke:rgb(255,127,0);stroke-opacity:0.24705882352941178;stroke-width:2;stroke-miterlimit:10;stroke-linecap:square;" x1="137" x2="137" y1="244" y2="241"/>
  <rect height="11" style="fill:rgb(255,127,0);fill-opacity:0.7490196078431373;stroke:none;" width="4" x="179" y="288"/>
  <line style="fill:none;stroke:rgb(255,127,0);stroke-opacity:0.24705882352941178;stroke-width:2;stroke-miterlimit:10;stroke-linecap:square;" x1="137" x2="181" y1="239" y2="239"/>
  <line style="fill:none;stroke:rgb(255,127,0);stroke-opacity:0.24705882352941178;stroke-width:2;stroke-miterlimit:10;stroke-linecap:square;" x1="181" x2="181" y1="237" y2="229"/>
  <rect height="3" style="fill:rgb(255,127,0);fill-opacity:0.7490196078431373;stroke:none;" width="4" x="193" y="296"/>
  <line style="fill:none;stroke:rgb(255,127,0);stroke-opacity:0.24705882352941178;stroke-width:2;stroke-miterlimit:10;stroke-linecap:square;" x1="181" x2="195" y1="227" y2="227"/>
  <line style="fill:none;stroke:rgb(255,127,0);stroke-opacity:0.24705882352941178;stroke-width:2;stroke-miterlimit:10;stroke-linecap:square;" x1="195" x2="195" y1="225" y2="225"/>
  <rect height="3" style="fill:rgb(255,127,0);fill-opacity:0.7490196078431373;stroke:none;" width="4" x="208" y="296"/>
  <line style="fill:none;stroke:rgb(255,127,0);stroke-opacity:0.24705882352941178;stroke-width:2;stroke-miterlimit:10;stroke-linecap:square;" x1="195" x2="210" y1="223" y2="223"/>
  <line style="fill:none;stroke:rgb(255,127,0);stroke-opacity:0.24705882352941178;stroke-width:2;stroke-miterlimit:10;stroke-linecap:square;" x1="210" x2="210" y1="221" y2="222"/>
  <rect height="26" style="fill:rgb(255,127,0);fill-opacity:0.7490196078431373;stroke:none;" width="4" x="223" y="273"/>
  <line style="fill:none;stroke:rgb(255,127,0);stroke-opacity:0.24705882352941178;stroke-width:2;stroke-miterlimit:10;stroke-linecap:square;" x1="210" x2="225" y1="220" y2="220"/>
  <line style="fill:none;stroke:rgb(255,127,0);stroke-opacity:0.24705882352941178;stroke-width:2;stroke-miterlimit:10;stroke-linecap:square;" x1="225" x2="225" y1="218" y2="195"/>
  <rect height="26" style="fill:rgb(255,127,0);fill-opacity:0.7490196078431373;stroke:none;" width="4" x="237" y="273"/>
  <line style="fill:none;stroke:rgb(255,127,0);stroke-opacity:0.24705882352941178;stroke-width:2;stroke-miterlimit:10;stroke-linecap:square;" x1="225" x2="239" y1="193" y2="193"/>
  <line style="fill:none;stroke:rgb(255,127,0);stroke-opacity:0.24705882352941178;stroke-width:2;stroke-miterlimit:10;stroke-linecap:square;" x1="239" x2="239" y1="191" y2="168"/>
  <rect height="19" style="fill:rgb(255,127,0);fill-opacity:0.7490196078431373;stroke:none;" width="4" x="252" y="280"/>
  <line style="fill:none;stroke:rgb(255,127,0);stroke-opacity:0.24705882352941178;stroke-width:2;stroke-miterlimit:10;stroke-linecap:square;" x1="239" x2="254" y1="166" y2="166"/>
  <line style="fill:none;stroke:rgb(255,127,0);stroke-opacity:0.24705882352941178;stroke-width:2;stroke-miterlimit:10;stroke-linecap:square;" x1="254" x2="254" y1="164" y2="149"/>
  <rect height="15" style="fill:rgb(255,127,0);fill-opacity:0.7490196078431373;stroke:none;" width="4" x="266" y="284"/>
  <line style="fill:none;stroke:rgb(255,127,0);stroke-opacity:0.24705882352941178;stroke-width:2;stroke-miterlimit:10;stroke-linecap:square;" x1="254" x2="268" y1="147" y2="147"/>
  <line style="fill:none;stroke:rgb(255,127,0);stroke-opacity:0.24705882352941178;stroke-width:2;stroke-miterlimit:10;stroke-linecap:square;" x1="268" x2="268" y1="145" y2="134"/>
  <rect height="15" style="fill:rgb(255,127,0);fill-opacity:0.7490196078431373;stroke:none;" width="4" x="281" y="284"/>
  <line style="fill:none;stroke:rgb(255,127,0);stroke-opacity:0.24705882352941178;stroke-width:2;stroke-miterlimit:10;stroke-linecap:square;" x1="268" x2="283" y1="132" y2="132"/>
  <line style="fill:none;stroke:rgb(255,127,0);stroke-opacity:0.24705882352941178;stroke-width:2;stroke-miterlimit:10;stroke-linecap:square;" x1="283" x2="283" y1="130" y2="119"/>
  <rect height="15" style="fill:rgb(255,127,0);fill-opacity:0.7490196078431373;stroke:none;" width="4" x="295" y="284"/>
  <line style="fill:none;stroke:rgb(255,127,0);stroke-opacity:0.24705882352941178;stroke-width:2;stroke-miterlimit:10;stroke-linecap:square;" x1="283" x2="297" y1="117" y2="117"/>
  <line style="fill:none;stroke:rgb(255,127,0);stroke-opacity:0.24705882352941178;stroke-width:2;stroke-miterlimit:10;stroke-linecap:square;" x1="297" x2="297" y1="115" y2="103"/>
  <rect height="3" style="fill:rgb(255,127,0);fill-opacity:0.7490196078431373;stroke:none;" width="4" x="310" y="296"/>
  <line style="fill:none;stroke:rgb(255,127,0);stroke-opacity:0.24705882352941178;stroke-width:2;stroke-miterlimit:10;stroke-linecap:square;" x1="297" x2="312" y1="101" y2="101"/>
  <line style="fill:none;stroke:rgb(255,127,0);stroke-opacity:0.24705882352941178;stroke-width:2;stroke-miterlimit:10;stroke-linecap:square;" x1="312" x2="312" y1="99" y2="100"/>
  <rect height="15" style="fill:rgb(255,127,0);fill-opacity:0.7490196078431373;stroke:none;" width="4" x="325" y="284"/>
  <line style="fill:none;stroke:rgb(255,127,0);stroke-opacity:0.24705882352941178;stroke-width:2;stroke-miterlimit:10;stroke-linecap:square;" x1="312" x2="327" y1="98" y2="98"/>
  <line style="fill:none;stroke:rgb(255,127,0);stroke-opacity:0.24705882352941178;stroke-width:2;stroke-miterlimit:10;stroke-linecap:square;" x1="327" x2="327" y1="96" y2="84"/>
  <rect height="11" style="fill:rgb(255,127,0);fill-opacity:0.7490196078431373;stroke:none;" width="4" x="339" y="288"/>
  <line style="fill:none;stroke:rgb(255,127,0);stroke-opacity:0.24705882352941178;stroke-width:2;stroke-miterlimit:10;stroke-linecap:square;" x1="327" x2="341" y1="82" y2="82"/>
  <line style="fill:none;stroke:rgb(255,127,0);stroke-opacity:0.24705882352941178;stroke-width:2;stroke-miterlimit:10;stroke-linecap:square;" x1="341" x2="341" y1="80" y2="73"/>
  <rect height="3" style="fill:rgb(255,127,0);fill-opacity:0.7490196078431373;stroke:none;" width="4" x="368" y="296"/>
  <line style="fill:none;stroke:rgb(255,127,0);stroke-opacity:0.24705882352941178;stroke-width:2;stroke-miterlimit:10;stroke-linecap:square;" x1="341" x2="370" y1="71" y2="71"/>
  <line style="fill:none;stroke:rgb(255,127,0);stroke-opacity:0.24705882352941178;stroke-width:2;stroke-miterlimit:10;stroke-linecap:square;" x1="370" x2="370" y1="69" y2="69"/>
  <rect height="7" style="fill:rgb(255,127,0);fill-opacity:0.7490196078431373;stroke:none;" width="4" x="383" y="292"/>
  <line style="fill:none;stroke:rgb(255,127,0);stroke-opacity:0.24705882352941178;stroke-width:2;stroke-miterlimit:10;stroke-linecap:square;" x1="370" x2="385" y1="67" y2="67"/>
  <line style="fill:none;stroke:rgb(255,127,0);stroke-opacity:0.24705882352941178;stroke-width:2;stroke-miterlimit:10;stroke-linecap:square;" x1="385" x2="385" y1="65" y2="62"/>
  <line style="fill:none;stroke:rgb(255,127,0);stroke-opacity:0.24705882352941178;stroke-width:2;stroke-miterlimit:10;stroke-linecap:square;" x1="385" x2="400" y1="60" y2="60"/>
  <line style="fill:none;stroke:rgb(255,127,0);stroke-opacity:0.4980392156862745;stroke-miterlimit:2;stroke-dasharray:2;" x1="64" x2="64" y1="300" y2="350"/>
  <line style="fill:none;stroke:rgb(255,127,0);stroke-opacity:0.4980392156862745;stroke-miterlimit:2;stroke-dasharray:2;" x1="64" x2="64" y1="300" y2="363"/>
  <line style="fill:none;stroke:rgb(255,127,0);stroke-opacity:0.4980392156862745;stroke-miterlimit:2;stroke-dasharray:2;" x1="64" x2="64" y1="300" y2="376"/>
  <line style="fill:none;stroke:rgb(255,127,0);stroke-opacity:0.4980392156862745;stroke-miterlimit:2;stroke-dasharray:2;" x1="64" x2="64" y1="300" y2="389"/>
  <line style="fill:none;stroke:rgb(255,127,0);stroke-opacity:0.4980392156862745;stroke-miterlimit:2;stroke-dasharray:2;" x1="64" x2="64" y1="300" y2="402"/>
  <line style="fill:none;stroke:rgb(255,127,0);stroke-opacity:0.4980392156862745;stroke-miterlimit:2;stroke-dasharray:2;" x1="79" x2="79" y1="300" y2="415"/>
  <line style="fill:none;stroke:rgb(255,127,0);stroke-opacity:0.4980392156862745;stroke-miterlimit:2;stroke-dasharray:2;" x1="79" x2="79" y1="300" y2="428"/>
  <line style="fill:none;stroke:rgb(255,127,0);stroke-opacity:0.4980392156862745;stroke-miterlimit:2;stroke-dasharray:2;" x1="79" x2="79" y1="300" y2="441"/>
  <line style="fill:none;stroke:rgb(255,127,0);stroke-opacity:0.4980392156862745;stroke-miterlimit:2;stroke-dasharray:2;" x1="93" x2="93" y1="300" y2="454"/>
  <line style="fill:none;stroke:rgb(255,127,0);stroke-opacity:0.4980392156862745;stroke-miterlimit:2;stroke-dasharray:2;" x1="108" x2="108" y1="300" y2="467"/>
  <line style="fill:none;stroke:rgb(255,127,0);stroke-opacity:0.4980392156862745;stroke-miterlimit:2;stroke-dasharray:2;" x1="108" x2="108" y1="300" y2="480"/>
  <line style="fill:none;stroke:rgb(255,127,0);stroke-opacity:0.4980392156862745;stroke-miterlimit:2;stroke-dasharray:2;" x1="108" x2="108" y1="300" y2="493"/>
  <line style="fill:none;stroke:rgb(255,127,0);stroke-opacity:0.4980392156862745;stroke-miterlimit:2;stroke-dasharray:2;" x1="122" x2="122" y1="300" y2="506"/>
  <line style="fill:none;stroke:rgb(255,127,0);stroke-opacity:0.4980392156862745;stroke-miterlimit:2;stroke-dasharray:2;" x1="122" x2="122" y1="300" y2="519"/>
  <line style="fill:none;stroke:rgb(255,127,0);stroke-opacity:0.4980392156862745;stroke-miterlimit:2;stroke-dasharray:2;" x1="137" x2="137" y1="300" y2="532"/>
  <line style="fill:none;stroke:rgb(255,127,0);stroke-opacity:0.4980392156862745;stroke-miterlimit:2;stroke-dasharray:2;" x1="137" x2="137" y1="300" y2="545"/>
  <line style="fill:none;stroke:rgb(255,127,0);stroke-opacity:0.4980392156862745;stroke-miterlimit:2;stroke-dasharray:2;" x1="181" x2="181" y1="300" y2="350"/>
  <line style="fill:none;stroke:rgb(255,127,0);stroke-opacity:0.4980392156862745;stroke-miterlimit:2;stroke-dasharray:2;" x1="181" x2="181" y1="300" y2="363"/>
  <line style="fill:none;stroke:rgb(255,127,0);stroke-opacity:0.4980392156862745;stroke-miterlimit:2;stroke-dasharray:2;" x1="181" x2="181" y1="300" y2="376"/>
  <line style="fill:none;stroke:rgb(255,127,0);stroke-opacity:0.4980392156862745;stroke-miterlimit:2;stroke-dasharray:2;" x1="195" x2="195" y1="300" y2="389"/>
  <line style="fill:none;stroke:rgb(255,127,0);stroke-opacity:0.4980392156862745;stroke-miterlimit:2;stroke-dasharray:2;" x1="210" x2="210" y1="300" y2="402"/>
  <line style="fill:none;stroke:rgb(255,127,0);stroke-opacity:0.4980392156862745;stroke-miterlimit:2;stroke-dasharray:2;" x1="225" x2="225" y1="300" y2="417"/>
  <line style="fill:none;stroke:rgb(255,127,0);stroke-opacity:0.4980392156862745;stroke-miterlimit:2;stroke-dasharray:2;" x1="225" x2="225" y1="300" y2="432"/>
  <line style="fill:none;stroke:rgb(255,127,0);stroke-opacity:0.4980392156862745;stroke-miterlimit:2;stroke-dasharray:2;" x1="225" x2="225" y1="300" y2="447"/>
  <line style="fill:none;stroke:rgb(255,127,0);stroke-opacity:0.4980392156862745;stroke-miterlimit:2;stroke-dasharray:2;" x1="225" x2="225" y1="300" y2="462"/>
  <line style="fill:none;stroke:rgb(255,127,0);stroke-opacity:0.4980392156862745;stroke-miterlimit:2;stroke-dasharray:2;" x1="225" x2="225" y1="300" y2="477"/>
  <line style="fill:none;stroke:rgb(255,127,0);stroke-opacity:0.4980392156862745;stroke-miterlimit:2;stroke-dasharray:2;" x1="225" x2="225" y1="300" y2="492"/>
  <line style="fill:none;stroke:rgb(255,127,0);stroke-opacity:0.4980392156862745;stroke-miterlimit:2;stroke-dasharray:2;" x1="225" x2="225" y1="300" y2="507"/>
  <line style="fill:none;stroke:rgb(255,127,0);stroke-opacity:0.4980392156862745;stroke-miterlimit:2;stroke-dasharray:2;" x1="239" x2="239" y1="300" y2="522"/>
  <line style="fill:none;stroke:rgb(255,127,0);stroke-opacity:0.4980392156862745;stroke-miterlimit:2;stroke-dasharray:2;" x1="239" x2="239" y1="300" y2="537"/>
  <line style="fill:none;stroke:rgb(255,127,0);stroke-opacity:0.4980392156862745;stroke-miterlimit:2;stroke-dasharray:2;" x1="239" x2="239" y1="300" y2="552"/>
  <line style="fill:none;stroke:rgb(255,127,0);stroke-opacity:0.4980392156862745;stroke-miterlimit:2;stroke-dasharray:2;" x1="239" x2="239" y1="300" y2="567"/>
  <line style="fill:none;stroke:rgb(255,127,0);stroke-opacity:0.4980392156862745;stroke-miterlimit:2;stroke-dasharray:2;" x1="239" x2="239" y1="300" y2="582"/>
  <line style="fill:none;stroke:rgb(255,127,0);stroke-opacity:0.4980392156862745;stroke-miterlimit:2;stroke-dasharray:2;" x1="239" x2="239" y1="300" y2="597"/>
  <line style="fill:none;stroke:rgb(255,127,0);stroke-opacity:0.4980392156862745;stroke-miterlimit:2;stroke-dasharray:2;" x1="239" x2="239" y1="300" y2="612"/>
  <line style="fill:none;stroke:rgb(255,127,0);stroke-opacity:0.4980392156862745;stroke-miterlimit:2;stroke-dasharray:2;" x1="254" x2="254" y1="300" y2="627"/>
  <line style="fill:none;stroke:rgb(255,127,0);stroke-opacity:0.4980392156862745;stroke-miterlimit:2;stroke-dasharray:2;" x1="254" x2="254" y1="300" y2="642"/>
  <line style="fill:none;stroke:rgb(255,127,0);stroke-opacity:0.4980392156862745;stroke-miterlimit:2;stroke-dasharray:2;" x1="254" x2="254" y1="300" y2="657"/>
  <line style="fill:none;stroke:rgb(255,127,0);stroke-opacity:0.4980392156862745;stroke-miterlimit:2;stroke-dasharray:2;" x1="254" x2="254" y1="300" y2="672"/>
  <line style="fill:none;stroke:rgb(255,127,0);stroke-opacity:0.4980392156862745;stroke-miterlimit:2;stroke-dasharray:2;" x1="254" x2="254" y1="300" y2="687"/>
  <line style="fill:none;stroke:rgb(255,127,0);stroke-opacity:0.4980392156862745;stroke-miterlimit:2;stroke-dasharray:2;" x1="268" x2="268" y1="300" y2="702"/>
  <line style="fill:none;stroke:rgb(255,127,0);stroke-opacity:0.4980392156862745;stroke-miterlimit:2;stroke-dasharray:2;" x1="268" x2="268" y1="300" y2="717"/>
  <line style="fill:none;stroke:rgb(255,127,0);stroke-opacity:0.4980392156862745;stroke-miterlimit:2;stroke-dasharray:2;" x1="268" x2="268" y1="300" y2="732"/>
  <line style="fill:none;stroke:rgb(255,127,0);stroke-opacity:0.4980392156862745;stroke-miterlimit:2;stroke-dasharray:2;" x1="268" x2="268" y1="300" y2="747"/>
  <line style="fill:none;stroke:rgb(255,127,0);stroke-opacity:0.4980392156862745;stroke-miterlimit:2;stroke-dasharray:2;" x1="283" x2="283" y1="300" y2="762"/>
  <line style="fill:none;stroke:rgb(255,127,0);stroke-opacity:0.4980392156862745;stroke-miterlimit:2;stroke-dasharray:2;" x1="283" x2="283" y1="300" y2="777"/>
  <line style="fill:none;stroke:rgb(255,127,0);stroke-opacity:0.4980392156862745;stroke-miterlimit:2;stroke-dasharray:2;" x1="283" x2="283" y1="300" y2="792"/>
  <line style="fill:none;stroke:rgb(255,127,0);stroke-opacity:0.4980392156862745;stroke-miterlimit:2;stroke-dasharray:2;" x1="283" x2="283" y1="300" y2="807"/>
  <line style="fill:none;stroke:rgb(255,127,0);stroke-opacity:0.4980392156862745;stroke-miterlimit:2;stroke-dasharray:2;" x1="297" x2="297" y1="300" y2="822"/>
  <line style="fill:none;stroke:rgb(255,127,0);stroke-opacity:0.4980392156862745;stroke-miterlimit:2;stroke-dasharray:2;" x1="297" x2="297" y1="300" y2="837"/>
  <line style="fill:none;stroke:rgb(255,127,0);stroke-opacity:0.4980392156862745;stroke-miterlimit:2;stroke-dasharray:2;" x1="297" x2="297" y1="300" y2="852"/>
  <line style="fill:none;stroke:rgb(255,127,0);stroke-opacity:0.4980392156862745;stroke-miterlimit:2;stroke-dasharray:2;" x1="297" x2="297" y1="300" y2="867"/>
  <line style="fill:none;stroke:rgb(255,127,0);stroke-opacity:0.4980392156862745;stroke-miterlimit:2;stroke-dasharray:2;" x1="312" x2="312" y1="300" y2="881"/>
  <line style="fill:none;stroke:rgb(255,127,0);stroke-opacity:0.4980392156862745;stroke-miterlimit:2;stroke-dasharray:2;" x1="327" x2="327" y1="300" y2="895"/>
  <line style="fill:none;stroke:rgb(255,127,0);stroke-opacity:0.4980392156862745;stroke-miterlimit:2;stroke-dasharray:2;" x1="327" x2="327" y1="300" y2="909"/>
  <line style="fill:none;stroke:rgb(255,127,0);stroke-opacity:0.4980392156862745;stroke-miterlimit:2;stroke-dasharray:2;" x1="327" x2="327" y1="300" y2="923"/>
  <line style="fill:none;stroke:rgb(255,127,0);stroke-opacity:0.4980392156862745;stroke-miterlimit:2;stroke-dasharray:2;" x1="327" x2="327" y1="300" y2="937"/>
  <line style="fill:none;stroke:rgb(255,127,0);stroke-opacity:0.4980392156862745;stroke-miterlimit:2;stroke-dasharray:2;" x1="341" x2="341" y1="300" y2="951"/>
  <line style="fill:none;stroke:rgb(255,127,0);stroke-opacity:0.4980392156862745;stroke-miterlimit:2;stroke-dasharray:2;" x1="341" x2="341" y1="300" y2="965"/>
  <line style="fill:none;stroke:rgb(255,127,0);stroke-opacity:0.4980392156862745;stroke-miterlimit:2;stroke-dasharray:2;" x1="341" x2="341" y1="300" y2="979"/>
  <line style="fill:none;stroke:rgb(255,127,0);stroke-opacity:0.4980392156862745;stroke-miterlimit:2;stroke-dasharray:2;" x1="370" x2="370" y1="300" y2="992"/>
  <line style="fill:none;stroke:rgb(255,127,0);stroke-opacity:0.4980392156862745;stroke-miterlimit:2;stroke-dasharray:2;" x1="385" x2="385" y1="300" y2="1005"/>
  <line style="fill:none;stroke:rgb(255,127,0);stroke-opacity:0.4980392156862745;stroke-miterlimit:2;stroke-dasharray:2;" x1="385" x2="385" y1="300" y2="1018"/>
  <line style="fill:none;stroke:rgb(0,0,0);stroke-width:2;stroke-miterlimit:10;stroke-linecap:square;" x1="48" x2="48" y1="60" y2="300"/>
  <line style="fill:none;stroke:rgb(0,0,0);stroke-width:2;stroke-miterlimit:10;stroke-linecap:square;" x1="48" x2="402" y1="300" y2="300"/>
  <rect height="30" style="fill:rgb(255,255,255);stroke:none;" width="17" x="42" y="308"/>
  <text style="fill:rgb(0,0,0);stroke:none;font-size:25px;font-weight:bold;" x="42" y="332">0</text>
  <rect height="30" style="fill:rgb(255,255,255);stroke:none;" width="34" x="383" y="308"/>
  <text style="fill:rgb(0,0,0);stroke:none;font-size:25px;font-weight:bold;" x="383" y="332">24</text>
  <text style="fill:rgb(0,0,0);stroke:none;font-size:25px;font-weight:bold;" x="25" y="312">0</text>
  <text style="fill:rgb(0,0,0);stroke:none;font-size:25px;font-weight:bold;" x="25" y="72">1</text>
  <text style="fill:rgb(0,0,0);stroke:none;font-size:14px;font-weight:bold;" x="20" y="36">GOBP_NEGATIVE_REGULATION_OF_BIOSYNTHETIC_PROCESS</text>
  <rect height="10" style="fill:rgb(255,255,255);stroke:none;" width="20" x="64" y="340"/>
  <text style="fill:rgb(128,128,128);stroke:none;font-size:10px;" x="64" y="350">EZR</text>
  <rect height="10" style="fill:rgb(255,255,255);stroke:none;" width="24" x="64" y="353"/>
  <text style="fill:rgb(128,128,128);stroke:none;font-size:10px;" x="64" y="363">TP63</text>
  <rect height="10" style="fill:rgb(255,255,255);stroke:none;" width="28" x="64" y="366"/>
  <text style="fill:rgb(128,128,128);stroke:none;font-size:10px;" x="64" y="376">HES2</text>
  <rect height="10" style="fill:rgb(255,255,255);stroke:none;" width="52" x="64" y="379"/>
  <text style="fill:rgb(128,128,128);stroke:none;font-size:10px;" x="64" y="389">CTNNBIP1</text>
  <rect height="10" style="fill:rgb(255,255,255);stroke:none;" width="53" x="64" y="392"/>
  <text style="fill:rgb(128,128,128);stroke:none;font-size:10px;" x="64" y="402">C1QTNF12</text>
  <rect height="10" style="fill:rgb(255,255,255);stroke:none;" width="28" x="79" y="405"/>
  <text style="fill:rgb(128,128,128);stroke:none;font-size:10px;" x="79" y="415">CRY1</text>
  <rect height="10" style="fill:rgb(255,255,255);stroke:none;" width="29" x="79" y="418"/>
  <text style="fill:rgb(128,128,128);stroke:none;font-size:10px;" x="79" y="428">NFIL3</text>
  <rect height="10" style="fill:rgb(255,255,255);stroke:none;" width="41" x="79" y="431"/>
  <text style="fill:rgb(128,128,128);stroke:none;font-size:10px;" x="79" y="441">POU2F1</text>
  <rect height="10" style="fill:rgb(255,255,255);stroke:none;" width="31" x="93" y="444"/>
  <text style="fill:rgb(128,128,128);stroke:none;font-size:10px;" x="93" y="454">BIRC5</text>
  <rect height="10" style="fill:rgb(255,255,255);stroke:none;" width="32" x="108" y="457"/>
  <text style="fill:rgb(128,128,128);stroke:none;font-size:10px;" x="108" y="467">SALL4</text>
  <rect height="10" style="fill:rgb(255,255,255);stroke:none;" width="39" x="108" y="470"/>
  <text style="fill:rgb(128,128,128);stroke:none;font-size:10px;" x="108" y="480">NANOG</text>
  <rect height="10" style="fill:rgb(255,255,255);stroke:none;" width="38" x="108" y="483"/>
  <text style="fill:rgb(128,128,128);stroke:none;font-size:10px;" x="108" y="493">ARID5A</text>
  <rect height="10" style="fill:rgb(255,255,255);stroke:none;" width="29" x="122" y="496"/>
  <text style="fill:rgb(128,128,128);stroke:none;font-size:10px;" x="122" y="506">HHEX</text>
  <rect height="10" style="fill:rgb(255,255,255);stroke:none;" width="31" x="122" y="509"/>
  <text style="fill:rgb(128,128,128);stroke:none;font-size:10px;" x="122" y="519">CRYM</text>
  <rect height="10" style="fill:rgb(255,255,255);stroke:none;" width="22" x="137" y="522"/>
  <text style="fill:rgb(128,128,128);stroke:none;font-size:10px;" x="137" y="532">IRF1</text>
  <rect height="10" style="fill:rgb(255,255,255);stroke:none;" width="33" x="137" y="535"/>
  <text style="fill:rgb(128,128,128);stroke:none;font-size:10px;" x="137" y="545">ARNTL</text>
  <rect height="10" style="fill:rgb(255,255,255);stroke:none;" width="19" x="181" y="340"/>
  <text style="fill:rgb(128,128,128);stroke:none;font-size:10px;" x="181" y="350">TNF</text>
  <rect height="10" style="fill:rgb(255,255,255);stroke:none;" width="27" x="181" y="353"/>
  <text style="fill:rgb(128,128,128);stroke:none;font-size:10px;" x="181" y="363">BCL3</text>
  <rect height="10" style="fill:rgb(255,255,255);stroke:none;" width="31" x="181" y="366"/>
  <text style="fill:rgb(128,128,128);stroke:none;font-size:10px;" x="181" y="376">SNAI1</text>
  <rect height="10" style="fill:rgb(255,255,255);stroke:none;" width="29" x="195" y="379"/>
  <text style="fill:rgb(128,128,128);stroke:none;font-size:10px;" x="195" y="389">RARG</text>
  <rect height="10" style="fill:rgb(255,255,255);stroke:none;" width="38" x="210" y="392"/>
  <text style="fill:rgb(128,128,128);stroke:none;font-size:10px;" x="210" y="402">ZNF425</text>
  <rect height="12" style="fill:rgb(255,255,255);stroke:none;" width="33" x="225" y="405"/>
  <text style="fill:rgb(128,128,128);stroke:none;" x="225" y="417">HES5</text>
  <rect height="12" style="fill:rgb(255,255,255);stroke:none;" width="33" x="225" y="420"/>
  <text style="fill:rgb(128,128,128);stroke:none;" x="225" y="432">EGR1</text>
  <rect height="12" style="fill:rgb(255,255,255);stroke:none;" width="25" x="225" y="435"/>
  <text style="fill:rgb(128,128,128);stroke:none;" x="225" y="447">IL33</text>
  <rect height="12" style="fill:rgb(255,255,255);stroke:none;" width="30" x="225" y="450"/>
  <text style="fill:rgb(128,128,128);stroke:none;" x="225" y="462">HEYL</text>
  <rect height="12" style="fill:rgb(255,255,255);stroke:none;" width="42" x="225" y="465"/>
  <text style="fill:rgb(128,128,128);stroke:none;" x="225" y="477">NR1D1</text>
  <rect height="12" style="fill:rgb(255,255,255);stroke:none;" width="49" x="225" y="480"/>
  <text style="fill:rgb(128,128,128);stroke:none;" x="225" y="492">ZNF202</text>
  <rect height="12" style="fill:rgb(255,255,255);stroke:none;" width="49" x="225" y="495"/>
  <text style="fill:rgb(128,128,128);stroke:none;" x="225" y="507">ZNF436</text>
  <rect height="12" style="fill:rgb(255,255,255);stroke:none;" width="26" x="239" y="510"/>
  <text style="fill:rgb(128,128,128);stroke:none;" x="239" y="522">IRF7</text>
  <rect height="12" style="fill:rgb(255,255,255);stroke:none;" width="28" x="239" y="525"/>
  <text style="fill:rgb(128,128,128);stroke:none;" x="239" y="537">PPID</text>
  <rect height="12" style="fill:rgb(255,255,255);stroke:none;" width="40" x="239" y="540"/>
  <text style="fill:rgb(128,128,128);stroke:none;" x="239" y="552">THAP1</text>
  <rect height="12" style="fill:rgb(255,255,255);stroke:none;" width="46" x="239" y="555"/>
  <text style="fill:rgb(128,128,128);stroke:none;" x="239" y="567">YEATS2</text>
  <rect height="12" style="fill:rgb(255,255,255);stroke:none;" width="49" x="239" y="570"/>
  <text style="fill:rgb(128,128,128);stroke:none;" x="239" y="582">HSPA1A</text>
  <rect height="12" style="fill:rgb(255,255,255);stroke:none;" width="54" x="239" y="585"/>
  <text style="fill:rgb(128,128,128);stroke:none;" x="239" y="597">CBFA2T3</text>
  <rect height="12" style="fill:rgb(255,255,255);stroke:none;" width="57" x="239" y="600"/>
  <text style="fill:rgb(128,128,128);stroke:none;" x="239" y="612">MAP3K10</text>
  <rect height="12" style="fill:rgb(255,255,255);stroke:none;" width="42" x="254" y="615"/>
  <text style="fill:rgb(128,128,128);stroke:none;" x="254" y="627">NR1D2</text>
  <rect height="12" style="fill:rgb(255,255,255);stroke:none;" width="49" x="254" y="630"/>
  <text style="fill:rgb(128,128,128);stroke:none;" x="254" y="642">ZNF177</text>
  <rect height="12" style="fill:rgb(255,255,255);stroke:none;" width="49" x="254" y="645"/>
  <text style="fill:rgb(128,128,128);stroke:none;" x="254" y="657">ZNF248</text>
  <rect height="12" style="fill:rgb(255,255,255);stroke:none;" width="45" x="254" y="660"/>
  <text style="fill:rgb(128,128,128);stroke:none;" x="254" y="672">DYNLL1</text>
  <rect height="12" style="fill:rgb(255,255,255);stroke:none;" width="49" x="254" y="675"/>
  <text style="fill:rgb(128,128,128);stroke:none;" x="254" y="687">ZNF239</text>
  <rect height="12" style="fill:rgb(255,255,255);stroke:none;" width="32" x="268" y="690"/>
  <text style="fill:rgb(128,128,128);stroke:none;" x="268" y="702">CDK5</text>
  <rect height="12" style="fill:rgb(255,255,255);stroke:none;" width="42" x="268" y="705"/>
  <text style="fill:rgb(128,128,128);stroke:none;" x="268" y="717">EIF4A2</text>
  <rect height="12" style="fill:rgb(255,255,255);stroke:none;" width="49" x="268" y="720"/>
  <text style="fill:rgb(128,128,128);stroke:none;" x="268" y="732">ZNF692</text>
  <rect height="12" style="fill:rgb(255,255,255);stroke:none;" width="49" x="268" y="735"/>
  <text style="fill:rgb(128,128,128);stroke:none;" x="268" y="747">ZNF404</text>
  <rect height="12" style="fill:rgb(255,255,255);stroke:none;" width="28" x="283" y="750"/>
  <text style="fill:rgb(128,128,128);stroke:none;" x="283" y="762">KLF2</text>
  <rect height="12" style="fill:rgb(255,255,255);stroke:none;" width="28" x="283" y="765"/>
  <text style="fill:rgb(128,128,128);stroke:none;" x="283" y="777">KLF8</text>
  <rect height="12" style="fill:rgb(255,255,255);stroke:none;" width="40" x="283" y="780"/>
  <text style="fill:rgb(128,128,128);stroke:none;" x="283" y="792">BRCA1</text>
  <rect height="12" style="fill:rgb(255,255,255);stroke:none;" width="41" x="283" y="795"/>
  <text style="fill:rgb(128,128,128);stroke:none;" x="283" y="807">NR2E3</text>
  <rect height="12" style="fill:rgb(255,255,255);stroke:none;" width="32" x="297" y="810"/>
  <text style="fill:rgb(128,128,128);stroke:none;" x="297" y="822">HEY1</text>
  <rect height="12" style="fill:rgb(255,255,255);stroke:none;" width="32" x="297" y="825"/>
  <text style="fill:rgb(128,128,128);stroke:none;" x="297" y="837">PER3</text>
  <rect height="12" style="fill:rgb(255,255,255);stroke:none;" width="34" x="297" y="840"/>
  <text style="fill:rgb(128,128,128);stroke:none;" x="297" y="852">CIART</text>
  <rect height="12" style="fill:rgb(255,255,255);stroke:none;" width="51" x="297" y="855"/>
  <text style="fill:rgb(128,128,128);stroke:none;" x="297" y="867">PRDM16</text>
  <rect height="11" style="fill:rgb(255,255,255);stroke:none;" width="50" x="312" y="870"/>
  <text style="fill:rgb(128,128,128);stroke:none;font-size:11px;" x="312" y="881">PLEKHN1</text>
  <rect height="11" style="fill:rgb(255,255,255);stroke:none;" width="33" x="327" y="884"/>
  <text style="fill:rgb(128,128,128);stroke:none;font-size:11px;" x="327" y="895">WWC1</text>
  <rect height="11" style="fill:rgb(255,255,255);stroke:none;" width="30" x="327" y="898"/>
  <text style="fill:rgb(128,128,128);stroke:none;font-size:11px;" x="327" y="909">CD36</text>
  <rect height="11" style="fill:rgb(255,255,255);stroke:none;" width="28" x="327" y="912"/>
  <text style="fill:rgb(128,128,128);stroke:none;font-size:11px;" x="327" y="923">PER1</text>
  <rect height="11" style="fill:rgb(255,255,255);stroke:none;" width="38" x="327" y="926"/>
  <text style="fill:rgb(128,128,128);stroke:none;font-size:11px;" x="327" y="937">DUSP1</text>
  <rect height="11" style="fill:rgb(255,255,255);stroke:none;" width="28" x="341" y="940"/>
  <text style="fill:rgb(128,128,128);stroke:none;font-size:11px;" x="341" y="951">PER2</text>
  <rect height="11" style="fill:rgb(255,255,255);stroke:none;" width="36" x="341" y="954"/>
  <text style="fill:rgb(128,128,128);stroke:none;font-size:11px;" x="341" y="965">PLCB1</text>
  <rect height="11" style="fill:rgb(255,255,255);stroke:none;" width="46" x="341" y="968"/>
  <text style="fill:rgb(128,128,128);stroke:none;font-size:11px;" x="341" y="979">ZBTB16</text>
  <rect height="10" style="fill:rgb(255,255,255);stroke:none;" width="44" x="370" y="982"/>
  <text style="fill:rgb(128,128,128);stroke:none;font-size:10px;" x="370" y="992">TFCP2L1</text>
  <rect height="10" style="fill:rgb(255,255,255);stroke:none;" width="29" x="385" y="995"/>
  <text style="fill:rgb(128,128,128);stroke:none;font-size:10px;" x="385" y="1005">EDN1</text>
  <rect height="10" style="fill:rgb(255,255,255);stroke:none;" width="34" x="385" y="1008"/>
  <text style="fill:rgb(128,128,128);stroke:none;font-size:10px;" x="385" y="1018">FOXO1</text>
</svg>
