<?xml version="1.0" encoding="UTF-8" standalone="no"?>
<!DOCTYPE svg PUBLIC "-//W3C//DTD SVG 1.1//EN" "http://www.w3.org/Graphics/SVG/1.1/DTD/svg11.dtd">
<svg xmlns:xlink="http://www.w3.org/1999/xlink" height="158.74999999999997mm" version="1.1" viewBox="0 0 500 600" width="132.29166666666666mm" x="0mm" y="0mm" xmlns="http://www.w3.org/2000/svg">
  <rect height="1200" style="fill:rgb(255,255,255);stroke:none;" width="1000" x="0" y="0"/>
  <rect height="240" style="fill:rgb(191,191,191);fill-opacity:0.4980392156862745;stroke:none;" width="175" x="225" y="60"/>
  <line style="fill:none;stroke:rgb(63,63,191);stroke-opacity:0.24705882352941178;stroke-miterlimit:10;stroke-linecap:square;" x1="50" x2="-8" y1="300" y2="300"/>
  <line style="fill:none;stroke:rgb(63,63,191);stroke-opacity:0.24705882352941178;stroke-miterlimit:10;stroke-linecap:square;" x1="-8" x2="6" y1="300" y2="300"/>
  <line style="fill:none;stroke:rgb(63,63,191);stroke-opacity:0.24705882352941178;stroke-miterlimit:10;stroke-linecap:square;" x1="6" x2="20" y1="300" y2="300"/>
  <line style="fill:none;stroke:rgb(63,63,191);stroke-opacity:0.24705882352941178;stroke-miterlimit:10;stroke-linecap:square;" x1="20" x2="35" y1="300" y2="300"/>
  <line style="fill:none;stroke:rgb(63,63,191);stroke-opacity:0.24705882352941178;stroke-miterlimit:10;stroke-linecap:square;" x1="35" x2="50" y1="300" y2="300"/>
  <line style="fill:none;stroke:rgb(63,63,191);stroke-opacity:0.24705882352941178;stroke-miterlimit:10;stroke-linecap:square;" x1="50" x2="64" y1="300" y2="290"/>
  <line style="fill:none;stroke:rgb(63,63,191);stroke-opacity:0.24705882352941178;stroke-miterlimit:10;stroke-linecap:square;" x1="64" x2="79" y1="290" y2="280"/>
  <line style="fill:none;stroke:rgb(63,63,191);stroke-opacity:0.24705882352941178;stroke-miterlimit:10;stroke-linecap:square;" x1="79" x2="93" y1="280" y2="270"/>
  <line style="fill:none;stroke:rgb(63,63,191);stroke-opacity:0.24705882352941178;stroke-miterlimit:10;stroke-linecap:square;" x1="93" x2="108" y1="270" y2="260"/>
  <line style="fill:none;stroke:rgb(63,63,191);stroke-opacity:0.24705882352941178;stroke-miterlimit:10;stroke-linecap:square;" x1="108" x2="122" y1="260" y2="250"/>
  <line style="fill:none;stroke:rgb(63,63,191);stroke-opacity:0.24705882352941178;stroke-miterlimit:10;stroke-linecap:square;" x1="122" x2="137" y1="250" y2="240"/>
  <line style="fill:none;stroke:rgb(63,63,191);stroke-opacity:0.24705882352941178;stroke-miterlimit:10;stroke-linecap:square;" x1="137" x2="152" y1="240" y2="230"/>
  <line style="fill:none;stroke:rgb(63,63,191);stroke-opacity:0.24705882352941178;stroke-miterlimit:10;stroke-linecap:square;" x1="152" x2="166" y1="230" y2="220"/>
  <line style="fill:none;stroke:rgb(63,63,191);stroke-opacity:0.24705882352941178;stroke-miterlimit:10;stroke-linecap:square;" x1="166" x2="181" y1="220" y2="210"/>
  <line style="fill:none;stroke:rgb(63,63,191);stroke-opacity:0.24705882352941178;stroke-miterlimit:10;stroke-linecap:square;" x1="181" x2="195" y1="210" y2="200"/>
  <line style="fill:none;stroke:rgb(63,63,191);stroke-opacity:0.24705882352941178;stroke-miterlimit:10;stroke-linecap:square;" x1="195" x2="210" y1="200" y2="190"/>
  <line style="fill:none;stroke:rgb(63,63,191);stroke-opacity:0.24705882352941178;stroke-miterlimit:10;stroke-linecap:square;" x1="210" x2="225" y1="190" y2="180"/>
  <line style="fill:none;stroke:rgb(63,63,191);stroke-opacity:0.24705882352941178;stroke-miterlimit:10;stroke-linecap:square;" x1="225" x2="239" y1="180" y2="170"/>
  <line style="fill:none;stroke:rgb(63,63,191);stroke-opacity:0.24705882352941178;stroke-miterlimit:10;stroke-linecap:square;" x1="239" x2="254" y1="170" y2="160"/>
  <line style="fill:none;stroke:rgb(63,63,191);stroke-opacity:0.24705882352941178;stroke-miterlimit:10;stroke-linecap:square;" x1="254" x2="268" y1="160" y2="150"/>
  <line style="fill:none;stroke:rgb(63,63,191);stroke-opacity:0.24705882352941178;stroke-miterlimit:10;stroke-linecap:square;" x1="268" x2="283" y1="150" y2="140"/>
  <line style="fill:none;stroke:rgb(63,63,191);stroke-opacity:0.24705882352941178;stroke-miterlimit:10;stroke-linecap:square;" x1="283" x2="297" y1="140" y2="130"/>
  <line style="fill:none;stroke:rgb(63,63,191);stroke-opacity:0.24705882352941178;stroke-miterlimit:10;stroke-linecap:square;" x1="297" x2="312" y1="130" y2="120"/>
  <line style="fill:none;stroke:rgb(63,63,191);stroke-opacity:0.24705882352941178;stroke-miterlimit:10;stroke-linecap:square;" x1="312" x2="327" y1="120" y2="110"/>
  <line style="fill:none;stroke:rgb(63,63,191);stroke-opacity:0.24705882352941178;stroke-miterlimit:10;stroke-linecap:square;" x1="327" x2="341" y1="110" y2="100"/>
  <line style="fill:none;stroke:rgb(63,63,191);stroke-opacity:0.24705882352941178;stroke-miterlimit:10;stroke-linecap:square;" x1="341" x2="400" y1="100" y2="60"/>
  <rect height="5" style="fill:rgb(255,127,0);fill-opacity:0.7490196078431373;stroke:none;" width="4" x="-10" y="294"/>
  <line style="fill:none;stroke:rgb(255,127,0);stroke-opacity:0.24705882352941178;stroke-width:2;stroke-miterlimit:10;stroke-linecap:square;" x1="50" x2="-8" y1="300" y2="300"/>
  <line style="fill:none;stroke:rgb(255,127,0);stroke-opacity:0.24705882352941178;stroke-width:2;stroke-miterlimit:10;stroke-linecap:square;" x1="-8" x2="-8" y1="298" y2="296"/>
  <rect height="19" style="fill:rgb(255,127,0);fill-opacity:0.7490196078431373;stroke:none;" width="4" x="4" y="280"/>
  <line style="fill:none;stroke:rgb(255,127,0);stroke-opacity:0.24705882352941178;stroke-width:2;stroke-miterlimit:10;stroke-linecap:square;" x1="-8" x2="6" y1="294" y2="294"/>
  <line style="fill:none;stroke:rgb(255,127,0);stroke-opacity:0.24705882352941178;stroke-width:2;stroke-miterlimit:10;stroke-linecap:square;" x1="6" x2="6" y1="292" y2="277"/>
  <rect height="19" style="fill:rgb(255,127,0);fill-opacity:0.7490196078431373;stroke:none;" width="4" x="18" y="280"/>
  <line style="fill:none;stroke:rgb(255,127,0);stroke-opacity:0.24705882352941178;stroke-width:2;stroke-miterlimit:10;stroke-linecap:square;" x1="6" x2="20" y1="275" y2="275"/>
  <line style="fill:none;stroke:rgb(255,127,0);stroke-opacity:0.24705882352941178;stroke-width:2;stroke-miterlimit:10;stroke-linecap:square;" x1="20" x2="20" y1="273" y2="257"/>
  <rect height="19" style="fill:rgb(255,127,0);fill-opacity:0.7490196078431373;stroke:none;" width="4" x="33" y="280"/>
  <line style="fill:none;stroke:rgb(255,127,0);stroke-opacity:0.24705882352941178;stroke-width:2;stroke-miterlimit:10;stroke-linecap:square;" x1="20" x2="35" y1="255" y2="255"/>
  <line style="fill:none;stroke:rgb(255,127,0);stroke-opacity:0.24705882352941178;stroke-width:2;stroke-miterlimit:10;stroke-linecap:square;" x1="35" x2="35" y1="253" y2="238"/>
  <rect height="13" style="fill:rgb(255,127,0);fill-opacity:0.7490196078431373;stroke:none;" width="4" x="48" y="286"/>
  <line style="fill:none;stroke:rgb(255,127,0);stroke-opacity:0.24705882352941178;stroke-width:2;stroke-miterlimit:10;stroke-linecap:square;" x1="35" x2="50" y1="236" y2="236"/>
  <line style="fill:none;stroke:rgb(255,127,0);stroke-opacity:0.24705882352941178;stroke-width:2;stroke-miterlimit:10;stroke-linecap:square;" x1="50" x2="50" y1="234" y2="224"/>
  <rect height="8" style="fill:rgb(255,127,0);fill-opacity:0.7490196078431373;stroke:none;" width="4" x="62" y="291"/>
  <line style="fill:none;stroke:rgb(255,127,0);stroke-opacity:0.24705882352941178;stroke-width:2;stroke-miterlimit:10;stroke-linecap:square;" x1="50" x2="64" y1="222" y2="222"/>
  <line style="fill:none;stroke:rgb(255,127,0);stroke-opacity:0.24705882352941178;stroke-width:2;stroke-miterlimit:10;stroke-linecap:square;" x1="64" x2="64" y1="220" y2="216"/>
  <rect height="2" style="fill:rgb(255,127,0);fill-opacity:0.7490196078431373;stroke:none;" width="4" x="77" y="297"/>
  <line style="fill:none;stroke:rgb(255,127,0);stroke-opacity:0.24705882352941178;stroke-width:2;stroke-miterlimit:10;stroke-linecap:square;" x1="64" x2="79" y1="214" y2="214"/>
  <line style="fill:none;stroke:rgb(255,127,0);stroke-opacity:0.24705882352941178;stroke-width:2;stroke-miterlimit:10;stroke-linecap:square;" x1="79" x2="79" y1="212" y2="213"/>
  <rect height="5" style="fill:rgb(255,127,0);fill-opacity:0.7490196078431373;stroke:none;" width="4" x="91" y="294"/>
  <line style="fill:none;stroke:rgb(255,127,0);stroke-opacity:0.24705882352941178;stroke-width:2;stroke-miterlimit:10;stroke-linecap:square;" x1="79" x2="93" y1="211" y2="211"/>
  <line style="fill:none;stroke:rgb(255,127,0);stroke-opacity:0.24705882352941178;stroke-width:2;stroke-miterlimit:10;stroke-linecap:square;" x1="93" x2="93" y1="209" y2="208"/>
  <rect height="2" style="fill:rgb(255,127,0);fill-opacity:0.7490196078431373;stroke:none;" width="4" x="106" y="297"/>
  <line style="fill:none;stroke:rgb(255,127,0);stroke-opacity:0.24705882352941178;stroke-width:2;stroke-miterlimit:10;stroke-linecap:square;" x1="93" x2="108" y1="206" y2="206"/>
  <line style="fill:none;stroke:rgb(255,127,0);stroke-opacity:0.24705882352941178;stroke-width:2;stroke-miterlimit:10;stroke-linecap:square;" x1="108" x2="108" y1="204" y2="205"/>
  <rect height="8" style="fill:rgb(255,127,0);fill-opacity:0.7490196078431373;stroke:none;" width="4" x="120" y="291"/>
  <line style="fill:none;stroke:rgb(255,127,0);stroke-opacity:0.24705882352941178;stroke-width:2;stroke-miterlimit:10;stroke-linecap:square;" x1="108" x2="122" y1="203" y2="203"/>
  <line style="fill:none;stroke:rgb(255,127,0);stroke-opacity:0.24705882352941178;stroke-width:2;stroke-miterlimit:10;stroke-linecap:square;" x1="122" x2="122" y1="201" y2="197"/>
  <rect height="5" style="fill:rgb(255,127,0);fill-opacity:0.7490196078431373;stroke:none;" width="4" x="135" y="294"/>
  <line style="fill:none;stroke:rgb(255,127,0);stroke-opacity:0.24705882352941178;stroke-width:2;stroke-miterlimit:10;stroke-linecap:square;" x1="122" x2="137" y1="195" y2="195"/>
  <line style="fill:none;stroke:rgb(255,127,0);stroke-opacity:0.24705882352941178;stroke-width:2;stroke-miterlimit:10;stroke-linecap:square;" x1="137" x2="137" y1="193" y2="191"/>
  <rect height="5" style="fill:rgb(255,127,0);fill-opacity:0.7490196078431373;stroke:none;" width="4" x="150" y="294"/>
  <line style="fill:none;stroke:rgb(255,127,0);stroke-opacity:0.24705882352941178;stroke-width:2;stroke-miterlimit:10;stroke-linecap:square;" x1="137" x2="152" y1="189" y2="189"/>
  <line style="fill:none;stroke:rgb(255,127,0);stroke-opacity:0.24705882352941178;stroke-width:2;stroke-miterlimit:10;stroke-linecap:square;" x1="152" x2="152" y1="187" y2="186"/>
  <rect height="13" style="fill:rgb(255,127,0);fill-opacity:0.7490196078431373;stroke:none;" width="4" x="164" y="286"/>
  <line style="fill:none;stroke:rgb(255,127,0);stroke-opacity:0.24705882352941178;stroke-width:2;stroke-miterlimit:10;stroke-linecap:square;" x1="152" x2="166" y1="184" y2="184"/>
  <line style="fill:none;stroke:rgb(255,127,0);stroke-opacity:0.24705882352941178;stroke-width:2;stroke-miterlimit:10;stroke-linecap:square;" x1="166" x2="166" y1="182" y2="172"/>
  <rect height="16" style="fill:rgb(255,127,0);fill-opacity:0.7490196078431373;stroke:none;" width="4" x="179" y="283"/>
  <line style="fill:none;stroke:rgb(255,127,0);stroke-opacity:0.24705882352941178;stroke-width:2;stroke-miterlimit:10;stroke-linecap:square;" x1="166" x2="181" y1="170" y2="170"/>
  <line style="fill:none;stroke:rgb(255,127,0);stroke-opacity:0.24705882352941178;stroke-width:2;stroke-miterlimit:10;stroke-linecap:square;" x1="181" x2="181" y1="168" y2="155"/>
  <rect height="19" style="fill:rgb(255,127,0);fill-opacity:0.7490196078431373;stroke:none;" width="4" x="193" y="280"/>
  <line style="fill:none;stroke:rgb(255,127,0);stroke-opacity:0.24705882352941178;stroke-width:2;stroke-miterlimit:10;stroke-linecap:square;" x1="181" x2="195" y1="153" y2="153"/>
  <line style="fill:none;stroke:rgb(255,127,0);stroke-opacity:0.24705882352941178;stroke-width:2;stroke-miterlimit:10;stroke-linecap:square;" x1="195" x2="195" y1="151" y2="136"/>
  <rect height="16" style="fill:rgb(255,127,0);fill-opacity:0.7490196078431373;stroke:none;" width="4" x="208" y="283"/>
  <line style="fill:none;stroke:rgb(255,127,0);stroke-opacity:0.24705882352941178;stroke-width:2;stroke-miterlimit:10;stroke-linecap:square;" x1="195" x2="210" y1="134" y2="134"/>
  <line style="fill:none;stroke:rgb(255,127,0);stroke-opacity:0.24705882352941178;stroke-width:2;stroke-miterlimit:10;stroke-linecap:square;" x1="210" x2="210" y1="132" y2="119"/>
  <rect height="5" style="fill:rgb(255,127,0);fill-opacity:0.7490196078431373;stroke:none;" width="4" x="223" y="294"/>
  <line style="fill:none;stroke:rgb(255,127,0);stroke-opacity:0.24705882352941178;stroke-width:2;stroke-miterlimit:10;stroke-linecap:square;" x1="210" x2="225" y1="117" y2="117"/>
  <line style="fill:none;stroke:rgb(255,127,0);stroke-opacity:0.24705882352941178;stroke-width:2;stroke-miterlimit:10;stroke-linecap:square;" x1="225" x2="225" y1="115" y2="114"/>
  <rect height="2" style="fill:rgb(255,127,0);fill-opacity:0.7490196078431373;stroke:none;" width="4" x="237" y="297"/>
  <line style="fill:none;stroke:rgb(255,127,0);stroke-opacity:0.24705882352941178;stroke-width:2;stroke-miterlimit:10;stroke-linecap:square;" x1="225" x2="239" y1="112" y2="112"/>
  <line style="fill:none;stroke:rgb(255,127,0);stroke-opacity:0.24705882352941178;stroke-width:2;stroke-miterlimit:10;stroke-linecap:square;" x1="239" x2="239" y1="110" y2="111"/>
  <rect height="2" style="fill:rgb(255,127,0);fill-opacity:0.7490196078431373;stroke:none;" width="4" x="252" y="297"/>
  <line style="fill:none;stroke:rgb(255,127,0);stroke-opacity:0.24705882352941178;stroke-width:2;stroke-miterlimit:10;stroke-linecap:square;" x1="239" x2="254" y1="109" y2="109"/>
  <line style="fill:none;stroke:rgb(255,127,0);stroke-opacity:0.24705882352941178;stroke-width:2;stroke-miterlimit:10;stroke-linecap:square;" x1="254" x2="254" y1="107" y2="108"/>
  <rect height="2" style="fill:rgb(255,127,0);fill-opacity:0.7490196078431373;stroke:none;" width="4" x="266" y="297"/>
  <line style="fill:none;stroke:rgb(255,127,0);stroke-opacity:0.24705882352941178;stroke-width:2;stroke-miterlimit:10;stroke-linecap:square;" x1="254" x2="268" y1="106" y2="106"/>
  <line style="fill:none;stroke:rgb(255,127,0);stroke-opacity:0.24705882352941178;stroke-width:2;stroke-miterlimit:10;stroke-linecap:square;" x1="268" x2="268" y1="104" y2="106"/>
  <rect height="5" style="fill:rgb(255,127,0);fill-opacity:0.7490196078431373;stroke:none;" width="4" x="281" y="294"/>
  <line style="fill:none;stroke:rgb(255,127,0);stroke-opacity:0.24705882352941178;stroke-width:2;stroke-miterlimit:10;stroke-linecap:square;" x1="268" x2="283" y1="104" y2="104"/>
  <line style="fill:none;stroke:rgb(255,127,0);stroke-opacity:0.24705882352941178;stroke-width:2;stroke-miterlimit:10;stroke-linecap:square;" x1="283" x2="283" y1="102" y2="100"/>
  <rect height="13" style="fill:rgb(255,127,0);fill-opacity:0.7490196078431373;stroke:none;" width="4" x="295" y="286"/>
  <line style="fill:none;stroke:rgb(255,127,0);stroke-opacity:0.24705882352941178;stroke-width:2;stroke-miterlimit:10;stroke-linecap:square;" x1="283" x2="297" y1="98" y2="98"/>
  <line style="fill:none;stroke:rgb(255,127,0);stroke-opacity:0.24705882352941178;stroke-width:2;stroke-miterlimit:10;stroke-linecap:square;" x1="297" x2="297" y1="96" y2="86"/>
  <rect height="11" style="fill:rgb(255,127,0);fill-opacity:0.7490196078431373;stroke:none;" width="4" x="310" y="288"/>
  <line style="fill:none;stroke:rgb(255,127,0);stroke-opacity:0.24705882352941178;stroke-width:2;stroke-miterlimit:10;stroke-linecap:square;" x1="297" x2="312" y1="84" y2="84"/>
  <line style="fill:none;stroke:rgb(255,127,0);stroke-opacity:0.24705882352941178;stroke-width:2;stroke-miterlimit:10;stroke-linecap:square;" x1="312" x2="312" y1="82" y2="75"/>
  <rect height="8" style="fill:rgb(255,127,0);fill-opacity:0.7490196078431373;stroke:none;" width="4" x="325" y="291"/>
  <line style="fill:none;stroke:rgb(255,127,0);stroke-opacity:0.24705882352941178;stroke-width:2;stroke-miterlimit:10;stroke-linecap:square;" x1="312" x2="327" y1="73" y2="73"/>
  <line style="fill:none;stroke:rgb(255,127,0);stroke-opacity:0.24705882352941178;stroke-width:2;stroke-miterlimit:10;stroke-linecap:square;" x1="327" x2="327" y1="71" y2="67"/>
  <rect height="5" style="fill:rgb(255,127,0);fill-opacity:0.7490196078431373;stroke:none;" width="4" x="339" y="294"/>
  <line style="fill:none;stroke:rgb(255,127,0);stroke-opacity:0.24705882352941178;stroke-width:2;stroke-miterlimit:10;stroke-linecap:square;" x1="327" x2="341" y1="65" y2="65"/>
  <line style="fill:none;stroke:rgb(255,127,0);stroke-opacity:0.24705882352941178;stroke-width:2;stroke-miterlimit:10;stroke-linecap:square;" x1="341" x2="341" y1="63" y2="62"/>
  <line style="fill:none;stroke:rgb(255,127,0);stroke-opacity:0.24705882352941178;stroke-width:2;stroke-miterlimit:10;stroke-linecap:square;" x1="341" x2="400" y1="60" y2="60"/>
  <line style="fill:none;stroke:rgb(255,127,0);stroke-opacity:0.4980392156862745;stroke-miterlimit:2;stroke-dasharray:2;" x1="-8" x2="-8" y1="300" y2="367"/>
  <line style="fill:none;stroke:rgb(255,127,0);stroke-opacity:0.4980392156862745;stroke-miterlimit:2;stroke-dasharray:2;" x1="-8" x2="-8" y1="300" y2="384"/>
  <line style="fill:none;stroke:rgb(255,127,0);stroke-opacity:0.4980392156862745;stroke-miterlimit:2;stroke-dasharray:2;" x1="6" x2="6" y1="300" y2="401"/>
  <line style="fill:none;stroke:rgb(255,127,0);stroke-opacity:0.4980392156862745;stroke-miterlimit:2;stroke-dasharray:2;" x1="6" x2="6" y1="300" y2="418"/>
  <line style="fill:none;stroke:rgb(255,127,0);stroke-opacity:0.4980392156862745;stroke-miterlimit:2;stroke-dasharray:2;" x1="6" x2="6" y1="300" y2="435"/>
  <line style="fill:none;stroke:rgb(255,127,0);stroke-opacity:0.4980392156862745;stroke-miterlimit:2;stroke-dasharray:2;" x1="6" x2="6" y1="300" y2="452"/>
  <line style="fill:none;stroke:rgb(255,127,0);stroke-opacity:0.4980392156862745;stroke-miterlimit:2;stroke-dasharray:2;" x1="6" x2="6" y1="300" y2="469"/>
  <line style="fill:none;stroke:rgb(255,127,0);stroke-opacity:0.4980392156862745;stroke-miterlimit:2;stroke-dasharray:2;" x1="6" x2="6" y1="300" y2="486"/>
  <line style="fill:none;stroke:rgb(255,127,0);stroke-opacity:0.4980392156862745;stroke-miterlimit:2;stroke-dasharray:2;" x1="6" x2="6" y1="300" y2="503"/>
  <line style="fill:none;stroke:rgb(255,127,0);stroke-opacity:0.4980392156862745;stroke-miterlimit:2;stroke-dasharray:2;" x1="20" x2="20" y1="300" y2="520"/>
  <line style="fill:none;stroke:rgb(255,127,0);stroke-opacity:0.4980392156862745;stroke-miterlimit:2;stroke-dasharray:2;" x1="20" x2="20" y1="300" y2="537"/>
  <line style="fill:none;stroke:rgb(255,127,0);stroke-opacity:0.4980392156862745;stroke-miterlimit:2;stroke-dasharray:2;" x1="20" x2="20" y1="300" y2="554"/>
  <line style="fill:none;stroke:rgb(255,127,0);stroke-opacity:0.4980392156862745;stroke-miterlimit:2;stroke-dasharray:2;" x1="20" x2="20" y1="300" y2="571"/>
  <line style="fill:none;stroke:rgb(255,127,0);stroke-opacity:0.4980392156862745;stroke-miterlimit:2;stroke-dasharray:2;" x1="20" x2="20" y1="300" y2="588"/>
  <line style="fill:none;stroke:rgb(255,127,0);stroke-opacity:0.4980392156862745;stroke-miterlimit:2;stroke-dasharray:2;" x1="20" x2="20" y1="300" y2="605"/>
  <line style="fill:none;stroke:rgb(255,127,0);stroke-opacity:0.4980392156862745;stroke-miterlimit:2;stroke-dasharray:2;" x1="20" x2="20" y1="300" y2="622"/>
  <line style="fill:none;stroke:rgb(255,127,0);stroke-opacity:0.4980392156862745;stroke-miterlimit:2;stroke-dasharray:2;" x1="35" x2="35" y1="300" y2="639"/>
  <line style="fill:none;stroke:rgb(255,127,0);stroke-opacity:0.4980392156862745;stroke-miterlimit:2;stroke-dasharray:2;" x1="35" x2="35" y1="300" y2="656"/>
  <line style="fill:none;stroke:rgb(255,127,0);stroke-opacity:0.4980392156862745;stroke-miterlimit:2;stroke-dasharray:2;" x1="35" x2="35" y1="300" y2="673"/>
  <line style="fill:none;stroke:rgb(255,127,0);stroke-opacity:0.4980392156862745;stroke-miterlimit:2;stroke-dasharray:2;" x1="35" x2="35" y1="300" y2="690"/>
  <line style="fill:none;stroke:rgb(255,127,0);stroke-opacity:0.4980392156862745;stroke-miterlimit:2;stroke-dasharray:2;" x1="35" x2="35" y1="300" y2="707"/>
  <line style="fill:none;stroke:rgb(255,127,0);stroke-opacity:0.4980392156862745;stroke-miterlimit:2;stroke-dasharray:2;" x1="35" x2="35" y1="300" y2="724"/>
  <line style="fill:none;stroke:rgb(255,127,0);stroke-opacity:0.4980392156862745;stroke-miterlimit:2;stroke-dasharray:2;" x1="35" x2="35" y1="300" y2="741"/>
  <line style="fill:none;stroke:rgb(255,127,0);stroke-opacity:0.4980392156862745;stroke-miterlimit:2;stroke-dasharray:2;" x1="50" x2="50" y1="300" y2="758"/>
  <line style="fill:none;stroke:rgb(255,127,0);stroke-opacity:0.4980392156862745;stroke-miterlimit:2;stroke-dasharray:2;" x1="50" x2="50" y1="300" y2="775"/>
  <line style="fill:none;stroke:rgb(255,127,0);stroke-opacity:0.4980392156862745;stroke-miterlimit:2;stroke-dasharray:2;" x1="50" x2="50" y1="300" y2="792"/>
  <line style="fill:none;stroke:rgb(255,127,0);stroke-opacity:0.4980392156862745;stroke-miterlimit:2;stroke-dasharray:2;" x1="50" x2="50" y1="300" y2="809"/>
  <line style="fill:none;stroke:rgb(255,127,0);stroke-opacity:0.4980392156862745;stroke-miterlimit:2;stroke-dasharray:2;" x1="50" x2="50" y1="300" y2="826"/>
  <line style="fill:none;stroke:rgb(255,127,0);stroke-opacity:0.4980392156862745;stroke-miterlimit:2;stroke-dasharray:2;" x1="64" x2="64" y1="300" y2="840"/>
  <line style="fill:none;stroke:rgb(255,127,0);stroke-opacity:0.4980392156862745;stroke-miterlimit:2;stroke-dasharray:2;" x1="64" x2="64" y1="300" y2="854"/>
  <line style="fill:none;stroke:rgb(255,127,0);stroke-opacity:0.4980392156862745;stroke-miterlimit:2;stroke-dasharray:2;" x1="64" x2="64" y1="300" y2="868"/>
  <line style="fill:none;stroke:rgb(255,127,0);stroke-opacity:0.4980392156862745;stroke-miterlimit:2;stroke-dasharray:2;" x1="79" x2="79" y1="300" y2="882"/>
  <line style="fill:none;stroke:rgb(255,127,0);stroke-opacity:0.4980392156862745;stroke-miterlimit:2;stroke-dasharray:2;" x1="93" x2="93" y1="300" y2="896"/>
  <line style="fill:none;stroke:rgb(255,127,0);stroke-opacity:0.4980392156862745;stroke-miterlimit:2;stroke-dasharray:2;" x1="93" x2="93" y1="300" y2="910"/>
  <line style="fill:none;stroke:rgb(255,127,0);stroke-opacity:0.4980392156862745;stroke-miterlimit:2;stroke-dasharray:2;" x1="108" x2="108" y1="300" y2="924"/>
  <line style="fill:none;stroke:rgb(255,127,0);stroke-opacity:0.4980392156862745;stroke-miterlimit:2;stroke-dasharray:2;" x1="122" x2="122" y1="300" y2="938"/>
  <line style="fill:none;stroke:rgb(255,127,0);stroke-opacity:0.4980392156862745;stroke-miterlimit:2;stroke-dasharray:2;" x1="122" x2="122" y1="300" y2="952"/>
  <line style="fill:none;stroke:rgb(255,127,0);stroke-opacity:0.4980392156862745;stroke-miterlimit:2;stroke-dasharray:2;" x1="122" x2="122" y1="300" y2="966"/>
  <line style="fill:none;stroke:rgb(255,127,0);stroke-opacity:0.4980392156862745;stroke-miterlimit:2;stroke-dasharray:2;" x1="137" x2="137" y1="300" y2="980"/>
  <line style="fill:none;stroke:rgb(255,127,0);stroke-opacity:0.4980392156862745;stroke-miterlimit:2;stroke-dasharray:2;" x1="137" x2="137" y1="300" y2="994"/>
  <line style="fill:none;stroke:rgb(255,127,0);stroke-opacity:0.4980392156862745;stroke-miterlimit:2;stroke-dasharray:2;" x1="152" x2="152" y1="300" y2="1008"/>
  <line style="fill:none;stroke:rgb(255,127,0);stroke-opacity:0.4980392156862745;stroke-miterlimit:2;stroke-dasharray:2;" x1="152" x2="152" y1="300" y2="1022"/>
  <line style="fill:none;stroke:rgb(255,127,0);stroke-opacity:0.4980392156862745;stroke-miterlimit:2;stroke-dasharray:2;" x1="166" x2="166" y1="300" y2="1036"/>
  <line style="fill:none;stroke:rgb(255,127,0);stroke-opacity:0.4980392156862745;stroke-miterlimit:2;stroke-dasharray:2;" x1="166" x2="166" y1="300" y2="1050"/>
  <line style="fill:none;stroke:rgb(255,127,0);stroke-opacity:0.4980392156862745;stroke-miterlimit:2;stroke-dasharray:2;" x1="166" x2="166" y1="300" y2="1064"/>
  <line style="fill:none;stroke:rgb(255,127,0);stroke-opacity:0.4980392156862745;stroke-miterlimit:2;stroke-dasharray:2;" x1="166" x2="166" y1="300" y2="1078"/>
  <line style="fill:none;stroke:rgb(255,127,0);stroke-opacity:0.4980392156862745;stroke-miterlimit:2;stroke-dasharray:2;" x1="166" x2="166" y1="300" y2="1092"/>
  <line style="fill:none;stroke:rgb(255,127,0);stroke-opacity:0.4980392156862745;stroke-miterlimit:2;stroke-dasharray:2;" x1="181" x2="181" y1="300" y2="1106"/>
  <line style="fill:none;stroke:rgb(255,127,0);stroke-opacity:0.4980392156862745;stroke-miterlimit:2;stroke-dasharray:2;" x1="181" x2="181" y1="300" y2="1120"/>
  <line style="fill:none;stroke:rgb(255,127,0);stroke-opacity:0.4980392156862745;stroke-miterlimit:2;stroke-dasharray:2;" x1="181" x2="181" y1="300" y2="1134"/>
  <line style="fill:none;stroke:rgb(255,127,0);stroke-opacity:0.4980392156862745;stroke-miterlimit:2;stroke-dasharray:2;" x1="181" x2="181" y1="300" y2="1148"/>
  <line style="fill:none;stroke:rgb(255,127,0);stroke-opacity:0.4980392156862745;stroke-miterlimit:2;stroke-dasharray:2;" x1="181" x2="181" y1="300" y2="1162"/>
  <line style="fill:none;stroke:rgb(255,127,0);stroke-opacity:0.4980392156862745;stroke-miterlimit:2;stroke-dasharray:2;" x1="181" x2="181" y1="300" y2="1176"/>
  <line style="fill:none;stroke:rgb(255,127,0);stroke-opacity:0.4980392156862745;stroke-miterlimit:2;stroke-dasharray:2;" x1="195" x2="195" y1="300" y2="1190"/>
  <line style="fill:none;stroke:rgb(255,127,0);stroke-opacity:0.4980392156862745;stroke-miterlimit:2;stroke-dasharray:2;" x1="195" x2="195" y1="300" y2="1204"/>
  <line style="fill:none;stroke:rgb(255,127,0);stroke-opacity:0.4980392156862745;stroke-miterlimit:2;stroke-dasharray:2;" x1="195" x2="195" y1="300" y2="1218"/>
  <line style="fill:none;stroke:rgb(255,127,0);stroke-opacity:0.4980392156862745;stroke-miterlimit:2;stroke-dasharray:2;" x1="195" x2="195" y1="300" y2="1232"/>
  <line style="fill:none;stroke:rgb(255,127,0);stroke-opacity:0.4980392156862745;stroke-miterlimit:2;stroke-dasharray:2;" x1="195" x2="195" y1="300" y2="1246"/>
  <line style="fill:none;stroke:rgb(255,127,0);stroke-opacity:0.4980392156862745;stroke-miterlimit:2;stroke-dasharray:2;" x1="195" x2="195" y1="300" y2="1260"/>
  <line style="fill:none;stroke:rgb(255,127,0);stroke-opacity:0.4980392156862745;stroke-miterlimit:2;stroke-dasharray:2;" x1="195" x2="195" y1="300" y2="1274"/>
  <line style="fill:none;stroke:rgb(255,127,0);stroke-opacity:0.4980392156862745;stroke-miterlimit:2;stroke-dasharray:2;" x1="210" x2="210" y1="300" y2="1288"/>
  <line style="fill:none;stroke:rgb(255,127,0);stroke-opacity:0.4980392156862745;stroke-miterlimit:2;stroke-dasharray:2;" x1="210" x2="210" y1="300" y2="1302"/>
  <line style="fill:none;stroke:rgb(255,127,0);stroke-opacity:0.4980392156862745;stroke-miterlimit:2;stroke-dasharray:2;" x1="210" x2="210" y1="300" y2="1316"/>
  <line style="fill:none;stroke:rgb(255,127,0);stroke-opacity:0.4980392156862745;stroke-miterlimit:2;stroke-dasharray:2;" x1="210" x2="210" y1="300" y2="1330"/>
  <line style="fill:none;stroke:rgb(255,127,0);stroke-opacity:0.4980392156862745;stroke-miterlimit:2;stroke-dasharray:2;" x1="210" x2="210" y1="300" y2="1344"/>
  <line style="fill:none;stroke:rgb(255,127,0);stroke-opacity:0.4980392156862745;stroke-miterlimit:2;stroke-dasharray:2;" x1="210" x2="210" y1="300" y2="1358"/>
  <line style="fill:none;stroke:rgb(255,127,0);stroke-opacity:0.4980392156862745;stroke-miterlimit:2;stroke-dasharray:2;" x1="225" x2="225" y1="300" y2="1372"/>
  <line style="fill:none;stroke:rgb(255,127,0);stroke-opacity:0.4980392156862745;stroke-miterlimit:2;stroke-dasharray:2;" x1="225" x2="225" y1="300" y2="1386"/>
  <line style="fill:none;stroke:rgb(255,127,0);stroke-opacity:0.4980392156862745;stroke-miterlimit:2;stroke-dasharray:2;" x1="239" x2="239" y1="300" y2="1400"/>
  <line style="fill:none;stroke:rgb(255,127,0);stroke-opacity:0.4980392156862745;stroke-miterlimit:2;stroke-dasharray:2;" x1="254" x2="254" y1="300" y2="1414"/>
  <line style="fill:none;stroke:rgb(255,127,0);stroke-opacity:0.4980392156862745;stroke-miterlimit:2;stroke-dasharray:2;" x1="268" x2="268" y1="300" y2="1428"/>
  <line style="fill:none;stroke:rgb(255,127,0);stroke-opacity:0.4980392156862745;stroke-miterlimit:2;stroke-dasharray:2;" x1="283" x2="283" y1="300" y2="1442"/>
  <line style="fill:none;stroke:rgb(255,127,0);stroke-opacity:0.4980392156862745;stroke-miterlimit:2;stroke-dasharray:2;" x1="283" x2="283" y1="300" y2="1456"/>
  <line style="fill:none;stroke:rgb(255,127,0);stroke-opacity:0.4980392156862745;stroke-miterlimit:2;stroke-dasharray:2;" x1="297" x2="297" y1="300" y2="1469"/>
  <line style="fill:none;stroke:rgb(255,127,0);stroke-opacity:0.4980392156862745;stroke-miterlimit:2;stroke-dasharray:2;" x1="297" x2="297" y1="300" y2="1482"/>
  <line style="fill:none;stroke:rgb(255,127,0);stroke-opacity:0.4980392156862745;stroke-miterlimit:2;stroke-dasharray:2;" x1="297" x2="297" y1="300" y2="1495"/>
  <line style="fill:none;stroke:rgb(255,127,0);stroke-opacity:0.4980392156862745;stroke-miterlimit:2;stroke-dasharray:2;" x1="297" x2="297" y1="300" y2="1508"/>
  <line style="fill:none;stroke:rgb(255,127,0);stroke-opacity:0.4980392156862745;stroke-miterlimit:2;stroke-dasharray:2;" x1="297" x2="297" y1="300" y2="1521"/>
  <line style="fill:none;stroke:rgb(255,127,0);stroke-opacity:0.4980392156862745;stroke-miterlimit:2;stroke-dasharray:2;" x1="312" x2="312" y1="300" y2="1534"/>
  <line style="fill:none;stroke:rgb(255,127,0);stroke-opacity:0.4980392156862745;stroke-miterlimit:2;stroke-dasharray:2;" x1="312" x2="312" y1="300" y2="1547"/>
  <line style="fill:none;stroke:rgb(255,127,0);stroke-opacity:0.4980392156862745;stroke-miterlimit:2;stroke-dasharray:2;" x1="312" x2="312" y1="300" y2="1560"/>
  <line style="fill:none;stroke:rgb(255,127,0);stroke-opacity:0.4980392156862745;stroke-miterlimit:2;stroke-dasharray:2;" x1="312" x2="312" y1="300" y2="1573"/>
  <line style="fill:none;stroke:rgb(255,127,0);stroke-opacity:0.4980392156862745;stroke-miterlimit:2;stroke-dasharray:2;" x1="327" x2="327" y1="300" y2="1586"/>
  <line style="fill:none;stroke:rgb(255,127,0);stroke-opacity:0.4980392156862745;stroke-miterlimit:2;stroke-dasharray:2;" x1="327" x2="327" y1="300" y2="1599"/>
  <line style="fill:none;stroke:rgb(255,127,0);stroke-opacity:0.4980392156862745;stroke-miterlimit:2;stroke-dasharray:2;" x1="327" x2="327" y1="300" y2="1612"/>
  <line style="fill:none;stroke:rgb(255,127,0);stroke-opacity:0.4980392156862745;stroke-miterlimit:2;stroke-dasharray:2;" x1="341" x2="341" y1="300" y2="1625"/>
  <line style="fill:none;stroke:rgb(255,127,0);stroke-opacity:0.4980392156862745;stroke-miterlimit:2;stroke-dasharray:2;" x1="341" x2="341" y1="300" y2="1638"/>
  <line style="fill:none;stroke:rgb(0,0,0);stroke-width:2;stroke-miterlimit:10;stroke-linecap:square;" x1="48" x2="48" y1="60" y2="300"/>
  <line style="fill:none;stroke:rgb(0,0,0);stroke-width:2;stroke-miterlimit:10;stroke-linecap:square;" x1="48" x2="402" y1="300" y2="300"/>
  <rect height="30" style="fill:rgb(255,255,255);stroke:none;" width="17" x="42" y="308"/>
  <text style="fill:rgb(0,0,0);stroke:none;font-size:25px;font-weight:bold;" x="42" y="332">0</text>
  <rect height="30" style="fill:rgb(255,255,255);stroke:none;" width="34" x="383" y="308"/>
  <text style="fill:rgb(0,0,0);stroke:none;font-size:25px;font-weight:bold;" x="383" y="332">24</text>
  <text style="fill:rgb(0,0,0);stroke:none;font-size:25px;font-weight:bold;" x="25" y="312">0</text>
  <text style="fill:rgb(0,0,0);stroke:none;font-size:25px;font-weight:bold;" x="25" y="72">1</text>
  <text style="fill:rgb(0,0,0);stroke:none;font-size:25px;font-weight:bold;" x="60" y="42">BENPORATH_EED_TARGETS</text>
  <rect height="13" style="fill:rgb(255,255,255);stroke:none;" width="27" x="-8" y="354"/>
  <text style="fill:rgb(128,128,128);stroke:none;font-size:13px;" x="-8" y="367">MAF</text>
  <rect height="13" style="fill:rgb(255,255,255);stroke:none;" width="41" x="-8" y="371"/>
  <text style="fill:rgb(128,128,128);stroke:none;font-size:13px;" x="-8" y="384">PRKCE</text>
  <rect height="13" style="fill:rgb(255,255,255);stroke:none;" width="37" x="6" y="388"/>
  <text style="fill:rgb(128,128,128);stroke:none;font-size:13px;" x="6" y="401">MT1M</text>
  <rect height="13" style="fill:rgb(255,255,255);stroke:none;" width="35" x="6" y="405"/>
  <text style="fill:rgb(128,128,128);stroke:none;font-size:13px;" x="6" y="418">FZD2</text>
  <rect height="13" style="fill:rgb(255,255,255);stroke:none;" width="36" x="6" y="422"/>
  <text style="fill:rgb(128,128,128);stroke:none;font-size:13px;" x="6" y="435">RGCC</text>
  <rect height="13" style="fill:rgb(255,255,255);stroke:none;" width="43" x="6" y="439"/>
  <text style="fill:rgb(128,128,128);stroke:none;font-size:13px;" x="6" y="452">EPHB1</text>
  <rect height="13" style="fill:rgb(255,255,255);stroke:none;" width="42" x="6" y="456"/>
  <text style="fill:rgb(128,128,128);stroke:none;font-size:13px;" x="6" y="469">RPRML</text>
  <rect height="13" style="fill:rgb(255,255,255);stroke:none;" width="53" x="6" y="473"/>
  <text style="fill:rgb(128,128,128);stroke:none;font-size:13px;" x="6" y="486">SORCS2</text>
  <rect height="13" style="fill:rgb(255,255,255);stroke:none;" width="52" x="6" y="490"/>
  <text style="fill:rgb(128,128,128);stroke:none;font-size:13px;" x="6" y="503">FAM43B</text>
  <rect height="13" style="fill:rgb(255,255,255);stroke:none;" width="30" x="20" y="507"/>
  <text style="fill:rgb(128,128,128);stroke:none;font-size:13px;" x="20" y="520">ADM</text>
  <rect height="13" style="fill:rgb(255,255,255);stroke:none;" width="35" x="20" y="524"/>
  <text style="fill:rgb(128,128,128);stroke:none;font-size:13px;" x="20" y="537">MT1B</text>
  <rect height="13" style="fill:rgb(255,255,255);stroke:none;" width="35" x="20" y="541"/>
  <text style="fill:rgb(128,128,128);stroke:none;font-size:13px;" x="20" y="554">HES2</text>
  <rect height="13" style="fill:rgb(255,255,255);stroke:none;" width="45" x="20" y="558"/>
  <text style="fill:rgb(128,128,128);stroke:none;font-size:13px;" x="20" y="571">CDH23</text>
  <rect height="13" style="fill:rgb(255,255,255);stroke:none;" width="43" x="20" y="575"/>
  <text style="fill:rgb(128,128,128);stroke:none;font-size:13px;" x="20" y="588">AUTS2</text>
  <rect height="13" style="fill:rgb(255,255,255);stroke:none;" width="39" x="20" y="592"/>
  <text style="fill:rgb(128,128,128);stroke:none;font-size:13px;" x="20" y="605">TPPP3</text>
  <rect height="13" style="fill:rgb(255,255,255);stroke:none;" width="53" x="20" y="609"/>
  <text style="fill:rgb(128,128,128);stroke:none;font-size:13px;" x="20" y="622">DMRTC1</text>
  <rect height="13" style="fill:rgb(255,255,255);stroke:none;" width="33" x="35" y="626"/>
  <text style="fill:rgb(128,128,128);stroke:none;font-size:13px;" x="35" y="639">PHF3</text>
  <rect height="13" style="fill:rgb(255,255,255);stroke:none;" width="35" x="35" y="643"/>
  <text style="fill:rgb(128,128,128);stroke:none;font-size:13px;" x="35" y="656">SOX7</text>
  <rect height="13" style="fill:rgb(255,255,255);stroke:none;" width="32" x="35" y="660"/>
  <text style="fill:rgb(128,128,128);stroke:none;font-size:13px;" x="35" y="673">TBX1</text>
  <rect height="13" style="fill:rgb(255,255,255);stroke:none;" width="43" x="35" y="677"/>
  <text style="fill:rgb(128,128,128);stroke:none;font-size:13px;" x="35" y="690">FZD10</text>
  <rect height="13" style="fill:rgb(255,255,255);stroke:none;" width="43" x="35" y="694"/>
  <text style="fill:rgb(128,128,128);stroke:none;font-size:13px;" x="35" y="707">ADCY4</text>
  <rect height="13" style="fill:rgb(255,255,255);stroke:none;" width="53" x="35" y="711"/>
  <text style="fill:rgb(128,128,128);stroke:none;font-size:13px;" x="35" y="724">DHRS13</text>
  <rect height="13" style="fill:rgb(255,255,255);stroke:none;" width="59" x="35" y="728"/>
  <text style="fill:rgb(128,128,128);stroke:none;font-size:13px;" x="35" y="741">GALNT18</text>
  <rect height="13" style="fill:rgb(255,255,255);stroke:none;" width="27" x="50" y="745"/>
  <text style="fill:rgb(128,128,128);stroke:none;font-size:13px;" x="50" y="758">MYB</text>
  <rect height="13" style="fill:rgb(255,255,255);stroke:none;" width="30" x="50" y="762"/>
  <text style="fill:rgb(128,128,128);stroke:none;font-size:13px;" x="50" y="775">GJB2</text>
  <rect height="13" style="fill:rgb(255,255,255);stroke:none;" width="41" x="50" y="779"/>
  <text style="fill:rgb(128,128,128);stroke:none;font-size:13px;" x="50" y="792">ARNTL</text>
  <rect height="13" style="fill:rgb(255,255,255);stroke:none;" width="46" x="50" y="796"/>
  <text style="fill:rgb(128,128,128);stroke:none;font-size:13px;" x="50" y="809">DUOX2</text>
  <rect height="13" style="fill:rgb(255,255,255);stroke:none;" width="50" x="50" y="813"/>
  <text style="fill:rgb(128,128,128);stroke:none;font-size:13px;" x="50" y="826">UAP1L1</text>
  <rect height="11" style="fill:rgb(255,255,255);stroke:none;" width="30" x="64" y="829"/>
  <text style="fill:rgb(128,128,128);stroke:none;font-size:11px;" x="64" y="840">EMX2</text>
  <rect height="11" style="fill:rgb(255,255,255);stroke:none;" width="40" x="64" y="843"/>
  <text style="fill:rgb(128,128,128);stroke:none;font-size:11px;" x="64" y="854">MOXD1</text>
  <rect height="11" style="fill:rgb(255,255,255);stroke:none;" width="49" x="64" y="857"/>
  <text style="fill:rgb(128,128,128);stroke:none;font-size:11px;" x="64" y="868">RASL10A</text>
  <rect height="11" style="fill:rgb(255,255,255);stroke:none;" width="24" x="79" y="871"/>
  <text style="fill:rgb(128,128,128);stroke:none;font-size:11px;" x="79" y="882">IRX4</text>
  <rect height="11" style="fill:rgb(255,255,255);stroke:none;" width="36" x="93" y="885"/>
  <text style="fill:rgb(128,128,128);stroke:none;font-size:11px;" x="93" y="896">ALOX5</text>
  <rect height="11" style="fill:rgb(255,255,255);stroke:none;" width="70" x="93" y="899"/>
  <text style="fill:rgb(128,128,128);stroke:none;font-size:11px;" x="93" y="910">ZNF436-AS1</text>
  <rect height="11" style="fill:rgb(255,255,255);stroke:none;" width="39" x="108" y="913"/>
  <text style="fill:rgb(128,128,128);stroke:none;font-size:11px;" x="108" y="924">KCNQ1</text>
  <rect height="11" style="fill:rgb(255,255,255);stroke:none;" width="30" x="122" y="927"/>
  <text style="fill:rgb(128,128,128);stroke:none;font-size:11px;" x="122" y="938">CBR3</text>
  <rect height="11" style="fill:rgb(255,255,255);stroke:none;" width="33" x="122" y="941"/>
  <text style="fill:rgb(128,128,128);stroke:none;font-size:11px;" x="122" y="952">KCNJ2</text>
  <rect height="11" style="fill:rgb(255,255,255);stroke:none;" width="57" x="122" y="955"/>
  <text style="fill:rgb(128,128,128);stroke:none;font-size:11px;" x="122" y="966">SLC6A10P</text>
  <rect height="11" style="fill:rgb(255,255,255);stroke:none;" width="36" x="137" y="969"/>
  <text style="fill:rgb(128,128,128);stroke:none;font-size:11px;" x="137" y="980">NR4A3</text>
  <rect height="11" style="fill:rgb(255,255,255);stroke:none;" width="57" x="137" y="983"/>
  <text style="fill:rgb(128,128,128);stroke:none;font-size:11px;" x="137" y="994">NDUFA4L2</text>
  <rect height="11" style="fill:rgb(255,255,255);stroke:none;" width="39" x="152" y="997"/>
  <text style="fill:rgb(128,128,128);stroke:none;font-size:11px;" x="152" y="1008">HOXB6</text>
  <rect height="11" style="fill:rgb(255,255,255);stroke:none;" width="32" x="152" y="1011"/>
  <text style="fill:rgb(128,128,128);stroke:none;font-size:11px;" x="152" y="1022">NRIP3</text>
  <rect height="11" style="fill:rgb(255,255,255);stroke:none;" width="27" x="166" y="1025"/>
  <text style="fill:rgb(128,128,128);stroke:none;font-size:11px;" x="166" y="1036">ATF3</text>
  <rect height="11" style="fill:rgb(255,255,255);stroke:none;" width="28" x="166" y="1039"/>
  <text style="fill:rgb(128,128,128);stroke:none;font-size:11px;" x="166" y="1050">EYA2</text>
  <rect height="11" style="fill:rgb(255,255,255);stroke:none;" width="31" x="166" y="1053"/>
  <text style="fill:rgb(128,128,128);stroke:none;font-size:11px;" x="166" y="1064">RIPK3</text>
  <rect height="11" style="fill:rgb(255,255,255);stroke:none;" width="44" x="166" y="1067"/>
  <text style="fill:rgb(128,128,128);stroke:none;font-size:11px;" x="166" y="1078">ZNF335</text>
  <rect height="11" style="fill:rgb(255,255,255);stroke:none;" width="49" x="166" y="1081"/>
  <text style="fill:rgb(128,128,128);stroke:none;font-size:11px;" x="166" y="1092">PPP1R10</text>
  <rect height="11" style="fill:rgb(255,255,255);stroke:none;" width="26" x="181" y="1095"/>
  <text style="fill:rgb(128,128,128);stroke:none;font-size:11px;" x="181" y="1106">HIC1</text>
  <rect height="11" style="fill:rgb(255,255,255);stroke:none;" width="38" x="181" y="1109"/>
  <text style="fill:rgb(128,128,128);stroke:none;font-size:11px;" x="181" y="1120">CH25H</text>
  <rect height="11" style="fill:rgb(255,255,255);stroke:none;" width="37" x="181" y="1123"/>
  <text style="fill:rgb(128,128,128);stroke:none;font-size:11px;" x="181" y="1134">FNDC1</text>
  <rect height="11" style="fill:rgb(255,255,255);stroke:none;" width="33" x="181" y="1137"/>
  <text style="fill:rgb(128,128,128);stroke:none;font-size:11px;" x="181" y="1148">FLRT2</text>
  <rect height="11" style="fill:rgb(255,255,255);stroke:none;" width="36" x="181" y="1151"/>
  <text style="fill:rgb(128,128,128);stroke:none;font-size:11px;" x="181" y="1162">RAB24</text>
  <rect height="11" style="fill:rgb(255,255,255);stroke:none;" width="44" x="181" y="1165"/>
  <text style="fill:rgb(128,128,128);stroke:none;font-size:11px;" x="181" y="1176">HSPA1A</text>
  <rect height="11" style="fill:rgb(255,255,255);stroke:none;" width="31" x="195" y="1179"/>
  <text style="fill:rgb(128,128,128);stroke:none;font-size:11px;" x="195" y="1190">THBD</text>
  <rect height="11" style="fill:rgb(255,255,255);stroke:none;" width="32" x="195" y="1193"/>
  <text style="fill:rgb(128,128,128);stroke:none;font-size:11px;" x="195" y="1204">CLIC5</text>
  <rect height="11" style="fill:rgb(255,255,255);stroke:none;" width="39" x="195" y="1207"/>
  <text style="fill:rgb(128,128,128);stroke:none;font-size:11px;" x="195" y="1218">PDZD2</text>
  <rect height="11" style="fill:rgb(255,255,255);stroke:none;" width="36" x="195" y="1221"/>
  <text style="fill:rgb(128,128,128);stroke:none;font-size:11px;" x="195" y="1232">NPTX1</text>
  <rect height="11" style="fill:rgb(255,255,255);stroke:none;" width="41" x="195" y="1235"/>
  <text style="fill:rgb(128,128,128);stroke:none;font-size:11px;" x="195" y="1246">KLHL35</text>
  <rect height="11" style="fill:rgb(255,255,255);stroke:none;" width="40" x="195" y="1249"/>
  <text style="fill:rgb(128,128,128);stroke:none;font-size:11px;" x="195" y="1260">ERICH5</text>
  <rect height="11" style="fill:rgb(255,255,255);stroke:none;" width="47" x="195" y="1263"/>
  <text style="fill:rgb(128,128,128);stroke:none;font-size:11px;" x="195" y="1274">PDE4DIP</text>
  <rect height="11" style="fill:rgb(255,255,255);stroke:none;" width="29" x="210" y="1277"/>
  <text style="fill:rgb(128,128,128);stroke:none;font-size:11px;" x="210" y="1288">NAV2</text>
  <rect height="11" style="fill:rgb(255,255,255);stroke:none;" width="24" x="210" y="1291"/>
  <text style="fill:rgb(128,128,128);stroke:none;font-size:11px;" x="210" y="1302">IRX3</text>
  <rect height="11" style="fill:rgb(255,255,255);stroke:none;" width="37" x="210" y="1305"/>
  <text style="fill:rgb(128,128,128);stroke:none;font-size:11px;" x="210" y="1316">TRADD</text>
  <rect height="11" style="fill:rgb(255,255,255);stroke:none;" width="39" x="210" y="1319"/>
  <text style="fill:rgb(128,128,128);stroke:none;font-size:11px;" x="210" y="1330">ANOS1</text>
  <rect height="11" style="fill:rgb(255,255,255);stroke:none;" width="37" x="210" y="1333"/>
  <text style="fill:rgb(128,128,128);stroke:none;font-size:11px;" x="210" y="1344">NPAS1</text>
  <rect height="11" style="fill:rgb(255,255,255);stroke:none;" width="52" x="210" y="1347"/>
  <text style="fill:rgb(128,128,128);stroke:none;font-size:11px;" x="210" y="1358">SLCO4A1</text>
  <rect height="11" style="fill:rgb(255,255,255);stroke:none;" width="28" x="225" y="1361"/>
  <text style="fill:rgb(128,128,128);stroke:none;font-size:11px;" x="225" y="1372">CFTR</text>
  <rect height="11" style="fill:rgb(255,255,255);stroke:none;" width="36" x="225" y="1375"/>
  <text style="fill:rgb(128,128,128);stroke:none;font-size:11px;" x="225" y="1386">ADAP2</text>
  <rect height="11" style="fill:rgb(255,255,255);stroke:none;" width="44" x="239" y="1389"/>
  <text style="fill:rgb(128,128,128);stroke:none;font-size:11px;" x="239" y="1400">PDGFRA</text>
  <rect height="11" style="fill:rgb(255,255,255);stroke:none;" width="30" x="254" y="1403"/>
  <text style="fill:rgb(128,128,128);stroke:none;font-size:11px;" x="254" y="1414">HHAT</text>
  <rect height="11" style="fill:rgb(255,255,255);stroke:none;" width="46" x="268" y="1417"/>
  <text style="fill:rgb(128,128,128);stroke:none;font-size:11px;" x="268" y="1428">ZBTB16</text>
  <rect height="11" style="fill:rgb(255,255,255);stroke:none;" width="28" x="283" y="1431"/>
  <text style="fill:rgb(128,128,128);stroke:none;font-size:11px;" x="283" y="1442">DPF3</text>
  <rect height="11" style="fill:rgb(255,255,255);stroke:none;" width="31" x="283" y="1445"/>
  <text style="fill:rgb(128,128,128);stroke:none;font-size:11px;" x="283" y="1456">SOX5</text>
  <rect height="10" style="fill:rgb(255,255,255);stroke:none;" width="38" x="297" y="1459"/>
  <text style="fill:rgb(128,128,128);stroke:none;font-size:10px;" x="297" y="1469">CHODL</text>
  <rect height="10" style="fill:rgb(255,255,255);stroke:none;" width="32" x="297" y="1472"/>
  <text style="fill:rgb(128,128,128);stroke:none;font-size:10px;" x="297" y="1482">NPTX2</text>
  <rect height="10" style="fill:rgb(255,255,255);stroke:none;" width="36" x="297" y="1485"/>
  <text style="fill:rgb(128,128,128);stroke:none;font-size:10px;" x="297" y="1495">HOXD8</text>
  <rect height="10" style="fill:rgb(255,255,255);stroke:none;" width="37" x="297" y="1498"/>
  <text style="fill:rgb(128,128,128);stroke:none;font-size:10px;" x="297" y="1508">IGFBP3</text>
  <rect height="10" style="fill:rgb(255,255,255);stroke:none;" width="40" x="297" y="1511"/>
  <text style="fill:rgb(128,128,128);stroke:none;font-size:10px;" x="297" y="1521">CXCL12</text>
  <rect height="10" style="fill:rgb(255,255,255);stroke:none;" width="25" x="312" y="1524"/>
  <text style="fill:rgb(128,128,128);stroke:none;font-size:10px;" x="312" y="1534">KLF4</text>
  <rect height="10" style="fill:rgb(255,255,255);stroke:none;" width="34" x="312" y="1537"/>
  <text style="fill:rgb(128,128,128);stroke:none;font-size:10px;" x="312" y="1547">PLCB1</text>
  <rect height="10" style="fill:rgb(255,255,255);stroke:none;" width="39" x="312" y="1550"/>
  <text style="fill:rgb(128,128,128);stroke:none;font-size:10px;" x="312" y="1560">CNRIP1</text>
  <rect height="10" style="fill:rgb(255,255,255);stroke:none;" width="37" x="312" y="1563"/>
  <text style="fill:rgb(128,128,128);stroke:none;font-size:10px;" x="312" y="1573">IGFBP7</text>
  <rect height="10" style="fill:rgb(255,255,255);stroke:none;" width="28" x="327" y="1576"/>
  <text style="fill:rgb(128,128,128);stroke:none;font-size:10px;" x="327" y="1586">CD34</text>
  <rect height="10" style="fill:rgb(255,255,255);stroke:none;" width="27" x="327" y="1589"/>
  <text style="fill:rgb(128,128,128);stroke:none;font-size:10px;" x="327" y="1599">NTN1</text>
  <rect height="10" style="fill:rgb(255,255,255);stroke:none;" width="34" x="327" y="1602"/>
  <text style="fill:rgb(128,128,128);stroke:none;font-size:10px;" x="327" y="1612">ERBB4</text>
  <rect height="10" style="fill:rgb(255,255,255);stroke:none;" width="30" x="341" y="1615"/>
  <text style="fill:rgb(128,128,128);stroke:none;font-size:10px;" x="341" y="1625">IRAK3</text>
  <rect height="10" style="fill:rgb(255,255,255);stroke:none;" width="37" x="341" y="1628"/>
  <text style="fill:rgb(128,128,128);stroke:none;font-size:10px;" x="341" y="1638">FBXL14</text>
</svg>
