<?xml version="1.0" encoding="UTF-8" standalone="no"?>
<!DOCTYPE svg PUBLIC "-//W3C//DTD SVG 1.1//EN" "http://www.w3.org/Graphics/SVG/1.1/DTD/svg11.dtd">
<svg xmlns:xlink="http://www.w3.org/1999/xlink" height="158.74999999999997mm" version="1.1" viewBox="0 0 500 600" width="132.29166666666666mm" x="0mm" y="0mm" xmlns="http://www.w3.org/2000/svg">
  <rect height="1200" style="fill:rgb(255,255,255);stroke:none;" width="1000" x="0" y="0"/>
  <rect height="240" style="fill:rgb(191,191,191);fill-opacity:0.4980392156862745;stroke:none;" width="175" x="225" y="60"/>
  <line style="fill:none;stroke:rgb(63,63,191);stroke-opacity:0.24705882352941178;stroke-miterlimit:10;stroke-linecap:square;" x1="50" x2="-8" y1="300" y2="300"/>
  <line style="fill:none;stroke:rgb(63,63,191);stroke-opacity:0.24705882352941178;stroke-miterlimit:10;stroke-linecap:square;" x1="-8" x2="6" y1="300" y2="300"/>
  <line style="fill:none;stroke:rgb(63,63,191);stroke-opacity:0.24705882352941178;stroke-miterlimit:10;stroke-linecap:square;" x1="6" x2="20" y1="300" y2="300"/>
  <line style="fill:none;stroke:rgb(63,63,191);stroke-opacity:0.24705882352941178;stroke-miterlimit:10;stroke-linecap:square;" x1="20" x2="35" y1="300" y2="300"/>
  <line style="fill:none;stroke:rgb(63,63,191);stroke-opacity:0.24705882352941178;stroke-miterlimit:10;stroke-linecap:square;" x1="35" x2="50" y1="300" y2="300"/>
  <line style="fill:none;stroke:rgb(63,63,191);stroke-opacity:0.24705882352941178;stroke-miterlimit:10;stroke-linecap:square;" x1="50" x2="64" y1="300" y2="290"/>
  <line style="fill:none;stroke:rgb(63,63,191);stroke-opacity:0.24705882352941178;stroke-miterlimit:10;stroke-linecap:square;" x1="64" x2="79" y1="290" y2="280"/>
  <line style="fill:none;stroke:rgb(63,63,191);stroke-opacity:0.24705882352941178;stroke-miterlimit:10;stroke-linecap:square;" x1="79" x2="93" y1="280" y2="270"/>
  <line style="fill:none;stroke:rgb(63,63,191);stroke-opacity:0.24705882352941178;stroke-miterlimit:10;stroke-linecap:square;" x1="93" x2="108" y1="270" y2="260"/>
  <line style="fill:none;stroke:rgb(63,63,191);stroke-opacity:0.24705882352941178;stroke-miterlimit:10;stroke-linecap:square;" x1="108" x2="122" y1="260" y2="250"/>
  <line style="fill:none;stroke:rgb(63,63,191);stroke-opacity:0.24705882352941178;stroke-miterlimit:10;stroke-linecap:square;" x1="122" x2="137" y1="250" y2="240"/>
  <line style="fill:none;stroke:rgb(63,63,191);stroke-opacity:0.24705882352941178;stroke-miterlimit:10;stroke-linecap:square;" x1="137" x2="152" y1="240" y2="230"/>
  <line style="fill:none;stroke:rgb(63,63,191);stroke-opacity:0.24705882352941178;stroke-miterlimit:10;stroke-linecap:square;" x1="152" x2="166" y1="230" y2="220"/>
  <line style="fill:none;stroke:rgb(63,63,191);stroke-opacity:0.24705882352941178;stroke-miterlimit:10;stroke-linecap:square;" x1="166" x2="181" y1="220" y2="210"/>
  <line style="fill:none;stroke:rgb(63,63,191);stroke-opacity:0.24705882352941178;stroke-miterlimit:10;stroke-linecap:square;" x1="181" x2="195" y1="210" y2="200"/>
  <line style="fill:none;stroke:rgb(63,63,191);stroke-opacity:0.24705882352941178;stroke-miterlimit:10;stroke-linecap:square;" x1="195" x2="210" y1="200" y2="190"/>
  <line style="fill:none;stroke:rgb(63,63,191);stroke-opacity:0.24705882352941178;stroke-miterlimit:10;stroke-linecap:square;" x1="210" x2="225" y1="190" y2="180"/>
  <line style="fill:none;stroke:rgb(63,63,191);stroke-opacity:0.24705882352941178;stroke-miterlimit:10;stroke-linecap:square;" x1="225" x2="239" y1="180" y2="170"/>
  <line style="fill:none;stroke:rgb(63,63,191);stroke-opacity:0.24705882352941178;stroke-miterlimit:10;stroke-linecap:square;" x1="239" x2="254" y1="170" y2="160"/>
  <line style="fill:none;stroke:rgb(63,63,191);stroke-opacity:0.24705882352941178;stroke-miterlimit:10;stroke-linecap:square;" x1="254" x2="268" y1="160" y2="150"/>
  <line style="fill:none;stroke:rgb(63,63,191);stroke-opacity:0.24705882352941178;stroke-miterlimit:10;stroke-linecap:square;" x1="268" x2="283" y1="150" y2="140"/>
  <line style="fill:none;stroke:rgb(63,63,191);stroke-opacity:0.24705882352941178;stroke-miterlimit:10;stroke-linecap:square;" x1="283" x2="297" y1="140" y2="130"/>
  <line style="fill:none;stroke:rgb(63,63,191);stroke-opacity:0.24705882352941178;stroke-miterlimit:10;stroke-linecap:square;" x1="297" x2="312" y1="130" y2="120"/>
  <line style="fill:none;stroke:rgb(63,63,191);stroke-opacity:0.24705882352941178;stroke-miterlimit:10;stroke-linecap:square;" x1="312" x2="327" y1="120" y2="110"/>
  <line style="fill:none;stroke:rgb(63,63,191);stroke-opacity:0.24705882352941178;stroke-miterlimit:10;stroke-linecap:square;" x1="327" x2="341" y1="110" y2="100"/>
  <line style="fill:none;stroke:rgb(63,63,191);stroke-opacity:0.24705882352941178;stroke-miterlimit:10;stroke-linecap:square;" x1="341" x2="400" y1="100" y2="60"/>
  <rect height="12" style="fill:rgb(255,127,0);fill-opacity:0.7490196078431373;stroke:none;" width="4" x="4" y="287"/>
  <line style="fill:none;stroke:rgb(255,127,0);stroke-opacity:0.24705882352941178;stroke-width:2;stroke-miterlimit:10;stroke-linecap:square;" x1="50" x2="6" y1="300" y2="300"/>
  <line style="fill:none;stroke:rgb(255,127,0);stroke-opacity:0.24705882352941178;stroke-width:2;stroke-miterlimit:10;stroke-linecap:square;" x1="6" x2="6" y1="298" y2="289"/>
  <rect height="20" style="fill:rgb(255,127,0);fill-opacity:0.7490196078431373;stroke:none;" width="4" x="18" y="279"/>
  <line style="fill:none;stroke:rgb(255,127,0);stroke-opacity:0.24705882352941178;stroke-width:2;stroke-miterlimit:10;stroke-linecap:square;" x1="6" x2="20" y1="287" y2="287"/>
  <line style="fill:none;stroke:rgb(255,127,0);stroke-opacity:0.24705882352941178;stroke-width:2;stroke-miterlimit:10;stroke-linecap:square;" x1="20" x2="20" y1="285" y2="269"/>
  <rect height="8" style="fill:rgb(255,127,0);fill-opacity:0.7490196078431373;stroke:none;" width="4" x="33" y="291"/>
  <line style="fill:none;stroke:rgb(255,127,0);stroke-opacity:0.24705882352941178;stroke-width:2;stroke-miterlimit:10;stroke-linecap:square;" x1="20" x2="35" y1="267" y2="267"/>
  <line style="fill:none;stroke:rgb(255,127,0);stroke-opacity:0.24705882352941178;stroke-width:2;stroke-miterlimit:10;stroke-linecap:square;" x1="35" x2="35" y1="265" y2="261"/>
  <rect height="12" style="fill:rgb(255,127,0);fill-opacity:0.7490196078431373;stroke:none;" width="4" x="48" y="287"/>
  <line style="fill:none;stroke:rgb(255,127,0);stroke-opacity:0.24705882352941178;stroke-width:2;stroke-miterlimit:10;stroke-linecap:square;" x1="35" x2="50" y1="259" y2="259"/>
  <line style="fill:none;stroke:rgb(255,127,0);stroke-opacity:0.24705882352941178;stroke-width:2;stroke-miterlimit:10;stroke-linecap:square;" x1="50" x2="50" y1="257" y2="249"/>
  <rect height="16" style="fill:rgb(255,127,0);fill-opacity:0.7490196078431373;stroke:none;" width="4" x="62" y="283"/>
  <line style="fill:none;stroke:rgb(255,127,0);stroke-opacity:0.24705882352941178;stroke-width:2;stroke-miterlimit:10;stroke-linecap:square;" x1="50" x2="64" y1="247" y2="247"/>
  <line style="fill:none;stroke:rgb(255,127,0);stroke-opacity:0.24705882352941178;stroke-width:2;stroke-miterlimit:10;stroke-linecap:square;" x1="64" x2="64" y1="245" y2="232"/>
  <rect height="8" style="fill:rgb(255,127,0);fill-opacity:0.7490196078431373;stroke:none;" width="4" x="106" y="291"/>
  <line style="fill:none;stroke:rgb(255,127,0);stroke-opacity:0.24705882352941178;stroke-width:2;stroke-miterlimit:10;stroke-linecap:square;" x1="64" x2="108" y1="230" y2="230"/>
  <line style="fill:none;stroke:rgb(255,127,0);stroke-opacity:0.24705882352941178;stroke-width:2;stroke-miterlimit:10;stroke-linecap:square;" x1="108" x2="108" y1="228" y2="224"/>
  <rect height="8" style="fill:rgb(255,127,0);fill-opacity:0.7490196078431373;stroke:none;" width="4" x="120" y="291"/>
  <line style="fill:none;stroke:rgb(255,127,0);stroke-opacity:0.24705882352941178;stroke-width:2;stroke-miterlimit:10;stroke-linecap:square;" x1="108" x2="122" y1="222" y2="222"/>
  <line style="fill:none;stroke:rgb(255,127,0);stroke-opacity:0.24705882352941178;stroke-width:2;stroke-miterlimit:10;stroke-linecap:square;" x1="122" x2="122" y1="220" y2="216"/>
  <rect height="12" style="fill:rgb(255,127,0);fill-opacity:0.7490196078431373;stroke:none;" width="4" x="135" y="287"/>
  <line style="fill:none;stroke:rgb(255,127,0);stroke-opacity:0.24705882352941178;stroke-width:2;stroke-miterlimit:10;stroke-linecap:square;" x1="122" x2="137" y1="214" y2="214"/>
  <line style="fill:none;stroke:rgb(255,127,0);stroke-opacity:0.24705882352941178;stroke-width:2;stroke-miterlimit:10;stroke-linecap:square;" x1="137" x2="137" y1="212" y2="204"/>
  <rect height="16" style="fill:rgb(255,127,0);fill-opacity:0.7490196078431373;stroke:none;" width="4" x="150" y="283"/>
  <line style="fill:none;stroke:rgb(255,127,0);stroke-opacity:0.24705882352941178;stroke-width:2;stroke-miterlimit:10;stroke-linecap:square;" x1="137" x2="152" y1="202" y2="202"/>
  <line style="fill:none;stroke:rgb(255,127,0);stroke-opacity:0.24705882352941178;stroke-width:2;stroke-miterlimit:10;stroke-linecap:square;" x1="152" x2="152" y1="200" y2="188"/>
  <rect height="24" style="fill:rgb(255,127,0);fill-opacity:0.7490196078431373;stroke:none;" width="4" x="164" y="275"/>
  <line style="fill:none;stroke:rgb(255,127,0);stroke-opacity:0.24705882352941178;stroke-width:2;stroke-miterlimit:10;stroke-linecap:square;" x1="152" x2="166" y1="186" y2="186"/>
  <line style="fill:none;stroke:rgb(255,127,0);stroke-opacity:0.24705882352941178;stroke-width:2;stroke-miterlimit:10;stroke-linecap:square;" x1="166" x2="166" y1="184" y2="163"/>
  <rect height="20" style="fill:rgb(255,127,0);fill-opacity:0.7490196078431373;stroke:none;" width="4" x="179" y="279"/>
  <line style="fill:none;stroke:rgb(255,127,0);stroke-opacity:0.24705882352941178;stroke-width:2;stroke-miterlimit:10;stroke-linecap:square;" x1="166" x2="181" y1="161" y2="161"/>
  <line style="fill:none;stroke:rgb(255,127,0);stroke-opacity:0.24705882352941178;stroke-width:2;stroke-miterlimit:10;stroke-linecap:square;" x1="181" x2="181" y1="159" y2="143"/>
  <rect height="20" style="fill:rgb(255,127,0);fill-opacity:0.7490196078431373;stroke:none;" width="4" x="193" y="279"/>
  <line style="fill:none;stroke:rgb(255,127,0);stroke-opacity:0.24705882352941178;stroke-width:2;stroke-miterlimit:10;stroke-linecap:square;" x1="181" x2="195" y1="141" y2="141"/>
  <line style="fill:none;stroke:rgb(255,127,0);stroke-opacity:0.24705882352941178;stroke-width:2;stroke-miterlimit:10;stroke-linecap:square;" x1="195" x2="195" y1="139" y2="123"/>
  <rect height="12" style="fill:rgb(255,127,0);fill-opacity:0.7490196078431373;stroke:none;" width="4" x="208" y="287"/>
  <line style="fill:none;stroke:rgb(255,127,0);stroke-opacity:0.24705882352941178;stroke-width:2;stroke-miterlimit:10;stroke-linecap:square;" x1="195" x2="210" y1="121" y2="121"/>
  <line style="fill:none;stroke:rgb(255,127,0);stroke-opacity:0.24705882352941178;stroke-width:2;stroke-miterlimit:10;stroke-linecap:square;" x1="210" x2="210" y1="119" y2="110"/>
  <rect height="20" style="fill:rgb(255,127,0);fill-opacity:0.7490196078431373;stroke:none;" width="4" x="223" y="279"/>
  <line style="fill:none;stroke:rgb(255,127,0);stroke-opacity:0.24705882352941178;stroke-width:2;stroke-miterlimit:10;stroke-linecap:square;" x1="210" x2="225" y1="108" y2="108"/>
  <line style="fill:none;stroke:rgb(255,127,0);stroke-opacity:0.24705882352941178;stroke-width:2;stroke-miterlimit:10;stroke-linecap:square;" x1="225" x2="225" y1="106" y2="90"/>
  <rect height="8" style="fill:rgb(255,127,0);fill-opacity:0.7490196078431373;stroke:none;" width="4" x="237" y="291"/>
  <line style="fill:none;stroke:rgb(255,127,0);stroke-opacity:0.24705882352941178;stroke-width:2;stroke-miterlimit:10;stroke-linecap:square;" x1="225" x2="239" y1="88" y2="88"/>
  <line style="fill:none;stroke:rgb(255,127,0);stroke-opacity:0.24705882352941178;stroke-width:2;stroke-miterlimit:10;stroke-linecap:square;" x1="239" x2="239" y1="86" y2="82"/>
  <rect height="8" style="fill:rgb(255,127,0);fill-opacity:0.7490196078431373;stroke:none;" width="4" x="252" y="291"/>
  <line style="fill:none;stroke:rgb(255,127,0);stroke-opacity:0.24705882352941178;stroke-width:2;stroke-miterlimit:10;stroke-linecap:square;" x1="239" x2="254" y1="80" y2="80"/>
  <line style="fill:none;stroke:rgb(255,127,0);stroke-opacity:0.24705882352941178;stroke-width:2;stroke-miterlimit:10;stroke-linecap:square;" x1="254" x2="254" y1="78" y2="74"/>
  <rect height="4" style="fill:rgb(255,127,0);fill-opacity:0.7490196078431373;stroke:none;" width="4" x="266" y="295"/>
  <line style="fill:none;stroke:rgb(255,127,0);stroke-opacity:0.24705882352941178;stroke-width:2;stroke-miterlimit:10;stroke-linecap:square;" x1="254" x2="268" y1="72" y2="72"/>
  <line style="fill:none;stroke:rgb(255,127,0);stroke-opacity:0.24705882352941178;stroke-width:2;stroke-miterlimit:10;stroke-linecap:square;" x1="268" x2="268" y1="70" y2="70"/>
  <rect height="4" style="fill:rgb(255,127,0);fill-opacity:0.7490196078431373;stroke:none;" width="4" x="281" y="295"/>
  <line style="fill:none;stroke:rgb(255,127,0);stroke-opacity:0.24705882352941178;stroke-width:2;stroke-miterlimit:10;stroke-linecap:square;" x1="268" x2="283" y1="68" y2="68"/>
  <line style="fill:none;stroke:rgb(255,127,0);stroke-opacity:0.24705882352941178;stroke-width:2;stroke-miterlimit:10;stroke-linecap:square;" x1="283" x2="283" y1="66" y2="66"/>
  <rect height="4" style="fill:rgb(255,127,0);fill-opacity:0.7490196078431373;stroke:none;" width="4" x="310" y="295"/>
  <line style="fill:none;stroke:rgb(255,127,0);stroke-opacity:0.24705882352941178;stroke-width:2;stroke-miterlimit:10;stroke-linecap:square;" x1="283" x2="312" y1="64" y2="64"/>
  <line style="fill:none;stroke:rgb(255,127,0);stroke-opacity:0.24705882352941178;stroke-width:2;stroke-miterlimit:10;stroke-linecap:square;" x1="312" x2="312" y1="62" y2="62"/>
  <line style="fill:none;stroke:rgb(255,127,0);stroke-opacity:0.24705882352941178;stroke-width:2;stroke-miterlimit:10;stroke-linecap:square;" x1="312" x2="400" y1="60" y2="60"/>
  <line style="fill:none;stroke:rgb(255,127,0);stroke-opacity:0.4980392156862745;stroke-miterlimit:2;stroke-dasharray:2;" x1="6" x2="6" y1="300" y2="350"/>
  <line style="fill:none;stroke:rgb(255,127,0);stroke-opacity:0.4980392156862745;stroke-miterlimit:2;stroke-dasharray:2;" x1="6" x2="6" y1="300" y2="367"/>
  <line style="fill:none;stroke:rgb(255,127,0);stroke-opacity:0.4980392156862745;stroke-miterlimit:2;stroke-dasharray:2;" x1="6" x2="6" y1="300" y2="384"/>
  <line style="fill:none;stroke:rgb(255,127,0);stroke-opacity:0.4980392156862745;stroke-miterlimit:2;stroke-dasharray:2;" x1="20" x2="20" y1="300" y2="401"/>
  <line style="fill:none;stroke:rgb(255,127,0);stroke-opacity:0.4980392156862745;stroke-miterlimit:2;stroke-dasharray:2;" x1="20" x2="20" y1="300" y2="418"/>
  <line style="fill:none;stroke:rgb(255,127,0);stroke-opacity:0.4980392156862745;stroke-miterlimit:2;stroke-dasharray:2;" x1="20" x2="20" y1="300" y2="435"/>
  <line style="fill:none;stroke:rgb(255,127,0);stroke-opacity:0.4980392156862745;stroke-miterlimit:2;stroke-dasharray:2;" x1="20" x2="20" y1="300" y2="452"/>
  <line style="fill:none;stroke:rgb(255,127,0);stroke-opacity:0.4980392156862745;stroke-miterlimit:2;stroke-dasharray:2;" x1="20" x2="20" y1="300" y2="469"/>
  <line style="fill:none;stroke:rgb(255,127,0);stroke-opacity:0.4980392156862745;stroke-miterlimit:2;stroke-dasharray:2;" x1="35" x2="35" y1="300" y2="486"/>
  <line style="fill:none;stroke:rgb(255,127,0);stroke-opacity:0.4980392156862745;stroke-miterlimit:2;stroke-dasharray:2;" x1="35" x2="35" y1="300" y2="503"/>
  <line style="fill:none;stroke:rgb(255,127,0);stroke-opacity:0.4980392156862745;stroke-miterlimit:2;stroke-dasharray:2;" x1="50" x2="50" y1="300" y2="520"/>
  <line style="fill:none;stroke:rgb(255,127,0);stroke-opacity:0.4980392156862745;stroke-miterlimit:2;stroke-dasharray:2;" x1="50" x2="50" y1="300" y2="537"/>
  <line style="fill:none;stroke:rgb(255,127,0);stroke-opacity:0.4980392156862745;stroke-miterlimit:2;stroke-dasharray:2;" x1="50" x2="50" y1="300" y2="554"/>
  <line style="fill:none;stroke:rgb(255,127,0);stroke-opacity:0.4980392156862745;stroke-miterlimit:2;stroke-dasharray:2;" x1="64" x2="64" y1="300" y2="571"/>
  <line style="fill:none;stroke:rgb(255,127,0);stroke-opacity:0.4980392156862745;stroke-miterlimit:2;stroke-dasharray:2;" x1="64" x2="64" y1="300" y2="588"/>
  <line style="fill:none;stroke:rgb(255,127,0);stroke-opacity:0.4980392156862745;stroke-miterlimit:2;stroke-dasharray:2;" x1="64" x2="64" y1="300" y2="605"/>
  <line style="fill:none;stroke:rgb(255,127,0);stroke-opacity:0.4980392156862745;stroke-miterlimit:2;stroke-dasharray:2;" x1="64" x2="64" y1="300" y2="622"/>
  <line style="fill:none;stroke:rgb(255,127,0);stroke-opacity:0.4980392156862745;stroke-miterlimit:2;stroke-dasharray:2;" x1="108" x2="108" y1="300" y2="639"/>
  <line style="fill:none;stroke:rgb(255,127,0);stroke-opacity:0.4980392156862745;stroke-miterlimit:2;stroke-dasharray:2;" x1="108" x2="108" y1="300" y2="656"/>
  <line style="fill:none;stroke:rgb(255,127,0);stroke-opacity:0.4980392156862745;stroke-miterlimit:2;stroke-dasharray:2;" x1="122" x2="122" y1="300" y2="673"/>
  <line style="fill:none;stroke:rgb(255,127,0);stroke-opacity:0.4980392156862745;stroke-miterlimit:2;stroke-dasharray:2;" x1="122" x2="122" y1="300" y2="690"/>
  <line style="fill:none;stroke:rgb(255,127,0);stroke-opacity:0.4980392156862745;stroke-miterlimit:2;stroke-dasharray:2;" x1="137" x2="137" y1="300" y2="705"/>
  <line style="fill:none;stroke:rgb(255,127,0);stroke-opacity:0.4980392156862745;stroke-miterlimit:2;stroke-dasharray:2;" x1="137" x2="137" y1="300" y2="720"/>
  <line style="fill:none;stroke:rgb(255,127,0);stroke-opacity:0.4980392156862745;stroke-miterlimit:2;stroke-dasharray:2;" x1="137" x2="137" y1="300" y2="735"/>
  <line style="fill:none;stroke:rgb(255,127,0);stroke-opacity:0.4980392156862745;stroke-miterlimit:2;stroke-dasharray:2;" x1="152" x2="152" y1="300" y2="749"/>
  <line style="fill:none;stroke:rgb(255,127,0);stroke-opacity:0.4980392156862745;stroke-miterlimit:2;stroke-dasharray:2;" x1="152" x2="152" y1="300" y2="763"/>
  <line style="fill:none;stroke:rgb(255,127,0);stroke-opacity:0.4980392156862745;stroke-miterlimit:2;stroke-dasharray:2;" x1="152" x2="152" y1="300" y2="777"/>
  <line style="fill:none;stroke:rgb(255,127,0);stroke-opacity:0.4980392156862745;stroke-miterlimit:2;stroke-dasharray:2;" x1="152" x2="152" y1="300" y2="791"/>
  <line style="fill:none;stroke:rgb(255,127,0);stroke-opacity:0.4980392156862745;stroke-miterlimit:2;stroke-dasharray:2;" x1="166" x2="166" y1="300" y2="805"/>
  <line style="fill:none;stroke:rgb(255,127,0);stroke-opacity:0.4980392156862745;stroke-miterlimit:2;stroke-dasharray:2;" x1="166" x2="166" y1="300" y2="819"/>
  <line style="fill:none;stroke:rgb(255,127,0);stroke-opacity:0.4980392156862745;stroke-miterlimit:2;stroke-dasharray:2;" x1="166" x2="166" y1="300" y2="833"/>
  <line style="fill:none;stroke:rgb(255,127,0);stroke-opacity:0.4980392156862745;stroke-miterlimit:2;stroke-dasharray:2;" x1="166" x2="166" y1="300" y2="847"/>
  <line style="fill:none;stroke:rgb(255,127,0);stroke-opacity:0.4980392156862745;stroke-miterlimit:2;stroke-dasharray:2;" x1="166" x2="166" y1="300" y2="861"/>
  <line style="fill:none;stroke:rgb(255,127,0);stroke-opacity:0.4980392156862745;stroke-miterlimit:2;stroke-dasharray:2;" x1="166" x2="166" y1="300" y2="875"/>
  <line style="fill:none;stroke:rgb(255,127,0);stroke-opacity:0.4980392156862745;stroke-miterlimit:2;stroke-dasharray:2;" x1="181" x2="181" y1="300" y2="889"/>
  <line style="fill:none;stroke:rgb(255,127,0);stroke-opacity:0.4980392156862745;stroke-miterlimit:2;stroke-dasharray:2;" x1="181" x2="181" y1="300" y2="903"/>
  <line style="fill:none;stroke:rgb(255,127,0);stroke-opacity:0.4980392156862745;stroke-miterlimit:2;stroke-dasharray:2;" x1="181" x2="181" y1="300" y2="917"/>
  <line style="fill:none;stroke:rgb(255,127,0);stroke-opacity:0.4980392156862745;stroke-miterlimit:2;stroke-dasharray:2;" x1="181" x2="181" y1="300" y2="931"/>
  <line style="fill:none;stroke:rgb(255,127,0);stroke-opacity:0.4980392156862745;stroke-miterlimit:2;stroke-dasharray:2;" x1="181" x2="181" y1="300" y2="945"/>
  <line style="fill:none;stroke:rgb(255,127,0);stroke-opacity:0.4980392156862745;stroke-miterlimit:2;stroke-dasharray:2;" x1="195" x2="195" y1="300" y2="959"/>
  <line style="fill:none;stroke:rgb(255,127,0);stroke-opacity:0.4980392156862745;stroke-miterlimit:2;stroke-dasharray:2;" x1="195" x2="195" y1="300" y2="973"/>
  <line style="fill:none;stroke:rgb(255,127,0);stroke-opacity:0.4980392156862745;stroke-miterlimit:2;stroke-dasharray:2;" x1="195" x2="195" y1="300" y2="987"/>
  <line style="fill:none;stroke:rgb(255,127,0);stroke-opacity:0.4980392156862745;stroke-miterlimit:2;stroke-dasharray:2;" x1="195" x2="195" y1="300" y2="1001"/>
  <line style="fill:none;stroke:rgb(255,127,0);stroke-opacity:0.4980392156862745;stroke-miterlimit:2;stroke-dasharray:2;" x1="195" x2="195" y1="300" y2="1015"/>
  <line style="fill:none;stroke:rgb(255,127,0);stroke-opacity:0.4980392156862745;stroke-miterlimit:2;stroke-dasharray:2;" x1="210" x2="210" y1="300" y2="1029"/>
  <line style="fill:none;stroke:rgb(255,127,0);stroke-opacity:0.4980392156862745;stroke-miterlimit:2;stroke-dasharray:2;" x1="210" x2="210" y1="300" y2="1043"/>
  <line style="fill:none;stroke:rgb(255,127,0);stroke-opacity:0.4980392156862745;stroke-miterlimit:2;stroke-dasharray:2;" x1="210" x2="210" y1="300" y2="1057"/>
  <line style="fill:none;stroke:rgb(255,127,0);stroke-opacity:0.4980392156862745;stroke-miterlimit:2;stroke-dasharray:2;" x1="225" x2="225" y1="300" y2="1071"/>
  <line style="fill:none;stroke:rgb(255,127,0);stroke-opacity:0.4980392156862745;stroke-miterlimit:2;stroke-dasharray:2;" x1="225" x2="225" y1="300" y2="1085"/>
  <line style="fill:none;stroke:rgb(255,127,0);stroke-opacity:0.4980392156862745;stroke-miterlimit:2;stroke-dasharray:2;" x1="225" x2="225" y1="300" y2="1099"/>
  <line style="fill:none;stroke:rgb(255,127,0);stroke-opacity:0.4980392156862745;stroke-miterlimit:2;stroke-dasharray:2;" x1="225" x2="225" y1="300" y2="1113"/>
  <line style="fill:none;stroke:rgb(255,127,0);stroke-opacity:0.4980392156862745;stroke-miterlimit:2;stroke-dasharray:2;" x1="225" x2="225" y1="300" y2="1127"/>
  <line style="fill:none;stroke:rgb(255,127,0);stroke-opacity:0.4980392156862745;stroke-miterlimit:2;stroke-dasharray:2;" x1="239" x2="239" y1="300" y2="1139"/>
  <line style="fill:none;stroke:rgb(255,127,0);stroke-opacity:0.4980392156862745;stroke-miterlimit:2;stroke-dasharray:2;" x1="239" x2="239" y1="300" y2="1151"/>
  <line style="fill:none;stroke:rgb(255,127,0);stroke-opacity:0.4980392156862745;stroke-miterlimit:2;stroke-dasharray:2;" x1="254" x2="254" y1="300" y2="1163"/>
  <line style="fill:none;stroke:rgb(255,127,0);stroke-opacity:0.4980392156862745;stroke-miterlimit:2;stroke-dasharray:2;" x1="254" x2="254" y1="300" y2="1175"/>
  <line style="fill:none;stroke:rgb(255,127,0);stroke-opacity:0.4980392156862745;stroke-miterlimit:2;stroke-dasharray:2;" x1="268" x2="268" y1="300" y2="1187"/>
  <line style="fill:none;stroke:rgb(255,127,0);stroke-opacity:0.4980392156862745;stroke-miterlimit:2;stroke-dasharray:2;" x1="283" x2="283" y1="300" y2="1199"/>
  <line style="fill:none;stroke:rgb(255,127,0);stroke-opacity:0.4980392156862745;stroke-miterlimit:2;stroke-dasharray:2;" x1="312" x2="312" y1="300" y2="350"/>
  <line style="fill:none;stroke:rgb(0,0,0);stroke-width:2;stroke-miterlimit:10;stroke-linecap:square;" x1="48" x2="48" y1="60" y2="300"/>
  <line style="fill:none;stroke:rgb(0,0,0);stroke-width:2;stroke-miterlimit:10;stroke-linecap:square;" x1="48" x2="402" y1="300" y2="300"/>
  <rect height="30" style="fill:rgb(255,255,255);stroke:none;" width="17" x="42" y="308"/>
  <text style="fill:rgb(0,0,0);stroke:none;font-size:25px;font-weight:bold;" x="42" y="332">0</text>
  <rect height="30" style="fill:rgb(255,255,255);stroke:none;" width="34" x="383" y="308"/>
  <text style="fill:rgb(0,0,0);stroke:none;font-size:25px;font-weight:bold;" x="383" y="332">24</text>
  <text style="fill:rgb(0,0,0);stroke:none;font-size:25px;font-weight:bold;" x="25" y="312">0</text>
  <text style="fill:rgb(0,0,0);stroke:none;font-size:25px;font-weight:bold;" x="25" y="72">1</text>
  <text style="fill:rgb(0,0,0);stroke:none;font-size:17px;font-weight:bold;" x="6" y="38">CASORELLI_ACUTE_PROMYELOCYTIC_LEUKEMIA_DN</text>
  <rect height="13" style="fill:rgb(255,255,255);stroke:none;" width="27" x="6" y="337"/>
  <text style="fill:rgb(128,128,128);stroke:none;font-size:13px;" x="6" y="350">VWF</text>
  <rect height="13" style="fill:rgb(255,255,255);stroke:none;" width="50" x="6" y="354"/>
  <text style="fill:rgb(128,128,128);stroke:none;font-size:13px;" x="6" y="367">PRSS23</text>
  <rect height="13" style="fill:rgb(255,255,255);stroke:none;" width="62" x="6" y="371"/>
  <text style="fill:rgb(128,128,128);stroke:none;font-size:13px;" x="6" y="384">SERPINE2</text>
  <rect height="13" style="fill:rgb(255,255,255);stroke:none;" width="34" x="20" y="388"/>
  <text style="fill:rgb(128,128,128);stroke:none;font-size:13px;" x="20" y="401">PRG2</text>
  <rect height="13" style="fill:rgb(255,255,255);stroke:none;" width="38" x="20" y="405"/>
  <text style="fill:rgb(128,128,128);stroke:none;font-size:13px;" x="20" y="418">FANCI</text>
  <rect height="13" style="fill:rgb(255,255,255);stroke:none;" width="52" x="20" y="422"/>
  <text style="fill:rgb(128,128,128);stroke:none;font-size:13px;" x="20" y="435">RAD23B</text>
  <rect height="13" style="fill:rgb(255,255,255);stroke:none;" width="52" x="20" y="439"/>
  <text style="fill:rgb(128,128,128);stroke:none;font-size:13px;" x="20" y="452">SNRPA1</text>
  <rect height="13" style="fill:rgb(255,255,255);stroke:none;" width="51" x="20" y="456"/>
  <text style="fill:rgb(128,128,128);stroke:none;font-size:13px;" x="20" y="469">PSTPIP2</text>
  <rect height="13" style="fill:rgb(255,255,255);stroke:none;" width="43" x="35" y="473"/>
  <text style="fill:rgb(128,128,128);stroke:none;font-size:13px;" x="35" y="486">ERO1A</text>
  <rect height="13" style="fill:rgb(255,255,255);stroke:none;" width="58" x="35" y="490"/>
  <text style="fill:rgb(128,128,128);stroke:none;font-size:13px;" x="35" y="503">SLC25A4</text>
  <rect height="13" style="fill:rgb(255,255,255);stroke:none;" width="35" x="50" y="507"/>
  <text style="fill:rgb(128,128,128);stroke:none;font-size:13px;" x="50" y="520">FZD5</text>
  <rect height="13" style="fill:rgb(255,255,255);stroke:none;" width="42" x="50" y="524"/>
  <text style="fill:rgb(128,128,128);stroke:none;font-size:13px;" x="50" y="537">GTSE1</text>
  <rect height="13" style="fill:rgb(255,255,255);stroke:none;" width="37" x="50" y="541"/>
  <text style="fill:rgb(128,128,128);stroke:none;font-size:13px;" x="50" y="554">BIRC5</text>
  <rect height="13" style="fill:rgb(255,255,255);stroke:none;" width="36" x="64" y="558"/>
  <text style="fill:rgb(128,128,128);stroke:none;font-size:13px;" x="64" y="571">ENO2</text>
  <rect height="13" style="fill:rgb(255,255,255);stroke:none;" width="36" x="64" y="575"/>
  <text style="fill:rgb(128,128,128);stroke:none;font-size:13px;" x="64" y="588">LDHA</text>
  <rect height="13" style="fill:rgb(255,255,255);stroke:none;" width="31" x="64" y="592"/>
  <text style="fill:rgb(128,128,128);stroke:none;font-size:13px;" x="64" y="605">PFKP</text>
  <rect height="13" style="fill:rgb(255,255,255);stroke:none;" width="55" x="64" y="609"/>
  <text style="fill:rgb(128,128,128);stroke:none;font-size:13px;" x="64" y="622">CARMIL1</text>
  <rect height="13" style="fill:rgb(255,255,255);stroke:none;" width="32" x="108" y="626"/>
  <text style="fill:rgb(128,128,128);stroke:none;font-size:13px;" x="108" y="639">RRP1</text>
  <rect height="13" style="fill:rgb(255,255,255);stroke:none;" width="35" x="108" y="643"/>
  <text style="fill:rgb(128,128,128);stroke:none;font-size:13px;" x="108" y="656">KIF2C</text>
  <rect height="13" style="fill:rgb(255,255,255);stroke:none;" width="44" x="122" y="660"/>
  <text style="fill:rgb(128,128,128);stroke:none;font-size:13px;" x="122" y="673">AURKA</text>
  <rect height="13" style="fill:rgb(255,255,255);stroke:none;" width="51" x="122" y="677"/>
  <text style="fill:rgb(128,128,128);stroke:none;font-size:13px;" x="122" y="690">RAB33A</text>
  <rect height="12" style="fill:rgb(255,255,255);stroke:none;" width="37" x="137" y="693"/>
  <text style="fill:rgb(128,128,128);stroke:none;" x="137" y="705">HMMR</text>
  <rect height="12" style="fill:rgb(255,255,255);stroke:none;" width="31" x="137" y="708"/>
  <text style="fill:rgb(128,128,128);stroke:none;" x="137" y="720">CCT5</text>
  <rect height="12" style="fill:rgb(255,255,255);stroke:none;" width="41" x="137" y="723"/>
  <text style="fill:rgb(128,128,128);stroke:none;" x="137" y="735">CCNB1</text>
  <rect height="11" style="fill:rgb(255,255,255);stroke:none;" width="31" x="152" y="738"/>
  <text style="fill:rgb(128,128,128);stroke:none;font-size:11px;" x="152" y="749">LMO4</text>
  <rect height="11" style="fill:rgb(255,255,255);stroke:none;" width="30" x="152" y="752"/>
  <text style="fill:rgb(128,128,128);stroke:none;font-size:11px;" x="152" y="763">RRM2</text>
  <rect height="11" style="fill:rgb(255,255,255);stroke:none;" width="38" x="152" y="766"/>
  <text style="fill:rgb(128,128,128);stroke:none;font-size:11px;" x="152" y="777">WDR46</text>
  <rect height="11" style="fill:rgb(255,255,255);stroke:none;" width="55" x="152" y="780"/>
  <text style="fill:rgb(128,128,128);stroke:none;font-size:11px;" x="152" y="791">MACROD1</text>
  <rect height="11" style="fill:rgb(255,255,255);stroke:none;" width="25" x="166" y="794"/>
  <text style="fill:rgb(128,128,128);stroke:none;font-size:11px;" x="166" y="805">PPID</text>
  <rect height="11" style="fill:rgb(255,255,255);stroke:none;" width="37" x="166" y="808"/>
  <text style="fill:rgb(128,128,128);stroke:none;font-size:11px;" x="166" y="819">CTPS1</text>
  <rect height="11" style="fill:rgb(255,255,255);stroke:none;" width="36" x="166" y="822"/>
  <text style="fill:rgb(128,128,128);stroke:none;font-size:11px;" x="166" y="833">ACSL3</text>
  <rect height="11" style="fill:rgb(255,255,255);stroke:none;" width="40" x="166" y="836"/>
  <text style="fill:rgb(128,128,128);stroke:none;font-size:11px;" x="166" y="847">ARID5B</text>
  <rect height="11" style="fill:rgb(255,255,255);stroke:none;" width="49" x="166" y="850"/>
  <text style="fill:rgb(128,128,128);stroke:none;font-size:11px;" x="166" y="861">PPP1R10</text>
  <rect height="11" style="fill:rgb(255,255,255);stroke:none;" width="50" x="166" y="864"/>
  <text style="fill:rgb(128,128,128);stroke:none;font-size:11px;" x="166" y="875">PLA2G4A</text>
  <rect height="11" style="fill:rgb(255,255,255);stroke:none;" width="30" x="181" y="878"/>
  <text style="fill:rgb(128,128,128);stroke:none;font-size:11px;" x="181" y="889">EDC3</text>
  <rect height="11" style="fill:rgb(255,255,255);stroke:none;" width="37" x="181" y="892"/>
  <text style="fill:rgb(128,128,128);stroke:none;font-size:11px;" x="181" y="903">THG1L</text>
  <rect height="11" style="fill:rgb(255,255,255);stroke:none;" width="38" x="181" y="906"/>
  <text style="fill:rgb(128,128,128);stroke:none;font-size:11px;" x="181" y="917">HSPD1</text>
  <rect height="11" style="fill:rgb(255,255,255);stroke:none;" width="51" x="181" y="920"/>
  <text style="fill:rgb(128,128,128);stroke:none;font-size:11px;" x="181" y="931">FAM124B</text>
  <rect height="11" style="fill:rgb(255,255,255);stroke:none;" width="38" x="181" y="934"/>
  <text style="fill:rgb(128,128,128);stroke:none;font-size:11px;" x="181" y="945">FILIP1L</text>
  <rect height="11" style="fill:rgb(255,255,255);stroke:none;" width="24" x="195" y="948"/>
  <text style="fill:rgb(128,128,128);stroke:none;font-size:11px;" x="195" y="959">JPT2</text>
  <rect height="11" style="fill:rgb(255,255,255);stroke:none;" width="27" x="195" y="962"/>
  <text style="fill:rgb(128,128,128);stroke:none;font-size:11px;" x="195" y="973">LDLR</text>
  <rect height="11" style="fill:rgb(255,255,255);stroke:none;" width="41" x="195" y="976"/>
  <text style="fill:rgb(128,128,128);stroke:none;font-size:11px;" x="195" y="987">HMGCR</text>
  <rect height="11" style="fill:rgb(255,255,255);stroke:none;" width="44" x="195" y="990"/>
  <text style="fill:rgb(128,128,128);stroke:none;font-size:11px;" x="195" y="1001">RECQL5</text>
  <rect height="11" style="fill:rgb(255,255,255);stroke:none;" width="49" x="195" y="1004"/>
  <text style="fill:rgb(128,128,128);stroke:none;font-size:11px;" x="195" y="1015">PSMC3IP</text>
  <rect height="11" style="fill:rgb(255,255,255);stroke:none;" width="30" x="210" y="1018"/>
  <text style="fill:rgb(128,128,128);stroke:none;font-size:11px;" x="210" y="1029">QPRT</text>
  <rect height="11" style="fill:rgb(255,255,255);stroke:none;" width="37" x="210" y="1032"/>
  <text style="fill:rgb(128,128,128);stroke:none;font-size:11px;" x="210" y="1043">TEDC2</text>
  <rect height="11" style="fill:rgb(255,255,255);stroke:none;" width="55" x="210" y="1046"/>
  <text style="fill:rgb(128,128,128);stroke:none;font-size:11px;" x="210" y="1057">TIMELESS</text>
  <rect height="11" style="fill:rgb(255,255,255);stroke:none;" width="37" x="225" y="1060"/>
  <text style="fill:rgb(128,128,128);stroke:none;font-size:11px;" x="225" y="1071">BRCA1</text>
  <rect height="11" style="fill:rgb(255,255,255);stroke:none;" width="35" x="225" y="1074"/>
  <text style="fill:rgb(128,128,128);stroke:none;font-size:11px;" x="225" y="1085">GINS2</text>
  <rect height="11" style="fill:rgb(255,255,255);stroke:none;" width="45" x="225" y="1088"/>
  <text style="fill:rgb(128,128,128);stroke:none;font-size:11px;" x="225" y="1099">DHCR24</text>
  <rect height="11" style="fill:rgb(255,255,255);stroke:none;" width="53" x="225" y="1102"/>
  <text style="fill:rgb(128,128,128);stroke:none;font-size:11px;" x="225" y="1113">HNRNPH3</text>
  <rect height="11" style="fill:rgb(255,255,255);stroke:none;" width="50" x="225" y="1116"/>
  <text style="fill:rgb(128,128,128);stroke:none;font-size:11px;" x="225" y="1127">FAM111A</text>
  <rect height="9" style="fill:rgb(255,255,255);stroke:none;" width="34" x="239" y="1130"/>
  <text style="fill:rgb(128,128,128);stroke:none;font-size:9px;" x="239" y="1139">SOCS2</text>
  <rect height="9" style="fill:rgb(255,255,255);stroke:none;" width="50" x="239" y="1142"/>
  <text style="fill:rgb(128,128,128);stroke:none;font-size:9px;" x="239" y="1151">HSP90AA1</text>
  <rect height="9" style="fill:rgb(255,255,255);stroke:none;" width="28" x="254" y="1154"/>
  <text style="fill:rgb(128,128,128);stroke:none;font-size:9px;" x="254" y="1163">TIMP3</text>
  <rect height="9" style="fill:rgb(255,255,255);stroke:none;" width="42" x="254" y="1166"/>
  <text style="fill:rgb(128,128,128);stroke:none;font-size:9px;" x="254" y="1175">CYP51A1</text>
  <rect height="9" style="fill:rgb(255,255,255);stroke:none;" width="35" x="268" y="1178"/>
  <text style="fill:rgb(128,128,128);stroke:none;font-size:9px;" x="268" y="1187">ELOVL6</text>
  <rect height="9" style="fill:rgb(255,255,255);stroke:none;" width="26" x="283" y="1190"/>
  <text style="fill:rgb(128,128,128);stroke:none;font-size:9px;" x="283" y="1199">NEFH</text>
  <rect height="9" style="fill:rgb(255,255,255);stroke:none;" width="38" x="312" y="341"/>
  <text style="fill:rgb(128,128,128);stroke:none;font-size:9px;" x="312" y="350">HDGFL3</text>
</svg>
