<?xml version="1.0" encoding="UTF-8" standalone="no"?>
<!DOCTYPE svg PUBLIC "-//W3C//DTD SVG 1.1//EN" "http://www.w3.org/Graphics/SVG/1.1/DTD/svg11.dtd">
<svg xmlns:xlink="http://www.w3.org/1999/xlink" height="158.74999999999997mm" version="1.1" viewBox="0 0 500 600" width="132.29166666666666mm" x="0mm" y="0mm" xmlns="http://www.w3.org/2000/svg">
  <rect height="1200" style="fill:rgb(255,255,255);stroke:none;" width="1000" x="0" y="0"/>
  <rect height="240" style="fill:rgb(191,191,191);fill-opacity:0.4980392156862745;stroke:none;" width="175" x="225" y="60"/>
  <line style="fill:none;stroke:rgb(63,63,191);stroke-opacity:0.24705882352941178;stroke-miterlimit:10;stroke-linecap:square;" x1="50" x2="50" y1="300" y2="300"/>
  <line style="fill:none;stroke:rgb(63,63,191);stroke-opacity:0.24705882352941178;stroke-miterlimit:10;stroke-linecap:square;" x1="50" x2="64" y1="300" y2="290"/>
  <line style="fill:none;stroke:rgb(63,63,191);stroke-opacity:0.24705882352941178;stroke-miterlimit:10;stroke-linecap:square;" x1="64" x2="79" y1="290" y2="280"/>
  <line style="fill:none;stroke:rgb(63,63,191);stroke-opacity:0.24705882352941178;stroke-miterlimit:10;stroke-linecap:square;" x1="79" x2="93" y1="280" y2="270"/>
  <line style="fill:none;stroke:rgb(63,63,191);stroke-opacity:0.24705882352941178;stroke-miterlimit:10;stroke-linecap:square;" x1="93" x2="108" y1="270" y2="260"/>
  <line style="fill:none;stroke:rgb(63,63,191);stroke-opacity:0.24705882352941178;stroke-miterlimit:10;stroke-linecap:square;" x1="108" x2="122" y1="260" y2="250"/>
  <line style="fill:none;stroke:rgb(63,63,191);stroke-opacity:0.24705882352941178;stroke-miterlimit:10;stroke-linecap:square;" x1="122" x2="137" y1="250" y2="240"/>
  <line style="fill:none;stroke:rgb(63,63,191);stroke-opacity:0.24705882352941178;stroke-miterlimit:10;stroke-linecap:square;" x1="137" x2="152" y1="240" y2="230"/>
  <line style="fill:none;stroke:rgb(63,63,191);stroke-opacity:0.24705882352941178;stroke-miterlimit:10;stroke-linecap:square;" x1="152" x2="166" y1="230" y2="220"/>
  <line style="fill:none;stroke:rgb(63,63,191);stroke-opacity:0.24705882352941178;stroke-miterlimit:10;stroke-linecap:square;" x1="166" x2="181" y1="220" y2="210"/>
  <line style="fill:none;stroke:rgb(63,63,191);stroke-opacity:0.24705882352941178;stroke-miterlimit:10;stroke-linecap:square;" x1="181" x2="195" y1="210" y2="200"/>
  <line style="fill:none;stroke:rgb(63,63,191);stroke-opacity:0.24705882352941178;stroke-miterlimit:10;stroke-linecap:square;" x1="195" x2="210" y1="200" y2="190"/>
  <line style="fill:none;stroke:rgb(63,63,191);stroke-opacity:0.24705882352941178;stroke-miterlimit:10;stroke-linecap:square;" x1="210" x2="225" y1="190" y2="180"/>
  <line style="fill:none;stroke:rgb(63,63,191);stroke-opacity:0.24705882352941178;stroke-miterlimit:10;stroke-linecap:square;" x1="225" x2="239" y1="180" y2="170"/>
  <line style="fill:none;stroke:rgb(63,63,191);stroke-opacity:0.24705882352941178;stroke-miterlimit:10;stroke-linecap:square;" x1="239" x2="254" y1="170" y2="160"/>
  <line style="fill:none;stroke:rgb(63,63,191);stroke-opacity:0.24705882352941178;stroke-miterlimit:10;stroke-linecap:square;" x1="254" x2="268" y1="160" y2="150"/>
  <line style="fill:none;stroke:rgb(63,63,191);stroke-opacity:0.24705882352941178;stroke-miterlimit:10;stroke-linecap:square;" x1="268" x2="283" y1="150" y2="140"/>
  <line style="fill:none;stroke:rgb(63,63,191);stroke-opacity:0.24705882352941178;stroke-miterlimit:10;stroke-linecap:square;" x1="283" x2="297" y1="140" y2="130"/>
  <line style="fill:none;stroke:rgb(63,63,191);stroke-opacity:0.24705882352941178;stroke-miterlimit:10;stroke-linecap:square;" x1="297" x2="312" y1="130" y2="120"/>
  <line style="fill:none;stroke:rgb(63,63,191);stroke-opacity:0.24705882352941178;stroke-miterlimit:10;stroke-linecap:square;" x1="312" x2="327" y1="120" y2="110"/>
  <line style="fill:none;stroke:rgb(63,63,191);stroke-opacity:0.24705882352941178;stroke-miterlimit:10;stroke-linecap:square;" x1="327" x2="341" y1="110" y2="100"/>
  <line style="fill:none;stroke:rgb(63,63,191);stroke-opacity:0.24705882352941178;stroke-miterlimit:10;stroke-linecap:square;" x1="341" x2="356" y1="100" y2="90"/>
  <line style="fill:none;stroke:rgb(63,63,191);stroke-opacity:0.24705882352941178;stroke-miterlimit:10;stroke-linecap:square;" x1="356" x2="370" y1="90" y2="80"/>
  <line style="fill:none;stroke:rgb(63,63,191);stroke-opacity:0.24705882352941178;stroke-miterlimit:10;stroke-linecap:square;" x1="370" x2="385" y1="80" y2="70"/>
  <line style="fill:none;stroke:rgb(63,63,191);stroke-opacity:0.24705882352941178;stroke-miterlimit:10;stroke-linecap:square;" x1="385" x2="400" y1="70" y2="60"/>
  <line style="fill:none;stroke:rgb(63,63,191);stroke-opacity:0.24705882352941178;stroke-miterlimit:10;stroke-linecap:square;" x1="400" x2="400" y1="60" y2="60"/>
  <rect height="15" style="fill:rgb(255,127,0);fill-opacity:0.7490196078431373;stroke:none;" width="4" x="62" y="284"/>
  <line style="fill:none;stroke:rgb(255,127,0);stroke-opacity:0.24705882352941178;stroke-width:2;stroke-miterlimit:10;stroke-linecap:square;" x1="50" x2="64" y1="300" y2="300"/>
  <line style="fill:none;stroke:rgb(255,127,0);stroke-opacity:0.24705882352941178;stroke-width:2;stroke-miterlimit:10;stroke-linecap:square;" x1="64" x2="64" y1="298" y2="286"/>
  <rect height="15" style="fill:rgb(255,127,0);fill-opacity:0.7490196078431373;stroke:none;" width="4" x="77" y="284"/>
  <line style="fill:none;stroke:rgb(255,127,0);stroke-opacity:0.24705882352941178;stroke-width:2;stroke-miterlimit:10;stroke-linecap:square;" x1="64" x2="79" y1="284" y2="284"/>
  <line style="fill:none;stroke:rgb(255,127,0);stroke-opacity:0.24705882352941178;stroke-width:2;stroke-miterlimit:10;stroke-linecap:square;" x1="79" x2="79" y1="282" y2="270"/>
  <rect height="10" style="fill:rgb(255,127,0);fill-opacity:0.7490196078431373;stroke:none;" width="4" x="91" y="289"/>
  <line style="fill:none;stroke:rgb(255,127,0);stroke-opacity:0.24705882352941178;stroke-width:2;stroke-miterlimit:10;stroke-linecap:square;" x1="79" x2="93" y1="268" y2="268"/>
  <line style="fill:none;stroke:rgb(255,127,0);stroke-opacity:0.24705882352941178;stroke-width:2;stroke-miterlimit:10;stroke-linecap:square;" x1="93" x2="93" y1="266" y2="260"/>
  <rect height="15" style="fill:rgb(255,127,0);fill-opacity:0.7490196078431373;stroke:none;" width="4" x="106" y="284"/>
  <line style="fill:none;stroke:rgb(255,127,0);stroke-opacity:0.24705882352941178;stroke-width:2;stroke-miterlimit:10;stroke-linecap:square;" x1="93" x2="108" y1="258" y2="258"/>
  <line style="fill:none;stroke:rgb(255,127,0);stroke-opacity:0.24705882352941178;stroke-width:2;stroke-miterlimit:10;stroke-linecap:square;" x1="108" x2="108" y1="256" y2="244"/>
  <rect height="5" style="fill:rgb(255,127,0);fill-opacity:0.7490196078431373;stroke:none;" width="4" x="120" y="294"/>
  <line style="fill:none;stroke:rgb(255,127,0);stroke-opacity:0.24705882352941178;stroke-width:2;stroke-miterlimit:10;stroke-linecap:square;" x1="108" x2="122" y1="242" y2="242"/>
  <line style="fill:none;stroke:rgb(255,127,0);stroke-opacity:0.24705882352941178;stroke-width:2;stroke-miterlimit:10;stroke-linecap:square;" x1="122" x2="122" y1="240" y2="239"/>
  <rect height="10" style="fill:rgb(255,127,0);fill-opacity:0.7490196078431373;stroke:none;" width="4" x="135" y="289"/>
  <line style="fill:none;stroke:rgb(255,127,0);stroke-opacity:0.24705882352941178;stroke-width:2;stroke-miterlimit:10;stroke-linecap:square;" x1="122" x2="137" y1="237" y2="237"/>
  <line style="fill:none;stroke:rgb(255,127,0);stroke-opacity:0.24705882352941178;stroke-width:2;stroke-miterlimit:10;stroke-linecap:square;" x1="137" x2="137" y1="235" y2="228"/>
  <rect height="5" style="fill:rgb(255,127,0);fill-opacity:0.7490196078431373;stroke:none;" width="4" x="179" y="294"/>
  <line style="fill:none;stroke:rgb(255,127,0);stroke-opacity:0.24705882352941178;stroke-width:2;stroke-miterlimit:10;stroke-linecap:square;" x1="137" x2="181" y1="226" y2="226"/>
  <line style="fill:none;stroke:rgb(255,127,0);stroke-opacity:0.24705882352941178;stroke-width:2;stroke-miterlimit:10;stroke-linecap:square;" x1="181" x2="181" y1="224" y2="223"/>
  <rect height="15" style="fill:rgb(255,127,0);fill-opacity:0.7490196078431373;stroke:none;" width="4" x="193" y="284"/>
  <line style="fill:none;stroke:rgb(255,127,0);stroke-opacity:0.24705882352941178;stroke-width:2;stroke-miterlimit:10;stroke-linecap:square;" x1="181" x2="195" y1="221" y2="221"/>
  <line style="fill:none;stroke:rgb(255,127,0);stroke-opacity:0.24705882352941178;stroke-width:2;stroke-miterlimit:10;stroke-linecap:square;" x1="195" x2="195" y1="219" y2="208"/>
  <rect height="5" style="fill:rgb(255,127,0);fill-opacity:0.7490196078431373;stroke:none;" width="4" x="208" y="294"/>
  <line style="fill:none;stroke:rgb(255,127,0);stroke-opacity:0.24705882352941178;stroke-width:2;stroke-miterlimit:10;stroke-linecap:square;" x1="195" x2="210" y1="206" y2="206"/>
  <line style="fill:none;stroke:rgb(255,127,0);stroke-opacity:0.24705882352941178;stroke-width:2;stroke-miterlimit:10;stroke-linecap:square;" x1="210" x2="210" y1="204" y2="202"/>
  <rect height="26" style="fill:rgb(255,127,0);fill-opacity:0.7490196078431373;stroke:none;" width="4" x="223" y="273"/>
  <line style="fill:none;stroke:rgb(255,127,0);stroke-opacity:0.24705882352941178;stroke-width:2;stroke-miterlimit:10;stroke-linecap:square;" x1="210" x2="225" y1="200" y2="200"/>
  <line style="fill:none;stroke:rgb(255,127,0);stroke-opacity:0.24705882352941178;stroke-width:2;stroke-miterlimit:10;stroke-linecap:square;" x1="225" x2="225" y1="198" y2="176"/>
  <rect height="20" style="fill:rgb(255,127,0);fill-opacity:0.7490196078431373;stroke:none;" width="4" x="237" y="279"/>
  <line style="fill:none;stroke:rgb(255,127,0);stroke-opacity:0.24705882352941178;stroke-width:2;stroke-miterlimit:10;stroke-linecap:square;" x1="225" x2="239" y1="174" y2="174"/>
  <line style="fill:none;stroke:rgb(255,127,0);stroke-opacity:0.24705882352941178;stroke-width:2;stroke-miterlimit:10;stroke-linecap:square;" x1="239" x2="239" y1="172" y2="155"/>
  <rect height="46" style="fill:rgb(255,127,0);fill-opacity:0.7490196078431373;stroke:none;" width="4" x="252" y="253"/>
  <line style="fill:none;stroke:rgb(255,127,0);stroke-opacity:0.24705882352941178;stroke-width:2;stroke-miterlimit:10;stroke-linecap:square;" x1="239" x2="254" y1="153" y2="153"/>
  <line style="fill:none;stroke:rgb(255,127,0);stroke-opacity:0.24705882352941178;stroke-width:2;stroke-miterlimit:10;stroke-linecap:square;" x1="254" x2="254" y1="151" y2="108"/>
  <rect height="20" style="fill:rgb(255,127,0);fill-opacity:0.7490196078431373;stroke:none;" width="4" x="266" y="279"/>
  <line style="fill:none;stroke:rgb(255,127,0);stroke-opacity:0.24705882352941178;stroke-width:2;stroke-miterlimit:10;stroke-linecap:square;" x1="254" x2="268" y1="106" y2="106"/>
  <line style="fill:none;stroke:rgb(255,127,0);stroke-opacity:0.24705882352941178;stroke-width:2;stroke-miterlimit:10;stroke-linecap:square;" x1="268" x2="268" y1="104" y2="88"/>
  <rect height="5" style="fill:rgb(255,127,0);fill-opacity:0.7490196078431373;stroke:none;" width="4" x="281" y="294"/>
  <line style="fill:none;stroke:rgb(255,127,0);stroke-opacity:0.24705882352941178;stroke-width:2;stroke-miterlimit:10;stroke-linecap:square;" x1="268" x2="283" y1="86" y2="86"/>
  <line style="fill:none;stroke:rgb(255,127,0);stroke-opacity:0.24705882352941178;stroke-width:2;stroke-miterlimit:10;stroke-linecap:square;" x1="283" x2="283" y1="84" y2="82"/>
  <rect height="5" style="fill:rgb(255,127,0);fill-opacity:0.7490196078431373;stroke:none;" width="4" x="354" y="294"/>
  <line style="fill:none;stroke:rgb(255,127,0);stroke-opacity:0.24705882352941178;stroke-width:2;stroke-miterlimit:10;stroke-linecap:square;" x1="283" x2="356" y1="80" y2="80"/>
  <line style="fill:none;stroke:rgb(255,127,0);stroke-opacity:0.24705882352941178;stroke-width:2;stroke-miterlimit:10;stroke-linecap:square;" x1="356" x2="356" y1="78" y2="77"/>
  <rect height="15" style="fill:rgb(255,127,0);fill-opacity:0.7490196078431373;stroke:none;" width="4" x="368" y="284"/>
  <line style="fill:none;stroke:rgb(255,127,0);stroke-opacity:0.24705882352941178;stroke-width:2;stroke-miterlimit:10;stroke-linecap:square;" x1="356" x2="370" y1="75" y2="75"/>
  <line style="fill:none;stroke:rgb(255,127,0);stroke-opacity:0.24705882352941178;stroke-width:2;stroke-miterlimit:10;stroke-linecap:square;" x1="370" x2="370" y1="73" y2="62"/>
  <line style="fill:none;stroke:rgb(255,127,0);stroke-opacity:0.24705882352941178;stroke-width:2;stroke-miterlimit:10;stroke-linecap:square;" x1="370" x2="400" y1="60" y2="60"/>
  <line style="fill:none;stroke:rgb(255,127,0);stroke-opacity:0.4980392156862745;stroke-miterlimit:2;stroke-dasharray:2;" x1="64" x2="64" y1="300" y2="350"/>
  <line style="fill:none;stroke:rgb(255,127,0);stroke-opacity:0.4980392156862745;stroke-miterlimit:2;stroke-dasharray:2;" x1="64" x2="64" y1="300" y2="363"/>
  <line style="fill:none;stroke:rgb(255,127,0);stroke-opacity:0.4980392156862745;stroke-miterlimit:2;stroke-dasharray:2;" x1="64" x2="64" y1="300" y2="376"/>
  <line style="fill:none;stroke:rgb(255,127,0);stroke-opacity:0.4980392156862745;stroke-miterlimit:2;stroke-dasharray:2;" x1="79" x2="79" y1="300" y2="389"/>
  <line style="fill:none;stroke:rgb(255,127,0);stroke-opacity:0.4980392156862745;stroke-miterlimit:2;stroke-dasharray:2;" x1="79" x2="79" y1="300" y2="402"/>
  <line style="fill:none;stroke:rgb(255,127,0);stroke-opacity:0.4980392156862745;stroke-miterlimit:2;stroke-dasharray:2;" x1="79" x2="79" y1="300" y2="415"/>
  <line style="fill:none;stroke:rgb(255,127,0);stroke-opacity:0.4980392156862745;stroke-miterlimit:2;stroke-dasharray:2;" x1="93" x2="93" y1="300" y2="428"/>
  <line style="fill:none;stroke:rgb(255,127,0);stroke-opacity:0.4980392156862745;stroke-miterlimit:2;stroke-dasharray:2;" x1="93" x2="93" y1="300" y2="441"/>
  <line style="fill:none;stroke:rgb(255,127,0);stroke-opacity:0.4980392156862745;stroke-miterlimit:2;stroke-dasharray:2;" x1="108" x2="108" y1="300" y2="454"/>
  <line style="fill:none;stroke:rgb(255,127,0);stroke-opacity:0.4980392156862745;stroke-miterlimit:2;stroke-dasharray:2;" x1="108" x2="108" y1="300" y2="467"/>
  <line style="fill:none;stroke:rgb(255,127,0);stroke-opacity:0.4980392156862745;stroke-miterlimit:2;stroke-dasharray:2;" x1="108" x2="108" y1="300" y2="480"/>
  <line style="fill:none;stroke:rgb(255,127,0);stroke-opacity:0.4980392156862745;stroke-miterlimit:2;stroke-dasharray:2;" x1="122" x2="122" y1="300" y2="493"/>
  <line style="fill:none;stroke:rgb(255,127,0);stroke-opacity:0.4980392156862745;stroke-miterlimit:2;stroke-dasharray:2;" x1="137" x2="137" y1="300" y2="506"/>
  <line style="fill:none;stroke:rgb(255,127,0);stroke-opacity:0.4980392156862745;stroke-miterlimit:2;stroke-dasharray:2;" x1="137" x2="137" y1="300" y2="519"/>
  <line style="fill:none;stroke:rgb(255,127,0);stroke-opacity:0.4980392156862745;stroke-miterlimit:2;stroke-dasharray:2;" x1="181" x2="181" y1="300" y2="350"/>
  <line style="fill:none;stroke:rgb(255,127,0);stroke-opacity:0.4980392156862745;stroke-miterlimit:2;stroke-dasharray:2;" x1="195" x2="195" y1="300" y2="364"/>
  <line style="fill:none;stroke:rgb(255,127,0);stroke-opacity:0.4980392156862745;stroke-miterlimit:2;stroke-dasharray:2;" x1="195" x2="195" y1="300" y2="378"/>
  <line style="fill:none;stroke:rgb(255,127,0);stroke-opacity:0.4980392156862745;stroke-miterlimit:2;stroke-dasharray:2;" x1="195" x2="195" y1="300" y2="392"/>
  <line style="fill:none;stroke:rgb(255,127,0);stroke-opacity:0.4980392156862745;stroke-miterlimit:2;stroke-dasharray:2;" x1="210" x2="210" y1="300" y2="406"/>
  <line style="fill:none;stroke:rgb(255,127,0);stroke-opacity:0.4980392156862745;stroke-miterlimit:2;stroke-dasharray:2;" x1="225" x2="225" y1="300" y2="423"/>
  <line style="fill:none;stroke:rgb(255,127,0);stroke-opacity:0.4980392156862745;stroke-miterlimit:2;stroke-dasharray:2;" x1="225" x2="225" y1="300" y2="440"/>
  <line style="fill:none;stroke:rgb(255,127,0);stroke-opacity:0.4980392156862745;stroke-miterlimit:2;stroke-dasharray:2;" x1="225" x2="225" y1="300" y2="457"/>
  <line style="fill:none;stroke:rgb(255,127,0);stroke-opacity:0.4980392156862745;stroke-miterlimit:2;stroke-dasharray:2;" x1="225" x2="225" y1="300" y2="474"/>
  <line style="fill:none;stroke:rgb(255,127,0);stroke-opacity:0.4980392156862745;stroke-miterlimit:2;stroke-dasharray:2;" x1="225" x2="225" y1="300" y2="491"/>
  <line style="fill:none;stroke:rgb(255,127,0);stroke-opacity:0.4980392156862745;stroke-miterlimit:2;stroke-dasharray:2;" x1="239" x2="239" y1="300" y2="508"/>
  <line style="fill:none;stroke:rgb(255,127,0);stroke-opacity:0.4980392156862745;stroke-miterlimit:2;stroke-dasharray:2;" x1="239" x2="239" y1="300" y2="525"/>
  <line style="fill:none;stroke:rgb(255,127,0);stroke-opacity:0.4980392156862745;stroke-miterlimit:2;stroke-dasharray:2;" x1="239" x2="239" y1="300" y2="542"/>
  <line style="fill:none;stroke:rgb(255,127,0);stroke-opacity:0.4980392156862745;stroke-miterlimit:2;stroke-dasharray:2;" x1="239" x2="239" y1="300" y2="559"/>
  <line style="fill:none;stroke:rgb(255,127,0);stroke-opacity:0.4980392156862745;stroke-miterlimit:2;stroke-dasharray:2;" x1="254" x2="254" y1="300" y2="576"/>
  <line style="fill:none;stroke:rgb(255,127,0);stroke-opacity:0.4980392156862745;stroke-miterlimit:2;stroke-dasharray:2;" x1="254" x2="254" y1="300" y2="593"/>
  <line style="fill:none;stroke:rgb(255,127,0);stroke-opacity:0.4980392156862745;stroke-miterlimit:2;stroke-dasharray:2;" x1="254" x2="254" y1="300" y2="610"/>
  <line style="fill:none;stroke:rgb(255,127,0);stroke-opacity:0.4980392156862745;stroke-miterlimit:2;stroke-dasharray:2;" x1="254" x2="254" y1="300" y2="627"/>
  <line style="fill:none;stroke:rgb(255,127,0);stroke-opacity:0.4980392156862745;stroke-miterlimit:2;stroke-dasharray:2;" x1="254" x2="254" y1="300" y2="644"/>
  <line style="fill:none;stroke:rgb(255,127,0);stroke-opacity:0.4980392156862745;stroke-miterlimit:2;stroke-dasharray:2;" x1="254" x2="254" y1="300" y2="661"/>
  <line style="fill:none;stroke:rgb(255,127,0);stroke-opacity:0.4980392156862745;stroke-miterlimit:2;stroke-dasharray:2;" x1="254" x2="254" y1="300" y2="678"/>
  <line style="fill:none;stroke:rgb(255,127,0);stroke-opacity:0.4980392156862745;stroke-miterlimit:2;stroke-dasharray:2;" x1="254" x2="254" y1="300" y2="695"/>
  <line style="fill:none;stroke:rgb(255,127,0);stroke-opacity:0.4980392156862745;stroke-miterlimit:2;stroke-dasharray:2;" x1="254" x2="254" y1="300" y2="712"/>
  <line style="fill:none;stroke:rgb(255,127,0);stroke-opacity:0.4980392156862745;stroke-miterlimit:2;stroke-dasharray:2;" x1="268" x2="268" y1="300" y2="729"/>
  <line style="fill:none;stroke:rgb(255,127,0);stroke-opacity:0.4980392156862745;stroke-miterlimit:2;stroke-dasharray:2;" x1="268" x2="268" y1="300" y2="746"/>
  <line style="fill:none;stroke:rgb(255,127,0);stroke-opacity:0.4980392156862745;stroke-miterlimit:2;stroke-dasharray:2;" x1="268" x2="268" y1="300" y2="763"/>
  <line style="fill:none;stroke:rgb(255,127,0);stroke-opacity:0.4980392156862745;stroke-miterlimit:2;stroke-dasharray:2;" x1="268" x2="268" y1="300" y2="780"/>
  <line style="fill:none;stroke:rgb(255,127,0);stroke-opacity:0.4980392156862745;stroke-miterlimit:2;stroke-dasharray:2;" x1="283" x2="283" y1="300" y2="793"/>
  <line style="fill:none;stroke:rgb(255,127,0);stroke-opacity:0.4980392156862745;stroke-miterlimit:2;stroke-dasharray:2;" x1="356" x2="356" y1="300" y2="350"/>
  <line style="fill:none;stroke:rgb(255,127,0);stroke-opacity:0.4980392156862745;stroke-miterlimit:2;stroke-dasharray:2;" x1="370" x2="370" y1="300" y2="363"/>
  <line style="fill:none;stroke:rgb(255,127,0);stroke-opacity:0.4980392156862745;stroke-miterlimit:2;stroke-dasharray:2;" x1="370" x2="370" y1="300" y2="376"/>
  <line style="fill:none;stroke:rgb(255,127,0);stroke-opacity:0.4980392156862745;stroke-miterlimit:2;stroke-dasharray:2;" x1="370" x2="370" y1="300" y2="389"/>
  <line style="fill:none;stroke:rgb(0,0,0);stroke-width:2;stroke-miterlimit:10;stroke-linecap:square;" x1="48" x2="48" y1="60" y2="300"/>
  <line style="fill:none;stroke:rgb(0,0,0);stroke-width:2;stroke-miterlimit:10;stroke-linecap:square;" x1="48" x2="402" y1="300" y2="300"/>
  <rect height="30" style="fill:rgb(255,255,255);stroke:none;" width="17" x="42" y="308"/>
  <text style="fill:rgb(0,0,0);stroke:none;font-size:25px;font-weight:bold;" x="42" y="332">0</text>
  <rect height="30" style="fill:rgb(255,255,255);stroke:none;" width="34" x="383" y="308"/>
  <text style="fill:rgb(0,0,0);stroke:none;font-size:25px;font-weight:bold;" x="383" y="332">24</text>
  <text style="fill:rgb(0,0,0);stroke:none;font-size:25px;font-weight:bold;" x="25" y="312">0</text>
  <text style="fill:rgb(0,0,0);stroke:none;font-size:25px;font-weight:bold;" x="25" y="72">1</text>
  <text style="fill:rgb(0,0,0);stroke:none;font-size:25px;font-weight:bold;" x="6" y="42">CHICAS_RB1_TARGETS_SENESCENT</text>
  <rect height="10" style="fill:rgb(255,255,255);stroke:none;" width="28" x="64" y="340"/>
  <text style="fill:rgb(128,128,128);stroke:none;font-size:10px;" x="64" y="350">NAV1</text>
  <rect height="10" style="fill:rgb(255,255,255);stroke:none;" width="32" x="64" y="353"/>
  <text style="fill:rgb(128,128,128);stroke:none;font-size:10px;" x="64" y="363">SF3B1</text>
  <rect height="10" style="fill:rgb(255,255,255);stroke:none;" width="38" x="64" y="366"/>
  <text style="fill:rgb(128,128,128);stroke:none;font-size:10px;" x="64" y="376">DIRAS3</text>
  <rect height="10" style="fill:rgb(255,255,255);stroke:none;" width="21" x="79" y="379"/>
  <text style="fill:rgb(128,128,128);stroke:none;font-size:10px;" x="79" y="389">MTR</text>
  <rect height="10" style="fill:rgb(255,255,255);stroke:none;" width="25" x="79" y="392"/>
  <text style="fill:rgb(128,128,128);stroke:none;font-size:10px;" x="79" y="402">ING2</text>
  <rect height="10" style="fill:rgb(255,255,255);stroke:none;" width="32" x="79" y="405"/>
  <text style="fill:rgb(128,128,128);stroke:none;font-size:10px;" x="79" y="415">GFPT2</text>
  <rect height="10" style="fill:rgb(255,255,255);stroke:none;" width="30" x="93" y="418"/>
  <text style="fill:rgb(128,128,128);stroke:none;font-size:10px;" x="93" y="428">DDIT4</text>
  <rect height="10" style="fill:rgb(255,255,255);stroke:none;" width="41" x="93" y="431"/>
  <text style="fill:rgb(128,128,128);stroke:none;font-size:10px;" x="93" y="441">DPYSL3</text>
  <rect height="10" style="fill:rgb(255,255,255);stroke:none;" width="24" x="108" y="444"/>
  <text style="fill:rgb(128,128,128);stroke:none;font-size:10px;" x="108" y="454">GJB2</text>
  <rect height="10" style="fill:rgb(255,255,255);stroke:none;" width="33" x="108" y="457"/>
  <text style="fill:rgb(128,128,128);stroke:none;font-size:10px;" x="108" y="467">LUZP1</text>
  <rect height="10" style="fill:rgb(255,255,255);stroke:none;" width="35" x="108" y="470"/>
  <text style="fill:rgb(128,128,128);stroke:none;font-size:10px;" x="108" y="480">VEGFA</text>
  <rect height="10" style="fill:rgb(255,255,255);stroke:none;" width="29" x="122" y="483"/>
  <text style="fill:rgb(128,128,128);stroke:none;font-size:10px;" x="122" y="493">ENO2</text>
  <rect height="10" style="fill:rgb(255,255,255);stroke:none;" width="25" x="137" y="496"/>
  <text style="fill:rgb(128,128,128);stroke:none;font-size:10px;" x="137" y="506">IDH2</text>
  <rect height="10" style="fill:rgb(255,255,255);stroke:none;" width="31" x="137" y="509"/>
  <text style="fill:rgb(128,128,128);stroke:none;font-size:10px;" x="137" y="519">CRIP1</text>
  <rect height="10" style="fill:rgb(255,255,255);stroke:none;" width="28" x="181" y="340"/>
  <text style="fill:rgb(128,128,128);stroke:none;font-size:10px;" x="181" y="350">CBR3</text>
  <rect height="11" style="fill:rgb(255,255,255);stroke:none;" width="36" x="195" y="353"/>
  <text style="fill:rgb(128,128,128);stroke:none;font-size:11px;" x="195" y="364">CEP19</text>
  <rect height="11" style="fill:rgb(255,255,255);stroke:none;" width="39" x="195" y="367"/>
  <text style="fill:rgb(128,128,128);stroke:none;font-size:11px;" x="195" y="378">TUBG1</text>
  <rect height="11" style="fill:rgb(255,255,255);stroke:none;" width="47" x="195" y="381"/>
  <text style="fill:rgb(128,128,128);stroke:none;font-size:11px;" x="195" y="392">ITPRIPL2</text>
  <rect height="11" style="fill:rgb(255,255,255);stroke:none;" width="30" x="210" y="395"/>
  <text style="fill:rgb(128,128,128);stroke:none;font-size:11px;" x="210" y="406">RRM2</text>
  <rect height="13" style="fill:rgb(255,255,255);stroke:none;" width="26" x="225" y="410"/>
  <text style="fill:rgb(128,128,128);stroke:none;font-size:13px;" x="225" y="423">CTH</text>
  <rect height="13" style="fill:rgb(255,255,255);stroke:none;" width="41" x="225" y="427"/>
  <text style="fill:rgb(128,128,128);stroke:none;font-size:13px;" x="225" y="440">ACYP1</text>
  <rect height="13" style="fill:rgb(255,255,255);stroke:none;" width="42" x="225" y="444"/>
  <text style="fill:rgb(128,128,128);stroke:none;font-size:13px;" x="225" y="457">UBE2T</text>
  <rect height="13" style="fill:rgb(255,255,255);stroke:none;" width="51" x="225" y="461"/>
  <text style="fill:rgb(128,128,128);stroke:none;font-size:13px;" x="225" y="474">COL7A1</text>
  <rect height="13" style="fill:rgb(255,255,255);stroke:none;" width="57" x="225" y="478"/>
  <text style="fill:rgb(128,128,128);stroke:none;font-size:13px;" x="225" y="491">DNAJC18</text>
  <rect height="13" style="fill:rgb(255,255,255);stroke:none;" width="37" x="239" y="495"/>
  <text style="fill:rgb(128,128,128);stroke:none;font-size:13px;" x="239" y="508">NME7</text>
  <rect height="13" style="fill:rgb(255,255,255);stroke:none;" width="37" x="239" y="512"/>
  <text style="fill:rgb(128,128,128);stroke:none;font-size:13px;" x="239" y="525">BIRC3</text>
  <rect height="13" style="fill:rgb(255,255,255);stroke:none;" width="51" x="239" y="529"/>
  <text style="fill:rgb(128,128,128);stroke:none;font-size:13px;" x="239" y="542">BTN3A2</text>
  <rect height="13" style="fill:rgb(255,255,255);stroke:none;" width="74" x="239" y="546"/>
  <text style="fill:rgb(128,128,128);stroke:none;font-size:13px;" x="239" y="559">CKMT2-AS1</text>
  <rect height="13" style="fill:rgb(255,255,255);stroke:none;" width="36" x="254" y="563"/>
  <text style="fill:rgb(128,128,128);stroke:none;font-size:13px;" x="254" y="576">THBD</text>
  <rect height="13" style="fill:rgb(255,255,255);stroke:none;" width="26" x="254" y="580"/>
  <text style="fill:rgb(128,128,128);stroke:none;font-size:13px;" x="254" y="593">IL37</text>
  <rect height="13" style="fill:rgb(255,255,255);stroke:none;" width="46" x="254" y="597"/>
  <text style="fill:rgb(128,128,128);stroke:none;font-size:13px;" x="254" y="610">ABHD3</text>
  <rect height="13" style="fill:rgb(255,255,255);stroke:none;" width="42" x="254" y="614"/>
  <text style="fill:rgb(128,128,128);stroke:none;font-size:13px;" x="254" y="627">FANCL</text>
  <rect height="13" style="fill:rgb(255,255,255);stroke:none;" width="51" x="254" y="631"/>
  <text style="fill:rgb(128,128,128);stroke:none;font-size:13px;" x="254" y="644">SLAMF8</text>
  <rect height="13" style="fill:rgb(255,255,255);stroke:none;" width="53" x="254" y="648"/>
  <text style="fill:rgb(128,128,128);stroke:none;font-size:13px;" x="254" y="661">CAMTA1</text>
  <rect height="13" style="fill:rgb(255,255,255);stroke:none;" width="51" x="254" y="665"/>
  <text style="fill:rgb(128,128,128);stroke:none;font-size:13px;" x="254" y="678">RAB27A</text>
  <rect height="13" style="fill:rgb(255,255,255);stroke:none;" width="51" x="254" y="682"/>
  <text style="fill:rgb(128,128,128);stroke:none;font-size:13px;" x="254" y="695">CYBRD1</text>
  <rect height="13" style="fill:rgb(255,255,255);stroke:none;" width="56" x="254" y="699"/>
  <text style="fill:rgb(128,128,128);stroke:none;font-size:13px;" x="254" y="712">PSMC3IP</text>
  <rect height="13" style="fill:rgb(255,255,255);stroke:none;" width="32" x="268" y="716"/>
  <text style="fill:rgb(128,128,128);stroke:none;font-size:13px;" x="268" y="729">FUT8</text>
  <rect height="13" style="fill:rgb(255,255,255);stroke:none;" width="26" x="268" y="733"/>
  <text style="fill:rgb(128,128,128);stroke:none;font-size:13px;" x="268" y="746">IL33</text>
  <rect height="13" style="fill:rgb(255,255,255);stroke:none;" width="54" x="268" y="750"/>
  <text style="fill:rgb(128,128,128);stroke:none;font-size:13px;" x="268" y="763">BRD3OS</text>
  <rect height="13" style="fill:rgb(255,255,255);stroke:none;" width="53" x="268" y="767"/>
  <text style="fill:rgb(128,128,128);stroke:none;font-size:13px;" x="268" y="780">ARMCX2</text>
  <rect height="10" style="fill:rgb(255,255,255);stroke:none;" width="32" x="283" y="783"/>
  <text style="fill:rgb(128,128,128);stroke:none;font-size:10px;" x="283" y="793">GINS2</text>
  <rect height="10" style="fill:rgb(255,255,255);stroke:none;" width="37" x="356" y="340"/>
  <text style="fill:rgb(128,128,128);stroke:none;font-size:10px;" x="356" y="350">IGFBP3</text>
  <rect height="10" style="fill:rgb(255,255,255);stroke:none;" width="24" x="370" y="353"/>
  <text style="fill:rgb(128,128,128);stroke:none;font-size:10px;" x="370" y="363">GEM</text>
  <rect height="10" style="fill:rgb(255,255,255);stroke:none;" width="39" x="370" y="366"/>
  <text style="fill:rgb(128,128,128);stroke:none;font-size:10px;" x="370" y="376">CNRIP1</text>
  <rect height="10" style="fill:rgb(255,255,255);stroke:none;" width="42" x="370" y="379"/>
  <text style="fill:rgb(128,128,128);stroke:none;font-size:10px;" x="370" y="389">HDGFL3</text>
</svg>
