<?xml version="1.0" encoding="UTF-8" standalone="no"?>
<!DOCTYPE svg PUBLIC "-//W3C//DTD SVG 1.1//EN" "http://www.w3.org/Graphics/SVG/1.1/DTD/svg11.dtd">
<svg xmlns:xlink="http://www.w3.org/1999/xlink" height="158.74999999999997mm" version="1.1" viewBox="0 0 500 600" width="132.29166666666666mm" x="0mm" y="0mm" xmlns="http://www.w3.org/2000/svg">
  <rect height="1200" style="fill:rgb(255,255,255);stroke:none;" width="1000" x="0" y="0"/>
  <rect height="240" style="fill:rgb(191,191,191);fill-opacity:0.4980392156862745;stroke:none;" width="175" x="225" y="60"/>
  <line style="fill:none;stroke:rgb(63,63,191);stroke-opacity:0.24705882352941178;stroke-miterlimit:10;stroke-linecap:square;" x1="50" x2="50" y1="300" y2="300"/>
  <line style="fill:none;stroke:rgb(63,63,191);stroke-opacity:0.24705882352941178;stroke-miterlimit:10;stroke-linecap:square;" x1="50" x2="64" y1="300" y2="290"/>
  <line style="fill:none;stroke:rgb(63,63,191);stroke-opacity:0.24705882352941178;stroke-miterlimit:10;stroke-linecap:square;" x1="64" x2="79" y1="290" y2="280"/>
  <line style="fill:none;stroke:rgb(63,63,191);stroke-opacity:0.24705882352941178;stroke-miterlimit:10;stroke-linecap:square;" x1="79" x2="93" y1="280" y2="270"/>
  <line style="fill:none;stroke:rgb(63,63,191);stroke-opacity:0.24705882352941178;stroke-miterlimit:10;stroke-linecap:square;" x1="93" x2="108" y1="270" y2="260"/>
  <line style="fill:none;stroke:rgb(63,63,191);stroke-opacity:0.24705882352941178;stroke-miterlimit:10;stroke-linecap:square;" x1="108" x2="122" y1="260" y2="250"/>
  <line style="fill:none;stroke:rgb(63,63,191);stroke-opacity:0.24705882352941178;stroke-miterlimit:10;stroke-linecap:square;" x1="122" x2="137" y1="250" y2="240"/>
  <line style="fill:none;stroke:rgb(63,63,191);stroke-opacity:0.24705882352941178;stroke-miterlimit:10;stroke-linecap:square;" x1="137" x2="152" y1="240" y2="230"/>
  <line style="fill:none;stroke:rgb(63,63,191);stroke-opacity:0.24705882352941178;stroke-miterlimit:10;stroke-linecap:square;" x1="152" x2="166" y1="230" y2="220"/>
  <line style="fill:none;stroke:rgb(63,63,191);stroke-opacity:0.24705882352941178;stroke-miterlimit:10;stroke-linecap:square;" x1="166" x2="181" y1="220" y2="210"/>
  <line style="fill:none;stroke:rgb(63,63,191);stroke-opacity:0.24705882352941178;stroke-miterlimit:10;stroke-linecap:square;" x1="181" x2="195" y1="210" y2="200"/>
  <line style="fill:none;stroke:rgb(63,63,191);stroke-opacity:0.24705882352941178;stroke-miterlimit:10;stroke-linecap:square;" x1="195" x2="210" y1="200" y2="190"/>
  <line style="fill:none;stroke:rgb(63,63,191);stroke-opacity:0.24705882352941178;stroke-miterlimit:10;stroke-linecap:square;" x1="210" x2="225" y1="190" y2="180"/>
  <line style="fill:none;stroke:rgb(63,63,191);stroke-opacity:0.24705882352941178;stroke-miterlimit:10;stroke-linecap:square;" x1="225" x2="239" y1="180" y2="170"/>
  <line style="fill:none;stroke:rgb(63,63,191);stroke-opacity:0.24705882352941178;stroke-miterlimit:10;stroke-linecap:square;" x1="239" x2="254" y1="170" y2="160"/>
  <line style="fill:none;stroke:rgb(63,63,191);stroke-opacity:0.24705882352941178;stroke-miterlimit:10;stroke-linecap:square;" x1="254" x2="268" y1="160" y2="150"/>
  <line style="fill:none;stroke:rgb(63,63,191);stroke-opacity:0.24705882352941178;stroke-miterlimit:10;stroke-linecap:square;" x1="268" x2="283" y1="150" y2="140"/>
  <line style="fill:none;stroke:rgb(63,63,191);stroke-opacity:0.24705882352941178;stroke-miterlimit:10;stroke-linecap:square;" x1="283" x2="297" y1="140" y2="130"/>
  <line style="fill:none;stroke:rgb(63,63,191);stroke-opacity:0.24705882352941178;stroke-miterlimit:10;stroke-linecap:square;" x1="297" x2="312" y1="130" y2="120"/>
  <line style="fill:none;stroke:rgb(63,63,191);stroke-opacity:0.24705882352941178;stroke-miterlimit:10;stroke-linecap:square;" x1="312" x2="327" y1="120" y2="110"/>
  <line style="fill:none;stroke:rgb(63,63,191);stroke-opacity:0.24705882352941178;stroke-miterlimit:10;stroke-linecap:square;" x1="327" x2="341" y1="110" y2="100"/>
  <line style="fill:none;stroke:rgb(63,63,191);stroke-opacity:0.24705882352941178;stroke-miterlimit:10;stroke-linecap:square;" x1="341" x2="356" y1="100" y2="90"/>
  <line style="fill:none;stroke:rgb(63,63,191);stroke-opacity:0.24705882352941178;stroke-miterlimit:10;stroke-linecap:square;" x1="356" x2="370" y1="90" y2="80"/>
  <line style="fill:none;stroke:rgb(63,63,191);stroke-opacity:0.24705882352941178;stroke-miterlimit:10;stroke-linecap:square;" x1="370" x2="385" y1="80" y2="70"/>
  <line style="fill:none;stroke:rgb(63,63,191);stroke-opacity:0.24705882352941178;stroke-miterlimit:10;stroke-linecap:square;" x1="385" x2="400" y1="70" y2="60"/>
  <line style="fill:none;stroke:rgb(63,63,191);stroke-opacity:0.24705882352941178;stroke-miterlimit:10;stroke-linecap:square;" x1="400" x2="400" y1="60" y2="60"/>
  <rect height="19" style="fill:rgb(255,127,0);fill-opacity:0.7490196078431373;stroke:none;" width="4" x="62" y="280"/>
  <line style="fill:none;stroke:rgb(255,127,0);stroke-opacity:0.24705882352941178;stroke-width:2;stroke-miterlimit:10;stroke-linecap:square;" x1="50" x2="64" y1="300" y2="300"/>
  <line style="fill:none;stroke:rgb(255,127,0);stroke-opacity:0.24705882352941178;stroke-width:2;stroke-miterlimit:10;stroke-linecap:square;" x1="64" x2="64" y1="298" y2="282"/>
  <rect height="28" style="fill:rgb(255,127,0);fill-opacity:0.7490196078431373;stroke:none;" width="4" x="77" y="271"/>
  <line style="fill:none;stroke:rgb(255,127,0);stroke-opacity:0.24705882352941178;stroke-width:2;stroke-miterlimit:10;stroke-linecap:square;" x1="64" x2="79" y1="280" y2="280"/>
  <line style="fill:none;stroke:rgb(255,127,0);stroke-opacity:0.24705882352941178;stroke-width:2;stroke-miterlimit:10;stroke-linecap:square;" x1="79" x2="79" y1="278" y2="254"/>
  <rect height="12" style="fill:rgb(255,127,0);fill-opacity:0.7490196078431373;stroke:none;" width="4" x="91" y="287"/>
  <line style="fill:none;stroke:rgb(255,127,0);stroke-opacity:0.24705882352941178;stroke-width:2;stroke-miterlimit:10;stroke-linecap:square;" x1="79" x2="93" y1="252" y2="252"/>
  <line style="fill:none;stroke:rgb(255,127,0);stroke-opacity:0.24705882352941178;stroke-width:2;stroke-miterlimit:10;stroke-linecap:square;" x1="93" x2="93" y1="250" y2="241"/>
  <rect height="16" style="fill:rgb(255,127,0);fill-opacity:0.7490196078431373;stroke:none;" width="4" x="106" y="284"/>
  <line style="fill:none;stroke:rgb(255,127,0);stroke-opacity:0.24705882352941178;stroke-width:2;stroke-miterlimit:10;stroke-linecap:square;" x1="93" x2="108" y1="239" y2="239"/>
  <line style="fill:none;stroke:rgb(255,127,0);stroke-opacity:0.24705882352941178;stroke-width:2;stroke-miterlimit:10;stroke-linecap:square;" x1="108" x2="108" y1="237" y2="225"/>
  <rect height="3" style="fill:rgb(255,127,0);fill-opacity:0.7490196078431373;stroke:none;" width="4" x="120" y="296"/>
  <line style="fill:none;stroke:rgb(255,127,0);stroke-opacity:0.24705882352941178;stroke-width:2;stroke-miterlimit:10;stroke-linecap:square;" x1="108" x2="122" y1="223" y2="223"/>
  <line style="fill:none;stroke:rgb(255,127,0);stroke-opacity:0.24705882352941178;stroke-width:2;stroke-miterlimit:10;stroke-linecap:square;" x1="122" x2="122" y1="221" y2="222"/>
  <rect height="3" style="fill:rgb(255,127,0);fill-opacity:0.7490196078431373;stroke:none;" width="4" x="135" y="296"/>
  <line style="fill:none;stroke:rgb(255,127,0);stroke-opacity:0.24705882352941178;stroke-width:2;stroke-miterlimit:10;stroke-linecap:square;" x1="122" x2="137" y1="220" y2="220"/>
  <line style="fill:none;stroke:rgb(255,127,0);stroke-opacity:0.24705882352941178;stroke-width:2;stroke-miterlimit:10;stroke-linecap:square;" x1="137" x2="137" y1="218" y2="218"/>
  <rect height="6" style="fill:rgb(255,127,0);fill-opacity:0.7490196078431373;stroke:none;" width="4" x="150" y="293"/>
  <line style="fill:none;stroke:rgb(255,127,0);stroke-opacity:0.24705882352941178;stroke-width:2;stroke-miterlimit:10;stroke-linecap:square;" x1="137" x2="152" y1="216" y2="216"/>
  <line style="fill:none;stroke:rgb(255,127,0);stroke-opacity:0.24705882352941178;stroke-width:2;stroke-miterlimit:10;stroke-linecap:square;" x1="152" x2="152" y1="214" y2="212"/>
  <rect height="3" style="fill:rgb(255,127,0);fill-opacity:0.7490196078431373;stroke:none;" width="4" x="179" y="296"/>
  <line style="fill:none;stroke:rgb(255,127,0);stroke-opacity:0.24705882352941178;stroke-width:2;stroke-miterlimit:10;stroke-linecap:square;" x1="152" x2="181" y1="210" y2="210"/>
  <line style="fill:none;stroke:rgb(255,127,0);stroke-opacity:0.24705882352941178;stroke-width:2;stroke-miterlimit:10;stroke-linecap:square;" x1="181" x2="181" y1="208" y2="209"/>
  <rect height="3" style="fill:rgb(255,127,0);fill-opacity:0.7490196078431373;stroke:none;" width="4" x="193" y="296"/>
  <line style="fill:none;stroke:rgb(255,127,0);stroke-opacity:0.24705882352941178;stroke-width:2;stroke-miterlimit:10;stroke-linecap:square;" x1="181" x2="195" y1="207" y2="207"/>
  <line style="fill:none;stroke:rgb(255,127,0);stroke-opacity:0.24705882352941178;stroke-width:2;stroke-miterlimit:10;stroke-linecap:square;" x1="195" x2="195" y1="205" y2="206"/>
  <rect height="9" style="fill:rgb(255,127,0);fill-opacity:0.7490196078431373;stroke:none;" width="4" x="208" y="290"/>
  <line style="fill:none;stroke:rgb(255,127,0);stroke-opacity:0.24705882352941178;stroke-width:2;stroke-miterlimit:10;stroke-linecap:square;" x1="195" x2="210" y1="204" y2="204"/>
  <line style="fill:none;stroke:rgb(255,127,0);stroke-opacity:0.24705882352941178;stroke-width:2;stroke-miterlimit:10;stroke-linecap:square;" x1="210" x2="210" y1="202" y2="196"/>
  <rect height="38" style="fill:rgb(255,127,0);fill-opacity:0.7490196078431373;stroke:none;" width="4" x="223" y="261"/>
  <line style="fill:none;stroke:rgb(255,127,0);stroke-opacity:0.24705882352941178;stroke-width:2;stroke-miterlimit:10;stroke-linecap:square;" x1="210" x2="225" y1="194" y2="194"/>
  <line style="fill:none;stroke:rgb(255,127,0);stroke-opacity:0.24705882352941178;stroke-width:2;stroke-miterlimit:10;stroke-linecap:square;" x1="225" x2="225" y1="192" y2="158"/>
  <rect height="25" style="fill:rgb(255,127,0);fill-opacity:0.7490196078431373;stroke:none;" width="4" x="237" y="274"/>
  <line style="fill:none;stroke:rgb(255,127,0);stroke-opacity:0.24705882352941178;stroke-width:2;stroke-miterlimit:10;stroke-linecap:square;" x1="225" x2="239" y1="156" y2="156"/>
  <line style="fill:none;stroke:rgb(255,127,0);stroke-opacity:0.24705882352941178;stroke-width:2;stroke-miterlimit:10;stroke-linecap:square;" x1="239" x2="239" y1="154" y2="132"/>
  <rect height="19" style="fill:rgb(255,127,0);fill-opacity:0.7490196078431373;stroke:none;" width="4" x="252" y="280"/>
  <line style="fill:none;stroke:rgb(255,127,0);stroke-opacity:0.24705882352941178;stroke-width:2;stroke-miterlimit:10;stroke-linecap:square;" x1="239" x2="254" y1="130" y2="130"/>
  <line style="fill:none;stroke:rgb(255,127,0);stroke-opacity:0.24705882352941178;stroke-width:2;stroke-miterlimit:10;stroke-linecap:square;" x1="254" x2="254" y1="128" y2="113"/>
  <rect height="16" style="fill:rgb(255,127,0);fill-opacity:0.7490196078431373;stroke:none;" width="4" x="266" y="284"/>
  <line style="fill:none;stroke:rgb(255,127,0);stroke-opacity:0.24705882352941178;stroke-width:2;stroke-miterlimit:10;stroke-linecap:square;" x1="254" x2="268" y1="111" y2="111"/>
  <line style="fill:none;stroke:rgb(255,127,0);stroke-opacity:0.24705882352941178;stroke-width:2;stroke-miterlimit:10;stroke-linecap:square;" x1="268" x2="268" y1="109" y2="97"/>
  <rect height="9" style="fill:rgb(255,127,0);fill-opacity:0.7490196078431373;stroke:none;" width="4" x="281" y="290"/>
  <line style="fill:none;stroke:rgb(255,127,0);stroke-opacity:0.24705882352941178;stroke-width:2;stroke-miterlimit:10;stroke-linecap:square;" x1="268" x2="283" y1="95" y2="95"/>
  <line style="fill:none;stroke:rgb(255,127,0);stroke-opacity:0.24705882352941178;stroke-width:2;stroke-miterlimit:10;stroke-linecap:square;" x1="283" x2="283" y1="93" y2="87"/>
  <rect height="3" style="fill:rgb(255,127,0);fill-opacity:0.7490196078431373;stroke:none;" width="4" x="295" y="296"/>
  <line style="fill:none;stroke:rgb(255,127,0);stroke-opacity:0.24705882352941178;stroke-width:2;stroke-miterlimit:10;stroke-linecap:square;" x1="283" x2="297" y1="85" y2="85"/>
  <line style="fill:none;stroke:rgb(255,127,0);stroke-opacity:0.24705882352941178;stroke-width:2;stroke-miterlimit:10;stroke-linecap:square;" x1="297" x2="297" y1="83" y2="84"/>
  <rect height="3" style="fill:rgb(255,127,0);fill-opacity:0.7490196078431373;stroke:none;" width="4" x="310" y="296"/>
  <line style="fill:none;stroke:rgb(255,127,0);stroke-opacity:0.24705882352941178;stroke-width:2;stroke-miterlimit:10;stroke-linecap:square;" x1="297" x2="312" y1="82" y2="82"/>
  <line style="fill:none;stroke:rgb(255,127,0);stroke-opacity:0.24705882352941178;stroke-width:2;stroke-miterlimit:10;stroke-linecap:square;" x1="312" x2="312" y1="80" y2="81"/>
  <rect height="6" style="fill:rgb(255,127,0);fill-opacity:0.7490196078431373;stroke:none;" width="4" x="339" y="293"/>
  <line style="fill:none;stroke:rgb(255,127,0);stroke-opacity:0.24705882352941178;stroke-width:2;stroke-miterlimit:10;stroke-linecap:square;" x1="312" x2="341" y1="79" y2="79"/>
  <line style="fill:none;stroke:rgb(255,127,0);stroke-opacity:0.24705882352941178;stroke-width:2;stroke-miterlimit:10;stroke-linecap:square;" x1="341" x2="341" y1="77" y2="74"/>
  <rect height="3" style="fill:rgb(255,127,0);fill-opacity:0.7490196078431373;stroke:none;" width="4" x="354" y="296"/>
  <line style="fill:none;stroke:rgb(255,127,0);stroke-opacity:0.24705882352941178;stroke-width:2;stroke-miterlimit:10;stroke-linecap:square;" x1="341" x2="356" y1="72" y2="72"/>
  <line style="fill:none;stroke:rgb(255,127,0);stroke-opacity:0.24705882352941178;stroke-width:2;stroke-miterlimit:10;stroke-linecap:square;" x1="356" x2="356" y1="70" y2="71"/>
  <rect height="6" style="fill:rgb(255,127,0);fill-opacity:0.7490196078431373;stroke:none;" width="4" x="368" y="293"/>
  <line style="fill:none;stroke:rgb(255,127,0);stroke-opacity:0.24705882352941178;stroke-width:2;stroke-miterlimit:10;stroke-linecap:square;" x1="356" x2="370" y1="69" y2="69"/>
  <line style="fill:none;stroke:rgb(255,127,0);stroke-opacity:0.24705882352941178;stroke-width:2;stroke-miterlimit:10;stroke-linecap:square;" x1="370" x2="370" y1="67" y2="65"/>
  <rect height="3" style="fill:rgb(255,127,0);fill-opacity:0.7490196078431373;stroke:none;" width="4" x="398" y="296"/>
  <line style="fill:none;stroke:rgb(255,127,0);stroke-opacity:0.24705882352941178;stroke-width:2;stroke-miterlimit:10;stroke-linecap:square;" x1="370" x2="400" y1="63" y2="63"/>
  <line style="fill:none;stroke:rgb(255,127,0);stroke-opacity:0.24705882352941178;stroke-width:2;stroke-miterlimit:10;stroke-linecap:square;" x1="400" x2="400" y1="61" y2="62"/>
  <line style="fill:none;stroke:rgb(255,127,0);stroke-opacity:0.24705882352941178;stroke-width:2;stroke-miterlimit:10;stroke-linecap:square;" x1="400" x2="400" y1="60" y2="60"/>
  <line style="fill:none;stroke:rgb(255,127,0);stroke-opacity:0.4980392156862745;stroke-miterlimit:2;stroke-dasharray:2;" x1="64" x2="64" y1="300" y2="350"/>
  <line style="fill:none;stroke:rgb(255,127,0);stroke-opacity:0.4980392156862745;stroke-miterlimit:2;stroke-dasharray:2;" x1="64" x2="64" y1="300" y2="364"/>
  <line style="fill:none;stroke:rgb(255,127,0);stroke-opacity:0.4980392156862745;stroke-miterlimit:2;stroke-dasharray:2;" x1="64" x2="64" y1="300" y2="378"/>
  <line style="fill:none;stroke:rgb(255,127,0);stroke-opacity:0.4980392156862745;stroke-miterlimit:2;stroke-dasharray:2;" x1="64" x2="64" y1="300" y2="392"/>
  <line style="fill:none;stroke:rgb(255,127,0);stroke-opacity:0.4980392156862745;stroke-miterlimit:2;stroke-dasharray:2;" x1="64" x2="64" y1="300" y2="406"/>
  <line style="fill:none;stroke:rgb(255,127,0);stroke-opacity:0.4980392156862745;stroke-miterlimit:2;stroke-dasharray:2;" x1="64" x2="64" y1="300" y2="420"/>
  <line style="fill:none;stroke:rgb(255,127,0);stroke-opacity:0.4980392156862745;stroke-miterlimit:2;stroke-dasharray:2;" x1="79" x2="79" y1="300" y2="434"/>
  <line style="fill:none;stroke:rgb(255,127,0);stroke-opacity:0.4980392156862745;stroke-miterlimit:2;stroke-dasharray:2;" x1="79" x2="79" y1="300" y2="448"/>
  <line style="fill:none;stroke:rgb(255,127,0);stroke-opacity:0.4980392156862745;stroke-miterlimit:2;stroke-dasharray:2;" x1="79" x2="79" y1="300" y2="462"/>
  <line style="fill:none;stroke:rgb(255,127,0);stroke-opacity:0.4980392156862745;stroke-miterlimit:2;stroke-dasharray:2;" x1="79" x2="79" y1="300" y2="476"/>
  <line style="fill:none;stroke:rgb(255,127,0);stroke-opacity:0.4980392156862745;stroke-miterlimit:2;stroke-dasharray:2;" x1="79" x2="79" y1="300" y2="490"/>
  <line style="fill:none;stroke:rgb(255,127,0);stroke-opacity:0.4980392156862745;stroke-miterlimit:2;stroke-dasharray:2;" x1="79" x2="79" y1="300" y2="504"/>
  <line style="fill:none;stroke:rgb(255,127,0);stroke-opacity:0.4980392156862745;stroke-miterlimit:2;stroke-dasharray:2;" x1="79" x2="79" y1="300" y2="518"/>
  <line style="fill:none;stroke:rgb(255,127,0);stroke-opacity:0.4980392156862745;stroke-miterlimit:2;stroke-dasharray:2;" x1="79" x2="79" y1="300" y2="532"/>
  <line style="fill:none;stroke:rgb(255,127,0);stroke-opacity:0.4980392156862745;stroke-miterlimit:2;stroke-dasharray:2;" x1="79" x2="79" y1="300" y2="546"/>
  <line style="fill:none;stroke:rgb(255,127,0);stroke-opacity:0.4980392156862745;stroke-miterlimit:2;stroke-dasharray:2;" x1="93" x2="93" y1="300" y2="560"/>
  <line style="fill:none;stroke:rgb(255,127,0);stroke-opacity:0.4980392156862745;stroke-miterlimit:2;stroke-dasharray:2;" x1="93" x2="93" y1="300" y2="574"/>
  <line style="fill:none;stroke:rgb(255,127,0);stroke-opacity:0.4980392156862745;stroke-miterlimit:2;stroke-dasharray:2;" x1="93" x2="93" y1="300" y2="588"/>
  <line style="fill:none;stroke:rgb(255,127,0);stroke-opacity:0.4980392156862745;stroke-miterlimit:2;stroke-dasharray:2;" x1="93" x2="93" y1="300" y2="602"/>
  <line style="fill:none;stroke:rgb(255,127,0);stroke-opacity:0.4980392156862745;stroke-miterlimit:2;stroke-dasharray:2;" x1="108" x2="108" y1="300" y2="616"/>
  <line style="fill:none;stroke:rgb(255,127,0);stroke-opacity:0.4980392156862745;stroke-miterlimit:2;stroke-dasharray:2;" x1="108" x2="108" y1="300" y2="630"/>
  <line style="fill:none;stroke:rgb(255,127,0);stroke-opacity:0.4980392156862745;stroke-miterlimit:2;stroke-dasharray:2;" x1="108" x2="108" y1="300" y2="644"/>
  <line style="fill:none;stroke:rgb(255,127,0);stroke-opacity:0.4980392156862745;stroke-miterlimit:2;stroke-dasharray:2;" x1="108" x2="108" y1="300" y2="658"/>
  <line style="fill:none;stroke:rgb(255,127,0);stroke-opacity:0.4980392156862745;stroke-miterlimit:2;stroke-dasharray:2;" x1="108" x2="108" y1="300" y2="672"/>
  <line style="fill:none;stroke:rgb(255,127,0);stroke-opacity:0.4980392156862745;stroke-miterlimit:2;stroke-dasharray:2;" x1="122" x2="122" y1="300" y2="686"/>
  <line style="fill:none;stroke:rgb(255,127,0);stroke-opacity:0.4980392156862745;stroke-miterlimit:2;stroke-dasharray:2;" x1="137" x2="137" y1="300" y2="700"/>
  <line style="fill:none;stroke:rgb(255,127,0);stroke-opacity:0.4980392156862745;stroke-miterlimit:2;stroke-dasharray:2;" x1="152" x2="152" y1="300" y2="714"/>
  <line style="fill:none;stroke:rgb(255,127,0);stroke-opacity:0.4980392156862745;stroke-miterlimit:2;stroke-dasharray:2;" x1="152" x2="152" y1="300" y2="728"/>
  <line style="fill:none;stroke:rgb(255,127,0);stroke-opacity:0.4980392156862745;stroke-miterlimit:2;stroke-dasharray:2;" x1="181" x2="181" y1="300" y2="742"/>
  <line style="fill:none;stroke:rgb(255,127,0);stroke-opacity:0.4980392156862745;stroke-miterlimit:2;stroke-dasharray:2;" x1="195" x2="195" y1="300" y2="756"/>
  <line style="fill:none;stroke:rgb(255,127,0);stroke-opacity:0.4980392156862745;stroke-miterlimit:2;stroke-dasharray:2;" x1="210" x2="210" y1="300" y2="770"/>
  <line style="fill:none;stroke:rgb(255,127,0);stroke-opacity:0.4980392156862745;stroke-miterlimit:2;stroke-dasharray:2;" x1="210" x2="210" y1="300" y2="784"/>
  <line style="fill:none;stroke:rgb(255,127,0);stroke-opacity:0.4980392156862745;stroke-miterlimit:2;stroke-dasharray:2;" x1="210" x2="210" y1="300" y2="798"/>
  <line style="fill:none;stroke:rgb(255,127,0);stroke-opacity:0.4980392156862745;stroke-miterlimit:2;stroke-dasharray:2;" x1="225" x2="225" y1="300" y2="813"/>
  <line style="fill:none;stroke:rgb(255,127,0);stroke-opacity:0.4980392156862745;stroke-miterlimit:2;stroke-dasharray:2;" x1="225" x2="225" y1="300" y2="828"/>
  <line style="fill:none;stroke:rgb(255,127,0);stroke-opacity:0.4980392156862745;stroke-miterlimit:2;stroke-dasharray:2;" x1="225" x2="225" y1="300" y2="843"/>
  <line style="fill:none;stroke:rgb(255,127,0);stroke-opacity:0.4980392156862745;stroke-miterlimit:2;stroke-dasharray:2;" x1="225" x2="225" y1="300" y2="858"/>
  <line style="fill:none;stroke:rgb(255,127,0);stroke-opacity:0.4980392156862745;stroke-miterlimit:2;stroke-dasharray:2;" x1="225" x2="225" y1="300" y2="873"/>
  <line style="fill:none;stroke:rgb(255,127,0);stroke-opacity:0.4980392156862745;stroke-miterlimit:2;stroke-dasharray:2;" x1="225" x2="225" y1="300" y2="888"/>
  <line style="fill:none;stroke:rgb(255,127,0);stroke-opacity:0.4980392156862745;stroke-miterlimit:2;stroke-dasharray:2;" x1="225" x2="225" y1="300" y2="903"/>
  <line style="fill:none;stroke:rgb(255,127,0);stroke-opacity:0.4980392156862745;stroke-miterlimit:2;stroke-dasharray:2;" x1="225" x2="225" y1="300" y2="918"/>
  <line style="fill:none;stroke:rgb(255,127,0);stroke-opacity:0.4980392156862745;stroke-miterlimit:2;stroke-dasharray:2;" x1="225" x2="225" y1="300" y2="933"/>
  <line style="fill:none;stroke:rgb(255,127,0);stroke-opacity:0.4980392156862745;stroke-miterlimit:2;stroke-dasharray:2;" x1="225" x2="225" y1="300" y2="948"/>
  <line style="fill:none;stroke:rgb(255,127,0);stroke-opacity:0.4980392156862745;stroke-miterlimit:2;stroke-dasharray:2;" x1="225" x2="225" y1="300" y2="963"/>
  <line style="fill:none;stroke:rgb(255,127,0);stroke-opacity:0.4980392156862745;stroke-miterlimit:2;stroke-dasharray:2;" x1="225" x2="225" y1="300" y2="978"/>
  <line style="fill:none;stroke:rgb(255,127,0);stroke-opacity:0.4980392156862745;stroke-miterlimit:2;stroke-dasharray:2;" x1="239" x2="239" y1="300" y2="993"/>
  <line style="fill:none;stroke:rgb(255,127,0);stroke-opacity:0.4980392156862745;stroke-miterlimit:2;stroke-dasharray:2;" x1="239" x2="239" y1="300" y2="1008"/>
  <line style="fill:none;stroke:rgb(255,127,0);stroke-opacity:0.4980392156862745;stroke-miterlimit:2;stroke-dasharray:2;" x1="239" x2="239" y1="300" y2="1023"/>
  <line style="fill:none;stroke:rgb(255,127,0);stroke-opacity:0.4980392156862745;stroke-miterlimit:2;stroke-dasharray:2;" x1="239" x2="239" y1="300" y2="1038"/>
  <line style="fill:none;stroke:rgb(255,127,0);stroke-opacity:0.4980392156862745;stroke-miterlimit:2;stroke-dasharray:2;" x1="239" x2="239" y1="300" y2="1053"/>
  <line style="fill:none;stroke:rgb(255,127,0);stroke-opacity:0.4980392156862745;stroke-miterlimit:2;stroke-dasharray:2;" x1="239" x2="239" y1="300" y2="1068"/>
  <line style="fill:none;stroke:rgb(255,127,0);stroke-opacity:0.4980392156862745;stroke-miterlimit:2;stroke-dasharray:2;" x1="239" x2="239" y1="300" y2="1083"/>
  <line style="fill:none;stroke:rgb(255,127,0);stroke-opacity:0.4980392156862745;stroke-miterlimit:2;stroke-dasharray:2;" x1="239" x2="239" y1="300" y2="1098"/>
  <line style="fill:none;stroke:rgb(255,127,0);stroke-opacity:0.4980392156862745;stroke-miterlimit:2;stroke-dasharray:2;" x1="254" x2="254" y1="300" y2="1113"/>
  <line style="fill:none;stroke:rgb(255,127,0);stroke-opacity:0.4980392156862745;stroke-miterlimit:2;stroke-dasharray:2;" x1="254" x2="254" y1="300" y2="1128"/>
  <line style="fill:none;stroke:rgb(255,127,0);stroke-opacity:0.4980392156862745;stroke-miterlimit:2;stroke-dasharray:2;" x1="254" x2="254" y1="300" y2="1143"/>
  <line style="fill:none;stroke:rgb(255,127,0);stroke-opacity:0.4980392156862745;stroke-miterlimit:2;stroke-dasharray:2;" x1="254" x2="254" y1="300" y2="1158"/>
  <line style="fill:none;stroke:rgb(255,127,0);stroke-opacity:0.4980392156862745;stroke-miterlimit:2;stroke-dasharray:2;" x1="254" x2="254" y1="300" y2="1173"/>
  <line style="fill:none;stroke:rgb(255,127,0);stroke-opacity:0.4980392156862745;stroke-miterlimit:2;stroke-dasharray:2;" x1="254" x2="254" y1="300" y2="1188"/>
  <line style="fill:none;stroke:rgb(255,127,0);stroke-opacity:0.4980392156862745;stroke-miterlimit:2;stroke-dasharray:2;" x1="268" x2="268" y1="300" y2="1203"/>
  <line style="fill:none;stroke:rgb(255,127,0);stroke-opacity:0.4980392156862745;stroke-miterlimit:2;stroke-dasharray:2;" x1="268" x2="268" y1="300" y2="1218"/>
  <line style="fill:none;stroke:rgb(255,127,0);stroke-opacity:0.4980392156862745;stroke-miterlimit:2;stroke-dasharray:2;" x1="268" x2="268" y1="300" y2="1233"/>
  <line style="fill:none;stroke:rgb(255,127,0);stroke-opacity:0.4980392156862745;stroke-miterlimit:2;stroke-dasharray:2;" x1="268" x2="268" y1="300" y2="1248"/>
  <line style="fill:none;stroke:rgb(255,127,0);stroke-opacity:0.4980392156862745;stroke-miterlimit:2;stroke-dasharray:2;" x1="268" x2="268" y1="300" y2="1263"/>
  <line style="fill:none;stroke:rgb(255,127,0);stroke-opacity:0.4980392156862745;stroke-miterlimit:2;stroke-dasharray:2;" x1="283" x2="283" y1="300" y2="1277"/>
  <line style="fill:none;stroke:rgb(255,127,0);stroke-opacity:0.4980392156862745;stroke-miterlimit:2;stroke-dasharray:2;" x1="283" x2="283" y1="300" y2="1291"/>
  <line style="fill:none;stroke:rgb(255,127,0);stroke-opacity:0.4980392156862745;stroke-miterlimit:2;stroke-dasharray:2;" x1="283" x2="283" y1="300" y2="1305"/>
  <line style="fill:none;stroke:rgb(255,127,0);stroke-opacity:0.4980392156862745;stroke-miterlimit:2;stroke-dasharray:2;" x1="297" x2="297" y1="300" y2="1319"/>
  <line style="fill:none;stroke:rgb(255,127,0);stroke-opacity:0.4980392156862745;stroke-miterlimit:2;stroke-dasharray:2;" x1="312" x2="312" y1="300" y2="1333"/>
  <line style="fill:none;stroke:rgb(255,127,0);stroke-opacity:0.4980392156862745;stroke-miterlimit:2;stroke-dasharray:2;" x1="341" x2="341" y1="300" y2="1347"/>
  <line style="fill:none;stroke:rgb(255,127,0);stroke-opacity:0.4980392156862745;stroke-miterlimit:2;stroke-dasharray:2;" x1="341" x2="341" y1="300" y2="1361"/>
  <line style="fill:none;stroke:rgb(255,127,0);stroke-opacity:0.4980392156862745;stroke-miterlimit:2;stroke-dasharray:2;" x1="356" x2="356" y1="300" y2="1375"/>
  <line style="fill:none;stroke:rgb(255,127,0);stroke-opacity:0.4980392156862745;stroke-miterlimit:2;stroke-dasharray:2;" x1="370" x2="370" y1="300" y2="1389"/>
  <line style="fill:none;stroke:rgb(255,127,0);stroke-opacity:0.4980392156862745;stroke-miterlimit:2;stroke-dasharray:2;" x1="370" x2="370" y1="300" y2="1403"/>
  <line style="fill:none;stroke:rgb(255,127,0);stroke-opacity:0.4980392156862745;stroke-miterlimit:2;stroke-dasharray:2;" x1="400" x2="400" y1="300" y2="1417"/>
  <line style="fill:none;stroke:rgb(0,0,0);stroke-width:2;stroke-miterlimit:10;stroke-linecap:square;" x1="48" x2="48" y1="60" y2="300"/>
  <line style="fill:none;stroke:rgb(0,0,0);stroke-width:2;stroke-miterlimit:10;stroke-linecap:square;" x1="48" x2="402" y1="300" y2="300"/>
  <rect height="30" style="fill:rgb(255,255,255);stroke:none;" width="17" x="42" y="308"/>
  <text style="fill:rgb(0,0,0);stroke:none;font-size:25px;font-weight:bold;" x="42" y="332">0</text>
  <rect height="30" style="fill:rgb(255,255,255);stroke:none;" width="34" x="383" y="308"/>
  <text style="fill:rgb(0,0,0);stroke:none;font-size:25px;font-weight:bold;" x="383" y="332">24</text>
  <text style="fill:rgb(0,0,0);stroke:none;font-size:25px;font-weight:bold;" x="25" y="312">0</text>
  <text style="fill:rgb(0,0,0);stroke:none;font-size:25px;font-weight:bold;" x="25" y="72">1</text>
  <text style="fill:rgb(0,0,0);stroke:none;font-size:19px;font-weight:bold;" x="4" y="39">DIAZ_CHRONIC_MYELOGENOUS_LEUKEMIA_UP</text>
  <rect height="11" style="fill:rgb(255,255,255);stroke:none;" width="29" x="64" y="339"/>
  <text style="fill:rgb(128,128,128);stroke:none;font-size:11px;" x="64" y="350">UBTF</text>
  <rect height="11" style="fill:rgb(255,255,255);stroke:none;" width="29" x="64" y="353"/>
  <text style="fill:rgb(128,128,128);stroke:none;font-size:11px;" x="64" y="364">CRY1</text>
  <rect height="11" style="fill:rgb(255,255,255);stroke:none;" width="36" x="64" y="367"/>
  <text style="fill:rgb(128,128,128);stroke:none;font-size:11px;" x="64" y="378">POLE2</text>
  <rect height="11" style="fill:rgb(255,255,255);stroke:none;" width="47" x="64" y="381"/>
  <text style="fill:rgb(128,128,128);stroke:none;font-size:11px;" x="64" y="392">CAPRIN1</text>
  <rect height="11" style="fill:rgb(255,255,255);stroke:none;" width="54" x="64" y="395"/>
  <text style="fill:rgb(128,128,128);stroke:none;font-size:11px;" x="64" y="406">TUBGCP3</text>
  <rect height="11" style="fill:rgb(255,255,255);stroke:none;" width="54" x="64" y="409"/>
  <text style="fill:rgb(128,128,128);stroke:none;font-size:11px;" x="64" y="420">SERPINE2</text>
  <rect height="11" style="fill:rgb(255,255,255);stroke:none;" width="23" x="79" y="423"/>
  <text style="fill:rgb(128,128,128);stroke:none;font-size:11px;" x="79" y="434">MTR</text>
  <rect height="11" style="fill:rgb(255,255,255);stroke:none;" width="27" x="79" y="437"/>
  <text style="fill:rgb(128,128,128);stroke:none;font-size:11px;" x="79" y="448">ING2</text>
  <rect height="11" style="fill:rgb(255,255,255);stroke:none;" width="38" x="79" y="451"/>
  <text style="fill:rgb(128,128,128);stroke:none;font-size:11px;" x="79" y="462">KCNN4</text>
  <rect height="11" style="fill:rgb(255,255,255);stroke:none;" width="37" x="79" y="465"/>
  <text style="fill:rgb(128,128,128);stroke:none;font-size:11px;" x="79" y="476">FOXN3</text>
  <rect height="11" style="fill:rgb(255,255,255);stroke:none;" width="43" x="79" y="479"/>
  <text style="fill:rgb(128,128,128);stroke:none;font-size:11px;" x="79" y="490">SLC2A1</text>
  <rect height="11" style="fill:rgb(255,255,255);stroke:none;" width="44" x="79" y="493"/>
  <text style="fill:rgb(128,128,128);stroke:none;font-size:11px;" x="79" y="504">RAD23B</text>
  <rect height="11" style="fill:rgb(255,255,255);stroke:none;" width="46" x="79" y="507"/>
  <text style="fill:rgb(128,128,128);stroke:none;font-size:11px;" x="79" y="518">PSTPIP2</text>
  <rect height="11" style="fill:rgb(255,255,255);stroke:none;" width="55" x="79" y="521"/>
  <text style="fill:rgb(128,128,128);stroke:none;font-size:11px;" x="79" y="532">NIPSNAP2</text>
  <rect height="11" style="fill:rgb(255,255,255);stroke:none;" width="58" x="79" y="535"/>
  <text style="fill:rgb(128,128,128);stroke:none;font-size:11px;" x="79" y="546">C11ORF58</text>
  <rect height="11" style="fill:rgb(255,255,255);stroke:none;" width="22" x="93" y="549"/>
  <text style="fill:rgb(128,128,128);stroke:none;font-size:11px;" x="93" y="560">ADK</text>
  <rect height="11" style="fill:rgb(255,255,255);stroke:none;" width="22" x="93" y="563"/>
  <text style="fill:rgb(128,128,128);stroke:none;font-size:11px;" x="93" y="574">HK2</text>
  <rect height="11" style="fill:rgb(255,255,255);stroke:none;" width="26" x="93" y="577"/>
  <text style="fill:rgb(128,128,128);stroke:none;font-size:11px;" x="93" y="588">PKIG</text>
  <rect height="11" style="fill:rgb(255,255,255);stroke:none;" width="37" x="93" y="591"/>
  <text style="fill:rgb(128,128,128);stroke:none;font-size:11px;" x="93" y="602">FBXW2</text>
  <rect height="11" style="fill:rgb(255,255,255);stroke:none;" width="38" x="108" y="605"/>
  <text style="fill:rgb(128,128,128);stroke:none;font-size:11px;" x="108" y="616">NUDT4</text>
  <rect height="11" style="fill:rgb(255,255,255);stroke:none;" width="36" x="108" y="619"/>
  <text style="fill:rgb(128,128,128);stroke:none;font-size:11px;" x="108" y="630">ANXA7</text>
  <rect height="11" style="fill:rgb(255,255,255);stroke:none;" width="37" x="108" y="633"/>
  <text style="fill:rgb(128,128,128);stroke:none;font-size:11px;" x="108" y="644">CALM1</text>
  <rect height="11" style="fill:rgb(255,255,255);stroke:none;" width="45" x="108" y="647"/>
  <text style="fill:rgb(128,128,128);stroke:none;font-size:11px;" x="108" y="658">HS2ST1</text>
  <rect height="11" style="fill:rgb(255,255,255);stroke:none;" width="39" x="108" y="661"/>
  <text style="fill:rgb(128,128,128);stroke:none;font-size:11px;" x="108" y="672">BNIP3L</text>
  <rect height="11" style="fill:rgb(255,255,255);stroke:none;" width="27" x="122" y="675"/>
  <text style="fill:rgb(128,128,128);stroke:none;font-size:11px;" x="122" y="686">PFKP</text>
  <rect height="11" style="fill:rgb(255,255,255);stroke:none;" width="32" x="137" y="689"/>
  <text style="fill:rgb(128,128,128);stroke:none;font-size:11px;" x="137" y="700">CRIP1</text>
  <rect height="11" style="fill:rgb(255,255,255);stroke:none;" width="28" x="152" y="703"/>
  <text style="fill:rgb(128,128,128);stroke:none;font-size:11px;" x="152" y="714">TFRC</text>
  <rect height="11" style="fill:rgb(255,255,255);stroke:none;" width="37" x="152" y="717"/>
  <text style="fill:rgb(128,128,128);stroke:none;font-size:11px;" x="152" y="728">TGFB1</text>
  <rect height="11" style="fill:rgb(255,255,255);stroke:none;" width="32" x="181" y="731"/>
  <text style="fill:rgb(128,128,128);stroke:none;font-size:11px;" x="181" y="742">SUOX</text>
  <rect height="11" style="fill:rgb(255,255,255);stroke:none;" width="30" x="195" y="745"/>
  <text style="fill:rgb(128,128,128);stroke:none;font-size:11px;" x="195" y="756">AQP3</text>
  <rect height="11" style="fill:rgb(255,255,255);stroke:none;" width="31" x="210" y="759"/>
  <text style="fill:rgb(128,128,128);stroke:none;font-size:11px;" x="210" y="770">RBM5</text>
  <rect height="11" style="fill:rgb(255,255,255);stroke:none;" width="31" x="210" y="773"/>
  <text style="fill:rgb(128,128,128);stroke:none;font-size:11px;" x="210" y="784">LMO4</text>
  <rect height="11" style="fill:rgb(255,255,255);stroke:none;" width="36" x="210" y="787"/>
  <text style="fill:rgb(128,128,128);stroke:none;font-size:11px;" x="210" y="798">MFAP1</text>
  <rect height="12" style="fill:rgb(255,255,255);stroke:none;" width="25" x="225" y="801"/>
  <text style="fill:rgb(128,128,128);stroke:none;" x="225" y="813">CAD</text>
  <rect height="12" style="fill:rgb(255,255,255);stroke:none;" width="24" x="225" y="816"/>
  <text style="fill:rgb(128,128,128);stroke:none;" x="225" y="828">CTH</text>
  <rect height="12" style="fill:rgb(255,255,255);stroke:none;" width="28" x="225" y="831"/>
  <text style="fill:rgb(128,128,128);stroke:none;" x="225" y="843">PPID</text>
  <rect height="12" style="fill:rgb(255,255,255);stroke:none;" width="35" x="225" y="846"/>
  <text style="fill:rgb(128,128,128);stroke:none;" x="225" y="858">GCDH</text>
  <rect height="12" style="fill:rgb(255,255,255);stroke:none;" width="33" x="225" y="861"/>
  <text style="fill:rgb(128,128,128);stroke:none;" x="225" y="873">BRD8</text>
  <rect height="12" style="fill:rgb(255,255,255);stroke:none;" width="31" x="225" y="876"/>
  <text style="fill:rgb(128,128,128);stroke:none;" x="225" y="888">NFYB</text>
  <rect height="12" style="fill:rgb(255,255,255);stroke:none;" width="35" x="225" y="891"/>
  <text style="fill:rgb(128,128,128);stroke:none;" x="225" y="903">IFRD1</text>
  <rect height="12" style="fill:rgb(255,255,255);stroke:none;" width="39" x="225" y="906"/>
  <text style="fill:rgb(128,128,128);stroke:none;" x="225" y="918">ACYP1</text>
  <rect height="12" style="fill:rgb(255,255,255);stroke:none;" width="42" x="225" y="921"/>
  <text style="fill:rgb(128,128,128);stroke:none;" x="225" y="933">GOSR2</text>
  <rect height="12" style="fill:rgb(255,255,255);stroke:none;" width="41" x="225" y="936"/>
  <text style="fill:rgb(128,128,128);stroke:none;" x="225" y="948">RAD50</text>
  <rect height="12" style="fill:rgb(255,255,255);stroke:none;" width="42" x="225" y="951"/>
  <text style="fill:rgb(128,128,128);stroke:none;" x="225" y="963">TP53I3</text>
  <rect height="12" style="fill:rgb(255,255,255);stroke:none;" width="54" x="225" y="966"/>
  <text style="fill:rgb(128,128,128);stroke:none;" x="225" y="978">SLC43A1</text>
  <rect height="12" style="fill:rgb(255,255,255);stroke:none;" width="35" x="239" y="981"/>
  <text style="fill:rgb(128,128,128);stroke:none;" x="239" y="993">NME7</text>
  <rect height="12" style="fill:rgb(255,255,255);stroke:none;" width="32" x="239" y="996"/>
  <text style="fill:rgb(128,128,128);stroke:none;" x="239" y="1008">NFE2</text>
  <rect height="12" style="fill:rgb(255,255,255);stroke:none;" width="36" x="239" y="1011"/>
  <text style="fill:rgb(128,128,128);stroke:none;" x="239" y="1023">CHIC2</text>
  <rect height="12" style="fill:rgb(255,255,255);stroke:none;" width="39" x="239" y="1026"/>
  <text style="fill:rgb(128,128,128);stroke:none;" x="239" y="1038">RNFT1</text>
  <rect height="12" style="fill:rgb(255,255,255);stroke:none;" width="42" x="239" y="1041"/>
  <text style="fill:rgb(128,128,128);stroke:none;" x="239" y="1053">HSPH1</text>
  <rect height="12" style="fill:rgb(255,255,255);stroke:none;" width="33" x="239" y="1056"/>
  <text style="fill:rgb(128,128,128);stroke:none;" x="239" y="1068">PILRB</text>
  <rect height="12" style="fill:rgb(255,255,255);stroke:none;" width="52" x="239" y="1071"/>
  <text style="fill:rgb(128,128,128);stroke:none;" x="239" y="1083">ZMYND8</text>
  <rect height="12" style="fill:rgb(255,255,255);stroke:none;" width="57" x="239" y="1086"/>
  <text style="fill:rgb(128,128,128);stroke:none;" x="239" y="1098">ZKSCAN7</text>
  <rect height="12" style="fill:rgb(255,255,255);stroke:none;" width="31" x="254" y="1101"/>
  <text style="fill:rgb(128,128,128);stroke:none;" x="254" y="1113">PEX6</text>
  <rect height="12" style="fill:rgb(255,255,255);stroke:none;" width="42" x="254" y="1116"/>
  <text style="fill:rgb(128,128,128);stroke:none;" x="254" y="1128">RBM14</text>
  <rect height="12" style="fill:rgb(255,255,255);stroke:none;" width="40" x="254" y="1131"/>
  <text style="fill:rgb(128,128,128);stroke:none;" x="254" y="1143">ABCB6</text>
  <rect height="12" style="fill:rgb(255,255,255);stroke:none;" width="43" x="254" y="1146"/>
  <text style="fill:rgb(128,128,128);stroke:none;" x="254" y="1158">GMPR2</text>
  <rect height="12" style="fill:rgb(255,255,255);stroke:none;" width="44" x="254" y="1161"/>
  <text style="fill:rgb(128,128,128);stroke:none;" x="254" y="1173">HMGCR</text>
  <rect height="12" style="fill:rgb(255,255,255);stroke:none;" width="47" x="254" y="1176"/>
  <text style="fill:rgb(128,128,128);stroke:none;" x="254" y="1188">AKR1C3</text>
  <rect height="12" style="fill:rgb(255,255,255);stroke:none;" width="42" x="268" y="1191"/>
  <text style="fill:rgb(128,128,128);stroke:none;" x="268" y="1203">NUDT3</text>
  <rect height="12" style="fill:rgb(255,255,255);stroke:none;" width="41" x="268" y="1206"/>
  <text style="fill:rgb(128,128,128);stroke:none;" x="268" y="1218">UBXN8</text>
  <rect height="12" style="fill:rgb(255,255,255);stroke:none;" width="38" x="268" y="1221"/>
  <text style="fill:rgb(128,128,128);stroke:none;" x="268" y="1233">TFCP2</text>
  <rect height="12" style="fill:rgb(255,255,255);stroke:none;" width="42" x="268" y="1236"/>
  <text style="fill:rgb(128,128,128);stroke:none;" x="268" y="1248">PDCD2</text>
  <rect height="12" style="fill:rgb(255,255,255);stroke:none;" width="46" x="268" y="1251"/>
  <text style="fill:rgb(128,128,128);stroke:none;" x="268" y="1263">MINPP1</text>
  <rect height="11" style="fill:rgb(255,255,255);stroke:none;" width="37" x="283" y="1266"/>
  <text style="fill:rgb(128,128,128);stroke:none;font-size:11px;" x="283" y="1277">BRCA1</text>
  <rect height="11" style="fill:rgb(255,255,255);stroke:none;" width="35" x="283" y="1280"/>
  <text style="fill:rgb(128,128,128);stroke:none;font-size:11px;" x="283" y="1291">TBL1X</text>
  <rect height="11" style="fill:rgb(255,255,255);stroke:none;" width="45" x="283" y="1294"/>
  <text style="fill:rgb(128,128,128);stroke:none;font-size:11px;" x="283" y="1305">DHCR24</text>
  <rect height="11" style="fill:rgb(255,255,255);stroke:none;" width="40" x="297" y="1308"/>
  <text style="fill:rgb(128,128,128);stroke:none;font-size:11px;" x="297" y="1319">SOCS2</text>
  <rect height="11" style="fill:rgb(255,255,255);stroke:none;" width="50" x="312" y="1322"/>
  <text style="fill:rgb(128,128,128);stroke:none;font-size:11px;" x="312" y="1333">CYP51A1</text>
  <rect height="11" style="fill:rgb(255,255,255);stroke:none;" width="34" x="341" y="1336"/>
  <text style="fill:rgb(128,128,128);stroke:none;font-size:11px;" x="341" y="1347">GMDS</text>
  <rect height="11" style="fill:rgb(255,255,255);stroke:none;" width="35" x="341" y="1350"/>
  <text style="fill:rgb(128,128,128);stroke:none;font-size:11px;" x="341" y="1361">FKBP5</text>
  <rect height="11" style="fill:rgb(255,255,255);stroke:none;" width="30" x="356" y="1364"/>
  <text style="fill:rgb(128,128,128);stroke:none;font-size:11px;" x="356" y="1375">CD36</text>
  <rect height="11" style="fill:rgb(255,255,255);stroke:none;" width="22" x="370" y="1378"/>
  <text style="fill:rgb(128,128,128);stroke:none;font-size:11px;" x="370" y="1389">CFH</text>
  <rect height="11" style="fill:rgb(255,255,255);stroke:none;" width="44" x="370" y="1392"/>
  <text style="fill:rgb(128,128,128);stroke:none;font-size:11px;" x="370" y="1403">HDGFL3</text>
  <rect height="11" style="fill:rgb(255,255,255);stroke:none;" width="44" x="400" y="1406"/>
  <text style="fill:rgb(128,128,128);stroke:none;font-size:11px;" x="400" y="1417">UBE2E1</text>
</svg>
