<?xml version="1.0" encoding="UTF-8" standalone="no"?>
<!DOCTYPE svg PUBLIC "-//W3C//DTD SVG 1.1//EN" "http://www.w3.org/Graphics/SVG/1.1/DTD/svg11.dtd">
<svg xmlns:xlink="http://www.w3.org/1999/xlink" height="158.74999999999997mm" version="1.1" viewBox="0 0 500 600" width="132.29166666666666mm" x="0mm" y="0mm" xmlns="http://www.w3.org/2000/svg">
  <rect height="1200" style="fill:rgb(255,255,255);stroke:none;" width="1000" x="0" y="0"/>
  <rect height="240" style="fill:rgb(191,191,191);fill-opacity:0.4980392156862745;stroke:none;" width="175" x="225" y="60"/>
  <line style="fill:none;stroke:rgb(63,63,191);stroke-opacity:0.24705882352941178;stroke-miterlimit:10;stroke-linecap:square;" x1="50" x2="50" y1="300" y2="300"/>
  <line style="fill:none;stroke:rgb(63,63,191);stroke-opacity:0.24705882352941178;stroke-miterlimit:10;stroke-linecap:square;" x1="50" x2="64" y1="300" y2="290"/>
  <line style="fill:none;stroke:rgb(63,63,191);stroke-opacity:0.24705882352941178;stroke-miterlimit:10;stroke-linecap:square;" x1="64" x2="79" y1="290" y2="280"/>
  <line style="fill:none;stroke:rgb(63,63,191);stroke-opacity:0.24705882352941178;stroke-miterlimit:10;stroke-linecap:square;" x1="79" x2="93" y1="280" y2="270"/>
  <line style="fill:none;stroke:rgb(63,63,191);stroke-opacity:0.24705882352941178;stroke-miterlimit:10;stroke-linecap:square;" x1="93" x2="108" y1="270" y2="260"/>
  <line style="fill:none;stroke:rgb(63,63,191);stroke-opacity:0.24705882352941178;stroke-miterlimit:10;stroke-linecap:square;" x1="108" x2="122" y1="260" y2="250"/>
  <line style="fill:none;stroke:rgb(63,63,191);stroke-opacity:0.24705882352941178;stroke-miterlimit:10;stroke-linecap:square;" x1="122" x2="137" y1="250" y2="240"/>
  <line style="fill:none;stroke:rgb(63,63,191);stroke-opacity:0.24705882352941178;stroke-miterlimit:10;stroke-linecap:square;" x1="137" x2="152" y1="240" y2="230"/>
  <line style="fill:none;stroke:rgb(63,63,191);stroke-opacity:0.24705882352941178;stroke-miterlimit:10;stroke-linecap:square;" x1="152" x2="166" y1="230" y2="220"/>
  <line style="fill:none;stroke:rgb(63,63,191);stroke-opacity:0.24705882352941178;stroke-miterlimit:10;stroke-linecap:square;" x1="166" x2="181" y1="220" y2="210"/>
  <line style="fill:none;stroke:rgb(63,63,191);stroke-opacity:0.24705882352941178;stroke-miterlimit:10;stroke-linecap:square;" x1="181" x2="195" y1="210" y2="200"/>
  <line style="fill:none;stroke:rgb(63,63,191);stroke-opacity:0.24705882352941178;stroke-miterlimit:10;stroke-linecap:square;" x1="195" x2="210" y1="200" y2="190"/>
  <line style="fill:none;stroke:rgb(63,63,191);stroke-opacity:0.24705882352941178;stroke-miterlimit:10;stroke-linecap:square;" x1="210" x2="225" y1="190" y2="180"/>
  <line style="fill:none;stroke:rgb(63,63,191);stroke-opacity:0.24705882352941178;stroke-miterlimit:10;stroke-linecap:square;" x1="225" x2="239" y1="180" y2="170"/>
  <line style="fill:none;stroke:rgb(63,63,191);stroke-opacity:0.24705882352941178;stroke-miterlimit:10;stroke-linecap:square;" x1="239" x2="254" y1="170" y2="160"/>
  <line style="fill:none;stroke:rgb(63,63,191);stroke-opacity:0.24705882352941178;stroke-miterlimit:10;stroke-linecap:square;" x1="254" x2="268" y1="160" y2="150"/>
  <line style="fill:none;stroke:rgb(63,63,191);stroke-opacity:0.24705882352941178;stroke-miterlimit:10;stroke-linecap:square;" x1="268" x2="283" y1="150" y2="140"/>
  <line style="fill:none;stroke:rgb(63,63,191);stroke-opacity:0.24705882352941178;stroke-miterlimit:10;stroke-linecap:square;" x1="283" x2="297" y1="140" y2="130"/>
  <line style="fill:none;stroke:rgb(63,63,191);stroke-opacity:0.24705882352941178;stroke-miterlimit:10;stroke-linecap:square;" x1="297" x2="312" y1="130" y2="120"/>
  <line style="fill:none;stroke:rgb(63,63,191);stroke-opacity:0.24705882352941178;stroke-miterlimit:10;stroke-linecap:square;" x1="312" x2="327" y1="120" y2="110"/>
  <line style="fill:none;stroke:rgb(63,63,191);stroke-opacity:0.24705882352941178;stroke-miterlimit:10;stroke-linecap:square;" x1="327" x2="341" y1="110" y2="100"/>
  <line style="fill:none;stroke:rgb(63,63,191);stroke-opacity:0.24705882352941178;stroke-miterlimit:10;stroke-linecap:square;" x1="341" x2="356" y1="100" y2="90"/>
  <line style="fill:none;stroke:rgb(63,63,191);stroke-opacity:0.24705882352941178;stroke-miterlimit:10;stroke-linecap:square;" x1="356" x2="370" y1="90" y2="80"/>
  <line style="fill:none;stroke:rgb(63,63,191);stroke-opacity:0.24705882352941178;stroke-miterlimit:10;stroke-linecap:square;" x1="370" x2="385" y1="80" y2="70"/>
  <line style="fill:none;stroke:rgb(63,63,191);stroke-opacity:0.24705882352941178;stroke-miterlimit:10;stroke-linecap:square;" x1="385" x2="400" y1="70" y2="60"/>
  <line style="fill:none;stroke:rgb(63,63,191);stroke-opacity:0.24705882352941178;stroke-miterlimit:10;stroke-linecap:square;" x1="400" x2="400" y1="60" y2="60"/>
  <rect height="8" style="fill:rgb(255,127,0);fill-opacity:0.7490196078431373;stroke:none;" width="4" x="48" y="291"/>
  <line style="fill:none;stroke:rgb(255,127,0);stroke-opacity:0.24705882352941178;stroke-width:2;stroke-miterlimit:10;stroke-linecap:square;" x1="50" x2="50" y1="300" y2="300"/>
  <line style="fill:none;stroke:rgb(255,127,0);stroke-opacity:0.24705882352941178;stroke-width:2;stroke-miterlimit:10;stroke-linecap:square;" x1="50" x2="50" y1="298" y2="293"/>
  <rect height="19" style="fill:rgb(255,127,0);fill-opacity:0.7490196078431373;stroke:none;" width="4" x="62" y="280"/>
  <line style="fill:none;stroke:rgb(255,127,0);stroke-opacity:0.24705882352941178;stroke-width:2;stroke-miterlimit:10;stroke-linecap:square;" x1="50" x2="64" y1="291" y2="291"/>
  <line style="fill:none;stroke:rgb(255,127,0);stroke-opacity:0.24705882352941178;stroke-width:2;stroke-miterlimit:10;stroke-linecap:square;" x1="64" x2="64" y1="289" y2="274"/>
  <rect height="16" style="fill:rgb(255,127,0);fill-opacity:0.7490196078431373;stroke:none;" width="4" x="77" y="283"/>
  <line style="fill:none;stroke:rgb(255,127,0);stroke-opacity:0.24705882352941178;stroke-width:2;stroke-miterlimit:10;stroke-linecap:square;" x1="64" x2="79" y1="272" y2="272"/>
  <line style="fill:none;stroke:rgb(255,127,0);stroke-opacity:0.24705882352941178;stroke-width:2;stroke-miterlimit:10;stroke-linecap:square;" x1="79" x2="79" y1="270" y2="258"/>
  <rect height="8" style="fill:rgb(255,127,0);fill-opacity:0.7490196078431373;stroke:none;" width="4" x="91" y="291"/>
  <line style="fill:none;stroke:rgb(255,127,0);stroke-opacity:0.24705882352941178;stroke-width:2;stroke-miterlimit:10;stroke-linecap:square;" x1="79" x2="93" y1="256" y2="256"/>
  <line style="fill:none;stroke:rgb(255,127,0);stroke-opacity:0.24705882352941178;stroke-width:2;stroke-miterlimit:10;stroke-linecap:square;" x1="93" x2="93" y1="254" y2="250"/>
  <rect height="8" style="fill:rgb(255,127,0);fill-opacity:0.7490196078431373;stroke:none;" width="4" x="106" y="291"/>
  <line style="fill:none;stroke:rgb(255,127,0);stroke-opacity:0.24705882352941178;stroke-width:2;stroke-miterlimit:10;stroke-linecap:square;" x1="93" x2="108" y1="248" y2="248"/>
  <line style="fill:none;stroke:rgb(255,127,0);stroke-opacity:0.24705882352941178;stroke-width:2;stroke-miterlimit:10;stroke-linecap:square;" x1="108" x2="108" y1="246" y2="242"/>
  <rect height="5" style="fill:rgb(255,127,0);fill-opacity:0.7490196078431373;stroke:none;" width="4" x="120" y="294"/>
  <line style="fill:none;stroke:rgb(255,127,0);stroke-opacity:0.24705882352941178;stroke-width:2;stroke-miterlimit:10;stroke-linecap:square;" x1="108" x2="122" y1="240" y2="240"/>
  <line style="fill:none;stroke:rgb(255,127,0);stroke-opacity:0.24705882352941178;stroke-width:2;stroke-miterlimit:10;stroke-linecap:square;" x1="122" x2="122" y1="238" y2="236"/>
  <rect height="5" style="fill:rgb(255,127,0);fill-opacity:0.7490196078431373;stroke:none;" width="4" x="135" y="294"/>
  <line style="fill:none;stroke:rgb(255,127,0);stroke-opacity:0.24705882352941178;stroke-width:2;stroke-miterlimit:10;stroke-linecap:square;" x1="122" x2="137" y1="234" y2="234"/>
  <line style="fill:none;stroke:rgb(255,127,0);stroke-opacity:0.24705882352941178;stroke-width:2;stroke-miterlimit:10;stroke-linecap:square;" x1="137" x2="137" y1="232" y2="231"/>
  <rect height="5" style="fill:rgb(255,127,0);fill-opacity:0.7490196078431373;stroke:none;" width="4" x="150" y="294"/>
  <line style="fill:none;stroke:rgb(255,127,0);stroke-opacity:0.24705882352941178;stroke-width:2;stroke-miterlimit:10;stroke-linecap:square;" x1="137" x2="152" y1="229" y2="229"/>
  <line style="fill:none;stroke:rgb(255,127,0);stroke-opacity:0.24705882352941178;stroke-width:2;stroke-miterlimit:10;stroke-linecap:square;" x1="152" x2="152" y1="227" y2="225"/>
  <rect height="8" style="fill:rgb(255,127,0);fill-opacity:0.7490196078431373;stroke:none;" width="4" x="164" y="291"/>
  <line style="fill:none;stroke:rgb(255,127,0);stroke-opacity:0.24705882352941178;stroke-width:2;stroke-miterlimit:10;stroke-linecap:square;" x1="152" x2="166" y1="223" y2="223"/>
  <line style="fill:none;stroke:rgb(255,127,0);stroke-opacity:0.24705882352941178;stroke-width:2;stroke-miterlimit:10;stroke-linecap:square;" x1="166" x2="166" y1="221" y2="217"/>
  <rect height="24" style="fill:rgb(255,127,0);fill-opacity:0.7490196078431373;stroke:none;" width="4" x="193" y="275"/>
  <line style="fill:none;stroke:rgb(255,127,0);stroke-opacity:0.24705882352941178;stroke-width:2;stroke-miterlimit:10;stroke-linecap:square;" x1="166" x2="195" y1="215" y2="215"/>
  <line style="fill:none;stroke:rgb(255,127,0);stroke-opacity:0.24705882352941178;stroke-width:2;stroke-miterlimit:10;stroke-linecap:square;" x1="195" x2="195" y1="213" y2="192"/>
  <rect height="21" style="fill:rgb(255,127,0);fill-opacity:0.7490196078431373;stroke:none;" width="4" x="208" y="278"/>
  <line style="fill:none;stroke:rgb(255,127,0);stroke-opacity:0.24705882352941178;stroke-width:2;stroke-miterlimit:10;stroke-linecap:square;" x1="195" x2="210" y1="190" y2="190"/>
  <line style="fill:none;stroke:rgb(255,127,0);stroke-opacity:0.24705882352941178;stroke-width:2;stroke-miterlimit:10;stroke-linecap:square;" x1="210" x2="210" y1="188" y2="171"/>
  <rect height="27" style="fill:rgb(255,127,0);fill-opacity:0.7490196078431373;stroke:none;" width="4" x="223" y="272"/>
  <line style="fill:none;stroke:rgb(255,127,0);stroke-opacity:0.24705882352941178;stroke-width:2;stroke-miterlimit:10;stroke-linecap:square;" x1="210" x2="225" y1="169" y2="169"/>
  <line style="fill:none;stroke:rgb(255,127,0);stroke-opacity:0.24705882352941178;stroke-width:2;stroke-miterlimit:10;stroke-linecap:square;" x1="225" x2="225" y1="167" y2="143"/>
  <rect height="10" style="fill:rgb(255,127,0);fill-opacity:0.7490196078431373;stroke:none;" width="4" x="237" y="289"/>
  <line style="fill:none;stroke:rgb(255,127,0);stroke-opacity:0.24705882352941178;stroke-width:2;stroke-miterlimit:10;stroke-linecap:square;" x1="225" x2="239" y1="141" y2="141"/>
  <line style="fill:none;stroke:rgb(255,127,0);stroke-opacity:0.24705882352941178;stroke-width:2;stroke-miterlimit:10;stroke-linecap:square;" x1="239" x2="239" y1="139" y2="132"/>
  <rect height="21" style="fill:rgb(255,127,0);fill-opacity:0.7490196078431373;stroke:none;" width="4" x="252" y="278"/>
  <line style="fill:none;stroke:rgb(255,127,0);stroke-opacity:0.24705882352941178;stroke-width:2;stroke-miterlimit:10;stroke-linecap:square;" x1="239" x2="254" y1="130" y2="130"/>
  <line style="fill:none;stroke:rgb(255,127,0);stroke-opacity:0.24705882352941178;stroke-width:2;stroke-miterlimit:10;stroke-linecap:square;" x1="254" x2="254" y1="128" y2="111"/>
  <rect height="8" style="fill:rgb(255,127,0);fill-opacity:0.7490196078431373;stroke:none;" width="4" x="266" y="291"/>
  <line style="fill:none;stroke:rgb(255,127,0);stroke-opacity:0.24705882352941178;stroke-width:2;stroke-miterlimit:10;stroke-linecap:square;" x1="254" x2="268" y1="109" y2="109"/>
  <line style="fill:none;stroke:rgb(255,127,0);stroke-opacity:0.24705882352941178;stroke-width:2;stroke-miterlimit:10;stroke-linecap:square;" x1="268" x2="268" y1="107" y2="102"/>
  <rect height="16" style="fill:rgb(255,127,0);fill-opacity:0.7490196078431373;stroke:none;" width="4" x="281" y="283"/>
  <line style="fill:none;stroke:rgb(255,127,0);stroke-opacity:0.24705882352941178;stroke-width:2;stroke-miterlimit:10;stroke-linecap:square;" x1="268" x2="283" y1="100" y2="100"/>
  <line style="fill:none;stroke:rgb(255,127,0);stroke-opacity:0.24705882352941178;stroke-width:2;stroke-miterlimit:10;stroke-linecap:square;" x1="283" x2="283" y1="98" y2="86"/>
  <rect height="2" style="fill:rgb(255,127,0);fill-opacity:0.7490196078431373;stroke:none;" width="4" x="295" y="297"/>
  <line style="fill:none;stroke:rgb(255,127,0);stroke-opacity:0.24705882352941178;stroke-width:2;stroke-miterlimit:10;stroke-linecap:square;" x1="283" x2="297" y1="84" y2="84"/>
  <line style="fill:none;stroke:rgb(255,127,0);stroke-opacity:0.24705882352941178;stroke-width:2;stroke-miterlimit:10;stroke-linecap:square;" x1="297" x2="297" y1="82" y2="83"/>
  <rect height="8" style="fill:rgb(255,127,0);fill-opacity:0.7490196078431373;stroke:none;" width="4" x="339" y="291"/>
  <line style="fill:none;stroke:rgb(255,127,0);stroke-opacity:0.24705882352941178;stroke-width:2;stroke-miterlimit:10;stroke-linecap:square;" x1="297" x2="341" y1="81" y2="81"/>
  <line style="fill:none;stroke:rgb(255,127,0);stroke-opacity:0.24705882352941178;stroke-width:2;stroke-miterlimit:10;stroke-linecap:square;" x1="341" x2="341" y1="79" y2="75"/>
  <rect height="2" style="fill:rgb(255,127,0);fill-opacity:0.7490196078431373;stroke:none;" width="4" x="354" y="297"/>
  <line style="fill:none;stroke:rgb(255,127,0);stroke-opacity:0.24705882352941178;stroke-width:2;stroke-miterlimit:10;stroke-linecap:square;" x1="341" x2="356" y1="73" y2="73"/>
  <line style="fill:none;stroke:rgb(255,127,0);stroke-opacity:0.24705882352941178;stroke-width:2;stroke-miterlimit:10;stroke-linecap:square;" x1="356" x2="356" y1="71" y2="72"/>
  <rect height="5" style="fill:rgb(255,127,0);fill-opacity:0.7490196078431373;stroke:none;" width="4" x="383" y="294"/>
  <line style="fill:none;stroke:rgb(255,127,0);stroke-opacity:0.24705882352941178;stroke-width:2;stroke-miterlimit:10;stroke-linecap:square;" x1="356" x2="385" y1="70" y2="70"/>
  <line style="fill:none;stroke:rgb(255,127,0);stroke-opacity:0.24705882352941178;stroke-width:2;stroke-miterlimit:10;stroke-linecap:square;" x1="385" x2="385" y1="68" y2="67"/>
  <rect height="5" style="fill:rgb(255,127,0);fill-opacity:0.7490196078431373;stroke:none;" width="4" x="398" y="294"/>
  <line style="fill:none;stroke:rgb(255,127,0);stroke-opacity:0.24705882352941178;stroke-width:2;stroke-miterlimit:10;stroke-linecap:square;" x1="385" x2="400" y1="65" y2="65"/>
  <line style="fill:none;stroke:rgb(255,127,0);stroke-opacity:0.24705882352941178;stroke-width:2;stroke-miterlimit:10;stroke-linecap:square;" x1="400" x2="400" y1="63" y2="62"/>
  <line style="fill:none;stroke:rgb(255,127,0);stroke-opacity:0.24705882352941178;stroke-width:2;stroke-miterlimit:10;stroke-linecap:square;" x1="400" x2="400" y1="60" y2="60"/>
  <line style="fill:none;stroke:rgb(255,127,0);stroke-opacity:0.4980392156862745;stroke-miterlimit:2;stroke-dasharray:2;" x1="50" x2="50" y1="300" y2="350"/>
  <line style="fill:none;stroke:rgb(255,127,0);stroke-opacity:0.4980392156862745;stroke-miterlimit:2;stroke-dasharray:2;" x1="50" x2="50" y1="300" y2="364"/>
  <line style="fill:none;stroke:rgb(255,127,0);stroke-opacity:0.4980392156862745;stroke-miterlimit:2;stroke-dasharray:2;" x1="50" x2="50" y1="300" y2="378"/>
  <line style="fill:none;stroke:rgb(255,127,0);stroke-opacity:0.4980392156862745;stroke-miterlimit:2;stroke-dasharray:2;" x1="64" x2="64" y1="300" y2="392"/>
  <line style="fill:none;stroke:rgb(255,127,0);stroke-opacity:0.4980392156862745;stroke-miterlimit:2;stroke-dasharray:2;" x1="64" x2="64" y1="300" y2="406"/>
  <line style="fill:none;stroke:rgb(255,127,0);stroke-opacity:0.4980392156862745;stroke-miterlimit:2;stroke-dasharray:2;" x1="64" x2="64" y1="300" y2="420"/>
  <line style="fill:none;stroke:rgb(255,127,0);stroke-opacity:0.4980392156862745;stroke-miterlimit:2;stroke-dasharray:2;" x1="64" x2="64" y1="300" y2="434"/>
  <line style="fill:none;stroke:rgb(255,127,0);stroke-opacity:0.4980392156862745;stroke-miterlimit:2;stroke-dasharray:2;" x1="64" x2="64" y1="300" y2="448"/>
  <line style="fill:none;stroke:rgb(255,127,0);stroke-opacity:0.4980392156862745;stroke-miterlimit:2;stroke-dasharray:2;" x1="64" x2="64" y1="300" y2="462"/>
  <line style="fill:none;stroke:rgb(255,127,0);stroke-opacity:0.4980392156862745;stroke-miterlimit:2;stroke-dasharray:2;" x1="64" x2="64" y1="300" y2="476"/>
  <line style="fill:none;stroke:rgb(255,127,0);stroke-opacity:0.4980392156862745;stroke-miterlimit:2;stroke-dasharray:2;" x1="79" x2="79" y1="300" y2="490"/>
  <line style="fill:none;stroke:rgb(255,127,0);stroke-opacity:0.4980392156862745;stroke-miterlimit:2;stroke-dasharray:2;" x1="79" x2="79" y1="300" y2="504"/>
  <line style="fill:none;stroke:rgb(255,127,0);stroke-opacity:0.4980392156862745;stroke-miterlimit:2;stroke-dasharray:2;" x1="79" x2="79" y1="300" y2="518"/>
  <line style="fill:none;stroke:rgb(255,127,0);stroke-opacity:0.4980392156862745;stroke-miterlimit:2;stroke-dasharray:2;" x1="79" x2="79" y1="300" y2="532"/>
  <line style="fill:none;stroke:rgb(255,127,0);stroke-opacity:0.4980392156862745;stroke-miterlimit:2;stroke-dasharray:2;" x1="79" x2="79" y1="300" y2="546"/>
  <line style="fill:none;stroke:rgb(255,127,0);stroke-opacity:0.4980392156862745;stroke-miterlimit:2;stroke-dasharray:2;" x1="79" x2="79" y1="300" y2="560"/>
  <line style="fill:none;stroke:rgb(255,127,0);stroke-opacity:0.4980392156862745;stroke-miterlimit:2;stroke-dasharray:2;" x1="93" x2="93" y1="300" y2="574"/>
  <line style="fill:none;stroke:rgb(255,127,0);stroke-opacity:0.4980392156862745;stroke-miterlimit:2;stroke-dasharray:2;" x1="93" x2="93" y1="300" y2="588"/>
  <line style="fill:none;stroke:rgb(255,127,0);stroke-opacity:0.4980392156862745;stroke-miterlimit:2;stroke-dasharray:2;" x1="93" x2="93" y1="300" y2="602"/>
  <line style="fill:none;stroke:rgb(255,127,0);stroke-opacity:0.4980392156862745;stroke-miterlimit:2;stroke-dasharray:2;" x1="108" x2="108" y1="300" y2="616"/>
  <line style="fill:none;stroke:rgb(255,127,0);stroke-opacity:0.4980392156862745;stroke-miterlimit:2;stroke-dasharray:2;" x1="108" x2="108" y1="300" y2="630"/>
  <line style="fill:none;stroke:rgb(255,127,0);stroke-opacity:0.4980392156862745;stroke-miterlimit:2;stroke-dasharray:2;" x1="108" x2="108" y1="300" y2="644"/>
  <line style="fill:none;stroke:rgb(255,127,0);stroke-opacity:0.4980392156862745;stroke-miterlimit:2;stroke-dasharray:2;" x1="122" x2="122" y1="300" y2="658"/>
  <line style="fill:none;stroke:rgb(255,127,0);stroke-opacity:0.4980392156862745;stroke-miterlimit:2;stroke-dasharray:2;" x1="122" x2="122" y1="300" y2="672"/>
  <line style="fill:none;stroke:rgb(255,127,0);stroke-opacity:0.4980392156862745;stroke-miterlimit:2;stroke-dasharray:2;" x1="137" x2="137" y1="300" y2="686"/>
  <line style="fill:none;stroke:rgb(255,127,0);stroke-opacity:0.4980392156862745;stroke-miterlimit:2;stroke-dasharray:2;" x1="137" x2="137" y1="300" y2="700"/>
  <line style="fill:none;stroke:rgb(255,127,0);stroke-opacity:0.4980392156862745;stroke-miterlimit:2;stroke-dasharray:2;" x1="152" x2="152" y1="300" y2="714"/>
  <line style="fill:none;stroke:rgb(255,127,0);stroke-opacity:0.4980392156862745;stroke-miterlimit:2;stroke-dasharray:2;" x1="152" x2="152" y1="300" y2="728"/>
  <line style="fill:none;stroke:rgb(255,127,0);stroke-opacity:0.4980392156862745;stroke-miterlimit:2;stroke-dasharray:2;" x1="166" x2="166" y1="300" y2="742"/>
  <line style="fill:none;stroke:rgb(255,127,0);stroke-opacity:0.4980392156862745;stroke-miterlimit:2;stroke-dasharray:2;" x1="166" x2="166" y1="300" y2="756"/>
  <line style="fill:none;stroke:rgb(255,127,0);stroke-opacity:0.4980392156862745;stroke-miterlimit:2;stroke-dasharray:2;" x1="166" x2="166" y1="300" y2="770"/>
  <line style="fill:none;stroke:rgb(255,127,0);stroke-opacity:0.4980392156862745;stroke-miterlimit:2;stroke-dasharray:2;" x1="195" x2="195" y1="300" y2="785"/>
  <line style="fill:none;stroke:rgb(255,127,0);stroke-opacity:0.4980392156862745;stroke-miterlimit:2;stroke-dasharray:2;" x1="195" x2="195" y1="300" y2="800"/>
  <line style="fill:none;stroke:rgb(255,127,0);stroke-opacity:0.4980392156862745;stroke-miterlimit:2;stroke-dasharray:2;" x1="195" x2="195" y1="300" y2="815"/>
  <line style="fill:none;stroke:rgb(255,127,0);stroke-opacity:0.4980392156862745;stroke-miterlimit:2;stroke-dasharray:2;" x1="195" x2="195" y1="300" y2="830"/>
  <line style="fill:none;stroke:rgb(255,127,0);stroke-opacity:0.4980392156862745;stroke-miterlimit:2;stroke-dasharray:2;" x1="195" x2="195" y1="300" y2="845"/>
  <line style="fill:none;stroke:rgb(255,127,0);stroke-opacity:0.4980392156862745;stroke-miterlimit:2;stroke-dasharray:2;" x1="195" x2="195" y1="300" y2="860"/>
  <line style="fill:none;stroke:rgb(255,127,0);stroke-opacity:0.4980392156862745;stroke-miterlimit:2;stroke-dasharray:2;" x1="195" x2="195" y1="300" y2="875"/>
  <line style="fill:none;stroke:rgb(255,127,0);stroke-opacity:0.4980392156862745;stroke-miterlimit:2;stroke-dasharray:2;" x1="195" x2="195" y1="300" y2="890"/>
  <line style="fill:none;stroke:rgb(255,127,0);stroke-opacity:0.4980392156862745;stroke-miterlimit:2;stroke-dasharray:2;" x1="195" x2="195" y1="300" y2="905"/>
  <line style="fill:none;stroke:rgb(255,127,0);stroke-opacity:0.4980392156862745;stroke-miterlimit:2;stroke-dasharray:2;" x1="210" x2="210" y1="300" y2="920"/>
  <line style="fill:none;stroke:rgb(255,127,0);stroke-opacity:0.4980392156862745;stroke-miterlimit:2;stroke-dasharray:2;" x1="210" x2="210" y1="300" y2="935"/>
  <line style="fill:none;stroke:rgb(255,127,0);stroke-opacity:0.4980392156862745;stroke-miterlimit:2;stroke-dasharray:2;" x1="210" x2="210" y1="300" y2="950"/>
  <line style="fill:none;stroke:rgb(255,127,0);stroke-opacity:0.4980392156862745;stroke-miterlimit:2;stroke-dasharray:2;" x1="210" x2="210" y1="300" y2="965"/>
  <line style="fill:none;stroke:rgb(255,127,0);stroke-opacity:0.4980392156862745;stroke-miterlimit:2;stroke-dasharray:2;" x1="210" x2="210" y1="300" y2="980"/>
  <line style="fill:none;stroke:rgb(255,127,0);stroke-opacity:0.4980392156862745;stroke-miterlimit:2;stroke-dasharray:2;" x1="210" x2="210" y1="300" y2="995"/>
  <line style="fill:none;stroke:rgb(255,127,0);stroke-opacity:0.4980392156862745;stroke-miterlimit:2;stroke-dasharray:2;" x1="210" x2="210" y1="300" y2="1010"/>
  <line style="fill:none;stroke:rgb(255,127,0);stroke-opacity:0.4980392156862745;stroke-miterlimit:2;stroke-dasharray:2;" x1="210" x2="210" y1="300" y2="1025"/>
  <line style="fill:none;stroke:rgb(255,127,0);stroke-opacity:0.4980392156862745;stroke-miterlimit:2;stroke-dasharray:2;" x1="225" x2="225" y1="300" y2="1040"/>
  <line style="fill:none;stroke:rgb(255,127,0);stroke-opacity:0.4980392156862745;stroke-miterlimit:2;stroke-dasharray:2;" x1="225" x2="225" y1="300" y2="1055"/>
  <line style="fill:none;stroke:rgb(255,127,0);stroke-opacity:0.4980392156862745;stroke-miterlimit:2;stroke-dasharray:2;" x1="225" x2="225" y1="300" y2="1070"/>
  <line style="fill:none;stroke:rgb(255,127,0);stroke-opacity:0.4980392156862745;stroke-miterlimit:2;stroke-dasharray:2;" x1="225" x2="225" y1="300" y2="1085"/>
  <line style="fill:none;stroke:rgb(255,127,0);stroke-opacity:0.4980392156862745;stroke-miterlimit:2;stroke-dasharray:2;" x1="225" x2="225" y1="300" y2="1100"/>
  <line style="fill:none;stroke:rgb(255,127,0);stroke-opacity:0.4980392156862745;stroke-miterlimit:2;stroke-dasharray:2;" x1="225" x2="225" y1="300" y2="1115"/>
  <line style="fill:none;stroke:rgb(255,127,0);stroke-opacity:0.4980392156862745;stroke-miterlimit:2;stroke-dasharray:2;" x1="225" x2="225" y1="300" y2="1130"/>
  <line style="fill:none;stroke:rgb(255,127,0);stroke-opacity:0.4980392156862745;stroke-miterlimit:2;stroke-dasharray:2;" x1="225" x2="225" y1="300" y2="1145"/>
  <line style="fill:none;stroke:rgb(255,127,0);stroke-opacity:0.4980392156862745;stroke-miterlimit:2;stroke-dasharray:2;" x1="225" x2="225" y1="300" y2="1160"/>
  <line style="fill:none;stroke:rgb(255,127,0);stroke-opacity:0.4980392156862745;stroke-miterlimit:2;stroke-dasharray:2;" x1="225" x2="225" y1="300" y2="1175"/>
  <line style="fill:none;stroke:rgb(255,127,0);stroke-opacity:0.4980392156862745;stroke-miterlimit:2;stroke-dasharray:2;" x1="239" x2="239" y1="300" y2="1190"/>
  <line style="fill:none;stroke:rgb(255,127,0);stroke-opacity:0.4980392156862745;stroke-miterlimit:2;stroke-dasharray:2;" x1="239" x2="239" y1="300" y2="1205"/>
  <line style="fill:none;stroke:rgb(255,127,0);stroke-opacity:0.4980392156862745;stroke-miterlimit:2;stroke-dasharray:2;" x1="239" x2="239" y1="300" y2="1220"/>
  <line style="fill:none;stroke:rgb(255,127,0);stroke-opacity:0.4980392156862745;stroke-miterlimit:2;stroke-dasharray:2;" x1="239" x2="239" y1="300" y2="1235"/>
  <line style="fill:none;stroke:rgb(255,127,0);stroke-opacity:0.4980392156862745;stroke-miterlimit:2;stroke-dasharray:2;" x1="254" x2="254" y1="300" y2="1250"/>
  <line style="fill:none;stroke:rgb(255,127,0);stroke-opacity:0.4980392156862745;stroke-miterlimit:2;stroke-dasharray:2;" x1="254" x2="254" y1="300" y2="1265"/>
  <line style="fill:none;stroke:rgb(255,127,0);stroke-opacity:0.4980392156862745;stroke-miterlimit:2;stroke-dasharray:2;" x1="254" x2="254" y1="300" y2="1280"/>
  <line style="fill:none;stroke:rgb(255,127,0);stroke-opacity:0.4980392156862745;stroke-miterlimit:2;stroke-dasharray:2;" x1="254" x2="254" y1="300" y2="1295"/>
  <line style="fill:none;stroke:rgb(255,127,0);stroke-opacity:0.4980392156862745;stroke-miterlimit:2;stroke-dasharray:2;" x1="254" x2="254" y1="300" y2="1310"/>
  <line style="fill:none;stroke:rgb(255,127,0);stroke-opacity:0.4980392156862745;stroke-miterlimit:2;stroke-dasharray:2;" x1="254" x2="254" y1="300" y2="1325"/>
  <line style="fill:none;stroke:rgb(255,127,0);stroke-opacity:0.4980392156862745;stroke-miterlimit:2;stroke-dasharray:2;" x1="254" x2="254" y1="300" y2="1340"/>
  <line style="fill:none;stroke:rgb(255,127,0);stroke-opacity:0.4980392156862745;stroke-miterlimit:2;stroke-dasharray:2;" x1="254" x2="254" y1="300" y2="1355"/>
  <line style="fill:none;stroke:rgb(255,127,0);stroke-opacity:0.4980392156862745;stroke-miterlimit:2;stroke-dasharray:2;" x1="268" x2="268" y1="300" y2="1370"/>
  <line style="fill:none;stroke:rgb(255,127,0);stroke-opacity:0.4980392156862745;stroke-miterlimit:2;stroke-dasharray:2;" x1="268" x2="268" y1="300" y2="1385"/>
  <line style="fill:none;stroke:rgb(255,127,0);stroke-opacity:0.4980392156862745;stroke-miterlimit:2;stroke-dasharray:2;" x1="268" x2="268" y1="300" y2="1400"/>
  <line style="fill:none;stroke:rgb(255,127,0);stroke-opacity:0.4980392156862745;stroke-miterlimit:2;stroke-dasharray:2;" x1="283" x2="283" y1="300" y2="1415"/>
  <line style="fill:none;stroke:rgb(255,127,0);stroke-opacity:0.4980392156862745;stroke-miterlimit:2;stroke-dasharray:2;" x1="283" x2="283" y1="300" y2="1430"/>
  <line style="fill:none;stroke:rgb(255,127,0);stroke-opacity:0.4980392156862745;stroke-miterlimit:2;stroke-dasharray:2;" x1="283" x2="283" y1="300" y2="1445"/>
  <line style="fill:none;stroke:rgb(255,127,0);stroke-opacity:0.4980392156862745;stroke-miterlimit:2;stroke-dasharray:2;" x1="283" x2="283" y1="300" y2="1460"/>
  <line style="fill:none;stroke:rgb(255,127,0);stroke-opacity:0.4980392156862745;stroke-miterlimit:2;stroke-dasharray:2;" x1="283" x2="283" y1="300" y2="1475"/>
  <line style="fill:none;stroke:rgb(255,127,0);stroke-opacity:0.4980392156862745;stroke-miterlimit:2;stroke-dasharray:2;" x1="283" x2="283" y1="300" y2="1490"/>
  <line style="fill:none;stroke:rgb(255,127,0);stroke-opacity:0.4980392156862745;stroke-miterlimit:2;stroke-dasharray:2;" x1="297" x2="297" y1="300" y2="1504"/>
  <line style="fill:none;stroke:rgb(255,127,0);stroke-opacity:0.4980392156862745;stroke-miterlimit:2;stroke-dasharray:2;" x1="341" x2="341" y1="300" y2="1518"/>
  <line style="fill:none;stroke:rgb(255,127,0);stroke-opacity:0.4980392156862745;stroke-miterlimit:2;stroke-dasharray:2;" x1="341" x2="341" y1="300" y2="1532"/>
  <line style="fill:none;stroke:rgb(255,127,0);stroke-opacity:0.4980392156862745;stroke-miterlimit:2;stroke-dasharray:2;" x1="341" x2="341" y1="300" y2="1546"/>
  <line style="fill:none;stroke:rgb(255,127,0);stroke-opacity:0.4980392156862745;stroke-miterlimit:2;stroke-dasharray:2;" x1="356" x2="356" y1="300" y2="1560"/>
  <line style="fill:none;stroke:rgb(255,127,0);stroke-opacity:0.4980392156862745;stroke-miterlimit:2;stroke-dasharray:2;" x1="385" x2="385" y1="300" y2="1574"/>
  <line style="fill:none;stroke:rgb(255,127,0);stroke-opacity:0.4980392156862745;stroke-miterlimit:2;stroke-dasharray:2;" x1="385" x2="385" y1="300" y2="1588"/>
  <line style="fill:none;stroke:rgb(255,127,0);stroke-opacity:0.4980392156862745;stroke-miterlimit:2;stroke-dasharray:2;" x1="400" x2="400" y1="300" y2="1602"/>
  <line style="fill:none;stroke:rgb(255,127,0);stroke-opacity:0.4980392156862745;stroke-miterlimit:2;stroke-dasharray:2;" x1="400" x2="400" y1="300" y2="1616"/>
  <line style="fill:none;stroke:rgb(0,0,0);stroke-width:2;stroke-miterlimit:10;stroke-linecap:square;" x1="48" x2="48" y1="60" y2="300"/>
  <line style="fill:none;stroke:rgb(0,0,0);stroke-width:2;stroke-miterlimit:10;stroke-linecap:square;" x1="48" x2="402" y1="300" y2="300"/>
  <rect height="30" style="fill:rgb(255,255,255);stroke:none;" width="17" x="42" y="308"/>
  <text style="fill:rgb(0,0,0);stroke:none;font-size:25px;font-weight:bold;" x="42" y="332">0</text>
  <rect height="30" style="fill:rgb(255,255,255);stroke:none;" width="34" x="383" y="308"/>
  <text style="fill:rgb(0,0,0);stroke:none;font-size:25px;font-weight:bold;" x="383" y="332">24</text>
  <text style="fill:rgb(0,0,0);stroke:none;font-size:25px;font-weight:bold;" x="25" y="312">0</text>
  <text style="fill:rgb(0,0,0);stroke:none;font-size:25px;font-weight:bold;" x="25" y="72">1</text>
  <text style="fill:rgb(0,0,0);stroke:none;font-size:19px;font-weight:bold;" x="6" y="39">GEORGES_TARGETS_OF_MIR192_AND_MIR215</text>
  <rect height="11" style="fill:rgb(255,255,255);stroke:none;" width="38" x="50" y="339"/>
  <text style="fill:rgb(128,128,128);stroke:none;font-size:11px;" x="50" y="350">BMPR2</text>
  <rect height="11" style="fill:rgb(255,255,255);stroke:none;" width="36" x="50" y="353"/>
  <text style="fill:rgb(128,128,128);stroke:none;font-size:11px;" x="50" y="364">ATAD5</text>
  <rect height="11" style="fill:rgb(255,255,255);stroke:none;" width="43" x="50" y="367"/>
  <text style="fill:rgb(128,128,128);stroke:none;font-size:11px;" x="50" y="378">LRRC8C</text>
  <rect height="11" style="fill:rgb(255,255,255);stroke:none;" width="33" x="64" y="381"/>
  <text style="fill:rgb(128,128,128);stroke:none;font-size:11px;" x="64" y="392">CDON</text>
  <rect height="11" style="fill:rgb(255,255,255);stroke:none;" width="37" x="64" y="395"/>
  <text style="fill:rgb(128,128,128);stroke:none;font-size:11px;" x="64" y="406">SNX10</text>
  <rect height="11" style="fill:rgb(255,255,255);stroke:none;" width="32" x="64" y="409"/>
  <text style="fill:rgb(128,128,128);stroke:none;font-size:11px;" x="64" y="420">BRIP1</text>
  <rect height="11" style="fill:rgb(255,255,255);stroke:none;" width="44" x="64" y="423"/>
  <text style="fill:rgb(128,128,128);stroke:none;font-size:11px;" x="64" y="434">PRSS23</text>
  <rect height="11" style="fill:rgb(255,255,255);stroke:none;" width="43" x="64" y="437"/>
  <text style="fill:rgb(128,128,128);stroke:none;font-size:11px;" x="64" y="448">LRRFIP1</text>
  <rect height="11" style="fill:rgb(255,255,255);stroke:none;" width="52" x="64" y="451"/>
  <text style="fill:rgb(128,128,128);stroke:none;font-size:11px;" x="64" y="462">KBTBD11</text>
  <rect height="11" style="fill:rgb(255,255,255);stroke:none;" width="54" x="64" y="465"/>
  <text style="fill:rgb(128,128,128);stroke:none;font-size:11px;" x="64" y="476">TUBGCP3</text>
  <rect height="11" style="fill:rgb(255,255,255);stroke:none;" width="30" x="79" y="479"/>
  <text style="fill:rgb(128,128,128);stroke:none;font-size:11px;" x="79" y="490">OPA1</text>
  <rect height="11" style="fill:rgb(255,255,255);stroke:none;" width="37" x="79" y="493"/>
  <text style="fill:rgb(128,128,128);stroke:none;font-size:11px;" x="79" y="504">FBXO4</text>
  <rect height="11" style="fill:rgb(255,255,255);stroke:none;" width="35" x="79" y="507"/>
  <text style="fill:rgb(128,128,128);stroke:none;font-size:11px;" x="79" y="518">FUT11</text>
  <rect height="11" style="fill:rgb(255,255,255);stroke:none;" width="32" x="79" y="521"/>
  <text style="fill:rgb(128,128,128);stroke:none;font-size:11px;" x="79" y="532">FANCI</text>
  <rect height="11" style="fill:rgb(255,255,255);stroke:none;" width="44" x="79" y="535"/>
  <text style="fill:rgb(128,128,128);stroke:none;font-size:11px;" x="79" y="546">FBXO36</text>
  <rect height="11" style="fill:rgb(255,255,255);stroke:none;" width="52" x="79" y="549"/>
  <text style="fill:rgb(128,128,128);stroke:none;font-size:11px;" x="79" y="560">CNTNAP3</text>
  <rect height="11" style="fill:rgb(255,255,255);stroke:none;" width="33" x="93" y="563"/>
  <text style="fill:rgb(128,128,128);stroke:none;font-size:11px;" x="93" y="574">MCAM</text>
  <rect height="11" style="fill:rgb(255,255,255);stroke:none;" width="37" x="93" y="577"/>
  <text style="fill:rgb(128,128,128);stroke:none;font-size:11px;" x="93" y="588">FBXW2</text>
  <rect height="11" style="fill:rgb(255,255,255);stroke:none;" width="51" x="93" y="591"/>
  <text style="fill:rgb(128,128,128);stroke:none;font-size:11px;" x="93" y="602">TRAF3IP3</text>
  <rect height="11" style="fill:rgb(255,255,255);stroke:none;" width="24" x="108" y="605"/>
  <text style="fill:rgb(128,128,128);stroke:none;font-size:11px;" x="108" y="616">MYB</text>
  <rect height="11" style="fill:rgb(255,255,255);stroke:none;" width="31" x="108" y="619"/>
  <text style="fill:rgb(128,128,128);stroke:none;font-size:11px;" x="108" y="630">ANO6</text>
  <rect height="11" style="fill:rgb(255,255,255);stroke:none;" width="29" x="108" y="633"/>
  <text style="fill:rgb(128,128,128);stroke:none;font-size:11px;" x="108" y="644">MT1F</text>
  <rect height="11" style="fill:rgb(255,255,255);stroke:none;" width="51" x="122" y="647"/>
  <text style="fill:rgb(128,128,128);stroke:none;font-size:11px;" x="122" y="658">SERTAD4</text>
  <rect height="11" style="fill:rgb(255,255,255);stroke:none;" width="59" x="122" y="661"/>
  <text style="fill:rgb(128,128,128);stroke:none;font-size:11px;" x="122" y="672">STAMBPL1</text>
  <rect height="11" style="fill:rgb(255,255,255);stroke:none;" width="18" x="137" y="675"/>
  <text style="fill:rgb(128,128,128);stroke:none;font-size:11px;" x="137" y="686">ID1</text>
  <rect height="11" style="fill:rgb(255,255,255);stroke:none;" width="24" x="137" y="689"/>
  <text style="fill:rgb(128,128,128);stroke:none;font-size:11px;" x="137" y="700">IRX4</text>
  <rect height="11" style="fill:rgb(255,255,255);stroke:none;" width="28" x="152" y="703"/>
  <text style="fill:rgb(128,128,128);stroke:none;font-size:11px;" x="152" y="714">PLAU</text>
  <rect height="11" style="fill:rgb(255,255,255);stroke:none;" width="29" x="152" y="717"/>
  <text style="fill:rgb(128,128,128);stroke:none;font-size:11px;" x="152" y="728">UPP1</text>
  <rect height="11" style="fill:rgb(255,255,255);stroke:none;" width="30" x="166" y="731"/>
  <text style="fill:rgb(128,128,128);stroke:none;font-size:11px;" x="166" y="742">EGR1</text>
  <rect height="11" style="fill:rgb(255,255,255);stroke:none;" width="28" x="166" y="745"/>
  <text style="fill:rgb(128,128,128);stroke:none;font-size:11px;" x="166" y="756">CLK1</text>
  <rect height="11" style="fill:rgb(255,255,255);stroke:none;" width="36" x="166" y="759"/>
  <text style="fill:rgb(128,128,128);stroke:none;font-size:11px;" x="166" y="770">SAP30</text>
  <rect height="12" style="fill:rgb(255,255,255);stroke:none;" width="26" x="195" y="773"/>
  <text style="fill:rgb(128,128,128);stroke:none;" x="195" y="785">PIF1</text>
  <rect height="12" style="fill:rgb(255,255,255);stroke:none;" width="37" x="195" y="788"/>
  <text style="fill:rgb(128,128,128);stroke:none;" x="195" y="800">HMMR</text>
  <rect height="12" style="fill:rgb(255,255,255);stroke:none;" width="33" x="195" y="803"/>
  <text style="fill:rgb(128,128,128);stroke:none;" x="195" y="815">HAS3</text>
  <rect height="12" style="fill:rgb(255,255,255);stroke:none;" width="29" x="195" y="818"/>
  <text style="fill:rgb(128,128,128);stroke:none;" x="195" y="830">CLK4</text>
  <rect height="12" style="fill:rgb(255,255,255);stroke:none;" width="38" x="195" y="833"/>
  <text style="fill:rgb(128,128,128);stroke:none;" x="195" y="845">LEAP2</text>
  <rect height="12" style="fill:rgb(255,255,255);stroke:none;" width="40" x="195" y="848"/>
  <text style="fill:rgb(128,128,128);stroke:none;" x="195" y="860">CEP19</text>
  <rect height="12" style="fill:rgb(255,255,255);stroke:none;" width="40" x="195" y="863"/>
  <text style="fill:rgb(128,128,128);stroke:none;" x="195" y="875">OVOL1</text>
  <rect height="12" style="fill:rgb(255,255,255);stroke:none;" width="49" x="195" y="878"/>
  <text style="fill:rgb(128,128,128);stroke:none;" x="195" y="890">ZNF449</text>
  <rect height="12" style="fill:rgb(255,255,255);stroke:none;" width="57" x="195" y="893"/>
  <text style="fill:rgb(128,128,128);stroke:none;" x="195" y="905">CCDC121</text>
  <rect height="12" style="fill:rgb(255,255,255);stroke:none;" width="36" x="210" y="908"/>
  <text style="fill:rgb(128,128,128);stroke:none;" x="210" y="920">WDCP</text>
  <rect height="12" style="fill:rgb(255,255,255);stroke:none;" width="46" x="210" y="923"/>
  <text style="fill:rgb(128,128,128);stroke:none;" x="210" y="935">MOSMO</text>
  <rect height="12" style="fill:rgb(255,255,255);stroke:none;" width="49" x="210" y="938"/>
  <text style="fill:rgb(128,128,128);stroke:none;" x="210" y="950">ZNF641</text>
  <rect height="12" style="fill:rgb(255,255,255);stroke:none;" width="49" x="210" y="953"/>
  <text style="fill:rgb(128,128,128);stroke:none;" x="210" y="965">COPS7A</text>
  <rect height="12" style="fill:rgb(255,255,255);stroke:none;" width="49" x="210" y="968"/>
  <text style="fill:rgb(128,128,128);stroke:none;" x="210" y="980">ZNF701</text>
  <rect height="12" style="fill:rgb(255,255,255);stroke:none;" width="49" x="210" y="983"/>
  <text style="fill:rgb(128,128,128);stroke:none;" x="210" y="995">ZSWIM3</text>
  <rect height="12" style="fill:rgb(255,255,255);stroke:none;" width="49" x="210" y="998"/>
  <text style="fill:rgb(128,128,128);stroke:none;" x="210" y="1010">ZNF184</text>
  <rect height="12" style="fill:rgb(255,255,255);stroke:none;" width="61" x="210" y="1013"/>
  <text style="fill:rgb(128,128,128);stroke:none;" x="210" y="1025">EPM2AIP1</text>
  <rect height="12" style="fill:rgb(255,255,255);stroke:none;" width="24" x="225" y="1028"/>
  <text style="fill:rgb(128,128,128);stroke:none;" x="225" y="1040">CTH</text>
  <rect height="12" style="fill:rgb(255,255,255);stroke:none;" width="33" x="225" y="1043"/>
  <text style="fill:rgb(128,128,128);stroke:none;" x="225" y="1055">CD83</text>
  <rect height="12" style="fill:rgb(255,255,255);stroke:none;" width="29" x="225" y="1058"/>
  <text style="fill:rgb(128,128,128);stroke:none;" x="225" y="1070">BIVM</text>
  <rect height="12" style="fill:rgb(255,255,255);stroke:none;" width="31" x="225" y="1073"/>
  <text style="fill:rgb(128,128,128);stroke:none;" x="225" y="1085">NFYA</text>
  <rect height="12" style="fill:rgb(255,255,255);stroke:none;" width="44" x="225" y="1088"/>
  <text style="fill:rgb(128,128,128);stroke:none;" x="225" y="1100">ZMYM1</text>
  <rect height="12" style="fill:rgb(255,255,255);stroke:none;" width="35" x="225" y="1103"/>
  <text style="fill:rgb(128,128,128);stroke:none;" x="225" y="1115">IFRD1</text>
  <rect height="12" style="fill:rgb(255,255,255);stroke:none;" width="41" x="225" y="1118"/>
  <text style="fill:rgb(128,128,128);stroke:none;" x="225" y="1130">USP18</text>
  <rect height="12" style="fill:rgb(255,255,255);stroke:none;" width="44" x="225" y="1133"/>
  <text style="fill:rgb(128,128,128);stroke:none;" x="225" y="1145">TRIM68</text>
  <rect height="12" style="fill:rgb(255,255,255);stroke:none;" width="49" x="225" y="1148"/>
  <text style="fill:rgb(128,128,128);stroke:none;" x="225" y="1160">ZNF248</text>
  <rect height="12" style="fill:rgb(255,255,255);stroke:none;" width="52" x="225" y="1163"/>
  <text style="fill:rgb(128,128,128);stroke:none;" x="225" y="1175">PRIMPOL</text>
  <rect height="12" style="fill:rgb(255,255,255);stroke:none;" width="34" x="239" y="1178"/>
  <text style="fill:rgb(128,128,128);stroke:none;" x="239" y="1190">HCN3</text>
  <rect height="12" style="fill:rgb(255,255,255);stroke:none;" width="47" x="239" y="1193"/>
  <text style="fill:rgb(128,128,128);stroke:none;" x="239" y="1205">RCBTB2</text>
  <rect height="12" style="fill:rgb(255,255,255);stroke:none;" width="47" x="239" y="1208"/>
  <text style="fill:rgb(128,128,128);stroke:none;" x="239" y="1220">KCTD15</text>
  <rect height="12" style="fill:rgb(255,255,255);stroke:none;" width="47" x="239" y="1223"/>
  <text style="fill:rgb(128,128,128);stroke:none;" x="239" y="1235">RNASEL</text>
  <rect height="12" style="fill:rgb(255,255,255);stroke:none;" width="33" x="254" y="1238"/>
  <text style="fill:rgb(128,128,128);stroke:none;" x="254" y="1250">THBD</text>
  <rect height="12" style="fill:rgb(255,255,255);stroke:none;" width="32" x="254" y="1253"/>
  <text style="fill:rgb(128,128,128);stroke:none;" x="254" y="1265">NEK1</text>
  <rect height="12" style="fill:rgb(255,255,255);stroke:none;" width="44" x="254" y="1268"/>
  <text style="fill:rgb(128,128,128);stroke:none;" x="254" y="1280">ERICH5</text>
  <rect height="12" style="fill:rgb(255,255,255);stroke:none;" width="50" x="254" y="1283"/>
  <text style="fill:rgb(128,128,128);stroke:none;" x="254" y="1295">FAM83D</text>
  <rect height="12" style="fill:rgb(255,255,255);stroke:none;" width="48" x="254" y="1298"/>
  <text style="fill:rgb(128,128,128);stroke:none;" x="254" y="1310">RAB27A</text>
  <rect height="12" style="fill:rgb(255,255,255);stroke:none;" width="60" x="254" y="1313"/>
  <text style="fill:rgb(128,128,128);stroke:none;" x="254" y="1325">ZDHHC23</text>
  <rect height="12" style="fill:rgb(255,255,255);stroke:none;" width="53" x="254" y="1328"/>
  <text style="fill:rgb(128,128,128);stroke:none;" x="254" y="1340">PSMC3IP</text>
  <rect height="12" style="fill:rgb(255,255,255);stroke:none;" width="74" x="254" y="1343"/>
  <text style="fill:rgb(128,128,128);stroke:none;" x="254" y="1355">FAM120AOS</text>
  <rect height="12" style="fill:rgb(255,255,255);stroke:none;" width="40" x="268" y="1358"/>
  <text style="fill:rgb(128,128,128);stroke:none;" x="268" y="1370">DNAL1</text>
  <rect height="12" style="fill:rgb(255,255,255);stroke:none;" width="49" x="268" y="1373"/>
  <text style="fill:rgb(128,128,128);stroke:none;" x="268" y="1385">CCDC14</text>
  <rect height="12" style="fill:rgb(255,255,255);stroke:none;" width="56" x="268" y="1388"/>
  <text style="fill:rgb(128,128,128);stroke:none;" x="268" y="1400">PPP2R3B</text>
  <rect height="12" style="fill:rgb(255,255,255);stroke:none;" width="40" x="283" y="1403"/>
  <text style="fill:rgb(128,128,128);stroke:none;" x="283" y="1415">BRCA1</text>
  <rect height="12" style="fill:rgb(255,255,255);stroke:none;" width="39" x="283" y="1418"/>
  <text style="fill:rgb(128,128,128);stroke:none;" x="283" y="1430">SATB2</text>
  <rect height="12" style="fill:rgb(255,255,255);stroke:none;" width="36" x="283" y="1433"/>
  <text style="fill:rgb(128,128,128);stroke:none;" x="283" y="1445">TBL1X</text>
  <rect height="12" style="fill:rgb(255,255,255);stroke:none;" width="38" x="283" y="1448"/>
  <text style="fill:rgb(128,128,128);stroke:none;" x="283" y="1460">TAF9B</text>
  <rect height="12" style="fill:rgb(255,255,255);stroke:none;" width="50" x="283" y="1463"/>
  <text style="fill:rgb(128,128,128);stroke:none;" x="283" y="1475">DHCR24</text>
  <rect height="12" style="fill:rgb(255,255,255);stroke:none;" width="58" x="283" y="1478"/>
  <text style="fill:rgb(128,128,128);stroke:none;" x="283" y="1490">MFSD13A</text>
  <rect height="11" style="fill:rgb(255,255,255);stroke:none;" width="29" x="297" y="1493"/>
  <text style="fill:rgb(128,128,128);stroke:none;font-size:11px;" x="297" y="1504">NREP</text>
  <rect height="11" style="fill:rgb(255,255,255);stroke:none;" width="31" x="341" y="1507"/>
  <text style="fill:rgb(128,128,128);stroke:none;font-size:11px;" x="341" y="1518">BBS7</text>
  <rect height="11" style="fill:rgb(255,255,255);stroke:none;" width="41" x="341" y="1521"/>
  <text style="fill:rgb(128,128,128);stroke:none;font-size:11px;" x="341" y="1532">MIPOL1</text>
  <rect height="11" style="fill:rgb(255,255,255);stroke:none;" width="52" x="341" y="1535"/>
  <text style="fill:rgb(128,128,128);stroke:none;font-size:11px;" x="341" y="1546">C1QTNF3</text>
  <rect height="11" style="fill:rgb(255,255,255);stroke:none;" width="37" x="356" y="1549"/>
  <text style="fill:rgb(128,128,128);stroke:none;font-size:11px;" x="356" y="1560">PCSK9</text>
  <rect height="11" style="fill:rgb(255,255,255);stroke:none;" width="40" x="385" y="1563"/>
  <text style="fill:rgb(128,128,128);stroke:none;font-size:11px;" x="385" y="1574">LHFPL6</text>
  <rect height="11" style="fill:rgb(255,255,255);stroke:none;" width="48" x="385" y="1577"/>
  <text style="fill:rgb(128,128,128);stroke:none;font-size:11px;" x="385" y="1588">TFCP2L1</text>
  <rect height="11" style="fill:rgb(255,255,255);stroke:none;" width="38" x="400" y="1591"/>
  <text style="fill:rgb(128,128,128);stroke:none;font-size:11px;" x="400" y="1602">CDCA4</text>
  <rect height="11" style="fill:rgb(255,255,255);stroke:none;" width="44" x="400" y="1605"/>
  <text style="fill:rgb(128,128,128);stroke:none;font-size:11px;" x="400" y="1616">ZNF267</text>
</svg>
