<?xml version="1.0" encoding="UTF-8" standalone="no"?>
<!DOCTYPE svg PUBLIC "-//W3C//DTD SVG 1.1//EN" "http://www.w3.org/Graphics/SVG/1.1/DTD/svg11.dtd">
<svg xmlns:xlink="http://www.w3.org/1999/xlink" height="158.74999999999997mm" version="1.1" viewBox="0 0 500 600" width="132.29166666666666mm" x="0mm" y="0mm" xmlns="http://www.w3.org/2000/svg">
  <rect height="1200" style="fill:rgb(255,255,255);stroke:none;" width="1000" x="0" y="0"/>
  <rect height="240" style="fill:rgb(191,191,191);fill-opacity:0.4980392156862745;stroke:none;" width="175" x="225" y="60"/>
  <line style="fill:none;stroke:rgb(63,63,191);stroke-opacity:0.24705882352941178;stroke-miterlimit:10;stroke-linecap:square;" x1="50" x2="50" y1="300" y2="300"/>
  <line style="fill:none;stroke:rgb(63,63,191);stroke-opacity:0.24705882352941178;stroke-miterlimit:10;stroke-linecap:square;" x1="50" x2="64" y1="300" y2="290"/>
  <line style="fill:none;stroke:rgb(63,63,191);stroke-opacity:0.24705882352941178;stroke-miterlimit:10;stroke-linecap:square;" x1="64" x2="79" y1="290" y2="280"/>
  <line style="fill:none;stroke:rgb(63,63,191);stroke-opacity:0.24705882352941178;stroke-miterlimit:10;stroke-linecap:square;" x1="79" x2="93" y1="280" y2="270"/>
  <line style="fill:none;stroke:rgb(63,63,191);stroke-opacity:0.24705882352941178;stroke-miterlimit:10;stroke-linecap:square;" x1="93" x2="108" y1="270" y2="260"/>
  <line style="fill:none;stroke:rgb(63,63,191);stroke-opacity:0.24705882352941178;stroke-miterlimit:10;stroke-linecap:square;" x1="108" x2="122" y1="260" y2="250"/>
  <line style="fill:none;stroke:rgb(63,63,191);stroke-opacity:0.24705882352941178;stroke-miterlimit:10;stroke-linecap:square;" x1="122" x2="137" y1="250" y2="240"/>
  <line style="fill:none;stroke:rgb(63,63,191);stroke-opacity:0.24705882352941178;stroke-miterlimit:10;stroke-linecap:square;" x1="137" x2="152" y1="240" y2="230"/>
  <line style="fill:none;stroke:rgb(63,63,191);stroke-opacity:0.24705882352941178;stroke-miterlimit:10;stroke-linecap:square;" x1="152" x2="166" y1="230" y2="220"/>
  <line style="fill:none;stroke:rgb(63,63,191);stroke-opacity:0.24705882352941178;stroke-miterlimit:10;stroke-linecap:square;" x1="166" x2="181" y1="220" y2="210"/>
  <line style="fill:none;stroke:rgb(63,63,191);stroke-opacity:0.24705882352941178;stroke-miterlimit:10;stroke-linecap:square;" x1="181" x2="195" y1="210" y2="200"/>
  <line style="fill:none;stroke:rgb(63,63,191);stroke-opacity:0.24705882352941178;stroke-miterlimit:10;stroke-linecap:square;" x1="195" x2="210" y1="200" y2="190"/>
  <line style="fill:none;stroke:rgb(63,63,191);stroke-opacity:0.24705882352941178;stroke-miterlimit:10;stroke-linecap:square;" x1="210" x2="225" y1="190" y2="180"/>
  <line style="fill:none;stroke:rgb(63,63,191);stroke-opacity:0.24705882352941178;stroke-miterlimit:10;stroke-linecap:square;" x1="225" x2="239" y1="180" y2="170"/>
  <line style="fill:none;stroke:rgb(63,63,191);stroke-opacity:0.24705882352941178;stroke-miterlimit:10;stroke-linecap:square;" x1="239" x2="254" y1="170" y2="160"/>
  <line style="fill:none;stroke:rgb(63,63,191);stroke-opacity:0.24705882352941178;stroke-miterlimit:10;stroke-linecap:square;" x1="254" x2="268" y1="160" y2="150"/>
  <line style="fill:none;stroke:rgb(63,63,191);stroke-opacity:0.24705882352941178;stroke-miterlimit:10;stroke-linecap:square;" x1="268" x2="283" y1="150" y2="140"/>
  <line style="fill:none;stroke:rgb(63,63,191);stroke-opacity:0.24705882352941178;stroke-miterlimit:10;stroke-linecap:square;" x1="283" x2="297" y1="140" y2="130"/>
  <line style="fill:none;stroke:rgb(63,63,191);stroke-opacity:0.24705882352941178;stroke-miterlimit:10;stroke-linecap:square;" x1="297" x2="312" y1="130" y2="120"/>
  <line style="fill:none;stroke:rgb(63,63,191);stroke-opacity:0.24705882352941178;stroke-miterlimit:10;stroke-linecap:square;" x1="312" x2="327" y1="120" y2="110"/>
  <line style="fill:none;stroke:rgb(63,63,191);stroke-opacity:0.24705882352941178;stroke-miterlimit:10;stroke-linecap:square;" x1="327" x2="341" y1="110" y2="100"/>
  <line style="fill:none;stroke:rgb(63,63,191);stroke-opacity:0.24705882352941178;stroke-miterlimit:10;stroke-linecap:square;" x1="341" x2="356" y1="100" y2="90"/>
  <line style="fill:none;stroke:rgb(63,63,191);stroke-opacity:0.24705882352941178;stroke-miterlimit:10;stroke-linecap:square;" x1="356" x2="370" y1="90" y2="80"/>
  <line style="fill:none;stroke:rgb(63,63,191);stroke-opacity:0.24705882352941178;stroke-miterlimit:10;stroke-linecap:square;" x1="370" x2="385" y1="80" y2="70"/>
  <line style="fill:none;stroke:rgb(63,63,191);stroke-opacity:0.24705882352941178;stroke-miterlimit:10;stroke-linecap:square;" x1="385" x2="400" y1="70" y2="60"/>
  <line style="fill:none;stroke:rgb(63,63,191);stroke-opacity:0.24705882352941178;stroke-miterlimit:10;stroke-linecap:square;" x1="400" x2="400" y1="60" y2="60"/>
  <rect height="5" style="fill:rgb(255,127,0);fill-opacity:0.7490196078431373;stroke:none;" width="4" x="48" y="294"/>
  <line style="fill:none;stroke:rgb(255,127,0);stroke-opacity:0.24705882352941178;stroke-width:2;stroke-miterlimit:10;stroke-linecap:square;" x1="50" x2="50" y1="300" y2="300"/>
  <line style="fill:none;stroke:rgb(255,127,0);stroke-opacity:0.24705882352941178;stroke-width:2;stroke-miterlimit:10;stroke-linecap:square;" x1="50" x2="50" y1="298" y2="296"/>
  <rect height="14" style="fill:rgb(255,127,0);fill-opacity:0.7490196078431373;stroke:none;" width="4" x="62" y="285"/>
  <line style="fill:none;stroke:rgb(255,127,0);stroke-opacity:0.24705882352941178;stroke-width:2;stroke-miterlimit:10;stroke-linecap:square;" x1="50" x2="64" y1="294" y2="294"/>
  <line style="fill:none;stroke:rgb(255,127,0);stroke-opacity:0.24705882352941178;stroke-width:2;stroke-miterlimit:10;stroke-linecap:square;" x1="64" x2="64" y1="292" y2="282"/>
  <rect height="2" style="fill:rgb(255,127,0);fill-opacity:0.7490196078431373;stroke:none;" width="4" x="77" y="297"/>
  <line style="fill:none;stroke:rgb(255,127,0);stroke-opacity:0.24705882352941178;stroke-width:2;stroke-miterlimit:10;stroke-linecap:square;" x1="64" x2="79" y1="280" y2="280"/>
  <line style="fill:none;stroke:rgb(255,127,0);stroke-opacity:0.24705882352941178;stroke-width:2;stroke-miterlimit:10;stroke-linecap:square;" x1="79" x2="79" y1="278" y2="279"/>
  <rect height="16" style="fill:rgb(255,127,0);fill-opacity:0.7490196078431373;stroke:none;" width="4" x="91" y="283"/>
  <line style="fill:none;stroke:rgb(255,127,0);stroke-opacity:0.24705882352941178;stroke-width:2;stroke-miterlimit:10;stroke-linecap:square;" x1="79" x2="93" y1="277" y2="277"/>
  <line style="fill:none;stroke:rgb(255,127,0);stroke-opacity:0.24705882352941178;stroke-width:2;stroke-miterlimit:10;stroke-linecap:square;" x1="93" x2="93" y1="275" y2="262"/>
  <rect height="8" style="fill:rgb(255,127,0);fill-opacity:0.7490196078431373;stroke:none;" width="4" x="106" y="291"/>
  <line style="fill:none;stroke:rgb(255,127,0);stroke-opacity:0.24705882352941178;stroke-width:2;stroke-miterlimit:10;stroke-linecap:square;" x1="93" x2="108" y1="260" y2="260"/>
  <line style="fill:none;stroke:rgb(255,127,0);stroke-opacity:0.24705882352941178;stroke-width:2;stroke-miterlimit:10;stroke-linecap:square;" x1="108" x2="108" y1="258" y2="254"/>
  <rect height="2" style="fill:rgb(255,127,0);fill-opacity:0.7490196078431373;stroke:none;" width="4" x="135" y="297"/>
  <line style="fill:none;stroke:rgb(255,127,0);stroke-opacity:0.24705882352941178;stroke-width:2;stroke-miterlimit:10;stroke-linecap:square;" x1="108" x2="137" y1="252" y2="252"/>
  <line style="fill:none;stroke:rgb(255,127,0);stroke-opacity:0.24705882352941178;stroke-width:2;stroke-miterlimit:10;stroke-linecap:square;" x1="137" x2="137" y1="250" y2="251"/>
  <rect height="5" style="fill:rgb(255,127,0);fill-opacity:0.7490196078431373;stroke:none;" width="4" x="164" y="294"/>
  <line style="fill:none;stroke:rgb(255,127,0);stroke-opacity:0.24705882352941178;stroke-width:2;stroke-miterlimit:10;stroke-linecap:square;" x1="137" x2="166" y1="249" y2="249"/>
  <line style="fill:none;stroke:rgb(255,127,0);stroke-opacity:0.24705882352941178;stroke-width:2;stroke-miterlimit:10;stroke-linecap:square;" x1="166" x2="166" y1="247" y2="245"/>
  <rect height="5" style="fill:rgb(255,127,0);fill-opacity:0.7490196078431373;stroke:none;" width="4" x="193" y="294"/>
  <line style="fill:none;stroke:rgb(255,127,0);stroke-opacity:0.24705882352941178;stroke-width:2;stroke-miterlimit:10;stroke-linecap:square;" x1="166" x2="195" y1="243" y2="243"/>
  <line style="fill:none;stroke:rgb(255,127,0);stroke-opacity:0.24705882352941178;stroke-width:2;stroke-miterlimit:10;stroke-linecap:square;" x1="195" x2="195" y1="241" y2="239"/>
  <rect height="14" style="fill:rgb(255,127,0);fill-opacity:0.7490196078431373;stroke:none;" width="4" x="208" y="285"/>
  <line style="fill:none;stroke:rgb(255,127,0);stroke-opacity:0.24705882352941178;stroke-width:2;stroke-miterlimit:10;stroke-linecap:square;" x1="195" x2="210" y1="237" y2="237"/>
  <line style="fill:none;stroke:rgb(255,127,0);stroke-opacity:0.24705882352941178;stroke-width:2;stroke-miterlimit:10;stroke-linecap:square;" x1="210" x2="210" y1="235" y2="225"/>
  <rect height="33" style="fill:rgb(255,127,0);fill-opacity:0.7490196078431373;stroke:none;" width="4" x="223" y="266"/>
  <line style="fill:none;stroke:rgb(255,127,0);stroke-opacity:0.24705882352941178;stroke-width:2;stroke-miterlimit:10;stroke-linecap:square;" x1="210" x2="225" y1="223" y2="223"/>
  <line style="fill:none;stroke:rgb(255,127,0);stroke-opacity:0.24705882352941178;stroke-width:2;stroke-miterlimit:10;stroke-linecap:square;" x1="225" x2="225" y1="221" y2="191"/>
  <rect height="25" style="fill:rgb(255,127,0);fill-opacity:0.7490196078431373;stroke:none;" width="4" x="237" y="274"/>
  <line style="fill:none;stroke:rgb(255,127,0);stroke-opacity:0.24705882352941178;stroke-width:2;stroke-miterlimit:10;stroke-linecap:square;" x1="225" x2="239" y1="189" y2="189"/>
  <line style="fill:none;stroke:rgb(255,127,0);stroke-opacity:0.24705882352941178;stroke-width:2;stroke-miterlimit:10;stroke-linecap:square;" x1="239" x2="239" y1="187" y2="166"/>
  <rect height="31" style="fill:rgb(255,127,0);fill-opacity:0.7490196078431373;stroke:none;" width="4" x="252" y="268"/>
  <line style="fill:none;stroke:rgb(255,127,0);stroke-opacity:0.24705882352941178;stroke-width:2;stroke-miterlimit:10;stroke-linecap:square;" x1="239" x2="254" y1="164" y2="164"/>
  <line style="fill:none;stroke:rgb(255,127,0);stroke-opacity:0.24705882352941178;stroke-width:2;stroke-miterlimit:10;stroke-linecap:square;" x1="254" x2="254" y1="162" y2="135"/>
  <rect height="31" style="fill:rgb(255,127,0);fill-opacity:0.7490196078431373;stroke:none;" width="4" x="266" y="268"/>
  <line style="fill:none;stroke:rgb(255,127,0);stroke-opacity:0.24705882352941178;stroke-width:2;stroke-miterlimit:10;stroke-linecap:square;" x1="254" x2="268" y1="133" y2="133"/>
  <line style="fill:none;stroke:rgb(255,127,0);stroke-opacity:0.24705882352941178;stroke-width:2;stroke-miterlimit:10;stroke-linecap:square;" x1="268" x2="268" y1="131" y2="104"/>
  <rect height="11" style="fill:rgb(255,127,0);fill-opacity:0.7490196078431373;stroke:none;" width="4" x="281" y="288"/>
  <line style="fill:none;stroke:rgb(255,127,0);stroke-opacity:0.24705882352941178;stroke-width:2;stroke-miterlimit:10;stroke-linecap:square;" x1="268" x2="283" y1="102" y2="102"/>
  <line style="fill:none;stroke:rgb(255,127,0);stroke-opacity:0.24705882352941178;stroke-width:2;stroke-miterlimit:10;stroke-linecap:square;" x1="283" x2="283" y1="100" y2="93"/>
  <rect height="11" style="fill:rgb(255,127,0);fill-opacity:0.7490196078431373;stroke:none;" width="4" x="295" y="288"/>
  <line style="fill:none;stroke:rgb(255,127,0);stroke-opacity:0.24705882352941178;stroke-width:2;stroke-miterlimit:10;stroke-linecap:square;" x1="283" x2="297" y1="91" y2="91"/>
  <line style="fill:none;stroke:rgb(255,127,0);stroke-opacity:0.24705882352941178;stroke-width:2;stroke-miterlimit:10;stroke-linecap:square;" x1="297" x2="297" y1="89" y2="81"/>
  <rect height="2" style="fill:rgb(255,127,0);fill-opacity:0.7490196078431373;stroke:none;" width="4" x="310" y="297"/>
  <line style="fill:none;stroke:rgb(255,127,0);stroke-opacity:0.24705882352941178;stroke-width:2;stroke-miterlimit:10;stroke-linecap:square;" x1="297" x2="312" y1="79" y2="79"/>
  <line style="fill:none;stroke:rgb(255,127,0);stroke-opacity:0.24705882352941178;stroke-width:2;stroke-miterlimit:10;stroke-linecap:square;" x1="312" x2="312" y1="77" y2="78"/>
  <rect height="5" style="fill:rgb(255,127,0);fill-opacity:0.7490196078431373;stroke:none;" width="4" x="325" y="294"/>
  <line style="fill:none;stroke:rgb(255,127,0);stroke-opacity:0.24705882352941178;stroke-width:2;stroke-miterlimit:10;stroke-linecap:square;" x1="312" x2="327" y1="76" y2="76"/>
  <line style="fill:none;stroke:rgb(255,127,0);stroke-opacity:0.24705882352941178;stroke-width:2;stroke-miterlimit:10;stroke-linecap:square;" x1="327" x2="327" y1="74" y2="73"/>
  <rect height="8" style="fill:rgb(255,127,0);fill-opacity:0.7490196078431373;stroke:none;" width="4" x="368" y="291"/>
  <line style="fill:none;stroke:rgb(255,127,0);stroke-opacity:0.24705882352941178;stroke-width:2;stroke-miterlimit:10;stroke-linecap:square;" x1="327" x2="370" y1="71" y2="71"/>
  <line style="fill:none;stroke:rgb(255,127,0);stroke-opacity:0.24705882352941178;stroke-width:2;stroke-miterlimit:10;stroke-linecap:square;" x1="370" x2="370" y1="69" y2="64"/>
  <rect height="2" style="fill:rgb(255,127,0);fill-opacity:0.7490196078431373;stroke:none;" width="4" x="383" y="297"/>
  <line style="fill:none;stroke:rgb(255,127,0);stroke-opacity:0.24705882352941178;stroke-width:2;stroke-miterlimit:10;stroke-linecap:square;" x1="370" x2="385" y1="62" y2="62"/>
  <line style="fill:none;stroke:rgb(255,127,0);stroke-opacity:0.24705882352941178;stroke-width:2;stroke-miterlimit:10;stroke-linecap:square;" x1="385" x2="385" y1="60" y2="62"/>
  <line style="fill:none;stroke:rgb(255,127,0);stroke-opacity:0.24705882352941178;stroke-width:2;stroke-miterlimit:10;stroke-linecap:square;" x1="385" x2="400" y1="60" y2="60"/>
  <line style="fill:none;stroke:rgb(255,127,0);stroke-opacity:0.4980392156862745;stroke-miterlimit:2;stroke-dasharray:2;" x1="50" x2="50" y1="300" y2="350"/>
  <line style="fill:none;stroke:rgb(255,127,0);stroke-opacity:0.4980392156862745;stroke-miterlimit:2;stroke-dasharray:2;" x1="50" x2="50" y1="300" y2="364"/>
  <line style="fill:none;stroke:rgb(255,127,0);stroke-opacity:0.4980392156862745;stroke-miterlimit:2;stroke-dasharray:2;" x1="64" x2="64" y1="300" y2="378"/>
  <line style="fill:none;stroke:rgb(255,127,0);stroke-opacity:0.4980392156862745;stroke-miterlimit:2;stroke-dasharray:2;" x1="64" x2="64" y1="300" y2="392"/>
  <line style="fill:none;stroke:rgb(255,127,0);stroke-opacity:0.4980392156862745;stroke-miterlimit:2;stroke-dasharray:2;" x1="64" x2="64" y1="300" y2="406"/>
  <line style="fill:none;stroke:rgb(255,127,0);stroke-opacity:0.4980392156862745;stroke-miterlimit:2;stroke-dasharray:2;" x1="64" x2="64" y1="300" y2="420"/>
  <line style="fill:none;stroke:rgb(255,127,0);stroke-opacity:0.4980392156862745;stroke-miterlimit:2;stroke-dasharray:2;" x1="64" x2="64" y1="300" y2="434"/>
  <line style="fill:none;stroke:rgb(255,127,0);stroke-opacity:0.4980392156862745;stroke-miterlimit:2;stroke-dasharray:2;" x1="79" x2="79" y1="300" y2="448"/>
  <line style="fill:none;stroke:rgb(255,127,0);stroke-opacity:0.4980392156862745;stroke-miterlimit:2;stroke-dasharray:2;" x1="93" x2="93" y1="300" y2="462"/>
  <line style="fill:none;stroke:rgb(255,127,0);stroke-opacity:0.4980392156862745;stroke-miterlimit:2;stroke-dasharray:2;" x1="93" x2="93" y1="300" y2="476"/>
  <line style="fill:none;stroke:rgb(255,127,0);stroke-opacity:0.4980392156862745;stroke-miterlimit:2;stroke-dasharray:2;" x1="93" x2="93" y1="300" y2="490"/>
  <line style="fill:none;stroke:rgb(255,127,0);stroke-opacity:0.4980392156862745;stroke-miterlimit:2;stroke-dasharray:2;" x1="93" x2="93" y1="300" y2="504"/>
  <line style="fill:none;stroke:rgb(255,127,0);stroke-opacity:0.4980392156862745;stroke-miterlimit:2;stroke-dasharray:2;" x1="93" x2="93" y1="300" y2="518"/>
  <line style="fill:none;stroke:rgb(255,127,0);stroke-opacity:0.4980392156862745;stroke-miterlimit:2;stroke-dasharray:2;" x1="93" x2="93" y1="300" y2="532"/>
  <line style="fill:none;stroke:rgb(255,127,0);stroke-opacity:0.4980392156862745;stroke-miterlimit:2;stroke-dasharray:2;" x1="108" x2="108" y1="300" y2="546"/>
  <line style="fill:none;stroke:rgb(255,127,0);stroke-opacity:0.4980392156862745;stroke-miterlimit:2;stroke-dasharray:2;" x1="108" x2="108" y1="300" y2="560"/>
  <line style="fill:none;stroke:rgb(255,127,0);stroke-opacity:0.4980392156862745;stroke-miterlimit:2;stroke-dasharray:2;" x1="108" x2="108" y1="300" y2="574"/>
  <line style="fill:none;stroke:rgb(255,127,0);stroke-opacity:0.4980392156862745;stroke-miterlimit:2;stroke-dasharray:2;" x1="137" x2="137" y1="300" y2="588"/>
  <line style="fill:none;stroke:rgb(255,127,0);stroke-opacity:0.4980392156862745;stroke-miterlimit:2;stroke-dasharray:2;" x1="166" x2="166" y1="300" y2="602"/>
  <line style="fill:none;stroke:rgb(255,127,0);stroke-opacity:0.4980392156862745;stroke-miterlimit:2;stroke-dasharray:2;" x1="166" x2="166" y1="300" y2="616"/>
  <line style="fill:none;stroke:rgb(255,127,0);stroke-opacity:0.4980392156862745;stroke-miterlimit:2;stroke-dasharray:2;" x1="195" x2="195" y1="300" y2="630"/>
  <line style="fill:none;stroke:rgb(255,127,0);stroke-opacity:0.4980392156862745;stroke-miterlimit:2;stroke-dasharray:2;" x1="195" x2="195" y1="300" y2="644"/>
  <line style="fill:none;stroke:rgb(255,127,0);stroke-opacity:0.4980392156862745;stroke-miterlimit:2;stroke-dasharray:2;" x1="210" x2="210" y1="300" y2="659"/>
  <line style="fill:none;stroke:rgb(255,127,0);stroke-opacity:0.4980392156862745;stroke-miterlimit:2;stroke-dasharray:2;" x1="210" x2="210" y1="300" y2="674"/>
  <line style="fill:none;stroke:rgb(255,127,0);stroke-opacity:0.4980392156862745;stroke-miterlimit:2;stroke-dasharray:2;" x1="210" x2="210" y1="300" y2="689"/>
  <line style="fill:none;stroke:rgb(255,127,0);stroke-opacity:0.4980392156862745;stroke-miterlimit:2;stroke-dasharray:2;" x1="210" x2="210" y1="300" y2="704"/>
  <line style="fill:none;stroke:rgb(255,127,0);stroke-opacity:0.4980392156862745;stroke-miterlimit:2;stroke-dasharray:2;" x1="210" x2="210" y1="300" y2="719"/>
  <line style="fill:none;stroke:rgb(255,127,0);stroke-opacity:0.4980392156862745;stroke-miterlimit:2;stroke-dasharray:2;" x1="225" x2="225" y1="300" y2="734"/>
  <line style="fill:none;stroke:rgb(255,127,0);stroke-opacity:0.4980392156862745;stroke-miterlimit:2;stroke-dasharray:2;" x1="225" x2="225" y1="300" y2="749"/>
  <line style="fill:none;stroke:rgb(255,127,0);stroke-opacity:0.4980392156862745;stroke-miterlimit:2;stroke-dasharray:2;" x1="225" x2="225" y1="300" y2="764"/>
  <line style="fill:none;stroke:rgb(255,127,0);stroke-opacity:0.4980392156862745;stroke-miterlimit:2;stroke-dasharray:2;" x1="225" x2="225" y1="300" y2="779"/>
  <line style="fill:none;stroke:rgb(255,127,0);stroke-opacity:0.4980392156862745;stroke-miterlimit:2;stroke-dasharray:2;" x1="225" x2="225" y1="300" y2="794"/>
  <line style="fill:none;stroke:rgb(255,127,0);stroke-opacity:0.4980392156862745;stroke-miterlimit:2;stroke-dasharray:2;" x1="225" x2="225" y1="300" y2="809"/>
  <line style="fill:none;stroke:rgb(255,127,0);stroke-opacity:0.4980392156862745;stroke-miterlimit:2;stroke-dasharray:2;" x1="225" x2="225" y1="300" y2="824"/>
  <line style="fill:none;stroke:rgb(255,127,0);stroke-opacity:0.4980392156862745;stroke-miterlimit:2;stroke-dasharray:2;" x1="225" x2="225" y1="300" y2="839"/>
  <line style="fill:none;stroke:rgb(255,127,0);stroke-opacity:0.4980392156862745;stroke-miterlimit:2;stroke-dasharray:2;" x1="225" x2="225" y1="300" y2="854"/>
  <line style="fill:none;stroke:rgb(255,127,0);stroke-opacity:0.4980392156862745;stroke-miterlimit:2;stroke-dasharray:2;" x1="225" x2="225" y1="300" y2="869"/>
  <line style="fill:none;stroke:rgb(255,127,0);stroke-opacity:0.4980392156862745;stroke-miterlimit:2;stroke-dasharray:2;" x1="225" x2="225" y1="300" y2="884"/>
  <line style="fill:none;stroke:rgb(255,127,0);stroke-opacity:0.4980392156862745;stroke-miterlimit:2;stroke-dasharray:2;" x1="225" x2="225" y1="300" y2="899"/>
  <line style="fill:none;stroke:rgb(255,127,0);stroke-opacity:0.4980392156862745;stroke-miterlimit:2;stroke-dasharray:2;" x1="239" x2="239" y1="300" y2="914"/>
  <line style="fill:none;stroke:rgb(255,127,0);stroke-opacity:0.4980392156862745;stroke-miterlimit:2;stroke-dasharray:2;" x1="239" x2="239" y1="300" y2="929"/>
  <line style="fill:none;stroke:rgb(255,127,0);stroke-opacity:0.4980392156862745;stroke-miterlimit:2;stroke-dasharray:2;" x1="239" x2="239" y1="300" y2="944"/>
  <line style="fill:none;stroke:rgb(255,127,0);stroke-opacity:0.4980392156862745;stroke-miterlimit:2;stroke-dasharray:2;" x1="239" x2="239" y1="300" y2="959"/>
  <line style="fill:none;stroke:rgb(255,127,0);stroke-opacity:0.4980392156862745;stroke-miterlimit:2;stroke-dasharray:2;" x1="239" x2="239" y1="300" y2="974"/>
  <line style="fill:none;stroke:rgb(255,127,0);stroke-opacity:0.4980392156862745;stroke-miterlimit:2;stroke-dasharray:2;" x1="239" x2="239" y1="300" y2="989"/>
  <line style="fill:none;stroke:rgb(255,127,0);stroke-opacity:0.4980392156862745;stroke-miterlimit:2;stroke-dasharray:2;" x1="239" x2="239" y1="300" y2="1004"/>
  <line style="fill:none;stroke:rgb(255,127,0);stroke-opacity:0.4980392156862745;stroke-miterlimit:2;stroke-dasharray:2;" x1="239" x2="239" y1="300" y2="1019"/>
  <line style="fill:none;stroke:rgb(255,127,0);stroke-opacity:0.4980392156862745;stroke-miterlimit:2;stroke-dasharray:2;" x1="239" x2="239" y1="300" y2="1034"/>
  <line style="fill:none;stroke:rgb(255,127,0);stroke-opacity:0.4980392156862745;stroke-miterlimit:2;stroke-dasharray:2;" x1="254" x2="254" y1="300" y2="1049"/>
  <line style="fill:none;stroke:rgb(255,127,0);stroke-opacity:0.4980392156862745;stroke-miterlimit:2;stroke-dasharray:2;" x1="254" x2="254" y1="300" y2="1064"/>
  <line style="fill:none;stroke:rgb(255,127,0);stroke-opacity:0.4980392156862745;stroke-miterlimit:2;stroke-dasharray:2;" x1="254" x2="254" y1="300" y2="1079"/>
  <line style="fill:none;stroke:rgb(255,127,0);stroke-opacity:0.4980392156862745;stroke-miterlimit:2;stroke-dasharray:2;" x1="254" x2="254" y1="300" y2="1094"/>
  <line style="fill:none;stroke:rgb(255,127,0);stroke-opacity:0.4980392156862745;stroke-miterlimit:2;stroke-dasharray:2;" x1="254" x2="254" y1="300" y2="1109"/>
  <line style="fill:none;stroke:rgb(255,127,0);stroke-opacity:0.4980392156862745;stroke-miterlimit:2;stroke-dasharray:2;" x1="254" x2="254" y1="300" y2="1124"/>
  <line style="fill:none;stroke:rgb(255,127,0);stroke-opacity:0.4980392156862745;stroke-miterlimit:2;stroke-dasharray:2;" x1="254" x2="254" y1="300" y2="1139"/>
  <line style="fill:none;stroke:rgb(255,127,0);stroke-opacity:0.4980392156862745;stroke-miterlimit:2;stroke-dasharray:2;" x1="254" x2="254" y1="300" y2="1154"/>
  <line style="fill:none;stroke:rgb(255,127,0);stroke-opacity:0.4980392156862745;stroke-miterlimit:2;stroke-dasharray:2;" x1="254" x2="254" y1="300" y2="1169"/>
  <line style="fill:none;stroke:rgb(255,127,0);stroke-opacity:0.4980392156862745;stroke-miterlimit:2;stroke-dasharray:2;" x1="254" x2="254" y1="300" y2="1184"/>
  <line style="fill:none;stroke:rgb(255,127,0);stroke-opacity:0.4980392156862745;stroke-miterlimit:2;stroke-dasharray:2;" x1="254" x2="254" y1="300" y2="1199"/>
  <line style="fill:none;stroke:rgb(255,127,0);stroke-opacity:0.4980392156862745;stroke-miterlimit:2;stroke-dasharray:2;" x1="268" x2="268" y1="300" y2="1214"/>
  <line style="fill:none;stroke:rgb(255,127,0);stroke-opacity:0.4980392156862745;stroke-miterlimit:2;stroke-dasharray:2;" x1="268" x2="268" y1="300" y2="1229"/>
  <line style="fill:none;stroke:rgb(255,127,0);stroke-opacity:0.4980392156862745;stroke-miterlimit:2;stroke-dasharray:2;" x1="268" x2="268" y1="300" y2="1244"/>
  <line style="fill:none;stroke:rgb(255,127,0);stroke-opacity:0.4980392156862745;stroke-miterlimit:2;stroke-dasharray:2;" x1="268" x2="268" y1="300" y2="1259"/>
  <line style="fill:none;stroke:rgb(255,127,0);stroke-opacity:0.4980392156862745;stroke-miterlimit:2;stroke-dasharray:2;" x1="268" x2="268" y1="300" y2="1274"/>
  <line style="fill:none;stroke:rgb(255,127,0);stroke-opacity:0.4980392156862745;stroke-miterlimit:2;stroke-dasharray:2;" x1="268" x2="268" y1="300" y2="1289"/>
  <line style="fill:none;stroke:rgb(255,127,0);stroke-opacity:0.4980392156862745;stroke-miterlimit:2;stroke-dasharray:2;" x1="268" x2="268" y1="300" y2="1304"/>
  <line style="fill:none;stroke:rgb(255,127,0);stroke-opacity:0.4980392156862745;stroke-miterlimit:2;stroke-dasharray:2;" x1="268" x2="268" y1="300" y2="1319"/>
  <line style="fill:none;stroke:rgb(255,127,0);stroke-opacity:0.4980392156862745;stroke-miterlimit:2;stroke-dasharray:2;" x1="268" x2="268" y1="300" y2="1334"/>
  <line style="fill:none;stroke:rgb(255,127,0);stroke-opacity:0.4980392156862745;stroke-miterlimit:2;stroke-dasharray:2;" x1="268" x2="268" y1="300" y2="1349"/>
  <line style="fill:none;stroke:rgb(255,127,0);stroke-opacity:0.4980392156862745;stroke-miterlimit:2;stroke-dasharray:2;" x1="268" x2="268" y1="300" y2="1364"/>
  <line style="fill:none;stroke:rgb(255,127,0);stroke-opacity:0.4980392156862745;stroke-miterlimit:2;stroke-dasharray:2;" x1="283" x2="283" y1="300" y2="1379"/>
  <line style="fill:none;stroke:rgb(255,127,0);stroke-opacity:0.4980392156862745;stroke-miterlimit:2;stroke-dasharray:2;" x1="283" x2="283" y1="300" y2="1394"/>
  <line style="fill:none;stroke:rgb(255,127,0);stroke-opacity:0.4980392156862745;stroke-miterlimit:2;stroke-dasharray:2;" x1="283" x2="283" y1="300" y2="1409"/>
  <line style="fill:none;stroke:rgb(255,127,0);stroke-opacity:0.4980392156862745;stroke-miterlimit:2;stroke-dasharray:2;" x1="283" x2="283" y1="300" y2="1424"/>
  <line style="fill:none;stroke:rgb(255,127,0);stroke-opacity:0.4980392156862745;stroke-miterlimit:2;stroke-dasharray:2;" x1="297" x2="297" y1="300" y2="1438"/>
  <line style="fill:none;stroke:rgb(255,127,0);stroke-opacity:0.4980392156862745;stroke-miterlimit:2;stroke-dasharray:2;" x1="297" x2="297" y1="300" y2="1452"/>
  <line style="fill:none;stroke:rgb(255,127,0);stroke-opacity:0.4980392156862745;stroke-miterlimit:2;stroke-dasharray:2;" x1="297" x2="297" y1="300" y2="1466"/>
  <line style="fill:none;stroke:rgb(255,127,0);stroke-opacity:0.4980392156862745;stroke-miterlimit:2;stroke-dasharray:2;" x1="297" x2="297" y1="300" y2="1480"/>
  <line style="fill:none;stroke:rgb(255,127,0);stroke-opacity:0.4980392156862745;stroke-miterlimit:2;stroke-dasharray:2;" x1="312" x2="312" y1="300" y2="1494"/>
  <line style="fill:none;stroke:rgb(255,127,0);stroke-opacity:0.4980392156862745;stroke-miterlimit:2;stroke-dasharray:2;" x1="327" x2="327" y1="300" y2="1508"/>
  <line style="fill:none;stroke:rgb(255,127,0);stroke-opacity:0.4980392156862745;stroke-miterlimit:2;stroke-dasharray:2;" x1="327" x2="327" y1="300" y2="1522"/>
  <line style="fill:none;stroke:rgb(255,127,0);stroke-opacity:0.4980392156862745;stroke-miterlimit:2;stroke-dasharray:2;" x1="370" x2="370" y1="300" y2="350"/>
  <line style="fill:none;stroke:rgb(255,127,0);stroke-opacity:0.4980392156862745;stroke-miterlimit:2;stroke-dasharray:2;" x1="370" x2="370" y1="300" y2="364"/>
  <line style="fill:none;stroke:rgb(255,127,0);stroke-opacity:0.4980392156862745;stroke-miterlimit:2;stroke-dasharray:2;" x1="370" x2="370" y1="300" y2="378"/>
  <line style="fill:none;stroke:rgb(255,127,0);stroke-opacity:0.4980392156862745;stroke-miterlimit:2;stroke-dasharray:2;" x1="385" x2="385" y1="300" y2="392"/>
  <line style="fill:none;stroke:rgb(0,0,0);stroke-width:2;stroke-miterlimit:10;stroke-linecap:square;" x1="48" x2="48" y1="60" y2="300"/>
  <line style="fill:none;stroke:rgb(0,0,0);stroke-width:2;stroke-miterlimit:10;stroke-linecap:square;" x1="48" x2="402" y1="300" y2="300"/>
  <rect height="30" style="fill:rgb(255,255,255);stroke:none;" width="17" x="42" y="308"/>
  <text style="fill:rgb(0,0,0);stroke:none;font-size:25px;font-weight:bold;" x="42" y="332">0</text>
  <rect height="30" style="fill:rgb(255,255,255);stroke:none;" width="34" x="383" y="308"/>
  <text style="fill:rgb(0,0,0);stroke:none;font-size:25px;font-weight:bold;" x="383" y="332">24</text>
  <text style="fill:rgb(0,0,0);stroke:none;font-size:25px;font-weight:bold;" x="25" y="312">0</text>
  <text style="fill:rgb(0,0,0);stroke:none;font-size:25px;font-weight:bold;" x="25" y="72">1</text>
  <text style="fill:rgb(0,0,0);stroke:none;font-size:17px;font-weight:bold;" x="4" y="38">GOBERT_OLIGODENDROCYTE_DIFFERENTIATION_DN</text>
  <rect height="11" style="fill:rgb(255,255,255);stroke:none;" width="22" x="50" y="339"/>
  <text style="fill:rgb(128,128,128);stroke:none;font-size:11px;" x="50" y="350">MAF</text>
  <rect height="11" style="fill:rgb(255,255,255);stroke:none;" width="43" x="50" y="353"/>
  <text style="fill:rgb(128,128,128);stroke:none;font-size:11px;" x="50" y="364">LRRC8C</text>
  <rect height="11" style="fill:rgb(255,255,255);stroke:none;" width="23" x="64" y="367"/>
  <text style="fill:rgb(128,128,128);stroke:none;font-size:11px;" x="64" y="378">EZR</text>
  <rect height="11" style="fill:rgb(255,255,255);stroke:none;" width="30" x="64" y="381"/>
  <text style="fill:rgb(128,128,128);stroke:none;font-size:11px;" x="64" y="392">CTSK</text>
  <rect height="11" style="fill:rgb(255,255,255);stroke:none;" width="29" x="64" y="395"/>
  <text style="fill:rgb(128,128,128);stroke:none;font-size:11px;" x="64" y="406">NAV1</text>
  <rect height="11" style="fill:rgb(255,255,255);stroke:none;" width="36" x="64" y="409"/>
  <text style="fill:rgb(128,128,128);stroke:none;font-size:11px;" x="64" y="420">PPM1L</text>
  <rect height="11" style="fill:rgb(255,255,255);stroke:none;" width="44" x="64" y="423"/>
  <text style="fill:rgb(128,128,128);stroke:none;font-size:11px;" x="64" y="434">AGPAT4</text>
  <rect height="11" style="fill:rgb(255,255,255);stroke:none;" width="45" x="79" y="437"/>
  <text style="fill:rgb(128,128,128);stroke:none;font-size:11px;" x="79" y="448">SPECC1</text>
  <rect height="11" style="fill:rgb(255,255,255);stroke:none;" width="29" x="93" y="451"/>
  <text style="fill:rgb(128,128,128);stroke:none;font-size:11px;" x="93" y="462">PDK1</text>
  <rect height="11" style="fill:rgb(255,255,255);stroke:none;" width="31" x="93" y="465"/>
  <text style="fill:rgb(128,128,128);stroke:none;font-size:11px;" x="93" y="476">CLMN</text>
  <rect height="11" style="fill:rgb(255,255,255);stroke:none;" width="26" x="93" y="479"/>
  <text style="fill:rgb(128,128,128);stroke:none;font-size:11px;" x="93" y="490">PKIG</text>
  <rect height="11" style="fill:rgb(255,255,255);stroke:none;" width="43" x="93" y="493"/>
  <text style="fill:rgb(128,128,128);stroke:none;font-size:11px;" x="93" y="504">LGALS2</text>
  <rect height="11" style="fill:rgb(255,255,255);stroke:none;" width="43" x="93" y="507"/>
  <text style="fill:rgb(128,128,128);stroke:none;font-size:11px;" x="93" y="518">DPYSL3</text>
  <rect height="11" style="fill:rgb(255,255,255);stroke:none;" width="49" x="93" y="521"/>
  <text style="fill:rgb(128,128,128);stroke:none;font-size:11px;" x="93" y="532">PLEKHA1</text>
  <rect height="11" style="fill:rgb(255,255,255);stroke:none;" width="27" x="108" y="535"/>
  <text style="fill:rgb(128,128,128);stroke:none;font-size:11px;" x="108" y="546">LRP4</text>
  <rect height="11" style="fill:rgb(255,255,255);stroke:none;" width="39" x="108" y="549"/>
  <text style="fill:rgb(128,128,128);stroke:none;font-size:11px;" x="108" y="560">TMCC2</text>
  <rect height="11" style="fill:rgb(255,255,255);stroke:none;" width="39" x="108" y="563"/>
  <text style="fill:rgb(128,128,128);stroke:none;font-size:11px;" x="108" y="574">BNIP3L</text>
  <rect height="11" style="fill:rgb(255,255,255);stroke:none;" width="45" x="137" y="577"/>
  <text style="fill:rgb(128,128,128);stroke:none;font-size:11px;" x="137" y="588">HS3ST1</text>
  <rect height="11" style="fill:rgb(255,255,255);stroke:none;" width="26" x="166" y="591"/>
  <text style="fill:rgb(128,128,128);stroke:none;font-size:11px;" x="166" y="602">CIB1</text>
  <rect height="11" style="fill:rgb(255,255,255);stroke:none;" width="40" x="166" y="605"/>
  <text style="fill:rgb(128,128,128);stroke:none;font-size:11px;" x="166" y="616">SOCS3</text>
  <rect height="11" style="fill:rgb(255,255,255);stroke:none;" width="38" x="195" y="619"/>
  <text style="fill:rgb(128,128,128);stroke:none;font-size:11px;" x="195" y="630">SESN3</text>
  <rect height="11" style="fill:rgb(255,255,255);stroke:none;" width="44" x="195" y="633"/>
  <text style="fill:rgb(128,128,128);stroke:none;font-size:11px;" x="195" y="644">PHLDB2</text>
  <rect height="12" style="fill:rgb(255,255,255);stroke:none;" width="21" x="210" y="647"/>
  <text style="fill:rgb(128,128,128);stroke:none;" x="210" y="659">MPI</text>
  <rect height="12" style="fill:rgb(255,255,255);stroke:none;" width="34" x="210" y="662"/>
  <text style="fill:rgb(128,128,128);stroke:none;" x="210" y="674">RBM5</text>
  <rect height="12" style="fill:rgb(255,255,255);stroke:none;" width="31" x="210" y="677"/>
  <text style="fill:rgb(128,128,128);stroke:none;" x="210" y="689">BFAR</text>
  <rect height="12" style="fill:rgb(255,255,255);stroke:none;" width="42" x="210" y="692"/>
  <text style="fill:rgb(128,128,128);stroke:none;" x="210" y="704">COQ8B</text>
  <rect height="12" style="fill:rgb(255,255,255);stroke:none;" width="54" x="210" y="707"/>
  <text style="fill:rgb(128,128,128);stroke:none;" x="210" y="719">BCDIN3D</text>
  <rect height="12" style="fill:rgb(255,255,255);stroke:none;" width="31" x="225" y="722"/>
  <text style="fill:rgb(128,128,128);stroke:none;" x="225" y="734">SAT1</text>
  <rect height="12" style="fill:rgb(255,255,255);stroke:none;" width="30" x="225" y="737"/>
  <text style="fill:rgb(128,128,128);stroke:none;" x="225" y="749">RFX5</text>
  <rect height="12" style="fill:rgb(255,255,255);stroke:none;" width="30" x="225" y="752"/>
  <text style="fill:rgb(128,128,128);stroke:none;" x="225" y="764">TCTA</text>
  <rect height="12" style="fill:rgb(255,255,255);stroke:none;" width="30" x="225" y="767"/>
  <text style="fill:rgb(128,128,128);stroke:none;" x="225" y="779">ATF3</text>
  <rect height="12" style="fill:rgb(255,255,255);stroke:none;" width="40" x="225" y="782"/>
  <text style="fill:rgb(128,128,128);stroke:none;" x="225" y="794">CERS4</text>
  <rect height="12" style="fill:rgb(255,255,255);stroke:none;" width="42" x="225" y="797"/>
  <text style="fill:rgb(128,128,128);stroke:none;" x="225" y="809">HDAC5</text>
  <rect height="12" style="fill:rgb(255,255,255);stroke:none;" width="34" x="225" y="812"/>
  <text style="fill:rgb(128,128,128);stroke:none;" x="225" y="824">IFFO1</text>
  <rect height="12" style="fill:rgb(255,255,255);stroke:none;" width="42" x="225" y="827"/>
  <text style="fill:rgb(128,128,128);stroke:none;" x="225" y="839">TMCO6</text>
  <rect height="12" style="fill:rgb(255,255,255);stroke:none;" width="47" x="225" y="842"/>
  <text style="fill:rgb(128,128,128);stroke:none;" x="225" y="854">FBXO44</text>
  <rect height="12" style="fill:rgb(255,255,255);stroke:none;" width="45" x="225" y="857"/>
  <text style="fill:rgb(128,128,128);stroke:none;" x="225" y="869">SNAPIN</text>
  <rect height="12" style="fill:rgb(255,255,255);stroke:none;" width="55" x="225" y="872"/>
  <text style="fill:rgb(128,128,128);stroke:none;" x="225" y="884">CYP39A1</text>
  <rect height="12" style="fill:rgb(255,255,255);stroke:none;" width="58" x="225" y="887"/>
  <text style="fill:rgb(128,128,128);stroke:none;" x="225" y="899">ZSCAN26</text>
  <rect height="12" style="fill:rgb(255,255,255);stroke:none;" width="25" x="239" y="902"/>
  <text style="fill:rgb(128,128,128);stroke:none;" x="239" y="914">DBP</text>
  <rect height="12" style="fill:rgb(255,255,255);stroke:none;" width="29" x="239" y="917"/>
  <text style="fill:rgb(128,128,128);stroke:none;" x="239" y="929">PIGO</text>
  <rect height="12" style="fill:rgb(255,255,255);stroke:none;" width="40" x="239" y="932"/>
  <text style="fill:rgb(128,128,128);stroke:none;" x="239" y="944">ABCC5</text>
  <rect height="12" style="fill:rgb(255,255,255);stroke:none;" width="41" x="239" y="947"/>
  <text style="fill:rgb(128,128,128);stroke:none;" x="239" y="959">UBFD1</text>
  <rect height="12" style="fill:rgb(255,255,255);stroke:none;" width="36" x="239" y="962"/>
  <text style="fill:rgb(128,128,128);stroke:none;" x="239" y="974">FLRT2</text>
  <rect height="12" style="fill:rgb(255,255,255);stroke:none;" width="49" x="239" y="977"/>
  <text style="fill:rgb(128,128,128);stroke:none;" x="239" y="989">SAMD9L</text>
  <rect height="12" style="fill:rgb(255,255,255);stroke:none;" width="52" x="239" y="992"/>
  <text style="fill:rgb(128,128,128);stroke:none;" x="239" y="1004">ZMYND8</text>
  <rect height="12" style="fill:rgb(255,255,255);stroke:none;" width="47" x="239" y="1007"/>
  <text style="fill:rgb(128,128,128);stroke:none;" x="239" y="1019">RNASEL</text>
  <rect height="12" style="fill:rgb(255,255,255);stroke:none;" width="59" x="239" y="1022"/>
  <text style="fill:rgb(128,128,128);stroke:none;" x="239" y="1034">TMEM63A</text>
  <rect height="12" style="fill:rgb(255,255,255);stroke:none;" width="32" x="254" y="1037"/>
  <text style="fill:rgb(128,128,128);stroke:none;" x="254" y="1049">ASPA</text>
  <rect height="12" style="fill:rgb(255,255,255);stroke:none;" width="32" x="254" y="1052"/>
  <text style="fill:rgb(128,128,128);stroke:none;" x="254" y="1064">RTN2</text>
  <rect height="12" style="fill:rgb(255,255,255);stroke:none;" width="34" x="254" y="1067"/>
  <text style="fill:rgb(128,128,128);stroke:none;" x="254" y="1079">NAGA</text>
  <rect height="12" style="fill:rgb(255,255,255);stroke:none;" width="32" x="254" y="1082"/>
  <text style="fill:rgb(128,128,128);stroke:none;" x="254" y="1094">CDK5</text>
  <rect height="12" style="fill:rgb(255,255,255);stroke:none;" width="39" x="254" y="1097"/>
  <text style="fill:rgb(128,128,128);stroke:none;" x="254" y="1109">THTPA</text>
  <rect height="12" style="fill:rgb(255,255,255);stroke:none;" width="39" x="254" y="1112"/>
  <text style="fill:rgb(128,128,128);stroke:none;" x="254" y="1124">KCTD4</text>
  <rect height="12" style="fill:rgb(255,255,255);stroke:none;" width="42" x="254" y="1127"/>
  <text style="fill:rgb(128,128,128);stroke:none;" x="254" y="1139">ABHD3</text>
  <rect height="12" style="fill:rgb(255,255,255);stroke:none;" width="51" x="254" y="1142"/>
  <text style="fill:rgb(128,128,128);stroke:none;" x="254" y="1154">TMEM80</text>
  <rect height="12" style="fill:rgb(255,255,255);stroke:none;" width="47" x="254" y="1157"/>
  <text style="fill:rgb(128,128,128);stroke:none;" x="254" y="1169">CRELD1</text>
  <rect height="12" style="fill:rgb(255,255,255);stroke:none;" width="52" x="254" y="1172"/>
  <text style="fill:rgb(128,128,128);stroke:none;" x="254" y="1184">DBNDD2</text>
  <rect height="12" style="fill:rgb(255,255,255);stroke:none;" width="54" x="254" y="1187"/>
  <text style="fill:rgb(128,128,128);stroke:none;" x="254" y="1199">SLC13A4</text>
  <rect height="12" style="fill:rgb(255,255,255);stroke:none;" width="33" x="268" y="1202"/>
  <text style="fill:rgb(128,128,128);stroke:none;" x="268" y="1214">NAV2</text>
  <rect height="12" style="fill:rgb(255,255,255);stroke:none;" width="33" x="268" y="1217"/>
  <text style="fill:rgb(128,128,128);stroke:none;" x="268" y="1229">NAV3</text>
  <rect height="12" style="fill:rgb(255,255,255);stroke:none;" width="32" x="268" y="1232"/>
  <text style="fill:rgb(128,128,128);stroke:none;" x="268" y="1244">PER3</text>
  <rect height="12" style="fill:rgb(255,255,255);stroke:none;" width="31" x="268" y="1247"/>
  <text style="fill:rgb(128,128,128);stroke:none;" x="268" y="1259">RECK</text>
  <rect height="12" style="fill:rgb(255,255,255);stroke:none;" width="41" x="268" y="1262"/>
  <text style="fill:rgb(128,128,128);stroke:none;" x="268" y="1274">UBXN8</text>
  <rect height="12" style="fill:rgb(255,255,255);stroke:none;" width="39" x="268" y="1277"/>
  <text style="fill:rgb(128,128,128);stroke:none;" x="268" y="1289">TYRO3</text>
  <rect height="12" style="fill:rgb(255,255,255);stroke:none;" width="51" x="268" y="1292"/>
  <text style="fill:rgb(128,128,128);stroke:none;" x="268" y="1304">TMEM8B</text>
  <rect height="12" style="fill:rgb(255,255,255);stroke:none;" width="49" x="268" y="1307"/>
  <text style="fill:rgb(128,128,128);stroke:none;" x="268" y="1319">NEDD4L</text>
  <rect height="12" style="fill:rgb(255,255,255);stroke:none;" width="55" x="268" y="1322"/>
  <text style="fill:rgb(128,128,128);stroke:none;" x="268" y="1334">PLEKHN1</text>
  <rect height="12" style="fill:rgb(255,255,255);stroke:none;" width="53" x="268" y="1337"/>
  <text style="fill:rgb(128,128,128);stroke:none;" x="268" y="1349">KATNAL2</text>
  <rect height="12" style="fill:rgb(255,255,255);stroke:none;" width="57" x="268" y="1352"/>
  <text style="fill:rgb(128,128,128);stroke:none;" x="268" y="1364">NDUFAF3</text>
  <rect height="12" style="fill:rgb(255,255,255);stroke:none;" width="41" x="283" y="1367"/>
  <text style="fill:rgb(128,128,128);stroke:none;" x="283" y="1379">DOCK4</text>
  <rect height="12" style="fill:rgb(255,255,255);stroke:none;" width="40" x="283" y="1382"/>
  <text style="fill:rgb(128,128,128);stroke:none;" x="283" y="1394">BRCA1</text>
  <rect height="12" style="fill:rgb(255,255,255);stroke:none;" width="43" x="283" y="1397"/>
  <text style="fill:rgb(128,128,128);stroke:none;" x="283" y="1409">SAMD5</text>
  <rect height="12" style="fill:rgb(255,255,255);stroke:none;" width="38" x="283" y="1412"/>
  <text style="fill:rgb(128,128,128);stroke:none;" x="283" y="1424">TAF9B</text>
  <rect height="11" style="fill:rgb(255,255,255);stroke:none;" width="29" x="297" y="1427"/>
  <text style="fill:rgb(128,128,128);stroke:none;font-size:11px;" x="297" y="1438">NREP</text>
  <rect height="11" style="fill:rgb(255,255,255);stroke:none;" width="26" x="297" y="1441"/>
  <text style="fill:rgb(128,128,128);stroke:none;font-size:11px;" x="297" y="1452">JAM2</text>
  <rect height="11" style="fill:rgb(255,255,255);stroke:none;" width="39" x="297" y="1455"/>
  <text style="fill:rgb(128,128,128);stroke:none;font-size:11px;" x="297" y="1466">CYP2J2</text>
  <rect height="11" style="fill:rgb(255,255,255);stroke:none;" width="55" x="297" y="1469"/>
  <text style="fill:rgb(128,128,128);stroke:none;font-size:11px;" x="297" y="1480">ZDHHC14</text>
  <rect height="11" style="fill:rgb(255,255,255);stroke:none;" width="33" x="312" y="1483"/>
  <text style="fill:rgb(128,128,128);stroke:none;font-size:11px;" x="312" y="1494">TIMP3</text>
  <rect height="11" style="fill:rgb(255,255,255);stroke:none;" width="32" x="327" y="1497"/>
  <text style="fill:rgb(128,128,128);stroke:none;font-size:11px;" x="327" y="1508">DNM3</text>
  <rect height="11" style="fill:rgb(255,255,255);stroke:none;" width="33" x="327" y="1511"/>
  <text style="fill:rgb(128,128,128);stroke:none;font-size:11px;" x="327" y="1522">GNG7</text>
  <rect height="11" style="fill:rgb(255,255,255);stroke:none;" width="40" x="370" y="339"/>
  <text style="fill:rgb(128,128,128);stroke:none;font-size:11px;" x="370" y="350">CNRIP1</text>
  <rect height="11" style="fill:rgb(255,255,255);stroke:none;" width="40" x="370" y="353"/>
  <text style="fill:rgb(128,128,128);stroke:none;font-size:11px;" x="370" y="364">IGFBP7</text>
  <rect height="11" style="fill:rgb(255,255,255);stroke:none;" width="45" x="370" y="367"/>
  <text style="fill:rgb(128,128,128);stroke:none;font-size:11px;" x="370" y="378">TNFAIP6</text>
  <rect height="11" style="fill:rgb(255,255,255);stroke:none;" width="40" x="385" y="381"/>
  <text style="fill:rgb(128,128,128);stroke:none;font-size:11px;" x="385" y="392">LHFPL6</text>
</svg>
