<?xml version="1.0" encoding="UTF-8" standalone="no"?>
<!DOCTYPE svg PUBLIC "-//W3C//DTD SVG 1.1//EN" "http://www.w3.org/Graphics/SVG/1.1/DTD/svg11.dtd">
<svg xmlns:xlink="http://www.w3.org/1999/xlink" height="158.74999999999997mm" version="1.1" viewBox="0 0 500 600" width="132.29166666666666mm" x="0mm" y="0mm" xmlns="http://www.w3.org/2000/svg">
  <rect height="1200" style="fill:rgb(255,255,255);stroke:none;" width="1000" x="0" y="0"/>
  <rect height="240" style="fill:rgb(191,191,191);fill-opacity:0.4980392156862745;stroke:none;" width="175" x="225" y="60"/>
  <line style="fill:none;stroke:rgb(63,63,191);stroke-opacity:0.24705882352941178;stroke-miterlimit:10;stroke-linecap:square;" x1="50" x2="-8" y1="300" y2="300"/>
  <line style="fill:none;stroke:rgb(63,63,191);stroke-opacity:0.24705882352941178;stroke-miterlimit:10;stroke-linecap:square;" x1="-8" x2="6" y1="300" y2="300"/>
  <line style="fill:none;stroke:rgb(63,63,191);stroke-opacity:0.24705882352941178;stroke-miterlimit:10;stroke-linecap:square;" x1="6" x2="20" y1="300" y2="300"/>
  <line style="fill:none;stroke:rgb(63,63,191);stroke-opacity:0.24705882352941178;stroke-miterlimit:10;stroke-linecap:square;" x1="20" x2="35" y1="300" y2="300"/>
  <line style="fill:none;stroke:rgb(63,63,191);stroke-opacity:0.24705882352941178;stroke-miterlimit:10;stroke-linecap:square;" x1="35" x2="50" y1="300" y2="300"/>
  <line style="fill:none;stroke:rgb(63,63,191);stroke-opacity:0.24705882352941178;stroke-miterlimit:10;stroke-linecap:square;" x1="50" x2="64" y1="300" y2="290"/>
  <line style="fill:none;stroke:rgb(63,63,191);stroke-opacity:0.24705882352941178;stroke-miterlimit:10;stroke-linecap:square;" x1="64" x2="79" y1="290" y2="280"/>
  <line style="fill:none;stroke:rgb(63,63,191);stroke-opacity:0.24705882352941178;stroke-miterlimit:10;stroke-linecap:square;" x1="79" x2="93" y1="280" y2="270"/>
  <line style="fill:none;stroke:rgb(63,63,191);stroke-opacity:0.24705882352941178;stroke-miterlimit:10;stroke-linecap:square;" x1="93" x2="108" y1="270" y2="260"/>
  <line style="fill:none;stroke:rgb(63,63,191);stroke-opacity:0.24705882352941178;stroke-miterlimit:10;stroke-linecap:square;" x1="108" x2="122" y1="260" y2="250"/>
  <line style="fill:none;stroke:rgb(63,63,191);stroke-opacity:0.24705882352941178;stroke-miterlimit:10;stroke-linecap:square;" x1="122" x2="137" y1="250" y2="240"/>
  <line style="fill:none;stroke:rgb(63,63,191);stroke-opacity:0.24705882352941178;stroke-miterlimit:10;stroke-linecap:square;" x1="137" x2="152" y1="240" y2="230"/>
  <line style="fill:none;stroke:rgb(63,63,191);stroke-opacity:0.24705882352941178;stroke-miterlimit:10;stroke-linecap:square;" x1="152" x2="166" y1="230" y2="220"/>
  <line style="fill:none;stroke:rgb(63,63,191);stroke-opacity:0.24705882352941178;stroke-miterlimit:10;stroke-linecap:square;" x1="166" x2="181" y1="220" y2="210"/>
  <line style="fill:none;stroke:rgb(63,63,191);stroke-opacity:0.24705882352941178;stroke-miterlimit:10;stroke-linecap:square;" x1="181" x2="195" y1="210" y2="200"/>
  <line style="fill:none;stroke:rgb(63,63,191);stroke-opacity:0.24705882352941178;stroke-miterlimit:10;stroke-linecap:square;" x1="195" x2="210" y1="200" y2="190"/>
  <line style="fill:none;stroke:rgb(63,63,191);stroke-opacity:0.24705882352941178;stroke-miterlimit:10;stroke-linecap:square;" x1="210" x2="225" y1="190" y2="180"/>
  <line style="fill:none;stroke:rgb(63,63,191);stroke-opacity:0.24705882352941178;stroke-miterlimit:10;stroke-linecap:square;" x1="225" x2="239" y1="180" y2="170"/>
  <line style="fill:none;stroke:rgb(63,63,191);stroke-opacity:0.24705882352941178;stroke-miterlimit:10;stroke-linecap:square;" x1="239" x2="254" y1="170" y2="160"/>
  <line style="fill:none;stroke:rgb(63,63,191);stroke-opacity:0.24705882352941178;stroke-miterlimit:10;stroke-linecap:square;" x1="254" x2="268" y1="160" y2="150"/>
  <line style="fill:none;stroke:rgb(63,63,191);stroke-opacity:0.24705882352941178;stroke-miterlimit:10;stroke-linecap:square;" x1="268" x2="283" y1="150" y2="140"/>
  <line style="fill:none;stroke:rgb(63,63,191);stroke-opacity:0.24705882352941178;stroke-miterlimit:10;stroke-linecap:square;" x1="283" x2="297" y1="140" y2="130"/>
  <line style="fill:none;stroke:rgb(63,63,191);stroke-opacity:0.24705882352941178;stroke-miterlimit:10;stroke-linecap:square;" x1="297" x2="312" y1="130" y2="120"/>
  <line style="fill:none;stroke:rgb(63,63,191);stroke-opacity:0.24705882352941178;stroke-miterlimit:10;stroke-linecap:square;" x1="312" x2="327" y1="120" y2="110"/>
  <line style="fill:none;stroke:rgb(63,63,191);stroke-opacity:0.24705882352941178;stroke-miterlimit:10;stroke-linecap:square;" x1="327" x2="341" y1="110" y2="100"/>
  <line style="fill:none;stroke:rgb(63,63,191);stroke-opacity:0.24705882352941178;stroke-miterlimit:10;stroke-linecap:square;" x1="341" x2="400" y1="100" y2="60"/>
  <rect height="4" style="fill:rgb(255,127,0);fill-opacity:0.7490196078431373;stroke:none;" width="4" x="-10" y="295"/>
  <line style="fill:none;stroke:rgb(255,127,0);stroke-opacity:0.24705882352941178;stroke-width:2;stroke-miterlimit:10;stroke-linecap:square;" x1="50" x2="-8" y1="300" y2="300"/>
  <line style="fill:none;stroke:rgb(255,127,0);stroke-opacity:0.24705882352941178;stroke-width:2;stroke-miterlimit:10;stroke-linecap:square;" x1="-8" x2="-8" y1="298" y2="297"/>
  <rect height="22" style="fill:rgb(255,127,0);fill-opacity:0.7490196078431373;stroke:none;" width="4" x="4" y="277"/>
  <line style="fill:none;stroke:rgb(255,127,0);stroke-opacity:0.24705882352941178;stroke-width:2;stroke-miterlimit:10;stroke-linecap:square;" x1="-8" x2="6" y1="295" y2="295"/>
  <line style="fill:none;stroke:rgb(255,127,0);stroke-opacity:0.24705882352941178;stroke-width:2;stroke-miterlimit:10;stroke-linecap:square;" x1="6" x2="6" y1="293" y2="275"/>
  <rect height="26" style="fill:rgb(255,127,0);fill-opacity:0.7490196078431373;stroke:none;" width="4" x="18" y="273"/>
  <line style="fill:none;stroke:rgb(255,127,0);stroke-opacity:0.24705882352941178;stroke-width:2;stroke-miterlimit:10;stroke-linecap:square;" x1="6" x2="20" y1="273" y2="273"/>
  <line style="fill:none;stroke:rgb(255,127,0);stroke-opacity:0.24705882352941178;stroke-width:2;stroke-miterlimit:10;stroke-linecap:square;" x1="20" x2="20" y1="271" y2="248"/>
  <rect height="13" style="fill:rgb(255,127,0);fill-opacity:0.7490196078431373;stroke:none;" width="4" x="33" y="286"/>
  <line style="fill:none;stroke:rgb(255,127,0);stroke-opacity:0.24705882352941178;stroke-width:2;stroke-miterlimit:10;stroke-linecap:square;" x1="20" x2="35" y1="246" y2="246"/>
  <line style="fill:none;stroke:rgb(255,127,0);stroke-opacity:0.24705882352941178;stroke-width:2;stroke-miterlimit:10;stroke-linecap:square;" x1="35" x2="35" y1="244" y2="235"/>
  <rect height="17" style="fill:rgb(255,127,0);fill-opacity:0.7490196078431373;stroke:none;" width="4" x="48" y="282"/>
  <line style="fill:none;stroke:rgb(255,127,0);stroke-opacity:0.24705882352941178;stroke-width:2;stroke-miterlimit:10;stroke-linecap:square;" x1="35" x2="50" y1="233" y2="233"/>
  <line style="fill:none;stroke:rgb(255,127,0);stroke-opacity:0.24705882352941178;stroke-width:2;stroke-miterlimit:10;stroke-linecap:square;" x1="50" x2="50" y1="231" y2="217"/>
  <rect height="4" style="fill:rgb(255,127,0);fill-opacity:0.7490196078431373;stroke:none;" width="4" x="62" y="295"/>
  <line style="fill:none;stroke:rgb(255,127,0);stroke-opacity:0.24705882352941178;stroke-width:2;stroke-miterlimit:10;stroke-linecap:square;" x1="50" x2="64" y1="215" y2="215"/>
  <line style="fill:none;stroke:rgb(255,127,0);stroke-opacity:0.24705882352941178;stroke-width:2;stroke-miterlimit:10;stroke-linecap:square;" x1="64" x2="64" y1="213" y2="213"/>
  <rect height="4" style="fill:rgb(255,127,0);fill-opacity:0.7490196078431373;stroke:none;" width="4" x="77" y="295"/>
  <line style="fill:none;stroke:rgb(255,127,0);stroke-opacity:0.24705882352941178;stroke-width:2;stroke-miterlimit:10;stroke-linecap:square;" x1="64" x2="79" y1="211" y2="211"/>
  <line style="fill:none;stroke:rgb(255,127,0);stroke-opacity:0.24705882352941178;stroke-width:2;stroke-miterlimit:10;stroke-linecap:square;" x1="79" x2="79" y1="209" y2="208"/>
  <rect height="4" style="fill:rgb(255,127,0);fill-opacity:0.7490196078431373;stroke:none;" width="4" x="106" y="295"/>
  <line style="fill:none;stroke:rgb(255,127,0);stroke-opacity:0.24705882352941178;stroke-width:2;stroke-miterlimit:10;stroke-linecap:square;" x1="79" x2="108" y1="206" y2="206"/>
  <line style="fill:none;stroke:rgb(255,127,0);stroke-opacity:0.24705882352941178;stroke-width:2;stroke-miterlimit:10;stroke-linecap:square;" x1="108" x2="108" y1="204" y2="204"/>
  <rect height="4" style="fill:rgb(255,127,0);fill-opacity:0.7490196078431373;stroke:none;" width="4" x="135" y="295"/>
  <line style="fill:none;stroke:rgb(255,127,0);stroke-opacity:0.24705882352941178;stroke-width:2;stroke-miterlimit:10;stroke-linecap:square;" x1="108" x2="137" y1="202" y2="202"/>
  <line style="fill:none;stroke:rgb(255,127,0);stroke-opacity:0.24705882352941178;stroke-width:2;stroke-miterlimit:10;stroke-linecap:square;" x1="137" x2="137" y1="200" y2="199"/>
  <rect height="17" style="fill:rgb(255,127,0);fill-opacity:0.7490196078431373;stroke:none;" width="4" x="150" y="282"/>
  <line style="fill:none;stroke:rgb(255,127,0);stroke-opacity:0.24705882352941178;stroke-width:2;stroke-miterlimit:10;stroke-linecap:square;" x1="137" x2="152" y1="197" y2="197"/>
  <line style="fill:none;stroke:rgb(255,127,0);stroke-opacity:0.24705882352941178;stroke-width:2;stroke-miterlimit:10;stroke-linecap:square;" x1="152" x2="152" y1="195" y2="182"/>
  <rect height="26" style="fill:rgb(255,127,0);fill-opacity:0.7490196078431373;stroke:none;" width="4" x="164" y="273"/>
  <line style="fill:none;stroke:rgb(255,127,0);stroke-opacity:0.24705882352941178;stroke-width:2;stroke-miterlimit:10;stroke-linecap:square;" x1="152" x2="166" y1="180" y2="180"/>
  <line style="fill:none;stroke:rgb(255,127,0);stroke-opacity:0.24705882352941178;stroke-width:2;stroke-miterlimit:10;stroke-linecap:square;" x1="166" x2="166" y1="178" y2="155"/>
  <rect height="17" style="fill:rgb(255,127,0);fill-opacity:0.7490196078431373;stroke:none;" width="4" x="179" y="282"/>
  <line style="fill:none;stroke:rgb(255,127,0);stroke-opacity:0.24705882352941178;stroke-width:2;stroke-miterlimit:10;stroke-linecap:square;" x1="166" x2="181" y1="153" y2="153"/>
  <line style="fill:none;stroke:rgb(255,127,0);stroke-opacity:0.24705882352941178;stroke-width:2;stroke-miterlimit:10;stroke-linecap:square;" x1="181" x2="181" y1="151" y2="137"/>
  <rect height="17" style="fill:rgb(255,127,0);fill-opacity:0.7490196078431373;stroke:none;" width="4" x="193" y="282"/>
  <line style="fill:none;stroke:rgb(255,127,0);stroke-opacity:0.24705882352941178;stroke-width:2;stroke-miterlimit:10;stroke-linecap:square;" x1="181" x2="195" y1="135" y2="135"/>
  <line style="fill:none;stroke:rgb(255,127,0);stroke-opacity:0.24705882352941178;stroke-width:2;stroke-miterlimit:10;stroke-linecap:square;" x1="195" x2="195" y1="133" y2="119"/>
  <rect height="22" style="fill:rgb(255,127,0);fill-opacity:0.7490196078431373;stroke:none;" width="4" x="223" y="277"/>
  <line style="fill:none;stroke:rgb(255,127,0);stroke-opacity:0.24705882352941178;stroke-width:2;stroke-miterlimit:10;stroke-linecap:square;" x1="195" x2="225" y1="117" y2="117"/>
  <line style="fill:none;stroke:rgb(255,127,0);stroke-opacity:0.24705882352941178;stroke-width:2;stroke-miterlimit:10;stroke-linecap:square;" x1="225" x2="225" y1="115" y2="97"/>
  <rect height="4" style="fill:rgb(255,127,0);fill-opacity:0.7490196078431373;stroke:none;" width="4" x="237" y="295"/>
  <line style="fill:none;stroke:rgb(255,127,0);stroke-opacity:0.24705882352941178;stroke-width:2;stroke-miterlimit:10;stroke-linecap:square;" x1="225" x2="239" y1="95" y2="95"/>
  <line style="fill:none;stroke:rgb(255,127,0);stroke-opacity:0.24705882352941178;stroke-width:2;stroke-miterlimit:10;stroke-linecap:square;" x1="239" x2="239" y1="93" y2="93"/>
  <rect height="8" style="fill:rgb(255,127,0);fill-opacity:0.7490196078431373;stroke:none;" width="4" x="252" y="291"/>
  <line style="fill:none;stroke:rgb(255,127,0);stroke-opacity:0.24705882352941178;stroke-width:2;stroke-miterlimit:10;stroke-linecap:square;" x1="239" x2="254" y1="91" y2="91"/>
  <line style="fill:none;stroke:rgb(255,127,0);stroke-opacity:0.24705882352941178;stroke-width:2;stroke-miterlimit:10;stroke-linecap:square;" x1="254" x2="254" y1="89" y2="84"/>
  <rect height="8" style="fill:rgb(255,127,0);fill-opacity:0.7490196078431373;stroke:none;" width="4" x="310" y="291"/>
  <line style="fill:none;stroke:rgb(255,127,0);stroke-opacity:0.24705882352941178;stroke-width:2;stroke-miterlimit:10;stroke-linecap:square;" x1="254" x2="312" y1="82" y2="82"/>
  <line style="fill:none;stroke:rgb(255,127,0);stroke-opacity:0.24705882352941178;stroke-width:2;stroke-miterlimit:10;stroke-linecap:square;" x1="312" x2="312" y1="80" y2="75"/>
  <rect height="8" style="fill:rgb(255,127,0);fill-opacity:0.7490196078431373;stroke:none;" width="4" x="325" y="291"/>
  <line style="fill:none;stroke:rgb(255,127,0);stroke-opacity:0.24705882352941178;stroke-width:2;stroke-miterlimit:10;stroke-linecap:square;" x1="312" x2="327" y1="73" y2="73"/>
  <line style="fill:none;stroke:rgb(255,127,0);stroke-opacity:0.24705882352941178;stroke-width:2;stroke-miterlimit:10;stroke-linecap:square;" x1="327" x2="327" y1="71" y2="66"/>
  <rect height="4" style="fill:rgb(255,127,0);fill-opacity:0.7490196078431373;stroke:none;" width="4" x="339" y="295"/>
  <line style="fill:none;stroke:rgb(255,127,0);stroke-opacity:0.24705882352941178;stroke-width:2;stroke-miterlimit:10;stroke-linecap:square;" x1="327" x2="341" y1="64" y2="64"/>
  <line style="fill:none;stroke:rgb(255,127,0);stroke-opacity:0.24705882352941178;stroke-width:2;stroke-miterlimit:10;stroke-linecap:square;" x1="341" x2="341" y1="62" y2="62"/>
  <line style="fill:none;stroke:rgb(255,127,0);stroke-opacity:0.24705882352941178;stroke-width:2;stroke-miterlimit:10;stroke-linecap:square;" x1="341" x2="400" y1="60" y2="60"/>
  <line style="fill:none;stroke:rgb(255,127,0);stroke-opacity:0.4980392156862745;stroke-miterlimit:2;stroke-dasharray:2;" x1="-8" x2="-8" y1="300" y2="367"/>
  <line style="fill:none;stroke:rgb(255,127,0);stroke-opacity:0.4980392156862745;stroke-miterlimit:2;stroke-dasharray:2;" x1="6" x2="6" y1="300" y2="384"/>
  <line style="fill:none;stroke:rgb(255,127,0);stroke-opacity:0.4980392156862745;stroke-miterlimit:2;stroke-dasharray:2;" x1="6" x2="6" y1="300" y2="401"/>
  <line style="fill:none;stroke:rgb(255,127,0);stroke-opacity:0.4980392156862745;stroke-miterlimit:2;stroke-dasharray:2;" x1="6" x2="6" y1="300" y2="418"/>
  <line style="fill:none;stroke:rgb(255,127,0);stroke-opacity:0.4980392156862745;stroke-miterlimit:2;stroke-dasharray:2;" x1="6" x2="6" y1="300" y2="435"/>
  <line style="fill:none;stroke:rgb(255,127,0);stroke-opacity:0.4980392156862745;stroke-miterlimit:2;stroke-dasharray:2;" x1="6" x2="6" y1="300" y2="452"/>
  <line style="fill:none;stroke:rgb(255,127,0);stroke-opacity:0.4980392156862745;stroke-miterlimit:2;stroke-dasharray:2;" x1="20" x2="20" y1="300" y2="469"/>
  <line style="fill:none;stroke:rgb(255,127,0);stroke-opacity:0.4980392156862745;stroke-miterlimit:2;stroke-dasharray:2;" x1="20" x2="20" y1="300" y2="486"/>
  <line style="fill:none;stroke:rgb(255,127,0);stroke-opacity:0.4980392156862745;stroke-miterlimit:2;stroke-dasharray:2;" x1="20" x2="20" y1="300" y2="503"/>
  <line style="fill:none;stroke:rgb(255,127,0);stroke-opacity:0.4980392156862745;stroke-miterlimit:2;stroke-dasharray:2;" x1="20" x2="20" y1="300" y2="520"/>
  <line style="fill:none;stroke:rgb(255,127,0);stroke-opacity:0.4980392156862745;stroke-miterlimit:2;stroke-dasharray:2;" x1="20" x2="20" y1="300" y2="537"/>
  <line style="fill:none;stroke:rgb(255,127,0);stroke-opacity:0.4980392156862745;stroke-miterlimit:2;stroke-dasharray:2;" x1="20" x2="20" y1="300" y2="554"/>
  <line style="fill:none;stroke:rgb(255,127,0);stroke-opacity:0.4980392156862745;stroke-miterlimit:2;stroke-dasharray:2;" x1="35" x2="35" y1="300" y2="571"/>
  <line style="fill:none;stroke:rgb(255,127,0);stroke-opacity:0.4980392156862745;stroke-miterlimit:2;stroke-dasharray:2;" x1="35" x2="35" y1="300" y2="588"/>
  <line style="fill:none;stroke:rgb(255,127,0);stroke-opacity:0.4980392156862745;stroke-miterlimit:2;stroke-dasharray:2;" x1="35" x2="35" y1="300" y2="605"/>
  <line style="fill:none;stroke:rgb(255,127,0);stroke-opacity:0.4980392156862745;stroke-miterlimit:2;stroke-dasharray:2;" x1="50" x2="50" y1="300" y2="622"/>
  <line style="fill:none;stroke:rgb(255,127,0);stroke-opacity:0.4980392156862745;stroke-miterlimit:2;stroke-dasharray:2;" x1="50" x2="50" y1="300" y2="639"/>
  <line style="fill:none;stroke:rgb(255,127,0);stroke-opacity:0.4980392156862745;stroke-miterlimit:2;stroke-dasharray:2;" x1="50" x2="50" y1="300" y2="656"/>
  <line style="fill:none;stroke:rgb(255,127,0);stroke-opacity:0.4980392156862745;stroke-miterlimit:2;stroke-dasharray:2;" x1="50" x2="50" y1="300" y2="673"/>
  <line style="fill:none;stroke:rgb(255,127,0);stroke-opacity:0.4980392156862745;stroke-miterlimit:2;stroke-dasharray:2;" x1="64" x2="64" y1="300" y2="688"/>
  <line style="fill:none;stroke:rgb(255,127,0);stroke-opacity:0.4980392156862745;stroke-miterlimit:2;stroke-dasharray:2;" x1="79" x2="79" y1="300" y2="703"/>
  <line style="fill:none;stroke:rgb(255,127,0);stroke-opacity:0.4980392156862745;stroke-miterlimit:2;stroke-dasharray:2;" x1="108" x2="108" y1="300" y2="718"/>
  <line style="fill:none;stroke:rgb(255,127,0);stroke-opacity:0.4980392156862745;stroke-miterlimit:2;stroke-dasharray:2;" x1="137" x2="137" y1="300" y2="733"/>
  <line style="fill:none;stroke:rgb(255,127,0);stroke-opacity:0.4980392156862745;stroke-miterlimit:2;stroke-dasharray:2;" x1="152" x2="152" y1="300" y2="746"/>
  <line style="fill:none;stroke:rgb(255,127,0);stroke-opacity:0.4980392156862745;stroke-miterlimit:2;stroke-dasharray:2;" x1="152" x2="152" y1="300" y2="759"/>
  <line style="fill:none;stroke:rgb(255,127,0);stroke-opacity:0.4980392156862745;stroke-miterlimit:2;stroke-dasharray:2;" x1="152" x2="152" y1="300" y2="772"/>
  <line style="fill:none;stroke:rgb(255,127,0);stroke-opacity:0.4980392156862745;stroke-miterlimit:2;stroke-dasharray:2;" x1="152" x2="152" y1="300" y2="785"/>
  <line style="fill:none;stroke:rgb(255,127,0);stroke-opacity:0.4980392156862745;stroke-miterlimit:2;stroke-dasharray:2;" x1="166" x2="166" y1="300" y2="798"/>
  <line style="fill:none;stroke:rgb(255,127,0);stroke-opacity:0.4980392156862745;stroke-miterlimit:2;stroke-dasharray:2;" x1="166" x2="166" y1="300" y2="811"/>
  <line style="fill:none;stroke:rgb(255,127,0);stroke-opacity:0.4980392156862745;stroke-miterlimit:2;stroke-dasharray:2;" x1="166" x2="166" y1="300" y2="824"/>
  <line style="fill:none;stroke:rgb(255,127,0);stroke-opacity:0.4980392156862745;stroke-miterlimit:2;stroke-dasharray:2;" x1="166" x2="166" y1="300" y2="837"/>
  <line style="fill:none;stroke:rgb(255,127,0);stroke-opacity:0.4980392156862745;stroke-miterlimit:2;stroke-dasharray:2;" x1="166" x2="166" y1="300" y2="850"/>
  <line style="fill:none;stroke:rgb(255,127,0);stroke-opacity:0.4980392156862745;stroke-miterlimit:2;stroke-dasharray:2;" x1="166" x2="166" y1="300" y2="863"/>
  <line style="fill:none;stroke:rgb(255,127,0);stroke-opacity:0.4980392156862745;stroke-miterlimit:2;stroke-dasharray:2;" x1="181" x2="181" y1="300" y2="876"/>
  <line style="fill:none;stroke:rgb(255,127,0);stroke-opacity:0.4980392156862745;stroke-miterlimit:2;stroke-dasharray:2;" x1="181" x2="181" y1="300" y2="889"/>
  <line style="fill:none;stroke:rgb(255,127,0);stroke-opacity:0.4980392156862745;stroke-miterlimit:2;stroke-dasharray:2;" x1="181" x2="181" y1="300" y2="902"/>
  <line style="fill:none;stroke:rgb(255,127,0);stroke-opacity:0.4980392156862745;stroke-miterlimit:2;stroke-dasharray:2;" x1="181" x2="181" y1="300" y2="915"/>
  <line style="fill:none;stroke:rgb(255,127,0);stroke-opacity:0.4980392156862745;stroke-miterlimit:2;stroke-dasharray:2;" x1="195" x2="195" y1="300" y2="928"/>
  <line style="fill:none;stroke:rgb(255,127,0);stroke-opacity:0.4980392156862745;stroke-miterlimit:2;stroke-dasharray:2;" x1="195" x2="195" y1="300" y2="941"/>
  <line style="fill:none;stroke:rgb(255,127,0);stroke-opacity:0.4980392156862745;stroke-miterlimit:2;stroke-dasharray:2;" x1="195" x2="195" y1="300" y2="954"/>
  <line style="fill:none;stroke:rgb(255,127,0);stroke-opacity:0.4980392156862745;stroke-miterlimit:2;stroke-dasharray:2;" x1="195" x2="195" y1="300" y2="967"/>
  <line style="fill:none;stroke:rgb(255,127,0);stroke-opacity:0.4980392156862745;stroke-miterlimit:2;stroke-dasharray:2;" x1="225" x2="225" y1="300" y2="980"/>
  <line style="fill:none;stroke:rgb(255,127,0);stroke-opacity:0.4980392156862745;stroke-miterlimit:2;stroke-dasharray:2;" x1="225" x2="225" y1="300" y2="993"/>
  <line style="fill:none;stroke:rgb(255,127,0);stroke-opacity:0.4980392156862745;stroke-miterlimit:2;stroke-dasharray:2;" x1="225" x2="225" y1="300" y2="1006"/>
  <line style="fill:none;stroke:rgb(255,127,0);stroke-opacity:0.4980392156862745;stroke-miterlimit:2;stroke-dasharray:2;" x1="225" x2="225" y1="300" y2="1019"/>
  <line style="fill:none;stroke:rgb(255,127,0);stroke-opacity:0.4980392156862745;stroke-miterlimit:2;stroke-dasharray:2;" x1="225" x2="225" y1="300" y2="1032"/>
  <line style="fill:none;stroke:rgb(255,127,0);stroke-opacity:0.4980392156862745;stroke-miterlimit:2;stroke-dasharray:2;" x1="239" x2="239" y1="300" y2="1044"/>
  <line style="fill:none;stroke:rgb(255,127,0);stroke-opacity:0.4980392156862745;stroke-miterlimit:2;stroke-dasharray:2;" x1="254" x2="254" y1="300" y2="1056"/>
  <line style="fill:none;stroke:rgb(255,127,0);stroke-opacity:0.4980392156862745;stroke-miterlimit:2;stroke-dasharray:2;" x1="254" x2="254" y1="300" y2="1068"/>
  <line style="fill:none;stroke:rgb(255,127,0);stroke-opacity:0.4980392156862745;stroke-miterlimit:2;stroke-dasharray:2;" x1="312" x2="312" y1="300" y2="350"/>
  <line style="fill:none;stroke:rgb(255,127,0);stroke-opacity:0.4980392156862745;stroke-miterlimit:2;stroke-dasharray:2;" x1="312" x2="312" y1="300" y2="362"/>
  <line style="fill:none;stroke:rgb(255,127,0);stroke-opacity:0.4980392156862745;stroke-miterlimit:2;stroke-dasharray:2;" x1="327" x2="327" y1="300" y2="374"/>
  <line style="fill:none;stroke:rgb(255,127,0);stroke-opacity:0.4980392156862745;stroke-miterlimit:2;stroke-dasharray:2;" x1="327" x2="327" y1="300" y2="386"/>
  <line style="fill:none;stroke:rgb(255,127,0);stroke-opacity:0.4980392156862745;stroke-miterlimit:2;stroke-dasharray:2;" x1="341" x2="341" y1="300" y2="398"/>
  <line style="fill:none;stroke:rgb(0,0,0);stroke-width:2;stroke-miterlimit:10;stroke-linecap:square;" x1="48" x2="48" y1="60" y2="300"/>
  <line style="fill:none;stroke:rgb(0,0,0);stroke-width:2;stroke-miterlimit:10;stroke-linecap:square;" x1="48" x2="402" y1="300" y2="300"/>
  <rect height="30" style="fill:rgb(255,255,255);stroke:none;" width="17" x="42" y="308"/>
  <text style="fill:rgb(0,0,0);stroke:none;font-size:25px;font-weight:bold;" x="42" y="332">0</text>
  <rect height="30" style="fill:rgb(255,255,255);stroke:none;" width="34" x="383" y="308"/>
  <text style="fill:rgb(0,0,0);stroke:none;font-size:25px;font-weight:bold;" x="383" y="332">24</text>
  <text style="fill:rgb(0,0,0);stroke:none;font-size:25px;font-weight:bold;" x="25" y="312">0</text>
  <text style="fill:rgb(0,0,0);stroke:none;font-size:25px;font-weight:bold;" x="25" y="72">1</text>
  <text style="fill:rgb(0,0,0);stroke:none;font-size:25px;font-weight:bold;" x="16" y="42">HAMAI_APOPTOSIS_VIA_TRAIL_UP</text>
  <rect height="13" style="fill:rgb(255,255,255);stroke:none;" width="44" x="-8" y="354"/>
  <text style="fill:rgb(128,128,128);stroke:none;font-size:13px;" x="-8" y="367">CENPC</text>
  <rect height="13" style="fill:rgb(255,255,255);stroke:none;" width="34" x="6" y="371"/>
  <text style="fill:rgb(128,128,128);stroke:none;font-size:13px;" x="6" y="384">RPGR</text>
  <rect height="13" style="fill:rgb(255,255,255);stroke:none;" width="36" x="6" y="388"/>
  <text style="fill:rgb(128,128,128);stroke:none;font-size:13px;" x="6" y="401">COLQ</text>
  <rect height="13" style="fill:rgb(255,255,255);stroke:none;" width="43" x="6" y="405"/>
  <text style="fill:rgb(128,128,128);stroke:none;font-size:13px;" x="6" y="418">SNX10</text>
  <rect height="13" style="fill:rgb(255,255,255);stroke:none;" width="41" x="6" y="422"/>
  <text style="fill:rgb(128,128,128);stroke:none;font-size:13px;" x="6" y="435">PALLD</text>
  <rect height="13" style="fill:rgb(255,255,255);stroke:none;" width="58" x="6" y="439"/>
  <text style="fill:rgb(128,128,128);stroke:none;font-size:13px;" x="6" y="452">SLC24A3</text>
  <rect height="13" style="fill:rgb(255,255,255);stroke:none;" width="26" x="20" y="456"/>
  <text style="fill:rgb(128,128,128);stroke:none;font-size:13px;" x="20" y="469">MTR</text>
  <rect height="13" style="fill:rgb(255,255,255);stroke:none;" width="35" x="20" y="473"/>
  <text style="fill:rgb(128,128,128);stroke:none;font-size:13px;" x="20" y="486">OPA1</text>
  <rect height="13" style="fill:rgb(255,255,255);stroke:none;" width="41" x="20" y="490"/>
  <text style="fill:rgb(128,128,128);stroke:none;font-size:13px;" x="20" y="503">SULF2</text>
  <rect height="13" style="fill:rgb(255,255,255);stroke:none;" width="48" x="20" y="507"/>
  <text style="fill:rgb(128,128,128);stroke:none;font-size:13px;" x="20" y="520">LRRC40</text>
  <rect height="13" style="fill:rgb(255,255,255);stroke:none;" width="51" x="20" y="524"/>
  <text style="fill:rgb(128,128,128);stroke:none;font-size:13px;" x="20" y="537">SPECC1</text>
  <rect height="13" style="fill:rgb(255,255,255);stroke:none;" width="69" x="20" y="541"/>
  <text style="fill:rgb(128,128,128);stroke:none;font-size:13px;" x="20" y="554">PPARGC1A</text>
  <rect height="13" style="fill:rgb(255,255,255);stroke:none;" width="33" x="35" y="558"/>
  <text style="fill:rgb(128,128,128);stroke:none;font-size:13px;" x="35" y="571">PHF3</text>
  <rect height="13" style="fill:rgb(255,255,255);stroke:none;" width="41" x="35" y="575"/>
  <text style="fill:rgb(128,128,128);stroke:none;font-size:13px;" x="35" y="588">VLDLR</text>
  <rect height="13" style="fill:rgb(255,255,255);stroke:none;" width="54" x="35" y="592"/>
  <text style="fill:rgb(128,128,128);stroke:none;font-size:13px;" x="35" y="605">MGAT4A</text>
  <rect height="13" style="fill:rgb(255,255,255);stroke:none;" width="38" x="50" y="609"/>
  <text style="fill:rgb(128,128,128);stroke:none;font-size:13px;" x="50" y="622">FMOD</text>
  <rect height="13" style="fill:rgb(255,255,255);stroke:none;" width="45" x="50" y="626"/>
  <text style="fill:rgb(128,128,128);stroke:none;font-size:13px;" x="50" y="639">BNIP3L</text>
  <rect height="13" style="fill:rgb(255,255,255);stroke:none;" width="49" x="50" y="643"/>
  <text style="fill:rgb(128,128,128);stroke:none;font-size:13px;" x="50" y="656">RNF145</text>
  <rect height="13" style="fill:rgb(255,255,255);stroke:none;" width="65" x="50" y="660"/>
  <text style="fill:rgb(128,128,128);stroke:none;font-size:13px;" x="50" y="673">ZDHHC11</text>
  <rect height="12" style="fill:rgb(255,255,255);stroke:none;" width="43" x="64" y="676"/>
  <text style="fill:rgb(128,128,128);stroke:none;" x="64" y="688">MOXD1</text>
  <rect height="12" style="fill:rgb(255,255,255);stroke:none;" width="36" x="79" y="691"/>
  <text style="fill:rgb(128,128,128);stroke:none;" x="79" y="703">ORAI3</text>
  <rect height="12" style="fill:rgb(255,255,255);stroke:none;" width="41" x="108" y="706"/>
  <text style="fill:rgb(128,128,128);stroke:none;" x="108" y="718">SOCS3</text>
  <rect height="12" style="fill:rgb(255,255,255);stroke:none;" width="37" x="137" y="721"/>
  <text style="fill:rgb(128,128,128);stroke:none;" x="137" y="733">HMMR</text>
  <rect height="10" style="fill:rgb(255,255,255);stroke:none;" width="31" x="152" y="736"/>
  <text style="fill:rgb(128,128,128);stroke:none;font-size:10px;" x="152" y="746">LIMA1</text>
  <rect height="10" style="fill:rgb(255,255,255);stroke:none;" width="35" x="152" y="749"/>
  <text style="fill:rgb(128,128,128);stroke:none;font-size:10px;" x="152" y="759">MFAP1</text>
  <rect height="10" style="fill:rgb(255,255,255);stroke:none;" width="38" x="152" y="762"/>
  <text style="fill:rgb(128,128,128);stroke:none;font-size:10px;" x="152" y="772">ZNF397</text>
  <rect height="10" style="fill:rgb(255,255,255);stroke:none;" width="53" x="152" y="775"/>
  <text style="fill:rgb(128,128,128);stroke:none;font-size:10px;" x="152" y="785">CHORDC1</text>
  <rect height="10" style="fill:rgb(255,255,255);stroke:none;" width="29" x="166" y="788"/>
  <text style="fill:rgb(128,128,128);stroke:none;font-size:10px;" x="166" y="798">SACS</text>
  <rect height="10" style="fill:rgb(255,255,255);stroke:none;" width="34" x="166" y="801"/>
  <text style="fill:rgb(128,128,128);stroke:none;font-size:10px;" x="166" y="811">CETN3</text>
  <rect height="10" style="fill:rgb(255,255,255);stroke:none;" width="37" x="166" y="814"/>
  <text style="fill:rgb(128,128,128);stroke:none;font-size:10px;" x="166" y="824">ZMYM1</text>
  <rect height="10" style="fill:rgb(255,255,255);stroke:none;" width="33" x="166" y="827"/>
  <text style="fill:rgb(128,128,128);stroke:none;font-size:10px;" x="166" y="837">THAP1</text>
  <rect height="10" style="fill:rgb(255,255,255);stroke:none;" width="34" x="166" y="840"/>
  <text style="fill:rgb(128,128,128);stroke:none;font-size:10px;" x="166" y="850">RAD50</text>
  <rect height="10" style="fill:rgb(255,255,255);stroke:none;" width="39" x="166" y="853"/>
  <text style="fill:rgb(128,128,128);stroke:none;font-size:10px;" x="166" y="863">DNAJA1</text>
  <rect height="10" style="fill:rgb(255,255,255);stroke:none;" width="26" x="181" y="866"/>
  <text style="fill:rgb(128,128,128);stroke:none;font-size:10px;" x="181" y="876">FPGT</text>
  <rect height="10" style="fill:rgb(255,255,255);stroke:none;" width="36" x="181" y="879"/>
  <text style="fill:rgb(128,128,128);stroke:none;font-size:10px;" x="181" y="889">HSPH1</text>
  <rect height="10" style="fill:rgb(255,255,255);stroke:none;" width="35" x="181" y="892"/>
  <text style="fill:rgb(128,128,128);stroke:none;font-size:10px;" x="181" y="902">GKAP1</text>
  <rect height="10" style="fill:rgb(255,255,255);stroke:none;" width="50" x="181" y="905"/>
  <text style="fill:rgb(128,128,128);stroke:none;font-size:10px;" x="181" y="915">DCLRE1C</text>
  <rect height="10" style="fill:rgb(255,255,255);stroke:none;" width="28" x="195" y="918"/>
  <text style="fill:rgb(128,128,128);stroke:none;font-size:10px;" x="195" y="928">THBD</text>
  <rect height="10" style="fill:rgb(255,255,255);stroke:none;" width="28" x="195" y="931"/>
  <text style="fill:rgb(128,128,128);stroke:none;font-size:10px;" x="195" y="941">NEK1</text>
  <rect height="10" style="fill:rgb(255,255,255);stroke:none;" width="30" x="195" y="944"/>
  <text style="fill:rgb(128,128,128);stroke:none;font-size:10px;" x="195" y="954">OMA1</text>
  <rect height="10" style="fill:rgb(255,255,255);stroke:none;" width="40" x="195" y="957"/>
  <text style="fill:rgb(128,128,128);stroke:none;font-size:10px;" x="195" y="967">RAB27A</text>
  <rect height="10" style="fill:rgb(255,255,255);stroke:none;" width="35" x="225" y="970"/>
  <text style="fill:rgb(128,128,128);stroke:none;font-size:10px;" x="225" y="980">HSPB2</text>
  <rect height="10" style="fill:rgb(255,255,255);stroke:none;" width="35" x="225" y="983"/>
  <text style="fill:rgb(128,128,128);stroke:none;font-size:10px;" x="225" y="993">BRCA1</text>
  <rect height="10" style="fill:rgb(255,255,255);stroke:none;" width="33" x="225" y="996"/>
  <text style="fill:rgb(128,128,128);stroke:none;font-size:10px;" x="225" y="1006">STRBP</text>
  <rect height="10" style="fill:rgb(255,255,255);stroke:none;" width="34" x="225" y="1009"/>
  <text style="fill:rgb(128,128,128);stroke:none;font-size:10px;" x="225" y="1019">ATF7IP</text>
  <rect height="10" style="fill:rgb(255,255,255);stroke:none;" width="47" x="225" y="1022"/>
  <text style="fill:rgb(128,128,128);stroke:none;font-size:10px;" x="225" y="1032">FAM111A</text>
  <rect height="9" style="fill:rgb(255,255,255);stroke:none;" width="50" x="239" y="1035"/>
  <text style="fill:rgb(128,128,128);stroke:none;font-size:9px;" x="239" y="1044">HSP90AA1</text>
  <rect height="9" style="fill:rgb(255,255,255);stroke:none;" width="27" x="254" y="1047"/>
  <text style="fill:rgb(128,128,128);stroke:none;font-size:9px;" x="254" y="1056">SSPN</text>
  <rect height="9" style="fill:rgb(255,255,255);stroke:none;" width="50" x="254" y="1059"/>
  <text style="fill:rgb(128,128,128);stroke:none;font-size:9px;" x="254" y="1068">ARHGAP44</text>
  <rect height="9" style="fill:rgb(255,255,255);stroke:none;" width="20" x="312" y="341"/>
  <text style="fill:rgb(128,128,128);stroke:none;font-size:9px;" x="312" y="350">LUM</text>
  <rect height="9" style="fill:rgb(255,255,255);stroke:none;" width="31" x="312" y="353"/>
  <text style="fill:rgb(128,128,128);stroke:none;font-size:9px;" x="312" y="362">FBLN5</text>
  <rect height="9" style="fill:rgb(255,255,255);stroke:none;" width="33" x="327" y="365"/>
  <text style="fill:rgb(128,128,128);stroke:none;font-size:9px;" x="327" y="374">CDH19</text>
  <rect height="9" style="fill:rgb(255,255,255);stroke:none;" width="37" x="327" y="377"/>
  <text style="fill:rgb(128,128,128);stroke:none;font-size:9px;" x="327" y="386">BCLAF1</text>
  <rect height="9" style="fill:rgb(255,255,255);stroke:none;" width="27" x="341" y="389"/>
  <text style="fill:rgb(128,128,128);stroke:none;font-size:9px;" x="341" y="398">CHD1</text>
</svg>
