<?xml version="1.0" encoding="UTF-8" standalone="no"?>
<!DOCTYPE svg PUBLIC "-//W3C//DTD SVG 1.1//EN" "http://www.w3.org/Graphics/SVG/1.1/DTD/svg11.dtd">
<svg xmlns:xlink="http://www.w3.org/1999/xlink" height="158.74999999999997mm" version="1.1" viewBox="0 0 500 600" width="132.29166666666666mm" x="0mm" y="0mm" xmlns="http://www.w3.org/2000/svg">
  <rect height="1200" style="fill:rgb(255,255,255);stroke:none;" width="1000" x="0" y="0"/>
  <rect height="240" style="fill:rgb(191,191,191);fill-opacity:0.4980392156862745;stroke:none;" width="175" x="225" y="60"/>
  <line style="fill:none;stroke:rgb(63,63,191);stroke-opacity:0.24705882352941178;stroke-miterlimit:10;stroke-linecap:square;" x1="50" x2="-8" y1="300" y2="300"/>
  <line style="fill:none;stroke:rgb(63,63,191);stroke-opacity:0.24705882352941178;stroke-miterlimit:10;stroke-linecap:square;" x1="-8" x2="6" y1="300" y2="300"/>
  <line style="fill:none;stroke:rgb(63,63,191);stroke-opacity:0.24705882352941178;stroke-miterlimit:10;stroke-linecap:square;" x1="6" x2="20" y1="300" y2="300"/>
  <line style="fill:none;stroke:rgb(63,63,191);stroke-opacity:0.24705882352941178;stroke-miterlimit:10;stroke-linecap:square;" x1="20" x2="35" y1="300" y2="300"/>
  <line style="fill:none;stroke:rgb(63,63,191);stroke-opacity:0.24705882352941178;stroke-miterlimit:10;stroke-linecap:square;" x1="35" x2="50" y1="300" y2="300"/>
  <line style="fill:none;stroke:rgb(63,63,191);stroke-opacity:0.24705882352941178;stroke-miterlimit:10;stroke-linecap:square;" x1="50" x2="64" y1="300" y2="290"/>
  <line style="fill:none;stroke:rgb(63,63,191);stroke-opacity:0.24705882352941178;stroke-miterlimit:10;stroke-linecap:square;" x1="64" x2="79" y1="290" y2="280"/>
  <line style="fill:none;stroke:rgb(63,63,191);stroke-opacity:0.24705882352941178;stroke-miterlimit:10;stroke-linecap:square;" x1="79" x2="93" y1="280" y2="270"/>
  <line style="fill:none;stroke:rgb(63,63,191);stroke-opacity:0.24705882352941178;stroke-miterlimit:10;stroke-linecap:square;" x1="93" x2="108" y1="270" y2="260"/>
  <line style="fill:none;stroke:rgb(63,63,191);stroke-opacity:0.24705882352941178;stroke-miterlimit:10;stroke-linecap:square;" x1="108" x2="122" y1="260" y2="250"/>
  <line style="fill:none;stroke:rgb(63,63,191);stroke-opacity:0.24705882352941178;stroke-miterlimit:10;stroke-linecap:square;" x1="122" x2="137" y1="250" y2="240"/>
  <line style="fill:none;stroke:rgb(63,63,191);stroke-opacity:0.24705882352941178;stroke-miterlimit:10;stroke-linecap:square;" x1="137" x2="152" y1="240" y2="230"/>
  <line style="fill:none;stroke:rgb(63,63,191);stroke-opacity:0.24705882352941178;stroke-miterlimit:10;stroke-linecap:square;" x1="152" x2="166" y1="230" y2="220"/>
  <line style="fill:none;stroke:rgb(63,63,191);stroke-opacity:0.24705882352941178;stroke-miterlimit:10;stroke-linecap:square;" x1="166" x2="181" y1="220" y2="210"/>
  <line style="fill:none;stroke:rgb(63,63,191);stroke-opacity:0.24705882352941178;stroke-miterlimit:10;stroke-linecap:square;" x1="181" x2="195" y1="210" y2="200"/>
  <line style="fill:none;stroke:rgb(63,63,191);stroke-opacity:0.24705882352941178;stroke-miterlimit:10;stroke-linecap:square;" x1="195" x2="210" y1="200" y2="190"/>
  <line style="fill:none;stroke:rgb(63,63,191);stroke-opacity:0.24705882352941178;stroke-miterlimit:10;stroke-linecap:square;" x1="210" x2="225" y1="190" y2="180"/>
  <line style="fill:none;stroke:rgb(63,63,191);stroke-opacity:0.24705882352941178;stroke-miterlimit:10;stroke-linecap:square;" x1="225" x2="239" y1="180" y2="170"/>
  <line style="fill:none;stroke:rgb(63,63,191);stroke-opacity:0.24705882352941178;stroke-miterlimit:10;stroke-linecap:square;" x1="239" x2="254" y1="170" y2="160"/>
  <line style="fill:none;stroke:rgb(63,63,191);stroke-opacity:0.24705882352941178;stroke-miterlimit:10;stroke-linecap:square;" x1="254" x2="268" y1="160" y2="150"/>
  <line style="fill:none;stroke:rgb(63,63,191);stroke-opacity:0.24705882352941178;stroke-miterlimit:10;stroke-linecap:square;" x1="268" x2="283" y1="150" y2="140"/>
  <line style="fill:none;stroke:rgb(63,63,191);stroke-opacity:0.24705882352941178;stroke-miterlimit:10;stroke-linecap:square;" x1="283" x2="297" y1="140" y2="130"/>
  <line style="fill:none;stroke:rgb(63,63,191);stroke-opacity:0.24705882352941178;stroke-miterlimit:10;stroke-linecap:square;" x1="297" x2="312" y1="130" y2="120"/>
  <line style="fill:none;stroke:rgb(63,63,191);stroke-opacity:0.24705882352941178;stroke-miterlimit:10;stroke-linecap:square;" x1="312" x2="327" y1="120" y2="110"/>
  <line style="fill:none;stroke:rgb(63,63,191);stroke-opacity:0.24705882352941178;stroke-miterlimit:10;stroke-linecap:square;" x1="327" x2="341" y1="110" y2="100"/>
  <line style="fill:none;stroke:rgb(63,63,191);stroke-opacity:0.24705882352941178;stroke-miterlimit:10;stroke-linecap:square;" x1="341" x2="400" y1="100" y2="60"/>
  <rect height="6" style="fill:rgb(255,127,0);fill-opacity:0.7490196078431373;stroke:none;" width="4" x="-10" y="293"/>
  <line style="fill:none;stroke:rgb(255,127,0);stroke-opacity:0.24705882352941178;stroke-width:2;stroke-miterlimit:10;stroke-linecap:square;" x1="50" x2="-8" y1="300" y2="300"/>
  <line style="fill:none;stroke:rgb(255,127,0);stroke-opacity:0.24705882352941178;stroke-width:2;stroke-miterlimit:10;stroke-linecap:square;" x1="-8" x2="-8" y1="298" y2="295"/>
  <rect height="13" style="fill:rgb(255,127,0);fill-opacity:0.7490196078431373;stroke:none;" width="4" x="4" y="286"/>
  <line style="fill:none;stroke:rgb(255,127,0);stroke-opacity:0.24705882352941178;stroke-width:2;stroke-miterlimit:10;stroke-linecap:square;" x1="-8" x2="6" y1="293" y2="293"/>
  <line style="fill:none;stroke:rgb(255,127,0);stroke-opacity:0.24705882352941178;stroke-width:2;stroke-miterlimit:10;stroke-linecap:square;" x1="6" x2="6" y1="291" y2="282"/>
  <rect height="6" style="fill:rgb(255,127,0);fill-opacity:0.7490196078431373;stroke:none;" width="4" x="18" y="293"/>
  <line style="fill:none;stroke:rgb(255,127,0);stroke-opacity:0.24705882352941178;stroke-width:2;stroke-miterlimit:10;stroke-linecap:square;" x1="6" x2="20" y1="280" y2="280"/>
  <line style="fill:none;stroke:rgb(255,127,0);stroke-opacity:0.24705882352941178;stroke-width:2;stroke-miterlimit:10;stroke-linecap:square;" x1="20" x2="20" y1="278" y2="275"/>
  <rect height="13" style="fill:rgb(255,127,0);fill-opacity:0.7490196078431373;stroke:none;" width="4" x="33" y="286"/>
  <line style="fill:none;stroke:rgb(255,127,0);stroke-opacity:0.24705882352941178;stroke-width:2;stroke-miterlimit:10;stroke-linecap:square;" x1="20" x2="35" y1="273" y2="273"/>
  <line style="fill:none;stroke:rgb(255,127,0);stroke-opacity:0.24705882352941178;stroke-width:2;stroke-miterlimit:10;stroke-linecap:square;" x1="35" x2="35" y1="271" y2="262"/>
  <rect height="13" style="fill:rgb(255,127,0);fill-opacity:0.7490196078431373;stroke:none;" width="4" x="48" y="286"/>
  <line style="fill:none;stroke:rgb(255,127,0);stroke-opacity:0.24705882352941178;stroke-width:2;stroke-miterlimit:10;stroke-linecap:square;" x1="35" x2="50" y1="260" y2="260"/>
  <line style="fill:none;stroke:rgb(255,127,0);stroke-opacity:0.24705882352941178;stroke-width:2;stroke-miterlimit:10;stroke-linecap:square;" x1="50" x2="50" y1="258" y2="248"/>
  <rect height="20" style="fill:rgb(255,127,0);fill-opacity:0.7490196078431373;stroke:none;" width="4" x="62" y="280"/>
  <line style="fill:none;stroke:rgb(255,127,0);stroke-opacity:0.24705882352941178;stroke-width:2;stroke-miterlimit:10;stroke-linecap:square;" x1="50" x2="64" y1="246" y2="246"/>
  <line style="fill:none;stroke:rgb(255,127,0);stroke-opacity:0.24705882352941178;stroke-width:2;stroke-miterlimit:10;stroke-linecap:square;" x1="64" x2="64" y1="244" y2="228"/>
  <rect height="6" style="fill:rgb(255,127,0);fill-opacity:0.7490196078431373;stroke:none;" width="4" x="77" y="293"/>
  <line style="fill:none;stroke:rgb(255,127,0);stroke-opacity:0.24705882352941178;stroke-width:2;stroke-miterlimit:10;stroke-linecap:square;" x1="64" x2="79" y1="226" y2="226"/>
  <line style="fill:none;stroke:rgb(255,127,0);stroke-opacity:0.24705882352941178;stroke-width:2;stroke-miterlimit:10;stroke-linecap:square;" x1="79" x2="79" y1="224" y2="222"/>
  <rect height="6" style="fill:rgb(255,127,0);fill-opacity:0.7490196078431373;stroke:none;" width="4" x="106" y="293"/>
  <line style="fill:none;stroke:rgb(255,127,0);stroke-opacity:0.24705882352941178;stroke-width:2;stroke-miterlimit:10;stroke-linecap:square;" x1="79" x2="108" y1="220" y2="220"/>
  <line style="fill:none;stroke:rgb(255,127,0);stroke-opacity:0.24705882352941178;stroke-width:2;stroke-miterlimit:10;stroke-linecap:square;" x1="108" x2="108" y1="218" y2="215"/>
  <rect height="20" style="fill:rgb(255,127,0);fill-opacity:0.7490196078431373;stroke:none;" width="4" x="150" y="280"/>
  <line style="fill:none;stroke:rgb(255,127,0);stroke-opacity:0.24705882352941178;stroke-width:2;stroke-miterlimit:10;stroke-linecap:square;" x1="108" x2="152" y1="213" y2="213"/>
  <line style="fill:none;stroke:rgb(255,127,0);stroke-opacity:0.24705882352941178;stroke-width:2;stroke-miterlimit:10;stroke-linecap:square;" x1="152" x2="152" y1="211" y2="195"/>
  <rect height="40" style="fill:rgb(255,127,0);fill-opacity:0.7490196078431373;stroke:none;" width="4" x="164" y="260"/>
  <line style="fill:none;stroke:rgb(255,127,0);stroke-opacity:0.24705882352941178;stroke-width:2;stroke-miterlimit:10;stroke-linecap:square;" x1="152" x2="166" y1="193" y2="193"/>
  <line style="fill:none;stroke:rgb(255,127,0);stroke-opacity:0.24705882352941178;stroke-width:2;stroke-miterlimit:10;stroke-linecap:square;" x1="166" x2="166" y1="191" y2="155"/>
  <rect height="6" style="fill:rgb(255,127,0);fill-opacity:0.7490196078431373;stroke:none;" width="4" x="179" y="293"/>
  <line style="fill:none;stroke:rgb(255,127,0);stroke-opacity:0.24705882352941178;stroke-width:2;stroke-miterlimit:10;stroke-linecap:square;" x1="166" x2="181" y1="153" y2="153"/>
  <line style="fill:none;stroke:rgb(255,127,0);stroke-opacity:0.24705882352941178;stroke-width:2;stroke-miterlimit:10;stroke-linecap:square;" x1="181" x2="181" y1="151" y2="148"/>
  <rect height="20" style="fill:rgb(255,127,0);fill-opacity:0.7490196078431373;stroke:none;" width="4" x="193" y="280"/>
  <line style="fill:none;stroke:rgb(255,127,0);stroke-opacity:0.24705882352941178;stroke-width:2;stroke-miterlimit:10;stroke-linecap:square;" x1="181" x2="195" y1="146" y2="146"/>
  <line style="fill:none;stroke:rgb(255,127,0);stroke-opacity:0.24705882352941178;stroke-width:2;stroke-miterlimit:10;stroke-linecap:square;" x1="195" x2="195" y1="144" y2="128"/>
  <rect height="26" style="fill:rgb(255,127,0);fill-opacity:0.7490196078431373;stroke:none;" width="4" x="208" y="273"/>
  <line style="fill:none;stroke:rgb(255,127,0);stroke-opacity:0.24705882352941178;stroke-width:2;stroke-miterlimit:10;stroke-linecap:square;" x1="195" x2="210" y1="126" y2="126"/>
  <line style="fill:none;stroke:rgb(255,127,0);stroke-opacity:0.24705882352941178;stroke-width:2;stroke-miterlimit:10;stroke-linecap:square;" x1="210" x2="210" y1="124" y2="101"/>
  <rect height="13" style="fill:rgb(255,127,0);fill-opacity:0.7490196078431373;stroke:none;" width="4" x="223" y="286"/>
  <line style="fill:none;stroke:rgb(255,127,0);stroke-opacity:0.24705882352941178;stroke-width:2;stroke-miterlimit:10;stroke-linecap:square;" x1="210" x2="225" y1="99" y2="99"/>
  <line style="fill:none;stroke:rgb(255,127,0);stroke-opacity:0.24705882352941178;stroke-width:2;stroke-miterlimit:10;stroke-linecap:square;" x1="225" x2="225" y1="97" y2="88"/>
  <rect height="13" style="fill:rgb(255,127,0);fill-opacity:0.7490196078431373;stroke:none;" width="4" x="281" y="286"/>
  <line style="fill:none;stroke:rgb(255,127,0);stroke-opacity:0.24705882352941178;stroke-width:2;stroke-miterlimit:10;stroke-linecap:square;" x1="225" x2="283" y1="86" y2="86"/>
  <line style="fill:none;stroke:rgb(255,127,0);stroke-opacity:0.24705882352941178;stroke-width:2;stroke-miterlimit:10;stroke-linecap:square;" x1="283" x2="283" y1="84" y2="75"/>
  <rect height="6" style="fill:rgb(255,127,0);fill-opacity:0.7490196078431373;stroke:none;" width="4" x="310" y="293"/>
  <line style="fill:none;stroke:rgb(255,127,0);stroke-opacity:0.24705882352941178;stroke-width:2;stroke-miterlimit:10;stroke-linecap:square;" x1="283" x2="312" y1="73" y2="73"/>
  <line style="fill:none;stroke:rgb(255,127,0);stroke-opacity:0.24705882352941178;stroke-width:2;stroke-miterlimit:10;stroke-linecap:square;" x1="312" x2="312" y1="71" y2="68"/>
  <rect height="6" style="fill:rgb(255,127,0);fill-opacity:0.7490196078431373;stroke:none;" width="4" x="325" y="293"/>
  <line style="fill:none;stroke:rgb(255,127,0);stroke-opacity:0.24705882352941178;stroke-width:2;stroke-miterlimit:10;stroke-linecap:square;" x1="312" x2="327" y1="66" y2="66"/>
  <line style="fill:none;stroke:rgb(255,127,0);stroke-opacity:0.24705882352941178;stroke-width:2;stroke-miterlimit:10;stroke-linecap:square;" x1="327" x2="327" y1="64" y2="62"/>
  <line style="fill:none;stroke:rgb(255,127,0);stroke-opacity:0.24705882352941178;stroke-width:2;stroke-miterlimit:10;stroke-linecap:square;" x1="327" x2="400" y1="60" y2="60"/>
  <line style="fill:none;stroke:rgb(255,127,0);stroke-opacity:0.4980392156862745;stroke-miterlimit:2;stroke-dasharray:2;" x1="-8" x2="-8" y1="300" y2="367"/>
  <line style="fill:none;stroke:rgb(255,127,0);stroke-opacity:0.4980392156862745;stroke-miterlimit:2;stroke-dasharray:2;" x1="6" x2="6" y1="300" y2="384"/>
  <line style="fill:none;stroke:rgb(255,127,0);stroke-opacity:0.4980392156862745;stroke-miterlimit:2;stroke-dasharray:2;" x1="6" x2="6" y1="300" y2="401"/>
  <line style="fill:none;stroke:rgb(255,127,0);stroke-opacity:0.4980392156862745;stroke-miterlimit:2;stroke-dasharray:2;" x1="20" x2="20" y1="300" y2="418"/>
  <line style="fill:none;stroke:rgb(255,127,0);stroke-opacity:0.4980392156862745;stroke-miterlimit:2;stroke-dasharray:2;" x1="35" x2="35" y1="300" y2="435"/>
  <line style="fill:none;stroke:rgb(255,127,0);stroke-opacity:0.4980392156862745;stroke-miterlimit:2;stroke-dasharray:2;" x1="35" x2="35" y1="300" y2="452"/>
  <line style="fill:none;stroke:rgb(255,127,0);stroke-opacity:0.4980392156862745;stroke-miterlimit:2;stroke-dasharray:2;" x1="50" x2="50" y1="300" y2="469"/>
  <line style="fill:none;stroke:rgb(255,127,0);stroke-opacity:0.4980392156862745;stroke-miterlimit:2;stroke-dasharray:2;" x1="50" x2="50" y1="300" y2="486"/>
  <line style="fill:none;stroke:rgb(255,127,0);stroke-opacity:0.4980392156862745;stroke-miterlimit:2;stroke-dasharray:2;" x1="64" x2="64" y1="300" y2="503"/>
  <line style="fill:none;stroke:rgb(255,127,0);stroke-opacity:0.4980392156862745;stroke-miterlimit:2;stroke-dasharray:2;" x1="64" x2="64" y1="300" y2="520"/>
  <line style="fill:none;stroke:rgb(255,127,0);stroke-opacity:0.4980392156862745;stroke-miterlimit:2;stroke-dasharray:2;" x1="64" x2="64" y1="300" y2="537"/>
  <line style="fill:none;stroke:rgb(255,127,0);stroke-opacity:0.4980392156862745;stroke-miterlimit:2;stroke-dasharray:2;" x1="79" x2="79" y1="300" y2="554"/>
  <line style="fill:none;stroke:rgb(255,127,0);stroke-opacity:0.4980392156862745;stroke-miterlimit:2;stroke-dasharray:2;" x1="108" x2="108" y1="300" y2="571"/>
  <line style="fill:none;stroke:rgb(255,127,0);stroke-opacity:0.4980392156862745;stroke-miterlimit:2;stroke-dasharray:2;" x1="152" x2="152" y1="300" y2="585"/>
  <line style="fill:none;stroke:rgb(255,127,0);stroke-opacity:0.4980392156862745;stroke-miterlimit:2;stroke-dasharray:2;" x1="152" x2="152" y1="300" y2="599"/>
  <line style="fill:none;stroke:rgb(255,127,0);stroke-opacity:0.4980392156862745;stroke-miterlimit:2;stroke-dasharray:2;" x1="152" x2="152" y1="300" y2="613"/>
  <line style="fill:none;stroke:rgb(255,127,0);stroke-opacity:0.4980392156862745;stroke-miterlimit:2;stroke-dasharray:2;" x1="166" x2="166" y1="300" y2="627"/>
  <line style="fill:none;stroke:rgb(255,127,0);stroke-opacity:0.4980392156862745;stroke-miterlimit:2;stroke-dasharray:2;" x1="166" x2="166" y1="300" y2="641"/>
  <line style="fill:none;stroke:rgb(255,127,0);stroke-opacity:0.4980392156862745;stroke-miterlimit:2;stroke-dasharray:2;" x1="166" x2="166" y1="300" y2="655"/>
  <line style="fill:none;stroke:rgb(255,127,0);stroke-opacity:0.4980392156862745;stroke-miterlimit:2;stroke-dasharray:2;" x1="166" x2="166" y1="300" y2="669"/>
  <line style="fill:none;stroke:rgb(255,127,0);stroke-opacity:0.4980392156862745;stroke-miterlimit:2;stroke-dasharray:2;" x1="166" x2="166" y1="300" y2="683"/>
  <line style="fill:none;stroke:rgb(255,127,0);stroke-opacity:0.4980392156862745;stroke-miterlimit:2;stroke-dasharray:2;" x1="166" x2="166" y1="300" y2="697"/>
  <line style="fill:none;stroke:rgb(255,127,0);stroke-opacity:0.4980392156862745;stroke-miterlimit:2;stroke-dasharray:2;" x1="181" x2="181" y1="300" y2="711"/>
  <line style="fill:none;stroke:rgb(255,127,0);stroke-opacity:0.4980392156862745;stroke-miterlimit:2;stroke-dasharray:2;" x1="195" x2="195" y1="300" y2="725"/>
  <line style="fill:none;stroke:rgb(255,127,0);stroke-opacity:0.4980392156862745;stroke-miterlimit:2;stroke-dasharray:2;" x1="195" x2="195" y1="300" y2="739"/>
  <line style="fill:none;stroke:rgb(255,127,0);stroke-opacity:0.4980392156862745;stroke-miterlimit:2;stroke-dasharray:2;" x1="195" x2="195" y1="300" y2="753"/>
  <line style="fill:none;stroke:rgb(255,127,0);stroke-opacity:0.4980392156862745;stroke-miterlimit:2;stroke-dasharray:2;" x1="210" x2="210" y1="300" y2="767"/>
  <line style="fill:none;stroke:rgb(255,127,0);stroke-opacity:0.4980392156862745;stroke-miterlimit:2;stroke-dasharray:2;" x1="210" x2="210" y1="300" y2="781"/>
  <line style="fill:none;stroke:rgb(255,127,0);stroke-opacity:0.4980392156862745;stroke-miterlimit:2;stroke-dasharray:2;" x1="210" x2="210" y1="300" y2="795"/>
  <line style="fill:none;stroke:rgb(255,127,0);stroke-opacity:0.4980392156862745;stroke-miterlimit:2;stroke-dasharray:2;" x1="210" x2="210" y1="300" y2="809"/>
  <line style="fill:none;stroke:rgb(255,127,0);stroke-opacity:0.4980392156862745;stroke-miterlimit:2;stroke-dasharray:2;" x1="225" x2="225" y1="300" y2="821"/>
  <line style="fill:none;stroke:rgb(255,127,0);stroke-opacity:0.4980392156862745;stroke-miterlimit:2;stroke-dasharray:2;" x1="225" x2="225" y1="300" y2="833"/>
  <line style="fill:none;stroke:rgb(255,127,0);stroke-opacity:0.4980392156862745;stroke-miterlimit:2;stroke-dasharray:2;" x1="283" x2="283" y1="300" y2="350"/>
  <line style="fill:none;stroke:rgb(255,127,0);stroke-opacity:0.4980392156862745;stroke-miterlimit:2;stroke-dasharray:2;" x1="283" x2="283" y1="300" y2="359"/>
  <line style="fill:none;stroke:rgb(255,127,0);stroke-opacity:0.4980392156862745;stroke-miterlimit:2;stroke-dasharray:2;" x1="312" x2="312" y1="300" y2="350"/>
  <line style="fill:none;stroke:rgb(255,127,0);stroke-opacity:0.4980392156862745;stroke-miterlimit:2;stroke-dasharray:2;" x1="327" x2="327" y1="300" y2="359"/>
  <line style="fill:none;stroke:rgb(0,0,0);stroke-width:2;stroke-miterlimit:10;stroke-linecap:square;" x1="48" x2="48" y1="60" y2="300"/>
  <line style="fill:none;stroke:rgb(0,0,0);stroke-width:2;stroke-miterlimit:10;stroke-linecap:square;" x1="48" x2="402" y1="300" y2="300"/>
  <rect height="30" style="fill:rgb(255,255,255);stroke:none;" width="17" x="42" y="308"/>
  <text style="fill:rgb(0,0,0);stroke:none;font-size:25px;font-weight:bold;" x="42" y="332">0</text>
  <rect height="30" style="fill:rgb(255,255,255);stroke:none;" width="34" x="383" y="308"/>
  <text style="fill:rgb(0,0,0);stroke:none;font-size:25px;font-weight:bold;" x="383" y="332">24</text>
  <text style="fill:rgb(0,0,0);stroke:none;font-size:25px;font-weight:bold;" x="25" y="312">0</text>
  <text style="fill:rgb(0,0,0);stroke:none;font-size:25px;font-weight:bold;" x="25" y="72">1</text>
  <text style="fill:rgb(0,0,0);stroke:none;font-size:14px;font-weight:bold;" x="3" y="36">KIM_BIPOLAR_DISORDER_OLIGODENDROCYTE_DENSITY_CORR_UP</text>
  <rect height="13" style="fill:rgb(255,255,255);stroke:none;" width="44" x="-8" y="354"/>
  <text style="fill:rgb(128,128,128);stroke:none;font-size:14px;" x="-8" y="367">LZTS3</text>
  <rect height="13" style="fill:rgb(255,255,255);stroke:none;" width="67" x="6" y="371"/>
  <text style="fill:rgb(128,128,128);stroke:none;font-size:14px;" x="6" y="384">KBTBD11</text>
  <rect height="13" style="fill:rgb(255,255,255);stroke:none;" width="68" x="6" y="388"/>
  <text style="fill:rgb(128,128,128);stroke:none;font-size:14px;" x="6" y="401">SERPINE2</text>
  <rect height="13" style="fill:rgb(255,255,255);stroke:none;" width="58" x="20" y="405"/>
  <text style="fill:rgb(128,128,128);stroke:none;font-size:14px;" x="20" y="418">RAD23B</text>
  <rect height="13" style="fill:rgb(255,255,255);stroke:none;" width="32" x="35" y="422"/>
  <text style="fill:rgb(128,128,128);stroke:none;font-size:14px;" x="35" y="435">PKIG</text>
  <rect height="13" style="fill:rgb(255,255,255);stroke:none;" width="62" x="35" y="439"/>
  <text style="fill:rgb(128,128,128);stroke:none;font-size:14px;" x="35" y="452">SLC25A4</text>
  <rect height="13" style="fill:rgb(255,255,255);stroke:none;" width="41" x="50" y="456"/>
  <text style="fill:rgb(128,128,128);stroke:none;font-size:14px;" x="50" y="469">CRYM</text>
  <rect height="13" style="fill:rgb(255,255,255);stroke:none;" width="56" x="50" y="473"/>
  <text style="fill:rgb(128,128,128);stroke:none;font-size:14px;" x="50" y="486">SH3BP5</text>
  <rect height="13" style="fill:rgb(255,255,255);stroke:none;" width="39" x="64" y="490"/>
  <text style="fill:rgb(128,128,128);stroke:none;font-size:14px;" x="64" y="503">ENO2</text>
  <rect height="13" style="fill:rgb(255,255,255);stroke:none;" width="48" x="64" y="507"/>
  <text style="fill:rgb(128,128,128);stroke:none;font-size:14px;" x="64" y="520">RCAN2</text>
  <rect height="13" style="fill:rgb(255,255,255);stroke:none;" width="62" x="64" y="524"/>
  <text style="fill:rgb(128,128,128);stroke:none;font-size:14px;" x="64" y="537">RASL10A</text>
  <rect height="13" style="fill:rgb(255,255,255);stroke:none;" width="49" x="79" y="541"/>
  <text style="fill:rgb(128,128,128);stroke:none;font-size:14px;" x="79" y="554">BAIAP3</text>
  <rect height="13" style="fill:rgb(255,255,255);stroke:none;" width="46" x="108" y="558"/>
  <text style="fill:rgb(128,128,128);stroke:none;font-size:14px;" x="108" y="571">EFNB3</text>
  <rect height="11" style="fill:rgb(255,255,255);stroke:none;" width="45" x="152" y="574"/>
  <text style="fill:rgb(128,128,128);stroke:none;font-size:11px;" x="152" y="585">CSRNP2</text>
  <rect height="11" style="fill:rgb(255,255,255);stroke:none;" width="46" x="152" y="588"/>
  <text style="fill:rgb(128,128,128);stroke:none;font-size:11px;" x="152" y="599">COPS7A</text>
  <rect height="11" style="fill:rgb(255,255,255);stroke:none;" width="38" x="152" y="602"/>
  <text style="fill:rgb(128,128,128);stroke:none;font-size:11px;" x="152" y="613">EIF2B4</text>
  <rect height="11" style="fill:rgb(255,255,255);stroke:none;" width="32" x="166" y="616"/>
  <text style="fill:rgb(128,128,128);stroke:none;font-size:11px;" x="166" y="627">NCDN</text>
  <rect height="11" style="fill:rgb(255,255,255);stroke:none;" width="29" x="166" y="630"/>
  <text style="fill:rgb(128,128,128);stroke:none;font-size:11px;" x="166" y="641">TCTA</text>
  <rect height="11" style="fill:rgb(255,255,255);stroke:none;" width="36" x="166" y="644"/>
  <text style="fill:rgb(128,128,128);stroke:none;font-size:11px;" x="166" y="655">STX1A</text>
  <rect height="11" style="fill:rgb(255,255,255);stroke:none;" width="44" x="166" y="658"/>
  <text style="fill:rgb(128,128,128);stroke:none;font-size:11px;" x="166" y="669">CX3CR1</text>
  <rect height="11" style="fill:rgb(255,255,255);stroke:none;" width="45" x="166" y="672"/>
  <text style="fill:rgb(128,128,128);stroke:none;font-size:11px;" x="166" y="683">MPPED1</text>
  <rect height="11" style="fill:rgb(255,255,255);stroke:none;" width="50" x="166" y="686"/>
  <text style="fill:rgb(128,128,128);stroke:none;font-size:11px;" x="166" y="697">PPP2R5B</text>
  <rect height="11" style="fill:rgb(255,255,255);stroke:none;" width="38" x="181" y="700"/>
  <text style="fill:rgb(128,128,128);stroke:none;font-size:11px;" x="181" y="711">ABCC5</text>
  <rect height="11" style="fill:rgb(255,255,255);stroke:none;" width="30" x="195" y="714"/>
  <text style="fill:rgb(128,128,128);stroke:none;font-size:11px;" x="195" y="725">CDK5</text>
  <rect height="11" style="fill:rgb(255,255,255);stroke:none;" width="36" x="195" y="728"/>
  <text style="fill:rgb(128,128,128);stroke:none;font-size:11px;" x="195" y="739">NPTX1</text>
  <rect height="11" style="fill:rgb(255,255,255);stroke:none;" width="46" x="195" y="742"/>
  <text style="fill:rgb(128,128,128);stroke:none;font-size:11px;" x="195" y="753">GABBR1</text>
  <rect height="11" style="fill:rgb(255,255,255);stroke:none;" width="38" x="210" y="756"/>
  <text style="fill:rgb(128,128,128);stroke:none;font-size:11px;" x="210" y="767">NUDT3</text>
  <rect height="11" style="fill:rgb(255,255,255);stroke:none;" width="39" x="210" y="770"/>
  <text style="fill:rgb(128,128,128);stroke:none;font-size:11px;" x="210" y="781">ANOS1</text>
  <rect height="11" style="fill:rgb(255,255,255);stroke:none;" width="45" x="210" y="784"/>
  <text style="fill:rgb(128,128,128);stroke:none;font-size:11px;" x="210" y="795">ARMCX2</text>
  <rect height="11" style="fill:rgb(255,255,255);stroke:none;" width="50" x="210" y="798"/>
  <text style="fill:rgb(128,128,128);stroke:none;font-size:11px;" x="210" y="809">NDUFAF3</text>
  <rect height="9" style="fill:rgb(255,255,255);stroke:none;" width="31" x="225" y="812"/>
  <text style="fill:rgb(128,128,128);stroke:none;font-size:9px;" x="225" y="821">ACTG1</text>
  <rect height="9" style="fill:rgb(255,255,255);stroke:none;" width="39" x="225" y="824"/>
  <text style="fill:rgb(128,128,128);stroke:none;font-size:9px;" x="225" y="833">DHCR24</text>
  <rect height="7" style="fill:rgb(255,255,255);stroke:none;" width="18" x="283" y="343"/>
  <text style="fill:rgb(128,128,128);stroke:none;font-size:7px;" x="283" y="350">CHL1</text>
  <rect height="7" style="fill:rgb(255,255,255);stroke:none;" width="21" x="283" y="352"/>
  <text style="fill:rgb(128,128,128);stroke:none;font-size:7px;" x="283" y="359">RIMS3</text>
  <rect height="7" style="fill:rgb(255,255,255);stroke:none;" width="24" x="312" y="343"/>
  <text style="fill:rgb(128,128,128);stroke:none;font-size:7px;" x="312" y="350">IGFBP7</text>
  <rect height="7" style="fill:rgb(255,255,255);stroke:none;" width="21" x="327" y="352"/>
  <text style="fill:rgb(128,128,128);stroke:none;font-size:7px;" x="327" y="359">MYRIP</text>
</svg>
