<?xml version="1.0" encoding="UTF-8" standalone="no"?>
<!DOCTYPE svg PUBLIC "-//W3C//DTD SVG 1.1//EN" "http://www.w3.org/Graphics/SVG/1.1/DTD/svg11.dtd">
<svg xmlns:xlink="http://www.w3.org/1999/xlink" height="158.74999999999997mm" version="1.1" viewBox="0 0 500 600" width="132.29166666666666mm" x="0mm" y="0mm" xmlns="http://www.w3.org/2000/svg">
  <rect height="1200" style="fill:rgb(255,255,255);stroke:none;" width="1000" x="0" y="0"/>
  <rect height="240" style="fill:rgb(191,191,191);fill-opacity:0.4980392156862745;stroke:none;" width="175" x="225" y="60"/>
  <line style="fill:none;stroke:rgb(63,63,191);stroke-opacity:0.24705882352941178;stroke-miterlimit:10;stroke-linecap:square;" x1="50" x2="50" y1="300" y2="300"/>
  <line style="fill:none;stroke:rgb(63,63,191);stroke-opacity:0.24705882352941178;stroke-miterlimit:10;stroke-linecap:square;" x1="50" x2="64" y1="300" y2="290"/>
  <line style="fill:none;stroke:rgb(63,63,191);stroke-opacity:0.24705882352941178;stroke-miterlimit:10;stroke-linecap:square;" x1="64" x2="79" y1="290" y2="280"/>
  <line style="fill:none;stroke:rgb(63,63,191);stroke-opacity:0.24705882352941178;stroke-miterlimit:10;stroke-linecap:square;" x1="79" x2="93" y1="280" y2="270"/>
  <line style="fill:none;stroke:rgb(63,63,191);stroke-opacity:0.24705882352941178;stroke-miterlimit:10;stroke-linecap:square;" x1="93" x2="108" y1="270" y2="260"/>
  <line style="fill:none;stroke:rgb(63,63,191);stroke-opacity:0.24705882352941178;stroke-miterlimit:10;stroke-linecap:square;" x1="108" x2="122" y1="260" y2="250"/>
  <line style="fill:none;stroke:rgb(63,63,191);stroke-opacity:0.24705882352941178;stroke-miterlimit:10;stroke-linecap:square;" x1="122" x2="137" y1="250" y2="240"/>
  <line style="fill:none;stroke:rgb(63,63,191);stroke-opacity:0.24705882352941178;stroke-miterlimit:10;stroke-linecap:square;" x1="137" x2="152" y1="240" y2="230"/>
  <line style="fill:none;stroke:rgb(63,63,191);stroke-opacity:0.24705882352941178;stroke-miterlimit:10;stroke-linecap:square;" x1="152" x2="166" y1="230" y2="220"/>
  <line style="fill:none;stroke:rgb(63,63,191);stroke-opacity:0.24705882352941178;stroke-miterlimit:10;stroke-linecap:square;" x1="166" x2="181" y1="220" y2="210"/>
  <line style="fill:none;stroke:rgb(63,63,191);stroke-opacity:0.24705882352941178;stroke-miterlimit:10;stroke-linecap:square;" x1="181" x2="195" y1="210" y2="200"/>
  <line style="fill:none;stroke:rgb(63,63,191);stroke-opacity:0.24705882352941178;stroke-miterlimit:10;stroke-linecap:square;" x1="195" x2="210" y1="200" y2="190"/>
  <line style="fill:none;stroke:rgb(63,63,191);stroke-opacity:0.24705882352941178;stroke-miterlimit:10;stroke-linecap:square;" x1="210" x2="225" y1="190" y2="180"/>
  <line style="fill:none;stroke:rgb(63,63,191);stroke-opacity:0.24705882352941178;stroke-miterlimit:10;stroke-linecap:square;" x1="225" x2="239" y1="180" y2="170"/>
  <line style="fill:none;stroke:rgb(63,63,191);stroke-opacity:0.24705882352941178;stroke-miterlimit:10;stroke-linecap:square;" x1="239" x2="254" y1="170" y2="160"/>
  <line style="fill:none;stroke:rgb(63,63,191);stroke-opacity:0.24705882352941178;stroke-miterlimit:10;stroke-linecap:square;" x1="254" x2="268" y1="160" y2="150"/>
  <line style="fill:none;stroke:rgb(63,63,191);stroke-opacity:0.24705882352941178;stroke-miterlimit:10;stroke-linecap:square;" x1="268" x2="283" y1="150" y2="140"/>
  <line style="fill:none;stroke:rgb(63,63,191);stroke-opacity:0.24705882352941178;stroke-miterlimit:10;stroke-linecap:square;" x1="283" x2="297" y1="140" y2="130"/>
  <line style="fill:none;stroke:rgb(63,63,191);stroke-opacity:0.24705882352941178;stroke-miterlimit:10;stroke-linecap:square;" x1="297" x2="312" y1="130" y2="120"/>
  <line style="fill:none;stroke:rgb(63,63,191);stroke-opacity:0.24705882352941178;stroke-miterlimit:10;stroke-linecap:square;" x1="312" x2="327" y1="120" y2="110"/>
  <line style="fill:none;stroke:rgb(63,63,191);stroke-opacity:0.24705882352941178;stroke-miterlimit:10;stroke-linecap:square;" x1="327" x2="341" y1="110" y2="100"/>
  <line style="fill:none;stroke:rgb(63,63,191);stroke-opacity:0.24705882352941178;stroke-miterlimit:10;stroke-linecap:square;" x1="341" x2="356" y1="100" y2="90"/>
  <line style="fill:none;stroke:rgb(63,63,191);stroke-opacity:0.24705882352941178;stroke-miterlimit:10;stroke-linecap:square;" x1="356" x2="370" y1="90" y2="80"/>
  <line style="fill:none;stroke:rgb(63,63,191);stroke-opacity:0.24705882352941178;stroke-miterlimit:10;stroke-linecap:square;" x1="370" x2="385" y1="80" y2="70"/>
  <line style="fill:none;stroke:rgb(63,63,191);stroke-opacity:0.24705882352941178;stroke-miterlimit:10;stroke-linecap:square;" x1="385" x2="400" y1="70" y2="60"/>
  <line style="fill:none;stroke:rgb(63,63,191);stroke-opacity:0.24705882352941178;stroke-miterlimit:10;stroke-linecap:square;" x1="400" x2="400" y1="60" y2="60"/>
  <rect height="2" style="fill:rgb(255,127,0);fill-opacity:0.7490196078431373;stroke:none;" width="4" x="48" y="297"/>
  <line style="fill:none;stroke:rgb(255,127,0);stroke-opacity:0.24705882352941178;stroke-width:2;stroke-miterlimit:10;stroke-linecap:square;" x1="50" x2="50" y1="300" y2="300"/>
  <line style="fill:none;stroke:rgb(255,127,0);stroke-opacity:0.24705882352941178;stroke-width:2;stroke-miterlimit:10;stroke-linecap:square;" x1="50" x2="50" y1="298" y2="299"/>
  <rect height="13" style="fill:rgb(255,127,0);fill-opacity:0.7490196078431373;stroke:none;" width="4" x="62" y="286"/>
  <line style="fill:none;stroke:rgb(255,127,0);stroke-opacity:0.24705882352941178;stroke-width:2;stroke-miterlimit:10;stroke-linecap:square;" x1="50" x2="64" y1="297" y2="297"/>
  <line style="fill:none;stroke:rgb(255,127,0);stroke-opacity:0.24705882352941178;stroke-width:2;stroke-miterlimit:10;stroke-linecap:square;" x1="64" x2="64" y1="295" y2="285"/>
  <rect height="11" style="fill:rgb(255,127,0);fill-opacity:0.7490196078431373;stroke:none;" width="4" x="91" y="288"/>
  <line style="fill:none;stroke:rgb(255,127,0);stroke-opacity:0.24705882352941178;stroke-width:2;stroke-miterlimit:10;stroke-linecap:square;" x1="64" x2="93" y1="283" y2="283"/>
  <line style="fill:none;stroke:rgb(255,127,0);stroke-opacity:0.24705882352941178;stroke-width:2;stroke-miterlimit:10;stroke-linecap:square;" x1="93" x2="93" y1="281" y2="274"/>
  <rect height="5" style="fill:rgb(255,127,0);fill-opacity:0.7490196078431373;stroke:none;" width="4" x="106" y="294"/>
  <line style="fill:none;stroke:rgb(255,127,0);stroke-opacity:0.24705882352941178;stroke-width:2;stroke-miterlimit:10;stroke-linecap:square;" x1="93" x2="108" y1="272" y2="272"/>
  <line style="fill:none;stroke:rgb(255,127,0);stroke-opacity:0.24705882352941178;stroke-width:2;stroke-miterlimit:10;stroke-linecap:square;" x1="108" x2="108" y1="270" y2="268"/>
  <rect height="8" style="fill:rgb(255,127,0);fill-opacity:0.7490196078431373;stroke:none;" width="4" x="120" y="291"/>
  <line style="fill:none;stroke:rgb(255,127,0);stroke-opacity:0.24705882352941178;stroke-width:2;stroke-miterlimit:10;stroke-linecap:square;" x1="108" x2="122" y1="266" y2="266"/>
  <line style="fill:none;stroke:rgb(255,127,0);stroke-opacity:0.24705882352941178;stroke-width:2;stroke-miterlimit:10;stroke-linecap:square;" x1="122" x2="122" y1="264" y2="260"/>
  <rect height="8" style="fill:rgb(255,127,0);fill-opacity:0.7490196078431373;stroke:none;" width="4" x="135" y="291"/>
  <line style="fill:none;stroke:rgb(255,127,0);stroke-opacity:0.24705882352941178;stroke-width:2;stroke-miterlimit:10;stroke-linecap:square;" x1="122" x2="137" y1="258" y2="258"/>
  <line style="fill:none;stroke:rgb(255,127,0);stroke-opacity:0.24705882352941178;stroke-width:2;stroke-miterlimit:10;stroke-linecap:square;" x1="137" x2="137" y1="256" y2="252"/>
  <rect height="8" style="fill:rgb(255,127,0);fill-opacity:0.7490196078431373;stroke:none;" width="4" x="150" y="291"/>
  <line style="fill:none;stroke:rgb(255,127,0);stroke-opacity:0.24705882352941178;stroke-width:2;stroke-miterlimit:10;stroke-linecap:square;" x1="137" x2="152" y1="250" y2="250"/>
  <line style="fill:none;stroke:rgb(255,127,0);stroke-opacity:0.24705882352941178;stroke-width:2;stroke-miterlimit:10;stroke-linecap:square;" x1="152" x2="152" y1="248" y2="244"/>
  <rect height="5" style="fill:rgb(255,127,0);fill-opacity:0.7490196078431373;stroke:none;" width="4" x="179" y="294"/>
  <line style="fill:none;stroke:rgb(255,127,0);stroke-opacity:0.24705882352941178;stroke-width:2;stroke-miterlimit:10;stroke-linecap:square;" x1="152" x2="181" y1="242" y2="242"/>
  <line style="fill:none;stroke:rgb(255,127,0);stroke-opacity:0.24705882352941178;stroke-width:2;stroke-miterlimit:10;stroke-linecap:square;" x1="181" x2="181" y1="240" y2="238"/>
  <rect height="22" style="fill:rgb(255,127,0);fill-opacity:0.7490196078431373;stroke:none;" width="4" x="193" y="277"/>
  <line style="fill:none;stroke:rgb(255,127,0);stroke-opacity:0.24705882352941178;stroke-width:2;stroke-miterlimit:10;stroke-linecap:square;" x1="181" x2="195" y1="236" y2="236"/>
  <line style="fill:none;stroke:rgb(255,127,0);stroke-opacity:0.24705882352941178;stroke-width:2;stroke-miterlimit:10;stroke-linecap:square;" x1="195" x2="195" y1="234" y2="216"/>
  <rect height="24" style="fill:rgb(255,127,0);fill-opacity:0.7490196078431373;stroke:none;" width="4" x="208" y="275"/>
  <line style="fill:none;stroke:rgb(255,127,0);stroke-opacity:0.24705882352941178;stroke-width:2;stroke-miterlimit:10;stroke-linecap:square;" x1="195" x2="210" y1="214" y2="214"/>
  <line style="fill:none;stroke:rgb(255,127,0);stroke-opacity:0.24705882352941178;stroke-width:2;stroke-miterlimit:10;stroke-linecap:square;" x1="210" x2="210" y1="212" y2="191"/>
  <rect height="16" style="fill:rgb(255,127,0);fill-opacity:0.7490196078431373;stroke:none;" width="4" x="223" y="283"/>
  <line style="fill:none;stroke:rgb(255,127,0);stroke-opacity:0.24705882352941178;stroke-width:2;stroke-miterlimit:10;stroke-linecap:square;" x1="210" x2="225" y1="189" y2="189"/>
  <line style="fill:none;stroke:rgb(255,127,0);stroke-opacity:0.24705882352941178;stroke-width:2;stroke-miterlimit:10;stroke-linecap:square;" x1="225" x2="225" y1="187" y2="175"/>
  <rect height="49" style="fill:rgb(255,127,0);fill-opacity:0.7490196078431373;stroke:none;" width="4" x="237" y="250"/>
  <line style="fill:none;stroke:rgb(255,127,0);stroke-opacity:0.24705882352941178;stroke-width:2;stroke-miterlimit:10;stroke-linecap:square;" x1="225" x2="239" y1="173" y2="173"/>
  <line style="fill:none;stroke:rgb(255,127,0);stroke-opacity:0.24705882352941178;stroke-width:2;stroke-miterlimit:10;stroke-linecap:square;" x1="239" x2="239" y1="171" y2="125"/>
  <rect height="22" style="fill:rgb(255,127,0);fill-opacity:0.7490196078431373;stroke:none;" width="4" x="252" y="277"/>
  <line style="fill:none;stroke:rgb(255,127,0);stroke-opacity:0.24705882352941178;stroke-width:2;stroke-miterlimit:10;stroke-linecap:square;" x1="239" x2="254" y1="123" y2="123"/>
  <line style="fill:none;stroke:rgb(255,127,0);stroke-opacity:0.24705882352941178;stroke-width:2;stroke-miterlimit:10;stroke-linecap:square;" x1="254" x2="254" y1="121" y2="103"/>
  <rect height="11" style="fill:rgb(255,127,0);fill-opacity:0.7490196078431373;stroke:none;" width="4" x="266" y="288"/>
  <line style="fill:none;stroke:rgb(255,127,0);stroke-opacity:0.24705882352941178;stroke-width:2;stroke-miterlimit:10;stroke-linecap:square;" x1="254" x2="268" y1="101" y2="101"/>
  <line style="fill:none;stroke:rgb(255,127,0);stroke-opacity:0.24705882352941178;stroke-width:2;stroke-miterlimit:10;stroke-linecap:square;" x1="268" x2="268" y1="99" y2="92"/>
  <rect height="5" style="fill:rgb(255,127,0);fill-opacity:0.7490196078431373;stroke:none;" width="4" x="281" y="294"/>
  <line style="fill:none;stroke:rgb(255,127,0);stroke-opacity:0.24705882352941178;stroke-width:2;stroke-miterlimit:10;stroke-linecap:square;" x1="268" x2="283" y1="90" y2="90"/>
  <line style="fill:none;stroke:rgb(255,127,0);stroke-opacity:0.24705882352941178;stroke-width:2;stroke-miterlimit:10;stroke-linecap:square;" x1="283" x2="283" y1="88" y2="86"/>
  <rect height="2" style="fill:rgb(255,127,0);fill-opacity:0.7490196078431373;stroke:none;" width="4" x="310" y="297"/>
  <line style="fill:none;stroke:rgb(255,127,0);stroke-opacity:0.24705882352941178;stroke-width:2;stroke-miterlimit:10;stroke-linecap:square;" x1="283" x2="312" y1="84" y2="84"/>
  <line style="fill:none;stroke:rgb(255,127,0);stroke-opacity:0.24705882352941178;stroke-width:2;stroke-miterlimit:10;stroke-linecap:square;" x1="312" x2="312" y1="82" y2="84"/>
  <rect height="2" style="fill:rgb(255,127,0);fill-opacity:0.7490196078431373;stroke:none;" width="4" x="325" y="297"/>
  <line style="fill:none;stroke:rgb(255,127,0);stroke-opacity:0.24705882352941178;stroke-width:2;stroke-miterlimit:10;stroke-linecap:square;" x1="312" x2="327" y1="82" y2="82"/>
  <line style="fill:none;stroke:rgb(255,127,0);stroke-opacity:0.24705882352941178;stroke-width:2;stroke-miterlimit:10;stroke-linecap:square;" x1="327" x2="327" y1="80" y2="81"/>
  <rect height="5" style="fill:rgb(255,127,0);fill-opacity:0.7490196078431373;stroke:none;" width="4" x="339" y="294"/>
  <line style="fill:none;stroke:rgb(255,127,0);stroke-opacity:0.24705882352941178;stroke-width:2;stroke-miterlimit:10;stroke-linecap:square;" x1="327" x2="341" y1="79" y2="79"/>
  <line style="fill:none;stroke:rgb(255,127,0);stroke-opacity:0.24705882352941178;stroke-width:2;stroke-miterlimit:10;stroke-linecap:square;" x1="341" x2="341" y1="77" y2="75"/>
  <rect height="5" style="fill:rgb(255,127,0);fill-opacity:0.7490196078431373;stroke:none;" width="4" x="368" y="294"/>
  <line style="fill:none;stroke:rgb(255,127,0);stroke-opacity:0.24705882352941178;stroke-width:2;stroke-miterlimit:10;stroke-linecap:square;" x1="341" x2="370" y1="73" y2="73"/>
  <line style="fill:none;stroke:rgb(255,127,0);stroke-opacity:0.24705882352941178;stroke-width:2;stroke-miterlimit:10;stroke-linecap:square;" x1="370" x2="370" y1="71" y2="70"/>
  <rect height="5" style="fill:rgb(255,127,0);fill-opacity:0.7490196078431373;stroke:none;" width="4" x="383" y="294"/>
  <line style="fill:none;stroke:rgb(255,127,0);stroke-opacity:0.24705882352941178;stroke-width:2;stroke-miterlimit:10;stroke-linecap:square;" x1="370" x2="385" y1="68" y2="68"/>
  <line style="fill:none;stroke:rgb(255,127,0);stroke-opacity:0.24705882352941178;stroke-width:2;stroke-miterlimit:10;stroke-linecap:square;" x1="385" x2="385" y1="66" y2="64"/>
  <rect height="2" style="fill:rgb(255,127,0);fill-opacity:0.7490196078431373;stroke:none;" width="4" x="398" y="297"/>
  <line style="fill:none;stroke:rgb(255,127,0);stroke-opacity:0.24705882352941178;stroke-width:2;stroke-miterlimit:10;stroke-linecap:square;" x1="385" x2="400" y1="62" y2="62"/>
  <line style="fill:none;stroke:rgb(255,127,0);stroke-opacity:0.24705882352941178;stroke-width:2;stroke-miterlimit:10;stroke-linecap:square;" x1="400" x2="400" y1="60" y2="62"/>
  <line style="fill:none;stroke:rgb(255,127,0);stroke-opacity:0.24705882352941178;stroke-width:2;stroke-miterlimit:10;stroke-linecap:square;" x1="400" x2="400" y1="60" y2="60"/>
  <line style="fill:none;stroke:rgb(255,127,0);stroke-opacity:0.4980392156862745;stroke-miterlimit:2;stroke-dasharray:2;" x1="50" x2="50" y1="300" y2="350"/>
  <line style="fill:none;stroke:rgb(255,127,0);stroke-opacity:0.4980392156862745;stroke-miterlimit:2;stroke-dasharray:2;" x1="64" x2="64" y1="300" y2="364"/>
  <line style="fill:none;stroke:rgb(255,127,0);stroke-opacity:0.4980392156862745;stroke-miterlimit:2;stroke-dasharray:2;" x1="64" x2="64" y1="300" y2="378"/>
  <line style="fill:none;stroke:rgb(255,127,0);stroke-opacity:0.4980392156862745;stroke-miterlimit:2;stroke-dasharray:2;" x1="64" x2="64" y1="300" y2="392"/>
  <line style="fill:none;stroke:rgb(255,127,0);stroke-opacity:0.4980392156862745;stroke-miterlimit:2;stroke-dasharray:2;" x1="64" x2="64" y1="300" y2="406"/>
  <line style="fill:none;stroke:rgb(255,127,0);stroke-opacity:0.4980392156862745;stroke-miterlimit:2;stroke-dasharray:2;" x1="64" x2="64" y1="300" y2="420"/>
  <line style="fill:none;stroke:rgb(255,127,0);stroke-opacity:0.4980392156862745;stroke-miterlimit:2;stroke-dasharray:2;" x1="93" x2="93" y1="300" y2="434"/>
  <line style="fill:none;stroke:rgb(255,127,0);stroke-opacity:0.4980392156862745;stroke-miterlimit:2;stroke-dasharray:2;" x1="93" x2="93" y1="300" y2="448"/>
  <line style="fill:none;stroke:rgb(255,127,0);stroke-opacity:0.4980392156862745;stroke-miterlimit:2;stroke-dasharray:2;" x1="93" x2="93" y1="300" y2="462"/>
  <line style="fill:none;stroke:rgb(255,127,0);stroke-opacity:0.4980392156862745;stroke-miterlimit:2;stroke-dasharray:2;" x1="93" x2="93" y1="300" y2="476"/>
  <line style="fill:none;stroke:rgb(255,127,0);stroke-opacity:0.4980392156862745;stroke-miterlimit:2;stroke-dasharray:2;" x1="108" x2="108" y1="300" y2="490"/>
  <line style="fill:none;stroke:rgb(255,127,0);stroke-opacity:0.4980392156862745;stroke-miterlimit:2;stroke-dasharray:2;" x1="108" x2="108" y1="300" y2="504"/>
  <line style="fill:none;stroke:rgb(255,127,0);stroke-opacity:0.4980392156862745;stroke-miterlimit:2;stroke-dasharray:2;" x1="122" x2="122" y1="300" y2="518"/>
  <line style="fill:none;stroke:rgb(255,127,0);stroke-opacity:0.4980392156862745;stroke-miterlimit:2;stroke-dasharray:2;" x1="122" x2="122" y1="300" y2="532"/>
  <line style="fill:none;stroke:rgb(255,127,0);stroke-opacity:0.4980392156862745;stroke-miterlimit:2;stroke-dasharray:2;" x1="122" x2="122" y1="300" y2="546"/>
  <line style="fill:none;stroke:rgb(255,127,0);stroke-opacity:0.4980392156862745;stroke-miterlimit:2;stroke-dasharray:2;" x1="137" x2="137" y1="300" y2="560"/>
  <line style="fill:none;stroke:rgb(255,127,0);stroke-opacity:0.4980392156862745;stroke-miterlimit:2;stroke-dasharray:2;" x1="137" x2="137" y1="300" y2="574"/>
  <line style="fill:none;stroke:rgb(255,127,0);stroke-opacity:0.4980392156862745;stroke-miterlimit:2;stroke-dasharray:2;" x1="137" x2="137" y1="300" y2="588"/>
  <line style="fill:none;stroke:rgb(255,127,0);stroke-opacity:0.4980392156862745;stroke-miterlimit:2;stroke-dasharray:2;" x1="152" x2="152" y1="300" y2="602"/>
  <line style="fill:none;stroke:rgb(255,127,0);stroke-opacity:0.4980392156862745;stroke-miterlimit:2;stroke-dasharray:2;" x1="152" x2="152" y1="300" y2="616"/>
  <line style="fill:none;stroke:rgb(255,127,0);stroke-opacity:0.4980392156862745;stroke-miterlimit:2;stroke-dasharray:2;" x1="152" x2="152" y1="300" y2="630"/>
  <line style="fill:none;stroke:rgb(255,127,0);stroke-opacity:0.4980392156862745;stroke-miterlimit:2;stroke-dasharray:2;" x1="181" x2="181" y1="300" y2="644"/>
  <line style="fill:none;stroke:rgb(255,127,0);stroke-opacity:0.4980392156862745;stroke-miterlimit:2;stroke-dasharray:2;" x1="181" x2="181" y1="300" y2="658"/>
  <line style="fill:none;stroke:rgb(255,127,0);stroke-opacity:0.4980392156862745;stroke-miterlimit:2;stroke-dasharray:2;" x1="195" x2="195" y1="300" y2="673"/>
  <line style="fill:none;stroke:rgb(255,127,0);stroke-opacity:0.4980392156862745;stroke-miterlimit:2;stroke-dasharray:2;" x1="195" x2="195" y1="300" y2="688"/>
  <line style="fill:none;stroke:rgb(255,127,0);stroke-opacity:0.4980392156862745;stroke-miterlimit:2;stroke-dasharray:2;" x1="195" x2="195" y1="300" y2="703"/>
  <line style="fill:none;stroke:rgb(255,127,0);stroke-opacity:0.4980392156862745;stroke-miterlimit:2;stroke-dasharray:2;" x1="195" x2="195" y1="300" y2="718"/>
  <line style="fill:none;stroke:rgb(255,127,0);stroke-opacity:0.4980392156862745;stroke-miterlimit:2;stroke-dasharray:2;" x1="195" x2="195" y1="300" y2="733"/>
  <line style="fill:none;stroke:rgb(255,127,0);stroke-opacity:0.4980392156862745;stroke-miterlimit:2;stroke-dasharray:2;" x1="195" x2="195" y1="300" y2="748"/>
  <line style="fill:none;stroke:rgb(255,127,0);stroke-opacity:0.4980392156862745;stroke-miterlimit:2;stroke-dasharray:2;" x1="195" x2="195" y1="300" y2="763"/>
  <line style="fill:none;stroke:rgb(255,127,0);stroke-opacity:0.4980392156862745;stroke-miterlimit:2;stroke-dasharray:2;" x1="195" x2="195" y1="300" y2="778"/>
  <line style="fill:none;stroke:rgb(255,127,0);stroke-opacity:0.4980392156862745;stroke-miterlimit:2;stroke-dasharray:2;" x1="210" x2="210" y1="300" y2="793"/>
  <line style="fill:none;stroke:rgb(255,127,0);stroke-opacity:0.4980392156862745;stroke-miterlimit:2;stroke-dasharray:2;" x1="210" x2="210" y1="300" y2="808"/>
  <line style="fill:none;stroke:rgb(255,127,0);stroke-opacity:0.4980392156862745;stroke-miterlimit:2;stroke-dasharray:2;" x1="210" x2="210" y1="300" y2="823"/>
  <line style="fill:none;stroke:rgb(255,127,0);stroke-opacity:0.4980392156862745;stroke-miterlimit:2;stroke-dasharray:2;" x1="210" x2="210" y1="300" y2="838"/>
  <line style="fill:none;stroke:rgb(255,127,0);stroke-opacity:0.4980392156862745;stroke-miterlimit:2;stroke-dasharray:2;" x1="210" x2="210" y1="300" y2="853"/>
  <line style="fill:none;stroke:rgb(255,127,0);stroke-opacity:0.4980392156862745;stroke-miterlimit:2;stroke-dasharray:2;" x1="210" x2="210" y1="300" y2="868"/>
  <line style="fill:none;stroke:rgb(255,127,0);stroke-opacity:0.4980392156862745;stroke-miterlimit:2;stroke-dasharray:2;" x1="210" x2="210" y1="300" y2="883"/>
  <line style="fill:none;stroke:rgb(255,127,0);stroke-opacity:0.4980392156862745;stroke-miterlimit:2;stroke-dasharray:2;" x1="210" x2="210" y1="300" y2="898"/>
  <line style="fill:none;stroke:rgb(255,127,0);stroke-opacity:0.4980392156862745;stroke-miterlimit:2;stroke-dasharray:2;" x1="210" x2="210" y1="300" y2="913"/>
  <line style="fill:none;stroke:rgb(255,127,0);stroke-opacity:0.4980392156862745;stroke-miterlimit:2;stroke-dasharray:2;" x1="225" x2="225" y1="300" y2="928"/>
  <line style="fill:none;stroke:rgb(255,127,0);stroke-opacity:0.4980392156862745;stroke-miterlimit:2;stroke-dasharray:2;" x1="225" x2="225" y1="300" y2="943"/>
  <line style="fill:none;stroke:rgb(255,127,0);stroke-opacity:0.4980392156862745;stroke-miterlimit:2;stroke-dasharray:2;" x1="225" x2="225" y1="300" y2="958"/>
  <line style="fill:none;stroke:rgb(255,127,0);stroke-opacity:0.4980392156862745;stroke-miterlimit:2;stroke-dasharray:2;" x1="225" x2="225" y1="300" y2="973"/>
  <line style="fill:none;stroke:rgb(255,127,0);stroke-opacity:0.4980392156862745;stroke-miterlimit:2;stroke-dasharray:2;" x1="225" x2="225" y1="300" y2="988"/>
  <line style="fill:none;stroke:rgb(255,127,0);stroke-opacity:0.4980392156862745;stroke-miterlimit:2;stroke-dasharray:2;" x1="225" x2="225" y1="300" y2="1003"/>
  <line style="fill:none;stroke:rgb(255,127,0);stroke-opacity:0.4980392156862745;stroke-miterlimit:2;stroke-dasharray:2;" x1="239" x2="239" y1="300" y2="1018"/>
  <line style="fill:none;stroke:rgb(255,127,0);stroke-opacity:0.4980392156862745;stroke-miterlimit:2;stroke-dasharray:2;" x1="239" x2="239" y1="300" y2="1033"/>
  <line style="fill:none;stroke:rgb(255,127,0);stroke-opacity:0.4980392156862745;stroke-miterlimit:2;stroke-dasharray:2;" x1="239" x2="239" y1="300" y2="1048"/>
  <line style="fill:none;stroke:rgb(255,127,0);stroke-opacity:0.4980392156862745;stroke-miterlimit:2;stroke-dasharray:2;" x1="239" x2="239" y1="300" y2="1063"/>
  <line style="fill:none;stroke:rgb(255,127,0);stroke-opacity:0.4980392156862745;stroke-miterlimit:2;stroke-dasharray:2;" x1="239" x2="239" y1="300" y2="1078"/>
  <line style="fill:none;stroke:rgb(255,127,0);stroke-opacity:0.4980392156862745;stroke-miterlimit:2;stroke-dasharray:2;" x1="239" x2="239" y1="300" y2="1093"/>
  <line style="fill:none;stroke:rgb(255,127,0);stroke-opacity:0.4980392156862745;stroke-miterlimit:2;stroke-dasharray:2;" x1="239" x2="239" y1="300" y2="1108"/>
  <line style="fill:none;stroke:rgb(255,127,0);stroke-opacity:0.4980392156862745;stroke-miterlimit:2;stroke-dasharray:2;" x1="239" x2="239" y1="300" y2="1123"/>
  <line style="fill:none;stroke:rgb(255,127,0);stroke-opacity:0.4980392156862745;stroke-miterlimit:2;stroke-dasharray:2;" x1="239" x2="239" y1="300" y2="1138"/>
  <line style="fill:none;stroke:rgb(255,127,0);stroke-opacity:0.4980392156862745;stroke-miterlimit:2;stroke-dasharray:2;" x1="239" x2="239" y1="300" y2="1153"/>
  <line style="fill:none;stroke:rgb(255,127,0);stroke-opacity:0.4980392156862745;stroke-miterlimit:2;stroke-dasharray:2;" x1="239" x2="239" y1="300" y2="1168"/>
  <line style="fill:none;stroke:rgb(255,127,0);stroke-opacity:0.4980392156862745;stroke-miterlimit:2;stroke-dasharray:2;" x1="239" x2="239" y1="300" y2="1183"/>
  <line style="fill:none;stroke:rgb(255,127,0);stroke-opacity:0.4980392156862745;stroke-miterlimit:2;stroke-dasharray:2;" x1="239" x2="239" y1="300" y2="1198"/>
  <line style="fill:none;stroke:rgb(255,127,0);stroke-opacity:0.4980392156862745;stroke-miterlimit:2;stroke-dasharray:2;" x1="239" x2="239" y1="300" y2="1213"/>
  <line style="fill:none;stroke:rgb(255,127,0);stroke-opacity:0.4980392156862745;stroke-miterlimit:2;stroke-dasharray:2;" x1="239" x2="239" y1="300" y2="1228"/>
  <line style="fill:none;stroke:rgb(255,127,0);stroke-opacity:0.4980392156862745;stroke-miterlimit:2;stroke-dasharray:2;" x1="239" x2="239" y1="300" y2="1243"/>
  <line style="fill:none;stroke:rgb(255,127,0);stroke-opacity:0.4980392156862745;stroke-miterlimit:2;stroke-dasharray:2;" x1="239" x2="239" y1="300" y2="1258"/>
  <line style="fill:none;stroke:rgb(255,127,0);stroke-opacity:0.4980392156862745;stroke-miterlimit:2;stroke-dasharray:2;" x1="239" x2="239" y1="300" y2="1273"/>
  <line style="fill:none;stroke:rgb(255,127,0);stroke-opacity:0.4980392156862745;stroke-miterlimit:2;stroke-dasharray:2;" x1="254" x2="254" y1="300" y2="1288"/>
  <line style="fill:none;stroke:rgb(255,127,0);stroke-opacity:0.4980392156862745;stroke-miterlimit:2;stroke-dasharray:2;" x1="254" x2="254" y1="300" y2="1303"/>
  <line style="fill:none;stroke:rgb(255,127,0);stroke-opacity:0.4980392156862745;stroke-miterlimit:2;stroke-dasharray:2;" x1="254" x2="254" y1="300" y2="1318"/>
  <line style="fill:none;stroke:rgb(255,127,0);stroke-opacity:0.4980392156862745;stroke-miterlimit:2;stroke-dasharray:2;" x1="254" x2="254" y1="300" y2="1333"/>
  <line style="fill:none;stroke:rgb(255,127,0);stroke-opacity:0.4980392156862745;stroke-miterlimit:2;stroke-dasharray:2;" x1="254" x2="254" y1="300" y2="1348"/>
  <line style="fill:none;stroke:rgb(255,127,0);stroke-opacity:0.4980392156862745;stroke-miterlimit:2;stroke-dasharray:2;" x1="254" x2="254" y1="300" y2="1363"/>
  <line style="fill:none;stroke:rgb(255,127,0);stroke-opacity:0.4980392156862745;stroke-miterlimit:2;stroke-dasharray:2;" x1="254" x2="254" y1="300" y2="1378"/>
  <line style="fill:none;stroke:rgb(255,127,0);stroke-opacity:0.4980392156862745;stroke-miterlimit:2;stroke-dasharray:2;" x1="254" x2="254" y1="300" y2="1393"/>
  <line style="fill:none;stroke:rgb(255,127,0);stroke-opacity:0.4980392156862745;stroke-miterlimit:2;stroke-dasharray:2;" x1="268" x2="268" y1="300" y2="1407"/>
  <line style="fill:none;stroke:rgb(255,127,0);stroke-opacity:0.4980392156862745;stroke-miterlimit:2;stroke-dasharray:2;" x1="268" x2="268" y1="300" y2="1421"/>
  <line style="fill:none;stroke:rgb(255,127,0);stroke-opacity:0.4980392156862745;stroke-miterlimit:2;stroke-dasharray:2;" x1="268" x2="268" y1="300" y2="1435"/>
  <line style="fill:none;stroke:rgb(255,127,0);stroke-opacity:0.4980392156862745;stroke-miterlimit:2;stroke-dasharray:2;" x1="268" x2="268" y1="300" y2="1449"/>
  <line style="fill:none;stroke:rgb(255,127,0);stroke-opacity:0.4980392156862745;stroke-miterlimit:2;stroke-dasharray:2;" x1="283" x2="283" y1="300" y2="1463"/>
  <line style="fill:none;stroke:rgb(255,127,0);stroke-opacity:0.4980392156862745;stroke-miterlimit:2;stroke-dasharray:2;" x1="283" x2="283" y1="300" y2="1477"/>
  <line style="fill:none;stroke:rgb(255,127,0);stroke-opacity:0.4980392156862745;stroke-miterlimit:2;stroke-dasharray:2;" x1="312" x2="312" y1="300" y2="1491"/>
  <line style="fill:none;stroke:rgb(255,127,0);stroke-opacity:0.4980392156862745;stroke-miterlimit:2;stroke-dasharray:2;" x1="327" x2="327" y1="300" y2="1505"/>
  <line style="fill:none;stroke:rgb(255,127,0);stroke-opacity:0.4980392156862745;stroke-miterlimit:2;stroke-dasharray:2;" x1="341" x2="341" y1="300" y2="1519"/>
  <line style="fill:none;stroke:rgb(255,127,0);stroke-opacity:0.4980392156862745;stroke-miterlimit:2;stroke-dasharray:2;" x1="341" x2="341" y1="300" y2="1533"/>
  <line style="fill:none;stroke:rgb(255,127,0);stroke-opacity:0.4980392156862745;stroke-miterlimit:2;stroke-dasharray:2;" x1="370" x2="370" y1="300" y2="1547"/>
  <line style="fill:none;stroke:rgb(255,127,0);stroke-opacity:0.4980392156862745;stroke-miterlimit:2;stroke-dasharray:2;" x1="370" x2="370" y1="300" y2="1561"/>
  <line style="fill:none;stroke:rgb(255,127,0);stroke-opacity:0.4980392156862745;stroke-miterlimit:2;stroke-dasharray:2;" x1="385" x2="385" y1="300" y2="1575"/>
  <line style="fill:none;stroke:rgb(255,127,0);stroke-opacity:0.4980392156862745;stroke-miterlimit:2;stroke-dasharray:2;" x1="385" x2="385" y1="300" y2="1589"/>
  <line style="fill:none;stroke:rgb(255,127,0);stroke-opacity:0.4980392156862745;stroke-miterlimit:2;stroke-dasharray:2;" x1="400" x2="400" y1="300" y2="1603"/>
  <line style="fill:none;stroke:rgb(0,0,0);stroke-width:2;stroke-miterlimit:10;stroke-linecap:square;" x1="48" x2="48" y1="60" y2="300"/>
  <line style="fill:none;stroke:rgb(0,0,0);stroke-width:2;stroke-miterlimit:10;stroke-linecap:square;" x1="48" x2="402" y1="300" y2="300"/>
  <rect height="30" style="fill:rgb(255,255,255);stroke:none;" width="17" x="42" y="308"/>
  <text style="fill:rgb(0,0,0);stroke:none;font-size:25px;font-weight:bold;" x="42" y="332">0</text>
  <rect height="30" style="fill:rgb(255,255,255);stroke:none;" width="34" x="383" y="308"/>
  <text style="fill:rgb(0,0,0);stroke:none;font-size:25px;font-weight:bold;" x="383" y="332">24</text>
  <text style="fill:rgb(0,0,0);stroke:none;font-size:25px;font-weight:bold;" x="25" y="312">0</text>
  <text style="fill:rgb(0,0,0);stroke:none;font-size:25px;font-weight:bold;" x="25" y="72">1</text>
  <text style="fill:rgb(0,0,0);stroke:none;font-size:19px;font-weight:bold;" x="6" y="39">KRIGE_RESPONSE_TO_TOSEDOSTAT_24HR_UP</text>
  <rect height="11" style="fill:rgb(255,255,255);stroke:none;" width="37" x="50" y="339"/>
  <text style="fill:rgb(128,128,128);stroke:none;font-size:11px;" x="50" y="350">DDX59</text>
  <rect height="11" style="fill:rgb(255,255,255);stroke:none;" width="35" x="64" y="353"/>
  <text style="fill:rgb(128,128,128);stroke:none;font-size:11px;" x="64" y="364">RNF41</text>
  <rect height="11" style="fill:rgb(255,255,255);stroke:none;" width="30" x="64" y="367"/>
  <text style="fill:rgb(128,128,128);stroke:none;font-size:11px;" x="64" y="378">NFIL3</text>
  <rect height="11" style="fill:rgb(255,255,255);stroke:none;" width="43" x="64" y="381"/>
  <text style="fill:rgb(128,128,128);stroke:none;font-size:11px;" x="64" y="392">CLEC7A</text>
  <rect height="11" style="fill:rgb(255,255,255);stroke:none;" width="51" x="64" y="395"/>
  <text style="fill:rgb(128,128,128);stroke:none;font-size:11px;" x="64" y="406">C1ORF74</text>
  <rect height="11" style="fill:rgb(255,255,255);stroke:none;" width="43" x="64" y="409"/>
  <text style="fill:rgb(128,128,128);stroke:none;font-size:11px;" x="64" y="420">LRRFIP1</text>
  <rect height="11" style="fill:rgb(255,255,255);stroke:none;" width="34" x="93" y="423"/>
  <text style="fill:rgb(128,128,128);stroke:none;font-size:11px;" x="93" y="434">VLDLR</text>
  <rect height="11" style="fill:rgb(255,255,255);stroke:none;" width="33" x="93" y="437"/>
  <text style="fill:rgb(128,128,128);stroke:none;font-size:11px;" x="93" y="448">DDIT4</text>
  <rect height="11" style="fill:rgb(255,255,255);stroke:none;" width="49" x="93" y="451"/>
  <text style="fill:rgb(128,128,128);stroke:none;font-size:11px;" x="93" y="462">PLEKHA1</text>
  <rect height="11" style="fill:rgb(255,255,255);stroke:none;" width="51" x="93" y="465"/>
  <text style="fill:rgb(128,128,128);stroke:none;font-size:11px;" x="93" y="476">TRAF3IP3</text>
  <rect height="11" style="fill:rgb(255,255,255);stroke:none;" width="36" x="108" y="479"/>
  <text style="fill:rgb(128,128,128);stroke:none;font-size:11px;" x="108" y="490">VEGFA</text>
  <rect height="11" style="fill:rgb(255,255,255);stroke:none;" width="39" x="108" y="493"/>
  <text style="fill:rgb(128,128,128);stroke:none;font-size:11px;" x="108" y="504">BNIP3L</text>
  <rect height="11" style="fill:rgb(255,255,255);stroke:none;" width="30" x="122" y="507"/>
  <text style="fill:rgb(128,128,128);stroke:none;font-size:11px;" x="122" y="518">BST1</text>
  <rect height="11" style="fill:rgb(255,255,255);stroke:none;" width="36" x="122" y="521"/>
  <text style="fill:rgb(128,128,128);stroke:none;font-size:11px;" x="122" y="532">S100P</text>
  <rect height="11" style="fill:rgb(255,255,255);stroke:none;" width="43" x="122" y="535"/>
  <text style="fill:rgb(128,128,128);stroke:none;font-size:11px;" x="122" y="546">S100A9</text>
  <rect height="11" style="fill:rgb(255,255,255);stroke:none;" width="36" x="137" y="549"/>
  <text style="fill:rgb(128,128,128);stroke:none;font-size:11px;" x="137" y="560">VPS39</text>
  <rect height="11" style="fill:rgb(255,255,255);stroke:none;" width="33" x="137" y="563"/>
  <text style="fill:rgb(128,128,128);stroke:none;font-size:11px;" x="137" y="574">ORAI3</text>
  <rect height="11" style="fill:rgb(255,255,255);stroke:none;" width="45" x="137" y="577"/>
  <text style="fill:rgb(128,128,128);stroke:none;font-size:11px;" x="137" y="588">SEC22C</text>
  <rect height="11" style="fill:rgb(255,255,255);stroke:none;" width="29" x="152" y="591"/>
  <text style="fill:rgb(128,128,128);stroke:none;font-size:11px;" x="152" y="602">BCL3</text>
  <rect height="11" style="fill:rgb(255,255,255);stroke:none;" width="36" x="152" y="605"/>
  <text style="fill:rgb(128,128,128);stroke:none;font-size:11px;" x="152" y="616">ALOX5</text>
  <rect height="11" style="fill:rgb(255,255,255);stroke:none;" width="45" x="152" y="619"/>
  <text style="fill:rgb(128,128,128);stroke:none;font-size:11px;" x="152" y="630">TNFAIP2</text>
  <rect height="11" style="fill:rgb(255,255,255);stroke:none;" width="38" x="181" y="633"/>
  <text style="fill:rgb(128,128,128);stroke:none;font-size:11px;" x="181" y="644">DUSP6</text>
  <rect height="11" style="fill:rgb(255,255,255);stroke:none;" width="43" x="181" y="647"/>
  <text style="fill:rgb(128,128,128);stroke:none;font-size:11px;" x="181" y="658">PHLDA2</text>
  <rect height="12" style="fill:rgb(255,255,255);stroke:none;" width="35" x="195" y="661"/>
  <text style="fill:rgb(128,128,128);stroke:none;" x="195" y="673">ORM1</text>
  <rect height="12" style="fill:rgb(255,255,255);stroke:none;" width="33" x="195" y="676"/>
  <text style="fill:rgb(128,128,128);stroke:none;" x="195" y="688">RGS2</text>
  <rect height="12" style="fill:rgb(255,255,255);stroke:none;" width="40" x="195" y="691"/>
  <text style="fill:rgb(128,128,128);stroke:none;" x="195" y="703">CEP19</text>
  <rect height="12" style="fill:rgb(255,255,255);stroke:none;" width="36" x="195" y="706"/>
  <text style="fill:rgb(128,128,128);stroke:none;" x="195" y="718">TIGD7</text>
  <rect height="12" style="fill:rgb(255,255,255);stroke:none;" width="43" x="195" y="721"/>
  <text style="fill:rgb(128,128,128);stroke:none;" x="195" y="733">MOB3C</text>
  <rect height="12" style="fill:rgb(255,255,255);stroke:none;" width="42" x="195" y="736"/>
  <text style="fill:rgb(128,128,128);stroke:none;" x="195" y="748">ZBED8</text>
  <rect height="12" style="fill:rgb(255,255,255);stroke:none;" width="49" x="195" y="751"/>
  <text style="fill:rgb(128,128,128);stroke:none;" x="195" y="763">ZNF222</text>
  <rect height="12" style="fill:rgb(255,255,255);stroke:none;" width="66" x="195" y="766"/>
  <text style="fill:rgb(128,128,128);stroke:none;" x="195" y="778">ARHGAP25</text>
  <rect height="12" style="fill:rgb(255,255,255);stroke:none;" width="33" x="210" y="781"/>
  <text style="fill:rgb(128,128,128);stroke:none;" x="210" y="793">LMO4</text>
  <rect height="12" style="fill:rgb(255,255,255);stroke:none;" width="42" x="210" y="796"/>
  <text style="fill:rgb(128,128,128);stroke:none;" x="210" y="808">NMRK1</text>
  <rect height="12" style="fill:rgb(255,255,255);stroke:none;" width="38" x="210" y="811"/>
  <text style="fill:rgb(128,128,128);stroke:none;" x="210" y="823">TAPT1</text>
  <rect height="12" style="fill:rgb(255,255,255);stroke:none;" width="46" x="210" y="826"/>
  <text style="fill:rgb(128,128,128);stroke:none;" x="210" y="838">MOSMO</text>
  <rect height="12" style="fill:rgb(255,255,255);stroke:none;" width="49" x="210" y="841"/>
  <text style="fill:rgb(128,128,128);stroke:none;" x="210" y="853">CSRNP2</text>
  <rect height="12" style="fill:rgb(255,255,255);stroke:none;" width="49" x="210" y="856"/>
  <text style="fill:rgb(128,128,128);stroke:none;" x="210" y="868">ZNF691</text>
  <rect height="12" style="fill:rgb(255,255,255);stroke:none;" width="50" x="210" y="871"/>
  <text style="fill:rgb(128,128,128);stroke:none;" x="210" y="883">NUDT13</text>
  <rect height="12" style="fill:rgb(255,255,255);stroke:none;" width="49" x="210" y="886"/>
  <text style="fill:rgb(128,128,128);stroke:none;" x="210" y="898">ZNF641</text>
  <rect height="12" style="fill:rgb(255,255,255);stroke:none;" width="49" x="210" y="901"/>
  <text style="fill:rgb(128,128,128);stroke:none;" x="210" y="913">ZNF397</text>
  <rect height="12" style="fill:rgb(255,255,255);stroke:none;" width="24" x="225" y="916"/>
  <text style="fill:rgb(128,128,128);stroke:none;" x="225" y="928">CTH</text>
  <rect height="12" style="fill:rgb(255,255,255);stroke:none;" width="30" x="225" y="931"/>
  <text style="fill:rgb(128,128,128);stroke:none;" x="225" y="943">ATF3</text>
  <rect height="12" style="fill:rgb(255,255,255);stroke:none;" width="30" x="225" y="946"/>
  <text style="fill:rgb(128,128,128);stroke:none;" x="225" y="958">CCL2</text>
  <rect height="12" style="fill:rgb(255,255,255);stroke:none;" width="35" x="225" y="961"/>
  <text style="fill:rgb(128,128,128);stroke:none;" x="225" y="973">IFRD1</text>
  <rect height="12" style="fill:rgb(255,255,255);stroke:none;" width="48" x="225" y="976"/>
  <text style="fill:rgb(128,128,128);stroke:none;" x="225" y="988">TRMT13</text>
  <rect height="12" style="fill:rgb(255,255,255);stroke:none;" width="52" x="225" y="991"/>
  <text style="fill:rgb(128,128,128);stroke:none;" x="225" y="1003">PRIMPOL</text>
  <rect height="12" style="fill:rgb(255,255,255);stroke:none;" width="35" x="239" y="1006"/>
  <text style="fill:rgb(128,128,128);stroke:none;" x="239" y="1018">OGG1</text>
  <rect height="12" style="fill:rgb(255,255,255);stroke:none;" width="34" x="239" y="1021"/>
  <text style="fill:rgb(128,128,128);stroke:none;" x="239" y="1033">RBM4</text>
  <rect height="12" style="fill:rgb(255,255,255);stroke:none;" width="33" x="239" y="1036"/>
  <text style="fill:rgb(128,128,128);stroke:none;" x="239" y="1048">NAGK</text>
  <rect height="12" style="fill:rgb(255,255,255);stroke:none;" width="39" x="239" y="1051"/>
  <text style="fill:rgb(128,128,128);stroke:none;" x="239" y="1063">KRCC1</text>
  <rect height="12" style="fill:rgb(255,255,255);stroke:none;" width="36" x="239" y="1066"/>
  <text style="fill:rgb(128,128,128);stroke:none;" x="239" y="1078">FLRT2</text>
  <rect height="12" style="fill:rgb(255,255,255);stroke:none;" width="40" x="239" y="1081"/>
  <text style="fill:rgb(128,128,128);stroke:none;" x="239" y="1093">RAB4B</text>
  <rect height="12" style="fill:rgb(255,255,255);stroke:none;" width="40" x="239" y="1096"/>
  <text style="fill:rgb(128,128,128);stroke:none;" x="239" y="1108">GKAP1</text>
  <rect height="12" style="fill:rgb(255,255,255);stroke:none;" width="40" x="239" y="1111"/>
  <text style="fill:rgb(128,128,128);stroke:none;" x="239" y="1123">RSRP1</text>
  <rect height="12" style="fill:rgb(255,255,255);stroke:none;" width="41" x="239" y="1126"/>
  <text style="fill:rgb(128,128,128);stroke:none;" x="239" y="1138">NABP1</text>
  <rect height="12" style="fill:rgb(255,255,255);stroke:none;" width="49" x="239" y="1141"/>
  <text style="fill:rgb(128,128,128);stroke:none;" x="239" y="1153">SAMD9L</text>
  <rect height="12" style="fill:rgb(255,255,255);stroke:none;" width="47" x="239" y="1156"/>
  <text style="fill:rgb(128,128,128);stroke:none;" x="239" y="1168">RCBTB2</text>
  <rect height="12" style="fill:rgb(255,255,255);stroke:none;" width="50" x="239" y="1171"/>
  <text style="fill:rgb(128,128,128);stroke:none;" x="239" y="1183">RAD51D</text>
  <rect height="12" style="fill:rgb(255,255,255);stroke:none;" width="48" x="239" y="1186"/>
  <text style="fill:rgb(128,128,128);stroke:none;" x="239" y="1198">LETMD1</text>
  <rect height="12" style="fill:rgb(255,255,255);stroke:none;" width="58" x="239" y="1201"/>
  <text style="fill:rgb(128,128,128);stroke:none;" x="239" y="1213">ARHGAP9</text>
  <rect height="12" style="fill:rgb(255,255,255);stroke:none;" width="57" x="239" y="1216"/>
  <text style="fill:rgb(128,128,128);stroke:none;" x="239" y="1228">ZNF518A</text>
  <rect height="12" style="fill:rgb(255,255,255);stroke:none;" width="41" x="239" y="1231"/>
  <text style="fill:rgb(128,128,128);stroke:none;" x="239" y="1243">FILIP1L</text>
  <rect height="12" style="fill:rgb(255,255,255);stroke:none;" width="64" x="239" y="1246"/>
  <text style="fill:rgb(128,128,128);stroke:none;" x="239" y="1258">TNFAIP8L2</text>
  <rect height="12" style="fill:rgb(255,255,255);stroke:none;" width="68" x="239" y="1261"/>
  <text style="fill:rgb(128,128,128);stroke:none;" x="239" y="1273">CKMT2-AS1</text>
  <rect height="12" style="fill:rgb(255,255,255);stroke:none;" width="30" x="254" y="1276"/>
  <text style="fill:rgb(128,128,128);stroke:none;" x="254" y="1288">CBLB</text>
  <rect height="12" style="fill:rgb(255,255,255);stroke:none;" width="32" x="254" y="1291"/>
  <text style="fill:rgb(128,128,128);stroke:none;" x="254" y="1303">NEK1</text>
  <rect height="12" style="fill:rgb(255,255,255);stroke:none;" width="33" x="254" y="1306"/>
  <text style="fill:rgb(128,128,128);stroke:none;" x="254" y="1318">PSPH</text>
  <rect height="12" style="fill:rgb(255,255,255);stroke:none;" width="32" x="254" y="1321"/>
  <text style="fill:rgb(128,128,128);stroke:none;" x="254" y="1333">CHKB</text>
  <rect height="12" style="fill:rgb(255,255,255);stroke:none;" width="34" x="254" y="1336"/>
  <text style="fill:rgb(128,128,128);stroke:none;" x="254" y="1348">TRIQK</text>
  <rect height="12" style="fill:rgb(255,255,255);stroke:none;" width="51" x="254" y="1351"/>
  <text style="fill:rgb(128,128,128);stroke:none;" x="254" y="1363">TMEM80</text>
  <rect height="12" style="fill:rgb(255,255,255);stroke:none;" width="48" x="254" y="1366"/>
  <text style="fill:rgb(128,128,128);stroke:none;" x="254" y="1378">RAB27A</text>
  <rect height="12" style="fill:rgb(255,255,255);stroke:none;" width="59" x="254" y="1381"/>
  <text style="fill:rgb(128,128,128);stroke:none;" x="254" y="1393">TMEM116</text>
  <rect height="11" style="fill:rgb(255,255,255);stroke:none;" width="29" x="268" y="1396"/>
  <text style="fill:rgb(128,128,128);stroke:none;font-size:11px;" x="268" y="1407">AKNA</text>
  <rect height="11" style="fill:rgb(255,255,255);stroke:none;" width="29" x="268" y="1410"/>
  <text style="fill:rgb(128,128,128);stroke:none;font-size:11px;" x="268" y="1421">RECK</text>
  <rect height="11" style="fill:rgb(255,255,255);stroke:none;" width="34" x="268" y="1424"/>
  <text style="fill:rgb(128,128,128);stroke:none;font-size:11px;" x="268" y="1435">DZIP3</text>
  <rect height="11" style="fill:rgb(255,255,255);stroke:none;" width="46" x="268" y="1438"/>
  <text style="fill:rgb(128,128,128);stroke:none;font-size:11px;" x="268" y="1449">PSTPIP1</text>
  <rect height="11" style="fill:rgb(255,255,255);stroke:none;" width="35" x="283" y="1452"/>
  <text style="fill:rgb(128,128,128);stroke:none;font-size:11px;" x="283" y="1463">TBL1X</text>
  <rect height="11" style="fill:rgb(255,255,255);stroke:none;" width="50" x="283" y="1466"/>
  <text style="fill:rgb(128,128,128);stroke:none;font-size:11px;" x="283" y="1477">FAM111A</text>
  <rect height="11" style="fill:rgb(255,255,255);stroke:none;" width="60" x="312" y="1480"/>
  <text style="fill:rgb(128,128,128);stroke:none;font-size:11px;" x="312" y="1491">CACNA2D4</text>
  <rect height="11" style="fill:rgb(255,255,255);stroke:none;" width="37" x="327" y="1494"/>
  <text style="fill:rgb(128,128,128);stroke:none;font-size:11px;" x="327" y="1505">TTC7B</text>
  <rect height="11" style="fill:rgb(255,255,255);stroke:none;" width="31" x="341" y="1508"/>
  <text style="fill:rgb(128,128,128);stroke:none;font-size:11px;" x="341" y="1519">BBS7</text>
  <rect height="11" style="fill:rgb(255,255,255);stroke:none;" width="26" x="341" y="1522"/>
  <text style="fill:rgb(128,128,128);stroke:none;font-size:11px;" x="341" y="1533">KLF9</text>
  <rect height="11" style="fill:rgb(255,255,255);stroke:none;" width="26" x="370" y="1536"/>
  <text style="fill:rgb(128,128,128);stroke:none;font-size:11px;" x="370" y="1547">KLF4</text>
  <rect height="11" style="fill:rgb(255,255,255);stroke:none;" width="29" x="370" y="1550"/>
  <text style="fill:rgb(128,128,128);stroke:none;font-size:11px;" x="370" y="1561">BCL6</text>
  <rect height="11" style="fill:rgb(255,255,255);stroke:none;" width="27" x="385" y="1564"/>
  <text style="fill:rgb(128,128,128);stroke:none;font-size:11px;" x="385" y="1575">RFX3</text>
  <rect height="11" style="fill:rgb(255,255,255);stroke:none;" width="66" x="385" y="1578"/>
  <text style="fill:rgb(128,128,128);stroke:none;font-size:11px;" x="385" y="1589">MORC2-AS1</text>
  <rect height="11" style="fill:rgb(255,255,255);stroke:none;" width="59" x="400" y="1592"/>
  <text style="fill:rgb(128,128,128);stroke:none;font-size:11px;" x="400" y="1603">ARHGAP30</text>
</svg>
