<?xml version="1.0" encoding="UTF-8" standalone="no"?>
<!DOCTYPE svg PUBLIC "-//W3C//DTD SVG 1.1//EN" "http://www.w3.org/Graphics/SVG/1.1/DTD/svg11.dtd">
<svg xmlns:xlink="http://www.w3.org/1999/xlink" height="158.74999999999997mm" version="1.1" viewBox="0 0 500 600" width="132.29166666666666mm" x="0mm" y="0mm" xmlns="http://www.w3.org/2000/svg">
  <rect height="1200" style="fill:rgb(255,255,255);stroke:none;" width="1000" x="0" y="0"/>
  <rect height="240" style="fill:rgb(191,191,191);fill-opacity:0.4980392156862745;stroke:none;" width="175" x="225" y="60"/>
  <line style="fill:none;stroke:rgb(63,63,191);stroke-opacity:0.24705882352941178;stroke-miterlimit:10;stroke-linecap:square;" x1="50" x2="50" y1="300" y2="300"/>
  <line style="fill:none;stroke:rgb(63,63,191);stroke-opacity:0.24705882352941178;stroke-miterlimit:10;stroke-linecap:square;" x1="50" x2="64" y1="300" y2="290"/>
  <line style="fill:none;stroke:rgb(63,63,191);stroke-opacity:0.24705882352941178;stroke-miterlimit:10;stroke-linecap:square;" x1="64" x2="79" y1="290" y2="280"/>
  <line style="fill:none;stroke:rgb(63,63,191);stroke-opacity:0.24705882352941178;stroke-miterlimit:10;stroke-linecap:square;" x1="79" x2="93" y1="280" y2="270"/>
  <line style="fill:none;stroke:rgb(63,63,191);stroke-opacity:0.24705882352941178;stroke-miterlimit:10;stroke-linecap:square;" x1="93" x2="108" y1="270" y2="260"/>
  <line style="fill:none;stroke:rgb(63,63,191);stroke-opacity:0.24705882352941178;stroke-miterlimit:10;stroke-linecap:square;" x1="108" x2="122" y1="260" y2="250"/>
  <line style="fill:none;stroke:rgb(63,63,191);stroke-opacity:0.24705882352941178;stroke-miterlimit:10;stroke-linecap:square;" x1="122" x2="137" y1="250" y2="240"/>
  <line style="fill:none;stroke:rgb(63,63,191);stroke-opacity:0.24705882352941178;stroke-miterlimit:10;stroke-linecap:square;" x1="137" x2="152" y1="240" y2="230"/>
  <line style="fill:none;stroke:rgb(63,63,191);stroke-opacity:0.24705882352941178;stroke-miterlimit:10;stroke-linecap:square;" x1="152" x2="166" y1="230" y2="220"/>
  <line style="fill:none;stroke:rgb(63,63,191);stroke-opacity:0.24705882352941178;stroke-miterlimit:10;stroke-linecap:square;" x1="166" x2="181" y1="220" y2="210"/>
  <line style="fill:none;stroke:rgb(63,63,191);stroke-opacity:0.24705882352941178;stroke-miterlimit:10;stroke-linecap:square;" x1="181" x2="195" y1="210" y2="200"/>
  <line style="fill:none;stroke:rgb(63,63,191);stroke-opacity:0.24705882352941178;stroke-miterlimit:10;stroke-linecap:square;" x1="195" x2="210" y1="200" y2="190"/>
  <line style="fill:none;stroke:rgb(63,63,191);stroke-opacity:0.24705882352941178;stroke-miterlimit:10;stroke-linecap:square;" x1="210" x2="225" y1="190" y2="180"/>
  <line style="fill:none;stroke:rgb(63,63,191);stroke-opacity:0.24705882352941178;stroke-miterlimit:10;stroke-linecap:square;" x1="225" x2="239" y1="180" y2="170"/>
  <line style="fill:none;stroke:rgb(63,63,191);stroke-opacity:0.24705882352941178;stroke-miterlimit:10;stroke-linecap:square;" x1="239" x2="254" y1="170" y2="160"/>
  <line style="fill:none;stroke:rgb(63,63,191);stroke-opacity:0.24705882352941178;stroke-miterlimit:10;stroke-linecap:square;" x1="254" x2="268" y1="160" y2="150"/>
  <line style="fill:none;stroke:rgb(63,63,191);stroke-opacity:0.24705882352941178;stroke-miterlimit:10;stroke-linecap:square;" x1="268" x2="283" y1="150" y2="140"/>
  <line style="fill:none;stroke:rgb(63,63,191);stroke-opacity:0.24705882352941178;stroke-miterlimit:10;stroke-linecap:square;" x1="283" x2="297" y1="140" y2="130"/>
  <line style="fill:none;stroke:rgb(63,63,191);stroke-opacity:0.24705882352941178;stroke-miterlimit:10;stroke-linecap:square;" x1="297" x2="312" y1="130" y2="120"/>
  <line style="fill:none;stroke:rgb(63,63,191);stroke-opacity:0.24705882352941178;stroke-miterlimit:10;stroke-linecap:square;" x1="312" x2="327" y1="120" y2="110"/>
  <line style="fill:none;stroke:rgb(63,63,191);stroke-opacity:0.24705882352941178;stroke-miterlimit:10;stroke-linecap:square;" x1="327" x2="341" y1="110" y2="100"/>
  <line style="fill:none;stroke:rgb(63,63,191);stroke-opacity:0.24705882352941178;stroke-miterlimit:10;stroke-linecap:square;" x1="341" x2="356" y1="100" y2="90"/>
  <line style="fill:none;stroke:rgb(63,63,191);stroke-opacity:0.24705882352941178;stroke-miterlimit:10;stroke-linecap:square;" x1="356" x2="370" y1="90" y2="80"/>
  <line style="fill:none;stroke:rgb(63,63,191);stroke-opacity:0.24705882352941178;stroke-miterlimit:10;stroke-linecap:square;" x1="370" x2="385" y1="80" y2="70"/>
  <line style="fill:none;stroke:rgb(63,63,191);stroke-opacity:0.24705882352941178;stroke-miterlimit:10;stroke-linecap:square;" x1="385" x2="400" y1="70" y2="60"/>
  <line style="fill:none;stroke:rgb(63,63,191);stroke-opacity:0.24705882352941178;stroke-miterlimit:10;stroke-linecap:square;" x1="400" x2="400" y1="60" y2="60"/>
  <rect height="21" style="fill:rgb(255,127,0);fill-opacity:0.7490196078431373;stroke:none;" width="4" x="48" y="278"/>
  <line style="fill:none;stroke:rgb(255,127,0);stroke-opacity:0.24705882352941178;stroke-width:2;stroke-miterlimit:10;stroke-linecap:square;" x1="50" x2="50" y1="300" y2="300"/>
  <line style="fill:none;stroke:rgb(255,127,0);stroke-opacity:0.24705882352941178;stroke-width:2;stroke-miterlimit:10;stroke-linecap:square;" x1="50" x2="50" y1="298" y2="280"/>
  <rect height="36" style="fill:rgb(255,127,0);fill-opacity:0.7490196078431373;stroke:none;" width="4" x="62" y="263"/>
  <line style="fill:none;stroke:rgb(255,127,0);stroke-opacity:0.24705882352941178;stroke-width:2;stroke-miterlimit:10;stroke-linecap:square;" x1="50" x2="64" y1="278" y2="278"/>
  <line style="fill:none;stroke:rgb(255,127,0);stroke-opacity:0.24705882352941178;stroke-width:2;stroke-miterlimit:10;stroke-linecap:square;" x1="64" x2="64" y1="276" y2="243"/>
  <rect height="27" style="fill:rgb(255,127,0);fill-opacity:0.7490196078431373;stroke:none;" width="4" x="77" y="272"/>
  <line style="fill:none;stroke:rgb(255,127,0);stroke-opacity:0.24705882352941178;stroke-width:2;stroke-miterlimit:10;stroke-linecap:square;" x1="64" x2="79" y1="241" y2="241"/>
  <line style="fill:none;stroke:rgb(255,127,0);stroke-opacity:0.24705882352941178;stroke-width:2;stroke-miterlimit:10;stroke-linecap:square;" x1="79" x2="79" y1="239" y2="215"/>
  <rect height="18" style="fill:rgb(255,127,0);fill-opacity:0.7490196078431373;stroke:none;" width="4" x="91" y="281"/>
  <line style="fill:none;stroke:rgb(255,127,0);stroke-opacity:0.24705882352941178;stroke-width:2;stroke-miterlimit:10;stroke-linecap:square;" x1="79" x2="93" y1="213" y2="213"/>
  <line style="fill:none;stroke:rgb(255,127,0);stroke-opacity:0.24705882352941178;stroke-width:2;stroke-miterlimit:10;stroke-linecap:square;" x1="93" x2="93" y1="211" y2="197"/>
  <rect height="18" style="fill:rgb(255,127,0);fill-opacity:0.7490196078431373;stroke:none;" width="4" x="106" y="281"/>
  <line style="fill:none;stroke:rgb(255,127,0);stroke-opacity:0.24705882352941178;stroke-width:2;stroke-miterlimit:10;stroke-linecap:square;" x1="93" x2="108" y1="195" y2="195"/>
  <line style="fill:none;stroke:rgb(255,127,0);stroke-opacity:0.24705882352941178;stroke-width:2;stroke-miterlimit:10;stroke-linecap:square;" x1="108" x2="108" y1="193" y2="178"/>
  <rect height="9" style="fill:rgb(255,127,0);fill-opacity:0.7490196078431373;stroke:none;" width="4" x="120" y="290"/>
  <line style="fill:none;stroke:rgb(255,127,0);stroke-opacity:0.24705882352941178;stroke-width:2;stroke-miterlimit:10;stroke-linecap:square;" x1="108" x2="122" y1="176" y2="176"/>
  <line style="fill:none;stroke:rgb(255,127,0);stroke-opacity:0.24705882352941178;stroke-width:2;stroke-miterlimit:10;stroke-linecap:square;" x1="122" x2="122" y1="174" y2="169"/>
  <rect height="3" style="fill:rgb(255,127,0);fill-opacity:0.7490196078431373;stroke:none;" width="4" x="150" y="296"/>
  <line style="fill:none;stroke:rgb(255,127,0);stroke-opacity:0.24705882352941178;stroke-width:2;stroke-miterlimit:10;stroke-linecap:square;" x1="122" x2="152" y1="167" y2="167"/>
  <line style="fill:none;stroke:rgb(255,127,0);stroke-opacity:0.24705882352941178;stroke-width:2;stroke-miterlimit:10;stroke-linecap:square;" x1="152" x2="152" y1="165" y2="166"/>
  <rect height="6" style="fill:rgb(255,127,0);fill-opacity:0.7490196078431373;stroke:none;" width="4" x="164" y="293"/>
  <line style="fill:none;stroke:rgb(255,127,0);stroke-opacity:0.24705882352941178;stroke-width:2;stroke-miterlimit:10;stroke-linecap:square;" x1="152" x2="166" y1="164" y2="164"/>
  <line style="fill:none;stroke:rgb(255,127,0);stroke-opacity:0.24705882352941178;stroke-width:2;stroke-miterlimit:10;stroke-linecap:square;" x1="166" x2="166" y1="162" y2="160"/>
  <rect height="3" style="fill:rgb(255,127,0);fill-opacity:0.7490196078431373;stroke:none;" width="4" x="193" y="296"/>
  <line style="fill:none;stroke:rgb(255,127,0);stroke-opacity:0.24705882352941178;stroke-width:2;stroke-miterlimit:10;stroke-linecap:square;" x1="166" x2="195" y1="158" y2="158"/>
  <line style="fill:none;stroke:rgb(255,127,0);stroke-opacity:0.24705882352941178;stroke-width:2;stroke-miterlimit:10;stroke-linecap:square;" x1="195" x2="195" y1="156" y2="157"/>
  <rect height="3" style="fill:rgb(255,127,0);fill-opacity:0.7490196078431373;stroke:none;" width="4" x="223" y="296"/>
  <line style="fill:none;stroke:rgb(255,127,0);stroke-opacity:0.24705882352941178;stroke-width:2;stroke-miterlimit:10;stroke-linecap:square;" x1="195" x2="225" y1="155" y2="155"/>
  <line style="fill:none;stroke:rgb(255,127,0);stroke-opacity:0.24705882352941178;stroke-width:2;stroke-miterlimit:10;stroke-linecap:square;" x1="225" x2="225" y1="153" y2="154"/>
  <rect height="6" style="fill:rgb(255,127,0);fill-opacity:0.7490196078431373;stroke:none;" width="4" x="237" y="293"/>
  <line style="fill:none;stroke:rgb(255,127,0);stroke-opacity:0.24705882352941178;stroke-width:2;stroke-miterlimit:10;stroke-linecap:square;" x1="225" x2="239" y1="152" y2="152"/>
  <line style="fill:none;stroke:rgb(255,127,0);stroke-opacity:0.24705882352941178;stroke-width:2;stroke-miterlimit:10;stroke-linecap:square;" x1="239" x2="239" y1="150" y2="148"/>
  <rect height="9" style="fill:rgb(255,127,0);fill-opacity:0.7490196078431373;stroke:none;" width="4" x="252" y="290"/>
  <line style="fill:none;stroke:rgb(255,127,0);stroke-opacity:0.24705882352941178;stroke-width:2;stroke-miterlimit:10;stroke-linecap:square;" x1="239" x2="254" y1="146" y2="146"/>
  <line style="fill:none;stroke:rgb(255,127,0);stroke-opacity:0.24705882352941178;stroke-width:2;stroke-miterlimit:10;stroke-linecap:square;" x1="254" x2="254" y1="144" y2="138"/>
  <rect height="3" style="fill:rgb(255,127,0);fill-opacity:0.7490196078431373;stroke:none;" width="4" x="266" y="296"/>
  <line style="fill:none;stroke:rgb(255,127,0);stroke-opacity:0.24705882352941178;stroke-width:2;stroke-miterlimit:10;stroke-linecap:square;" x1="254" x2="268" y1="136" y2="136"/>
  <line style="fill:none;stroke:rgb(255,127,0);stroke-opacity:0.24705882352941178;stroke-width:2;stroke-miterlimit:10;stroke-linecap:square;" x1="268" x2="268" y1="134" y2="135"/>
  <rect height="18" style="fill:rgb(255,127,0);fill-opacity:0.7490196078431373;stroke:none;" width="4" x="281" y="281"/>
  <line style="fill:none;stroke:rgb(255,127,0);stroke-opacity:0.24705882352941178;stroke-width:2;stroke-miterlimit:10;stroke-linecap:square;" x1="268" x2="283" y1="133" y2="133"/>
  <line style="fill:none;stroke:rgb(255,127,0);stroke-opacity:0.24705882352941178;stroke-width:2;stroke-miterlimit:10;stroke-linecap:square;" x1="283" x2="283" y1="131" y2="117"/>
  <rect height="6" style="fill:rgb(255,127,0);fill-opacity:0.7490196078431373;stroke:none;" width="4" x="295" y="293"/>
  <line style="fill:none;stroke:rgb(255,127,0);stroke-opacity:0.24705882352941178;stroke-width:2;stroke-miterlimit:10;stroke-linecap:square;" x1="283" x2="297" y1="115" y2="115"/>
  <line style="fill:none;stroke:rgb(255,127,0);stroke-opacity:0.24705882352941178;stroke-width:2;stroke-miterlimit:10;stroke-linecap:square;" x1="297" x2="297" y1="113" y2="111"/>
  <rect height="9" style="fill:rgb(255,127,0);fill-opacity:0.7490196078431373;stroke:none;" width="4" x="325" y="290"/>
  <line style="fill:none;stroke:rgb(255,127,0);stroke-opacity:0.24705882352941178;stroke-width:2;stroke-miterlimit:10;stroke-linecap:square;" x1="297" x2="327" y1="109" y2="109"/>
  <line style="fill:none;stroke:rgb(255,127,0);stroke-opacity:0.24705882352941178;stroke-width:2;stroke-miterlimit:10;stroke-linecap:square;" x1="327" x2="327" y1="107" y2="102"/>
  <rect height="3" style="fill:rgb(255,127,0);fill-opacity:0.7490196078431373;stroke:none;" width="4" x="354" y="296"/>
  <line style="fill:none;stroke:rgb(255,127,0);stroke-opacity:0.24705882352941178;stroke-width:2;stroke-miterlimit:10;stroke-linecap:square;" x1="327" x2="356" y1="100" y2="100"/>
  <line style="fill:none;stroke:rgb(255,127,0);stroke-opacity:0.24705882352941178;stroke-width:2;stroke-miterlimit:10;stroke-linecap:square;" x1="356" x2="356" y1="98" y2="98"/>
  <rect height="15" style="fill:rgb(255,127,0);fill-opacity:0.7490196078431373;stroke:none;" width="4" x="368" y="284"/>
  <line style="fill:none;stroke:rgb(255,127,0);stroke-opacity:0.24705882352941178;stroke-width:2;stroke-miterlimit:10;stroke-linecap:square;" x1="356" x2="370" y1="96" y2="96"/>
  <line style="fill:none;stroke:rgb(255,127,0);stroke-opacity:0.24705882352941178;stroke-width:2;stroke-miterlimit:10;stroke-linecap:square;" x1="370" x2="370" y1="94" y2="83"/>
  <rect height="12" style="fill:rgb(255,127,0);fill-opacity:0.7490196078431373;stroke:none;" width="4" x="383" y="287"/>
  <line style="fill:none;stroke:rgb(255,127,0);stroke-opacity:0.24705882352941178;stroke-width:2;stroke-miterlimit:10;stroke-linecap:square;" x1="370" x2="385" y1="81" y2="81"/>
  <line style="fill:none;stroke:rgb(255,127,0);stroke-opacity:0.24705882352941178;stroke-width:2;stroke-miterlimit:10;stroke-linecap:square;" x1="385" x2="385" y1="79" y2="71"/>
  <rect height="9" style="fill:rgb(255,127,0);fill-opacity:0.7490196078431373;stroke:none;" width="4" x="398" y="290"/>
  <line style="fill:none;stroke:rgb(255,127,0);stroke-opacity:0.24705882352941178;stroke-width:2;stroke-miterlimit:10;stroke-linecap:square;" x1="385" x2="400" y1="69" y2="69"/>
  <line style="fill:none;stroke:rgb(255,127,0);stroke-opacity:0.24705882352941178;stroke-width:2;stroke-miterlimit:10;stroke-linecap:square;" x1="400" x2="400" y1="67" y2="62"/>
  <line style="fill:none;stroke:rgb(255,127,0);stroke-opacity:0.24705882352941178;stroke-width:2;stroke-miterlimit:10;stroke-linecap:square;" x1="400" x2="400" y1="60" y2="60"/>
  <line style="fill:none;stroke:rgb(255,127,0);stroke-opacity:0.4980392156862745;stroke-miterlimit:2;stroke-dasharray:2;" x1="50" x2="50" y1="300" y2="350"/>
  <line style="fill:none;stroke:rgb(255,127,0);stroke-opacity:0.4980392156862745;stroke-miterlimit:2;stroke-dasharray:2;" x1="50" x2="50" y1="300" y2="365"/>
  <line style="fill:none;stroke:rgb(255,127,0);stroke-opacity:0.4980392156862745;stroke-miterlimit:2;stroke-dasharray:2;" x1="50" x2="50" y1="300" y2="380"/>
  <line style="fill:none;stroke:rgb(255,127,0);stroke-opacity:0.4980392156862745;stroke-miterlimit:2;stroke-dasharray:2;" x1="50" x2="50" y1="300" y2="395"/>
  <line style="fill:none;stroke:rgb(255,127,0);stroke-opacity:0.4980392156862745;stroke-miterlimit:2;stroke-dasharray:2;" x1="50" x2="50" y1="300" y2="410"/>
  <line style="fill:none;stroke:rgb(255,127,0);stroke-opacity:0.4980392156862745;stroke-miterlimit:2;stroke-dasharray:2;" x1="50" x2="50" y1="300" y2="425"/>
  <line style="fill:none;stroke:rgb(255,127,0);stroke-opacity:0.4980392156862745;stroke-miterlimit:2;stroke-dasharray:2;" x1="50" x2="50" y1="300" y2="440"/>
  <line style="fill:none;stroke:rgb(255,127,0);stroke-opacity:0.4980392156862745;stroke-miterlimit:2;stroke-dasharray:2;" x1="64" x2="64" y1="300" y2="455"/>
  <line style="fill:none;stroke:rgb(255,127,0);stroke-opacity:0.4980392156862745;stroke-miterlimit:2;stroke-dasharray:2;" x1="64" x2="64" y1="300" y2="470"/>
  <line style="fill:none;stroke:rgb(255,127,0);stroke-opacity:0.4980392156862745;stroke-miterlimit:2;stroke-dasharray:2;" x1="64" x2="64" y1="300" y2="485"/>
  <line style="fill:none;stroke:rgb(255,127,0);stroke-opacity:0.4980392156862745;stroke-miterlimit:2;stroke-dasharray:2;" x1="64" x2="64" y1="300" y2="500"/>
  <line style="fill:none;stroke:rgb(255,127,0);stroke-opacity:0.4980392156862745;stroke-miterlimit:2;stroke-dasharray:2;" x1="64" x2="64" y1="300" y2="515"/>
  <line style="fill:none;stroke:rgb(255,127,0);stroke-opacity:0.4980392156862745;stroke-miterlimit:2;stroke-dasharray:2;" x1="64" x2="64" y1="300" y2="530"/>
  <line style="fill:none;stroke:rgb(255,127,0);stroke-opacity:0.4980392156862745;stroke-miterlimit:2;stroke-dasharray:2;" x1="64" x2="64" y1="300" y2="545"/>
  <line style="fill:none;stroke:rgb(255,127,0);stroke-opacity:0.4980392156862745;stroke-miterlimit:2;stroke-dasharray:2;" x1="64" x2="64" y1="300" y2="560"/>
  <line style="fill:none;stroke:rgb(255,127,0);stroke-opacity:0.4980392156862745;stroke-miterlimit:2;stroke-dasharray:2;" x1="64" x2="64" y1="300" y2="575"/>
  <line style="fill:none;stroke:rgb(255,127,0);stroke-opacity:0.4980392156862745;stroke-miterlimit:2;stroke-dasharray:2;" x1="64" x2="64" y1="300" y2="590"/>
  <line style="fill:none;stroke:rgb(255,127,0);stroke-opacity:0.4980392156862745;stroke-miterlimit:2;stroke-dasharray:2;" x1="64" x2="64" y1="300" y2="605"/>
  <line style="fill:none;stroke:rgb(255,127,0);stroke-opacity:0.4980392156862745;stroke-miterlimit:2;stroke-dasharray:2;" x1="64" x2="64" y1="300" y2="620"/>
  <line style="fill:none;stroke:rgb(255,127,0);stroke-opacity:0.4980392156862745;stroke-miterlimit:2;stroke-dasharray:2;" x1="79" x2="79" y1="300" y2="635"/>
  <line style="fill:none;stroke:rgb(255,127,0);stroke-opacity:0.4980392156862745;stroke-miterlimit:2;stroke-dasharray:2;" x1="79" x2="79" y1="300" y2="650"/>
  <line style="fill:none;stroke:rgb(255,127,0);stroke-opacity:0.4980392156862745;stroke-miterlimit:2;stroke-dasharray:2;" x1="79" x2="79" y1="300" y2="665"/>
  <line style="fill:none;stroke:rgb(255,127,0);stroke-opacity:0.4980392156862745;stroke-miterlimit:2;stroke-dasharray:2;" x1="79" x2="79" y1="300" y2="680"/>
  <line style="fill:none;stroke:rgb(255,127,0);stroke-opacity:0.4980392156862745;stroke-miterlimit:2;stroke-dasharray:2;" x1="79" x2="79" y1="300" y2="695"/>
  <line style="fill:none;stroke:rgb(255,127,0);stroke-opacity:0.4980392156862745;stroke-miterlimit:2;stroke-dasharray:2;" x1="79" x2="79" y1="300" y2="710"/>
  <line style="fill:none;stroke:rgb(255,127,0);stroke-opacity:0.4980392156862745;stroke-miterlimit:2;stroke-dasharray:2;" x1="79" x2="79" y1="300" y2="725"/>
  <line style="fill:none;stroke:rgb(255,127,0);stroke-opacity:0.4980392156862745;stroke-miterlimit:2;stroke-dasharray:2;" x1="79" x2="79" y1="300" y2="740"/>
  <line style="fill:none;stroke:rgb(255,127,0);stroke-opacity:0.4980392156862745;stroke-miterlimit:2;stroke-dasharray:2;" x1="79" x2="79" y1="300" y2="755"/>
  <line style="fill:none;stroke:rgb(255,127,0);stroke-opacity:0.4980392156862745;stroke-miterlimit:2;stroke-dasharray:2;" x1="93" x2="93" y1="300" y2="770"/>
  <line style="fill:none;stroke:rgb(255,127,0);stroke-opacity:0.4980392156862745;stroke-miterlimit:2;stroke-dasharray:2;" x1="93" x2="93" y1="300" y2="785"/>
  <line style="fill:none;stroke:rgb(255,127,0);stroke-opacity:0.4980392156862745;stroke-miterlimit:2;stroke-dasharray:2;" x1="93" x2="93" y1="300" y2="800"/>
  <line style="fill:none;stroke:rgb(255,127,0);stroke-opacity:0.4980392156862745;stroke-miterlimit:2;stroke-dasharray:2;" x1="93" x2="93" y1="300" y2="815"/>
  <line style="fill:none;stroke:rgb(255,127,0);stroke-opacity:0.4980392156862745;stroke-miterlimit:2;stroke-dasharray:2;" x1="93" x2="93" y1="300" y2="830"/>
  <line style="fill:none;stroke:rgb(255,127,0);stroke-opacity:0.4980392156862745;stroke-miterlimit:2;stroke-dasharray:2;" x1="93" x2="93" y1="300" y2="845"/>
  <line style="fill:none;stroke:rgb(255,127,0);stroke-opacity:0.4980392156862745;stroke-miterlimit:2;stroke-dasharray:2;" x1="108" x2="108" y1="300" y2="860"/>
  <line style="fill:none;stroke:rgb(255,127,0);stroke-opacity:0.4980392156862745;stroke-miterlimit:2;stroke-dasharray:2;" x1="108" x2="108" y1="300" y2="875"/>
  <line style="fill:none;stroke:rgb(255,127,0);stroke-opacity:0.4980392156862745;stroke-miterlimit:2;stroke-dasharray:2;" x1="108" x2="108" y1="300" y2="890"/>
  <line style="fill:none;stroke:rgb(255,127,0);stroke-opacity:0.4980392156862745;stroke-miterlimit:2;stroke-dasharray:2;" x1="108" x2="108" y1="300" y2="905"/>
  <line style="fill:none;stroke:rgb(255,127,0);stroke-opacity:0.4980392156862745;stroke-miterlimit:2;stroke-dasharray:2;" x1="108" x2="108" y1="300" y2="920"/>
  <line style="fill:none;stroke:rgb(255,127,0);stroke-opacity:0.4980392156862745;stroke-miterlimit:2;stroke-dasharray:2;" x1="108" x2="108" y1="300" y2="935"/>
  <line style="fill:none;stroke:rgb(255,127,0);stroke-opacity:0.4980392156862745;stroke-miterlimit:2;stroke-dasharray:2;" x1="122" x2="122" y1="300" y2="948"/>
  <line style="fill:none;stroke:rgb(255,127,0);stroke-opacity:0.4980392156862745;stroke-miterlimit:2;stroke-dasharray:2;" x1="122" x2="122" y1="300" y2="961"/>
  <line style="fill:none;stroke:rgb(255,127,0);stroke-opacity:0.4980392156862745;stroke-miterlimit:2;stroke-dasharray:2;" x1="122" x2="122" y1="300" y2="974"/>
  <line style="fill:none;stroke:rgb(255,127,0);stroke-opacity:0.4980392156862745;stroke-miterlimit:2;stroke-dasharray:2;" x1="152" x2="152" y1="300" y2="987"/>
  <line style="fill:none;stroke:rgb(255,127,0);stroke-opacity:0.4980392156862745;stroke-miterlimit:2;stroke-dasharray:2;" x1="166" x2="166" y1="300" y2="1000"/>
  <line style="fill:none;stroke:rgb(255,127,0);stroke-opacity:0.4980392156862745;stroke-miterlimit:2;stroke-dasharray:2;" x1="166" x2="166" y1="300" y2="1013"/>
  <line style="fill:none;stroke:rgb(255,127,0);stroke-opacity:0.4980392156862745;stroke-miterlimit:2;stroke-dasharray:2;" x1="195" x2="195" y1="300" y2="1026"/>
  <line style="fill:none;stroke:rgb(255,127,0);stroke-opacity:0.4980392156862745;stroke-miterlimit:2;stroke-dasharray:2;" x1="225" x2="225" y1="300" y2="1039"/>
  <line style="fill:none;stroke:rgb(255,127,0);stroke-opacity:0.4980392156862745;stroke-miterlimit:2;stroke-dasharray:2;" x1="239" x2="239" y1="300" y2="1052"/>
  <line style="fill:none;stroke:rgb(255,127,0);stroke-opacity:0.4980392156862745;stroke-miterlimit:2;stroke-dasharray:2;" x1="239" x2="239" y1="300" y2="1065"/>
  <line style="fill:none;stroke:rgb(255,127,0);stroke-opacity:0.4980392156862745;stroke-miterlimit:2;stroke-dasharray:2;" x1="254" x2="254" y1="300" y2="1078"/>
  <line style="fill:none;stroke:rgb(255,127,0);stroke-opacity:0.4980392156862745;stroke-miterlimit:2;stroke-dasharray:2;" x1="254" x2="254" y1="300" y2="1091"/>
  <line style="fill:none;stroke:rgb(255,127,0);stroke-opacity:0.4980392156862745;stroke-miterlimit:2;stroke-dasharray:2;" x1="254" x2="254" y1="300" y2="1104"/>
  <line style="fill:none;stroke:rgb(255,127,0);stroke-opacity:0.4980392156862745;stroke-miterlimit:2;stroke-dasharray:2;" x1="268" x2="268" y1="300" y2="1117"/>
  <line style="fill:none;stroke:rgb(255,127,0);stroke-opacity:0.4980392156862745;stroke-miterlimit:2;stroke-dasharray:2;" x1="283" x2="283" y1="300" y2="1130"/>
  <line style="fill:none;stroke:rgb(255,127,0);stroke-opacity:0.4980392156862745;stroke-miterlimit:2;stroke-dasharray:2;" x1="283" x2="283" y1="300" y2="1143"/>
  <line style="fill:none;stroke:rgb(255,127,0);stroke-opacity:0.4980392156862745;stroke-miterlimit:2;stroke-dasharray:2;" x1="283" x2="283" y1="300" y2="1156"/>
  <line style="fill:none;stroke:rgb(255,127,0);stroke-opacity:0.4980392156862745;stroke-miterlimit:2;stroke-dasharray:2;" x1="283" x2="283" y1="300" y2="1169"/>
  <line style="fill:none;stroke:rgb(255,127,0);stroke-opacity:0.4980392156862745;stroke-miterlimit:2;stroke-dasharray:2;" x1="283" x2="283" y1="300" y2="1182"/>
  <line style="fill:none;stroke:rgb(255,127,0);stroke-opacity:0.4980392156862745;stroke-miterlimit:2;stroke-dasharray:2;" x1="283" x2="283" y1="300" y2="1195"/>
  <line style="fill:none;stroke:rgb(255,127,0);stroke-opacity:0.4980392156862745;stroke-miterlimit:2;stroke-dasharray:2;" x1="297" x2="297" y1="300" y2="1208"/>
  <line style="fill:none;stroke:rgb(255,127,0);stroke-opacity:0.4980392156862745;stroke-miterlimit:2;stroke-dasharray:2;" x1="297" x2="297" y1="300" y2="1221"/>
  <line style="fill:none;stroke:rgb(255,127,0);stroke-opacity:0.4980392156862745;stroke-miterlimit:2;stroke-dasharray:2;" x1="327" x2="327" y1="300" y2="1234"/>
  <line style="fill:none;stroke:rgb(255,127,0);stroke-opacity:0.4980392156862745;stroke-miterlimit:2;stroke-dasharray:2;" x1="327" x2="327" y1="300" y2="1247"/>
  <line style="fill:none;stroke:rgb(255,127,0);stroke-opacity:0.4980392156862745;stroke-miterlimit:2;stroke-dasharray:2;" x1="327" x2="327" y1="300" y2="1260"/>
  <line style="fill:none;stroke:rgb(255,127,0);stroke-opacity:0.4980392156862745;stroke-miterlimit:2;stroke-dasharray:2;" x1="356" x2="356" y1="300" y2="1273"/>
  <line style="fill:none;stroke:rgb(255,127,0);stroke-opacity:0.4980392156862745;stroke-miterlimit:2;stroke-dasharray:2;" x1="370" x2="370" y1="300" y2="1288"/>
  <line style="fill:none;stroke:rgb(255,127,0);stroke-opacity:0.4980392156862745;stroke-miterlimit:2;stroke-dasharray:2;" x1="370" x2="370" y1="300" y2="1303"/>
  <line style="fill:none;stroke:rgb(255,127,0);stroke-opacity:0.4980392156862745;stroke-miterlimit:2;stroke-dasharray:2;" x1="370" x2="370" y1="300" y2="1318"/>
  <line style="fill:none;stroke:rgb(255,127,0);stroke-opacity:0.4980392156862745;stroke-miterlimit:2;stroke-dasharray:2;" x1="370" x2="370" y1="300" y2="1333"/>
  <line style="fill:none;stroke:rgb(255,127,0);stroke-opacity:0.4980392156862745;stroke-miterlimit:2;stroke-dasharray:2;" x1="370" x2="370" y1="300" y2="1348"/>
  <line style="fill:none;stroke:rgb(255,127,0);stroke-opacity:0.4980392156862745;stroke-miterlimit:2;stroke-dasharray:2;" x1="385" x2="385" y1="300" y2="1363"/>
  <line style="fill:none;stroke:rgb(255,127,0);stroke-opacity:0.4980392156862745;stroke-miterlimit:2;stroke-dasharray:2;" x1="385" x2="385" y1="300" y2="1378"/>
  <line style="fill:none;stroke:rgb(255,127,0);stroke-opacity:0.4980392156862745;stroke-miterlimit:2;stroke-dasharray:2;" x1="385" x2="385" y1="300" y2="1393"/>
  <line style="fill:none;stroke:rgb(255,127,0);stroke-opacity:0.4980392156862745;stroke-miterlimit:2;stroke-dasharray:2;" x1="385" x2="385" y1="300" y2="1408"/>
  <line style="fill:none;stroke:rgb(255,127,0);stroke-opacity:0.4980392156862745;stroke-miterlimit:2;stroke-dasharray:2;" x1="400" x2="400" y1="300" y2="1423"/>
  <line style="fill:none;stroke:rgb(255,127,0);stroke-opacity:0.4980392156862745;stroke-miterlimit:2;stroke-dasharray:2;" x1="400" x2="400" y1="300" y2="1438"/>
  <line style="fill:none;stroke:rgb(255,127,0);stroke-opacity:0.4980392156862745;stroke-miterlimit:2;stroke-dasharray:2;" x1="400" x2="400" y1="300" y2="1453"/>
  <line style="fill:none;stroke:rgb(0,0,0);stroke-width:2;stroke-miterlimit:10;stroke-linecap:square;" x1="48" x2="48" y1="60" y2="300"/>
  <line style="fill:none;stroke:rgb(0,0,0);stroke-width:2;stroke-miterlimit:10;stroke-linecap:square;" x1="48" x2="402" y1="300" y2="300"/>
  <rect height="30" style="fill:rgb(255,255,255);stroke:none;" width="17" x="42" y="308"/>
  <text style="fill:rgb(0,0,0);stroke:none;font-size:25px;font-weight:bold;" x="42" y="332">0</text>
  <rect height="30" style="fill:rgb(255,255,255);stroke:none;" width="34" x="383" y="308"/>
  <text style="fill:rgb(0,0,0);stroke:none;font-size:25px;font-weight:bold;" x="383" y="332">24</text>
  <text style="fill:rgb(0,0,0);stroke:none;font-size:25px;font-weight:bold;" x="25" y="312">0</text>
  <text style="fill:rgb(0,0,0);stroke:none;font-size:25px;font-weight:bold;" x="25" y="72">1</text>
  <text style="fill:rgb(0,0,0);stroke:none;font-size:20px;font-weight:bold;" x="1" y="39">KRIGE_RESPONSE_TO_TOSEDOSTAT_6HR_DN</text>
  <rect height="12" style="fill:rgb(255,255,255);stroke:none;" width="32" x="50" y="338"/>
  <text style="fill:rgb(128,128,128);stroke:none;" x="50" y="350">SACS</text>
  <rect height="12" style="fill:rgb(255,255,255);stroke:none;" width="40" x="50" y="353"/>
  <text style="fill:rgb(128,128,128);stroke:none;" x="50" y="365">RFESD</text>
  <rect height="12" style="fill:rgb(255,255,255);stroke:none;" width="51" x="50" y="368"/>
  <text style="fill:rgb(128,128,128);stroke:none;" x="50" y="380">SNHG12</text>
  <rect height="12" style="fill:rgb(255,255,255);stroke:none;" width="47" x="50" y="383"/>
  <text style="fill:rgb(128,128,128);stroke:none;" x="50" y="395">GEMIN6</text>
  <rect height="12" style="fill:rgb(255,255,255);stroke:none;" width="46" x="50" y="398"/>
  <text style="fill:rgb(128,128,128);stroke:none;" x="50" y="410">TEX261</text>
  <rect height="12" style="fill:rgb(255,255,255);stroke:none;" width="55" x="50" y="413"/>
  <text style="fill:rgb(128,128,128);stroke:none;" x="50" y="425">PLA2G4A</text>
  <rect height="12" style="fill:rgb(255,255,255);stroke:none;" width="56" x="50" y="428"/>
  <text style="fill:rgb(128,128,128);stroke:none;" x="50" y="440">TRMT10A</text>
  <rect height="12" style="fill:rgb(255,255,255);stroke:none;" width="24" x="64" y="443"/>
  <text style="fill:rgb(128,128,128);stroke:none;" x="64" y="455">SPR</text>
  <rect height="12" style="fill:rgb(255,255,255);stroke:none;" width="26" x="64" y="458"/>
  <text style="fill:rgb(128,128,128);stroke:none;" x="64" y="470">JPT1</text>
  <rect height="12" style="fill:rgb(255,255,255);stroke:none;" width="44" x="64" y="473"/>
  <text style="fill:rgb(128,128,128);stroke:none;" x="64" y="485">WDR77</text>
  <rect height="12" style="fill:rgb(255,255,255);stroke:none;" width="42" x="64" y="488"/>
  <text style="fill:rgb(128,128,128);stroke:none;" x="64" y="500">HSPD1</text>
  <rect height="12" style="fill:rgb(255,255,255);stroke:none;" width="42" x="64" y="503"/>
  <text style="fill:rgb(128,128,128);stroke:none;" x="64" y="515">HSPH1</text>
  <rect height="12" style="fill:rgb(255,255,255);stroke:none;" width="41" x="64" y="518"/>
  <text style="fill:rgb(128,128,128);stroke:none;" x="64" y="530">KNOP1</text>
  <rect height="12" style="fill:rgb(255,255,255);stroke:none;" width="45" x="64" y="533"/>
  <text style="fill:rgb(128,128,128);stroke:none;" x="64" y="545">DHODH</text>
  <rect height="12" style="fill:rgb(255,255,255);stroke:none;" width="32" x="64" y="548"/>
  <text style="fill:rgb(128,128,128);stroke:none;" x="64" y="560">KITLG</text>
  <rect height="12" style="fill:rgb(255,255,255);stroke:none;" width="44" x="64" y="563"/>
  <text style="fill:rgb(128,128,128);stroke:none;" x="64" y="575">MON1A</text>
  <rect height="12" style="fill:rgb(255,255,255);stroke:none;" width="46" x="64" y="578"/>
  <text style="fill:rgb(128,128,128);stroke:none;" x="64" y="590">SLC5A6</text>
  <rect height="12" style="fill:rgb(255,255,255);stroke:none;" width="58" x="64" y="593"/>
  <text style="fill:rgb(128,128,128);stroke:none;" x="64" y="605">ARHGAP9</text>
  <rect height="12" style="fill:rgb(255,255,255);stroke:none;" width="64" x="64" y="608"/>
  <text style="fill:rgb(128,128,128);stroke:none;" x="64" y="620">TNFAIP8L2</text>
  <rect height="12" style="fill:rgb(255,255,255);stroke:none;" width="26" x="79" y="623"/>
  <text style="fill:rgb(128,128,128);stroke:none;" x="79" y="635">JPT2</text>
  <rect height="12" style="fill:rgb(255,255,255);stroke:none;" width="43" x="79" y="638"/>
  <text style="fill:rgb(128,128,128);stroke:none;" x="79" y="650">DRAM1</text>
  <rect height="12" style="fill:rgb(255,255,255);stroke:none;" width="40" x="79" y="653"/>
  <text style="fill:rgb(128,128,128);stroke:none;" x="79" y="665">AP4B1</text>
  <rect height="12" style="fill:rgb(255,255,255);stroke:none;" width="49" x="79" y="668"/>
  <text style="fill:rgb(128,128,128);stroke:none;" x="79" y="680">ZNF692</text>
  <rect height="12" style="fill:rgb(255,255,255);stroke:none;" width="47" x="79" y="683"/>
  <text style="fill:rgb(128,128,128);stroke:none;" x="79" y="695">CRELD1</text>
  <rect height="12" style="fill:rgb(255,255,255);stroke:none;" width="47" x="79" y="698"/>
  <text style="fill:rgb(128,128,128);stroke:none;" x="79" y="710">SLAMF8</text>
  <rect height="12" style="fill:rgb(255,255,255);stroke:none;" width="58" x="79" y="713"/>
  <text style="fill:rgb(128,128,128);stroke:none;" x="79" y="725">ZSCAN31</text>
  <rect height="12" style="fill:rgb(255,255,255);stroke:none;" width="59" x="79" y="728"/>
  <text style="fill:rgb(128,128,128);stroke:none;" x="79" y="740">TMEM116</text>
  <rect height="12" style="fill:rgb(255,255,255);stroke:none;" width="71" x="79" y="743"/>
  <text style="fill:rgb(128,128,128);stroke:none;" x="79" y="755">EEF1AKMT1</text>
  <rect height="12" style="fill:rgb(255,255,255);stroke:none;" width="24" x="93" y="758"/>
  <text style="fill:rgb(128,128,128);stroke:none;" x="93" y="770">CA2</text>
  <rect height="12" style="fill:rgb(255,255,255);stroke:none;" width="26" x="93" y="773"/>
  <text style="fill:rgb(128,128,128);stroke:none;" x="93" y="785">IRX3</text>
  <rect height="12" style="fill:rgb(255,255,255);stroke:none;" width="29" x="93" y="788"/>
  <text style="fill:rgb(128,128,128);stroke:none;" x="93" y="800">SCLY</text>
  <rect height="12" style="fill:rgb(255,255,255);stroke:none;" width="40" x="93" y="803"/>
  <text style="fill:rgb(128,128,128);stroke:none;" x="93" y="815">TRNP1</text>
  <rect height="12" style="fill:rgb(255,255,255);stroke:none;" width="37" x="93" y="818"/>
  <text style="fill:rgb(128,128,128);stroke:none;" x="93" y="830">DZIP3</text>
  <rect height="12" style="fill:rgb(255,255,255);stroke:none;" width="62" x="93" y="833"/>
  <text style="fill:rgb(128,128,128);stroke:none;" x="93" y="845">SLC39A10</text>
  <rect height="12" style="fill:rgb(255,255,255);stroke:none;" width="39" x="108" y="848"/>
  <text style="fill:rgb(128,128,128);stroke:none;" x="108" y="860">STRBP</text>
  <rect height="12" style="fill:rgb(255,255,255);stroke:none;" width="41" x="108" y="863"/>
  <text style="fill:rgb(128,128,128);stroke:none;" x="108" y="875">ADRB2</text>
  <rect height="12" style="fill:rgb(255,255,255);stroke:none;" width="48" x="108" y="878"/>
  <text style="fill:rgb(128,128,128);stroke:none;" x="108" y="890">TBC1D1</text>
  <rect height="12" style="fill:rgb(255,255,255);stroke:none;" width="46" x="108" y="893"/>
  <text style="fill:rgb(128,128,128);stroke:none;" x="108" y="905">SDF2L1</text>
  <rect height="12" style="fill:rgb(255,255,255);stroke:none;" width="55" x="108" y="908"/>
  <text style="fill:rgb(128,128,128);stroke:none;" x="108" y="920">GALNT14</text>
  <rect height="12" style="fill:rgb(255,255,255);stroke:none;" width="57" x="108" y="923"/>
  <text style="fill:rgb(128,128,128);stroke:none;" x="108" y="935">FAM111A</text>
  <rect height="10" style="fill:rgb(255,255,255);stroke:none;" width="29" x="122" y="938"/>
  <text style="fill:rgb(128,128,128);stroke:none;font-size:10px;" x="122" y="948">NREP</text>
  <rect height="10" style="fill:rgb(255,255,255);stroke:none;" width="37" x="122" y="951"/>
  <text style="fill:rgb(128,128,128);stroke:none;font-size:10px;" x="122" y="961">MTURN</text>
  <rect height="10" style="fill:rgb(255,255,255);stroke:none;" width="54" x="122" y="964"/>
  <text style="fill:rgb(128,128,128);stroke:none;font-size:10px;" x="122" y="974">HSP90AA1</text>
  <rect height="10" style="fill:rgb(255,255,255);stroke:none;" width="37" x="152" y="977"/>
  <text style="fill:rgb(128,128,128);stroke:none;font-size:10px;" x="152" y="987">ZBTB16</text>
  <rect height="10" style="fill:rgb(255,255,255);stroke:none;" width="28" x="166" y="990"/>
  <text style="fill:rgb(128,128,128);stroke:none;font-size:10px;" x="166" y="1000">CTSG</text>
  <rect height="10" style="fill:rgb(255,255,255);stroke:none;" width="29" x="166" y="1003"/>
  <text style="fill:rgb(128,128,128);stroke:none;font-size:10px;" x="166" y="1013">NEFH</text>
  <rect height="10" style="fill:rgb(255,255,255);stroke:none;" width="37" x="195" y="1016"/>
  <text style="fill:rgb(128,128,128);stroke:none;font-size:10px;" x="195" y="1026">IGFBP7</text>
  <rect height="10" style="fill:rgb(255,255,255);stroke:none;" width="39" x="225" y="1029"/>
  <text style="fill:rgb(128,128,128);stroke:none;font-size:10px;" x="225" y="1039">RNF126</text>
  <rect height="10" style="fill:rgb(255,255,255);stroke:none;" width="26" x="239" y="1042"/>
  <text style="fill:rgb(128,128,128);stroke:none;font-size:10px;" x="239" y="1052">IPMK</text>
  <rect height="10" style="fill:rgb(255,255,255);stroke:none;" width="52" x="239" y="1055"/>
  <text style="fill:rgb(128,128,128);stroke:none;font-size:10px;" x="239" y="1065">HNRNPDL</text>
  <rect height="10" style="fill:rgb(255,255,255);stroke:none;" width="21" x="254" y="1068"/>
  <text style="fill:rgb(128,128,128);stroke:none;font-size:10px;" x="254" y="1078">FJX1</text>
  <rect height="10" style="fill:rgb(255,255,255);stroke:none;" width="40" x="254" y="1081"/>
  <text style="fill:rgb(128,128,128);stroke:none;font-size:10px;" x="254" y="1091">SLC2A1</text>
  <rect height="10" style="fill:rgb(255,255,255);stroke:none;" width="42" x="254" y="1094"/>
  <text style="fill:rgb(128,128,128);stroke:none;font-size:10px;" x="254" y="1104">SNRPA1</text>
  <rect height="10" style="fill:rgb(255,255,255);stroke:none;" width="42" x="268" y="1107"/>
  <text style="fill:rgb(128,128,128);stroke:none;font-size:10px;" x="268" y="1117">MGAT4A</text>
  <rect height="10" style="fill:rgb(255,255,255);stroke:none;" width="23" x="283" y="1120"/>
  <text style="fill:rgb(128,128,128);stroke:none;font-size:10px;" x="283" y="1130">MYB</text>
  <rect height="10" style="fill:rgb(255,255,255);stroke:none;" width="35" x="283" y="1133"/>
  <text style="fill:rgb(128,128,128);stroke:none;font-size:10px;" x="283" y="1143">NUDT4</text>
  <rect height="10" style="fill:rgb(255,255,255);stroke:none;" width="33" x="283" y="1146"/>
  <text style="fill:rgb(128,128,128);stroke:none;font-size:10px;" x="283" y="1156">P2RY2</text>
  <rect height="10" style="fill:rgb(255,255,255);stroke:none;" width="37" x="283" y="1159"/>
  <text style="fill:rgb(128,128,128);stroke:none;font-size:10px;" x="283" y="1169">BNIP3L</text>
  <rect height="10" style="fill:rgb(255,255,255);stroke:none;" width="42" x="283" y="1172"/>
  <text style="fill:rgb(128,128,128);stroke:none;font-size:10px;" x="283" y="1182">EXOSC7</text>
  <rect height="10" style="fill:rgb(255,255,255);stroke:none;" width="50" x="283" y="1185"/>
  <text style="fill:rgb(128,128,128);stroke:none;font-size:10px;" x="283" y="1195">ZDHHC11</text>
  <rect height="10" style="fill:rgb(255,255,255);stroke:none;" width="29" x="297" y="1198"/>
  <text style="fill:rgb(128,128,128);stroke:none;font-size:10px;" x="297" y="1208">LDHA</text>
  <rect height="10" style="fill:rgb(255,255,255);stroke:none;" width="57" x="297" y="1211"/>
  <text style="fill:rgb(128,128,128);stroke:none;font-size:10px;" x="297" y="1221">PPARGC1B</text>
  <rect height="10" style="fill:rgb(255,255,255);stroke:none;" width="26" x="327" y="1224"/>
  <text style="fill:rgb(128,128,128);stroke:none;font-size:10px;" x="327" y="1234">TFRC</text>
  <rect height="10" style="fill:rgb(255,255,255);stroke:none;" width="33" x="327" y="1237"/>
  <text style="fill:rgb(128,128,128);stroke:none;font-size:10px;" x="327" y="1247">MTFP1</text>
  <rect height="10" style="fill:rgb(255,255,255);stroke:none;" width="42" x="327" y="1250"/>
  <text style="fill:rgb(128,128,128);stroke:none;font-size:10px;" x="327" y="1260">TNFAIP2</text>
  <rect height="10" style="fill:rgb(255,255,255);stroke:none;" width="42" x="356" y="1263"/>
  <text style="fill:rgb(128,128,128);stroke:none;font-size:10px;" x="356" y="1273">PHLDA2</text>
  <rect height="12" style="fill:rgb(255,255,255);stroke:none;" width="41" x="370" y="1276"/>
  <text style="fill:rgb(128,128,128);stroke:none;" x="370" y="1288">SESN3</text>
  <rect height="12" style="fill:rgb(255,255,255);stroke:none;" width="36" x="370" y="1291"/>
  <text style="fill:rgb(128,128,128);stroke:none;" x="370" y="1303">TIGD7</text>
  <rect height="12" style="fill:rgb(255,255,255);stroke:none;" width="43" x="370" y="1306"/>
  <text style="fill:rgb(128,128,128);stroke:none;" x="370" y="1318">MOB3C</text>
  <rect height="12" style="fill:rgb(255,255,255);stroke:none;" width="42" x="370" y="1321"/>
  <text style="fill:rgb(128,128,128);stroke:none;" x="370" y="1333">ZBED8</text>
  <rect height="12" style="fill:rgb(255,255,255);stroke:none;" width="66" x="370" y="1336"/>
  <text style="fill:rgb(128,128,128);stroke:none;" x="370" y="1348">ARHGAP25</text>
  <rect height="12" style="fill:rgb(255,255,255);stroke:none;" width="21" x="385" y="1351"/>
  <text style="fill:rgb(128,128,128);stroke:none;" x="385" y="1363">MPI</text>
  <rect height="12" style="fill:rgb(255,255,255);stroke:none;" width="31" x="385" y="1366"/>
  <text style="fill:rgb(128,128,128);stroke:none;" x="385" y="1378">CKS2</text>
  <rect height="12" style="fill:rgb(255,255,255);stroke:none;" width="49" x="385" y="1381"/>
  <text style="fill:rgb(128,128,128);stroke:none;" x="385" y="1393">ZNF641</text>
  <rect height="12" style="fill:rgb(255,255,255);stroke:none;" width="59" x="385" y="1396"/>
  <text style="fill:rgb(128,128,128);stroke:none;" x="385" y="1408">CHORDC1</text>
  <rect height="12" style="fill:rgb(255,255,255);stroke:none;" width="32" x="400" y="1411"/>
  <text style="fill:rgb(128,128,128);stroke:none;" x="400" y="1423">ECE2</text>
  <rect height="12" style="fill:rgb(255,255,255);stroke:none;" width="45" x="400" y="1426"/>
  <text style="fill:rgb(128,128,128);stroke:none;" x="400" y="1438">DNAJA1</text>
  <rect height="12" style="fill:rgb(255,255,255);stroke:none;" width="62" x="400" y="1441"/>
  <text style="fill:rgb(128,128,128);stroke:none;" x="400" y="1453">METTL21A</text>
</svg>
