<?xml version="1.0" encoding="UTF-8" standalone="no"?>
<!DOCTYPE svg PUBLIC "-//W3C//DTD SVG 1.1//EN" "http://www.w3.org/Graphics/SVG/1.1/DTD/svg11.dtd">
<svg xmlns:xlink="http://www.w3.org/1999/xlink" height="158.74999999999997mm" version="1.1" viewBox="0 0 500 600" width="132.29166666666666mm" x="0mm" y="0mm" xmlns="http://www.w3.org/2000/svg">
  <rect height="1200" style="fill:rgb(255,255,255);stroke:none;" width="1000" x="0" y="0"/>
  <rect height="240" style="fill:rgb(191,191,191);fill-opacity:0.4980392156862745;stroke:none;" width="175" x="225" y="60"/>
  <line style="fill:none;stroke:rgb(63,63,191);stroke-opacity:0.24705882352941178;stroke-miterlimit:10;stroke-linecap:square;" x1="50" x2="50" y1="300" y2="300"/>
  <line style="fill:none;stroke:rgb(63,63,191);stroke-opacity:0.24705882352941178;stroke-miterlimit:10;stroke-linecap:square;" x1="50" x2="64" y1="300" y2="290"/>
  <line style="fill:none;stroke:rgb(63,63,191);stroke-opacity:0.24705882352941178;stroke-miterlimit:10;stroke-linecap:square;" x1="64" x2="79" y1="290" y2="280"/>
  <line style="fill:none;stroke:rgb(63,63,191);stroke-opacity:0.24705882352941178;stroke-miterlimit:10;stroke-linecap:square;" x1="79" x2="93" y1="280" y2="270"/>
  <line style="fill:none;stroke:rgb(63,63,191);stroke-opacity:0.24705882352941178;stroke-miterlimit:10;stroke-linecap:square;" x1="93" x2="108" y1="270" y2="260"/>
  <line style="fill:none;stroke:rgb(63,63,191);stroke-opacity:0.24705882352941178;stroke-miterlimit:10;stroke-linecap:square;" x1="108" x2="122" y1="260" y2="250"/>
  <line style="fill:none;stroke:rgb(63,63,191);stroke-opacity:0.24705882352941178;stroke-miterlimit:10;stroke-linecap:square;" x1="122" x2="137" y1="250" y2="240"/>
  <line style="fill:none;stroke:rgb(63,63,191);stroke-opacity:0.24705882352941178;stroke-miterlimit:10;stroke-linecap:square;" x1="137" x2="152" y1="240" y2="230"/>
  <line style="fill:none;stroke:rgb(63,63,191);stroke-opacity:0.24705882352941178;stroke-miterlimit:10;stroke-linecap:square;" x1="152" x2="166" y1="230" y2="220"/>
  <line style="fill:none;stroke:rgb(63,63,191);stroke-opacity:0.24705882352941178;stroke-miterlimit:10;stroke-linecap:square;" x1="166" x2="181" y1="220" y2="210"/>
  <line style="fill:none;stroke:rgb(63,63,191);stroke-opacity:0.24705882352941178;stroke-miterlimit:10;stroke-linecap:square;" x1="181" x2="195" y1="210" y2="200"/>
  <line style="fill:none;stroke:rgb(63,63,191);stroke-opacity:0.24705882352941178;stroke-miterlimit:10;stroke-linecap:square;" x1="195" x2="210" y1="200" y2="190"/>
  <line style="fill:none;stroke:rgb(63,63,191);stroke-opacity:0.24705882352941178;stroke-miterlimit:10;stroke-linecap:square;" x1="210" x2="225" y1="190" y2="180"/>
  <line style="fill:none;stroke:rgb(63,63,191);stroke-opacity:0.24705882352941178;stroke-miterlimit:10;stroke-linecap:square;" x1="225" x2="239" y1="180" y2="170"/>
  <line style="fill:none;stroke:rgb(63,63,191);stroke-opacity:0.24705882352941178;stroke-miterlimit:10;stroke-linecap:square;" x1="239" x2="254" y1="170" y2="160"/>
  <line style="fill:none;stroke:rgb(63,63,191);stroke-opacity:0.24705882352941178;stroke-miterlimit:10;stroke-linecap:square;" x1="254" x2="268" y1="160" y2="150"/>
  <line style="fill:none;stroke:rgb(63,63,191);stroke-opacity:0.24705882352941178;stroke-miterlimit:10;stroke-linecap:square;" x1="268" x2="283" y1="150" y2="140"/>
  <line style="fill:none;stroke:rgb(63,63,191);stroke-opacity:0.24705882352941178;stroke-miterlimit:10;stroke-linecap:square;" x1="283" x2="297" y1="140" y2="130"/>
  <line style="fill:none;stroke:rgb(63,63,191);stroke-opacity:0.24705882352941178;stroke-miterlimit:10;stroke-linecap:square;" x1="297" x2="312" y1="130" y2="120"/>
  <line style="fill:none;stroke:rgb(63,63,191);stroke-opacity:0.24705882352941178;stroke-miterlimit:10;stroke-linecap:square;" x1="312" x2="327" y1="120" y2="110"/>
  <line style="fill:none;stroke:rgb(63,63,191);stroke-opacity:0.24705882352941178;stroke-miterlimit:10;stroke-linecap:square;" x1="327" x2="341" y1="110" y2="100"/>
  <line style="fill:none;stroke:rgb(63,63,191);stroke-opacity:0.24705882352941178;stroke-miterlimit:10;stroke-linecap:square;" x1="341" x2="356" y1="100" y2="90"/>
  <line style="fill:none;stroke:rgb(63,63,191);stroke-opacity:0.24705882352941178;stroke-miterlimit:10;stroke-linecap:square;" x1="356" x2="370" y1="90" y2="80"/>
  <line style="fill:none;stroke:rgb(63,63,191);stroke-opacity:0.24705882352941178;stroke-miterlimit:10;stroke-linecap:square;" x1="370" x2="385" y1="80" y2="70"/>
  <line style="fill:none;stroke:rgb(63,63,191);stroke-opacity:0.24705882352941178;stroke-miterlimit:10;stroke-linecap:square;" x1="385" x2="400" y1="70" y2="60"/>
  <line style="fill:none;stroke:rgb(63,63,191);stroke-opacity:0.24705882352941178;stroke-miterlimit:10;stroke-linecap:square;" x1="400" x2="400" y1="60" y2="60"/>
  <rect height="9" style="fill:rgb(255,127,0);fill-opacity:0.7490196078431373;stroke:none;" width="4" x="48" y="290"/>
  <line style="fill:none;stroke:rgb(255,127,0);stroke-opacity:0.24705882352941178;stroke-width:2;stroke-miterlimit:10;stroke-linecap:square;" x1="50" x2="50" y1="300" y2="300"/>
  <line style="fill:none;stroke:rgb(255,127,0);stroke-opacity:0.24705882352941178;stroke-width:2;stroke-miterlimit:10;stroke-linecap:square;" x1="50" x2="50" y1="298" y2="292"/>
  <rect height="12" style="fill:rgb(255,127,0);fill-opacity:0.7490196078431373;stroke:none;" width="4" x="62" y="287"/>
  <line style="fill:none;stroke:rgb(255,127,0);stroke-opacity:0.24705882352941178;stroke-width:2;stroke-miterlimit:10;stroke-linecap:square;" x1="50" x2="64" y1="290" y2="290"/>
  <line style="fill:none;stroke:rgb(255,127,0);stroke-opacity:0.24705882352941178;stroke-width:2;stroke-miterlimit:10;stroke-linecap:square;" x1="64" x2="64" y1="288" y2="279"/>
  <rect height="9" style="fill:rgb(255,127,0);fill-opacity:0.7490196078431373;stroke:none;" width="4" x="77" y="290"/>
  <line style="fill:none;stroke:rgb(255,127,0);stroke-opacity:0.24705882352941178;stroke-width:2;stroke-miterlimit:10;stroke-linecap:square;" x1="64" x2="79" y1="277" y2="277"/>
  <line style="fill:none;stroke:rgb(255,127,0);stroke-opacity:0.24705882352941178;stroke-width:2;stroke-miterlimit:10;stroke-linecap:square;" x1="79" x2="79" y1="275" y2="270"/>
  <rect height="6" style="fill:rgb(255,127,0);fill-opacity:0.7490196078431373;stroke:none;" width="4" x="91" y="293"/>
  <line style="fill:none;stroke:rgb(255,127,0);stroke-opacity:0.24705882352941178;stroke-width:2;stroke-miterlimit:10;stroke-linecap:square;" x1="79" x2="93" y1="268" y2="268"/>
  <line style="fill:none;stroke:rgb(255,127,0);stroke-opacity:0.24705882352941178;stroke-width:2;stroke-miterlimit:10;stroke-linecap:square;" x1="93" x2="93" y1="266" y2="264"/>
  <rect height="6" style="fill:rgb(255,127,0);fill-opacity:0.7490196078431373;stroke:none;" width="4" x="106" y="293"/>
  <line style="fill:none;stroke:rgb(255,127,0);stroke-opacity:0.24705882352941178;stroke-width:2;stroke-miterlimit:10;stroke-linecap:square;" x1="93" x2="108" y1="262" y2="262"/>
  <line style="fill:none;stroke:rgb(255,127,0);stroke-opacity:0.24705882352941178;stroke-width:2;stroke-miterlimit:10;stroke-linecap:square;" x1="108" x2="108" y1="260" y2="257"/>
  <rect height="3" style="fill:rgb(255,127,0);fill-opacity:0.7490196078431373;stroke:none;" width="4" x="120" y="296"/>
  <line style="fill:none;stroke:rgb(255,127,0);stroke-opacity:0.24705882352941178;stroke-width:2;stroke-miterlimit:10;stroke-linecap:square;" x1="108" x2="122" y1="255" y2="255"/>
  <line style="fill:none;stroke:rgb(255,127,0);stroke-opacity:0.24705882352941178;stroke-width:2;stroke-miterlimit:10;stroke-linecap:square;" x1="122" x2="122" y1="253" y2="254"/>
  <rect height="3" style="fill:rgb(255,127,0);fill-opacity:0.7490196078431373;stroke:none;" width="4" x="135" y="296"/>
  <line style="fill:none;stroke:rgb(255,127,0);stroke-opacity:0.24705882352941178;stroke-width:2;stroke-miterlimit:10;stroke-linecap:square;" x1="122" x2="137" y1="252" y2="252"/>
  <line style="fill:none;stroke:rgb(255,127,0);stroke-opacity:0.24705882352941178;stroke-width:2;stroke-miterlimit:10;stroke-linecap:square;" x1="137" x2="137" y1="250" y2="251"/>
  <rect height="3" style="fill:rgb(255,127,0);fill-opacity:0.7490196078431373;stroke:none;" width="4" x="150" y="296"/>
  <line style="fill:none;stroke:rgb(255,127,0);stroke-opacity:0.24705882352941178;stroke-width:2;stroke-miterlimit:10;stroke-linecap:square;" x1="137" x2="152" y1="249" y2="249"/>
  <line style="fill:none;stroke:rgb(255,127,0);stroke-opacity:0.24705882352941178;stroke-width:2;stroke-miterlimit:10;stroke-linecap:square;" x1="152" x2="152" y1="247" y2="248"/>
  <rect height="9" style="fill:rgb(255,127,0);fill-opacity:0.7490196078431373;stroke:none;" width="4" x="179" y="290"/>
  <line style="fill:none;stroke:rgb(255,127,0);stroke-opacity:0.24705882352941178;stroke-width:2;stroke-miterlimit:10;stroke-linecap:square;" x1="152" x2="181" y1="246" y2="246"/>
  <line style="fill:none;stroke:rgb(255,127,0);stroke-opacity:0.24705882352941178;stroke-width:2;stroke-miterlimit:10;stroke-linecap:square;" x1="181" x2="181" y1="244" y2="238"/>
  <rect height="15" style="fill:rgb(255,127,0);fill-opacity:0.7490196078431373;stroke:none;" width="4" x="193" y="284"/>
  <line style="fill:none;stroke:rgb(255,127,0);stroke-opacity:0.24705882352941178;stroke-width:2;stroke-miterlimit:10;stroke-linecap:square;" x1="181" x2="195" y1="236" y2="236"/>
  <line style="fill:none;stroke:rgb(255,127,0);stroke-opacity:0.24705882352941178;stroke-width:2;stroke-miterlimit:10;stroke-linecap:square;" x1="195" x2="195" y1="234" y2="223"/>
  <rect height="31" style="fill:rgb(255,127,0);fill-opacity:0.7490196078431373;stroke:none;" width="4" x="208" y="268"/>
  <line style="fill:none;stroke:rgb(255,127,0);stroke-opacity:0.24705882352941178;stroke-width:2;stroke-miterlimit:10;stroke-linecap:square;" x1="195" x2="210" y1="221" y2="221"/>
  <line style="fill:none;stroke:rgb(255,127,0);stroke-opacity:0.24705882352941178;stroke-width:2;stroke-miterlimit:10;stroke-linecap:square;" x1="210" x2="210" y1="219" y2="191"/>
  <rect height="37" style="fill:rgb(255,127,0);fill-opacity:0.7490196078431373;stroke:none;" width="4" x="223" y="262"/>
  <line style="fill:none;stroke:rgb(255,127,0);stroke-opacity:0.24705882352941178;stroke-width:2;stroke-miterlimit:10;stroke-linecap:square;" x1="210" x2="225" y1="189" y2="189"/>
  <line style="fill:none;stroke:rgb(255,127,0);stroke-opacity:0.24705882352941178;stroke-width:2;stroke-miterlimit:10;stroke-linecap:square;" x1="225" x2="225" y1="187" y2="153"/>
  <rect height="31" style="fill:rgb(255,127,0);fill-opacity:0.7490196078431373;stroke:none;" width="4" x="237" y="268"/>
  <line style="fill:none;stroke:rgb(255,127,0);stroke-opacity:0.24705882352941178;stroke-width:2;stroke-miterlimit:10;stroke-linecap:square;" x1="225" x2="239" y1="151" y2="151"/>
  <line style="fill:none;stroke:rgb(255,127,0);stroke-opacity:0.24705882352941178;stroke-width:2;stroke-miterlimit:10;stroke-linecap:square;" x1="239" x2="239" y1="149" y2="122"/>
  <rect height="18" style="fill:rgb(255,127,0);fill-opacity:0.7490196078431373;stroke:none;" width="4" x="252" y="281"/>
  <line style="fill:none;stroke:rgb(255,127,0);stroke-opacity:0.24705882352941178;stroke-width:2;stroke-miterlimit:10;stroke-linecap:square;" x1="239" x2="254" y1="120" y2="120"/>
  <line style="fill:none;stroke:rgb(255,127,0);stroke-opacity:0.24705882352941178;stroke-width:2;stroke-miterlimit:10;stroke-linecap:square;" x1="254" x2="254" y1="118" y2="103"/>
  <rect height="9" style="fill:rgb(255,127,0);fill-opacity:0.7490196078431373;stroke:none;" width="4" x="266" y="290"/>
  <line style="fill:none;stroke:rgb(255,127,0);stroke-opacity:0.24705882352941178;stroke-width:2;stroke-miterlimit:10;stroke-linecap:square;" x1="254" x2="268" y1="101" y2="101"/>
  <line style="fill:none;stroke:rgb(255,127,0);stroke-opacity:0.24705882352941178;stroke-width:2;stroke-miterlimit:10;stroke-linecap:square;" x1="268" x2="268" y1="99" y2="93"/>
  <rect height="12" style="fill:rgb(255,127,0);fill-opacity:0.7490196078431373;stroke:none;" width="4" x="281" y="287"/>
  <line style="fill:none;stroke:rgb(255,127,0);stroke-opacity:0.24705882352941178;stroke-width:2;stroke-miterlimit:10;stroke-linecap:square;" x1="268" x2="283" y1="91" y2="91"/>
  <line style="fill:none;stroke:rgb(255,127,0);stroke-opacity:0.24705882352941178;stroke-width:2;stroke-miterlimit:10;stroke-linecap:square;" x1="283" x2="283" y1="89" y2="80"/>
  <rect height="3" style="fill:rgb(255,127,0);fill-opacity:0.7490196078431373;stroke:none;" width="4" x="310" y="296"/>
  <line style="fill:none;stroke:rgb(255,127,0);stroke-opacity:0.24705882352941178;stroke-width:2;stroke-miterlimit:10;stroke-linecap:square;" x1="283" x2="312" y1="78" y2="78"/>
  <line style="fill:none;stroke:rgb(255,127,0);stroke-opacity:0.24705882352941178;stroke-width:2;stroke-miterlimit:10;stroke-linecap:square;" x1="312" x2="312" y1="76" y2="77"/>
  <rect height="3" style="fill:rgb(255,127,0);fill-opacity:0.7490196078431373;stroke:none;" width="4" x="339" y="296"/>
  <line style="fill:none;stroke:rgb(255,127,0);stroke-opacity:0.24705882352941178;stroke-width:2;stroke-miterlimit:10;stroke-linecap:square;" x1="312" x2="341" y1="75" y2="75"/>
  <line style="fill:none;stroke:rgb(255,127,0);stroke-opacity:0.24705882352941178;stroke-width:2;stroke-miterlimit:10;stroke-linecap:square;" x1="341" x2="341" y1="73" y2="74"/>
  <rect height="3" style="fill:rgb(255,127,0);fill-opacity:0.7490196078431373;stroke:none;" width="4" x="354" y="296"/>
  <line style="fill:none;stroke:rgb(255,127,0);stroke-opacity:0.24705882352941178;stroke-width:2;stroke-miterlimit:10;stroke-linecap:square;" x1="341" x2="356" y1="72" y2="72"/>
  <line style="fill:none;stroke:rgb(255,127,0);stroke-opacity:0.24705882352941178;stroke-width:2;stroke-miterlimit:10;stroke-linecap:square;" x1="356" x2="356" y1="70" y2="71"/>
  <rect height="9" style="fill:rgb(255,127,0);fill-opacity:0.7490196078431373;stroke:none;" width="4" x="383" y="290"/>
  <line style="fill:none;stroke:rgb(255,127,0);stroke-opacity:0.24705882352941178;stroke-width:2;stroke-miterlimit:10;stroke-linecap:square;" x1="356" x2="385" y1="69" y2="69"/>
  <line style="fill:none;stroke:rgb(255,127,0);stroke-opacity:0.24705882352941178;stroke-width:2;stroke-miterlimit:10;stroke-linecap:square;" x1="385" x2="385" y1="67" y2="62"/>
  <line style="fill:none;stroke:rgb(255,127,0);stroke-opacity:0.24705882352941178;stroke-width:2;stroke-miterlimit:10;stroke-linecap:square;" x1="385" x2="400" y1="60" y2="60"/>
  <line style="fill:none;stroke:rgb(255,127,0);stroke-opacity:0.4980392156862745;stroke-miterlimit:2;stroke-dasharray:2;" x1="50" x2="50" y1="300" y2="350"/>
  <line style="fill:none;stroke:rgb(255,127,0);stroke-opacity:0.4980392156862745;stroke-miterlimit:2;stroke-dasharray:2;" x1="50" x2="50" y1="300" y2="363"/>
  <line style="fill:none;stroke:rgb(255,127,0);stroke-opacity:0.4980392156862745;stroke-miterlimit:2;stroke-dasharray:2;" x1="50" x2="50" y1="300" y2="376"/>
  <line style="fill:none;stroke:rgb(255,127,0);stroke-opacity:0.4980392156862745;stroke-miterlimit:2;stroke-dasharray:2;" x1="64" x2="64" y1="300" y2="389"/>
  <line style="fill:none;stroke:rgb(255,127,0);stroke-opacity:0.4980392156862745;stroke-miterlimit:2;stroke-dasharray:2;" x1="64" x2="64" y1="300" y2="402"/>
  <line style="fill:none;stroke:rgb(255,127,0);stroke-opacity:0.4980392156862745;stroke-miterlimit:2;stroke-dasharray:2;" x1="64" x2="64" y1="300" y2="415"/>
  <line style="fill:none;stroke:rgb(255,127,0);stroke-opacity:0.4980392156862745;stroke-miterlimit:2;stroke-dasharray:2;" x1="64" x2="64" y1="300" y2="428"/>
  <line style="fill:none;stroke:rgb(255,127,0);stroke-opacity:0.4980392156862745;stroke-miterlimit:2;stroke-dasharray:2;" x1="79" x2="79" y1="300" y2="441"/>
  <line style="fill:none;stroke:rgb(255,127,0);stroke-opacity:0.4980392156862745;stroke-miterlimit:2;stroke-dasharray:2;" x1="79" x2="79" y1="300" y2="454"/>
  <line style="fill:none;stroke:rgb(255,127,0);stroke-opacity:0.4980392156862745;stroke-miterlimit:2;stroke-dasharray:2;" x1="79" x2="79" y1="300" y2="467"/>
  <line style="fill:none;stroke:rgb(255,127,0);stroke-opacity:0.4980392156862745;stroke-miterlimit:2;stroke-dasharray:2;" x1="93" x2="93" y1="300" y2="480"/>
  <line style="fill:none;stroke:rgb(255,127,0);stroke-opacity:0.4980392156862745;stroke-miterlimit:2;stroke-dasharray:2;" x1="93" x2="93" y1="300" y2="493"/>
  <line style="fill:none;stroke:rgb(255,127,0);stroke-opacity:0.4980392156862745;stroke-miterlimit:2;stroke-dasharray:2;" x1="108" x2="108" y1="300" y2="506"/>
  <line style="fill:none;stroke:rgb(255,127,0);stroke-opacity:0.4980392156862745;stroke-miterlimit:2;stroke-dasharray:2;" x1="108" x2="108" y1="300" y2="519"/>
  <line style="fill:none;stroke:rgb(255,127,0);stroke-opacity:0.4980392156862745;stroke-miterlimit:2;stroke-dasharray:2;" x1="122" x2="122" y1="300" y2="532"/>
  <line style="fill:none;stroke:rgb(255,127,0);stroke-opacity:0.4980392156862745;stroke-miterlimit:2;stroke-dasharray:2;" x1="137" x2="137" y1="300" y2="545"/>
  <line style="fill:none;stroke:rgb(255,127,0);stroke-opacity:0.4980392156862745;stroke-miterlimit:2;stroke-dasharray:2;" x1="152" x2="152" y1="300" y2="558"/>
  <line style="fill:none;stroke:rgb(255,127,0);stroke-opacity:0.4980392156862745;stroke-miterlimit:2;stroke-dasharray:2;" x1="181" x2="181" y1="300" y2="571"/>
  <line style="fill:none;stroke:rgb(255,127,0);stroke-opacity:0.4980392156862745;stroke-miterlimit:2;stroke-dasharray:2;" x1="181" x2="181" y1="300" y2="584"/>
  <line style="fill:none;stroke:rgb(255,127,0);stroke-opacity:0.4980392156862745;stroke-miterlimit:2;stroke-dasharray:2;" x1="181" x2="181" y1="300" y2="597"/>
  <line style="fill:none;stroke:rgb(255,127,0);stroke-opacity:0.4980392156862745;stroke-miterlimit:2;stroke-dasharray:2;" x1="195" x2="195" y1="300" y2="612"/>
  <line style="fill:none;stroke:rgb(255,127,0);stroke-opacity:0.4980392156862745;stroke-miterlimit:2;stroke-dasharray:2;" x1="195" x2="195" y1="300" y2="627"/>
  <line style="fill:none;stroke:rgb(255,127,0);stroke-opacity:0.4980392156862745;stroke-miterlimit:2;stroke-dasharray:2;" x1="195" x2="195" y1="300" y2="642"/>
  <line style="fill:none;stroke:rgb(255,127,0);stroke-opacity:0.4980392156862745;stroke-miterlimit:2;stroke-dasharray:2;" x1="195" x2="195" y1="300" y2="657"/>
  <line style="fill:none;stroke:rgb(255,127,0);stroke-opacity:0.4980392156862745;stroke-miterlimit:2;stroke-dasharray:2;" x1="195" x2="195" y1="300" y2="672"/>
  <line style="fill:none;stroke:rgb(255,127,0);stroke-opacity:0.4980392156862745;stroke-miterlimit:2;stroke-dasharray:2;" x1="210" x2="210" y1="300" y2="687"/>
  <line style="fill:none;stroke:rgb(255,127,0);stroke-opacity:0.4980392156862745;stroke-miterlimit:2;stroke-dasharray:2;" x1="210" x2="210" y1="300" y2="702"/>
  <line style="fill:none;stroke:rgb(255,127,0);stroke-opacity:0.4980392156862745;stroke-miterlimit:2;stroke-dasharray:2;" x1="210" x2="210" y1="300" y2="717"/>
  <line style="fill:none;stroke:rgb(255,127,0);stroke-opacity:0.4980392156862745;stroke-miterlimit:2;stroke-dasharray:2;" x1="210" x2="210" y1="300" y2="732"/>
  <line style="fill:none;stroke:rgb(255,127,0);stroke-opacity:0.4980392156862745;stroke-miterlimit:2;stroke-dasharray:2;" x1="210" x2="210" y1="300" y2="747"/>
  <line style="fill:none;stroke:rgb(255,127,0);stroke-opacity:0.4980392156862745;stroke-miterlimit:2;stroke-dasharray:2;" x1="210" x2="210" y1="300" y2="762"/>
  <line style="fill:none;stroke:rgb(255,127,0);stroke-opacity:0.4980392156862745;stroke-miterlimit:2;stroke-dasharray:2;" x1="210" x2="210" y1="300" y2="777"/>
  <line style="fill:none;stroke:rgb(255,127,0);stroke-opacity:0.4980392156862745;stroke-miterlimit:2;stroke-dasharray:2;" x1="210" x2="210" y1="300" y2="792"/>
  <line style="fill:none;stroke:rgb(255,127,0);stroke-opacity:0.4980392156862745;stroke-miterlimit:2;stroke-dasharray:2;" x1="210" x2="210" y1="300" y2="807"/>
  <line style="fill:none;stroke:rgb(255,127,0);stroke-opacity:0.4980392156862745;stroke-miterlimit:2;stroke-dasharray:2;" x1="210" x2="210" y1="300" y2="822"/>
  <line style="fill:none;stroke:rgb(255,127,0);stroke-opacity:0.4980392156862745;stroke-miterlimit:2;stroke-dasharray:2;" x1="225" x2="225" y1="300" y2="837"/>
  <line style="fill:none;stroke:rgb(255,127,0);stroke-opacity:0.4980392156862745;stroke-miterlimit:2;stroke-dasharray:2;" x1="225" x2="225" y1="300" y2="852"/>
  <line style="fill:none;stroke:rgb(255,127,0);stroke-opacity:0.4980392156862745;stroke-miterlimit:2;stroke-dasharray:2;" x1="225" x2="225" y1="300" y2="867"/>
  <line style="fill:none;stroke:rgb(255,127,0);stroke-opacity:0.4980392156862745;stroke-miterlimit:2;stroke-dasharray:2;" x1="225" x2="225" y1="300" y2="882"/>
  <line style="fill:none;stroke:rgb(255,127,0);stroke-opacity:0.4980392156862745;stroke-miterlimit:2;stroke-dasharray:2;" x1="225" x2="225" y1="300" y2="897"/>
  <line style="fill:none;stroke:rgb(255,127,0);stroke-opacity:0.4980392156862745;stroke-miterlimit:2;stroke-dasharray:2;" x1="225" x2="225" y1="300" y2="912"/>
  <line style="fill:none;stroke:rgb(255,127,0);stroke-opacity:0.4980392156862745;stroke-miterlimit:2;stroke-dasharray:2;" x1="225" x2="225" y1="300" y2="927"/>
  <line style="fill:none;stroke:rgb(255,127,0);stroke-opacity:0.4980392156862745;stroke-miterlimit:2;stroke-dasharray:2;" x1="225" x2="225" y1="300" y2="942"/>
  <line style="fill:none;stroke:rgb(255,127,0);stroke-opacity:0.4980392156862745;stroke-miterlimit:2;stroke-dasharray:2;" x1="225" x2="225" y1="300" y2="957"/>
  <line style="fill:none;stroke:rgb(255,127,0);stroke-opacity:0.4980392156862745;stroke-miterlimit:2;stroke-dasharray:2;" x1="225" x2="225" y1="300" y2="972"/>
  <line style="fill:none;stroke:rgb(255,127,0);stroke-opacity:0.4980392156862745;stroke-miterlimit:2;stroke-dasharray:2;" x1="225" x2="225" y1="300" y2="987"/>
  <line style="fill:none;stroke:rgb(255,127,0);stroke-opacity:0.4980392156862745;stroke-miterlimit:2;stroke-dasharray:2;" x1="225" x2="225" y1="300" y2="1002"/>
  <line style="fill:none;stroke:rgb(255,127,0);stroke-opacity:0.4980392156862745;stroke-miterlimit:2;stroke-dasharray:2;" x1="239" x2="239" y1="300" y2="1017"/>
  <line style="fill:none;stroke:rgb(255,127,0);stroke-opacity:0.4980392156862745;stroke-miterlimit:2;stroke-dasharray:2;" x1="239" x2="239" y1="300" y2="1032"/>
  <line style="fill:none;stroke:rgb(255,127,0);stroke-opacity:0.4980392156862745;stroke-miterlimit:2;stroke-dasharray:2;" x1="239" x2="239" y1="300" y2="1047"/>
  <line style="fill:none;stroke:rgb(255,127,0);stroke-opacity:0.4980392156862745;stroke-miterlimit:2;stroke-dasharray:2;" x1="239" x2="239" y1="300" y2="1062"/>
  <line style="fill:none;stroke:rgb(255,127,0);stroke-opacity:0.4980392156862745;stroke-miterlimit:2;stroke-dasharray:2;" x1="239" x2="239" y1="300" y2="1077"/>
  <line style="fill:none;stroke:rgb(255,127,0);stroke-opacity:0.4980392156862745;stroke-miterlimit:2;stroke-dasharray:2;" x1="239" x2="239" y1="300" y2="1092"/>
  <line style="fill:none;stroke:rgb(255,127,0);stroke-opacity:0.4980392156862745;stroke-miterlimit:2;stroke-dasharray:2;" x1="239" x2="239" y1="300" y2="1107"/>
  <line style="fill:none;stroke:rgb(255,127,0);stroke-opacity:0.4980392156862745;stroke-miterlimit:2;stroke-dasharray:2;" x1="239" x2="239" y1="300" y2="1122"/>
  <line style="fill:none;stroke:rgb(255,127,0);stroke-opacity:0.4980392156862745;stroke-miterlimit:2;stroke-dasharray:2;" x1="239" x2="239" y1="300" y2="1137"/>
  <line style="fill:none;stroke:rgb(255,127,0);stroke-opacity:0.4980392156862745;stroke-miterlimit:2;stroke-dasharray:2;" x1="239" x2="239" y1="300" y2="1152"/>
  <line style="fill:none;stroke:rgb(255,127,0);stroke-opacity:0.4980392156862745;stroke-miterlimit:2;stroke-dasharray:2;" x1="254" x2="254" y1="300" y2="1167"/>
  <line style="fill:none;stroke:rgb(255,127,0);stroke-opacity:0.4980392156862745;stroke-miterlimit:2;stroke-dasharray:2;" x1="254" x2="254" y1="300" y2="1182"/>
  <line style="fill:none;stroke:rgb(255,127,0);stroke-opacity:0.4980392156862745;stroke-miterlimit:2;stroke-dasharray:2;" x1="254" x2="254" y1="300" y2="1197"/>
  <line style="fill:none;stroke:rgb(255,127,0);stroke-opacity:0.4980392156862745;stroke-miterlimit:2;stroke-dasharray:2;" x1="254" x2="254" y1="300" y2="1212"/>
  <line style="fill:none;stroke:rgb(255,127,0);stroke-opacity:0.4980392156862745;stroke-miterlimit:2;stroke-dasharray:2;" x1="254" x2="254" y1="300" y2="1227"/>
  <line style="fill:none;stroke:rgb(255,127,0);stroke-opacity:0.4980392156862745;stroke-miterlimit:2;stroke-dasharray:2;" x1="254" x2="254" y1="300" y2="1242"/>
  <line style="fill:none;stroke:rgb(255,127,0);stroke-opacity:0.4980392156862745;stroke-miterlimit:2;stroke-dasharray:2;" x1="268" x2="268" y1="300" y2="1257"/>
  <line style="fill:none;stroke:rgb(255,127,0);stroke-opacity:0.4980392156862745;stroke-miterlimit:2;stroke-dasharray:2;" x1="268" x2="268" y1="300" y2="1272"/>
  <line style="fill:none;stroke:rgb(255,127,0);stroke-opacity:0.4980392156862745;stroke-miterlimit:2;stroke-dasharray:2;" x1="268" x2="268" y1="300" y2="1287"/>
  <line style="fill:none;stroke:rgb(255,127,0);stroke-opacity:0.4980392156862745;stroke-miterlimit:2;stroke-dasharray:2;" x1="283" x2="283" y1="300" y2="1302"/>
  <line style="fill:none;stroke:rgb(255,127,0);stroke-opacity:0.4980392156862745;stroke-miterlimit:2;stroke-dasharray:2;" x1="283" x2="283" y1="300" y2="1317"/>
  <line style="fill:none;stroke:rgb(255,127,0);stroke-opacity:0.4980392156862745;stroke-miterlimit:2;stroke-dasharray:2;" x1="283" x2="283" y1="300" y2="1332"/>
  <line style="fill:none;stroke:rgb(255,127,0);stroke-opacity:0.4980392156862745;stroke-miterlimit:2;stroke-dasharray:2;" x1="283" x2="283" y1="300" y2="1347"/>
  <line style="fill:none;stroke:rgb(255,127,0);stroke-opacity:0.4980392156862745;stroke-miterlimit:2;stroke-dasharray:2;" x1="312" x2="312" y1="300" y2="1360"/>
  <line style="fill:none;stroke:rgb(255,127,0);stroke-opacity:0.4980392156862745;stroke-miterlimit:2;stroke-dasharray:2;" x1="341" x2="341" y1="300" y2="1373"/>
  <line style="fill:none;stroke:rgb(255,127,0);stroke-opacity:0.4980392156862745;stroke-miterlimit:2;stroke-dasharray:2;" x1="356" x2="356" y1="300" y2="1386"/>
  <line style="fill:none;stroke:rgb(255,127,0);stroke-opacity:0.4980392156862745;stroke-miterlimit:2;stroke-dasharray:2;" x1="385" x2="385" y1="300" y2="1399"/>
  <line style="fill:none;stroke:rgb(255,127,0);stroke-opacity:0.4980392156862745;stroke-miterlimit:2;stroke-dasharray:2;" x1="385" x2="385" y1="300" y2="1412"/>
  <line style="fill:none;stroke:rgb(255,127,0);stroke-opacity:0.4980392156862745;stroke-miterlimit:2;stroke-dasharray:2;" x1="385" x2="385" y1="300" y2="1425"/>
  <line style="fill:none;stroke:rgb(0,0,0);stroke-width:2;stroke-miterlimit:10;stroke-linecap:square;" x1="48" x2="48" y1="60" y2="300"/>
  <line style="fill:none;stroke:rgb(0,0,0);stroke-width:2;stroke-miterlimit:10;stroke-linecap:square;" x1="48" x2="402" y1="300" y2="300"/>
  <rect height="30" style="fill:rgb(255,255,255);stroke:none;" width="17" x="42" y="308"/>
  <text style="fill:rgb(0,0,0);stroke:none;font-size:25px;font-weight:bold;" x="42" y="332">0</text>
  <rect height="30" style="fill:rgb(255,255,255);stroke:none;" width="34" x="383" y="308"/>
  <text style="fill:rgb(0,0,0);stroke:none;font-size:25px;font-weight:bold;" x="383" y="332">24</text>
  <text style="fill:rgb(0,0,0);stroke:none;font-size:25px;font-weight:bold;" x="25" y="312">0</text>
  <text style="fill:rgb(0,0,0);stroke:none;font-size:25px;font-weight:bold;" x="25" y="72">1</text>
  <text style="fill:rgb(0,0,0);stroke:none;font-size:19px;font-weight:bold;" x="11" y="39">MARSON_BOUND_BY_FOXP3_UNSTIMULATED</text>
  <rect height="10" style="fill:rgb(255,255,255);stroke:none;" width="37" x="50" y="340"/>
  <text style="fill:rgb(128,128,128);stroke:none;font-size:10px;" x="50" y="350">ARMC8</text>
  <rect height="10" style="fill:rgb(255,255,255);stroke:none;" width="38" x="50" y="353"/>
  <text style="fill:rgb(128,128,128);stroke:none;font-size:10px;" x="50" y="363">CENPC</text>
  <rect height="10" style="fill:rgb(255,255,255);stroke:none;" width="42" x="50" y="366"/>
  <text style="fill:rgb(128,128,128);stroke:none;font-size:10px;" x="50" y="376">LRRC8C</text>
  <rect height="10" style="fill:rgb(255,255,255);stroke:none;" width="24" x="64" y="379"/>
  <text style="fill:rgb(128,128,128);stroke:none;font-size:10px;" x="64" y="389">ITCH</text>
  <rect height="10" style="fill:rgb(255,255,255);stroke:none;" width="47" x="64" y="392"/>
  <text style="fill:rgb(128,128,128);stroke:none;font-size:10px;" x="64" y="402">C1ORF74</text>
  <rect height="10" style="fill:rgb(255,255,255);stroke:none;" width="52" x="64" y="405"/>
  <text style="fill:rgb(128,128,128);stroke:none;font-size:10px;" x="64" y="415">HNRNPDL</text>
  <rect height="10" style="fill:rgb(255,255,255);stroke:none;" width="45" x="64" y="418"/>
  <text style="fill:rgb(128,128,128);stroke:none;font-size:10px;" x="64" y="428">ST3GAL4</text>
  <rect height="10" style="fill:rgb(255,255,255);stroke:none;" width="37" x="79" y="431"/>
  <text style="fill:rgb(128,128,128);stroke:none;font-size:10px;" x="79" y="441">KCNN4</text>
  <rect height="10" style="fill:rgb(255,255,255);stroke:none;" width="41" x="79" y="444"/>
  <text style="fill:rgb(128,128,128);stroke:none;font-size:10px;" x="79" y="454">EFCAB2</text>
  <rect height="10" style="fill:rgb(255,255,255);stroke:none;" width="39" x="79" y="457"/>
  <text style="fill:rgb(128,128,128);stroke:none;font-size:10px;" x="79" y="467">TGFBR2</text>
  <rect height="10" style="fill:rgb(255,255,255);stroke:none;" width="28" x="93" y="470"/>
  <text style="fill:rgb(128,128,128);stroke:none;font-size:10px;" x="93" y="480">PDK1</text>
  <rect height="10" style="fill:rgb(255,255,255);stroke:none;" width="30" x="93" y="483"/>
  <text style="fill:rgb(128,128,128);stroke:none;font-size:10px;" x="93" y="493">DDIT4</text>
  <rect height="10" style="fill:rgb(255,255,255);stroke:none;" width="35" x="108" y="496"/>
  <text style="fill:rgb(128,128,128);stroke:none;font-size:10px;" x="108" y="506">NUDT4</text>
  <rect height="10" style="fill:rgb(255,255,255);stroke:none;" width="34" x="108" y="509"/>
  <text style="fill:rgb(128,128,128);stroke:none;font-size:10px;" x="108" y="519">ANXA7</text>
  <rect height="10" style="fill:rgb(255,255,255);stroke:none;" width="31" x="122" y="522"/>
  <text style="fill:rgb(128,128,128);stroke:none;font-size:10px;" x="122" y="532">PTTG1</text>
  <rect height="10" style="fill:rgb(255,255,255);stroke:none;" width="52" x="137" y="535"/>
  <text style="fill:rgb(128,128,128);stroke:none;font-size:10px;" x="137" y="545">EDARADD</text>
  <rect height="10" style="fill:rgb(255,255,255);stroke:none;" width="32" x="152" y="548"/>
  <text style="fill:rgb(128,128,128);stroke:none;font-size:10px;" x="152" y="558">TGFB1</text>
  <rect height="10" style="fill:rgb(255,255,255);stroke:none;" width="26" x="181" y="561"/>
  <text style="fill:rgb(128,128,128);stroke:none;font-size:10px;" x="181" y="571">JUNB</text>
  <rect height="10" style="fill:rgb(255,255,255);stroke:none;" width="36" x="181" y="574"/>
  <text style="fill:rgb(128,128,128);stroke:none;font-size:10px;" x="181" y="584">DUSP6</text>
  <rect height="10" style="fill:rgb(255,255,255);stroke:none;" width="38" x="181" y="587"/>
  <text style="fill:rgb(128,128,128);stroke:none;font-size:10px;" x="181" y="597">TXNL4B</text>
  <rect height="12" style="fill:rgb(255,255,255);stroke:none;" width="35" x="195" y="600"/>
  <text style="fill:rgb(128,128,128);stroke:none;" x="195" y="612">SMG9</text>
  <rect height="12" style="fill:rgb(255,255,255);stroke:none;" width="33" x="195" y="615"/>
  <text style="fill:rgb(128,128,128);stroke:none;" x="195" y="627">RGS2</text>
  <rect height="12" style="fill:rgb(255,255,255);stroke:none;" width="37" x="195" y="630"/>
  <text style="fill:rgb(128,128,128);stroke:none;" x="195" y="642">HMMR</text>
  <rect height="12" style="fill:rgb(255,255,255);stroke:none;" width="41" x="195" y="645"/>
  <text style="fill:rgb(128,128,128);stroke:none;" x="195" y="657">TUBG1</text>
  <rect height="12" style="fill:rgb(255,255,255);stroke:none;" width="46" x="195" y="660"/>
  <text style="fill:rgb(128,128,128);stroke:none;" x="195" y="672">PRR15L</text>
  <rect height="12" style="fill:rgb(255,255,255);stroke:none;" width="26" x="210" y="675"/>
  <text style="fill:rgb(128,128,128);stroke:none;" x="210" y="687">KRI1</text>
  <rect height="12" style="fill:rgb(255,255,255);stroke:none;" width="34" x="210" y="690"/>
  <text style="fill:rgb(128,128,128);stroke:none;" x="210" y="702">RBM5</text>
  <rect height="12" style="fill:rgb(255,255,255);stroke:none;" width="36" x="210" y="705"/>
  <text style="fill:rgb(128,128,128);stroke:none;" x="210" y="717">WDCP</text>
  <rect height="12" style="fill:rgb(255,255,255);stroke:none;" width="42" x="210" y="720"/>
  <text style="fill:rgb(128,128,128);stroke:none;" x="210" y="732">NMRK1</text>
  <rect height="12" style="fill:rgb(255,255,255);stroke:none;" width="38" x="210" y="735"/>
  <text style="fill:rgb(128,128,128);stroke:none;" x="210" y="747">TAPT1</text>
  <rect height="12" style="fill:rgb(255,255,255);stroke:none;" width="35" x="210" y="750"/>
  <text style="fill:rgb(128,128,128);stroke:none;" x="210" y="762">RIBC1</text>
  <rect height="12" style="fill:rgb(255,255,255);stroke:none;" width="43" x="210" y="765"/>
  <text style="fill:rgb(128,128,128);stroke:none;" x="210" y="777">MORC2</text>
  <rect height="12" style="fill:rgb(255,255,255);stroke:none;" width="43" x="210" y="780"/>
  <text style="fill:rgb(128,128,128);stroke:none;" x="210" y="792">INTS13</text>
  <rect height="12" style="fill:rgb(255,255,255);stroke:none;" width="55" x="210" y="795"/>
  <text style="fill:rgb(128,128,128);stroke:none;" x="210" y="807">DCLRE1A</text>
  <rect height="12" style="fill:rgb(255,255,255);stroke:none;" width="56" x="210" y="810"/>
  <text style="fill:rgb(128,128,128);stroke:none;" x="210" y="822">SERTAD1</text>
  <rect height="12" style="fill:rgb(255,255,255);stroke:none;" width="32" x="225" y="825"/>
  <text style="fill:rgb(128,128,128);stroke:none;" x="225" y="837">DET1</text>
  <rect height="12" style="fill:rgb(255,255,255);stroke:none;" width="30" x="225" y="840"/>
  <text style="fill:rgb(128,128,128);stroke:none;" x="225" y="852">TCTA</text>
  <rect height="12" style="fill:rgb(255,255,255);stroke:none;" width="42" x="225" y="855"/>
  <text style="fill:rgb(128,128,128);stroke:none;" x="225" y="867">AP4M1</text>
  <rect height="12" style="fill:rgb(255,255,255);stroke:none;" width="38" x="225" y="870"/>
  <text style="fill:rgb(128,128,128);stroke:none;" x="225" y="882">STX1A</text>
  <rect height="12" style="fill:rgb(255,255,255);stroke:none;" width="41" x="225" y="885"/>
  <text style="fill:rgb(128,128,128);stroke:none;" x="225" y="897">RAD52</text>
  <rect height="12" style="fill:rgb(255,255,255);stroke:none;" width="50" x="225" y="900"/>
  <text style="fill:rgb(128,128,128);stroke:none;" x="225" y="912">CNPPD1</text>
  <rect height="12" style="fill:rgb(255,255,255);stroke:none;" width="44" x="225" y="915"/>
  <text style="fill:rgb(128,128,128);stroke:none;" x="225" y="927">ARID5A</text>
  <rect height="12" style="fill:rgb(255,255,255);stroke:none;" width="44" x="225" y="930"/>
  <text style="fill:rgb(128,128,128);stroke:none;" x="225" y="942">ARID5B</text>
  <rect height="12" style="fill:rgb(255,255,255);stroke:none;" width="48" x="225" y="945"/>
  <text style="fill:rgb(128,128,128);stroke:none;" x="225" y="957">STOML1</text>
  <rect height="12" style="fill:rgb(255,255,255);stroke:none;" width="46" x="225" y="960"/>
  <text style="fill:rgb(128,128,128);stroke:none;" x="225" y="972">TEX261</text>
  <rect height="12" style="fill:rgb(255,255,255);stroke:none;" width="62" x="225" y="975"/>
  <text style="fill:rgb(128,128,128);stroke:none;" x="225" y="987">METTL21A</text>
  <rect height="12" style="fill:rgb(255,255,255);stroke:none;" width="58" x="225" y="990"/>
  <text style="fill:rgb(128,128,128);stroke:none;" x="225" y="1002">PRELID3A</text>
  <rect height="12" style="fill:rgb(255,255,255);stroke:none;" width="43" x="239" y="1005"/>
  <text style="fill:rgb(128,128,128);stroke:none;" x="239" y="1017">MED16</text>
  <rect height="12" style="fill:rgb(255,255,255);stroke:none;" width="44" x="239" y="1020"/>
  <text style="fill:rgb(128,128,128);stroke:none;" x="239" y="1032">WDR31</text>
  <rect height="12" style="fill:rgb(255,255,255);stroke:none;" width="38" x="239" y="1035"/>
  <text style="fill:rgb(128,128,128);stroke:none;" x="239" y="1047">TPST2</text>
  <rect height="12" style="fill:rgb(255,255,255);stroke:none;" width="42" x="239" y="1050"/>
  <text style="fill:rgb(128,128,128);stroke:none;" x="239" y="1062">HSPH1</text>
  <rect height="12" style="fill:rgb(255,255,255);stroke:none;" width="39" x="239" y="1065"/>
  <text style="fill:rgb(128,128,128);stroke:none;" x="239" y="1077">TRPV2</text>
  <rect height="12" style="fill:rgb(255,255,255);stroke:none;" width="40" x="239" y="1080"/>
  <text style="fill:rgb(128,128,128);stroke:none;" x="239" y="1092">RSRP1</text>
  <rect height="12" style="fill:rgb(255,255,255);stroke:none;" width="41" x="239" y="1095"/>
  <text style="fill:rgb(128,128,128);stroke:none;" x="239" y="1107">NABP1</text>
  <rect height="12" style="fill:rgb(255,255,255);stroke:none;" width="54" x="239" y="1110"/>
  <text style="fill:rgb(128,128,128);stroke:none;" x="239" y="1122">SLC23A3</text>
  <rect height="12" style="fill:rgb(255,255,255);stroke:none;" width="55" x="239" y="1125"/>
  <text style="fill:rgb(128,128,128);stroke:none;" x="239" y="1137">DCLRE1C</text>
  <rect height="12" style="fill:rgb(255,255,255);stroke:none;" width="54" x="239" y="1140"/>
  <text style="fill:rgb(128,128,128);stroke:none;" x="239" y="1152">METTL27</text>
  <rect height="12" style="fill:rgb(255,255,255);stroke:none;" width="33" x="254" y="1155"/>
  <text style="fill:rgb(128,128,128);stroke:none;" x="254" y="1167">ARG2</text>
  <rect height="12" style="fill:rgb(255,255,255);stroke:none;" width="40" x="254" y="1170"/>
  <text style="fill:rgb(128,128,128);stroke:none;" x="254" y="1182">AP2A2</text>
  <rect height="12" style="fill:rgb(255,255,255);stroke:none;" width="36" x="254" y="1185"/>
  <text style="fill:rgb(128,128,128);stroke:none;" x="254" y="1197">TRIM5</text>
  <rect height="12" style="fill:rgb(255,255,255);stroke:none;" width="40" x="254" y="1200"/>
  <text style="fill:rgb(128,128,128);stroke:none;" x="254" y="1212">ABCB6</text>
  <rect height="12" style="fill:rgb(255,255,255);stroke:none;" width="40" x="254" y="1215"/>
  <text style="fill:rgb(128,128,128);stroke:none;" x="254" y="1227">AP4B1</text>
  <rect height="12" style="fill:rgb(255,255,255);stroke:none;" width="49" x="254" y="1230"/>
  <text style="fill:rgb(128,128,128);stroke:none;" x="254" y="1242">GPR171</text>
  <rect height="12" style="fill:rgb(255,255,255);stroke:none;" width="41" x="268" y="1245"/>
  <text style="fill:rgb(128,128,128);stroke:none;" x="268" y="1257">UBXN8</text>
  <rect height="12" style="fill:rgb(255,255,255);stroke:none;" width="49" x="268" y="1260"/>
  <text style="fill:rgb(128,128,128);stroke:none;" x="268" y="1272">PODNL1</text>
  <rect height="12" style="fill:rgb(255,255,255);stroke:none;" width="51" x="268" y="1275"/>
  <text style="fill:rgb(128,128,128);stroke:none;" x="268" y="1287">NSMCE1</text>
  <rect height="12" style="fill:rgb(255,255,255);stroke:none;" width="40" x="283" y="1290"/>
  <text style="fill:rgb(128,128,128);stroke:none;" x="283" y="1302">ACTG1</text>
  <rect height="12" style="fill:rgb(255,255,255);stroke:none;" width="36" x="283" y="1305"/>
  <text style="fill:rgb(128,128,128);stroke:none;" x="283" y="1317">TBL1X</text>
  <rect height="12" style="fill:rgb(255,255,255);stroke:none;" width="53" x="283" y="1320"/>
  <text style="fill:rgb(128,128,128);stroke:none;" x="283" y="1332">AMDHD1</text>
  <rect height="12" style="fill:rgb(255,255,255);stroke:none;" width="41" x="283" y="1335"/>
  <text style="fill:rgb(128,128,128);stroke:none;" x="283" y="1347">ATF7IP</text>
  <rect height="10" style="fill:rgb(255,255,255);stroke:none;" width="40" x="312" y="1350"/>
  <text style="fill:rgb(128,128,128);stroke:none;font-size:10px;" x="312" y="1360">SLC9A9</text>
  <rect height="10" style="fill:rgb(255,255,255);stroke:none;" width="32" x="341" y="1363"/>
  <text style="fill:rgb(128,128,128);stroke:none;font-size:10px;" x="341" y="1373">GMDS</text>
  <rect height="10" style="fill:rgb(255,255,255);stroke:none;" width="32" x="356" y="1376"/>
  <text style="fill:rgb(128,128,128);stroke:none;font-size:10px;" x="356" y="1386">ARL15</text>
  <rect height="10" style="fill:rgb(255,255,255);stroke:none;" width="25" x="385" y="1389"/>
  <text style="fill:rgb(128,128,128);stroke:none;font-size:10px;" x="385" y="1399">RFX3</text>
  <rect height="10" style="fill:rgb(255,255,255);stroke:none;" width="39" x="385" y="1402"/>
  <text style="fill:rgb(128,128,128);stroke:none;font-size:10px;" x="385" y="1412">GLT8D2</text>
  <rect height="10" style="fill:rgb(255,255,255);stroke:none;" width="38" x="385" y="1415"/>
  <text style="fill:rgb(128,128,128);stroke:none;font-size:10px;" x="385" y="1425">ATP1A2</text>
</svg>
