<?xml version="1.0" encoding="UTF-8" standalone="no"?>
<!DOCTYPE svg PUBLIC "-//W3C//DTD SVG 1.1//EN" "http://www.w3.org/Graphics/SVG/1.1/DTD/svg11.dtd">
<svg xmlns:xlink="http://www.w3.org/1999/xlink" height="158.74999999999997mm" version="1.1" viewBox="0 0 500 600" width="132.29166666666666mm" x="0mm" y="0mm" xmlns="http://www.w3.org/2000/svg">
  <rect height="1200" style="fill:rgb(255,255,255);stroke:none;" width="1000" x="0" y="0"/>
  <rect height="240" style="fill:rgb(191,191,191);fill-opacity:0.4980392156862745;stroke:none;" width="175" x="225" y="60"/>
  <line style="fill:none;stroke:rgb(63,63,191);stroke-opacity:0.24705882352941178;stroke-miterlimit:10;stroke-linecap:square;" x1="50" x2="50" y1="300" y2="300"/>
  <line style="fill:none;stroke:rgb(63,63,191);stroke-opacity:0.24705882352941178;stroke-miterlimit:10;stroke-linecap:square;" x1="50" x2="64" y1="300" y2="290"/>
  <line style="fill:none;stroke:rgb(63,63,191);stroke-opacity:0.24705882352941178;stroke-miterlimit:10;stroke-linecap:square;" x1="64" x2="79" y1="290" y2="280"/>
  <line style="fill:none;stroke:rgb(63,63,191);stroke-opacity:0.24705882352941178;stroke-miterlimit:10;stroke-linecap:square;" x1="79" x2="93" y1="280" y2="270"/>
  <line style="fill:none;stroke:rgb(63,63,191);stroke-opacity:0.24705882352941178;stroke-miterlimit:10;stroke-linecap:square;" x1="93" x2="108" y1="270" y2="260"/>
  <line style="fill:none;stroke:rgb(63,63,191);stroke-opacity:0.24705882352941178;stroke-miterlimit:10;stroke-linecap:square;" x1="108" x2="122" y1="260" y2="250"/>
  <line style="fill:none;stroke:rgb(63,63,191);stroke-opacity:0.24705882352941178;stroke-miterlimit:10;stroke-linecap:square;" x1="122" x2="137" y1="250" y2="240"/>
  <line style="fill:none;stroke:rgb(63,63,191);stroke-opacity:0.24705882352941178;stroke-miterlimit:10;stroke-linecap:square;" x1="137" x2="152" y1="240" y2="230"/>
  <line style="fill:none;stroke:rgb(63,63,191);stroke-opacity:0.24705882352941178;stroke-miterlimit:10;stroke-linecap:square;" x1="152" x2="166" y1="230" y2="220"/>
  <line style="fill:none;stroke:rgb(63,63,191);stroke-opacity:0.24705882352941178;stroke-miterlimit:10;stroke-linecap:square;" x1="166" x2="181" y1="220" y2="210"/>
  <line style="fill:none;stroke:rgb(63,63,191);stroke-opacity:0.24705882352941178;stroke-miterlimit:10;stroke-linecap:square;" x1="181" x2="195" y1="210" y2="200"/>
  <line style="fill:none;stroke:rgb(63,63,191);stroke-opacity:0.24705882352941178;stroke-miterlimit:10;stroke-linecap:square;" x1="195" x2="210" y1="200" y2="190"/>
  <line style="fill:none;stroke:rgb(63,63,191);stroke-opacity:0.24705882352941178;stroke-miterlimit:10;stroke-linecap:square;" x1="210" x2="225" y1="190" y2="180"/>
  <line style="fill:none;stroke:rgb(63,63,191);stroke-opacity:0.24705882352941178;stroke-miterlimit:10;stroke-linecap:square;" x1="225" x2="239" y1="180" y2="170"/>
  <line style="fill:none;stroke:rgb(63,63,191);stroke-opacity:0.24705882352941178;stroke-miterlimit:10;stroke-linecap:square;" x1="239" x2="254" y1="170" y2="160"/>
  <line style="fill:none;stroke:rgb(63,63,191);stroke-opacity:0.24705882352941178;stroke-miterlimit:10;stroke-linecap:square;" x1="254" x2="268" y1="160" y2="150"/>
  <line style="fill:none;stroke:rgb(63,63,191);stroke-opacity:0.24705882352941178;stroke-miterlimit:10;stroke-linecap:square;" x1="268" x2="283" y1="150" y2="140"/>
  <line style="fill:none;stroke:rgb(63,63,191);stroke-opacity:0.24705882352941178;stroke-miterlimit:10;stroke-linecap:square;" x1="283" x2="297" y1="140" y2="130"/>
  <line style="fill:none;stroke:rgb(63,63,191);stroke-opacity:0.24705882352941178;stroke-miterlimit:10;stroke-linecap:square;" x1="297" x2="312" y1="130" y2="120"/>
  <line style="fill:none;stroke:rgb(63,63,191);stroke-opacity:0.24705882352941178;stroke-miterlimit:10;stroke-linecap:square;" x1="312" x2="327" y1="120" y2="110"/>
  <line style="fill:none;stroke:rgb(63,63,191);stroke-opacity:0.24705882352941178;stroke-miterlimit:10;stroke-linecap:square;" x1="327" x2="341" y1="110" y2="100"/>
  <line style="fill:none;stroke:rgb(63,63,191);stroke-opacity:0.24705882352941178;stroke-miterlimit:10;stroke-linecap:square;" x1="341" x2="356" y1="100" y2="90"/>
  <line style="fill:none;stroke:rgb(63,63,191);stroke-opacity:0.24705882352941178;stroke-miterlimit:10;stroke-linecap:square;" x1="356" x2="370" y1="90" y2="80"/>
  <line style="fill:none;stroke:rgb(63,63,191);stroke-opacity:0.24705882352941178;stroke-miterlimit:10;stroke-linecap:square;" x1="370" x2="385" y1="80" y2="70"/>
  <line style="fill:none;stroke:rgb(63,63,191);stroke-opacity:0.24705882352941178;stroke-miterlimit:10;stroke-linecap:square;" x1="385" x2="400" y1="70" y2="60"/>
  <line style="fill:none;stroke:rgb(63,63,191);stroke-opacity:0.24705882352941178;stroke-miterlimit:10;stroke-linecap:square;" x1="400" x2="400" y1="60" y2="60"/>
  <rect height="2" style="fill:rgb(255,127,0);fill-opacity:0.7490196078431373;stroke:none;" width="4" x="48" y="297"/>
  <line style="fill:none;stroke:rgb(255,127,0);stroke-opacity:0.24705882352941178;stroke-width:2;stroke-miterlimit:10;stroke-linecap:square;" x1="50" x2="50" y1="300" y2="300"/>
  <line style="fill:none;stroke:rgb(255,127,0);stroke-opacity:0.24705882352941178;stroke-width:2;stroke-miterlimit:10;stroke-linecap:square;" x1="50" x2="50" y1="298" y2="299"/>
  <rect height="20" style="fill:rgb(255,127,0);fill-opacity:0.7490196078431373;stroke:none;" width="4" x="62" y="280"/>
  <line style="fill:none;stroke:rgb(255,127,0);stroke-opacity:0.24705882352941178;stroke-width:2;stroke-miterlimit:10;stroke-linecap:square;" x1="50" x2="64" y1="297" y2="297"/>
  <line style="fill:none;stroke:rgb(255,127,0);stroke-opacity:0.24705882352941178;stroke-width:2;stroke-miterlimit:10;stroke-linecap:square;" x1="64" x2="64" y1="295" y2="279"/>
  <rect height="20" style="fill:rgb(255,127,0);fill-opacity:0.7490196078431373;stroke:none;" width="4" x="77" y="280"/>
  <line style="fill:none;stroke:rgb(255,127,0);stroke-opacity:0.24705882352941178;stroke-width:2;stroke-miterlimit:10;stroke-linecap:square;" x1="64" x2="79" y1="277" y2="277"/>
  <line style="fill:none;stroke:rgb(255,127,0);stroke-opacity:0.24705882352941178;stroke-width:2;stroke-miterlimit:10;stroke-linecap:square;" x1="79" x2="79" y1="275" y2="259"/>
  <rect height="8" style="fill:rgb(255,127,0);fill-opacity:0.7490196078431373;stroke:none;" width="4" x="91" y="291"/>
  <line style="fill:none;stroke:rgb(255,127,0);stroke-opacity:0.24705882352941178;stroke-width:2;stroke-miterlimit:10;stroke-linecap:square;" x1="79" x2="93" y1="257" y2="257"/>
  <line style="fill:none;stroke:rgb(255,127,0);stroke-opacity:0.24705882352941178;stroke-width:2;stroke-miterlimit:10;stroke-linecap:square;" x1="93" x2="93" y1="255" y2="250"/>
  <rect height="17" style="fill:rgb(255,127,0);fill-opacity:0.7490196078431373;stroke:none;" width="4" x="106" y="282"/>
  <line style="fill:none;stroke:rgb(255,127,0);stroke-opacity:0.24705882352941178;stroke-width:2;stroke-miterlimit:10;stroke-linecap:square;" x1="93" x2="108" y1="248" y2="248"/>
  <line style="fill:none;stroke:rgb(255,127,0);stroke-opacity:0.24705882352941178;stroke-width:2;stroke-miterlimit:10;stroke-linecap:square;" x1="108" x2="108" y1="246" y2="233"/>
  <rect height="5" style="fill:rgb(255,127,0);fill-opacity:0.7490196078431373;stroke:none;" width="4" x="120" y="294"/>
  <line style="fill:none;stroke:rgb(255,127,0);stroke-opacity:0.24705882352941178;stroke-width:2;stroke-miterlimit:10;stroke-linecap:square;" x1="108" x2="122" y1="231" y2="231"/>
  <line style="fill:none;stroke:rgb(255,127,0);stroke-opacity:0.24705882352941178;stroke-width:2;stroke-miterlimit:10;stroke-linecap:square;" x1="122" x2="122" y1="229" y2="227"/>
  <rect height="2" style="fill:rgb(255,127,0);fill-opacity:0.7490196078431373;stroke:none;" width="4" x="135" y="297"/>
  <line style="fill:none;stroke:rgb(255,127,0);stroke-opacity:0.24705882352941178;stroke-width:2;stroke-miterlimit:10;stroke-linecap:square;" x1="122" x2="137" y1="225" y2="225"/>
  <line style="fill:none;stroke:rgb(255,127,0);stroke-opacity:0.24705882352941178;stroke-width:2;stroke-miterlimit:10;stroke-linecap:square;" x1="137" x2="137" y1="223" y2="224"/>
  <rect height="8" style="fill:rgb(255,127,0);fill-opacity:0.7490196078431373;stroke:none;" width="4" x="150" y="291"/>
  <line style="fill:none;stroke:rgb(255,127,0);stroke-opacity:0.24705882352941178;stroke-width:2;stroke-miterlimit:10;stroke-linecap:square;" x1="137" x2="152" y1="222" y2="222"/>
  <line style="fill:none;stroke:rgb(255,127,0);stroke-opacity:0.24705882352941178;stroke-width:2;stroke-miterlimit:10;stroke-linecap:square;" x1="152" x2="152" y1="220" y2="216"/>
  <rect height="2" style="fill:rgb(255,127,0);fill-opacity:0.7490196078431373;stroke:none;" width="4" x="179" y="297"/>
  <line style="fill:none;stroke:rgb(255,127,0);stroke-opacity:0.24705882352941178;stroke-width:2;stroke-miterlimit:10;stroke-linecap:square;" x1="152" x2="181" y1="214" y2="214"/>
  <line style="fill:none;stroke:rgb(255,127,0);stroke-opacity:0.24705882352941178;stroke-width:2;stroke-miterlimit:10;stroke-linecap:square;" x1="181" x2="181" y1="212" y2="213"/>
  <rect height="8" style="fill:rgb(255,127,0);fill-opacity:0.7490196078431373;stroke:none;" width="4" x="193" y="291"/>
  <line style="fill:none;stroke:rgb(255,127,0);stroke-opacity:0.24705882352941178;stroke-width:2;stroke-miterlimit:10;stroke-linecap:square;" x1="181" x2="195" y1="211" y2="211"/>
  <line style="fill:none;stroke:rgb(255,127,0);stroke-opacity:0.24705882352941178;stroke-width:2;stroke-miterlimit:10;stroke-linecap:square;" x1="195" x2="195" y1="209" y2="204"/>
  <rect height="5" style="fill:rgb(255,127,0);fill-opacity:0.7490196078431373;stroke:none;" width="4" x="208" y="294"/>
  <line style="fill:none;stroke:rgb(255,127,0);stroke-opacity:0.24705882352941178;stroke-width:2;stroke-miterlimit:10;stroke-linecap:square;" x1="195" x2="210" y1="202" y2="202"/>
  <line style="fill:none;stroke:rgb(255,127,0);stroke-opacity:0.24705882352941178;stroke-width:2;stroke-miterlimit:10;stroke-linecap:square;" x1="210" x2="210" y1="200" y2="199"/>
  <rect height="8" style="fill:rgb(255,127,0);fill-opacity:0.7490196078431373;stroke:none;" width="4" x="223" y="291"/>
  <line style="fill:none;stroke:rgb(255,127,0);stroke-opacity:0.24705882352941178;stroke-width:2;stroke-miterlimit:10;stroke-linecap:square;" x1="210" x2="225" y1="197" y2="197"/>
  <line style="fill:none;stroke:rgb(255,127,0);stroke-opacity:0.24705882352941178;stroke-width:2;stroke-miterlimit:10;stroke-linecap:square;" x1="225" x2="225" y1="195" y2="190"/>
  <rect height="8" style="fill:rgb(255,127,0);fill-opacity:0.7490196078431373;stroke:none;" width="4" x="237" y="291"/>
  <line style="fill:none;stroke:rgb(255,127,0);stroke-opacity:0.24705882352941178;stroke-width:2;stroke-miterlimit:10;stroke-linecap:square;" x1="225" x2="239" y1="188" y2="188"/>
  <line style="fill:none;stroke:rgb(255,127,0);stroke-opacity:0.24705882352941178;stroke-width:2;stroke-miterlimit:10;stroke-linecap:square;" x1="239" x2="239" y1="186" y2="182"/>
  <rect height="25" style="fill:rgb(255,127,0);fill-opacity:0.7490196078431373;stroke:none;" width="4" x="252" y="274"/>
  <line style="fill:none;stroke:rgb(255,127,0);stroke-opacity:0.24705882352941178;stroke-width:2;stroke-miterlimit:10;stroke-linecap:square;" x1="239" x2="254" y1="180" y2="180"/>
  <line style="fill:none;stroke:rgb(255,127,0);stroke-opacity:0.24705882352941178;stroke-width:2;stroke-miterlimit:10;stroke-linecap:square;" x1="254" x2="254" y1="178" y2="156"/>
  <rect height="11" style="fill:rgb(255,127,0);fill-opacity:0.7490196078431373;stroke:none;" width="4" x="266" y="288"/>
  <line style="fill:none;stroke:rgb(255,127,0);stroke-opacity:0.24705882352941178;stroke-width:2;stroke-miterlimit:10;stroke-linecap:square;" x1="254" x2="268" y1="154" y2="154"/>
  <line style="fill:none;stroke:rgb(255,127,0);stroke-opacity:0.24705882352941178;stroke-width:2;stroke-miterlimit:10;stroke-linecap:square;" x1="268" x2="268" y1="152" y2="144"/>
  <rect height="2" style="fill:rgb(255,127,0);fill-opacity:0.7490196078431373;stroke:none;" width="4" x="281" y="297"/>
  <line style="fill:none;stroke:rgb(255,127,0);stroke-opacity:0.24705882352941178;stroke-width:2;stroke-miterlimit:10;stroke-linecap:square;" x1="268" x2="283" y1="142" y2="142"/>
  <line style="fill:none;stroke:rgb(255,127,0);stroke-opacity:0.24705882352941178;stroke-width:2;stroke-miterlimit:10;stroke-linecap:square;" x1="283" x2="283" y1="140" y2="142"/>
  <rect height="8" style="fill:rgb(255,127,0);fill-opacity:0.7490196078431373;stroke:none;" width="4" x="310" y="291"/>
  <line style="fill:none;stroke:rgb(255,127,0);stroke-opacity:0.24705882352941178;stroke-width:2;stroke-miterlimit:10;stroke-linecap:square;" x1="283" x2="312" y1="140" y2="140"/>
  <line style="fill:none;stroke:rgb(255,127,0);stroke-opacity:0.24705882352941178;stroke-width:2;stroke-miterlimit:10;stroke-linecap:square;" x1="312" x2="312" y1="138" y2="133"/>
  <rect height="8" style="fill:rgb(255,127,0);fill-opacity:0.7490196078431373;stroke:none;" width="4" x="339" y="291"/>
  <line style="fill:none;stroke:rgb(255,127,0);stroke-opacity:0.24705882352941178;stroke-width:2;stroke-miterlimit:10;stroke-linecap:square;" x1="312" x2="341" y1="131" y2="131"/>
  <line style="fill:none;stroke:rgb(255,127,0);stroke-opacity:0.24705882352941178;stroke-width:2;stroke-miterlimit:10;stroke-linecap:square;" x1="341" x2="341" y1="129" y2="124"/>
  <rect height="20" style="fill:rgb(255,127,0);fill-opacity:0.7490196078431373;stroke:none;" width="4" x="354" y="280"/>
  <line style="fill:none;stroke:rgb(255,127,0);stroke-opacity:0.24705882352941178;stroke-width:2;stroke-miterlimit:10;stroke-linecap:square;" x1="341" x2="356" y1="122" y2="122"/>
  <line style="fill:none;stroke:rgb(255,127,0);stroke-opacity:0.24705882352941178;stroke-width:2;stroke-miterlimit:10;stroke-linecap:square;" x1="356" x2="356" y1="120" y2="104"/>
  <rect height="22" style="fill:rgb(255,127,0);fill-opacity:0.7490196078431373;stroke:none;" width="4" x="368" y="277"/>
  <line style="fill:none;stroke:rgb(255,127,0);stroke-opacity:0.24705882352941178;stroke-width:2;stroke-miterlimit:10;stroke-linecap:square;" x1="356" x2="370" y1="102" y2="102"/>
  <line style="fill:none;stroke:rgb(255,127,0);stroke-opacity:0.24705882352941178;stroke-width:2;stroke-miterlimit:10;stroke-linecap:square;" x1="370" x2="370" y1="100" y2="82"/>
  <rect height="11" style="fill:rgb(255,127,0);fill-opacity:0.7490196078431373;stroke:none;" width="4" x="383" y="288"/>
  <line style="fill:none;stroke:rgb(255,127,0);stroke-opacity:0.24705882352941178;stroke-width:2;stroke-miterlimit:10;stroke-linecap:square;" x1="370" x2="385" y1="80" y2="80"/>
  <line style="fill:none;stroke:rgb(255,127,0);stroke-opacity:0.24705882352941178;stroke-width:2;stroke-miterlimit:10;stroke-linecap:square;" x1="385" x2="385" y1="78" y2="70"/>
  <rect height="8" style="fill:rgb(255,127,0);fill-opacity:0.7490196078431373;stroke:none;" width="4" x="398" y="291"/>
  <line style="fill:none;stroke:rgb(255,127,0);stroke-opacity:0.24705882352941178;stroke-width:2;stroke-miterlimit:10;stroke-linecap:square;" x1="385" x2="400" y1="68" y2="68"/>
  <line style="fill:none;stroke:rgb(255,127,0);stroke-opacity:0.24705882352941178;stroke-width:2;stroke-miterlimit:10;stroke-linecap:square;" x1="400" x2="400" y1="66" y2="62"/>
  <line style="fill:none;stroke:rgb(255,127,0);stroke-opacity:0.24705882352941178;stroke-width:2;stroke-miterlimit:10;stroke-linecap:square;" x1="400" x2="400" y1="60" y2="60"/>
  <line style="fill:none;stroke:rgb(255,127,0);stroke-opacity:0.4980392156862745;stroke-miterlimit:2;stroke-dasharray:2;" x1="50" x2="50" y1="300" y2="350"/>
  <line style="fill:none;stroke:rgb(255,127,0);stroke-opacity:0.4980392156862745;stroke-miterlimit:2;stroke-dasharray:2;" x1="64" x2="64" y1="300" y2="365"/>
  <line style="fill:none;stroke:rgb(255,127,0);stroke-opacity:0.4980392156862745;stroke-miterlimit:2;stroke-dasharray:2;" x1="64" x2="64" y1="300" y2="380"/>
  <line style="fill:none;stroke:rgb(255,127,0);stroke-opacity:0.4980392156862745;stroke-miterlimit:2;stroke-dasharray:2;" x1="64" x2="64" y1="300" y2="395"/>
  <line style="fill:none;stroke:rgb(255,127,0);stroke-opacity:0.4980392156862745;stroke-miterlimit:2;stroke-dasharray:2;" x1="64" x2="64" y1="300" y2="410"/>
  <line style="fill:none;stroke:rgb(255,127,0);stroke-opacity:0.4980392156862745;stroke-miterlimit:2;stroke-dasharray:2;" x1="64" x2="64" y1="300" y2="425"/>
  <line style="fill:none;stroke:rgb(255,127,0);stroke-opacity:0.4980392156862745;stroke-miterlimit:2;stroke-dasharray:2;" x1="64" x2="64" y1="300" y2="440"/>
  <line style="fill:none;stroke:rgb(255,127,0);stroke-opacity:0.4980392156862745;stroke-miterlimit:2;stroke-dasharray:2;" x1="64" x2="64" y1="300" y2="455"/>
  <line style="fill:none;stroke:rgb(255,127,0);stroke-opacity:0.4980392156862745;stroke-miterlimit:2;stroke-dasharray:2;" x1="79" x2="79" y1="300" y2="470"/>
  <line style="fill:none;stroke:rgb(255,127,0);stroke-opacity:0.4980392156862745;stroke-miterlimit:2;stroke-dasharray:2;" x1="79" x2="79" y1="300" y2="485"/>
  <line style="fill:none;stroke:rgb(255,127,0);stroke-opacity:0.4980392156862745;stroke-miterlimit:2;stroke-dasharray:2;" x1="79" x2="79" y1="300" y2="500"/>
  <line style="fill:none;stroke:rgb(255,127,0);stroke-opacity:0.4980392156862745;stroke-miterlimit:2;stroke-dasharray:2;" x1="79" x2="79" y1="300" y2="515"/>
  <line style="fill:none;stroke:rgb(255,127,0);stroke-opacity:0.4980392156862745;stroke-miterlimit:2;stroke-dasharray:2;" x1="79" x2="79" y1="300" y2="530"/>
  <line style="fill:none;stroke:rgb(255,127,0);stroke-opacity:0.4980392156862745;stroke-miterlimit:2;stroke-dasharray:2;" x1="79" x2="79" y1="300" y2="545"/>
  <line style="fill:none;stroke:rgb(255,127,0);stroke-opacity:0.4980392156862745;stroke-miterlimit:2;stroke-dasharray:2;" x1="79" x2="79" y1="300" y2="560"/>
  <line style="fill:none;stroke:rgb(255,127,0);stroke-opacity:0.4980392156862745;stroke-miterlimit:2;stroke-dasharray:2;" x1="93" x2="93" y1="300" y2="575"/>
  <line style="fill:none;stroke:rgb(255,127,0);stroke-opacity:0.4980392156862745;stroke-miterlimit:2;stroke-dasharray:2;" x1="93" x2="93" y1="300" y2="590"/>
  <line style="fill:none;stroke:rgb(255,127,0);stroke-opacity:0.4980392156862745;stroke-miterlimit:2;stroke-dasharray:2;" x1="93" x2="93" y1="300" y2="605"/>
  <line style="fill:none;stroke:rgb(255,127,0);stroke-opacity:0.4980392156862745;stroke-miterlimit:2;stroke-dasharray:2;" x1="108" x2="108" y1="300" y2="620"/>
  <line style="fill:none;stroke:rgb(255,127,0);stroke-opacity:0.4980392156862745;stroke-miterlimit:2;stroke-dasharray:2;" x1="108" x2="108" y1="300" y2="635"/>
  <line style="fill:none;stroke:rgb(255,127,0);stroke-opacity:0.4980392156862745;stroke-miterlimit:2;stroke-dasharray:2;" x1="108" x2="108" y1="300" y2="650"/>
  <line style="fill:none;stroke:rgb(255,127,0);stroke-opacity:0.4980392156862745;stroke-miterlimit:2;stroke-dasharray:2;" x1="108" x2="108" y1="300" y2="665"/>
  <line style="fill:none;stroke:rgb(255,127,0);stroke-opacity:0.4980392156862745;stroke-miterlimit:2;stroke-dasharray:2;" x1="108" x2="108" y1="300" y2="680"/>
  <line style="fill:none;stroke:rgb(255,127,0);stroke-opacity:0.4980392156862745;stroke-miterlimit:2;stroke-dasharray:2;" x1="108" x2="108" y1="300" y2="695"/>
  <line style="fill:none;stroke:rgb(255,127,0);stroke-opacity:0.4980392156862745;stroke-miterlimit:2;stroke-dasharray:2;" x1="122" x2="122" y1="300" y2="709"/>
  <line style="fill:none;stroke:rgb(255,127,0);stroke-opacity:0.4980392156862745;stroke-miterlimit:2;stroke-dasharray:2;" x1="122" x2="122" y1="300" y2="723"/>
  <line style="fill:none;stroke:rgb(255,127,0);stroke-opacity:0.4980392156862745;stroke-miterlimit:2;stroke-dasharray:2;" x1="137" x2="137" y1="300" y2="737"/>
  <line style="fill:none;stroke:rgb(255,127,0);stroke-opacity:0.4980392156862745;stroke-miterlimit:2;stroke-dasharray:2;" x1="152" x2="152" y1="300" y2="751"/>
  <line style="fill:none;stroke:rgb(255,127,0);stroke-opacity:0.4980392156862745;stroke-miterlimit:2;stroke-dasharray:2;" x1="152" x2="152" y1="300" y2="765"/>
  <line style="fill:none;stroke:rgb(255,127,0);stroke-opacity:0.4980392156862745;stroke-miterlimit:2;stroke-dasharray:2;" x1="152" x2="152" y1="300" y2="779"/>
  <line style="fill:none;stroke:rgb(255,127,0);stroke-opacity:0.4980392156862745;stroke-miterlimit:2;stroke-dasharray:2;" x1="181" x2="181" y1="300" y2="793"/>
  <line style="fill:none;stroke:rgb(255,127,0);stroke-opacity:0.4980392156862745;stroke-miterlimit:2;stroke-dasharray:2;" x1="195" x2="195" y1="300" y2="807"/>
  <line style="fill:none;stroke:rgb(255,127,0);stroke-opacity:0.4980392156862745;stroke-miterlimit:2;stroke-dasharray:2;" x1="195" x2="195" y1="300" y2="821"/>
  <line style="fill:none;stroke:rgb(255,127,0);stroke-opacity:0.4980392156862745;stroke-miterlimit:2;stroke-dasharray:2;" x1="195" x2="195" y1="300" y2="835"/>
  <line style="fill:none;stroke:rgb(255,127,0);stroke-opacity:0.4980392156862745;stroke-miterlimit:2;stroke-dasharray:2;" x1="210" x2="210" y1="300" y2="849"/>
  <line style="fill:none;stroke:rgb(255,127,0);stroke-opacity:0.4980392156862745;stroke-miterlimit:2;stroke-dasharray:2;" x1="210" x2="210" y1="300" y2="863"/>
  <line style="fill:none;stroke:rgb(255,127,0);stroke-opacity:0.4980392156862745;stroke-miterlimit:2;stroke-dasharray:2;" x1="225" x2="225" y1="300" y2="877"/>
  <line style="fill:none;stroke:rgb(255,127,0);stroke-opacity:0.4980392156862745;stroke-miterlimit:2;stroke-dasharray:2;" x1="225" x2="225" y1="300" y2="891"/>
  <line style="fill:none;stroke:rgb(255,127,0);stroke-opacity:0.4980392156862745;stroke-miterlimit:2;stroke-dasharray:2;" x1="225" x2="225" y1="300" y2="905"/>
  <line style="fill:none;stroke:rgb(255,127,0);stroke-opacity:0.4980392156862745;stroke-miterlimit:2;stroke-dasharray:2;" x1="239" x2="239" y1="300" y2="919"/>
  <line style="fill:none;stroke:rgb(255,127,0);stroke-opacity:0.4980392156862745;stroke-miterlimit:2;stroke-dasharray:2;" x1="239" x2="239" y1="300" y2="933"/>
  <line style="fill:none;stroke:rgb(255,127,0);stroke-opacity:0.4980392156862745;stroke-miterlimit:2;stroke-dasharray:2;" x1="239" x2="239" y1="300" y2="947"/>
  <line style="fill:none;stroke:rgb(255,127,0);stroke-opacity:0.4980392156862745;stroke-miterlimit:2;stroke-dasharray:2;" x1="254" x2="254" y1="300" y2="961"/>
  <line style="fill:none;stroke:rgb(255,127,0);stroke-opacity:0.4980392156862745;stroke-miterlimit:2;stroke-dasharray:2;" x1="254" x2="254" y1="300" y2="975"/>
  <line style="fill:none;stroke:rgb(255,127,0);stroke-opacity:0.4980392156862745;stroke-miterlimit:2;stroke-dasharray:2;" x1="254" x2="254" y1="300" y2="989"/>
  <line style="fill:none;stroke:rgb(255,127,0);stroke-opacity:0.4980392156862745;stroke-miterlimit:2;stroke-dasharray:2;" x1="254" x2="254" y1="300" y2="1003"/>
  <line style="fill:none;stroke:rgb(255,127,0);stroke-opacity:0.4980392156862745;stroke-miterlimit:2;stroke-dasharray:2;" x1="254" x2="254" y1="300" y2="1017"/>
  <line style="fill:none;stroke:rgb(255,127,0);stroke-opacity:0.4980392156862745;stroke-miterlimit:2;stroke-dasharray:2;" x1="254" x2="254" y1="300" y2="1031"/>
  <line style="fill:none;stroke:rgb(255,127,0);stroke-opacity:0.4980392156862745;stroke-miterlimit:2;stroke-dasharray:2;" x1="254" x2="254" y1="300" y2="1045"/>
  <line style="fill:none;stroke:rgb(255,127,0);stroke-opacity:0.4980392156862745;stroke-miterlimit:2;stroke-dasharray:2;" x1="254" x2="254" y1="300" y2="1059"/>
  <line style="fill:none;stroke:rgb(255,127,0);stroke-opacity:0.4980392156862745;stroke-miterlimit:2;stroke-dasharray:2;" x1="254" x2="254" y1="300" y2="1073"/>
  <line style="fill:none;stroke:rgb(255,127,0);stroke-opacity:0.4980392156862745;stroke-miterlimit:2;stroke-dasharray:2;" x1="268" x2="268" y1="300" y2="1087"/>
  <line style="fill:none;stroke:rgb(255,127,0);stroke-opacity:0.4980392156862745;stroke-miterlimit:2;stroke-dasharray:2;" x1="268" x2="268" y1="300" y2="1101"/>
  <line style="fill:none;stroke:rgb(255,127,0);stroke-opacity:0.4980392156862745;stroke-miterlimit:2;stroke-dasharray:2;" x1="268" x2="268" y1="300" y2="1115"/>
  <line style="fill:none;stroke:rgb(255,127,0);stroke-opacity:0.4980392156862745;stroke-miterlimit:2;stroke-dasharray:2;" x1="268" x2="268" y1="300" y2="1129"/>
  <line style="fill:none;stroke:rgb(255,127,0);stroke-opacity:0.4980392156862745;stroke-miterlimit:2;stroke-dasharray:2;" x1="283" x2="283" y1="300" y2="1143"/>
  <line style="fill:none;stroke:rgb(255,127,0);stroke-opacity:0.4980392156862745;stroke-miterlimit:2;stroke-dasharray:2;" x1="312" x2="312" y1="300" y2="1157"/>
  <line style="fill:none;stroke:rgb(255,127,0);stroke-opacity:0.4980392156862745;stroke-miterlimit:2;stroke-dasharray:2;" x1="312" x2="312" y1="300" y2="1171"/>
  <line style="fill:none;stroke:rgb(255,127,0);stroke-opacity:0.4980392156862745;stroke-miterlimit:2;stroke-dasharray:2;" x1="312" x2="312" y1="300" y2="1185"/>
  <line style="fill:none;stroke:rgb(255,127,0);stroke-opacity:0.4980392156862745;stroke-miterlimit:2;stroke-dasharray:2;" x1="341" x2="341" y1="300" y2="1199"/>
  <line style="fill:none;stroke:rgb(255,127,0);stroke-opacity:0.4980392156862745;stroke-miterlimit:2;stroke-dasharray:2;" x1="341" x2="341" y1="300" y2="1213"/>
  <line style="fill:none;stroke:rgb(255,127,0);stroke-opacity:0.4980392156862745;stroke-miterlimit:2;stroke-dasharray:2;" x1="341" x2="341" y1="300" y2="1227"/>
  <line style="fill:none;stroke:rgb(255,127,0);stroke-opacity:0.4980392156862745;stroke-miterlimit:2;stroke-dasharray:2;" x1="356" x2="356" y1="300" y2="1242"/>
  <line style="fill:none;stroke:rgb(255,127,0);stroke-opacity:0.4980392156862745;stroke-miterlimit:2;stroke-dasharray:2;" x1="356" x2="356" y1="300" y2="1257"/>
  <line style="fill:none;stroke:rgb(255,127,0);stroke-opacity:0.4980392156862745;stroke-miterlimit:2;stroke-dasharray:2;" x1="356" x2="356" y1="300" y2="1272"/>
  <line style="fill:none;stroke:rgb(255,127,0);stroke-opacity:0.4980392156862745;stroke-miterlimit:2;stroke-dasharray:2;" x1="356" x2="356" y1="300" y2="1287"/>
  <line style="fill:none;stroke:rgb(255,127,0);stroke-opacity:0.4980392156862745;stroke-miterlimit:2;stroke-dasharray:2;" x1="356" x2="356" y1="300" y2="1302"/>
  <line style="fill:none;stroke:rgb(255,127,0);stroke-opacity:0.4980392156862745;stroke-miterlimit:2;stroke-dasharray:2;" x1="356" x2="356" y1="300" y2="1317"/>
  <line style="fill:none;stroke:rgb(255,127,0);stroke-opacity:0.4980392156862745;stroke-miterlimit:2;stroke-dasharray:2;" x1="356" x2="356" y1="300" y2="1332"/>
  <line style="fill:none;stroke:rgb(255,127,0);stroke-opacity:0.4980392156862745;stroke-miterlimit:2;stroke-dasharray:2;" x1="370" x2="370" y1="300" y2="1347"/>
  <line style="fill:none;stroke:rgb(255,127,0);stroke-opacity:0.4980392156862745;stroke-miterlimit:2;stroke-dasharray:2;" x1="370" x2="370" y1="300" y2="1362"/>
  <line style="fill:none;stroke:rgb(255,127,0);stroke-opacity:0.4980392156862745;stroke-miterlimit:2;stroke-dasharray:2;" x1="370" x2="370" y1="300" y2="1377"/>
  <line style="fill:none;stroke:rgb(255,127,0);stroke-opacity:0.4980392156862745;stroke-miterlimit:2;stroke-dasharray:2;" x1="370" x2="370" y1="300" y2="1392"/>
  <line style="fill:none;stroke:rgb(255,127,0);stroke-opacity:0.4980392156862745;stroke-miterlimit:2;stroke-dasharray:2;" x1="370" x2="370" y1="300" y2="1407"/>
  <line style="fill:none;stroke:rgb(255,127,0);stroke-opacity:0.4980392156862745;stroke-miterlimit:2;stroke-dasharray:2;" x1="370" x2="370" y1="300" y2="1422"/>
  <line style="fill:none;stroke:rgb(255,127,0);stroke-opacity:0.4980392156862745;stroke-miterlimit:2;stroke-dasharray:2;" x1="370" x2="370" y1="300" y2="1437"/>
  <line style="fill:none;stroke:rgb(255,127,0);stroke-opacity:0.4980392156862745;stroke-miterlimit:2;stroke-dasharray:2;" x1="370" x2="370" y1="300" y2="1452"/>
  <line style="fill:none;stroke:rgb(255,127,0);stroke-opacity:0.4980392156862745;stroke-miterlimit:2;stroke-dasharray:2;" x1="385" x2="385" y1="300" y2="1467"/>
  <line style="fill:none;stroke:rgb(255,127,0);stroke-opacity:0.4980392156862745;stroke-miterlimit:2;stroke-dasharray:2;" x1="385" x2="385" y1="300" y2="1482"/>
  <line style="fill:none;stroke:rgb(255,127,0);stroke-opacity:0.4980392156862745;stroke-miterlimit:2;stroke-dasharray:2;" x1="385" x2="385" y1="300" y2="1497"/>
  <line style="fill:none;stroke:rgb(255,127,0);stroke-opacity:0.4980392156862745;stroke-miterlimit:2;stroke-dasharray:2;" x1="385" x2="385" y1="300" y2="1512"/>
  <line style="fill:none;stroke:rgb(255,127,0);stroke-opacity:0.4980392156862745;stroke-miterlimit:2;stroke-dasharray:2;" x1="400" x2="400" y1="300" y2="1527"/>
  <line style="fill:none;stroke:rgb(255,127,0);stroke-opacity:0.4980392156862745;stroke-miterlimit:2;stroke-dasharray:2;" x1="400" x2="400" y1="300" y2="1542"/>
  <line style="fill:none;stroke:rgb(255,127,0);stroke-opacity:0.4980392156862745;stroke-miterlimit:2;stroke-dasharray:2;" x1="400" x2="400" y1="300" y2="1557"/>
  <line style="fill:none;stroke:rgb(0,0,0);stroke-width:2;stroke-miterlimit:10;stroke-linecap:square;" x1="48" x2="48" y1="60" y2="300"/>
  <line style="fill:none;stroke:rgb(0,0,0);stroke-width:2;stroke-miterlimit:10;stroke-linecap:square;" x1="48" x2="402" y1="300" y2="300"/>
  <rect height="30" style="fill:rgb(255,255,255);stroke:none;" width="17" x="42" y="308"/>
  <text style="fill:rgb(0,0,0);stroke:none;font-size:25px;font-weight:bold;" x="42" y="332">0</text>
  <rect height="30" style="fill:rgb(255,255,255);stroke:none;" width="34" x="383" y="308"/>
  <text style="fill:rgb(0,0,0);stroke:none;font-size:25px;font-weight:bold;" x="383" y="332">24</text>
  <text style="fill:rgb(0,0,0);stroke:none;font-size:25px;font-weight:bold;" x="25" y="312">0</text>
  <text style="fill:rgb(0,0,0);stroke:none;font-size:25px;font-weight:bold;" x="25" y="72">1</text>
  <text style="fill:rgb(0,0,0);stroke:none;font-size:25px;font-weight:bold;" x="120" y="42">NABA_MATRISOME</text>
  <rect height="12" style="fill:rgb(255,255,255);stroke:none;" width="29" x="50" y="338"/>
  <text style="fill:rgb(128,128,128);stroke:none;" x="50" y="350">NID2</text>
  <rect height="12" style="fill:rgb(255,255,255);stroke:none;" width="26" x="64" y="353"/>
  <text style="fill:rgb(128,128,128);stroke:none;" x="64" y="365">VWF</text>
  <rect height="12" style="fill:rgb(255,255,255);stroke:none;" width="30" x="64" y="368"/>
  <text style="fill:rgb(128,128,128);stroke:none;" x="64" y="380">CTSK</text>
  <rect height="12" style="fill:rgb(255,255,255);stroke:none;" width="32" x="64" y="383"/>
  <text style="fill:rgb(128,128,128);stroke:none;" x="64" y="395">COLQ</text>
  <rect height="12" style="fill:rgb(255,255,255);stroke:none;" width="40" x="64" y="398"/>
  <text style="fill:rgb(128,128,128);stroke:none;" x="64" y="410">LAMB4</text>
  <rect height="12" style="fill:rgb(255,255,255);stroke:none;" width="47" x="64" y="413"/>
  <text style="fill:rgb(128,128,128);stroke:none;" x="64" y="425">FGFBP1</text>
  <rect height="12" style="fill:rgb(255,255,255);stroke:none;" width="46" x="64" y="428"/>
  <text style="fill:rgb(128,128,128);stroke:none;" x="64" y="440">CLEC7A</text>
  <rect height="12" style="fill:rgb(255,255,255);stroke:none;" width="60" x="64" y="443"/>
  <text style="fill:rgb(128,128,128);stroke:none;" x="64" y="455">SERPINE2</text>
  <rect height="12" style="fill:rgb(255,255,255);stroke:none;" width="24" x="79" y="458"/>
  <text style="fill:rgb(128,128,128);stroke:none;" x="79" y="470">TNC</text>
  <rect height="12" style="fill:rgb(255,255,255);stroke:none;" width="33" x="79" y="473"/>
  <text style="fill:rgb(128,128,128);stroke:none;" x="79" y="485">BDNF</text>
  <rect height="12" style="fill:rgb(255,255,255);stroke:none;" width="33" x="79" y="488"/>
  <text style="fill:rgb(128,128,128);stroke:none;" x="79" y="500">PRG2</text>
  <rect height="12" style="fill:rgb(255,255,255);stroke:none;" width="33" x="79" y="503"/>
  <text style="fill:rgb(128,128,128);stroke:none;" x="79" y="515">C1QC</text>
  <rect height="12" style="fill:rgb(255,255,255);stroke:none;" width="42" x="79" y="518"/>
  <text style="fill:rgb(128,128,128);stroke:none;" x="79" y="530">OVGP1</text>
  <rect height="12" style="fill:rgb(255,255,255);stroke:none;" width="41" x="79" y="533"/>
  <text style="fill:rgb(128,128,128);stroke:none;" x="79" y="545">VEGFD</text>
  <rect height="12" style="fill:rgb(255,255,255);stroke:none;" width="38" x="79" y="548"/>
  <text style="fill:rgb(128,128,128);stroke:none;" x="79" y="560">SULF2</text>
  <rect height="12" style="fill:rgb(255,255,255);stroke:none;" width="40" x="93" y="563"/>
  <text style="fill:rgb(128,128,128);stroke:none;" x="93" y="575">LAMC1</text>
  <rect height="12" style="fill:rgb(255,255,255);stroke:none;" width="45" x="93" y="578"/>
  <text style="fill:rgb(128,128,128);stroke:none;" x="93" y="590">LGALS2</text>
  <rect height="12" style="fill:rgb(255,255,255);stroke:none;" width="47" x="93" y="593"/>
  <text style="fill:rgb(128,128,128);stroke:none;" x="93" y="605">COL8A2</text>
  <rect height="12" style="fill:rgb(255,255,255);stroke:none;" width="35" x="108" y="608"/>
  <text style="fill:rgb(128,128,128);stroke:none;" x="108" y="620">FMOD</text>
  <rect height="12" style="fill:rgb(255,255,255);stroke:none;" width="40" x="108" y="623"/>
  <text style="fill:rgb(128,128,128);stroke:none;" x="108" y="635">LAMC2</text>
  <rect height="12" style="fill:rgb(255,255,255);stroke:none;" width="40" x="108" y="638"/>
  <text style="fill:rgb(128,128,128);stroke:none;" x="108" y="650">ANXA7</text>
  <rect height="12" style="fill:rgb(255,255,255);stroke:none;" width="38" x="108" y="653"/>
  <text style="fill:rgb(128,128,128);stroke:none;" x="108" y="665">EMID1</text>
  <rect height="12" style="fill:rgb(255,255,255);stroke:none;" width="40" x="108" y="668"/>
  <text style="fill:rgb(128,128,128);stroke:none;" x="108" y="680">VEGFA</text>
  <rect height="12" style="fill:rgb(255,255,255);stroke:none;" width="48" x="108" y="683"/>
  <text style="fill:rgb(128,128,128);stroke:none;" x="108" y="695">S100A7</text>
  <rect height="11" style="fill:rgb(255,255,255);stroke:none;" width="36" x="122" y="698"/>
  <text style="fill:rgb(128,128,128);stroke:none;font-size:11px;" x="122" y="709">S100P</text>
  <rect height="11" style="fill:rgb(255,255,255);stroke:none;" width="43" x="122" y="712"/>
  <text style="fill:rgb(128,128,128);stroke:none;font-size:11px;" x="122" y="723">S100A9</text>
  <rect height="11" style="fill:rgb(255,255,255);stroke:none;" width="51" x="137" y="726"/>
  <text style="fill:rgb(128,128,128);stroke:none;font-size:11px;" x="137" y="737">COL13A1</text>
  <rect height="11" style="fill:rgb(255,255,255);stroke:none;" width="28" x="152" y="740"/>
  <text style="fill:rgb(128,128,128);stroke:none;font-size:11px;" x="152" y="751">PLAU</text>
  <rect height="11" style="fill:rgb(255,255,255);stroke:none;" width="37" x="152" y="754"/>
  <text style="fill:rgb(128,128,128);stroke:none;font-size:11px;" x="152" y="765">TGFB1</text>
  <rect height="11" style="fill:rgb(255,255,255);stroke:none;" width="43" x="152" y="768"/>
  <text style="fill:rgb(128,128,128);stroke:none;font-size:11px;" x="152" y="779">FAM20A</text>
  <rect height="11" style="fill:rgb(255,255,255);stroke:none;" width="60" x="181" y="782"/>
  <text style="fill:rgb(128,128,128);stroke:none;font-size:11px;" x="181" y="793">ADAMTS14</text>
  <rect height="11" style="fill:rgb(255,255,255);stroke:none;" width="37" x="195" y="796"/>
  <text style="fill:rgb(128,128,128);stroke:none;font-size:11px;" x="195" y="807">EGLN2</text>
  <rect height="11" style="fill:rgb(255,255,255);stroke:none;" width="36" x="195" y="810"/>
  <text style="fill:rgb(128,128,128);stroke:none;font-size:11px;" x="195" y="821">IL1F10</text>
  <rect height="11" style="fill:rgb(255,255,255);stroke:none;" width="49" x="195" y="824"/>
  <text style="fill:rgb(128,128,128);stroke:none;font-size:11px;" x="195" y="835">TNFSF14</text>
  <rect height="11" style="fill:rgb(255,255,255);stroke:none;" width="21" x="210" y="838"/>
  <text style="fill:rgb(128,128,128);stroke:none;font-size:11px;" x="210" y="849">TNF</text>
  <rect height="11" style="fill:rgb(255,255,255);stroke:none;" width="36" x="210" y="852"/>
  <text style="fill:rgb(128,128,128);stroke:none;font-size:11px;" x="210" y="863">MFAP1</text>
  <rect height="11" style="fill:rgb(255,255,255);stroke:none;" width="29" x="225" y="866"/>
  <text style="fill:rgb(128,128,128);stroke:none;font-size:11px;" x="225" y="877">CCL2</text>
  <rect height="11" style="fill:rgb(255,255,255);stroke:none;" width="45" x="225" y="880"/>
  <text style="fill:rgb(128,128,128);stroke:none;font-size:11px;" x="225" y="891">ADAM22</text>
  <rect height="11" style="fill:rgb(255,255,255);stroke:none;" width="44" x="225" y="894"/>
  <text style="fill:rgb(128,128,128);stroke:none;font-size:11px;" x="225" y="905">COL7A1</text>
  <rect height="11" style="fill:rgb(255,255,255);stroke:none;" width="37" x="239" y="908"/>
  <text style="fill:rgb(128,128,128);stroke:none;font-size:11px;" x="239" y="919">FNDC1</text>
  <rect height="11" style="fill:rgb(255,255,255);stroke:none;" width="32" x="239" y="922"/>
  <text style="fill:rgb(128,128,128);stroke:none;font-size:11px;" x="239" y="933">KITLG</text>
  <rect height="11" style="fill:rgb(255,255,255);stroke:none;" width="53" x="239" y="936"/>
  <text style="fill:rgb(128,128,128);stroke:none;font-size:11px;" x="239" y="947">ADAMTS1</text>
  <rect height="11" style="fill:rgb(255,255,255);stroke:none;" width="29" x="254" y="950"/>
  <text style="fill:rgb(128,128,128);stroke:none;font-size:11px;" x="254" y="961">RPTN</text>
  <rect height="11" style="fill:rgb(255,255,255);stroke:none;" width="28" x="254" y="964"/>
  <text style="fill:rgb(128,128,128);stroke:none;font-size:11px;" x="254" y="975">NTF4</text>
  <rect height="11" style="fill:rgb(255,255,255);stroke:none;" width="31" x="254" y="978"/>
  <text style="fill:rgb(128,128,128);stroke:none;font-size:11px;" x="254" y="989">GPC2</text>
  <rect height="11" style="fill:rgb(255,255,255);stroke:none;" width="23" x="254" y="992"/>
  <text style="fill:rgb(128,128,128);stroke:none;font-size:11px;" x="254" y="1003">IL37</text>
  <rect height="11" style="fill:rgb(255,255,255);stroke:none;" width="35" x="254" y="1006"/>
  <text style="fill:rgb(128,128,128);stroke:none;font-size:11px;" x="254" y="1017">HYAL3</text>
  <rect height="11" style="fill:rgb(255,255,255);stroke:none;" width="38" x="254" y="1020"/>
  <text style="fill:rgb(128,128,128);stroke:none;font-size:11px;" x="254" y="1031">MEGF6</text>
  <rect height="11" style="fill:rgb(255,255,255);stroke:none;" width="43" x="254" y="1034"/>
  <text style="fill:rgb(128,128,128);stroke:none;font-size:11px;" x="254" y="1045">CRELD1</text>
  <rect height="11" style="fill:rgb(255,255,255);stroke:none;" width="44" x="254" y="1048"/>
  <text style="fill:rgb(128,128,128);stroke:none;font-size:11px;" x="254" y="1059">SEMA4F</text>
  <rect height="11" style="fill:rgb(255,255,255);stroke:none;" width="44" x="254" y="1062"/>
  <text style="fill:rgb(128,128,128);stroke:none;font-size:11px;" x="254" y="1073">COL5A3</text>
  <rect height="11" style="fill:rgb(255,255,255);stroke:none;" width="39" x="268" y="1076"/>
  <text style="fill:rgb(128,128,128);stroke:none;font-size:11px;" x="268" y="1087">MUC15</text>
  <rect height="11" style="fill:rgb(255,255,255);stroke:none;" width="39" x="268" y="1090"/>
  <text style="fill:rgb(128,128,128);stroke:none;font-size:11px;" x="268" y="1101">ANOS1</text>
  <rect height="11" style="fill:rgb(255,255,255);stroke:none;" width="45" x="268" y="1104"/>
  <text style="fill:rgb(128,128,128);stroke:none;font-size:11px;" x="268" y="1115">PODNL1</text>
  <rect height="11" style="fill:rgb(255,255,255);stroke:none;" width="52" x="268" y="1118"/>
  <text style="fill:rgb(128,128,128);stroke:none;font-size:11px;" x="268" y="1129">C1QTNF7</text>
  <rect height="11" style="fill:rgb(255,255,255);stroke:none;" width="36" x="283" y="1132"/>
  <text style="fill:rgb(128,128,128);stroke:none;font-size:11px;" x="283" y="1143">CCL26</text>
  <rect height="11" style="fill:rgb(255,255,255);stroke:none;" width="31" x="312" y="1146"/>
  <text style="fill:rgb(128,128,128);stroke:none;font-size:11px;" x="312" y="1157">CRNN</text>
  <rect height="11" style="fill:rgb(255,255,255);stroke:none;" width="33" x="312" y="1160"/>
  <text style="fill:rgb(128,128,128);stroke:none;font-size:11px;" x="312" y="1171">TIMP3</text>
  <rect height="11" style="fill:rgb(255,255,255);stroke:none;" width="53" x="312" y="1174"/>
  <text style="fill:rgb(128,128,128);stroke:none;font-size:11px;" x="312" y="1185">ADAMTS9</text>
  <rect height="11" style="fill:rgb(255,255,255);stroke:none;" width="25" x="341" y="1188"/>
  <text style="fill:rgb(128,128,128);stroke:none;font-size:11px;" x="341" y="1199">MGP</text>
  <rect height="11" style="fill:rgb(255,255,255);stroke:none;" width="32" x="341" y="1202"/>
  <text style="fill:rgb(128,128,128);stroke:none;font-size:11px;" x="341" y="1213">CTSG</text>
  <rect height="11" style="fill:rgb(255,255,255);stroke:none;" width="52" x="341" y="1216"/>
  <text style="fill:rgb(128,128,128);stroke:none;font-size:11px;" x="341" y="1227">C1QTNF3</text>
  <rect height="12" style="fill:rgb(255,255,255);stroke:none;" width="38" x="356" y="1230"/>
  <text style="fill:rgb(128,128,128);stroke:none;" x="356" y="1242">FBLN1</text>
  <rect height="12" style="fill:rgb(255,255,255);stroke:none;" width="32" x="356" y="1245"/>
  <text style="fill:rgb(128,128,128);stroke:none;" x="356" y="1257">SLIT3</text>
  <rect height="12" style="fill:rgb(255,255,255);stroke:none;" width="41" x="356" y="1260"/>
  <text style="fill:rgb(128,128,128);stroke:none;" x="356" y="1272">MFAP4</text>
  <rect height="12" style="fill:rgb(255,255,255);stroke:none;" width="43" x="356" y="1275"/>
  <text style="fill:rgb(128,128,128);stroke:none;" x="356" y="1287">IGFBP3</text>
  <rect height="12" style="fill:rgb(255,255,255);stroke:none;" width="49" x="356" y="1290"/>
  <text style="fill:rgb(128,128,128);stroke:none;" x="356" y="1302">ANGPT1</text>
  <rect height="12" style="fill:rgb(255,255,255);stroke:none;" width="45" x="356" y="1305"/>
  <text style="fill:rgb(128,128,128);stroke:none;" x="356" y="1317">CXCL12</text>
  <rect height="12" style="fill:rgb(255,255,255);stroke:none;" width="55" x="356" y="1320"/>
  <text style="fill:rgb(128,128,128);stroke:none;" x="356" y="1332">COL15A1</text>
  <rect height="12" style="fill:rgb(255,255,255);stroke:none;" width="26" x="370" y="1335"/>
  <text style="fill:rgb(128,128,128);stroke:none;" x="370" y="1347">A2M</text>
  <rect height="12" style="fill:rgb(255,255,255);stroke:none;" width="25" x="370" y="1350"/>
  <text style="fill:rgb(128,128,128);stroke:none;" x="370" y="1362">LUM</text>
  <rect height="12" style="fill:rgb(255,255,255);stroke:none;" width="35" x="370" y="1365"/>
  <text style="fill:rgb(128,128,128);stroke:none;" x="370" y="1377">EMCN</text>
  <rect height="12" style="fill:rgb(255,255,255);stroke:none;" width="38" x="370" y="1380"/>
  <text style="fill:rgb(128,128,128);stroke:none;" x="370" y="1392">FBLN5</text>
  <rect height="12" style="fill:rgb(255,255,255);stroke:none;" width="43" x="370" y="1395"/>
  <text style="fill:rgb(128,128,128);stroke:none;" x="370" y="1407">IGFBP7</text>
  <rect height="12" style="fill:rgb(255,255,255);stroke:none;" width="47" x="370" y="1410"/>
  <text style="fill:rgb(128,128,128);stroke:none;" x="370" y="1422">COL1A2</text>
  <rect height="12" style="fill:rgb(255,255,255);stroke:none;" width="50" x="370" y="1425"/>
  <text style="fill:rgb(128,128,128);stroke:none;" x="370" y="1437">TNFAIP6</text>
  <rect height="12" style="fill:rgb(255,255,255);stroke:none;" width="54" x="370" y="1440"/>
  <text style="fill:rgb(128,128,128);stroke:none;" x="370" y="1452">SPARCL1</text>
  <rect height="12" style="fill:rgb(255,255,255);stroke:none;" width="24" x="385" y="1455"/>
  <text style="fill:rgb(128,128,128);stroke:none;" x="385" y="1467">FN1</text>
  <rect height="12" style="fill:rgb(255,255,255);stroke:none;" width="33" x="385" y="1470"/>
  <text style="fill:rgb(128,128,128);stroke:none;" x="385" y="1482">NTN1</text>
  <rect height="12" style="fill:rgb(255,255,255);stroke:none;" width="39" x="385" y="1485"/>
  <text style="fill:rgb(128,128,128);stroke:none;" x="385" y="1497">F13A1</text>
  <rect height="12" style="fill:rgb(255,255,255);stroke:none;" width="46" x="385" y="1500"/>
  <text style="fill:rgb(128,128,128);stroke:none;" x="385" y="1512">CLEC3B</text>
  <rect height="12" style="fill:rgb(255,255,255);stroke:none;" width="24" x="400" y="1515"/>
  <text style="fill:rgb(128,128,128);stroke:none;" x="400" y="1527">HPX</text>
  <rect height="12" style="fill:rgb(255,255,255);stroke:none;" width="41" x="400" y="1530"/>
  <text style="fill:rgb(128,128,128);stroke:none;" x="400" y="1542">IGFALS</text>
  <rect height="12" style="fill:rgb(255,255,255);stroke:none;" width="55" x="400" y="1545"/>
  <text style="fill:rgb(128,128,128);stroke:none;" x="400" y="1557">COL23A1</text>
</svg>
