<?xml version="1.0" encoding="UTF-8" standalone="no"?>
<!DOCTYPE svg PUBLIC "-//W3C//DTD SVG 1.1//EN" "http://www.w3.org/Graphics/SVG/1.1/DTD/svg11.dtd">
<svg xmlns:xlink="http://www.w3.org/1999/xlink" height="158.74999999999997mm" version="1.1" viewBox="0 0 500 600" width="132.29166666666666mm" x="0mm" y="0mm" xmlns="http://www.w3.org/2000/svg">
  <rect height="1200" style="fill:rgb(255,255,255);stroke:none;" width="1000" x="0" y="0"/>
  <rect height="240" style="fill:rgb(191,191,191);fill-opacity:0.4980392156862745;stroke:none;" width="175" x="225" y="60"/>
  <line style="fill:none;stroke:rgb(63,63,191);stroke-opacity:0.24705882352941178;stroke-miterlimit:10;stroke-linecap:square;" x1="50" x2="50" y1="300" y2="300"/>
  <line style="fill:none;stroke:rgb(63,63,191);stroke-opacity:0.24705882352941178;stroke-miterlimit:10;stroke-linecap:square;" x1="50" x2="64" y1="300" y2="290"/>
  <line style="fill:none;stroke:rgb(63,63,191);stroke-opacity:0.24705882352941178;stroke-miterlimit:10;stroke-linecap:square;" x1="64" x2="79" y1="290" y2="280"/>
  <line style="fill:none;stroke:rgb(63,63,191);stroke-opacity:0.24705882352941178;stroke-miterlimit:10;stroke-linecap:square;" x1="79" x2="93" y1="280" y2="270"/>
  <line style="fill:none;stroke:rgb(63,63,191);stroke-opacity:0.24705882352941178;stroke-miterlimit:10;stroke-linecap:square;" x1="93" x2="108" y1="270" y2="260"/>
  <line style="fill:none;stroke:rgb(63,63,191);stroke-opacity:0.24705882352941178;stroke-miterlimit:10;stroke-linecap:square;" x1="108" x2="122" y1="260" y2="250"/>
  <line style="fill:none;stroke:rgb(63,63,191);stroke-opacity:0.24705882352941178;stroke-miterlimit:10;stroke-linecap:square;" x1="122" x2="137" y1="250" y2="240"/>
  <line style="fill:none;stroke:rgb(63,63,191);stroke-opacity:0.24705882352941178;stroke-miterlimit:10;stroke-linecap:square;" x1="137" x2="152" y1="240" y2="230"/>
  <line style="fill:none;stroke:rgb(63,63,191);stroke-opacity:0.24705882352941178;stroke-miterlimit:10;stroke-linecap:square;" x1="152" x2="166" y1="230" y2="220"/>
  <line style="fill:none;stroke:rgb(63,63,191);stroke-opacity:0.24705882352941178;stroke-miterlimit:10;stroke-linecap:square;" x1="166" x2="181" y1="220" y2="210"/>
  <line style="fill:none;stroke:rgb(63,63,191);stroke-opacity:0.24705882352941178;stroke-miterlimit:10;stroke-linecap:square;" x1="181" x2="195" y1="210" y2="200"/>
  <line style="fill:none;stroke:rgb(63,63,191);stroke-opacity:0.24705882352941178;stroke-miterlimit:10;stroke-linecap:square;" x1="195" x2="210" y1="200" y2="190"/>
  <line style="fill:none;stroke:rgb(63,63,191);stroke-opacity:0.24705882352941178;stroke-miterlimit:10;stroke-linecap:square;" x1="210" x2="225" y1="190" y2="180"/>
  <line style="fill:none;stroke:rgb(63,63,191);stroke-opacity:0.24705882352941178;stroke-miterlimit:10;stroke-linecap:square;" x1="225" x2="239" y1="180" y2="170"/>
  <line style="fill:none;stroke:rgb(63,63,191);stroke-opacity:0.24705882352941178;stroke-miterlimit:10;stroke-linecap:square;" x1="239" x2="254" y1="170" y2="160"/>
  <line style="fill:none;stroke:rgb(63,63,191);stroke-opacity:0.24705882352941178;stroke-miterlimit:10;stroke-linecap:square;" x1="254" x2="268" y1="160" y2="150"/>
  <line style="fill:none;stroke:rgb(63,63,191);stroke-opacity:0.24705882352941178;stroke-miterlimit:10;stroke-linecap:square;" x1="268" x2="283" y1="150" y2="140"/>
  <line style="fill:none;stroke:rgb(63,63,191);stroke-opacity:0.24705882352941178;stroke-miterlimit:10;stroke-linecap:square;" x1="283" x2="297" y1="140" y2="130"/>
  <line style="fill:none;stroke:rgb(63,63,191);stroke-opacity:0.24705882352941178;stroke-miterlimit:10;stroke-linecap:square;" x1="297" x2="312" y1="130" y2="120"/>
  <line style="fill:none;stroke:rgb(63,63,191);stroke-opacity:0.24705882352941178;stroke-miterlimit:10;stroke-linecap:square;" x1="312" x2="327" y1="120" y2="110"/>
  <line style="fill:none;stroke:rgb(63,63,191);stroke-opacity:0.24705882352941178;stroke-miterlimit:10;stroke-linecap:square;" x1="327" x2="341" y1="110" y2="100"/>
  <line style="fill:none;stroke:rgb(63,63,191);stroke-opacity:0.24705882352941178;stroke-miterlimit:10;stroke-linecap:square;" x1="341" x2="356" y1="100" y2="90"/>
  <line style="fill:none;stroke:rgb(63,63,191);stroke-opacity:0.24705882352941178;stroke-miterlimit:10;stroke-linecap:square;" x1="356" x2="370" y1="90" y2="80"/>
  <line style="fill:none;stroke:rgb(63,63,191);stroke-opacity:0.24705882352941178;stroke-miterlimit:10;stroke-linecap:square;" x1="370" x2="385" y1="80" y2="70"/>
  <line style="fill:none;stroke:rgb(63,63,191);stroke-opacity:0.24705882352941178;stroke-miterlimit:10;stroke-linecap:square;" x1="385" x2="400" y1="70" y2="60"/>
  <line style="fill:none;stroke:rgb(63,63,191);stroke-opacity:0.24705882352941178;stroke-miterlimit:10;stroke-linecap:square;" x1="400" x2="400" y1="60" y2="60"/>
  <rect height="2" style="fill:rgb(255,127,0);fill-opacity:0.7490196078431373;stroke:none;" width="4" x="48" y="297"/>
  <line style="fill:none;stroke:rgb(255,127,0);stroke-opacity:0.24705882352941178;stroke-width:2;stroke-miterlimit:10;stroke-linecap:square;" x1="50" x2="50" y1="300" y2="300"/>
  <line style="fill:none;stroke:rgb(255,127,0);stroke-opacity:0.24705882352941178;stroke-width:2;stroke-miterlimit:10;stroke-linecap:square;" x1="50" x2="50" y1="298" y2="299"/>
  <rect height="15" style="fill:rgb(255,127,0);fill-opacity:0.7490196078431373;stroke:none;" width="4" x="62" y="284"/>
  <line style="fill:none;stroke:rgb(255,127,0);stroke-opacity:0.24705882352941178;stroke-width:2;stroke-miterlimit:10;stroke-linecap:square;" x1="50" x2="64" y1="297" y2="297"/>
  <line style="fill:none;stroke:rgb(255,127,0);stroke-opacity:0.24705882352941178;stroke-width:2;stroke-miterlimit:10;stroke-linecap:square;" x1="64" x2="64" y1="295" y2="283"/>
  <rect height="5" style="fill:rgb(255,127,0);fill-opacity:0.7490196078431373;stroke:none;" width="4" x="77" y="294"/>
  <line style="fill:none;stroke:rgb(255,127,0);stroke-opacity:0.24705882352941178;stroke-width:2;stroke-miterlimit:10;stroke-linecap:square;" x1="64" x2="79" y1="281" y2="281"/>
  <line style="fill:none;stroke:rgb(255,127,0);stroke-opacity:0.24705882352941178;stroke-width:2;stroke-miterlimit:10;stroke-linecap:square;" x1="79" x2="79" y1="279" y2="278"/>
  <rect height="13" style="fill:rgb(255,127,0);fill-opacity:0.7490196078431373;stroke:none;" width="4" x="91" y="286"/>
  <line style="fill:none;stroke:rgb(255,127,0);stroke-opacity:0.24705882352941178;stroke-width:2;stroke-miterlimit:10;stroke-linecap:square;" x1="79" x2="93" y1="276" y2="276"/>
  <line style="fill:none;stroke:rgb(255,127,0);stroke-opacity:0.24705882352941178;stroke-width:2;stroke-miterlimit:10;stroke-linecap:square;" x1="93" x2="93" y1="274" y2="265"/>
  <rect height="15" style="fill:rgb(255,127,0);fill-opacity:0.7490196078431373;stroke:none;" width="4" x="106" y="284"/>
  <line style="fill:none;stroke:rgb(255,127,0);stroke-opacity:0.24705882352941178;stroke-width:2;stroke-miterlimit:10;stroke-linecap:square;" x1="93" x2="108" y1="263" y2="263"/>
  <line style="fill:none;stroke:rgb(255,127,0);stroke-opacity:0.24705882352941178;stroke-width:2;stroke-miterlimit:10;stroke-linecap:square;" x1="108" x2="108" y1="261" y2="249"/>
  <rect height="5" style="fill:rgb(255,127,0);fill-opacity:0.7490196078431373;stroke:none;" width="4" x="120" y="294"/>
  <line style="fill:none;stroke:rgb(255,127,0);stroke-opacity:0.24705882352941178;stroke-width:2;stroke-miterlimit:10;stroke-linecap:square;" x1="108" x2="122" y1="247" y2="247"/>
  <line style="fill:none;stroke:rgb(255,127,0);stroke-opacity:0.24705882352941178;stroke-width:2;stroke-miterlimit:10;stroke-linecap:square;" x1="122" x2="122" y1="245" y2="243"/>
  <rect height="7" style="fill:rgb(255,127,0);fill-opacity:0.7490196078431373;stroke:none;" width="4" x="150" y="292"/>
  <line style="fill:none;stroke:rgb(255,127,0);stroke-opacity:0.24705882352941178;stroke-width:2;stroke-miterlimit:10;stroke-linecap:square;" x1="122" x2="152" y1="241" y2="241"/>
  <line style="fill:none;stroke:rgb(255,127,0);stroke-opacity:0.24705882352941178;stroke-width:2;stroke-miterlimit:10;stroke-linecap:square;" x1="152" x2="152" y1="239" y2="236"/>
  <rect height="5" style="fill:rgb(255,127,0);fill-opacity:0.7490196078431373;stroke:none;" width="4" x="164" y="294"/>
  <line style="fill:none;stroke:rgb(255,127,0);stroke-opacity:0.24705882352941178;stroke-width:2;stroke-miterlimit:10;stroke-linecap:square;" x1="152" x2="166" y1="234" y2="234"/>
  <line style="fill:none;stroke:rgb(255,127,0);stroke-opacity:0.24705882352941178;stroke-width:2;stroke-miterlimit:10;stroke-linecap:square;" x1="166" x2="166" y1="232" y2="230"/>
  <rect height="2" style="fill:rgb(255,127,0);fill-opacity:0.7490196078431373;stroke:none;" width="4" x="179" y="297"/>
  <line style="fill:none;stroke:rgb(255,127,0);stroke-opacity:0.24705882352941178;stroke-width:2;stroke-miterlimit:10;stroke-linecap:square;" x1="166" x2="181" y1="228" y2="228"/>
  <line style="fill:none;stroke:rgb(255,127,0);stroke-opacity:0.24705882352941178;stroke-width:2;stroke-miterlimit:10;stroke-linecap:square;" x1="181" x2="181" y1="226" y2="228"/>
  <rect height="18" style="fill:rgb(255,127,0);fill-opacity:0.7490196078431373;stroke:none;" width="4" x="193" y="281"/>
  <line style="fill:none;stroke:rgb(255,127,0);stroke-opacity:0.24705882352941178;stroke-width:2;stroke-miterlimit:10;stroke-linecap:square;" x1="181" x2="195" y1="226" y2="226"/>
  <line style="fill:none;stroke:rgb(255,127,0);stroke-opacity:0.24705882352941178;stroke-width:2;stroke-miterlimit:10;stroke-linecap:square;" x1="195" x2="195" y1="224" y2="209"/>
  <rect height="23" style="fill:rgb(255,127,0);fill-opacity:0.7490196078431373;stroke:none;" width="4" x="208" y="276"/>
  <line style="fill:none;stroke:rgb(255,127,0);stroke-opacity:0.24705882352941178;stroke-width:2;stroke-miterlimit:10;stroke-linecap:square;" x1="195" x2="210" y1="207" y2="207"/>
  <line style="fill:none;stroke:rgb(255,127,0);stroke-opacity:0.24705882352941178;stroke-width:2;stroke-miterlimit:10;stroke-linecap:square;" x1="210" x2="210" y1="205" y2="185"/>
  <rect height="29" style="fill:rgb(255,127,0);fill-opacity:0.7490196078431373;stroke:none;" width="4" x="223" y="270"/>
  <line style="fill:none;stroke:rgb(255,127,0);stroke-opacity:0.24705882352941178;stroke-width:2;stroke-miterlimit:10;stroke-linecap:square;" x1="210" x2="225" y1="183" y2="183"/>
  <line style="fill:none;stroke:rgb(255,127,0);stroke-opacity:0.24705882352941178;stroke-width:2;stroke-miterlimit:10;stroke-linecap:square;" x1="225" x2="225" y1="181" y2="156"/>
  <rect height="21" style="fill:rgb(255,127,0);fill-opacity:0.7490196078431373;stroke:none;" width="4" x="237" y="278"/>
  <line style="fill:none;stroke:rgb(255,127,0);stroke-opacity:0.24705882352941178;stroke-width:2;stroke-miterlimit:10;stroke-linecap:square;" x1="225" x2="239" y1="154" y2="154"/>
  <line style="fill:none;stroke:rgb(255,127,0);stroke-opacity:0.24705882352941178;stroke-width:2;stroke-miterlimit:10;stroke-linecap:square;" x1="239" x2="239" y1="152" y2="135"/>
  <rect height="31" style="fill:rgb(255,127,0);fill-opacity:0.7490196078431373;stroke:none;" width="4" x="252" y="268"/>
  <line style="fill:none;stroke:rgb(255,127,0);stroke-opacity:0.24705882352941178;stroke-width:2;stroke-miterlimit:10;stroke-linecap:square;" x1="239" x2="254" y1="133" y2="133"/>
  <line style="fill:none;stroke:rgb(255,127,0);stroke-opacity:0.24705882352941178;stroke-width:2;stroke-miterlimit:10;stroke-linecap:square;" x1="254" x2="254" y1="131" y2="104"/>
  <rect height="15" style="fill:rgb(255,127,0);fill-opacity:0.7490196078431373;stroke:none;" width="4" x="266" y="284"/>
  <line style="fill:none;stroke:rgb(255,127,0);stroke-opacity:0.24705882352941178;stroke-width:2;stroke-miterlimit:10;stroke-linecap:square;" x1="254" x2="268" y1="102" y2="102"/>
  <line style="fill:none;stroke:rgb(255,127,0);stroke-opacity:0.24705882352941178;stroke-width:2;stroke-miterlimit:10;stroke-linecap:square;" x1="268" x2="268" y1="100" y2="88"/>
  <rect height="7" style="fill:rgb(255,127,0);fill-opacity:0.7490196078431373;stroke:none;" width="4" x="281" y="292"/>
  <line style="fill:none;stroke:rgb(255,127,0);stroke-opacity:0.24705882352941178;stroke-width:2;stroke-miterlimit:10;stroke-linecap:square;" x1="268" x2="283" y1="86" y2="86"/>
  <line style="fill:none;stroke:rgb(255,127,0);stroke-opacity:0.24705882352941178;stroke-width:2;stroke-miterlimit:10;stroke-linecap:square;" x1="283" x2="283" y1="84" y2="80"/>
  <rect height="5" style="fill:rgb(255,127,0);fill-opacity:0.7490196078431373;stroke:none;" width="4" x="295" y="294"/>
  <line style="fill:none;stroke:rgb(255,127,0);stroke-opacity:0.24705882352941178;stroke-width:2;stroke-miterlimit:10;stroke-linecap:square;" x1="283" x2="297" y1="78" y2="78"/>
  <line style="fill:none;stroke:rgb(255,127,0);stroke-opacity:0.24705882352941178;stroke-width:2;stroke-miterlimit:10;stroke-linecap:square;" x1="297" x2="297" y1="76" y2="75"/>
  <rect height="5" style="fill:rgb(255,127,0);fill-opacity:0.7490196078431373;stroke:none;" width="4" x="310" y="294"/>
  <line style="fill:none;stroke:rgb(255,127,0);stroke-opacity:0.24705882352941178;stroke-width:2;stroke-miterlimit:10;stroke-linecap:square;" x1="297" x2="312" y1="73" y2="73"/>
  <line style="fill:none;stroke:rgb(255,127,0);stroke-opacity:0.24705882352941178;stroke-width:2;stroke-miterlimit:10;stroke-linecap:square;" x1="312" x2="312" y1="71" y2="69"/>
  <rect height="2" style="fill:rgb(255,127,0);fill-opacity:0.7490196078431373;stroke:none;" width="4" x="354" y="297"/>
  <line style="fill:none;stroke:rgb(255,127,0);stroke-opacity:0.24705882352941178;stroke-width:2;stroke-miterlimit:10;stroke-linecap:square;" x1="312" x2="356" y1="67" y2="67"/>
  <line style="fill:none;stroke:rgb(255,127,0);stroke-opacity:0.24705882352941178;stroke-width:2;stroke-miterlimit:10;stroke-linecap:square;" x1="356" x2="356" y1="65" y2="67"/>
  <rect height="2" style="fill:rgb(255,127,0);fill-opacity:0.7490196078431373;stroke:none;" width="4" x="383" y="297"/>
  <line style="fill:none;stroke:rgb(255,127,0);stroke-opacity:0.24705882352941178;stroke-width:2;stroke-miterlimit:10;stroke-linecap:square;" x1="356" x2="385" y1="65" y2="65"/>
  <line style="fill:none;stroke:rgb(255,127,0);stroke-opacity:0.24705882352941178;stroke-width:2;stroke-miterlimit:10;stroke-linecap:square;" x1="385" x2="385" y1="63" y2="64"/>
  <rect height="2" style="fill:rgb(255,127,0);fill-opacity:0.7490196078431373;stroke:none;" width="4" x="398" y="297"/>
  <line style="fill:none;stroke:rgb(255,127,0);stroke-opacity:0.24705882352941178;stroke-width:2;stroke-miterlimit:10;stroke-linecap:square;" x1="385" x2="400" y1="62" y2="62"/>
  <line style="fill:none;stroke:rgb(255,127,0);stroke-opacity:0.24705882352941178;stroke-width:2;stroke-miterlimit:10;stroke-linecap:square;" x1="400" x2="400" y1="60" y2="62"/>
  <line style="fill:none;stroke:rgb(255,127,0);stroke-opacity:0.24705882352941178;stroke-width:2;stroke-miterlimit:10;stroke-linecap:square;" x1="400" x2="400" y1="60" y2="60"/>
  <line style="fill:none;stroke:rgb(255,127,0);stroke-opacity:0.4980392156862745;stroke-miterlimit:2;stroke-dasharray:2;" x1="50" x2="50" y1="300" y2="350"/>
  <line style="fill:none;stroke:rgb(255,127,0);stroke-opacity:0.4980392156862745;stroke-miterlimit:2;stroke-dasharray:2;" x1="64" x2="64" y1="300" y2="364"/>
  <line style="fill:none;stroke:rgb(255,127,0);stroke-opacity:0.4980392156862745;stroke-miterlimit:2;stroke-dasharray:2;" x1="64" x2="64" y1="300" y2="378"/>
  <line style="fill:none;stroke:rgb(255,127,0);stroke-opacity:0.4980392156862745;stroke-miterlimit:2;stroke-dasharray:2;" x1="64" x2="64" y1="300" y2="392"/>
  <line style="fill:none;stroke:rgb(255,127,0);stroke-opacity:0.4980392156862745;stroke-miterlimit:2;stroke-dasharray:2;" x1="64" x2="64" y1="300" y2="406"/>
  <line style="fill:none;stroke:rgb(255,127,0);stroke-opacity:0.4980392156862745;stroke-miterlimit:2;stroke-dasharray:2;" x1="64" x2="64" y1="300" y2="420"/>
  <line style="fill:none;stroke:rgb(255,127,0);stroke-opacity:0.4980392156862745;stroke-miterlimit:2;stroke-dasharray:2;" x1="64" x2="64" y1="300" y2="434"/>
  <line style="fill:none;stroke:rgb(255,127,0);stroke-opacity:0.4980392156862745;stroke-miterlimit:2;stroke-dasharray:2;" x1="79" x2="79" y1="300" y2="448"/>
  <line style="fill:none;stroke:rgb(255,127,0);stroke-opacity:0.4980392156862745;stroke-miterlimit:2;stroke-dasharray:2;" x1="79" x2="79" y1="300" y2="462"/>
  <line style="fill:none;stroke:rgb(255,127,0);stroke-opacity:0.4980392156862745;stroke-miterlimit:2;stroke-dasharray:2;" x1="93" x2="93" y1="300" y2="476"/>
  <line style="fill:none;stroke:rgb(255,127,0);stroke-opacity:0.4980392156862745;stroke-miterlimit:2;stroke-dasharray:2;" x1="93" x2="93" y1="300" y2="490"/>
  <line style="fill:none;stroke:rgb(255,127,0);stroke-opacity:0.4980392156862745;stroke-miterlimit:2;stroke-dasharray:2;" x1="93" x2="93" y1="300" y2="504"/>
  <line style="fill:none;stroke:rgb(255,127,0);stroke-opacity:0.4980392156862745;stroke-miterlimit:2;stroke-dasharray:2;" x1="93" x2="93" y1="300" y2="518"/>
  <line style="fill:none;stroke:rgb(255,127,0);stroke-opacity:0.4980392156862745;stroke-miterlimit:2;stroke-dasharray:2;" x1="93" x2="93" y1="300" y2="532"/>
  <line style="fill:none;stroke:rgb(255,127,0);stroke-opacity:0.4980392156862745;stroke-miterlimit:2;stroke-dasharray:2;" x1="108" x2="108" y1="300" y2="546"/>
  <line style="fill:none;stroke:rgb(255,127,0);stroke-opacity:0.4980392156862745;stroke-miterlimit:2;stroke-dasharray:2;" x1="108" x2="108" y1="300" y2="560"/>
  <line style="fill:none;stroke:rgb(255,127,0);stroke-opacity:0.4980392156862745;stroke-miterlimit:2;stroke-dasharray:2;" x1="108" x2="108" y1="300" y2="574"/>
  <line style="fill:none;stroke:rgb(255,127,0);stroke-opacity:0.4980392156862745;stroke-miterlimit:2;stroke-dasharray:2;" x1="108" x2="108" y1="300" y2="588"/>
  <line style="fill:none;stroke:rgb(255,127,0);stroke-opacity:0.4980392156862745;stroke-miterlimit:2;stroke-dasharray:2;" x1="108" x2="108" y1="300" y2="602"/>
  <line style="fill:none;stroke:rgb(255,127,0);stroke-opacity:0.4980392156862745;stroke-miterlimit:2;stroke-dasharray:2;" x1="108" x2="108" y1="300" y2="616"/>
  <line style="fill:none;stroke:rgb(255,127,0);stroke-opacity:0.4980392156862745;stroke-miterlimit:2;stroke-dasharray:2;" x1="122" x2="122" y1="300" y2="630"/>
  <line style="fill:none;stroke:rgb(255,127,0);stroke-opacity:0.4980392156862745;stroke-miterlimit:2;stroke-dasharray:2;" x1="122" x2="122" y1="300" y2="644"/>
  <line style="fill:none;stroke:rgb(255,127,0);stroke-opacity:0.4980392156862745;stroke-miterlimit:2;stroke-dasharray:2;" x1="152" x2="152" y1="300" y2="658"/>
  <line style="fill:none;stroke:rgb(255,127,0);stroke-opacity:0.4980392156862745;stroke-miterlimit:2;stroke-dasharray:2;" x1="152" x2="152" y1="300" y2="672"/>
  <line style="fill:none;stroke:rgb(255,127,0);stroke-opacity:0.4980392156862745;stroke-miterlimit:2;stroke-dasharray:2;" x1="152" x2="152" y1="300" y2="686"/>
  <line style="fill:none;stroke:rgb(255,127,0);stroke-opacity:0.4980392156862745;stroke-miterlimit:2;stroke-dasharray:2;" x1="166" x2="166" y1="300" y2="700"/>
  <line style="fill:none;stroke:rgb(255,127,0);stroke-opacity:0.4980392156862745;stroke-miterlimit:2;stroke-dasharray:2;" x1="166" x2="166" y1="300" y2="714"/>
  <line style="fill:none;stroke:rgb(255,127,0);stroke-opacity:0.4980392156862745;stroke-miterlimit:2;stroke-dasharray:2;" x1="181" x2="181" y1="300" y2="728"/>
  <line style="fill:none;stroke:rgb(255,127,0);stroke-opacity:0.4980392156862745;stroke-miterlimit:2;stroke-dasharray:2;" x1="195" x2="195" y1="300" y2="743"/>
  <line style="fill:none;stroke:rgb(255,127,0);stroke-opacity:0.4980392156862745;stroke-miterlimit:2;stroke-dasharray:2;" x1="195" x2="195" y1="300" y2="758"/>
  <line style="fill:none;stroke:rgb(255,127,0);stroke-opacity:0.4980392156862745;stroke-miterlimit:2;stroke-dasharray:2;" x1="195" x2="195" y1="300" y2="773"/>
  <line style="fill:none;stroke:rgb(255,127,0);stroke-opacity:0.4980392156862745;stroke-miterlimit:2;stroke-dasharray:2;" x1="195" x2="195" y1="300" y2="788"/>
  <line style="fill:none;stroke:rgb(255,127,0);stroke-opacity:0.4980392156862745;stroke-miterlimit:2;stroke-dasharray:2;" x1="195" x2="195" y1="300" y2="803"/>
  <line style="fill:none;stroke:rgb(255,127,0);stroke-opacity:0.4980392156862745;stroke-miterlimit:2;stroke-dasharray:2;" x1="195" x2="195" y1="300" y2="818"/>
  <line style="fill:none;stroke:rgb(255,127,0);stroke-opacity:0.4980392156862745;stroke-miterlimit:2;stroke-dasharray:2;" x1="195" x2="195" y1="300" y2="833"/>
  <line style="fill:none;stroke:rgb(255,127,0);stroke-opacity:0.4980392156862745;stroke-miterlimit:2;stroke-dasharray:2;" x1="210" x2="210" y1="300" y2="848"/>
  <line style="fill:none;stroke:rgb(255,127,0);stroke-opacity:0.4980392156862745;stroke-miterlimit:2;stroke-dasharray:2;" x1="210" x2="210" y1="300" y2="863"/>
  <line style="fill:none;stroke:rgb(255,127,0);stroke-opacity:0.4980392156862745;stroke-miterlimit:2;stroke-dasharray:2;" x1="210" x2="210" y1="300" y2="878"/>
  <line style="fill:none;stroke:rgb(255,127,0);stroke-opacity:0.4980392156862745;stroke-miterlimit:2;stroke-dasharray:2;" x1="210" x2="210" y1="300" y2="893"/>
  <line style="fill:none;stroke:rgb(255,127,0);stroke-opacity:0.4980392156862745;stroke-miterlimit:2;stroke-dasharray:2;" x1="210" x2="210" y1="300" y2="908"/>
  <line style="fill:none;stroke:rgb(255,127,0);stroke-opacity:0.4980392156862745;stroke-miterlimit:2;stroke-dasharray:2;" x1="210" x2="210" y1="300" y2="923"/>
  <line style="fill:none;stroke:rgb(255,127,0);stroke-opacity:0.4980392156862745;stroke-miterlimit:2;stroke-dasharray:2;" x1="210" x2="210" y1="300" y2="938"/>
  <line style="fill:none;stroke:rgb(255,127,0);stroke-opacity:0.4980392156862745;stroke-miterlimit:2;stroke-dasharray:2;" x1="210" x2="210" y1="300" y2="953"/>
  <line style="fill:none;stroke:rgb(255,127,0);stroke-opacity:0.4980392156862745;stroke-miterlimit:2;stroke-dasharray:2;" x1="210" x2="210" y1="300" y2="968"/>
  <line style="fill:none;stroke:rgb(255,127,0);stroke-opacity:0.4980392156862745;stroke-miterlimit:2;stroke-dasharray:2;" x1="225" x2="225" y1="300" y2="983"/>
  <line style="fill:none;stroke:rgb(255,127,0);stroke-opacity:0.4980392156862745;stroke-miterlimit:2;stroke-dasharray:2;" x1="225" x2="225" y1="300" y2="998"/>
  <line style="fill:none;stroke:rgb(255,127,0);stroke-opacity:0.4980392156862745;stroke-miterlimit:2;stroke-dasharray:2;" x1="225" x2="225" y1="300" y2="1013"/>
  <line style="fill:none;stroke:rgb(255,127,0);stroke-opacity:0.4980392156862745;stroke-miterlimit:2;stroke-dasharray:2;" x1="225" x2="225" y1="300" y2="1028"/>
  <line style="fill:none;stroke:rgb(255,127,0);stroke-opacity:0.4980392156862745;stroke-miterlimit:2;stroke-dasharray:2;" x1="225" x2="225" y1="300" y2="1043"/>
  <line style="fill:none;stroke:rgb(255,127,0);stroke-opacity:0.4980392156862745;stroke-miterlimit:2;stroke-dasharray:2;" x1="225" x2="225" y1="300" y2="1058"/>
  <line style="fill:none;stroke:rgb(255,127,0);stroke-opacity:0.4980392156862745;stroke-miterlimit:2;stroke-dasharray:2;" x1="225" x2="225" y1="300" y2="1073"/>
  <line style="fill:none;stroke:rgb(255,127,0);stroke-opacity:0.4980392156862745;stroke-miterlimit:2;stroke-dasharray:2;" x1="225" x2="225" y1="300" y2="1088"/>
  <line style="fill:none;stroke:rgb(255,127,0);stroke-opacity:0.4980392156862745;stroke-miterlimit:2;stroke-dasharray:2;" x1="225" x2="225" y1="300" y2="1103"/>
  <line style="fill:none;stroke:rgb(255,127,0);stroke-opacity:0.4980392156862745;stroke-miterlimit:2;stroke-dasharray:2;" x1="225" x2="225" y1="300" y2="1118"/>
  <line style="fill:none;stroke:rgb(255,127,0);stroke-opacity:0.4980392156862745;stroke-miterlimit:2;stroke-dasharray:2;" x1="225" x2="225" y1="300" y2="1133"/>
  <line style="fill:none;stroke:rgb(255,127,0);stroke-opacity:0.4980392156862745;stroke-miterlimit:2;stroke-dasharray:2;" x1="239" x2="239" y1="300" y2="1148"/>
  <line style="fill:none;stroke:rgb(255,127,0);stroke-opacity:0.4980392156862745;stroke-miterlimit:2;stroke-dasharray:2;" x1="239" x2="239" y1="300" y2="1163"/>
  <line style="fill:none;stroke:rgb(255,127,0);stroke-opacity:0.4980392156862745;stroke-miterlimit:2;stroke-dasharray:2;" x1="239" x2="239" y1="300" y2="1178"/>
  <line style="fill:none;stroke:rgb(255,127,0);stroke-opacity:0.4980392156862745;stroke-miterlimit:2;stroke-dasharray:2;" x1="239" x2="239" y1="300" y2="1193"/>
  <line style="fill:none;stroke:rgb(255,127,0);stroke-opacity:0.4980392156862745;stroke-miterlimit:2;stroke-dasharray:2;" x1="239" x2="239" y1="300" y2="1208"/>
  <line style="fill:none;stroke:rgb(255,127,0);stroke-opacity:0.4980392156862745;stroke-miterlimit:2;stroke-dasharray:2;" x1="239" x2="239" y1="300" y2="1223"/>
  <line style="fill:none;stroke:rgb(255,127,0);stroke-opacity:0.4980392156862745;stroke-miterlimit:2;stroke-dasharray:2;" x1="239" x2="239" y1="300" y2="1238"/>
  <line style="fill:none;stroke:rgb(255,127,0);stroke-opacity:0.4980392156862745;stroke-miterlimit:2;stroke-dasharray:2;" x1="239" x2="239" y1="300" y2="1253"/>
  <line style="fill:none;stroke:rgb(255,127,0);stroke-opacity:0.4980392156862745;stroke-miterlimit:2;stroke-dasharray:2;" x1="254" x2="254" y1="300" y2="1268"/>
  <line style="fill:none;stroke:rgb(255,127,0);stroke-opacity:0.4980392156862745;stroke-miterlimit:2;stroke-dasharray:2;" x1="254" x2="254" y1="300" y2="1283"/>
  <line style="fill:none;stroke:rgb(255,127,0);stroke-opacity:0.4980392156862745;stroke-miterlimit:2;stroke-dasharray:2;" x1="254" x2="254" y1="300" y2="1298"/>
  <line style="fill:none;stroke:rgb(255,127,0);stroke-opacity:0.4980392156862745;stroke-miterlimit:2;stroke-dasharray:2;" x1="254" x2="254" y1="300" y2="1313"/>
  <line style="fill:none;stroke:rgb(255,127,0);stroke-opacity:0.4980392156862745;stroke-miterlimit:2;stroke-dasharray:2;" x1="254" x2="254" y1="300" y2="1328"/>
  <line style="fill:none;stroke:rgb(255,127,0);stroke-opacity:0.4980392156862745;stroke-miterlimit:2;stroke-dasharray:2;" x1="254" x2="254" y1="300" y2="1343"/>
  <line style="fill:none;stroke:rgb(255,127,0);stroke-opacity:0.4980392156862745;stroke-miterlimit:2;stroke-dasharray:2;" x1="254" x2="254" y1="300" y2="1358"/>
  <line style="fill:none;stroke:rgb(255,127,0);stroke-opacity:0.4980392156862745;stroke-miterlimit:2;stroke-dasharray:2;" x1="254" x2="254" y1="300" y2="1373"/>
  <line style="fill:none;stroke:rgb(255,127,0);stroke-opacity:0.4980392156862745;stroke-miterlimit:2;stroke-dasharray:2;" x1="254" x2="254" y1="300" y2="1388"/>
  <line style="fill:none;stroke:rgb(255,127,0);stroke-opacity:0.4980392156862745;stroke-miterlimit:2;stroke-dasharray:2;" x1="254" x2="254" y1="300" y2="1403"/>
  <line style="fill:none;stroke:rgb(255,127,0);stroke-opacity:0.4980392156862745;stroke-miterlimit:2;stroke-dasharray:2;" x1="254" x2="254" y1="300" y2="1418"/>
  <line style="fill:none;stroke:rgb(255,127,0);stroke-opacity:0.4980392156862745;stroke-miterlimit:2;stroke-dasharray:2;" x1="254" x2="254" y1="300" y2="1433"/>
  <line style="fill:none;stroke:rgb(255,127,0);stroke-opacity:0.4980392156862745;stroke-miterlimit:2;stroke-dasharray:2;" x1="268" x2="268" y1="300" y2="1448"/>
  <line style="fill:none;stroke:rgb(255,127,0);stroke-opacity:0.4980392156862745;stroke-miterlimit:2;stroke-dasharray:2;" x1="268" x2="268" y1="300" y2="1463"/>
  <line style="fill:none;stroke:rgb(255,127,0);stroke-opacity:0.4980392156862745;stroke-miterlimit:2;stroke-dasharray:2;" x1="268" x2="268" y1="300" y2="1478"/>
  <line style="fill:none;stroke:rgb(255,127,0);stroke-opacity:0.4980392156862745;stroke-miterlimit:2;stroke-dasharray:2;" x1="268" x2="268" y1="300" y2="1493"/>
  <line style="fill:none;stroke:rgb(255,127,0);stroke-opacity:0.4980392156862745;stroke-miterlimit:2;stroke-dasharray:2;" x1="268" x2="268" y1="300" y2="1508"/>
  <line style="fill:none;stroke:rgb(255,127,0);stroke-opacity:0.4980392156862745;stroke-miterlimit:2;stroke-dasharray:2;" x1="268" x2="268" y1="300" y2="1523"/>
  <line style="fill:none;stroke:rgb(255,127,0);stroke-opacity:0.4980392156862745;stroke-miterlimit:2;stroke-dasharray:2;" x1="283" x2="283" y1="300" y2="1537"/>
  <line style="fill:none;stroke:rgb(255,127,0);stroke-opacity:0.4980392156862745;stroke-miterlimit:2;stroke-dasharray:2;" x1="283" x2="283" y1="300" y2="1551"/>
  <line style="fill:none;stroke:rgb(255,127,0);stroke-opacity:0.4980392156862745;stroke-miterlimit:2;stroke-dasharray:2;" x1="283" x2="283" y1="300" y2="1565"/>
  <line style="fill:none;stroke:rgb(255,127,0);stroke-opacity:0.4980392156862745;stroke-miterlimit:2;stroke-dasharray:2;" x1="297" x2="297" y1="300" y2="1579"/>
  <line style="fill:none;stroke:rgb(255,127,0);stroke-opacity:0.4980392156862745;stroke-miterlimit:2;stroke-dasharray:2;" x1="297" x2="297" y1="300" y2="1593"/>
  <line style="fill:none;stroke:rgb(255,127,0);stroke-opacity:0.4980392156862745;stroke-miterlimit:2;stroke-dasharray:2;" x1="312" x2="312" y1="300" y2="1607"/>
  <line style="fill:none;stroke:rgb(255,127,0);stroke-opacity:0.4980392156862745;stroke-miterlimit:2;stroke-dasharray:2;" x1="312" x2="312" y1="300" y2="1621"/>
  <line style="fill:none;stroke:rgb(255,127,0);stroke-opacity:0.4980392156862745;stroke-miterlimit:2;stroke-dasharray:2;" x1="356" x2="356" y1="300" y2="1635"/>
  <line style="fill:none;stroke:rgb(255,127,0);stroke-opacity:0.4980392156862745;stroke-miterlimit:2;stroke-dasharray:2;" x1="385" x2="385" y1="300" y2="1649"/>
  <line style="fill:none;stroke:rgb(255,127,0);stroke-opacity:0.4980392156862745;stroke-miterlimit:2;stroke-dasharray:2;" x1="400" x2="400" y1="300" y2="1663"/>
  <line style="fill:none;stroke:rgb(0,0,0);stroke-width:2;stroke-miterlimit:10;stroke-linecap:square;" x1="48" x2="48" y1="60" y2="300"/>
  <line style="fill:none;stroke:rgb(0,0,0);stroke-width:2;stroke-miterlimit:10;stroke-linecap:square;" x1="48" x2="402" y1="300" y2="300"/>
  <rect height="30" style="fill:rgb(255,255,255);stroke:none;" width="17" x="42" y="308"/>
  <text style="fill:rgb(0,0,0);stroke:none;font-size:25px;font-weight:bold;" x="42" y="332">0</text>
  <rect height="30" style="fill:rgb(255,255,255);stroke:none;" width="34" x="383" y="308"/>
  <text style="fill:rgb(0,0,0);stroke:none;font-size:25px;font-weight:bold;" x="383" y="332">24</text>
  <text style="fill:rgb(0,0,0);stroke:none;font-size:25px;font-weight:bold;" x="25" y="312">0</text>
  <text style="fill:rgb(0,0,0);stroke:none;font-size:25px;font-weight:bold;" x="25" y="72">1</text>
  <text style="fill:rgb(0,0,0);stroke:none;font-size:25px;font-weight:bold;" x="34" y="42">PUJANA_BRCA1_PCC_NETWORK</text>
  <rect height="11" style="fill:rgb(255,255,255);stroke:none;" width="38" x="50" y="339"/>
  <text style="fill:rgb(128,128,128);stroke:none;font-size:11px;" x="50" y="350">CENPC</text>
  <rect height="11" style="fill:rgb(255,255,255);stroke:none;" width="29" x="64" y="353"/>
  <text style="fill:rgb(128,128,128);stroke:none;font-size:11px;" x="64" y="364">UBTF</text>
  <rect height="11" style="fill:rgb(255,255,255);stroke:none;" width="37" x="64" y="367"/>
  <text style="fill:rgb(128,128,128);stroke:none;font-size:11px;" x="64" y="378">CXCR4</text>
  <rect height="11" style="fill:rgb(255,255,255);stroke:none;" width="36" x="64" y="381"/>
  <text style="fill:rgb(128,128,128);stroke:none;font-size:11px;" x="64" y="392">SF3B1</text>
  <rect height="11" style="fill:rgb(255,255,255);stroke:none;" width="36" x="64" y="395"/>
  <text style="fill:rgb(128,128,128);stroke:none;font-size:11px;" x="64" y="406">POLE2</text>
  <rect height="11" style="fill:rgb(255,255,255);stroke:none;" width="47" x="64" y="409"/>
  <text style="fill:rgb(128,128,128);stroke:none;font-size:11px;" x="64" y="420">CAPRIN1</text>
  <rect height="11" style="fill:rgb(255,255,255);stroke:none;" width="54" x="64" y="423"/>
  <text style="fill:rgb(128,128,128);stroke:none;font-size:11px;" x="64" y="434">TUBGCP3</text>
  <rect height="11" style="fill:rgb(255,255,255);stroke:none;" width="23" x="79" y="437"/>
  <text style="fill:rgb(128,128,128);stroke:none;font-size:11px;" x="79" y="448">MTR</text>
  <rect height="11" style="fill:rgb(255,255,255);stroke:none;" width="50" x="79" y="451"/>
  <text style="fill:rgb(128,128,128);stroke:none;font-size:11px;" x="79" y="462">SLC15A1</text>
  <rect height="11" style="fill:rgb(255,255,255);stroke:none;" width="22" x="93" y="465"/>
  <text style="fill:rgb(128,128,128);stroke:none;font-size:11px;" x="93" y="476">ADK</text>
  <rect height="11" style="fill:rgb(255,255,255);stroke:none;" width="22" x="93" y="479"/>
  <text style="fill:rgb(128,128,128);stroke:none;font-size:11px;" x="93" y="490">HK2</text>
  <rect height="11" style="fill:rgb(255,255,255);stroke:none;" width="29" x="93" y="493"/>
  <text style="fill:rgb(128,128,128);stroke:none;font-size:11px;" x="93" y="504">PDK1</text>
  <rect height="11" style="fill:rgb(255,255,255);stroke:none;" width="29" x="93" y="507"/>
  <text style="fill:rgb(128,128,128);stroke:none;font-size:11px;" x="93" y="518">TBX1</text>
  <rect height="11" style="fill:rgb(255,255,255);stroke:none;" width="42" x="93" y="521"/>
  <text style="fill:rgb(128,128,128);stroke:none;font-size:11px;" x="93" y="532">AFG3L2</text>
  <rect height="11" style="fill:rgb(255,255,255);stroke:none;" width="24" x="108" y="535"/>
  <text style="fill:rgb(128,128,128);stroke:none;font-size:11px;" x="108" y="546">MYB</text>
  <rect height="11" style="fill:rgb(255,255,255);stroke:none;" width="37" x="108" y="549"/>
  <text style="fill:rgb(128,128,128);stroke:none;font-size:11px;" x="108" y="560">LAMC2</text>
  <rect height="11" style="fill:rgb(255,255,255);stroke:none;" width="38" x="108" y="563"/>
  <text style="fill:rgb(128,128,128);stroke:none;font-size:11px;" x="108" y="574">GTSE1</text>
  <rect height="11" style="fill:rgb(255,255,255);stroke:none;" width="45" x="108" y="577"/>
  <text style="fill:rgb(128,128,128);stroke:none;font-size:11px;" x="108" y="588">HS2ST1</text>
  <rect height="11" style="fill:rgb(255,255,255);stroke:none;" width="46" x="108" y="591"/>
  <text style="fill:rgb(128,128,128);stroke:none;font-size:11px;" x="108" y="602">EXOSC7</text>
  <rect height="11" style="fill:rgb(255,255,255);stroke:none;" width="48" x="108" y="605"/>
  <text style="fill:rgb(128,128,128);stroke:none;font-size:11px;" x="108" y="616">NECTIN1</text>
  <rect height="11" style="fill:rgb(255,255,255);stroke:none;" width="29" x="122" y="619"/>
  <text style="fill:rgb(128,128,128);stroke:none;font-size:11px;" x="122" y="630">LDHA</text>
  <rect height="11" style="fill:rgb(255,255,255);stroke:none;" width="37" x="122" y="633"/>
  <text style="fill:rgb(128,128,128);stroke:none;font-size:11px;" x="122" y="644">PTTG1</text>
  <rect height="11" style="fill:rgb(255,255,255);stroke:none;" width="28" x="152" y="647"/>
  <text style="fill:rgb(128,128,128);stroke:none;font-size:11px;" x="152" y="658">TFRC</text>
  <rect height="11" style="fill:rgb(255,255,255);stroke:none;" width="28" x="152" y="661"/>
  <text style="fill:rgb(128,128,128);stroke:none;font-size:11px;" x="152" y="672">KRT9</text>
  <rect height="11" style="fill:rgb(255,255,255);stroke:none;" width="37" x="152" y="675"/>
  <text style="fill:rgb(128,128,128);stroke:none;font-size:11px;" x="152" y="686">TGFB1</text>
  <rect height="11" style="fill:rgb(255,255,255);stroke:none;" width="36" x="166" y="689"/>
  <text style="fill:rgb(128,128,128);stroke:none;font-size:11px;" x="166" y="700">SAP30</text>
  <rect height="11" style="fill:rgb(255,255,255);stroke:none;" width="31" x="166" y="703"/>
  <text style="fill:rgb(128,128,128);stroke:none;font-size:11px;" x="166" y="714">KIF2C</text>
  <rect height="11" style="fill:rgb(255,255,255);stroke:none;" width="36" x="181" y="717"/>
  <text style="fill:rgb(128,128,128);stroke:none;font-size:11px;" x="181" y="728">AURKA</text>
  <rect height="12" style="fill:rgb(255,255,255);stroke:none;" width="37" x="195" y="731"/>
  <text style="fill:rgb(128,128,128);stroke:none;" x="195" y="743">HMMR</text>
  <rect height="12" style="fill:rgb(255,255,255);stroke:none;" width="31" x="195" y="746"/>
  <text style="fill:rgb(128,128,128);stroke:none;" x="195" y="758">CCT5</text>
  <rect height="12" style="fill:rgb(255,255,255);stroke:none;" width="38" x="195" y="761"/>
  <text style="fill:rgb(128,128,128);stroke:none;" x="195" y="773">TRAF4</text>
  <rect height="12" style="fill:rgb(255,255,255);stroke:none;" width="41" x="195" y="776"/>
  <text style="fill:rgb(128,128,128);stroke:none;" x="195" y="788">CCNB1</text>
  <rect height="12" style="fill:rgb(255,255,255);stroke:none;" width="37" x="195" y="791"/>
  <text style="fill:rgb(128,128,128);stroke:none;" x="195" y="803">KYAT1</text>
  <rect height="12" style="fill:rgb(255,255,255);stroke:none;" width="46" x="195" y="806"/>
  <text style="fill:rgb(128,128,128);stroke:none;" x="195" y="818">TTC39A</text>
  <rect height="12" style="fill:rgb(255,255,255);stroke:none;" width="54" x="195" y="821"/>
  <text style="fill:rgb(128,128,128);stroke:none;" x="195" y="833">ST3GAL2</text>
  <rect height="12" style="fill:rgb(255,255,255);stroke:none;" width="23" x="210" y="836"/>
  <text style="fill:rgb(128,128,128);stroke:none;" x="210" y="848">TNF</text>
  <rect height="12" style="fill:rgb(255,255,255);stroke:none;" width="31" x="210" y="851"/>
  <text style="fill:rgb(128,128,128);stroke:none;" x="210" y="863">CKS2</text>
  <rect height="12" style="fill:rgb(255,255,255);stroke:none;" width="33" x="210" y="866"/>
  <text style="fill:rgb(128,128,128);stroke:none;" x="210" y="878">DCP2</text>
  <rect height="12" style="fill:rgb(255,255,255);stroke:none;" width="34" x="210" y="881"/>
  <text style="fill:rgb(128,128,128);stroke:none;" x="210" y="893">RRM2</text>
  <rect height="12" style="fill:rgb(255,255,255);stroke:none;" width="32" x="210" y="896"/>
  <text style="fill:rgb(128,128,128);stroke:none;" x="210" y="908">NAT1</text>
  <rect height="12" style="fill:rgb(255,255,255);stroke:none;" width="40" x="210" y="911"/>
  <text style="fill:rgb(128,128,128);stroke:none;" x="210" y="923">DCAF7</text>
  <rect height="12" style="fill:rgb(255,255,255);stroke:none;" width="43" x="210" y="926"/>
  <text style="fill:rgb(128,128,128);stroke:none;" x="210" y="938">MED20</text>
  <rect height="12" style="fill:rgb(255,255,255);stroke:none;" width="41" x="210" y="941"/>
  <text style="fill:rgb(128,128,128);stroke:none;" x="210" y="953">MFAP1</text>
  <rect height="12" style="fill:rgb(255,255,255);stroke:none;" width="57" x="210" y="956"/>
  <text style="fill:rgb(128,128,128);stroke:none;" x="210" y="968">ZKSCAN4</text>
  <rect height="12" style="fill:rgb(255,255,255);stroke:none;" width="22" x="225" y="971"/>
  <text style="fill:rgb(128,128,128);stroke:none;" x="225" y="983">SYK</text>
  <rect height="12" style="fill:rgb(255,255,255);stroke:none;" width="25" x="225" y="986"/>
  <text style="fill:rgb(128,128,128);stroke:none;" x="225" y="998">CAD</text>
  <rect height="12" style="fill:rgb(255,255,255);stroke:none;" width="30" x="225" y="1001"/>
  <text style="fill:rgb(128,128,128);stroke:none;" x="225" y="1013">RFX5</text>
  <rect height="12" style="fill:rgb(255,255,255);stroke:none;" width="34" x="225" y="1016"/>
  <text style="fill:rgb(128,128,128);stroke:none;" x="225" y="1028">DPH2</text>
  <rect height="12" style="fill:rgb(255,255,255);stroke:none;" width="31" x="225" y="1031"/>
  <text style="fill:rgb(128,128,128);stroke:none;" x="225" y="1043">NFYB</text>
  <rect height="12" style="fill:rgb(255,255,255);stroke:none;" width="39" x="225" y="1046"/>
  <text style="fill:rgb(128,128,128);stroke:none;" x="225" y="1058">CTPS1</text>
  <rect height="12" style="fill:rgb(255,255,255);stroke:none;" width="39" x="225" y="1061"/>
  <text style="fill:rgb(128,128,128);stroke:none;" x="225" y="1073">ACYP1</text>
  <rect height="12" style="fill:rgb(255,255,255);stroke:none;" width="34" x="225" y="1076"/>
  <text style="fill:rgb(128,128,128);stroke:none;" x="225" y="1088">IFFO1</text>
  <rect height="12" style="fill:rgb(255,255,255);stroke:none;" width="50" x="225" y="1091"/>
  <text style="fill:rgb(128,128,128);stroke:none;" x="225" y="1103">NUP210</text>
  <rect height="12" style="fill:rgb(255,255,255);stroke:none;" width="51" x="225" y="1106"/>
  <text style="fill:rgb(128,128,128);stroke:none;" x="225" y="1118">ADAM22</text>
  <rect height="12" style="fill:rgb(255,255,255);stroke:none;" width="52" x="225" y="1121"/>
  <text style="fill:rgb(128,128,128);stroke:none;" x="225" y="1133">BCL2L11</text>
  <rect height="12" style="fill:rgb(255,255,255);stroke:none;" width="35" x="239" y="1136"/>
  <text style="fill:rgb(128,128,128);stroke:none;" x="239" y="1148">OGG1</text>
  <rect height="12" style="fill:rgb(255,255,255);stroke:none;" width="33" x="239" y="1151"/>
  <text style="fill:rgb(128,128,128);stroke:none;" x="239" y="1163">CD1A</text>
  <rect height="12" style="fill:rgb(255,255,255);stroke:none;" width="44" x="239" y="1166"/>
  <text style="fill:rgb(128,128,128);stroke:none;" x="239" y="1178">WDR77</text>
  <rect height="12" style="fill:rgb(255,255,255);stroke:none;" width="42" x="239" y="1181"/>
  <text style="fill:rgb(128,128,128);stroke:none;" x="239" y="1193">HSPD1</text>
  <rect height="12" style="fill:rgb(255,255,255);stroke:none;" width="42" x="239" y="1196"/>
  <text style="fill:rgb(128,128,128);stroke:none;" x="239" y="1208">HSPH1</text>
  <rect height="12" style="fill:rgb(255,255,255);stroke:none;" width="41" x="239" y="1211"/>
  <text style="fill:rgb(128,128,128);stroke:none;" x="239" y="1223">MAT2A</text>
  <rect height="12" style="fill:rgb(255,255,255);stroke:none;" width="40" x="239" y="1226"/>
  <text style="fill:rgb(128,128,128);stroke:none;" x="239" y="1238">FANCC</text>
  <rect height="12" style="fill:rgb(255,255,255);stroke:none;" width="59" x="239" y="1241"/>
  <text style="fill:rgb(128,128,128);stroke:none;" x="239" y="1253">NSUN5P1</text>
  <rect height="12" style="fill:rgb(255,255,255);stroke:none;" width="25" x="254" y="1256"/>
  <text style="fill:rgb(128,128,128);stroke:none;" x="254" y="1268">ADA</text>
  <rect height="12" style="fill:rgb(255,255,255);stroke:none;" width="28" x="254" y="1271"/>
  <text style="fill:rgb(128,128,128);stroke:none;" x="254" y="1283">OIP5</text>
  <rect height="12" style="fill:rgb(255,255,255);stroke:none;" width="31" x="254" y="1286"/>
  <text style="fill:rgb(128,128,128);stroke:none;" x="254" y="1298">ALG8</text>
  <rect height="12" style="fill:rgb(255,255,255);stroke:none;" width="27" x="254" y="1301"/>
  <text style="fill:rgb(128,128,128);stroke:none;" x="254" y="1313">PIGF</text>
  <rect height="12" style="fill:rgb(255,255,255);stroke:none;" width="35" x="254" y="1316"/>
  <text style="fill:rgb(128,128,128);stroke:none;" x="254" y="1328">IFRD2</text>
  <rect height="12" style="fill:rgb(255,255,255);stroke:none;" width="34" x="254" y="1331"/>
  <text style="fill:rgb(128,128,128);stroke:none;" x="254" y="1343">ITFG2</text>
  <rect height="12" style="fill:rgb(255,255,255);stroke:none;" width="44" x="254" y="1346"/>
  <text style="fill:rgb(128,128,128);stroke:none;" x="254" y="1358">HMGCR</text>
  <rect height="12" style="fill:rgb(255,255,255);stroke:none;" width="35" x="254" y="1361"/>
  <text style="fill:rgb(128,128,128);stroke:none;" x="254" y="1373">RIBC2</text>
  <rect height="12" style="fill:rgb(255,255,255);stroke:none;" width="38" x="254" y="1376"/>
  <text style="fill:rgb(128,128,128);stroke:none;" x="254" y="1388">FANCL</text>
  <rect height="12" style="fill:rgb(255,255,255);stroke:none;" width="55" x="254" y="1391"/>
  <text style="fill:rgb(128,128,128);stroke:none;" x="254" y="1403">B3GNTL1</text>
  <rect height="12" style="fill:rgb(255,255,255);stroke:none;" width="54" x="254" y="1406"/>
  <text style="fill:rgb(128,128,128);stroke:none;" x="254" y="1418">CBFA2T3</text>
  <rect height="12" style="fill:rgb(255,255,255);stroke:none;" width="53" x="254" y="1421"/>
  <text style="fill:rgb(128,128,128);stroke:none;" x="254" y="1433">PSMC3IP</text>
  <rect height="12" style="fill:rgb(255,255,255);stroke:none;" width="31" x="268" y="1436"/>
  <text style="fill:rgb(128,128,128);stroke:none;" x="268" y="1448">RECK</text>
  <rect height="12" style="fill:rgb(255,255,255);stroke:none;" width="41" x="268" y="1451"/>
  <text style="fill:rgb(128,128,128);stroke:none;" x="268" y="1463">NPAS1</text>
  <rect height="12" style="fill:rgb(255,255,255);stroke:none;" width="32" x="268" y="1466"/>
  <text style="fill:rgb(128,128,128);stroke:none;" x="268" y="1478">IGLL1</text>
  <rect height="12" style="fill:rgb(255,255,255);stroke:none;" width="42" x="268" y="1481"/>
  <text style="fill:rgb(128,128,128);stroke:none;" x="268" y="1493">PDCD2</text>
  <rect height="12" style="fill:rgb(255,255,255);stroke:none;" width="48" x="268" y="1496"/>
  <text style="fill:rgb(128,128,128);stroke:none;" x="268" y="1508">CEP162</text>
  <rect height="12" style="fill:rgb(255,255,255);stroke:none;" width="58" x="268" y="1511"/>
  <text style="fill:rgb(128,128,128);stroke:none;" x="268" y="1523">TIMELESS</text>
  <rect height="11" style="fill:rgb(255,255,255);stroke:none;" width="37" x="283" y="1526"/>
  <text style="fill:rgb(128,128,128);stroke:none;font-size:11px;" x="283" y="1537">BRCA1</text>
  <rect height="11" style="fill:rgb(255,255,255);stroke:none;" width="36" x="283" y="1540"/>
  <text style="fill:rgb(128,128,128);stroke:none;font-size:11px;" x="283" y="1551">PYCR1</text>
  <rect height="11" style="fill:rgb(255,255,255);stroke:none;" width="45" x="283" y="1554"/>
  <text style="fill:rgb(128,128,128);stroke:none;font-size:11px;" x="283" y="1565">TBC1D1</text>
  <rect height="11" style="fill:rgb(255,255,255);stroke:none;" width="51" x="297" y="1568"/>
  <text style="fill:rgb(128,128,128);stroke:none;font-size:11px;" x="297" y="1579">CYP2C18</text>
  <rect height="11" style="fill:rgb(255,255,255);stroke:none;" width="58" x="297" y="1582"/>
  <text style="fill:rgb(128,128,128);stroke:none;font-size:11px;" x="297" y="1593">HSP90AA1</text>
  <rect height="11" style="fill:rgb(255,255,255);stroke:none;" width="36" x="312" y="1596"/>
  <text style="fill:rgb(128,128,128);stroke:none;font-size:11px;" x="312" y="1607">POLA1</text>
  <rect height="11" style="fill:rgb(255,255,255);stroke:none;" width="50" x="312" y="1610"/>
  <text style="fill:rgb(128,128,128);stroke:none;font-size:11px;" x="312" y="1621">CYP51A1</text>
  <rect height="11" style="fill:rgb(255,255,255);stroke:none;" width="35" x="356" y="1624"/>
  <text style="fill:rgb(128,128,128);stroke:none;font-size:11px;" x="356" y="1635">FBLN1</text>
  <rect height="11" style="fill:rgb(255,255,255);stroke:none;" width="35" x="385" y="1638"/>
  <text style="fill:rgb(128,128,128);stroke:none;font-size:11px;" x="385" y="1649">KLRC4</text>
  <rect height="11" style="fill:rgb(255,255,255);stroke:none;" width="44" x="400" y="1652"/>
  <text style="fill:rgb(128,128,128);stroke:none;font-size:11px;" x="400" y="1663">UBE2E1</text>
</svg>
