<?xml version="1.0" encoding="UTF-8" standalone="no"?>
<!DOCTYPE svg PUBLIC "-//W3C//DTD SVG 1.1//EN" "http://www.w3.org/Graphics/SVG/1.1/DTD/svg11.dtd">
<svg xmlns:xlink="http://www.w3.org/1999/xlink" height="158.74999999999997mm" version="1.1" viewBox="0 0 500 600" width="132.29166666666666mm" x="0mm" y="0mm" xmlns="http://www.w3.org/2000/svg">
  <rect height="1200" style="fill:rgb(255,255,255);stroke:none;" width="1000" x="0" y="0"/>
  <rect height="240" style="fill:rgb(191,191,191);fill-opacity:0.4980392156862745;stroke:none;" width="175" x="225" y="60"/>
  <line style="fill:none;stroke:rgb(63,63,191);stroke-opacity:0.24705882352941178;stroke-miterlimit:10;stroke-linecap:square;" x1="50" x2="50" y1="300" y2="300"/>
  <line style="fill:none;stroke:rgb(63,63,191);stroke-opacity:0.24705882352941178;stroke-miterlimit:10;stroke-linecap:square;" x1="50" x2="64" y1="300" y2="290"/>
  <line style="fill:none;stroke:rgb(63,63,191);stroke-opacity:0.24705882352941178;stroke-miterlimit:10;stroke-linecap:square;" x1="64" x2="79" y1="290" y2="280"/>
  <line style="fill:none;stroke:rgb(63,63,191);stroke-opacity:0.24705882352941178;stroke-miterlimit:10;stroke-linecap:square;" x1="79" x2="93" y1="280" y2="270"/>
  <line style="fill:none;stroke:rgb(63,63,191);stroke-opacity:0.24705882352941178;stroke-miterlimit:10;stroke-linecap:square;" x1="93" x2="108" y1="270" y2="260"/>
  <line style="fill:none;stroke:rgb(63,63,191);stroke-opacity:0.24705882352941178;stroke-miterlimit:10;stroke-linecap:square;" x1="108" x2="122" y1="260" y2="250"/>
  <line style="fill:none;stroke:rgb(63,63,191);stroke-opacity:0.24705882352941178;stroke-miterlimit:10;stroke-linecap:square;" x1="122" x2="137" y1="250" y2="240"/>
  <line style="fill:none;stroke:rgb(63,63,191);stroke-opacity:0.24705882352941178;stroke-miterlimit:10;stroke-linecap:square;" x1="137" x2="152" y1="240" y2="230"/>
  <line style="fill:none;stroke:rgb(63,63,191);stroke-opacity:0.24705882352941178;stroke-miterlimit:10;stroke-linecap:square;" x1="152" x2="166" y1="230" y2="220"/>
  <line style="fill:none;stroke:rgb(63,63,191);stroke-opacity:0.24705882352941178;stroke-miterlimit:10;stroke-linecap:square;" x1="166" x2="181" y1="220" y2="210"/>
  <line style="fill:none;stroke:rgb(63,63,191);stroke-opacity:0.24705882352941178;stroke-miterlimit:10;stroke-linecap:square;" x1="181" x2="195" y1="210" y2="200"/>
  <line style="fill:none;stroke:rgb(63,63,191);stroke-opacity:0.24705882352941178;stroke-miterlimit:10;stroke-linecap:square;" x1="195" x2="210" y1="200" y2="190"/>
  <line style="fill:none;stroke:rgb(63,63,191);stroke-opacity:0.24705882352941178;stroke-miterlimit:10;stroke-linecap:square;" x1="210" x2="225" y1="190" y2="180"/>
  <line style="fill:none;stroke:rgb(63,63,191);stroke-opacity:0.24705882352941178;stroke-miterlimit:10;stroke-linecap:square;" x1="225" x2="239" y1="180" y2="170"/>
  <line style="fill:none;stroke:rgb(63,63,191);stroke-opacity:0.24705882352941178;stroke-miterlimit:10;stroke-linecap:square;" x1="239" x2="254" y1="170" y2="160"/>
  <line style="fill:none;stroke:rgb(63,63,191);stroke-opacity:0.24705882352941178;stroke-miterlimit:10;stroke-linecap:square;" x1="254" x2="268" y1="160" y2="150"/>
  <line style="fill:none;stroke:rgb(63,63,191);stroke-opacity:0.24705882352941178;stroke-miterlimit:10;stroke-linecap:square;" x1="268" x2="283" y1="150" y2="140"/>
  <line style="fill:none;stroke:rgb(63,63,191);stroke-opacity:0.24705882352941178;stroke-miterlimit:10;stroke-linecap:square;" x1="283" x2="297" y1="140" y2="130"/>
  <line style="fill:none;stroke:rgb(63,63,191);stroke-opacity:0.24705882352941178;stroke-miterlimit:10;stroke-linecap:square;" x1="297" x2="312" y1="130" y2="120"/>
  <line style="fill:none;stroke:rgb(63,63,191);stroke-opacity:0.24705882352941178;stroke-miterlimit:10;stroke-linecap:square;" x1="312" x2="327" y1="120" y2="110"/>
  <line style="fill:none;stroke:rgb(63,63,191);stroke-opacity:0.24705882352941178;stroke-miterlimit:10;stroke-linecap:square;" x1="327" x2="341" y1="110" y2="100"/>
  <line style="fill:none;stroke:rgb(63,63,191);stroke-opacity:0.24705882352941178;stroke-miterlimit:10;stroke-linecap:square;" x1="341" x2="356" y1="100" y2="90"/>
  <line style="fill:none;stroke:rgb(63,63,191);stroke-opacity:0.24705882352941178;stroke-miterlimit:10;stroke-linecap:square;" x1="356" x2="370" y1="90" y2="80"/>
  <line style="fill:none;stroke:rgb(63,63,191);stroke-opacity:0.24705882352941178;stroke-miterlimit:10;stroke-linecap:square;" x1="370" x2="385" y1="80" y2="70"/>
  <line style="fill:none;stroke:rgb(63,63,191);stroke-opacity:0.24705882352941178;stroke-miterlimit:10;stroke-linecap:square;" x1="385" x2="400" y1="70" y2="60"/>
  <line style="fill:none;stroke:rgb(63,63,191);stroke-opacity:0.24705882352941178;stroke-miterlimit:10;stroke-linecap:square;" x1="400" x2="400" y1="60" y2="60"/>
  <rect height="3" style="fill:rgb(255,127,0);fill-opacity:0.7490196078431373;stroke:none;" width="4" x="48" y="296"/>
  <line style="fill:none;stroke:rgb(255,127,0);stroke-opacity:0.24705882352941178;stroke-width:2;stroke-miterlimit:10;stroke-linecap:square;" x1="50" x2="50" y1="300" y2="300"/>
  <line style="fill:none;stroke:rgb(255,127,0);stroke-opacity:0.24705882352941178;stroke-width:2;stroke-miterlimit:10;stroke-linecap:square;" x1="50" x2="50" y1="298" y2="298"/>
  <rect height="18" style="fill:rgb(255,127,0);fill-opacity:0.7490196078431373;stroke:none;" width="4" x="62" y="281"/>
  <line style="fill:none;stroke:rgb(255,127,0);stroke-opacity:0.24705882352941178;stroke-width:2;stroke-miterlimit:10;stroke-linecap:square;" x1="50" x2="64" y1="296" y2="296"/>
  <line style="fill:none;stroke:rgb(255,127,0);stroke-opacity:0.24705882352941178;stroke-width:2;stroke-miterlimit:10;stroke-linecap:square;" x1="64" x2="64" y1="294" y2="280"/>
  <rect height="15" style="fill:rgb(255,127,0);fill-opacity:0.7490196078431373;stroke:none;" width="4" x="77" y="284"/>
  <line style="fill:none;stroke:rgb(255,127,0);stroke-opacity:0.24705882352941178;stroke-width:2;stroke-miterlimit:10;stroke-linecap:square;" x1="64" x2="79" y1="278" y2="278"/>
  <line style="fill:none;stroke:rgb(255,127,0);stroke-opacity:0.24705882352941178;stroke-width:2;stroke-miterlimit:10;stroke-linecap:square;" x1="79" x2="79" y1="276" y2="265"/>
  <rect height="12" style="fill:rgb(255,127,0);fill-opacity:0.7490196078431373;stroke:none;" width="4" x="91" y="287"/>
  <line style="fill:none;stroke:rgb(255,127,0);stroke-opacity:0.24705882352941178;stroke-width:2;stroke-miterlimit:10;stroke-linecap:square;" x1="79" x2="93" y1="263" y2="263"/>
  <line style="fill:none;stroke:rgb(255,127,0);stroke-opacity:0.24705882352941178;stroke-width:2;stroke-miterlimit:10;stroke-linecap:square;" x1="93" x2="93" y1="261" y2="252"/>
  <rect height="6" style="fill:rgb(255,127,0);fill-opacity:0.7490196078431373;stroke:none;" width="4" x="120" y="293"/>
  <line style="fill:none;stroke:rgb(255,127,0);stroke-opacity:0.24705882352941178;stroke-width:2;stroke-miterlimit:10;stroke-linecap:square;" x1="93" x2="122" y1="250" y2="250"/>
  <line style="fill:none;stroke:rgb(255,127,0);stroke-opacity:0.24705882352941178;stroke-width:2;stroke-miterlimit:10;stroke-linecap:square;" x1="122" x2="122" y1="248" y2="246"/>
  <rect height="6" style="fill:rgb(255,127,0);fill-opacity:0.7490196078431373;stroke:none;" width="4" x="135" y="293"/>
  <line style="fill:none;stroke:rgb(255,127,0);stroke-opacity:0.24705882352941178;stroke-width:2;stroke-miterlimit:10;stroke-linecap:square;" x1="122" x2="137" y1="244" y2="244"/>
  <line style="fill:none;stroke:rgb(255,127,0);stroke-opacity:0.24705882352941178;stroke-width:2;stroke-miterlimit:10;stroke-linecap:square;" x1="137" x2="137" y1="242" y2="240"/>
  <rect height="3" style="fill:rgb(255,127,0);fill-opacity:0.7490196078431373;stroke:none;" width="4" x="150" y="296"/>
  <line style="fill:none;stroke:rgb(255,127,0);stroke-opacity:0.24705882352941178;stroke-width:2;stroke-miterlimit:10;stroke-linecap:square;" x1="137" x2="152" y1="238" y2="238"/>
  <line style="fill:none;stroke:rgb(255,127,0);stroke-opacity:0.24705882352941178;stroke-width:2;stroke-miterlimit:10;stroke-linecap:square;" x1="152" x2="152" y1="236" y2="237"/>
  <rect height="6" style="fill:rgb(255,127,0);fill-opacity:0.7490196078431373;stroke:none;" width="4" x="164" y="293"/>
  <line style="fill:none;stroke:rgb(255,127,0);stroke-opacity:0.24705882352941178;stroke-width:2;stroke-miterlimit:10;stroke-linecap:square;" x1="152" x2="166" y1="235" y2="235"/>
  <line style="fill:none;stroke:rgb(255,127,0);stroke-opacity:0.24705882352941178;stroke-width:2;stroke-miterlimit:10;stroke-linecap:square;" x1="166" x2="166" y1="233" y2="231"/>
  <rect height="6" style="fill:rgb(255,127,0);fill-opacity:0.7490196078431373;stroke:none;" width="4" x="193" y="293"/>
  <line style="fill:none;stroke:rgb(255,127,0);stroke-opacity:0.24705882352941178;stroke-width:2;stroke-miterlimit:10;stroke-linecap:square;" x1="166" x2="195" y1="229" y2="229"/>
  <line style="fill:none;stroke:rgb(255,127,0);stroke-opacity:0.24705882352941178;stroke-width:2;stroke-miterlimit:10;stroke-linecap:square;" x1="195" x2="195" y1="227" y2="225"/>
  <rect height="15" style="fill:rgb(255,127,0);fill-opacity:0.7490196078431373;stroke:none;" width="4" x="208" y="284"/>
  <line style="fill:none;stroke:rgb(255,127,0);stroke-opacity:0.24705882352941178;stroke-width:2;stroke-miterlimit:10;stroke-linecap:square;" x1="195" x2="210" y1="223" y2="223"/>
  <line style="fill:none;stroke:rgb(255,127,0);stroke-opacity:0.24705882352941178;stroke-width:2;stroke-miterlimit:10;stroke-linecap:square;" x1="210" x2="210" y1="221" y2="209"/>
  <rect height="15" style="fill:rgb(255,127,0);fill-opacity:0.7490196078431373;stroke:none;" width="4" x="223" y="284"/>
  <line style="fill:none;stroke:rgb(255,127,0);stroke-opacity:0.24705882352941178;stroke-width:2;stroke-miterlimit:10;stroke-linecap:square;" x1="210" x2="225" y1="207" y2="207"/>
  <line style="fill:none;stroke:rgb(255,127,0);stroke-opacity:0.24705882352941178;stroke-width:2;stroke-miterlimit:10;stroke-linecap:square;" x1="225" x2="225" y1="205" y2="194"/>
  <rect height="30" style="fill:rgb(255,127,0);fill-opacity:0.7490196078431373;stroke:none;" width="4" x="237" y="269"/>
  <line style="fill:none;stroke:rgb(255,127,0);stroke-opacity:0.24705882352941178;stroke-width:2;stroke-miterlimit:10;stroke-linecap:square;" x1="225" x2="239" y1="192" y2="192"/>
  <line style="fill:none;stroke:rgb(255,127,0);stroke-opacity:0.24705882352941178;stroke-width:2;stroke-miterlimit:10;stroke-linecap:square;" x1="239" x2="239" y1="190" y2="163"/>
  <rect height="18" style="fill:rgb(255,127,0);fill-opacity:0.7490196078431373;stroke:none;" width="4" x="252" y="281"/>
  <line style="fill:none;stroke:rgb(255,127,0);stroke-opacity:0.24705882352941178;stroke-width:2;stroke-miterlimit:10;stroke-linecap:square;" x1="239" x2="254" y1="161" y2="161"/>
  <line style="fill:none;stroke:rgb(255,127,0);stroke-opacity:0.24705882352941178;stroke-width:2;stroke-miterlimit:10;stroke-linecap:square;" x1="254" x2="254" y1="159" y2="145"/>
  <rect height="21" style="fill:rgb(255,127,0);fill-opacity:0.7490196078431373;stroke:none;" width="4" x="266" y="278"/>
  <line style="fill:none;stroke:rgb(255,127,0);stroke-opacity:0.24705882352941178;stroke-width:2;stroke-miterlimit:10;stroke-linecap:square;" x1="254" x2="268" y1="143" y2="143"/>
  <line style="fill:none;stroke:rgb(255,127,0);stroke-opacity:0.24705882352941178;stroke-width:2;stroke-miterlimit:10;stroke-linecap:square;" x1="268" x2="268" y1="141" y2="123"/>
  <rect height="12" style="fill:rgb(255,127,0);fill-opacity:0.7490196078431373;stroke:none;" width="4" x="281" y="287"/>
  <line style="fill:none;stroke:rgb(255,127,0);stroke-opacity:0.24705882352941178;stroke-width:2;stroke-miterlimit:10;stroke-linecap:square;" x1="268" x2="283" y1="121" y2="121"/>
  <line style="fill:none;stroke:rgb(255,127,0);stroke-opacity:0.24705882352941178;stroke-width:2;stroke-miterlimit:10;stroke-linecap:square;" x1="283" x2="283" y1="119" y2="111"/>
  <rect height="12" style="fill:rgb(255,127,0);fill-opacity:0.7490196078431373;stroke:none;" width="4" x="295" y="287"/>
  <line style="fill:none;stroke:rgb(255,127,0);stroke-opacity:0.24705882352941178;stroke-width:2;stroke-miterlimit:10;stroke-linecap:square;" x1="283" x2="297" y1="109" y2="109"/>
  <line style="fill:none;stroke:rgb(255,127,0);stroke-opacity:0.24705882352941178;stroke-width:2;stroke-miterlimit:10;stroke-linecap:square;" x1="297" x2="297" y1="107" y2="98"/>
  <rect height="3" style="fill:rgb(255,127,0);fill-opacity:0.7490196078431373;stroke:none;" width="4" x="310" y="296"/>
  <line style="fill:none;stroke:rgb(255,127,0);stroke-opacity:0.24705882352941178;stroke-width:2;stroke-miterlimit:10;stroke-linecap:square;" x1="297" x2="312" y1="96" y2="96"/>
  <line style="fill:none;stroke:rgb(255,127,0);stroke-opacity:0.24705882352941178;stroke-width:2;stroke-miterlimit:10;stroke-linecap:square;" x1="312" x2="312" y1="94" y2="95"/>
  <rect height="3" style="fill:rgb(255,127,0);fill-opacity:0.7490196078431373;stroke:none;" width="4" x="325" y="296"/>
  <line style="fill:none;stroke:rgb(255,127,0);stroke-opacity:0.24705882352941178;stroke-width:2;stroke-miterlimit:10;stroke-linecap:square;" x1="312" x2="327" y1="93" y2="93"/>
  <line style="fill:none;stroke:rgb(255,127,0);stroke-opacity:0.24705882352941178;stroke-width:2;stroke-miterlimit:10;stroke-linecap:square;" x1="327" x2="327" y1="91" y2="92"/>
  <rect height="9" style="fill:rgb(255,127,0);fill-opacity:0.7490196078431373;stroke:none;" width="4" x="339" y="290"/>
  <line style="fill:none;stroke:rgb(255,127,0);stroke-opacity:0.24705882352941178;stroke-width:2;stroke-miterlimit:10;stroke-linecap:square;" x1="327" x2="341" y1="90" y2="90"/>
  <line style="fill:none;stroke:rgb(255,127,0);stroke-opacity:0.24705882352941178;stroke-width:2;stroke-miterlimit:10;stroke-linecap:square;" x1="341" x2="341" y1="88" y2="83"/>
  <rect height="6" style="fill:rgb(255,127,0);fill-opacity:0.7490196078431373;stroke:none;" width="4" x="354" y="293"/>
  <line style="fill:none;stroke:rgb(255,127,0);stroke-opacity:0.24705882352941178;stroke-width:2;stroke-miterlimit:10;stroke-linecap:square;" x1="341" x2="356" y1="81" y2="81"/>
  <line style="fill:none;stroke:rgb(255,127,0);stroke-opacity:0.24705882352941178;stroke-width:2;stroke-miterlimit:10;stroke-linecap:square;" x1="356" x2="356" y1="79" y2="77"/>
  <rect height="6" style="fill:rgb(255,127,0);fill-opacity:0.7490196078431373;stroke:none;" width="4" x="368" y="293"/>
  <line style="fill:none;stroke:rgb(255,127,0);stroke-opacity:0.24705882352941178;stroke-width:2;stroke-miterlimit:10;stroke-linecap:square;" x1="356" x2="370" y1="75" y2="75"/>
  <line style="fill:none;stroke:rgb(255,127,0);stroke-opacity:0.24705882352941178;stroke-width:2;stroke-miterlimit:10;stroke-linecap:square;" x1="370" x2="370" y1="73" y2="71"/>
  <rect height="6" style="fill:rgb(255,127,0);fill-opacity:0.7490196078431373;stroke:none;" width="4" x="383" y="293"/>
  <line style="fill:none;stroke:rgb(255,127,0);stroke-opacity:0.24705882352941178;stroke-width:2;stroke-miterlimit:10;stroke-linecap:square;" x1="370" x2="385" y1="69" y2="69"/>
  <line style="fill:none;stroke:rgb(255,127,0);stroke-opacity:0.24705882352941178;stroke-width:2;stroke-miterlimit:10;stroke-linecap:square;" x1="385" x2="385" y1="67" y2="65"/>
  <rect height="3" style="fill:rgb(255,127,0);fill-opacity:0.7490196078431373;stroke:none;" width="4" x="398" y="296"/>
  <line style="fill:none;stroke:rgb(255,127,0);stroke-opacity:0.24705882352941178;stroke-width:2;stroke-miterlimit:10;stroke-linecap:square;" x1="385" x2="400" y1="63" y2="63"/>
  <line style="fill:none;stroke:rgb(255,127,0);stroke-opacity:0.24705882352941178;stroke-width:2;stroke-miterlimit:10;stroke-linecap:square;" x1="400" x2="400" y1="61" y2="62"/>
  <line style="fill:none;stroke:rgb(255,127,0);stroke-opacity:0.24705882352941178;stroke-width:2;stroke-miterlimit:10;stroke-linecap:square;" x1="400" x2="400" y1="60" y2="60"/>
  <line style="fill:none;stroke:rgb(255,127,0);stroke-opacity:0.4980392156862745;stroke-miterlimit:2;stroke-dasharray:2;" x1="50" x2="50" y1="300" y2="350"/>
  <line style="fill:none;stroke:rgb(255,127,0);stroke-opacity:0.4980392156862745;stroke-miterlimit:2;stroke-dasharray:2;" x1="64" x2="64" y1="300" y2="364"/>
  <line style="fill:none;stroke:rgb(255,127,0);stroke-opacity:0.4980392156862745;stroke-miterlimit:2;stroke-dasharray:2;" x1="64" x2="64" y1="300" y2="378"/>
  <line style="fill:none;stroke:rgb(255,127,0);stroke-opacity:0.4980392156862745;stroke-miterlimit:2;stroke-dasharray:2;" x1="64" x2="64" y1="300" y2="392"/>
  <line style="fill:none;stroke:rgb(255,127,0);stroke-opacity:0.4980392156862745;stroke-miterlimit:2;stroke-dasharray:2;" x1="64" x2="64" y1="300" y2="406"/>
  <line style="fill:none;stroke:rgb(255,127,0);stroke-opacity:0.4980392156862745;stroke-miterlimit:2;stroke-dasharray:2;" x1="64" x2="64" y1="300" y2="420"/>
  <line style="fill:none;stroke:rgb(255,127,0);stroke-opacity:0.4980392156862745;stroke-miterlimit:2;stroke-dasharray:2;" x1="64" x2="64" y1="300" y2="434"/>
  <line style="fill:none;stroke:rgb(255,127,0);stroke-opacity:0.4980392156862745;stroke-miterlimit:2;stroke-dasharray:2;" x1="79" x2="79" y1="300" y2="448"/>
  <line style="fill:none;stroke:rgb(255,127,0);stroke-opacity:0.4980392156862745;stroke-miterlimit:2;stroke-dasharray:2;" x1="79" x2="79" y1="300" y2="462"/>
  <line style="fill:none;stroke:rgb(255,127,0);stroke-opacity:0.4980392156862745;stroke-miterlimit:2;stroke-dasharray:2;" x1="79" x2="79" y1="300" y2="476"/>
  <line style="fill:none;stroke:rgb(255,127,0);stroke-opacity:0.4980392156862745;stroke-miterlimit:2;stroke-dasharray:2;" x1="79" x2="79" y1="300" y2="490"/>
  <line style="fill:none;stroke:rgb(255,127,0);stroke-opacity:0.4980392156862745;stroke-miterlimit:2;stroke-dasharray:2;" x1="79" x2="79" y1="300" y2="504"/>
  <line style="fill:none;stroke:rgb(255,127,0);stroke-opacity:0.4980392156862745;stroke-miterlimit:2;stroke-dasharray:2;" x1="93" x2="93" y1="300" y2="518"/>
  <line style="fill:none;stroke:rgb(255,127,0);stroke-opacity:0.4980392156862745;stroke-miterlimit:2;stroke-dasharray:2;" x1="93" x2="93" y1="300" y2="532"/>
  <line style="fill:none;stroke:rgb(255,127,0);stroke-opacity:0.4980392156862745;stroke-miterlimit:2;stroke-dasharray:2;" x1="93" x2="93" y1="300" y2="546"/>
  <line style="fill:none;stroke:rgb(255,127,0);stroke-opacity:0.4980392156862745;stroke-miterlimit:2;stroke-dasharray:2;" x1="93" x2="93" y1="300" y2="560"/>
  <line style="fill:none;stroke:rgb(255,127,0);stroke-opacity:0.4980392156862745;stroke-miterlimit:2;stroke-dasharray:2;" x1="122" x2="122" y1="300" y2="574"/>
  <line style="fill:none;stroke:rgb(255,127,0);stroke-opacity:0.4980392156862745;stroke-miterlimit:2;stroke-dasharray:2;" x1="122" x2="122" y1="300" y2="588"/>
  <line style="fill:none;stroke:rgb(255,127,0);stroke-opacity:0.4980392156862745;stroke-miterlimit:2;stroke-dasharray:2;" x1="137" x2="137" y1="300" y2="602"/>
  <line style="fill:none;stroke:rgb(255,127,0);stroke-opacity:0.4980392156862745;stroke-miterlimit:2;stroke-dasharray:2;" x1="137" x2="137" y1="300" y2="616"/>
  <line style="fill:none;stroke:rgb(255,127,0);stroke-opacity:0.4980392156862745;stroke-miterlimit:2;stroke-dasharray:2;" x1="152" x2="152" y1="300" y2="630"/>
  <line style="fill:none;stroke:rgb(255,127,0);stroke-opacity:0.4980392156862745;stroke-miterlimit:2;stroke-dasharray:2;" x1="166" x2="166" y1="300" y2="644"/>
  <line style="fill:none;stroke:rgb(255,127,0);stroke-opacity:0.4980392156862745;stroke-miterlimit:2;stroke-dasharray:2;" x1="166" x2="166" y1="300" y2="658"/>
  <line style="fill:none;stroke:rgb(255,127,0);stroke-opacity:0.4980392156862745;stroke-miterlimit:2;stroke-dasharray:2;" x1="195" x2="195" y1="300" y2="672"/>
  <line style="fill:none;stroke:rgb(255,127,0);stroke-opacity:0.4980392156862745;stroke-miterlimit:2;stroke-dasharray:2;" x1="195" x2="195" y1="300" y2="686"/>
  <line style="fill:none;stroke:rgb(255,127,0);stroke-opacity:0.4980392156862745;stroke-miterlimit:2;stroke-dasharray:2;" x1="210" x2="210" y1="300" y2="701"/>
  <line style="fill:none;stroke:rgb(255,127,0);stroke-opacity:0.4980392156862745;stroke-miterlimit:2;stroke-dasharray:2;" x1="210" x2="210" y1="300" y2="716"/>
  <line style="fill:none;stroke:rgb(255,127,0);stroke-opacity:0.4980392156862745;stroke-miterlimit:2;stroke-dasharray:2;" x1="210" x2="210" y1="300" y2="731"/>
  <line style="fill:none;stroke:rgb(255,127,0);stroke-opacity:0.4980392156862745;stroke-miterlimit:2;stroke-dasharray:2;" x1="210" x2="210" y1="300" y2="746"/>
  <line style="fill:none;stroke:rgb(255,127,0);stroke-opacity:0.4980392156862745;stroke-miterlimit:2;stroke-dasharray:2;" x1="210" x2="210" y1="300" y2="761"/>
  <line style="fill:none;stroke:rgb(255,127,0);stroke-opacity:0.4980392156862745;stroke-miterlimit:2;stroke-dasharray:2;" x1="225" x2="225" y1="300" y2="776"/>
  <line style="fill:none;stroke:rgb(255,127,0);stroke-opacity:0.4980392156862745;stroke-miterlimit:2;stroke-dasharray:2;" x1="225" x2="225" y1="300" y2="791"/>
  <line style="fill:none;stroke:rgb(255,127,0);stroke-opacity:0.4980392156862745;stroke-miterlimit:2;stroke-dasharray:2;" x1="225" x2="225" y1="300" y2="806"/>
  <line style="fill:none;stroke:rgb(255,127,0);stroke-opacity:0.4980392156862745;stroke-miterlimit:2;stroke-dasharray:2;" x1="225" x2="225" y1="300" y2="821"/>
  <line style="fill:none;stroke:rgb(255,127,0);stroke-opacity:0.4980392156862745;stroke-miterlimit:2;stroke-dasharray:2;" x1="225" x2="225" y1="300" y2="836"/>
  <line style="fill:none;stroke:rgb(255,127,0);stroke-opacity:0.4980392156862745;stroke-miterlimit:2;stroke-dasharray:2;" x1="239" x2="239" y1="300" y2="851"/>
  <line style="fill:none;stroke:rgb(255,127,0);stroke-opacity:0.4980392156862745;stroke-miterlimit:2;stroke-dasharray:2;" x1="239" x2="239" y1="300" y2="866"/>
  <line style="fill:none;stroke:rgb(255,127,0);stroke-opacity:0.4980392156862745;stroke-miterlimit:2;stroke-dasharray:2;" x1="239" x2="239" y1="300" y2="881"/>
  <line style="fill:none;stroke:rgb(255,127,0);stroke-opacity:0.4980392156862745;stroke-miterlimit:2;stroke-dasharray:2;" x1="239" x2="239" y1="300" y2="896"/>
  <line style="fill:none;stroke:rgb(255,127,0);stroke-opacity:0.4980392156862745;stroke-miterlimit:2;stroke-dasharray:2;" x1="239" x2="239" y1="300" y2="911"/>
  <line style="fill:none;stroke:rgb(255,127,0);stroke-opacity:0.4980392156862745;stroke-miterlimit:2;stroke-dasharray:2;" x1="239" x2="239" y1="300" y2="926"/>
  <line style="fill:none;stroke:rgb(255,127,0);stroke-opacity:0.4980392156862745;stroke-miterlimit:2;stroke-dasharray:2;" x1="239" x2="239" y1="300" y2="941"/>
  <line style="fill:none;stroke:rgb(255,127,0);stroke-opacity:0.4980392156862745;stroke-miterlimit:2;stroke-dasharray:2;" x1="239" x2="239" y1="300" y2="956"/>
  <line style="fill:none;stroke:rgb(255,127,0);stroke-opacity:0.4980392156862745;stroke-miterlimit:2;stroke-dasharray:2;" x1="239" x2="239" y1="300" y2="971"/>
  <line style="fill:none;stroke:rgb(255,127,0);stroke-opacity:0.4980392156862745;stroke-miterlimit:2;stroke-dasharray:2;" x1="239" x2="239" y1="300" y2="986"/>
  <line style="fill:none;stroke:rgb(255,127,0);stroke-opacity:0.4980392156862745;stroke-miterlimit:2;stroke-dasharray:2;" x1="254" x2="254" y1="300" y2="1001"/>
  <line style="fill:none;stroke:rgb(255,127,0);stroke-opacity:0.4980392156862745;stroke-miterlimit:2;stroke-dasharray:2;" x1="254" x2="254" y1="300" y2="1016"/>
  <line style="fill:none;stroke:rgb(255,127,0);stroke-opacity:0.4980392156862745;stroke-miterlimit:2;stroke-dasharray:2;" x1="254" x2="254" y1="300" y2="1031"/>
  <line style="fill:none;stroke:rgb(255,127,0);stroke-opacity:0.4980392156862745;stroke-miterlimit:2;stroke-dasharray:2;" x1="254" x2="254" y1="300" y2="1046"/>
  <line style="fill:none;stroke:rgb(255,127,0);stroke-opacity:0.4980392156862745;stroke-miterlimit:2;stroke-dasharray:2;" x1="254" x2="254" y1="300" y2="1061"/>
  <line style="fill:none;stroke:rgb(255,127,0);stroke-opacity:0.4980392156862745;stroke-miterlimit:2;stroke-dasharray:2;" x1="254" x2="254" y1="300" y2="1076"/>
  <line style="fill:none;stroke:rgb(255,127,0);stroke-opacity:0.4980392156862745;stroke-miterlimit:2;stroke-dasharray:2;" x1="268" x2="268" y1="300" y2="1091"/>
  <line style="fill:none;stroke:rgb(255,127,0);stroke-opacity:0.4980392156862745;stroke-miterlimit:2;stroke-dasharray:2;" x1="268" x2="268" y1="300" y2="1106"/>
  <line style="fill:none;stroke:rgb(255,127,0);stroke-opacity:0.4980392156862745;stroke-miterlimit:2;stroke-dasharray:2;" x1="268" x2="268" y1="300" y2="1121"/>
  <line style="fill:none;stroke:rgb(255,127,0);stroke-opacity:0.4980392156862745;stroke-miterlimit:2;stroke-dasharray:2;" x1="268" x2="268" y1="300" y2="1136"/>
  <line style="fill:none;stroke:rgb(255,127,0);stroke-opacity:0.4980392156862745;stroke-miterlimit:2;stroke-dasharray:2;" x1="268" x2="268" y1="300" y2="1151"/>
  <line style="fill:none;stroke:rgb(255,127,0);stroke-opacity:0.4980392156862745;stroke-miterlimit:2;stroke-dasharray:2;" x1="268" x2="268" y1="300" y2="1166"/>
  <line style="fill:none;stroke:rgb(255,127,0);stroke-opacity:0.4980392156862745;stroke-miterlimit:2;stroke-dasharray:2;" x1="268" x2="268" y1="300" y2="1181"/>
  <line style="fill:none;stroke:rgb(255,127,0);stroke-opacity:0.4980392156862745;stroke-miterlimit:2;stroke-dasharray:2;" x1="283" x2="283" y1="300" y2="1196"/>
  <line style="fill:none;stroke:rgb(255,127,0);stroke-opacity:0.4980392156862745;stroke-miterlimit:2;stroke-dasharray:2;" x1="283" x2="283" y1="300" y2="1211"/>
  <line style="fill:none;stroke:rgb(255,127,0);stroke-opacity:0.4980392156862745;stroke-miterlimit:2;stroke-dasharray:2;" x1="283" x2="283" y1="300" y2="1226"/>
  <line style="fill:none;stroke:rgb(255,127,0);stroke-opacity:0.4980392156862745;stroke-miterlimit:2;stroke-dasharray:2;" x1="283" x2="283" y1="300" y2="1241"/>
  <line style="fill:none;stroke:rgb(255,127,0);stroke-opacity:0.4980392156862745;stroke-miterlimit:2;stroke-dasharray:2;" x1="297" x2="297" y1="300" y2="1256"/>
  <line style="fill:none;stroke:rgb(255,127,0);stroke-opacity:0.4980392156862745;stroke-miterlimit:2;stroke-dasharray:2;" x1="297" x2="297" y1="300" y2="1271"/>
  <line style="fill:none;stroke:rgb(255,127,0);stroke-opacity:0.4980392156862745;stroke-miterlimit:2;stroke-dasharray:2;" x1="297" x2="297" y1="300" y2="1286"/>
  <line style="fill:none;stroke:rgb(255,127,0);stroke-opacity:0.4980392156862745;stroke-miterlimit:2;stroke-dasharray:2;" x1="297" x2="297" y1="300" y2="1301"/>
  <line style="fill:none;stroke:rgb(255,127,0);stroke-opacity:0.4980392156862745;stroke-miterlimit:2;stroke-dasharray:2;" x1="312" x2="312" y1="300" y2="1315"/>
  <line style="fill:none;stroke:rgb(255,127,0);stroke-opacity:0.4980392156862745;stroke-miterlimit:2;stroke-dasharray:2;" x1="327" x2="327" y1="300" y2="1329"/>
  <line style="fill:none;stroke:rgb(255,127,0);stroke-opacity:0.4980392156862745;stroke-miterlimit:2;stroke-dasharray:2;" x1="341" x2="341" y1="300" y2="1343"/>
  <line style="fill:none;stroke:rgb(255,127,0);stroke-opacity:0.4980392156862745;stroke-miterlimit:2;stroke-dasharray:2;" x1="341" x2="341" y1="300" y2="1357"/>
  <line style="fill:none;stroke:rgb(255,127,0);stroke-opacity:0.4980392156862745;stroke-miterlimit:2;stroke-dasharray:2;" x1="341" x2="341" y1="300" y2="1371"/>
  <line style="fill:none;stroke:rgb(255,127,0);stroke-opacity:0.4980392156862745;stroke-miterlimit:2;stroke-dasharray:2;" x1="356" x2="356" y1="300" y2="1385"/>
  <line style="fill:none;stroke:rgb(255,127,0);stroke-opacity:0.4980392156862745;stroke-miterlimit:2;stroke-dasharray:2;" x1="356" x2="356" y1="300" y2="1399"/>
  <line style="fill:none;stroke:rgb(255,127,0);stroke-opacity:0.4980392156862745;stroke-miterlimit:2;stroke-dasharray:2;" x1="370" x2="370" y1="300" y2="1413"/>
  <line style="fill:none;stroke:rgb(255,127,0);stroke-opacity:0.4980392156862745;stroke-miterlimit:2;stroke-dasharray:2;" x1="370" x2="370" y1="300" y2="1427"/>
  <line style="fill:none;stroke:rgb(255,127,0);stroke-opacity:0.4980392156862745;stroke-miterlimit:2;stroke-dasharray:2;" x1="385" x2="385" y1="300" y2="1441"/>
  <line style="fill:none;stroke:rgb(255,127,0);stroke-opacity:0.4980392156862745;stroke-miterlimit:2;stroke-dasharray:2;" x1="385" x2="385" y1="300" y2="1455"/>
  <line style="fill:none;stroke:rgb(255,127,0);stroke-opacity:0.4980392156862745;stroke-miterlimit:2;stroke-dasharray:2;" x1="400" x2="400" y1="300" y2="1469"/>
  <line style="fill:none;stroke:rgb(0,0,0);stroke-width:2;stroke-miterlimit:10;stroke-linecap:square;" x1="48" x2="48" y1="60" y2="300"/>
  <line style="fill:none;stroke:rgb(0,0,0);stroke-width:2;stroke-miterlimit:10;stroke-linecap:square;" x1="48" x2="402" y1="300" y2="300"/>
  <rect height="30" style="fill:rgb(255,255,255);stroke:none;" width="17" x="42" y="308"/>
  <text style="fill:rgb(0,0,0);stroke:none;font-size:25px;font-weight:bold;" x="42" y="332">0</text>
  <rect height="30" style="fill:rgb(255,255,255);stroke:none;" width="34" x="383" y="308"/>
  <text style="fill:rgb(0,0,0);stroke:none;font-size:25px;font-weight:bold;" x="383" y="332">24</text>
  <text style="fill:rgb(0,0,0);stroke:none;font-size:25px;font-weight:bold;" x="25" y="312">0</text>
  <text style="fill:rgb(0,0,0);stroke:none;font-size:25px;font-weight:bold;" x="25" y="72">1</text>
  <text style="fill:rgb(0,0,0);stroke:none;font-size:25px;font-weight:bold;" x="14" y="42">YOSHIMURA_MAPK8_TARGETS_UP</text>
  <rect height="11" style="fill:rgb(255,255,255);stroke:none;" width="34" x="50" y="339"/>
  <text style="fill:rgb(128,128,128);stroke:none;font-size:11px;" x="50" y="350">ITGB3</text>
  <rect height="11" style="fill:rgb(255,255,255);stroke:none;" width="32" x="64" y="353"/>
  <text style="fill:rgb(128,128,128);stroke:none;font-size:11px;" x="64" y="364">COLQ</text>
  <rect height="11" style="fill:rgb(255,255,255);stroke:none;" width="39" x="64" y="367"/>
  <text style="fill:rgb(128,128,128);stroke:none;font-size:11px;" x="64" y="378">CNGA1</text>
  <rect height="11" style="fill:rgb(255,255,255);stroke:none;" width="37" x="64" y="381"/>
  <text style="fill:rgb(128,128,128);stroke:none;font-size:11px;" x="64" y="392">DACT2</text>
  <rect height="11" style="fill:rgb(255,255,255);stroke:none;" width="37" x="64" y="395"/>
  <text style="fill:rgb(128,128,128);stroke:none;font-size:11px;" x="64" y="406">CXCR4</text>
  <rect height="11" style="fill:rgb(255,255,255);stroke:none;" width="42" x="64" y="409"/>
  <text style="fill:rgb(128,128,128);stroke:none;font-size:11px;" x="64" y="420">RNF112</text>
  <rect height="11" style="fill:rgb(255,255,255);stroke:none;" width="50" x="64" y="423"/>
  <text style="fill:rgb(128,128,128);stroke:none;font-size:11px;" x="64" y="434">SLC13A3</text>
  <rect height="11" style="fill:rgb(255,255,255);stroke:none;" width="23" x="79" y="437"/>
  <text style="fill:rgb(128,128,128);stroke:none;font-size:11px;" x="79" y="448">TNC</text>
  <rect height="11" style="fill:rgb(255,255,255);stroke:none;" width="30" x="79" y="451"/>
  <text style="fill:rgb(128,128,128);stroke:none;font-size:11px;" x="79" y="462">BDNF</text>
  <rect height="11" style="fill:rgb(255,255,255);stroke:none;" width="30" x="79" y="465"/>
  <text style="fill:rgb(128,128,128);stroke:none;font-size:11px;" x="79" y="476">PRG2</text>
  <rect height="11" style="fill:rgb(255,255,255);stroke:none;" width="32" x="79" y="479"/>
  <text style="fill:rgb(128,128,128);stroke:none;font-size:11px;" x="79" y="490">C1QC</text>
  <rect height="11" style="fill:rgb(255,255,255);stroke:none;" width="50" x="79" y="493"/>
  <text style="fill:rgb(128,128,128);stroke:none;font-size:11px;" x="79" y="504">SLC15A1</text>
  <rect height="11" style="fill:rgb(255,255,255);stroke:none;" width="29" x="93" y="507"/>
  <text style="fill:rgb(128,128,128);stroke:none;font-size:11px;" x="93" y="518">DPP6</text>
  <rect height="11" style="fill:rgb(255,255,255);stroke:none;" width="33" x="93" y="521"/>
  <text style="fill:rgb(128,128,128);stroke:none;font-size:11px;" x="93" y="532">TNNI2</text>
  <rect height="11" style="fill:rgb(255,255,255);stroke:none;" width="53" x="93" y="535"/>
  <text style="fill:rgb(128,128,128);stroke:none;font-size:11px;" x="93" y="546">HSD11B2</text>
  <rect height="11" style="fill:rgb(255,255,255);stroke:none;" width="49" x="93" y="549"/>
  <text style="fill:rgb(128,128,128);stroke:none;font-size:11px;" x="93" y="560">PLEKHA1</text>
  <rect height="11" style="fill:rgb(255,255,255);stroke:none;" width="27" x="122" y="563"/>
  <text style="fill:rgb(128,128,128);stroke:none;font-size:11px;" x="122" y="574">PRLR</text>
  <rect height="11" style="fill:rgb(255,255,255);stroke:none;" width="43" x="122" y="577"/>
  <text style="fill:rgb(128,128,128);stroke:none;font-size:11px;" x="122" y="588">SLC6A9</text>
  <rect height="11" style="fill:rgb(255,255,255);stroke:none;" width="38" x="137" y="591"/>
  <text style="fill:rgb(128,128,128);stroke:none;font-size:11px;" x="137" y="602">KCNH8</text>
  <rect height="11" style="fill:rgb(255,255,255);stroke:none;" width="46" x="137" y="605"/>
  <text style="fill:rgb(128,128,128);stroke:none;font-size:11px;" x="137" y="616">GPRC5C</text>
  <rect height="11" style="fill:rgb(255,255,255);stroke:none;" width="36" x="152" y="619"/>
  <text style="fill:rgb(128,128,128);stroke:none;font-size:11px;" x="152" y="630">ALOX5</text>
  <rect height="11" style="fill:rgb(255,255,255);stroke:none;" width="24" x="166" y="633"/>
  <text style="fill:rgb(128,128,128);stroke:none;font-size:11px;" x="166" y="644">IER3</text>
  <rect height="11" style="fill:rgb(255,255,255);stroke:none;" width="30" x="166" y="647"/>
  <text style="fill:rgb(128,128,128);stroke:none;font-size:11px;" x="166" y="658">EGR1</text>
  <rect height="11" style="fill:rgb(255,255,255);stroke:none;" width="30" x="195" y="661"/>
  <text style="fill:rgb(128,128,128);stroke:none;font-size:11px;" x="195" y="672">AQP3</text>
  <rect height="11" style="fill:rgb(255,255,255);stroke:none;" width="46" x="195" y="675"/>
  <text style="fill:rgb(128,128,128);stroke:none;font-size:11px;" x="195" y="686">CDC25B</text>
  <rect height="12" style="fill:rgb(255,255,255);stroke:none;" width="31" x="210" y="689"/>
  <text style="fill:rgb(128,128,128);stroke:none;" x="210" y="701">RXRB</text>
  <rect height="12" style="fill:rgb(255,255,255);stroke:none;" width="33" x="210" y="704"/>
  <text style="fill:rgb(128,128,128);stroke:none;" x="210" y="716">HES5</text>
  <rect height="12" style="fill:rgb(255,255,255);stroke:none;" width="32" x="210" y="719"/>
  <text style="fill:rgb(128,128,128);stroke:none;" x="210" y="731">NAT1</text>
  <rect height="12" style="fill:rgb(255,255,255);stroke:none;" width="50" x="210" y="734"/>
  <text style="fill:rgb(128,128,128);stroke:none;" x="210" y="746">DNASE1</text>
  <rect height="12" style="fill:rgb(255,255,255);stroke:none;" width="59" x="210" y="749"/>
  <text style="fill:rgb(128,128,128);stroke:none;" x="210" y="761">CHORDC1</text>
  <rect height="12" style="fill:rgb(255,255,255);stroke:none;" width="22" x="225" y="764"/>
  <text style="fill:rgb(128,128,128);stroke:none;" x="225" y="776">SYK</text>
  <rect height="12" style="fill:rgb(255,255,255);stroke:none;" width="30" x="225" y="779"/>
  <text style="fill:rgb(128,128,128);stroke:none;" x="225" y="791">CCL2</text>
  <rect height="12" style="fill:rgb(255,255,255);stroke:none;" width="35" x="225" y="794"/>
  <text style="fill:rgb(128,128,128);stroke:none;" x="225" y="806">GPAM</text>
  <rect height="12" style="fill:rgb(255,255,255);stroke:none;" width="38" x="225" y="809"/>
  <text style="fill:rgb(128,128,128);stroke:none;" x="225" y="821">STX1A</text>
  <rect height="12" style="fill:rgb(255,255,255);stroke:none;" width="46" x="225" y="824"/>
  <text style="fill:rgb(128,128,128);stroke:none;" x="225" y="836">TEX261</text>
  <rect height="12" style="fill:rgb(255,255,255);stroke:none;" width="25" x="239" y="839"/>
  <text style="fill:rgb(128,128,128);stroke:none;" x="239" y="851">DBP</text>
  <rect height="12" style="fill:rgb(255,255,255);stroke:none;" width="24" x="239" y="854"/>
  <text style="fill:rgb(128,128,128);stroke:none;" x="239" y="866">SPR</text>
  <rect height="12" style="fill:rgb(255,255,255);stroke:none;" width="34" x="239" y="869"/>
  <text style="fill:rgb(128,128,128);stroke:none;" x="239" y="881">MPP3</text>
  <rect height="12" style="fill:rgb(255,255,255);stroke:none;" width="44" x="239" y="884"/>
  <text style="fill:rgb(128,128,128);stroke:none;" x="239" y="896">WDR31</text>
  <rect height="12" style="fill:rgb(255,255,255);stroke:none;" width="39" x="239" y="899"/>
  <text style="fill:rgb(128,128,128);stroke:none;" x="239" y="911">GSTT2</text>
  <rect height="12" style="fill:rgb(255,255,255);stroke:none;" width="41" x="239" y="914"/>
  <text style="fill:rgb(128,128,128);stroke:none;" x="239" y="926">MAT2A</text>
  <rect height="12" style="fill:rgb(255,255,255);stroke:none;" width="40" x="239" y="929"/>
  <text style="fill:rgb(128,128,128);stroke:none;" x="239" y="941">RAB24</text>
  <rect height="12" style="fill:rgb(255,255,255);stroke:none;" width="40" x="239" y="944"/>
  <text style="fill:rgb(128,128,128);stroke:none;" x="239" y="956">FANCC</text>
  <rect height="12" style="fill:rgb(255,255,255);stroke:none;" width="32" x="239" y="959"/>
  <text style="fill:rgb(128,128,128);stroke:none;" x="239" y="971">KITLG</text>
  <rect height="12" style="fill:rgb(255,255,255);stroke:none;" width="39" x="239" y="974"/>
  <text style="fill:rgb(128,128,128);stroke:none;" x="239" y="986">IL1RL2</text>
  <rect height="12" style="fill:rgb(255,255,255);stroke:none;" width="32" x="254" y="989"/>
  <text style="fill:rgb(128,128,128);stroke:none;" x="254" y="1001">ACCS</text>
  <rect height="12" style="fill:rgb(255,255,255);stroke:none;" width="33" x="254" y="1004"/>
  <text style="fill:rgb(128,128,128);stroke:none;" x="254" y="1016">THBD</text>
  <rect height="12" style="fill:rgb(255,255,255);stroke:none;" width="31" x="254" y="1019"/>
  <text style="fill:rgb(128,128,128);stroke:none;" x="254" y="1031">NTF4</text>
  <rect height="12" style="fill:rgb(255,255,255);stroke:none;" width="33" x="254" y="1034"/>
  <text style="fill:rgb(128,128,128);stroke:none;" x="254" y="1046">GPC2</text>
  <rect height="12" style="fill:rgb(255,255,255);stroke:none;" width="32" x="254" y="1049"/>
  <text style="fill:rgb(128,128,128);stroke:none;" x="254" y="1061">CHKB</text>
  <rect height="12" style="fill:rgb(255,255,255);stroke:none;" width="49" x="254" y="1064"/>
  <text style="fill:rgb(128,128,128);stroke:none;" x="254" y="1076">GABBR1</text>
  <rect height="12" style="fill:rgb(255,255,255);stroke:none;" width="24" x="268" y="1079"/>
  <text style="fill:rgb(128,128,128);stroke:none;" x="268" y="1091">CA2</text>
  <rect height="12" style="fill:rgb(255,255,255);stroke:none;" width="22" x="268" y="1094"/>
  <text style="fill:rgb(128,128,128);stroke:none;" x="268" y="1106">TEF</text>
  <rect height="12" style="fill:rgb(255,255,255);stroke:none;" width="43" x="268" y="1109"/>
  <text style="fill:rgb(128,128,128);stroke:none;" x="268" y="1121">DNAH9</text>
  <rect height="12" style="fill:rgb(255,255,255);stroke:none;" width="48" x="268" y="1124"/>
  <text style="fill:rgb(128,128,128);stroke:none;" x="268" y="1136">TSGA10</text>
  <rect height="12" style="fill:rgb(255,255,255);stroke:none;" width="50" x="268" y="1139"/>
  <text style="fill:rgb(128,128,128);stroke:none;" x="268" y="1151">PSTPIP1</text>
  <rect height="12" style="fill:rgb(255,255,255);stroke:none;" width="64" x="268" y="1154"/>
  <text style="fill:rgb(128,128,128);stroke:none;" x="268" y="1166">C1ORF210</text>
  <rect height="12" style="fill:rgb(255,255,255);stroke:none;" width="58" x="268" y="1169"/>
  <text style="fill:rgb(128,128,128);stroke:none;" x="268" y="1181">TIMELESS</text>
  <rect height="12" style="fill:rgb(255,255,255);stroke:none;" width="30" x="283" y="1184"/>
  <text style="fill:rgb(128,128,128);stroke:none;" x="283" y="1196">CFTR</text>
  <rect height="12" style="fill:rgb(255,255,255);stroke:none;" width="41" x="283" y="1199"/>
  <text style="fill:rgb(128,128,128);stroke:none;" x="283" y="1211">MAT1A</text>
  <rect height="12" style="fill:rgb(255,255,255);stroke:none;" width="41" x="283" y="1214"/>
  <text style="fill:rgb(128,128,128);stroke:none;" x="283" y="1226">ADRB2</text>
  <rect height="12" style="fill:rgb(255,255,255);stroke:none;" width="58" x="283" y="1229"/>
  <text style="fill:rgb(128,128,128);stroke:none;" x="283" y="1241">ZNF280D</text>
  <rect height="12" style="fill:rgb(255,255,255);stroke:none;" width="40" x="297" y="1244"/>
  <text style="fill:rgb(128,128,128);stroke:none;" x="297" y="1256">EPHX2</text>
  <rect height="12" style="fill:rgb(255,255,255);stroke:none;" width="52" x="297" y="1259"/>
  <text style="fill:rgb(128,128,128);stroke:none;" x="297" y="1271">HMGCS2</text>
  <rect height="12" style="fill:rgb(255,255,255);stroke:none;" width="49" x="297" y="1274"/>
  <text style="fill:rgb(128,128,128);stroke:none;" x="297" y="1286">PDGFRA</text>
  <rect height="12" style="fill:rgb(255,255,255);stroke:none;" width="55" x="297" y="1289"/>
  <text style="fill:rgb(128,128,128);stroke:none;" x="297" y="1301">CYP2C18</text>
  <rect height="11" style="fill:rgb(255,255,255);stroke:none;" width="15" x="312" y="1304"/>
  <text style="fill:rgb(128,128,128);stroke:none;font-size:11px;" x="312" y="1315">HP</text>
  <rect height="11" style="fill:rgb(255,255,255);stroke:none;" width="33" x="327" y="1318"/>
  <text style="fill:rgb(128,128,128);stroke:none;font-size:11px;" x="327" y="1329">GNG7</text>
  <rect height="11" style="fill:rgb(255,255,255);stroke:none;" width="25" x="341" y="1332"/>
  <text style="fill:rgb(128,128,128);stroke:none;font-size:11px;" x="341" y="1343">IRS2</text>
  <rect height="11" style="fill:rgb(255,255,255);stroke:none;" width="29" x="341" y="1346"/>
  <text style="fill:rgb(128,128,128);stroke:none;font-size:11px;" x="341" y="1357">NEFH</text>
  <rect height="11" style="fill:rgb(255,255,255);stroke:none;" width="74" x="341" y="1360"/>
  <text style="fill:rgb(128,128,128);stroke:none;font-size:11px;" x="341" y="1371">ST6GALNAC3</text>
  <rect height="11" style="fill:rgb(255,255,255);stroke:none;" width="36" x="356" y="1374"/>
  <text style="fill:rgb(128,128,128);stroke:none;font-size:11px;" x="356" y="1385">NPTX2</text>
  <rect height="11" style="fill:rgb(255,255,255);stroke:none;" width="40" x="356" y="1388"/>
  <text style="fill:rgb(128,128,128);stroke:none;font-size:11px;" x="356" y="1399">IGFBP3</text>
  <rect height="11" style="fill:rgb(255,255,255);stroke:none;" width="23" x="370" y="1402"/>
  <text style="fill:rgb(128,128,128);stroke:none;font-size:11px;" x="370" y="1413">A2M</text>
  <rect height="11" style="fill:rgb(255,255,255);stroke:none;" width="38" x="370" y="1416"/>
  <text style="fill:rgb(128,128,128);stroke:none;font-size:11px;" x="370" y="1427">RGS22</text>
  <rect height="11" style="fill:rgb(255,255,255);stroke:none;" width="38" x="385" y="1430"/>
  <text style="fill:rgb(128,128,128);stroke:none;font-size:11px;" x="385" y="1441">ADH1C</text>
  <rect height="11" style="fill:rgb(255,255,255);stroke:none;" width="37" x="385" y="1444"/>
  <text style="fill:rgb(128,128,128);stroke:none;font-size:11px;" x="385" y="1455">ERBB4</text>
  <rect height="11" style="fill:rgb(255,255,255);stroke:none;" width="39" x="400" y="1458"/>
  <text style="fill:rgb(128,128,128);stroke:none;font-size:11px;" x="400" y="1469">IGFALS</text>
</svg>
