<?xml version="1.0" encoding="UTF-8" standalone="no"?>
<!DOCTYPE svg PUBLIC "-//W3C//DTD SVG 1.1//EN" "http://www.w3.org/Graphics/SVG/1.1/DTD/svg11.dtd">
<svg xmlns:xlink="http://www.w3.org/1999/xlink" height="158.74999999999997mm" version="1.1" viewBox="0 0 500 600" width="132.29166666666666mm" x="0mm" y="0mm" xmlns="http://www.w3.org/2000/svg">
  <rect height="1200" style="fill:rgb(255,255,255);stroke:none;" width="1000" x="0" y="0"/>
  <rect height="240" style="fill:rgb(191,191,191);fill-opacity:0.4980392156862745;stroke:none;" width="175" x="225" y="60"/>
  <line style="fill:none;stroke:rgb(63,63,191);stroke-opacity:0.24705882352941178;stroke-miterlimit:10;stroke-linecap:square;" x1="50" x2="-125" y1="300" y2="300"/>
  <line style="fill:none;stroke:rgb(63,63,191);stroke-opacity:0.24705882352941178;stroke-miterlimit:10;stroke-linecap:square;" x1="-125" x2="-110" y1="300" y2="290"/>
  <line style="fill:none;stroke:rgb(63,63,191);stroke-opacity:0.24705882352941178;stroke-miterlimit:10;stroke-linecap:square;" x1="-110" x2="-95" y1="290" y2="280"/>
  <line style="fill:none;stroke:rgb(63,63,191);stroke-opacity:0.24705882352941178;stroke-miterlimit:10;stroke-linecap:square;" x1="-95" x2="-81" y1="280" y2="270"/>
  <line style="fill:none;stroke:rgb(63,63,191);stroke-opacity:0.24705882352941178;stroke-miterlimit:10;stroke-linecap:square;" x1="-81" x2="-66" y1="270" y2="260"/>
  <line style="fill:none;stroke:rgb(63,63,191);stroke-opacity:0.24705882352941178;stroke-miterlimit:10;stroke-linecap:square;" x1="-66" x2="-52" y1="260" y2="250"/>
  <line style="fill:none;stroke:rgb(63,63,191);stroke-opacity:0.24705882352941178;stroke-miterlimit:10;stroke-linecap:square;" x1="-52" x2="-37" y1="250" y2="240"/>
  <line style="fill:none;stroke:rgb(63,63,191);stroke-opacity:0.24705882352941178;stroke-miterlimit:10;stroke-linecap:square;" x1="-37" x2="-22" y1="240" y2="230"/>
  <line style="fill:none;stroke:rgb(63,63,191);stroke-opacity:0.24705882352941178;stroke-miterlimit:10;stroke-linecap:square;" x1="-22" x2="-8" y1="230" y2="220"/>
  <line style="fill:none;stroke:rgb(63,63,191);stroke-opacity:0.24705882352941178;stroke-miterlimit:10;stroke-linecap:square;" x1="-8" x2="6" y1="220" y2="210"/>
  <line style="fill:none;stroke:rgb(63,63,191);stroke-opacity:0.24705882352941178;stroke-miterlimit:10;stroke-linecap:square;" x1="6" x2="20" y1="210" y2="200"/>
  <line style="fill:none;stroke:rgb(63,63,191);stroke-opacity:0.24705882352941178;stroke-miterlimit:10;stroke-linecap:square;" x1="20" x2="35" y1="200" y2="190"/>
  <line style="fill:none;stroke:rgb(63,63,191);stroke-opacity:0.24705882352941178;stroke-miterlimit:10;stroke-linecap:square;" x1="35" x2="50" y1="190" y2="180"/>
  <line style="fill:none;stroke:rgb(63,63,191);stroke-opacity:0.24705882352941178;stroke-miterlimit:10;stroke-linecap:square;" x1="50" x2="64" y1="180" y2="170"/>
  <line style="fill:none;stroke:rgb(63,63,191);stroke-opacity:0.24705882352941178;stroke-miterlimit:10;stroke-linecap:square;" x1="64" x2="79" y1="170" y2="160"/>
  <line style="fill:none;stroke:rgb(63,63,191);stroke-opacity:0.24705882352941178;stroke-miterlimit:10;stroke-linecap:square;" x1="79" x2="93" y1="160" y2="150"/>
  <line style="fill:none;stroke:rgb(63,63,191);stroke-opacity:0.24705882352941178;stroke-miterlimit:10;stroke-linecap:square;" x1="93" x2="108" y1="150" y2="140"/>
  <line style="fill:none;stroke:rgb(63,63,191);stroke-opacity:0.24705882352941178;stroke-miterlimit:10;stroke-linecap:square;" x1="108" x2="122" y1="140" y2="130"/>
  <line style="fill:none;stroke:rgb(63,63,191);stroke-opacity:0.24705882352941178;stroke-miterlimit:10;stroke-linecap:square;" x1="122" x2="137" y1="130" y2="120"/>
  <line style="fill:none;stroke:rgb(63,63,191);stroke-opacity:0.24705882352941178;stroke-miterlimit:10;stroke-linecap:square;" x1="137" x2="152" y1="120" y2="110"/>
  <line style="fill:none;stroke:rgb(63,63,191);stroke-opacity:0.24705882352941178;stroke-miterlimit:10;stroke-linecap:square;" x1="152" x2="166" y1="110" y2="100"/>
  <line style="fill:none;stroke:rgb(63,63,191);stroke-opacity:0.24705882352941178;stroke-miterlimit:10;stroke-linecap:square;" x1="166" x2="181" y1="100" y2="90"/>
  <line style="fill:none;stroke:rgb(63,63,191);stroke-opacity:0.24705882352941178;stroke-miterlimit:10;stroke-linecap:square;" x1="181" x2="195" y1="90" y2="80"/>
  <line style="fill:none;stroke:rgb(63,63,191);stroke-opacity:0.24705882352941178;stroke-miterlimit:10;stroke-linecap:square;" x1="195" x2="210" y1="80" y2="70"/>
  <line style="fill:none;stroke:rgb(63,63,191);stroke-opacity:0.24705882352941178;stroke-miterlimit:10;stroke-linecap:square;" x1="210" x2="225" y1="70" y2="60"/>
  <line style="fill:none;stroke:rgb(63,63,191);stroke-opacity:0.24705882352941178;stroke-miterlimit:10;stroke-linecap:square;" x1="225" x2="225" y1="60" y2="60"/>
  <rect height="4" style="fill:rgb(255,127,0);fill-opacity:0.7490196078431373;stroke:none;" width="4" x="-127" y="295"/>
  <line style="fill:none;stroke:rgb(255,127,0);stroke-opacity:0.24705882352941178;stroke-width:2;stroke-miterlimit:10;stroke-linecap:square;" x1="50" x2="-125" y1="300" y2="300"/>
  <line style="fill:none;stroke:rgb(255,127,0);stroke-opacity:0.24705882352941178;stroke-width:2;stroke-miterlimit:10;stroke-linecap:square;" x1="-125" x2="-125" y1="298" y2="297"/>
  <rect height="4" style="fill:rgb(255,127,0);fill-opacity:0.7490196078431373;stroke:none;" width="4" x="-112" y="295"/>
  <line style="fill:none;stroke:rgb(255,127,0);stroke-opacity:0.24705882352941178;stroke-width:2;stroke-miterlimit:10;stroke-linecap:square;" x1="-125" x2="-110" y1="295" y2="295"/>
  <line style="fill:none;stroke:rgb(255,127,0);stroke-opacity:0.24705882352941178;stroke-width:2;stroke-miterlimit:10;stroke-linecap:square;" x1="-110" x2="-110" y1="293" y2="293"/>
  <rect height="8" style="fill:rgb(255,127,0);fill-opacity:0.7490196078431373;stroke:none;" width="4" x="-83" y="291"/>
  <line style="fill:none;stroke:rgb(255,127,0);stroke-opacity:0.24705882352941178;stroke-width:2;stroke-miterlimit:10;stroke-linecap:square;" x1="-110" x2="-81" y1="291" y2="291"/>
  <line style="fill:none;stroke:rgb(255,127,0);stroke-opacity:0.24705882352941178;stroke-width:2;stroke-miterlimit:10;stroke-linecap:square;" x1="-81" x2="-81" y1="289" y2="285"/>
  <rect height="12" style="fill:rgb(255,127,0);fill-opacity:0.7490196078431373;stroke:none;" width="4" x="-54" y="287"/>
  <line style="fill:none;stroke:rgb(255,127,0);stroke-opacity:0.24705882352941178;stroke-width:2;stroke-miterlimit:10;stroke-linecap:square;" x1="-81" x2="-52" y1="283" y2="283"/>
  <line style="fill:none;stroke:rgb(255,127,0);stroke-opacity:0.24705882352941178;stroke-width:2;stroke-miterlimit:10;stroke-linecap:square;" x1="-52" x2="-52" y1="281" y2="273"/>
  <rect height="8" style="fill:rgb(255,127,0);fill-opacity:0.7490196078431373;stroke:none;" width="4" x="-39" y="291"/>
  <line style="fill:none;stroke:rgb(255,127,0);stroke-opacity:0.24705882352941178;stroke-width:2;stroke-miterlimit:10;stroke-linecap:square;" x1="-52" x2="-37" y1="271" y2="271"/>
  <line style="fill:none;stroke:rgb(255,127,0);stroke-opacity:0.24705882352941178;stroke-width:2;stroke-miterlimit:10;stroke-linecap:square;" x1="-37" x2="-37" y1="269" y2="264"/>
  <rect height="16" style="fill:rgb(255,127,0);fill-opacity:0.7490196078431373;stroke:none;" width="4" x="-24" y="283"/>
  <line style="fill:none;stroke:rgb(255,127,0);stroke-opacity:0.24705882352941178;stroke-width:2;stroke-miterlimit:10;stroke-linecap:square;" x1="-37" x2="-22" y1="262" y2="262"/>
  <line style="fill:none;stroke:rgb(255,127,0);stroke-opacity:0.24705882352941178;stroke-width:2;stroke-miterlimit:10;stroke-linecap:square;" x1="-22" x2="-22" y1="260" y2="248"/>
  <rect height="8" style="fill:rgb(255,127,0);fill-opacity:0.7490196078431373;stroke:none;" width="4" x="-10" y="291"/>
  <line style="fill:none;stroke:rgb(255,127,0);stroke-opacity:0.24705882352941178;stroke-width:2;stroke-miterlimit:10;stroke-linecap:square;" x1="-22" x2="-8" y1="246" y2="246"/>
  <line style="fill:none;stroke:rgb(255,127,0);stroke-opacity:0.24705882352941178;stroke-width:2;stroke-miterlimit:10;stroke-linecap:square;" x1="-8" x2="-8" y1="244" y2="239"/>
  <rect height="8" style="fill:rgb(255,127,0);fill-opacity:0.7490196078431373;stroke:none;" width="4" x="18" y="291"/>
  <line style="fill:none;stroke:rgb(255,127,0);stroke-opacity:0.24705882352941178;stroke-width:2;stroke-miterlimit:10;stroke-linecap:square;" x1="-8" x2="20" y1="237" y2="237"/>
  <line style="fill:none;stroke:rgb(255,127,0);stroke-opacity:0.24705882352941178;stroke-width:2;stroke-miterlimit:10;stroke-linecap:square;" x1="20" x2="20" y1="235" y2="231"/>
  <rect height="4" style="fill:rgb(255,127,0);fill-opacity:0.7490196078431373;stroke:none;" width="4" x="48" y="295"/>
  <line style="fill:none;stroke:rgb(255,127,0);stroke-opacity:0.24705882352941178;stroke-width:2;stroke-miterlimit:10;stroke-linecap:square;" x1="20" x2="50" y1="229" y2="229"/>
  <line style="fill:none;stroke:rgb(255,127,0);stroke-opacity:0.24705882352941178;stroke-width:2;stroke-miterlimit:10;stroke-linecap:square;" x1="50" x2="50" y1="227" y2="227"/>
  <rect height="16" style="fill:rgb(255,127,0);fill-opacity:0.7490196078431373;stroke:none;" width="4" x="77" y="283"/>
  <line style="fill:none;stroke:rgb(255,127,0);stroke-opacity:0.24705882352941178;stroke-width:2;stroke-miterlimit:10;stroke-linecap:square;" x1="50" x2="79" y1="225" y2="225"/>
  <line style="fill:none;stroke:rgb(255,127,0);stroke-opacity:0.24705882352941178;stroke-width:2;stroke-miterlimit:10;stroke-linecap:square;" x1="79" x2="79" y1="223" y2="210"/>
  <rect height="8" style="fill:rgb(255,127,0);fill-opacity:0.7490196078431373;stroke:none;" width="4" x="91" y="291"/>
  <line style="fill:none;stroke:rgb(255,127,0);stroke-opacity:0.24705882352941178;stroke-width:2;stroke-miterlimit:10;stroke-linecap:square;" x1="79" x2="93" y1="208" y2="208"/>
  <line style="fill:none;stroke:rgb(255,127,0);stroke-opacity:0.24705882352941178;stroke-width:2;stroke-miterlimit:10;stroke-linecap:square;" x1="93" x2="93" y1="206" y2="202"/>
  <rect height="16" style="fill:rgb(255,127,0);fill-opacity:0.7490196078431373;stroke:none;" width="4" x="106" y="283"/>
  <line style="fill:none;stroke:rgb(255,127,0);stroke-opacity:0.24705882352941178;stroke-width:2;stroke-miterlimit:10;stroke-linecap:square;" x1="93" x2="108" y1="200" y2="200"/>
  <line style="fill:none;stroke:rgb(255,127,0);stroke-opacity:0.24705882352941178;stroke-width:2;stroke-miterlimit:10;stroke-linecap:square;" x1="108" x2="108" y1="198" y2="186"/>
  <rect height="33" style="fill:rgb(255,127,0);fill-opacity:0.7490196078431373;stroke:none;" width="4" x="120" y="266"/>
  <line style="fill:none;stroke:rgb(255,127,0);stroke-opacity:0.24705882352941178;stroke-width:2;stroke-miterlimit:10;stroke-linecap:square;" x1="108" x2="122" y1="184" y2="184"/>
  <line style="fill:none;stroke:rgb(255,127,0);stroke-opacity:0.24705882352941178;stroke-width:2;stroke-miterlimit:10;stroke-linecap:square;" x1="122" x2="122" y1="182" y2="153"/>
  <rect height="37" style="fill:rgb(255,127,0);fill-opacity:0.7490196078431373;stroke:none;" width="4" x="135" y="262"/>
  <line style="fill:none;stroke:rgb(255,127,0);stroke-opacity:0.24705882352941178;stroke-width:2;stroke-miterlimit:10;stroke-linecap:square;" x1="122" x2="137" y1="151" y2="151"/>
  <line style="fill:none;stroke:rgb(255,127,0);stroke-opacity:0.24705882352941178;stroke-width:2;stroke-miterlimit:10;stroke-linecap:square;" x1="137" x2="137" y1="149" y2="115"/>
  <rect height="12" style="fill:rgb(255,127,0);fill-opacity:0.7490196078431373;stroke:none;" width="4" x="150" y="287"/>
  <line style="fill:none;stroke:rgb(255,127,0);stroke-opacity:0.24705882352941178;stroke-width:2;stroke-miterlimit:10;stroke-linecap:square;" x1="137" x2="152" y1="113" y2="113"/>
  <line style="fill:none;stroke:rgb(255,127,0);stroke-opacity:0.24705882352941178;stroke-width:2;stroke-miterlimit:10;stroke-linecap:square;" x1="152" x2="152" y1="111" y2="103"/>
  <rect height="8" style="fill:rgb(255,127,0);fill-opacity:0.7490196078431373;stroke:none;" width="4" x="164" y="291"/>
  <line style="fill:none;stroke:rgb(255,127,0);stroke-opacity:0.24705882352941178;stroke-width:2;stroke-miterlimit:10;stroke-linecap:square;" x1="152" x2="166" y1="101" y2="101"/>
  <line style="fill:none;stroke:rgb(255,127,0);stroke-opacity:0.24705882352941178;stroke-width:2;stroke-miterlimit:10;stroke-linecap:square;" x1="166" x2="166" y1="99" y2="95"/>
  <rect height="16" style="fill:rgb(255,127,0);fill-opacity:0.7490196078431373;stroke:none;" width="4" x="179" y="283"/>
  <line style="fill:none;stroke:rgb(255,127,0);stroke-opacity:0.24705882352941178;stroke-width:2;stroke-miterlimit:10;stroke-linecap:square;" x1="166" x2="181" y1="93" y2="93"/>
  <line style="fill:none;stroke:rgb(255,127,0);stroke-opacity:0.24705882352941178;stroke-width:2;stroke-miterlimit:10;stroke-linecap:square;" x1="181" x2="181" y1="91" y2="78"/>
  <rect height="4" style="fill:rgb(255,127,0);fill-opacity:0.7490196078431373;stroke:none;" width="4" x="193" y="295"/>
  <line style="fill:none;stroke:rgb(255,127,0);stroke-opacity:0.24705882352941178;stroke-width:2;stroke-miterlimit:10;stroke-linecap:square;" x1="181" x2="195" y1="76" y2="76"/>
  <line style="fill:none;stroke:rgb(255,127,0);stroke-opacity:0.24705882352941178;stroke-width:2;stroke-miterlimit:10;stroke-linecap:square;" x1="195" x2="195" y1="74" y2="74"/>
  <rect height="12" style="fill:rgb(255,127,0);fill-opacity:0.7490196078431373;stroke:none;" width="4" x="208" y="287"/>
  <line style="fill:none;stroke:rgb(255,127,0);stroke-opacity:0.24705882352941178;stroke-width:2;stroke-miterlimit:10;stroke-linecap:square;" x1="195" x2="210" y1="72" y2="72"/>
  <line style="fill:none;stroke:rgb(255,127,0);stroke-opacity:0.24705882352941178;stroke-width:2;stroke-miterlimit:10;stroke-linecap:square;" x1="210" x2="210" y1="70" y2="62"/>
  <line style="fill:none;stroke:rgb(255,127,0);stroke-opacity:0.24705882352941178;stroke-width:2;stroke-miterlimit:10;stroke-linecap:square;" x1="210" x2="225" y1="60" y2="60"/>
  <line style="fill:none;stroke:rgb(255,127,0);stroke-opacity:0.4980392156862745;stroke-miterlimit:2;stroke-dasharray:2;" x1="-125" x2="-125" y1="300" y2="363"/>
  <line style="fill:none;stroke:rgb(255,127,0);stroke-opacity:0.4980392156862745;stroke-miterlimit:2;stroke-dasharray:2;" x1="-110" x2="-110" y1="300" y2="376"/>
  <line style="fill:none;stroke:rgb(255,127,0);stroke-opacity:0.4980392156862745;stroke-miterlimit:2;stroke-dasharray:2;" x1="-81" x2="-81" y1="300" y2="389"/>
  <line style="fill:none;stroke:rgb(255,127,0);stroke-opacity:0.4980392156862745;stroke-miterlimit:2;stroke-dasharray:2;" x1="-81" x2="-81" y1="300" y2="402"/>
  <line style="fill:none;stroke:rgb(255,127,0);stroke-opacity:0.4980392156862745;stroke-miterlimit:2;stroke-dasharray:2;" x1="-52" x2="-52" y1="300" y2="415"/>
  <line style="fill:none;stroke:rgb(255,127,0);stroke-opacity:0.4980392156862745;stroke-miterlimit:2;stroke-dasharray:2;" x1="-52" x2="-52" y1="300" y2="428"/>
  <line style="fill:none;stroke:rgb(255,127,0);stroke-opacity:0.4980392156862745;stroke-miterlimit:2;stroke-dasharray:2;" x1="-52" x2="-52" y1="300" y2="441"/>
  <line style="fill:none;stroke:rgb(255,127,0);stroke-opacity:0.4980392156862745;stroke-miterlimit:2;stroke-dasharray:2;" x1="-37" x2="-37" y1="300" y2="454"/>
  <line style="fill:none;stroke:rgb(255,127,0);stroke-opacity:0.4980392156862745;stroke-miterlimit:2;stroke-dasharray:2;" x1="-37" x2="-37" y1="300" y2="467"/>
  <line style="fill:none;stroke:rgb(255,127,0);stroke-opacity:0.4980392156862745;stroke-miterlimit:2;stroke-dasharray:2;" x1="-22" x2="-22" y1="300" y2="480"/>
  <line style="fill:none;stroke:rgb(255,127,0);stroke-opacity:0.4980392156862745;stroke-miterlimit:2;stroke-dasharray:2;" x1="-22" x2="-22" y1="300" y2="493"/>
  <line style="fill:none;stroke:rgb(255,127,0);stroke-opacity:0.4980392156862745;stroke-miterlimit:2;stroke-dasharray:2;" x1="-22" x2="-22" y1="300" y2="506"/>
  <line style="fill:none;stroke:rgb(255,127,0);stroke-opacity:0.4980392156862745;stroke-miterlimit:2;stroke-dasharray:2;" x1="-22" x2="-22" y1="300" y2="519"/>
  <line style="fill:none;stroke:rgb(255,127,0);stroke-opacity:0.4980392156862745;stroke-miterlimit:2;stroke-dasharray:2;" x1="-8" x2="-8" y1="300" y2="532"/>
  <line style="fill:none;stroke:rgb(255,127,0);stroke-opacity:0.4980392156862745;stroke-miterlimit:2;stroke-dasharray:2;" x1="-8" x2="-8" y1="300" y2="545"/>
  <line style="fill:none;stroke:rgb(255,127,0);stroke-opacity:0.4980392156862745;stroke-miterlimit:2;stroke-dasharray:2;" x1="20" x2="20" y1="300" y2="558"/>
  <line style="fill:none;stroke:rgb(255,127,0);stroke-opacity:0.4980392156862745;stroke-miterlimit:2;stroke-dasharray:2;" x1="20" x2="20" y1="300" y2="571"/>
  <line style="fill:none;stroke:rgb(255,127,0);stroke-opacity:0.4980392156862745;stroke-miterlimit:2;stroke-dasharray:2;" x1="50" x2="50" y1="300" y2="584"/>
  <line style="fill:none;stroke:rgb(255,127,0);stroke-opacity:0.4980392156862745;stroke-miterlimit:2;stroke-dasharray:2;" x1="79" x2="79" y1="300" y2="599"/>
  <line style="fill:none;stroke:rgb(255,127,0);stroke-opacity:0.4980392156862745;stroke-miterlimit:2;stroke-dasharray:2;" x1="79" x2="79" y1="300" y2="614"/>
  <line style="fill:none;stroke:rgb(255,127,0);stroke-opacity:0.4980392156862745;stroke-miterlimit:2;stroke-dasharray:2;" x1="79" x2="79" y1="300" y2="629"/>
  <line style="fill:none;stroke:rgb(255,127,0);stroke-opacity:0.4980392156862745;stroke-miterlimit:2;stroke-dasharray:2;" x1="79" x2="79" y1="300" y2="644"/>
  <line style="fill:none;stroke:rgb(255,127,0);stroke-opacity:0.4980392156862745;stroke-miterlimit:2;stroke-dasharray:2;" x1="93" x2="93" y1="300" y2="659"/>
  <line style="fill:none;stroke:rgb(255,127,0);stroke-opacity:0.4980392156862745;stroke-miterlimit:2;stroke-dasharray:2;" x1="93" x2="93" y1="300" y2="674"/>
  <line style="fill:none;stroke:rgb(255,127,0);stroke-opacity:0.4980392156862745;stroke-miterlimit:2;stroke-dasharray:2;" x1="108" x2="108" y1="300" y2="689"/>
  <line style="fill:none;stroke:rgb(255,127,0);stroke-opacity:0.4980392156862745;stroke-miterlimit:2;stroke-dasharray:2;" x1="108" x2="108" y1="300" y2="704"/>
  <line style="fill:none;stroke:rgb(255,127,0);stroke-opacity:0.4980392156862745;stroke-miterlimit:2;stroke-dasharray:2;" x1="108" x2="108" y1="300" y2="719"/>
  <line style="fill:none;stroke:rgb(255,127,0);stroke-opacity:0.4980392156862745;stroke-miterlimit:2;stroke-dasharray:2;" x1="108" x2="108" y1="300" y2="734"/>
  <line style="fill:none;stroke:rgb(255,127,0);stroke-opacity:0.4980392156862745;stroke-miterlimit:2;stroke-dasharray:2;" x1="122" x2="122" y1="300" y2="749"/>
  <line style="fill:none;stroke:rgb(255,127,0);stroke-opacity:0.4980392156862745;stroke-miterlimit:2;stroke-dasharray:2;" x1="122" x2="122" y1="300" y2="764"/>
  <line style="fill:none;stroke:rgb(255,127,0);stroke-opacity:0.4980392156862745;stroke-miterlimit:2;stroke-dasharray:2;" x1="122" x2="122" y1="300" y2="779"/>
  <line style="fill:none;stroke:rgb(255,127,0);stroke-opacity:0.4980392156862745;stroke-miterlimit:2;stroke-dasharray:2;" x1="122" x2="122" y1="300" y2="794"/>
  <line style="fill:none;stroke:rgb(255,127,0);stroke-opacity:0.4980392156862745;stroke-miterlimit:2;stroke-dasharray:2;" x1="122" x2="122" y1="300" y2="809"/>
  <line style="fill:none;stroke:rgb(255,127,0);stroke-opacity:0.4980392156862745;stroke-miterlimit:2;stroke-dasharray:2;" x1="122" x2="122" y1="300" y2="824"/>
  <line style="fill:none;stroke:rgb(255,127,0);stroke-opacity:0.4980392156862745;stroke-miterlimit:2;stroke-dasharray:2;" x1="122" x2="122" y1="300" y2="839"/>
  <line style="fill:none;stroke:rgb(255,127,0);stroke-opacity:0.4980392156862745;stroke-miterlimit:2;stroke-dasharray:2;" x1="122" x2="122" y1="300" y2="854"/>
  <line style="fill:none;stroke:rgb(255,127,0);stroke-opacity:0.4980392156862745;stroke-miterlimit:2;stroke-dasharray:2;" x1="137" x2="137" y1="300" y2="869"/>
  <line style="fill:none;stroke:rgb(255,127,0);stroke-opacity:0.4980392156862745;stroke-miterlimit:2;stroke-dasharray:2;" x1="137" x2="137" y1="300" y2="884"/>
  <line style="fill:none;stroke:rgb(255,127,0);stroke-opacity:0.4980392156862745;stroke-miterlimit:2;stroke-dasharray:2;" x1="137" x2="137" y1="300" y2="899"/>
  <line style="fill:none;stroke:rgb(255,127,0);stroke-opacity:0.4980392156862745;stroke-miterlimit:2;stroke-dasharray:2;" x1="137" x2="137" y1="300" y2="914"/>
  <line style="fill:none;stroke:rgb(255,127,0);stroke-opacity:0.4980392156862745;stroke-miterlimit:2;stroke-dasharray:2;" x1="137" x2="137" y1="300" y2="929"/>
  <line style="fill:none;stroke:rgb(255,127,0);stroke-opacity:0.4980392156862745;stroke-miterlimit:2;stroke-dasharray:2;" x1="137" x2="137" y1="300" y2="944"/>
  <line style="fill:none;stroke:rgb(255,127,0);stroke-opacity:0.4980392156862745;stroke-miterlimit:2;stroke-dasharray:2;" x1="137" x2="137" y1="300" y2="959"/>
  <line style="fill:none;stroke:rgb(255,127,0);stroke-opacity:0.4980392156862745;stroke-miterlimit:2;stroke-dasharray:2;" x1="137" x2="137" y1="300" y2="974"/>
  <line style="fill:none;stroke:rgb(255,127,0);stroke-opacity:0.4980392156862745;stroke-miterlimit:2;stroke-dasharray:2;" x1="137" x2="137" y1="300" y2="989"/>
  <line style="fill:none;stroke:rgb(255,127,0);stroke-opacity:0.4980392156862745;stroke-miterlimit:2;stroke-dasharray:2;" x1="152" x2="152" y1="300" y2="1004"/>
  <line style="fill:none;stroke:rgb(255,127,0);stroke-opacity:0.4980392156862745;stroke-miterlimit:2;stroke-dasharray:2;" x1="152" x2="152" y1="300" y2="1019"/>
  <line style="fill:none;stroke:rgb(255,127,0);stroke-opacity:0.4980392156862745;stroke-miterlimit:2;stroke-dasharray:2;" x1="152" x2="152" y1="300" y2="1034"/>
  <line style="fill:none;stroke:rgb(255,127,0);stroke-opacity:0.4980392156862745;stroke-miterlimit:2;stroke-dasharray:2;" x1="166" x2="166" y1="300" y2="1049"/>
  <line style="fill:none;stroke:rgb(255,127,0);stroke-opacity:0.4980392156862745;stroke-miterlimit:2;stroke-dasharray:2;" x1="166" x2="166" y1="300" y2="1064"/>
  <line style="fill:none;stroke:rgb(255,127,0);stroke-opacity:0.4980392156862745;stroke-miterlimit:2;stroke-dasharray:2;" x1="181" x2="181" y1="300" y2="1079"/>
  <line style="fill:none;stroke:rgb(255,127,0);stroke-opacity:0.4980392156862745;stroke-miterlimit:2;stroke-dasharray:2;" x1="181" x2="181" y1="300" y2="1094"/>
  <line style="fill:none;stroke:rgb(255,127,0);stroke-opacity:0.4980392156862745;stroke-miterlimit:2;stroke-dasharray:2;" x1="181" x2="181" y1="300" y2="1109"/>
  <line style="fill:none;stroke:rgb(255,127,0);stroke-opacity:0.4980392156862745;stroke-miterlimit:2;stroke-dasharray:2;" x1="181" x2="181" y1="300" y2="1124"/>
  <line style="fill:none;stroke:rgb(255,127,0);stroke-opacity:0.4980392156862745;stroke-miterlimit:2;stroke-dasharray:2;" x1="195" x2="195" y1="300" y2="1137"/>
  <line style="fill:none;stroke:rgb(255,127,0);stroke-opacity:0.4980392156862745;stroke-miterlimit:2;stroke-dasharray:2;" x1="210" x2="210" y1="300" y2="1150"/>
  <line style="fill:none;stroke:rgb(255,127,0);stroke-opacity:0.4980392156862745;stroke-miterlimit:2;stroke-dasharray:2;" x1="210" x2="210" y1="300" y2="1163"/>
  <line style="fill:none;stroke:rgb(255,127,0);stroke-opacity:0.4980392156862745;stroke-miterlimit:2;stroke-dasharray:2;" x1="210" x2="210" y1="300" y2="1176"/>
  <line style="fill:none;stroke:rgb(0,0,0);stroke-width:2;stroke-miterlimit:10;stroke-linecap:square;" x1="48" x2="48" y1="60" y2="300"/>
  <line style="fill:none;stroke:rgb(0,0,0);stroke-width:2;stroke-miterlimit:10;stroke-linecap:square;" x1="48" x2="402" y1="300" y2="300"/>
  <rect height="30" style="fill:rgb(255,255,255);stroke:none;" width="44" x="-147" y="308"/>
  <text style="fill:rgb(0,0,0);stroke:none;font-size:25px;font-weight:bold;" x="-147" y="332">-12</text>
  <rect height="30" style="fill:rgb(255,255,255);stroke:none;" width="34" x="208" y="308"/>
  <text style="fill:rgb(0,0,0);stroke:none;font-size:25px;font-weight:bold;" x="208" y="332">12</text>
  <text style="fill:rgb(0,0,0);stroke:none;font-size:25px;font-weight:bold;" x="25" y="312">0</text>
  <text style="fill:rgb(0,0,0);stroke:none;font-size:25px;font-weight:bold;" x="25" y="72">1</text>
  <text style="fill:rgb(0,0,0);stroke:none;font-size:19px;font-weight:bold;" x="7" y="39">GOBP_CELLULAR_LIPID_METABOLIC_PROCESS</text>
  <rect height="10" style="fill:rgb(255,255,255);stroke:none;" width="23" x="-125" y="353"/>
  <text style="fill:rgb(128,128,128);stroke:none;font-size:10px;" x="-125" y="363">IRS2</text>
  <rect height="10" style="fill:rgb(255,255,255);stroke:none;" width="27" x="-110" y="366"/>
  <text style="fill:rgb(128,128,128);stroke:none;font-size:10px;" x="-110" y="376">PER2</text>
  <rect height="10" style="fill:rgb(255,255,255);stroke:none;" width="37" x="-81" y="379"/>
  <text style="fill:rgb(128,128,128);stroke:none;font-size:10px;" x="-81" y="389">ADH1C</text>
  <rect height="10" style="fill:rgb(255,255,255);stroke:none;" width="48" x="-81" y="392"/>
  <text style="fill:rgb(128,128,128);stroke:none;font-size:10px;" x="-81" y="402">RARRES2</text>
  <rect height="10" style="fill:rgb(255,255,255);stroke:none;" width="26" x="-52" y="405"/>
  <text style="fill:rgb(128,128,128);stroke:none;font-size:10px;" x="-52" y="415">IPMK</text>
  <rect height="10" style="fill:rgb(255,255,255);stroke:none;" width="35" x="-52" y="418"/>
  <text style="fill:rgb(128,128,128);stroke:none;font-size:10px;" x="-52" y="428">PPM1L</text>
  <rect height="10" style="fill:rgb(255,255,255);stroke:none;" width="40" x="-52" y="431"/>
  <text style="fill:rgb(128,128,128);stroke:none;font-size:10px;" x="-52" y="441">AGPAT4</text>
  <rect height="10" style="fill:rgb(255,255,255);stroke:none;" width="45" x="-37" y="444"/>
  <text style="fill:rgb(128,128,128);stroke:none;font-size:10px;" x="-37" y="454">ST3GAL4</text>
  <rect height="10" style="fill:rgb(255,255,255);stroke:none;" width="57" x="-37" y="457"/>
  <text style="fill:rgb(128,128,128);stroke:none;font-size:10px;" x="-37" y="467">PPARGC1A</text>
  <rect height="10" style="fill:rgb(255,255,255);stroke:none;" width="28" x="-22" y="470"/>
  <text style="fill:rgb(128,128,128);stroke:none;font-size:10px;" x="-22" y="480">PDK1</text>
  <rect height="10" style="fill:rgb(255,255,255);stroke:none;" width="29" x="-22" y="483"/>
  <text style="fill:rgb(128,128,128);stroke:none;font-size:10px;" x="-22" y="493">CDS2</text>
  <rect height="10" style="fill:rgb(255,255,255);stroke:none;" width="36" x="-22" y="496"/>
  <text style="fill:rgb(128,128,128);stroke:none;font-size:10px;" x="-22" y="506">DHRS3</text>
  <rect height="10" style="fill:rgb(255,255,255);stroke:none;" width="48" x="-22" y="509"/>
  <text style="fill:rgb(128,128,128);stroke:none;font-size:10px;" x="-22" y="519">PLEKHA1</text>
  <rect height="10" style="fill:rgb(255,255,255);stroke:none;" width="36" x="-8" y="522"/>
  <text style="fill:rgb(128,128,128);stroke:none;font-size:10px;" x="-8" y="532">ABCG1</text>
  <rect height="10" style="fill:rgb(255,255,255);stroke:none;" width="42" x="-8" y="535"/>
  <text style="fill:rgb(128,128,128);stroke:none;font-size:10px;" x="-8" y="545">DHRS13</text>
  <rect height="10" style="fill:rgb(255,255,255);stroke:none;" width="25" x="20" y="548"/>
  <text style="fill:rgb(128,128,128);stroke:none;font-size:10px;" x="20" y="558">FUT3</text>
  <rect height="10" style="fill:rgb(255,255,255);stroke:none;" width="31" x="20" y="561"/>
  <text style="fill:rgb(128,128,128);stroke:none;font-size:10px;" x="20" y="571">APOM</text>
  <rect height="10" style="fill:rgb(255,255,255);stroke:none;" width="29" x="50" y="574"/>
  <text style="fill:rgb(128,128,128);stroke:none;font-size:10px;" x="50" y="584">ECH1</text>
  <rect height="12" style="fill:rgb(255,255,255);stroke:none;" width="25" x="79" y="587"/>
  <text style="fill:rgb(128,128,128);stroke:none;" x="79" y="599">AVIL</text>
  <rect height="12" style="fill:rgb(255,255,255);stroke:none;" width="31" x="79" y="602"/>
  <text style="fill:rgb(128,128,128);stroke:none;" x="79" y="614">ALG2</text>
  <rect height="12" style="fill:rgb(255,255,255);stroke:none;" width="41" x="79" y="617"/>
  <text style="fill:rgb(128,128,128);stroke:none;" x="79" y="629">NR4A3</text>
  <rect height="12" style="fill:rgb(255,255,255);stroke:none;" width="54" x="79" y="632"/>
  <text style="fill:rgb(128,128,128);stroke:none;" x="79" y="644">ST3GAL2</text>
  <rect height="12" style="fill:rgb(255,255,255);stroke:none;" width="23" x="93" y="647"/>
  <text style="fill:rgb(128,128,128);stroke:none;" x="93" y="659">TNF</text>
  <rect height="12" style="fill:rgb(255,255,255);stroke:none;" width="43" x="93" y="662"/>
  <text style="fill:rgb(128,128,128);stroke:none;" x="93" y="674">MORC2</text>
  <rect height="12" style="fill:rgb(255,255,255);stroke:none;" width="35" x="108" y="677"/>
  <text style="fill:rgb(128,128,128);stroke:none;" x="108" y="689">GCDH</text>
  <rect height="12" style="fill:rgb(255,255,255);stroke:none;" width="40" x="108" y="692"/>
  <text style="fill:rgb(128,128,128);stroke:none;" x="108" y="704">CERS4</text>
  <rect height="12" style="fill:rgb(255,255,255);stroke:none;" width="47" x="108" y="707"/>
  <text style="fill:rgb(128,128,128);stroke:none;" x="108" y="719">THNSL2</text>
  <rect height="12" style="fill:rgb(255,255,255);stroke:none;" width="55" x="108" y="722"/>
  <text style="fill:rgb(128,128,128);stroke:none;" x="108" y="734">PLA2G4A</text>
  <rect height="12" style="fill:rgb(255,255,255);stroke:none;" width="29" x="122" y="737"/>
  <text style="fill:rgb(128,128,128);stroke:none;" x="122" y="749">PIGO</text>
  <rect height="12" style="fill:rgb(255,255,255);stroke:none;" width="28" x="122" y="752"/>
  <text style="fill:rgb(128,128,128);stroke:none;" x="122" y="764">PIGV</text>
  <rect height="12" style="fill:rgb(255,255,255);stroke:none;" width="31" x="122" y="767"/>
  <text style="fill:rgb(128,128,128);stroke:none;" x="122" y="779">FUT2</text>
  <rect height="12" style="fill:rgb(255,255,255);stroke:none;" width="32" x="122" y="782"/>
  <text style="fill:rgb(128,128,128);stroke:none;" x="122" y="794">CHKA</text>
  <rect height="12" style="fill:rgb(255,255,255);stroke:none;" width="38" x="122" y="797"/>
  <text style="fill:rgb(128,128,128);stroke:none;" x="122" y="809">ACSL3</text>
  <rect height="12" style="fill:rgb(255,255,255);stroke:none;" width="39" x="122" y="812"/>
  <text style="fill:rgb(128,128,128);stroke:none;" x="122" y="824">CSF1R</text>
  <rect height="12" style="fill:rgb(255,255,255);stroke:none;" width="57" x="122" y="827"/>
  <text style="fill:rgb(128,128,128);stroke:none;" x="122" y="839">SDR16C5</text>
  <rect height="12" style="fill:rgb(255,255,255);stroke:none;" width="54" x="122" y="842"/>
  <text style="fill:rgb(128,128,128);stroke:none;" x="122" y="854">PLA2G4F</text>
  <rect height="12" style="fill:rgb(255,255,255);stroke:none;" width="28" x="137" y="857"/>
  <text style="fill:rgb(128,128,128);stroke:none;" x="137" y="869">PIGP</text>
  <rect height="12" style="fill:rgb(255,255,255);stroke:none;" width="31" x="137" y="872"/>
  <text style="fill:rgb(128,128,128);stroke:none;" x="137" y="884">ALG8</text>
  <rect height="12" style="fill:rgb(255,255,255);stroke:none;" width="27" x="137" y="887"/>
  <text style="fill:rgb(128,128,128);stroke:none;" x="137" y="899">PIGF</text>
  <rect height="12" style="fill:rgb(255,255,255);stroke:none;" width="33" x="137" y="902"/>
  <text style="fill:rgb(128,128,128);stroke:none;" x="137" y="914">GPC2</text>
  <rect height="12" style="fill:rgb(255,255,255);stroke:none;" width="29" x="137" y="917"/>
  <text style="fill:rgb(128,128,128);stroke:none;" x="137" y="929">LDLR</text>
  <rect height="12" style="fill:rgb(255,255,255);stroke:none;" width="34" x="137" y="932"/>
  <text style="fill:rgb(128,128,128);stroke:none;" x="137" y="944">NAGA</text>
  <rect height="12" style="fill:rgb(255,255,255);stroke:none;" width="42" x="137" y="947"/>
  <text style="fill:rgb(128,128,128);stroke:none;" x="137" y="959">ABHD3</text>
  <rect height="12" style="fill:rgb(255,255,255);stroke:none;" width="44" x="137" y="962"/>
  <text style="fill:rgb(128,128,128);stroke:none;" x="137" y="974">HMGCR</text>
  <rect height="12" style="fill:rgb(255,255,255);stroke:none;" width="47" x="137" y="977"/>
  <text style="fill:rgb(128,128,128);stroke:none;" x="137" y="989">AKR1C3</text>
  <rect height="12" style="fill:rgb(255,255,255);stroke:none;" width="47" x="152" y="992"/>
  <text style="fill:rgb(128,128,128);stroke:none;" x="152" y="1004">PNPLA1</text>
  <rect height="12" style="fill:rgb(255,255,255);stroke:none;" width="54" x="152" y="1007"/>
  <text style="fill:rgb(128,128,128);stroke:none;" x="152" y="1019">SLC27A1</text>
  <rect height="12" style="fill:rgb(255,255,255);stroke:none;" width="54" x="152" y="1022"/>
  <text style="fill:rgb(128,128,128);stroke:none;" x="152" y="1034">GAL3ST4</text>
  <rect height="12" style="fill:rgb(255,255,255);stroke:none;" width="40" x="166" y="1037"/>
  <text style="fill:rgb(128,128,128);stroke:none;" x="166" y="1049">BRCA1</text>
  <rect height="12" style="fill:rgb(255,255,255);stroke:none;" width="41" x="166" y="1052"/>
  <text style="fill:rgb(128,128,128);stroke:none;" x="166" y="1064">AADAC</text>
  <rect height="12" style="fill:rgb(255,255,255);stroke:none;" width="32" x="181" y="1067"/>
  <text style="fill:rgb(128,128,128);stroke:none;" x="181" y="1079">PDK4</text>
  <rect height="12" style="fill:rgb(255,255,255);stroke:none;" width="40" x="181" y="1082"/>
  <text style="fill:rgb(128,128,128);stroke:none;" x="181" y="1094">ACACA</text>
  <rect height="12" style="fill:rgb(255,255,255);stroke:none;" width="41" x="181" y="1097"/>
  <text style="fill:rgb(128,128,128);stroke:none;" x="181" y="1109">SOCS2</text>
  <rect height="12" style="fill:rgb(255,255,255);stroke:none;" width="55" x="181" y="1112"/>
  <text style="fill:rgb(128,128,128);stroke:none;" x="181" y="1124">CYP2C18</text>
  <rect height="10" style="fill:rgb(255,255,255);stroke:none;" width="34" x="195" y="1127"/>
  <text style="fill:rgb(128,128,128);stroke:none;font-size:10px;" x="195" y="1137">EPHX2</text>
  <rect height="10" style="fill:rgb(255,255,255);stroke:none;" width="31" x="210" y="1140"/>
  <text style="fill:rgb(128,128,128);stroke:none;font-size:10px;" x="210" y="1150">TTC7B</text>
  <rect height="10" style="fill:rgb(255,255,255);stroke:none;" width="33" x="210" y="1153"/>
  <text style="fill:rgb(128,128,128);stroke:none;font-size:10px;" x="210" y="1163">ACAT2</text>
  <rect height="10" style="fill:rgb(255,255,255);stroke:none;" width="40" x="210" y="1166"/>
  <text style="fill:rgb(128,128,128);stroke:none;font-size:10px;" x="210" y="1176">ELOVL6</text>
</svg>
