<?xml version="1.0" encoding="UTF-8" standalone="no"?>
<!DOCTYPE svg PUBLIC "-//W3C//DTD SVG 1.1//EN" "http://www.w3.org/Graphics/SVG/1.1/DTD/svg11.dtd">
<svg xmlns:xlink="http://www.w3.org/1999/xlink" height="158.74999999999997mm" version="1.1" viewBox="0 0 500 600" width="132.29166666666666mm" x="0mm" y="0mm" xmlns="http://www.w3.org/2000/svg">
  <rect height="1200" style="fill:rgb(255,255,255);stroke:none;" width="1000" x="0" y="0"/>
  <rect height="240" style="fill:rgb(191,191,191);fill-opacity:0.4980392156862745;stroke:none;" width="175" x="225" y="60"/>
  <line style="fill:none;stroke:rgb(63,63,191);stroke-opacity:0.24705882352941178;stroke-miterlimit:10;stroke-linecap:square;" x1="50" x2="-125" y1="300" y2="300"/>
  <line style="fill:none;stroke:rgb(63,63,191);stroke-opacity:0.24705882352941178;stroke-miterlimit:10;stroke-linecap:square;" x1="-125" x2="-110" y1="300" y2="290"/>
  <line style="fill:none;stroke:rgb(63,63,191);stroke-opacity:0.24705882352941178;stroke-miterlimit:10;stroke-linecap:square;" x1="-110" x2="-95" y1="290" y2="280"/>
  <line style="fill:none;stroke:rgb(63,63,191);stroke-opacity:0.24705882352941178;stroke-miterlimit:10;stroke-linecap:square;" x1="-95" x2="-81" y1="280" y2="270"/>
  <line style="fill:none;stroke:rgb(63,63,191);stroke-opacity:0.24705882352941178;stroke-miterlimit:10;stroke-linecap:square;" x1="-81" x2="-66" y1="270" y2="260"/>
  <line style="fill:none;stroke:rgb(63,63,191);stroke-opacity:0.24705882352941178;stroke-miterlimit:10;stroke-linecap:square;" x1="-66" x2="-52" y1="260" y2="250"/>
  <line style="fill:none;stroke:rgb(63,63,191);stroke-opacity:0.24705882352941178;stroke-miterlimit:10;stroke-linecap:square;" x1="-52" x2="-37" y1="250" y2="240"/>
  <line style="fill:none;stroke:rgb(63,63,191);stroke-opacity:0.24705882352941178;stroke-miterlimit:10;stroke-linecap:square;" x1="-37" x2="-22" y1="240" y2="230"/>
  <line style="fill:none;stroke:rgb(63,63,191);stroke-opacity:0.24705882352941178;stroke-miterlimit:10;stroke-linecap:square;" x1="-22" x2="-8" y1="230" y2="220"/>
  <line style="fill:none;stroke:rgb(63,63,191);stroke-opacity:0.24705882352941178;stroke-miterlimit:10;stroke-linecap:square;" x1="-8" x2="6" y1="220" y2="210"/>
  <line style="fill:none;stroke:rgb(63,63,191);stroke-opacity:0.24705882352941178;stroke-miterlimit:10;stroke-linecap:square;" x1="6" x2="20" y1="210" y2="200"/>
  <line style="fill:none;stroke:rgb(63,63,191);stroke-opacity:0.24705882352941178;stroke-miterlimit:10;stroke-linecap:square;" x1="20" x2="35" y1="200" y2="190"/>
  <line style="fill:none;stroke:rgb(63,63,191);stroke-opacity:0.24705882352941178;stroke-miterlimit:10;stroke-linecap:square;" x1="35" x2="50" y1="190" y2="180"/>
  <line style="fill:none;stroke:rgb(63,63,191);stroke-opacity:0.24705882352941178;stroke-miterlimit:10;stroke-linecap:square;" x1="50" x2="64" y1="180" y2="170"/>
  <line style="fill:none;stroke:rgb(63,63,191);stroke-opacity:0.24705882352941178;stroke-miterlimit:10;stroke-linecap:square;" x1="64" x2="79" y1="170" y2="160"/>
  <line style="fill:none;stroke:rgb(63,63,191);stroke-opacity:0.24705882352941178;stroke-miterlimit:10;stroke-linecap:square;" x1="79" x2="93" y1="160" y2="150"/>
  <line style="fill:none;stroke:rgb(63,63,191);stroke-opacity:0.24705882352941178;stroke-miterlimit:10;stroke-linecap:square;" x1="93" x2="108" y1="150" y2="140"/>
  <line style="fill:none;stroke:rgb(63,63,191);stroke-opacity:0.24705882352941178;stroke-miterlimit:10;stroke-linecap:square;" x1="108" x2="122" y1="140" y2="130"/>
  <line style="fill:none;stroke:rgb(63,63,191);stroke-opacity:0.24705882352941178;stroke-miterlimit:10;stroke-linecap:square;" x1="122" x2="137" y1="130" y2="120"/>
  <line style="fill:none;stroke:rgb(63,63,191);stroke-opacity:0.24705882352941178;stroke-miterlimit:10;stroke-linecap:square;" x1="137" x2="152" y1="120" y2="110"/>
  <line style="fill:none;stroke:rgb(63,63,191);stroke-opacity:0.24705882352941178;stroke-miterlimit:10;stroke-linecap:square;" x1="152" x2="166" y1="110" y2="100"/>
  <line style="fill:none;stroke:rgb(63,63,191);stroke-opacity:0.24705882352941178;stroke-miterlimit:10;stroke-linecap:square;" x1="166" x2="181" y1="100" y2="90"/>
  <line style="fill:none;stroke:rgb(63,63,191);stroke-opacity:0.24705882352941178;stroke-miterlimit:10;stroke-linecap:square;" x1="181" x2="195" y1="90" y2="80"/>
  <line style="fill:none;stroke:rgb(63,63,191);stroke-opacity:0.24705882352941178;stroke-miterlimit:10;stroke-linecap:square;" x1="195" x2="210" y1="80" y2="70"/>
  <line style="fill:none;stroke:rgb(63,63,191);stroke-opacity:0.24705882352941178;stroke-miterlimit:10;stroke-linecap:square;" x1="210" x2="225" y1="70" y2="60"/>
  <line style="fill:none;stroke:rgb(63,63,191);stroke-opacity:0.24705882352941178;stroke-miterlimit:10;stroke-linecap:square;" x1="225" x2="225" y1="60" y2="60"/>
  <rect height="4" style="fill:rgb(255,127,0);fill-opacity:0.7490196078431373;stroke:none;" width="4" x="-127" y="295"/>
  <line style="fill:none;stroke:rgb(255,127,0);stroke-opacity:0.24705882352941178;stroke-width:2;stroke-miterlimit:10;stroke-linecap:square;" x1="50" x2="-125" y1="300" y2="300"/>
  <line style="fill:none;stroke:rgb(255,127,0);stroke-opacity:0.24705882352941178;stroke-width:2;stroke-miterlimit:10;stroke-linecap:square;" x1="-125" x2="-125" y1="298" y2="297"/>
  <rect height="4" style="fill:rgb(255,127,0);fill-opacity:0.7490196078431373;stroke:none;" width="4" x="-97" y="295"/>
  <line style="fill:none;stroke:rgb(255,127,0);stroke-opacity:0.24705882352941178;stroke-width:2;stroke-miterlimit:10;stroke-linecap:square;" x1="-125" x2="-95" y1="295" y2="295"/>
  <line style="fill:none;stroke:rgb(255,127,0);stroke-opacity:0.24705882352941178;stroke-width:2;stroke-miterlimit:10;stroke-linecap:square;" x1="-95" x2="-95" y1="293" y2="293"/>
  <rect height="21" style="fill:rgb(255,127,0);fill-opacity:0.7490196078431373;stroke:none;" width="4" x="-83" y="278"/>
  <line style="fill:none;stroke:rgb(255,127,0);stroke-opacity:0.24705882352941178;stroke-width:2;stroke-miterlimit:10;stroke-linecap:square;" x1="-95" x2="-81" y1="291" y2="291"/>
  <line style="fill:none;stroke:rgb(255,127,0);stroke-opacity:0.24705882352941178;stroke-width:2;stroke-miterlimit:10;stroke-linecap:square;" x1="-81" x2="-81" y1="289" y2="272"/>
  <rect height="8" style="fill:rgb(255,127,0);fill-opacity:0.7490196078431373;stroke:none;" width="4" x="-68" y="291"/>
  <line style="fill:none;stroke:rgb(255,127,0);stroke-opacity:0.24705882352941178;stroke-width:2;stroke-miterlimit:10;stroke-linecap:square;" x1="-81" x2="-66" y1="270" y2="270"/>
  <line style="fill:none;stroke:rgb(255,127,0);stroke-opacity:0.24705882352941178;stroke-width:2;stroke-miterlimit:10;stroke-linecap:square;" x1="-66" x2="-66" y1="268" y2="264"/>
  <rect height="12" style="fill:rgb(255,127,0);fill-opacity:0.7490196078431373;stroke:none;" width="4" x="-54" y="287"/>
  <line style="fill:none;stroke:rgb(255,127,0);stroke-opacity:0.24705882352941178;stroke-width:2;stroke-miterlimit:10;stroke-linecap:square;" x1="-66" x2="-52" y1="262" y2="262"/>
  <line style="fill:none;stroke:rgb(255,127,0);stroke-opacity:0.24705882352941178;stroke-width:2;stroke-miterlimit:10;stroke-linecap:square;" x1="-52" x2="-52" y1="260" y2="251"/>
  <rect height="4" style="fill:rgb(255,127,0);fill-opacity:0.7490196078431373;stroke:none;" width="4" x="-39" y="295"/>
  <line style="fill:none;stroke:rgb(255,127,0);stroke-opacity:0.24705882352941178;stroke-width:2;stroke-miterlimit:10;stroke-linecap:square;" x1="-52" x2="-37" y1="249" y2="249"/>
  <line style="fill:none;stroke:rgb(255,127,0);stroke-opacity:0.24705882352941178;stroke-width:2;stroke-miterlimit:10;stroke-linecap:square;" x1="-37" x2="-37" y1="247" y2="247"/>
  <rect height="4" style="fill:rgb(255,127,0);fill-opacity:0.7490196078431373;stroke:none;" width="4" x="-24" y="295"/>
  <line style="fill:none;stroke:rgb(255,127,0);stroke-opacity:0.24705882352941178;stroke-width:2;stroke-miterlimit:10;stroke-linecap:square;" x1="-37" x2="-22" y1="245" y2="245"/>
  <line style="fill:none;stroke:rgb(255,127,0);stroke-opacity:0.24705882352941178;stroke-width:2;stroke-miterlimit:10;stroke-linecap:square;" x1="-22" x2="-22" y1="243" y2="243"/>
  <rect height="12" style="fill:rgb(255,127,0);fill-opacity:0.7490196078431373;stroke:none;" width="4" x="-10" y="287"/>
  <line style="fill:none;stroke:rgb(255,127,0);stroke-opacity:0.24705882352941178;stroke-width:2;stroke-miterlimit:10;stroke-linecap:square;" x1="-22" x2="-8" y1="241" y2="241"/>
  <line style="fill:none;stroke:rgb(255,127,0);stroke-opacity:0.24705882352941178;stroke-width:2;stroke-miterlimit:10;stroke-linecap:square;" x1="-8" x2="-8" y1="239" y2="230"/>
  <rect height="4" style="fill:rgb(255,127,0);fill-opacity:0.7490196078431373;stroke:none;" width="4" x="4" y="295"/>
  <line style="fill:none;stroke:rgb(255,127,0);stroke-opacity:0.24705882352941178;stroke-width:2;stroke-miterlimit:10;stroke-linecap:square;" x1="-8" x2="6" y1="228" y2="228"/>
  <line style="fill:none;stroke:rgb(255,127,0);stroke-opacity:0.24705882352941178;stroke-width:2;stroke-miterlimit:10;stroke-linecap:square;" x1="6" x2="6" y1="226" y2="226"/>
  <rect height="4" style="fill:rgb(255,127,0);fill-opacity:0.7490196078431373;stroke:none;" width="4" x="18" y="295"/>
  <line style="fill:none;stroke:rgb(255,127,0);stroke-opacity:0.24705882352941178;stroke-width:2;stroke-miterlimit:10;stroke-linecap:square;" x1="6" x2="20" y1="224" y2="224"/>
  <line style="fill:none;stroke:rgb(255,127,0);stroke-opacity:0.24705882352941178;stroke-width:2;stroke-miterlimit:10;stroke-linecap:square;" x1="20" x2="20" y1="222" y2="222"/>
  <rect height="4" style="fill:rgb(255,127,0);fill-opacity:0.7490196078431373;stroke:none;" width="4" x="33" y="295"/>
  <line style="fill:none;stroke:rgb(255,127,0);stroke-opacity:0.24705882352941178;stroke-width:2;stroke-miterlimit:10;stroke-linecap:square;" x1="20" x2="35" y1="220" y2="220"/>
  <line style="fill:none;stroke:rgb(255,127,0);stroke-opacity:0.24705882352941178;stroke-width:2;stroke-miterlimit:10;stroke-linecap:square;" x1="35" x2="35" y1="218" y2="217"/>
  <rect height="8" style="fill:rgb(255,127,0);fill-opacity:0.7490196078431373;stroke:none;" width="4" x="48" y="291"/>
  <line style="fill:none;stroke:rgb(255,127,0);stroke-opacity:0.24705882352941178;stroke-width:2;stroke-miterlimit:10;stroke-linecap:square;" x1="35" x2="50" y1="215" y2="215"/>
  <line style="fill:none;stroke:rgb(255,127,0);stroke-opacity:0.24705882352941178;stroke-width:2;stroke-miterlimit:10;stroke-linecap:square;" x1="50" x2="50" y1="213" y2="209"/>
  <rect height="8" style="fill:rgb(255,127,0);fill-opacity:0.7490196078431373;stroke:none;" width="4" x="77" y="291"/>
  <line style="fill:none;stroke:rgb(255,127,0);stroke-opacity:0.24705882352941178;stroke-width:2;stroke-miterlimit:10;stroke-linecap:square;" x1="50" x2="79" y1="207" y2="207"/>
  <line style="fill:none;stroke:rgb(255,127,0);stroke-opacity:0.24705882352941178;stroke-width:2;stroke-miterlimit:10;stroke-linecap:square;" x1="79" x2="79" y1="205" y2="200"/>
  <rect height="16" style="fill:rgb(255,127,0);fill-opacity:0.7490196078431373;stroke:none;" width="4" x="91" y="283"/>
  <line style="fill:none;stroke:rgb(255,127,0);stroke-opacity:0.24705882352941178;stroke-width:2;stroke-miterlimit:10;stroke-linecap:square;" x1="79" x2="93" y1="198" y2="198"/>
  <line style="fill:none;stroke:rgb(255,127,0);stroke-opacity:0.24705882352941178;stroke-width:2;stroke-miterlimit:10;stroke-linecap:square;" x1="93" x2="93" y1="196" y2="184"/>
  <rect height="4" style="fill:rgb(255,127,0);fill-opacity:0.7490196078431373;stroke:none;" width="4" x="106" y="295"/>
  <line style="fill:none;stroke:rgb(255,127,0);stroke-opacity:0.24705882352941178;stroke-width:2;stroke-miterlimit:10;stroke-linecap:square;" x1="93" x2="108" y1="182" y2="182"/>
  <line style="fill:none;stroke:rgb(255,127,0);stroke-opacity:0.24705882352941178;stroke-width:2;stroke-miterlimit:10;stroke-linecap:square;" x1="108" x2="108" y1="180" y2="179"/>
  <rect height="33" style="fill:rgb(255,127,0);fill-opacity:0.7490196078431373;stroke:none;" width="4" x="120" y="266"/>
  <line style="fill:none;stroke:rgb(255,127,0);stroke-opacity:0.24705882352941178;stroke-width:2;stroke-miterlimit:10;stroke-linecap:square;" x1="108" x2="122" y1="177" y2="177"/>
  <line style="fill:none;stroke:rgb(255,127,0);stroke-opacity:0.24705882352941178;stroke-width:2;stroke-miterlimit:10;stroke-linecap:square;" x1="122" x2="122" y1="175" y2="146"/>
  <rect height="37" style="fill:rgb(255,127,0);fill-opacity:0.7490196078431373;stroke:none;" width="4" x="135" y="262"/>
  <line style="fill:none;stroke:rgb(255,127,0);stroke-opacity:0.24705882352941178;stroke-width:2;stroke-miterlimit:10;stroke-linecap:square;" x1="122" x2="137" y1="144" y2="144"/>
  <line style="fill:none;stroke:rgb(255,127,0);stroke-opacity:0.24705882352941178;stroke-width:2;stroke-miterlimit:10;stroke-linecap:square;" x1="137" x2="137" y1="142" y2="108"/>
  <rect height="25" style="fill:rgb(255,127,0);fill-opacity:0.7490196078431373;stroke:none;" width="4" x="150" y="274"/>
  <line style="fill:none;stroke:rgb(255,127,0);stroke-opacity:0.24705882352941178;stroke-width:2;stroke-miterlimit:10;stroke-linecap:square;" x1="137" x2="152" y1="106" y2="106"/>
  <line style="fill:none;stroke:rgb(255,127,0);stroke-opacity:0.24705882352941178;stroke-width:2;stroke-miterlimit:10;stroke-linecap:square;" x1="152" x2="152" y1="104" y2="83"/>
  <rect height="8" style="fill:rgb(255,127,0);fill-opacity:0.7490196078431373;stroke:none;" width="4" x="164" y="291"/>
  <line style="fill:none;stroke:rgb(255,127,0);stroke-opacity:0.24705882352941178;stroke-width:2;stroke-miterlimit:10;stroke-linecap:square;" x1="152" x2="166" y1="81" y2="81"/>
  <line style="fill:none;stroke:rgb(255,127,0);stroke-opacity:0.24705882352941178;stroke-width:2;stroke-miterlimit:10;stroke-linecap:square;" x1="166" x2="166" y1="79" y2="74"/>
  <rect height="4" style="fill:rgb(255,127,0);fill-opacity:0.7490196078431373;stroke:none;" width="4" x="179" y="295"/>
  <line style="fill:none;stroke:rgb(255,127,0);stroke-opacity:0.24705882352941178;stroke-width:2;stroke-miterlimit:10;stroke-linecap:square;" x1="166" x2="181" y1="72" y2="72"/>
  <line style="fill:none;stroke:rgb(255,127,0);stroke-opacity:0.24705882352941178;stroke-width:2;stroke-miterlimit:10;stroke-linecap:square;" x1="181" x2="181" y1="70" y2="70"/>
  <rect height="4" style="fill:rgb(255,127,0);fill-opacity:0.7490196078431373;stroke:none;" width="4" x="193" y="295"/>
  <line style="fill:none;stroke:rgb(255,127,0);stroke-opacity:0.24705882352941178;stroke-width:2;stroke-miterlimit:10;stroke-linecap:square;" x1="181" x2="195" y1="68" y2="68"/>
  <line style="fill:none;stroke:rgb(255,127,0);stroke-opacity:0.24705882352941178;stroke-width:2;stroke-miterlimit:10;stroke-linecap:square;" x1="195" x2="195" y1="66" y2="66"/>
  <rect height="4" style="fill:rgb(255,127,0);fill-opacity:0.7490196078431373;stroke:none;" width="4" x="223" y="295"/>
  <line style="fill:none;stroke:rgb(255,127,0);stroke-opacity:0.24705882352941178;stroke-width:2;stroke-miterlimit:10;stroke-linecap:square;" x1="195" x2="225" y1="64" y2="64"/>
  <line style="fill:none;stroke:rgb(255,127,0);stroke-opacity:0.24705882352941178;stroke-width:2;stroke-miterlimit:10;stroke-linecap:square;" x1="225" x2="225" y1="62" y2="62"/>
  <line style="fill:none;stroke:rgb(255,127,0);stroke-opacity:0.24705882352941178;stroke-width:2;stroke-miterlimit:10;stroke-linecap:square;" x1="225" x2="225" y1="60" y2="60"/>
  <line style="fill:none;stroke:rgb(255,127,0);stroke-opacity:0.4980392156862745;stroke-miterlimit:2;stroke-dasharray:2;" x1="-125" x2="-125" y1="300" y2="363"/>
  <line style="fill:none;stroke:rgb(255,127,0);stroke-opacity:0.4980392156862745;stroke-miterlimit:2;stroke-dasharray:2;" x1="-95" x2="-95" y1="300" y2="376"/>
  <line style="fill:none;stroke:rgb(255,127,0);stroke-opacity:0.4980392156862745;stroke-miterlimit:2;stroke-dasharray:2;" x1="-81" x2="-81" y1="300" y2="389"/>
  <line style="fill:none;stroke:rgb(255,127,0);stroke-opacity:0.4980392156862745;stroke-miterlimit:2;stroke-dasharray:2;" x1="-81" x2="-81" y1="300" y2="402"/>
  <line style="fill:none;stroke:rgb(255,127,0);stroke-opacity:0.4980392156862745;stroke-miterlimit:2;stroke-dasharray:2;" x1="-81" x2="-81" y1="300" y2="415"/>
  <line style="fill:none;stroke:rgb(255,127,0);stroke-opacity:0.4980392156862745;stroke-miterlimit:2;stroke-dasharray:2;" x1="-81" x2="-81" y1="300" y2="428"/>
  <line style="fill:none;stroke:rgb(255,127,0);stroke-opacity:0.4980392156862745;stroke-miterlimit:2;stroke-dasharray:2;" x1="-81" x2="-81" y1="300" y2="441"/>
  <line style="fill:none;stroke:rgb(255,127,0);stroke-opacity:0.4980392156862745;stroke-miterlimit:2;stroke-dasharray:2;" x1="-66" x2="-66" y1="300" y2="454"/>
  <line style="fill:none;stroke:rgb(255,127,0);stroke-opacity:0.4980392156862745;stroke-miterlimit:2;stroke-dasharray:2;" x1="-66" x2="-66" y1="300" y2="467"/>
  <line style="fill:none;stroke:rgb(255,127,0);stroke-opacity:0.4980392156862745;stroke-miterlimit:2;stroke-dasharray:2;" x1="-52" x2="-52" y1="300" y2="480"/>
  <line style="fill:none;stroke:rgb(255,127,0);stroke-opacity:0.4980392156862745;stroke-miterlimit:2;stroke-dasharray:2;" x1="-52" x2="-52" y1="300" y2="493"/>
  <line style="fill:none;stroke:rgb(255,127,0);stroke-opacity:0.4980392156862745;stroke-miterlimit:2;stroke-dasharray:2;" x1="-52" x2="-52" y1="300" y2="506"/>
  <line style="fill:none;stroke:rgb(255,127,0);stroke-opacity:0.4980392156862745;stroke-miterlimit:2;stroke-dasharray:2;" x1="-37" x2="-37" y1="300" y2="519"/>
  <line style="fill:none;stroke:rgb(255,127,0);stroke-opacity:0.4980392156862745;stroke-miterlimit:2;stroke-dasharray:2;" x1="-22" x2="-22" y1="300" y2="532"/>
  <line style="fill:none;stroke:rgb(255,127,0);stroke-opacity:0.4980392156862745;stroke-miterlimit:2;stroke-dasharray:2;" x1="-8" x2="-8" y1="300" y2="545"/>
  <line style="fill:none;stroke:rgb(255,127,0);stroke-opacity:0.4980392156862745;stroke-miterlimit:2;stroke-dasharray:2;" x1="-8" x2="-8" y1="300" y2="558"/>
  <line style="fill:none;stroke:rgb(255,127,0);stroke-opacity:0.4980392156862745;stroke-miterlimit:2;stroke-dasharray:2;" x1="-8" x2="-8" y1="300" y2="571"/>
  <line style="fill:none;stroke:rgb(255,127,0);stroke-opacity:0.4980392156862745;stroke-miterlimit:2;stroke-dasharray:2;" x1="6" x2="6" y1="300" y2="584"/>
  <line style="fill:none;stroke:rgb(255,127,0);stroke-opacity:0.4980392156862745;stroke-miterlimit:2;stroke-dasharray:2;" x1="20" x2="20" y1="300" y2="597"/>
  <line style="fill:none;stroke:rgb(255,127,0);stroke-opacity:0.4980392156862745;stroke-miterlimit:2;stroke-dasharray:2;" x1="35" x2="35" y1="300" y2="610"/>
  <line style="fill:none;stroke:rgb(255,127,0);stroke-opacity:0.4980392156862745;stroke-miterlimit:2;stroke-dasharray:2;" x1="50" x2="50" y1="300" y2="623"/>
  <line style="fill:none;stroke:rgb(255,127,0);stroke-opacity:0.4980392156862745;stroke-miterlimit:2;stroke-dasharray:2;" x1="50" x2="50" y1="300" y2="636"/>
  <line style="fill:none;stroke:rgb(255,127,0);stroke-opacity:0.4980392156862745;stroke-miterlimit:2;stroke-dasharray:2;" x1="79" x2="79" y1="300" y2="649"/>
  <line style="fill:none;stroke:rgb(255,127,0);stroke-opacity:0.4980392156862745;stroke-miterlimit:2;stroke-dasharray:2;" x1="79" x2="79" y1="300" y2="662"/>
  <line style="fill:none;stroke:rgb(255,127,0);stroke-opacity:0.4980392156862745;stroke-miterlimit:2;stroke-dasharray:2;" x1="93" x2="93" y1="300" y2="676"/>
  <line style="fill:none;stroke:rgb(255,127,0);stroke-opacity:0.4980392156862745;stroke-miterlimit:2;stroke-dasharray:2;" x1="93" x2="93" y1="300" y2="690"/>
  <line style="fill:none;stroke:rgb(255,127,0);stroke-opacity:0.4980392156862745;stroke-miterlimit:2;stroke-dasharray:2;" x1="93" x2="93" y1="300" y2="704"/>
  <line style="fill:none;stroke:rgb(255,127,0);stroke-opacity:0.4980392156862745;stroke-miterlimit:2;stroke-dasharray:2;" x1="93" x2="93" y1="300" y2="718"/>
  <line style="fill:none;stroke:rgb(255,127,0);stroke-opacity:0.4980392156862745;stroke-miterlimit:2;stroke-dasharray:2;" x1="108" x2="108" y1="300" y2="732"/>
  <line style="fill:none;stroke:rgb(255,127,0);stroke-opacity:0.4980392156862745;stroke-miterlimit:2;stroke-dasharray:2;" x1="122" x2="122" y1="300" y2="749"/>
  <line style="fill:none;stroke:rgb(255,127,0);stroke-opacity:0.4980392156862745;stroke-miterlimit:2;stroke-dasharray:2;" x1="122" x2="122" y1="300" y2="766"/>
  <line style="fill:none;stroke:rgb(255,127,0);stroke-opacity:0.4980392156862745;stroke-miterlimit:2;stroke-dasharray:2;" x1="122" x2="122" y1="300" y2="783"/>
  <line style="fill:none;stroke:rgb(255,127,0);stroke-opacity:0.4980392156862745;stroke-miterlimit:2;stroke-dasharray:2;" x1="122" x2="122" y1="300" y2="800"/>
  <line style="fill:none;stroke:rgb(255,127,0);stroke-opacity:0.4980392156862745;stroke-miterlimit:2;stroke-dasharray:2;" x1="122" x2="122" y1="300" y2="817"/>
  <line style="fill:none;stroke:rgb(255,127,0);stroke-opacity:0.4980392156862745;stroke-miterlimit:2;stroke-dasharray:2;" x1="122" x2="122" y1="300" y2="834"/>
  <line style="fill:none;stroke:rgb(255,127,0);stroke-opacity:0.4980392156862745;stroke-miterlimit:2;stroke-dasharray:2;" x1="122" x2="122" y1="300" y2="851"/>
  <line style="fill:none;stroke:rgb(255,127,0);stroke-opacity:0.4980392156862745;stroke-miterlimit:2;stroke-dasharray:2;" x1="122" x2="122" y1="300" y2="868"/>
  <line style="fill:none;stroke:rgb(255,127,0);stroke-opacity:0.4980392156862745;stroke-miterlimit:2;stroke-dasharray:2;" x1="137" x2="137" y1="300" y2="885"/>
  <line style="fill:none;stroke:rgb(255,127,0);stroke-opacity:0.4980392156862745;stroke-miterlimit:2;stroke-dasharray:2;" x1="137" x2="137" y1="300" y2="902"/>
  <line style="fill:none;stroke:rgb(255,127,0);stroke-opacity:0.4980392156862745;stroke-miterlimit:2;stroke-dasharray:2;" x1="137" x2="137" y1="300" y2="919"/>
  <line style="fill:none;stroke:rgb(255,127,0);stroke-opacity:0.4980392156862745;stroke-miterlimit:2;stroke-dasharray:2;" x1="137" x2="137" y1="300" y2="936"/>
  <line style="fill:none;stroke:rgb(255,127,0);stroke-opacity:0.4980392156862745;stroke-miterlimit:2;stroke-dasharray:2;" x1="137" x2="137" y1="300" y2="953"/>
  <line style="fill:none;stroke:rgb(255,127,0);stroke-opacity:0.4980392156862745;stroke-miterlimit:2;stroke-dasharray:2;" x1="137" x2="137" y1="300" y2="970"/>
  <line style="fill:none;stroke:rgb(255,127,0);stroke-opacity:0.4980392156862745;stroke-miterlimit:2;stroke-dasharray:2;" x1="137" x2="137" y1="300" y2="987"/>
  <line style="fill:none;stroke:rgb(255,127,0);stroke-opacity:0.4980392156862745;stroke-miterlimit:2;stroke-dasharray:2;" x1="137" x2="137" y1="300" y2="1004"/>
  <line style="fill:none;stroke:rgb(255,127,0);stroke-opacity:0.4980392156862745;stroke-miterlimit:2;stroke-dasharray:2;" x1="137" x2="137" y1="300" y2="1021"/>
  <line style="fill:none;stroke:rgb(255,127,0);stroke-opacity:0.4980392156862745;stroke-miterlimit:2;stroke-dasharray:2;" x1="152" x2="152" y1="300" y2="1038"/>
  <line style="fill:none;stroke:rgb(255,127,0);stroke-opacity:0.4980392156862745;stroke-miterlimit:2;stroke-dasharray:2;" x1="152" x2="152" y1="300" y2="1055"/>
  <line style="fill:none;stroke:rgb(255,127,0);stroke-opacity:0.4980392156862745;stroke-miterlimit:2;stroke-dasharray:2;" x1="152" x2="152" y1="300" y2="1072"/>
  <line style="fill:none;stroke:rgb(255,127,0);stroke-opacity:0.4980392156862745;stroke-miterlimit:2;stroke-dasharray:2;" x1="152" x2="152" y1="300" y2="1089"/>
  <line style="fill:none;stroke:rgb(255,127,0);stroke-opacity:0.4980392156862745;stroke-miterlimit:2;stroke-dasharray:2;" x1="152" x2="152" y1="300" y2="1106"/>
  <line style="fill:none;stroke:rgb(255,127,0);stroke-opacity:0.4980392156862745;stroke-miterlimit:2;stroke-dasharray:2;" x1="152" x2="152" y1="300" y2="1123"/>
  <line style="fill:none;stroke:rgb(255,127,0);stroke-opacity:0.4980392156862745;stroke-miterlimit:2;stroke-dasharray:2;" x1="166" x2="166" y1="300" y2="1136"/>
  <line style="fill:none;stroke:rgb(255,127,0);stroke-opacity:0.4980392156862745;stroke-miterlimit:2;stroke-dasharray:2;" x1="166" x2="166" y1="300" y2="1149"/>
  <line style="fill:none;stroke:rgb(255,127,0);stroke-opacity:0.4980392156862745;stroke-miterlimit:2;stroke-dasharray:2;" x1="181" x2="181" y1="300" y2="1162"/>
  <line style="fill:none;stroke:rgb(255,127,0);stroke-opacity:0.4980392156862745;stroke-miterlimit:2;stroke-dasharray:2;" x1="195" x2="195" y1="300" y2="1175"/>
  <line style="fill:none;stroke:rgb(255,127,0);stroke-opacity:0.4980392156862745;stroke-miterlimit:2;stroke-dasharray:2;" x1="225" x2="225" y1="300" y2="350"/>
  <line style="fill:none;stroke:rgb(0,0,0);stroke-width:2;stroke-miterlimit:10;stroke-linecap:square;" x1="48" x2="48" y1="60" y2="300"/>
  <line style="fill:none;stroke:rgb(0,0,0);stroke-width:2;stroke-miterlimit:10;stroke-linecap:square;" x1="48" x2="402" y1="300" y2="300"/>
  <rect height="30" style="fill:rgb(255,255,255);stroke:none;" width="44" x="-147" y="308"/>
  <text style="fill:rgb(0,0,0);stroke:none;font-size:25px;font-weight:bold;" x="-147" y="332">-12</text>
  <rect height="30" style="fill:rgb(255,255,255);stroke:none;" width="34" x="208" y="308"/>
  <text style="fill:rgb(0,0,0);stroke:none;font-size:25px;font-weight:bold;" x="208" y="332">12</text>
  <text style="fill:rgb(0,0,0);stroke:none;font-size:25px;font-weight:bold;" x="25" y="312">0</text>
  <text style="fill:rgb(0,0,0);stroke:none;font-size:25px;font-weight:bold;" x="25" y="72">1</text>
  <text style="fill:rgb(0,0,0);stroke:none;font-size:25px;font-weight:bold;" x="10" y="42">GOBP_INFLAMMATORY_RESPONSE</text>
  <rect height="10" style="fill:rgb(255,255,255);stroke:none;" width="47" x="-125" y="353"/>
  <text style="fill:rgb(128,128,128);stroke:none;font-size:10px;" x="-125" y="363">C1QTNF3</text>
  <rect height="10" style="fill:rgb(255,255,255);stroke:none;" width="27" x="-95" y="366"/>
  <text style="fill:rgb(128,128,128);stroke:none;font-size:10px;" x="-95" y="376">BCL6</text>
  <rect height="10" style="fill:rgb(255,255,255);stroke:none;" width="20" x="-81" y="379"/>
  <text style="fill:rgb(128,128,128);stroke:none;font-size:10px;" x="-81" y="389">FN1</text>
  <rect height="10" style="fill:rgb(255,255,255);stroke:none;" width="25" x="-81" y="392"/>
  <text style="fill:rgb(128,128,128);stroke:none;font-size:10px;" x="-81" y="402">KLF4</text>
  <rect height="10" style="fill:rgb(255,255,255);stroke:none;" width="34" x="-81" y="405"/>
  <text style="fill:rgb(128,128,128);stroke:none;font-size:10px;" x="-81" y="415">CD163</text>
  <rect height="10" style="fill:rgb(255,255,255);stroke:none;" width="42" x="-81" y="418"/>
  <text style="fill:rgb(128,128,128);stroke:none;font-size:10px;" x="-81" y="428">TNFAIP6</text>
  <rect height="10" style="fill:rgb(255,255,255);stroke:none;" width="48" x="-81" y="431"/>
  <text style="fill:rgb(128,128,128);stroke:none;font-size:10px;" x="-81" y="441">RARRES2</text>
  <rect height="10" style="fill:rgb(255,255,255);stroke:none;" width="28" x="-66" y="444"/>
  <text style="fill:rgb(128,128,128);stroke:none;font-size:10px;" x="-66" y="454">BRD4</text>
  <rect height="10" style="fill:rgb(255,255,255);stroke:none;" width="29" x="-66" y="457"/>
  <text style="fill:rgb(128,128,128);stroke:none;font-size:10px;" x="-66" y="467">GHRL</text>
  <rect height="10" style="fill:rgb(255,255,255);stroke:none;" width="29" x="-52" y="470"/>
  <text style="fill:rgb(128,128,128);stroke:none;font-size:10px;" x="-52" y="480">AOC3</text>
  <rect height="10" style="fill:rgb(255,255,255);stroke:none;" width="35" x="-52" y="483"/>
  <text style="fill:rgb(128,128,128);stroke:none;font-size:10px;" x="-52" y="493">GPER1</text>
  <rect height="10" style="fill:rgb(255,255,255);stroke:none;" width="42" x="-52" y="496"/>
  <text style="fill:rgb(128,128,128);stroke:none;font-size:10px;" x="-52" y="506">CLEC7A</text>
  <rect height="10" style="fill:rgb(255,255,255);stroke:none;" width="24" x="-37" y="509"/>
  <text style="fill:rgb(128,128,128);stroke:none;font-size:10px;" x="-37" y="519">ITCH</text>
  <rect height="10" style="fill:rgb(255,255,255);stroke:none;" width="52" x="-22" y="522"/>
  <text style="fill:rgb(128,128,128);stroke:none;font-size:10px;" x="-22" y="532">CTNNBIP1</text>
  <rect height="10" style="fill:rgb(255,255,255);stroke:none;" width="24" x="-8" y="535"/>
  <text style="fill:rgb(128,128,128);stroke:none;font-size:10px;" x="-8" y="545">GJA1</text>
  <rect height="10" style="fill:rgb(255,255,255);stroke:none;" width="29" x="-8" y="548"/>
  <text style="fill:rgb(128,128,128);stroke:none;font-size:10px;" x="-8" y="558">ANO6</text>
  <rect height="10" style="fill:rgb(255,255,255);stroke:none;" width="25" x="-8" y="561"/>
  <text style="fill:rgb(128,128,128);stroke:none;font-size:10px;" x="-8" y="571">ELF3</text>
  <rect height="10" style="fill:rgb(255,255,255);stroke:none;" width="25" x="6" y="574"/>
  <text style="fill:rgb(128,128,128);stroke:none;font-size:10px;" x="6" y="584">BST1</text>
  <rect height="10" style="fill:rgb(255,255,255);stroke:none;" width="38" x="20" y="587"/>
  <text style="fill:rgb(128,128,128);stroke:none;font-size:10px;" x="20" y="597">S100A9</text>
  <rect height="10" style="fill:rgb(255,255,255);stroke:none;" width="32" x="35" y="600"/>
  <text style="fill:rgb(128,128,128);stroke:none;font-size:10px;" x="35" y="610">TGFB1</text>
  <rect height="10" style="fill:rgb(255,255,255);stroke:none;" width="22" x="50" y="613"/>
  <text style="fill:rgb(128,128,128);stroke:none;font-size:10px;" x="50" y="623">IL4R</text>
  <rect height="10" style="fill:rgb(255,255,255);stroke:none;" width="32" x="50" y="626"/>
  <text style="fill:rgb(128,128,128);stroke:none;font-size:10px;" x="50" y="636">PTAFR</text>
  <rect height="10" style="fill:rgb(255,255,255);stroke:none;" width="30" x="79" y="639"/>
  <text style="fill:rgb(128,128,128);stroke:none;font-size:10px;" x="79" y="649">ORM1</text>
  <rect height="10" style="fill:rgb(255,255,255);stroke:none;" width="33" x="79" y="652"/>
  <text style="fill:rgb(128,128,128);stroke:none;font-size:10px;" x="79" y="662">IL1F10</text>
  <rect height="11" style="fill:rgb(255,255,255);stroke:none;" width="21" x="93" y="665"/>
  <text style="fill:rgb(128,128,128);stroke:none;font-size:11px;" x="93" y="676">TNF</text>
  <rect height="11" style="fill:rgb(255,255,255);stroke:none;" width="45" x="93" y="679"/>
  <text style="fill:rgb(128,128,128);stroke:none;font-size:11px;" x="93" y="690">DNASE1</text>
  <rect height="11" style="fill:rgb(255,255,255);stroke:none;" width="44" x="93" y="693"/>
  <text style="fill:rgb(128,128,128);stroke:none;font-size:11px;" x="93" y="704">PTGER4</text>
  <rect height="11" style="fill:rgb(255,255,255);stroke:none;" width="38" x="93" y="707"/>
  <text style="fill:rgb(128,128,128);stroke:none;font-size:11px;" x="93" y="718">IL10RB</text>
  <rect height="11" style="fill:rgb(255,255,255);stroke:none;" width="29" x="108" y="721"/>
  <text style="fill:rgb(128,128,128);stroke:none;font-size:11px;" x="108" y="732">CCL2</text>
  <rect height="13" style="fill:rgb(255,255,255);stroke:none;" width="38" x="122" y="736"/>
  <text style="fill:rgb(128,128,128);stroke:none;font-size:13px;" x="122" y="749">OGG1</text>
  <rect height="13" style="fill:rgb(255,255,255);stroke:none;" width="30" x="122" y="753"/>
  <text style="fill:rgb(128,128,128);stroke:none;font-size:13px;" x="122" y="766">NAIP</text>
  <rect height="13" style="fill:rgb(255,255,255);stroke:none;" width="37" x="122" y="770"/>
  <text style="fill:rgb(128,128,128);stroke:none;font-size:13px;" x="122" y="783">BIRC3</text>
  <rect height="13" style="fill:rgb(255,255,255);stroke:none;" width="46" x="122" y="787"/>
  <text style="fill:rgb(128,128,128);stroke:none;font-size:13px;" x="122" y="800">HDAC5</text>
  <rect height="13" style="fill:rgb(255,255,255);stroke:none;" width="41" x="122" y="804"/>
  <text style="fill:rgb(128,128,128);stroke:none;font-size:13px;" x="122" y="817">CSF1R</text>
  <rect height="13" style="fill:rgb(255,255,255);stroke:none;" width="44" x="122" y="821"/>
  <text style="fill:rgb(128,128,128);stroke:none;font-size:13px;" x="122" y="834">NR1D2</text>
  <rect height="13" style="fill:rgb(255,255,255);stroke:none;" width="41" x="122" y="838"/>
  <text style="fill:rgb(128,128,128);stroke:none;font-size:13px;" x="122" y="851">IL1RL2</text>
  <rect height="13" style="fill:rgb(255,255,255);stroke:none;" width="67" x="122" y="855"/>
  <text style="fill:rgb(128,128,128);stroke:none;font-size:13px;" x="122" y="868">TNFAIP8L2</text>
  <rect height="13" style="fill:rgb(255,255,255);stroke:none;" width="28" x="137" y="872"/>
  <text style="fill:rgb(128,128,128);stroke:none;font-size:13px;" x="137" y="885">ADA</text>
  <rect height="13" style="fill:rgb(255,255,255);stroke:none;" width="30" x="137" y="889"/>
  <text style="fill:rgb(128,128,128);stroke:none;font-size:13px;" x="137" y="902">TLR5</text>
  <rect height="13" style="fill:rgb(255,255,255);stroke:none;" width="36" x="137" y="906"/>
  <text style="fill:rgb(128,128,128);stroke:none;font-size:13px;" x="137" y="919">AKNA</text>
  <rect height="13" style="fill:rgb(255,255,255);stroke:none;" width="32" x="137" y="923"/>
  <text style="fill:rgb(128,128,128);stroke:none;font-size:13px;" x="137" y="936">LDLR</text>
  <rect height="13" style="fill:rgb(255,255,255);stroke:none;" width="26" x="137" y="940"/>
  <text style="fill:rgb(128,128,128);stroke:none;font-size:13px;" x="137" y="953">IL37</text>
  <rect height="13" style="fill:rgb(255,255,255);stroke:none;" width="43" x="137" y="957"/>
  <text style="fill:rgb(128,128,128);stroke:none;font-size:13px;" x="137" y="970">CASP5</text>
  <rect height="13" style="fill:rgb(255,255,255);stroke:none;" width="43" x="137" y="974"/>
  <text style="fill:rgb(128,128,128);stroke:none;font-size:13px;" x="137" y="987">CASP4</text>
  <rect height="13" style="fill:rgb(255,255,255);stroke:none;" width="41" x="137" y="991"/>
  <text style="fill:rgb(128,128,128);stroke:none;font-size:13px;" x="137" y="1004">HYAL3</text>
  <rect height="13" style="fill:rgb(255,255,255);stroke:none;" width="51" x="137" y="1008"/>
  <text style="fill:rgb(128,128,128);stroke:none;font-size:13px;" x="137" y="1021">SLAMF8</text>
  <rect height="13" style="fill:rgb(255,255,255);stroke:none;" width="25" x="152" y="1025"/>
  <text style="fill:rgb(128,128,128);stroke:none;font-size:13px;" x="152" y="1038">ZYX</text>
  <rect height="13" style="fill:rgb(255,255,255);stroke:none;" width="26" x="152" y="1042"/>
  <text style="fill:rgb(128,128,128);stroke:none;font-size:13px;" x="152" y="1055">IL33</text>
  <rect height="13" style="fill:rgb(255,255,255);stroke:none;" width="44" x="152" y="1059"/>
  <text style="fill:rgb(128,128,128);stroke:none;font-size:13px;" x="152" y="1072">TRADD</text>
  <rect height="13" style="fill:rgb(255,255,255);stroke:none;" width="40" x="152" y="1076"/>
  <text style="fill:rgb(128,128,128);stroke:none;font-size:13px;" x="152" y="1089">TYRO3</text>
  <rect height="13" style="fill:rgb(255,255,255);stroke:none;" width="42" x="152" y="1093"/>
  <text style="fill:rgb(128,128,128);stroke:none;font-size:13px;" x="152" y="1106">APOL2</text>
  <rect height="13" style="fill:rgb(255,255,255);stroke:none;" width="51" x="152" y="1110"/>
  <text style="fill:rgb(128,128,128);stroke:none;font-size:13px;" x="152" y="1123">PSTPIP1</text>
  <rect height="10" style="fill:rgb(255,255,255);stroke:none;" width="14" x="166" y="1126"/>
  <text style="fill:rgb(128,128,128);stroke:none;font-size:10px;" x="166" y="1136">C5</text>
  <rect height="10" style="fill:rgb(255,255,255);stroke:none;" width="34" x="166" y="1139"/>
  <text style="fill:rgb(128,128,128);stroke:none;font-size:10px;" x="166" y="1149">CCL26</text>
  <rect height="10" style="fill:rgb(255,255,255);stroke:none;" width="35" x="181" y="1152"/>
  <text style="fill:rgb(128,128,128);stroke:none;font-size:10px;" x="181" y="1162">CASP1</text>
  <rect height="10" style="fill:rgb(255,255,255);stroke:none;" width="27" x="195" y="1165"/>
  <text style="fill:rgb(128,128,128);stroke:none;font-size:10px;" x="195" y="1175">PER1</text>
  <rect height="10" style="fill:rgb(255,255,255);stroke:none;" width="19" x="225" y="340"/>
  <text style="fill:rgb(128,128,128);stroke:none;font-size:10px;" x="225" y="350">TEK</text>
</svg>
