<?xml version="1.0" encoding="UTF-8" standalone="no"?>
<!DOCTYPE svg PUBLIC "-//W3C//DTD SVG 1.1//EN" "http://www.w3.org/Graphics/SVG/1.1/DTD/svg11.dtd">
<svg xmlns:xlink="http://www.w3.org/1999/xlink" height="158.74999999999997mm" version="1.1" viewBox="0 0 500 600" width="132.29166666666666mm" x="0mm" y="0mm" xmlns="http://www.w3.org/2000/svg">
  <rect height="1200" style="fill:rgb(255,255,255);stroke:none;" width="1000" x="0" y="0"/>
  <rect height="240" style="fill:rgb(191,191,191);fill-opacity:0.4980392156862745;stroke:none;" width="175" x="225" y="60"/>
  <line style="fill:none;stroke:rgb(63,63,191);stroke-opacity:0.24705882352941178;stroke-miterlimit:10;stroke-linecap:square;" x1="50" x2="50" y1="300" y2="300"/>
  <line style="fill:none;stroke:rgb(63,63,191);stroke-opacity:0.24705882352941178;stroke-miterlimit:10;stroke-linecap:square;" x1="50" x2="64" y1="300" y2="290"/>
  <line style="fill:none;stroke:rgb(63,63,191);stroke-opacity:0.24705882352941178;stroke-miterlimit:10;stroke-linecap:square;" x1="64" x2="79" y1="290" y2="280"/>
  <line style="fill:none;stroke:rgb(63,63,191);stroke-opacity:0.24705882352941178;stroke-miterlimit:10;stroke-linecap:square;" x1="79" x2="93" y1="280" y2="270"/>
  <line style="fill:none;stroke:rgb(63,63,191);stroke-opacity:0.24705882352941178;stroke-miterlimit:10;stroke-linecap:square;" x1="93" x2="108" y1="270" y2="260"/>
  <line style="fill:none;stroke:rgb(63,63,191);stroke-opacity:0.24705882352941178;stroke-miterlimit:10;stroke-linecap:square;" x1="108" x2="122" y1="260" y2="250"/>
  <line style="fill:none;stroke:rgb(63,63,191);stroke-opacity:0.24705882352941178;stroke-miterlimit:10;stroke-linecap:square;" x1="122" x2="137" y1="250" y2="240"/>
  <line style="fill:none;stroke:rgb(63,63,191);stroke-opacity:0.24705882352941178;stroke-miterlimit:10;stroke-linecap:square;" x1="137" x2="152" y1="240" y2="230"/>
  <line style="fill:none;stroke:rgb(63,63,191);stroke-opacity:0.24705882352941178;stroke-miterlimit:10;stroke-linecap:square;" x1="152" x2="166" y1="230" y2="220"/>
  <line style="fill:none;stroke:rgb(63,63,191);stroke-opacity:0.24705882352941178;stroke-miterlimit:10;stroke-linecap:square;" x1="166" x2="181" y1="220" y2="210"/>
  <line style="fill:none;stroke:rgb(63,63,191);stroke-opacity:0.24705882352941178;stroke-miterlimit:10;stroke-linecap:square;" x1="181" x2="195" y1="210" y2="200"/>
  <line style="fill:none;stroke:rgb(63,63,191);stroke-opacity:0.24705882352941178;stroke-miterlimit:10;stroke-linecap:square;" x1="195" x2="210" y1="200" y2="190"/>
  <line style="fill:none;stroke:rgb(63,63,191);stroke-opacity:0.24705882352941178;stroke-miterlimit:10;stroke-linecap:square;" x1="210" x2="225" y1="190" y2="180"/>
  <line style="fill:none;stroke:rgb(63,63,191);stroke-opacity:0.24705882352941178;stroke-miterlimit:10;stroke-linecap:square;" x1="225" x2="239" y1="180" y2="170"/>
  <line style="fill:none;stroke:rgb(63,63,191);stroke-opacity:0.24705882352941178;stroke-miterlimit:10;stroke-linecap:square;" x1="239" x2="254" y1="170" y2="160"/>
  <line style="fill:none;stroke:rgb(63,63,191);stroke-opacity:0.24705882352941178;stroke-miterlimit:10;stroke-linecap:square;" x1="254" x2="268" y1="160" y2="150"/>
  <line style="fill:none;stroke:rgb(63,63,191);stroke-opacity:0.24705882352941178;stroke-miterlimit:10;stroke-linecap:square;" x1="268" x2="283" y1="150" y2="140"/>
  <line style="fill:none;stroke:rgb(63,63,191);stroke-opacity:0.24705882352941178;stroke-miterlimit:10;stroke-linecap:square;" x1="283" x2="297" y1="140" y2="130"/>
  <line style="fill:none;stroke:rgb(63,63,191);stroke-opacity:0.24705882352941178;stroke-miterlimit:10;stroke-linecap:square;" x1="297" x2="312" y1="130" y2="120"/>
  <line style="fill:none;stroke:rgb(63,63,191);stroke-opacity:0.24705882352941178;stroke-miterlimit:10;stroke-linecap:square;" x1="312" x2="327" y1="120" y2="110"/>
  <line style="fill:none;stroke:rgb(63,63,191);stroke-opacity:0.24705882352941178;stroke-miterlimit:10;stroke-linecap:square;" x1="327" x2="341" y1="110" y2="100"/>
  <line style="fill:none;stroke:rgb(63,63,191);stroke-opacity:0.24705882352941178;stroke-miterlimit:10;stroke-linecap:square;" x1="341" x2="356" y1="100" y2="90"/>
  <line style="fill:none;stroke:rgb(63,63,191);stroke-opacity:0.24705882352941178;stroke-miterlimit:10;stroke-linecap:square;" x1="356" x2="370" y1="90" y2="80"/>
  <line style="fill:none;stroke:rgb(63,63,191);stroke-opacity:0.24705882352941178;stroke-miterlimit:10;stroke-linecap:square;" x1="370" x2="385" y1="80" y2="70"/>
  <line style="fill:none;stroke:rgb(63,63,191);stroke-opacity:0.24705882352941178;stroke-miterlimit:10;stroke-linecap:square;" x1="385" x2="400" y1="70" y2="60"/>
  <line style="fill:none;stroke:rgb(63,63,191);stroke-opacity:0.24705882352941178;stroke-miterlimit:10;stroke-linecap:square;" x1="400" x2="400" y1="60" y2="60"/>
  <rect height="13" style="fill:rgb(255,127,0);fill-opacity:0.7490196078431373;stroke:none;" width="4" x="48" y="286"/>
  <line style="fill:none;stroke:rgb(255,127,0);stroke-opacity:0.24705882352941178;stroke-width:2;stroke-miterlimit:10;stroke-linecap:square;" x1="50" x2="50" y1="300" y2="300"/>
  <line style="fill:none;stroke:rgb(255,127,0);stroke-opacity:0.24705882352941178;stroke-width:2;stroke-miterlimit:10;stroke-linecap:square;" x1="50" x2="50" y1="298" y2="288"/>
  <rect height="30" style="fill:rgb(255,127,0);fill-opacity:0.7490196078431373;stroke:none;" width="4" x="62" y="270"/>
  <line style="fill:none;stroke:rgb(255,127,0);stroke-opacity:0.24705882352941178;stroke-width:2;stroke-miterlimit:10;stroke-linecap:square;" x1="50" x2="64" y1="286" y2="286"/>
  <line style="fill:none;stroke:rgb(255,127,0);stroke-opacity:0.24705882352941178;stroke-width:2;stroke-miterlimit:10;stroke-linecap:square;" x1="64" x2="64" y1="284" y2="258"/>
  <rect height="26" style="fill:rgb(255,127,0);fill-opacity:0.7490196078431373;stroke:none;" width="4" x="77" y="273"/>
  <line style="fill:none;stroke:rgb(255,127,0);stroke-opacity:0.24705882352941178;stroke-width:2;stroke-miterlimit:10;stroke-linecap:square;" x1="64" x2="79" y1="256" y2="256"/>
  <line style="fill:none;stroke:rgb(255,127,0);stroke-opacity:0.24705882352941178;stroke-width:2;stroke-miterlimit:10;stroke-linecap:square;" x1="79" x2="79" y1="254" y2="232"/>
  <rect height="10" style="fill:rgb(255,127,0);fill-opacity:0.7490196078431373;stroke:none;" width="4" x="91" y="290"/>
  <line style="fill:none;stroke:rgb(255,127,0);stroke-opacity:0.24705882352941178;stroke-width:2;stroke-miterlimit:10;stroke-linecap:square;" x1="79" x2="93" y1="230" y2="230"/>
  <line style="fill:none;stroke:rgb(255,127,0);stroke-opacity:0.24705882352941178;stroke-width:2;stroke-miterlimit:10;stroke-linecap:square;" x1="93" x2="93" y1="228" y2="221"/>
  <rect height="20" style="fill:rgb(255,127,0);fill-opacity:0.7490196078431373;stroke:none;" width="4" x="106" y="280"/>
  <line style="fill:none;stroke:rgb(255,127,0);stroke-opacity:0.24705882352941178;stroke-width:2;stroke-miterlimit:10;stroke-linecap:square;" x1="93" x2="108" y1="219" y2="219"/>
  <line style="fill:none;stroke:rgb(255,127,0);stroke-opacity:0.24705882352941178;stroke-width:2;stroke-miterlimit:10;stroke-linecap:square;" x1="108" x2="108" y1="217" y2="202"/>
  <rect height="3" style="fill:rgb(255,127,0);fill-opacity:0.7490196078431373;stroke:none;" width="4" x="120" y="296"/>
  <line style="fill:none;stroke:rgb(255,127,0);stroke-opacity:0.24705882352941178;stroke-width:2;stroke-miterlimit:10;stroke-linecap:square;" x1="108" x2="122" y1="200" y2="200"/>
  <line style="fill:none;stroke:rgb(255,127,0);stroke-opacity:0.24705882352941178;stroke-width:2;stroke-miterlimit:10;stroke-linecap:square;" x1="122" x2="122" y1="198" y2="198"/>
  <rect height="3" style="fill:rgb(255,127,0);fill-opacity:0.7490196078431373;stroke:none;" width="4" x="150" y="296"/>
  <line style="fill:none;stroke:rgb(255,127,0);stroke-opacity:0.24705882352941178;stroke-width:2;stroke-miterlimit:10;stroke-linecap:square;" x1="122" x2="152" y1="196" y2="196"/>
  <line style="fill:none;stroke:rgb(255,127,0);stroke-opacity:0.24705882352941178;stroke-width:2;stroke-miterlimit:10;stroke-linecap:square;" x1="152" x2="152" y1="194" y2="195"/>
  <rect height="3" style="fill:rgb(255,127,0);fill-opacity:0.7490196078431373;stroke:none;" width="4" x="179" y="296"/>
  <line style="fill:none;stroke:rgb(255,127,0);stroke-opacity:0.24705882352941178;stroke-width:2;stroke-miterlimit:10;stroke-linecap:square;" x1="152" x2="181" y1="193" y2="193"/>
  <line style="fill:none;stroke:rgb(255,127,0);stroke-opacity:0.24705882352941178;stroke-width:2;stroke-miterlimit:10;stroke-linecap:square;" x1="181" x2="181" y1="191" y2="191"/>
  <rect height="6" style="fill:rgb(255,127,0);fill-opacity:0.7490196078431373;stroke:none;" width="4" x="208" y="293"/>
  <line style="fill:none;stroke:rgb(255,127,0);stroke-opacity:0.24705882352941178;stroke-width:2;stroke-miterlimit:10;stroke-linecap:square;" x1="181" x2="210" y1="189" y2="189"/>
  <line style="fill:none;stroke:rgb(255,127,0);stroke-opacity:0.24705882352941178;stroke-width:2;stroke-miterlimit:10;stroke-linecap:square;" x1="210" x2="210" y1="187" y2="185"/>
  <rect height="6" style="fill:rgb(255,127,0);fill-opacity:0.7490196078431373;stroke:none;" width="4" x="223" y="293"/>
  <line style="fill:none;stroke:rgb(255,127,0);stroke-opacity:0.24705882352941178;stroke-width:2;stroke-miterlimit:10;stroke-linecap:square;" x1="210" x2="225" y1="183" y2="183"/>
  <line style="fill:none;stroke:rgb(255,127,0);stroke-opacity:0.24705882352941178;stroke-width:2;stroke-miterlimit:10;stroke-linecap:square;" x1="225" x2="225" y1="181" y2="178"/>
  <rect height="10" style="fill:rgb(255,127,0);fill-opacity:0.7490196078431373;stroke:none;" width="4" x="237" y="290"/>
  <line style="fill:none;stroke:rgb(255,127,0);stroke-opacity:0.24705882352941178;stroke-width:2;stroke-miterlimit:10;stroke-linecap:square;" x1="225" x2="239" y1="176" y2="176"/>
  <line style="fill:none;stroke:rgb(255,127,0);stroke-opacity:0.24705882352941178;stroke-width:2;stroke-miterlimit:10;stroke-linecap:square;" x1="239" x2="239" y1="174" y2="168"/>
  <rect height="6" style="fill:rgb(255,127,0);fill-opacity:0.7490196078431373;stroke:none;" width="4" x="252" y="293"/>
  <line style="fill:none;stroke:rgb(255,127,0);stroke-opacity:0.24705882352941178;stroke-width:2;stroke-miterlimit:10;stroke-linecap:square;" x1="239" x2="254" y1="166" y2="166"/>
  <line style="fill:none;stroke:rgb(255,127,0);stroke-opacity:0.24705882352941178;stroke-width:2;stroke-miterlimit:10;stroke-linecap:square;" x1="254" x2="254" y1="164" y2="162"/>
  <rect height="10" style="fill:rgb(255,127,0);fill-opacity:0.7490196078431373;stroke:none;" width="4" x="266" y="290"/>
  <line style="fill:none;stroke:rgb(255,127,0);stroke-opacity:0.24705882352941178;stroke-width:2;stroke-miterlimit:10;stroke-linecap:square;" x1="254" x2="268" y1="160" y2="160"/>
  <line style="fill:none;stroke:rgb(255,127,0);stroke-opacity:0.24705882352941178;stroke-width:2;stroke-miterlimit:10;stroke-linecap:square;" x1="268" x2="268" y1="158" y2="152"/>
  <rect height="10" style="fill:rgb(255,127,0);fill-opacity:0.7490196078431373;stroke:none;" width="4" x="281" y="290"/>
  <line style="fill:none;stroke:rgb(255,127,0);stroke-opacity:0.24705882352941178;stroke-width:2;stroke-miterlimit:10;stroke-linecap:square;" x1="268" x2="283" y1="150" y2="150"/>
  <line style="fill:none;stroke:rgb(255,127,0);stroke-opacity:0.24705882352941178;stroke-width:2;stroke-miterlimit:10;stroke-linecap:square;" x1="283" x2="283" y1="148" y2="142"/>
  <rect height="6" style="fill:rgb(255,127,0);fill-opacity:0.7490196078431373;stroke:none;" width="4" x="295" y="293"/>
  <line style="fill:none;stroke:rgb(255,127,0);stroke-opacity:0.24705882352941178;stroke-width:2;stroke-miterlimit:10;stroke-linecap:square;" x1="283" x2="297" y1="140" y2="140"/>
  <line style="fill:none;stroke:rgb(255,127,0);stroke-opacity:0.24705882352941178;stroke-width:2;stroke-miterlimit:10;stroke-linecap:square;" x1="297" x2="297" y1="138" y2="135"/>
  <rect height="6" style="fill:rgb(255,127,0);fill-opacity:0.7490196078431373;stroke:none;" width="4" x="325" y="293"/>
  <line style="fill:none;stroke:rgb(255,127,0);stroke-opacity:0.24705882352941178;stroke-width:2;stroke-miterlimit:10;stroke-linecap:square;" x1="297" x2="327" y1="133" y2="133"/>
  <line style="fill:none;stroke:rgb(255,127,0);stroke-opacity:0.24705882352941178;stroke-width:2;stroke-miterlimit:10;stroke-linecap:square;" x1="327" x2="327" y1="131" y2="128"/>
  <rect height="10" style="fill:rgb(255,127,0);fill-opacity:0.7490196078431373;stroke:none;" width="4" x="339" y="290"/>
  <line style="fill:none;stroke:rgb(255,127,0);stroke-opacity:0.24705882352941178;stroke-width:2;stroke-miterlimit:10;stroke-linecap:square;" x1="327" x2="341" y1="126" y2="126"/>
  <line style="fill:none;stroke:rgb(255,127,0);stroke-opacity:0.24705882352941178;stroke-width:2;stroke-miterlimit:10;stroke-linecap:square;" x1="341" x2="341" y1="124" y2="118"/>
  <rect height="6" style="fill:rgb(255,127,0);fill-opacity:0.7490196078431373;stroke:none;" width="4" x="354" y="293"/>
  <line style="fill:none;stroke:rgb(255,127,0);stroke-opacity:0.24705882352941178;stroke-width:2;stroke-miterlimit:10;stroke-linecap:square;" x1="341" x2="356" y1="116" y2="116"/>
  <line style="fill:none;stroke:rgb(255,127,0);stroke-opacity:0.24705882352941178;stroke-width:2;stroke-miterlimit:10;stroke-linecap:square;" x1="356" x2="356" y1="114" y2="112"/>
  <rect height="13" style="fill:rgb(255,127,0);fill-opacity:0.7490196078431373;stroke:none;" width="4" x="368" y="286"/>
  <line style="fill:none;stroke:rgb(255,127,0);stroke-opacity:0.24705882352941178;stroke-width:2;stroke-miterlimit:10;stroke-linecap:square;" x1="356" x2="370" y1="110" y2="110"/>
  <line style="fill:none;stroke:rgb(255,127,0);stroke-opacity:0.24705882352941178;stroke-width:2;stroke-miterlimit:10;stroke-linecap:square;" x1="370" x2="370" y1="108" y2="98"/>
  <rect height="26" style="fill:rgb(255,127,0);fill-opacity:0.7490196078431373;stroke:none;" width="4" x="383" y="273"/>
  <line style="fill:none;stroke:rgb(255,127,0);stroke-opacity:0.24705882352941178;stroke-width:2;stroke-miterlimit:10;stroke-linecap:square;" x1="370" x2="385" y1="96" y2="96"/>
  <line style="fill:none;stroke:rgb(255,127,0);stroke-opacity:0.24705882352941178;stroke-width:2;stroke-miterlimit:10;stroke-linecap:square;" x1="385" x2="385" y1="94" y2="72"/>
  <rect height="10" style="fill:rgb(255,127,0);fill-opacity:0.7490196078431373;stroke:none;" width="4" x="398" y="290"/>
  <line style="fill:none;stroke:rgb(255,127,0);stroke-opacity:0.24705882352941178;stroke-width:2;stroke-miterlimit:10;stroke-linecap:square;" x1="385" x2="400" y1="70" y2="70"/>
  <line style="fill:none;stroke:rgb(255,127,0);stroke-opacity:0.24705882352941178;stroke-width:2;stroke-miterlimit:10;stroke-linecap:square;" x1="400" x2="400" y1="68" y2="62"/>
  <line style="fill:none;stroke:rgb(255,127,0);stroke-opacity:0.24705882352941178;stroke-width:2;stroke-miterlimit:10;stroke-linecap:square;" x1="400" x2="400" y1="60" y2="60"/>
  <line style="fill:none;stroke:rgb(255,127,0);stroke-opacity:0.4980392156862745;stroke-miterlimit:2;stroke-dasharray:2;" x1="50" x2="50" y1="300" y2="350"/>
  <line style="fill:none;stroke:rgb(255,127,0);stroke-opacity:0.4980392156862745;stroke-miterlimit:2;stroke-dasharray:2;" x1="50" x2="50" y1="300" y2="365"/>
  <line style="fill:none;stroke:rgb(255,127,0);stroke-opacity:0.4980392156862745;stroke-miterlimit:2;stroke-dasharray:2;" x1="50" x2="50" y1="300" y2="380"/>
  <line style="fill:none;stroke:rgb(255,127,0);stroke-opacity:0.4980392156862745;stroke-miterlimit:2;stroke-dasharray:2;" x1="50" x2="50" y1="300" y2="395"/>
  <line style="fill:none;stroke:rgb(255,127,0);stroke-opacity:0.4980392156862745;stroke-miterlimit:2;stroke-dasharray:2;" x1="64" x2="64" y1="300" y2="410"/>
  <line style="fill:none;stroke:rgb(255,127,0);stroke-opacity:0.4980392156862745;stroke-miterlimit:2;stroke-dasharray:2;" x1="64" x2="64" y1="300" y2="425"/>
  <line style="fill:none;stroke:rgb(255,127,0);stroke-opacity:0.4980392156862745;stroke-miterlimit:2;stroke-dasharray:2;" x1="64" x2="64" y1="300" y2="440"/>
  <line style="fill:none;stroke:rgb(255,127,0);stroke-opacity:0.4980392156862745;stroke-miterlimit:2;stroke-dasharray:2;" x1="64" x2="64" y1="300" y2="455"/>
  <line style="fill:none;stroke:rgb(255,127,0);stroke-opacity:0.4980392156862745;stroke-miterlimit:2;stroke-dasharray:2;" x1="64" x2="64" y1="300" y2="470"/>
  <line style="fill:none;stroke:rgb(255,127,0);stroke-opacity:0.4980392156862745;stroke-miterlimit:2;stroke-dasharray:2;" x1="64" x2="64" y1="300" y2="485"/>
  <line style="fill:none;stroke:rgb(255,127,0);stroke-opacity:0.4980392156862745;stroke-miterlimit:2;stroke-dasharray:2;" x1="64" x2="64" y1="300" y2="500"/>
  <line style="fill:none;stroke:rgb(255,127,0);stroke-opacity:0.4980392156862745;stroke-miterlimit:2;stroke-dasharray:2;" x1="64" x2="64" y1="300" y2="515"/>
  <line style="fill:none;stroke:rgb(255,127,0);stroke-opacity:0.4980392156862745;stroke-miterlimit:2;stroke-dasharray:2;" x1="64" x2="64" y1="300" y2="530"/>
  <line style="fill:none;stroke:rgb(255,127,0);stroke-opacity:0.4980392156862745;stroke-miterlimit:2;stroke-dasharray:2;" x1="79" x2="79" y1="300" y2="545"/>
  <line style="fill:none;stroke:rgb(255,127,0);stroke-opacity:0.4980392156862745;stroke-miterlimit:2;stroke-dasharray:2;" x1="79" x2="79" y1="300" y2="560"/>
  <line style="fill:none;stroke:rgb(255,127,0);stroke-opacity:0.4980392156862745;stroke-miterlimit:2;stroke-dasharray:2;" x1="79" x2="79" y1="300" y2="575"/>
  <line style="fill:none;stroke:rgb(255,127,0);stroke-opacity:0.4980392156862745;stroke-miterlimit:2;stroke-dasharray:2;" x1="79" x2="79" y1="300" y2="590"/>
  <line style="fill:none;stroke:rgb(255,127,0);stroke-opacity:0.4980392156862745;stroke-miterlimit:2;stroke-dasharray:2;" x1="79" x2="79" y1="300" y2="605"/>
  <line style="fill:none;stroke:rgb(255,127,0);stroke-opacity:0.4980392156862745;stroke-miterlimit:2;stroke-dasharray:2;" x1="79" x2="79" y1="300" y2="620"/>
  <line style="fill:none;stroke:rgb(255,127,0);stroke-opacity:0.4980392156862745;stroke-miterlimit:2;stroke-dasharray:2;" x1="79" x2="79" y1="300" y2="635"/>
  <line style="fill:none;stroke:rgb(255,127,0);stroke-opacity:0.4980392156862745;stroke-miterlimit:2;stroke-dasharray:2;" x1="79" x2="79" y1="300" y2="650"/>
  <line style="fill:none;stroke:rgb(255,127,0);stroke-opacity:0.4980392156862745;stroke-miterlimit:2;stroke-dasharray:2;" x1="93" x2="93" y1="300" y2="665"/>
  <line style="fill:none;stroke:rgb(255,127,0);stroke-opacity:0.4980392156862745;stroke-miterlimit:2;stroke-dasharray:2;" x1="93" x2="93" y1="300" y2="680"/>
  <line style="fill:none;stroke:rgb(255,127,0);stroke-opacity:0.4980392156862745;stroke-miterlimit:2;stroke-dasharray:2;" x1="93" x2="93" y1="300" y2="695"/>
  <line style="fill:none;stroke:rgb(255,127,0);stroke-opacity:0.4980392156862745;stroke-miterlimit:2;stroke-dasharray:2;" x1="108" x2="108" y1="300" y2="710"/>
  <line style="fill:none;stroke:rgb(255,127,0);stroke-opacity:0.4980392156862745;stroke-miterlimit:2;stroke-dasharray:2;" x1="108" x2="108" y1="300" y2="725"/>
  <line style="fill:none;stroke:rgb(255,127,0);stroke-opacity:0.4980392156862745;stroke-miterlimit:2;stroke-dasharray:2;" x1="108" x2="108" y1="300" y2="740"/>
  <line style="fill:none;stroke:rgb(255,127,0);stroke-opacity:0.4980392156862745;stroke-miterlimit:2;stroke-dasharray:2;" x1="108" x2="108" y1="300" y2="755"/>
  <line style="fill:none;stroke:rgb(255,127,0);stroke-opacity:0.4980392156862745;stroke-miterlimit:2;stroke-dasharray:2;" x1="108" x2="108" y1="300" y2="770"/>
  <line style="fill:none;stroke:rgb(255,127,0);stroke-opacity:0.4980392156862745;stroke-miterlimit:2;stroke-dasharray:2;" x1="108" x2="108" y1="300" y2="785"/>
  <line style="fill:none;stroke:rgb(255,127,0);stroke-opacity:0.4980392156862745;stroke-miterlimit:2;stroke-dasharray:2;" x1="122" x2="122" y1="300" y2="798"/>
  <line style="fill:none;stroke:rgb(255,127,0);stroke-opacity:0.4980392156862745;stroke-miterlimit:2;stroke-dasharray:2;" x1="152" x2="152" y1="300" y2="811"/>
  <line style="fill:none;stroke:rgb(255,127,0);stroke-opacity:0.4980392156862745;stroke-miterlimit:2;stroke-dasharray:2;" x1="181" x2="181" y1="300" y2="824"/>
  <line style="fill:none;stroke:rgb(255,127,0);stroke-opacity:0.4980392156862745;stroke-miterlimit:2;stroke-dasharray:2;" x1="210" x2="210" y1="300" y2="837"/>
  <line style="fill:none;stroke:rgb(255,127,0);stroke-opacity:0.4980392156862745;stroke-miterlimit:2;stroke-dasharray:2;" x1="210" x2="210" y1="300" y2="850"/>
  <line style="fill:none;stroke:rgb(255,127,0);stroke-opacity:0.4980392156862745;stroke-miterlimit:2;stroke-dasharray:2;" x1="225" x2="225" y1="300" y2="863"/>
  <line style="fill:none;stroke:rgb(255,127,0);stroke-opacity:0.4980392156862745;stroke-miterlimit:2;stroke-dasharray:2;" x1="225" x2="225" y1="300" y2="876"/>
  <line style="fill:none;stroke:rgb(255,127,0);stroke-opacity:0.4980392156862745;stroke-miterlimit:2;stroke-dasharray:2;" x1="239" x2="239" y1="300" y2="889"/>
  <line style="fill:none;stroke:rgb(255,127,0);stroke-opacity:0.4980392156862745;stroke-miterlimit:2;stroke-dasharray:2;" x1="239" x2="239" y1="300" y2="902"/>
  <line style="fill:none;stroke:rgb(255,127,0);stroke-opacity:0.4980392156862745;stroke-miterlimit:2;stroke-dasharray:2;" x1="239" x2="239" y1="300" y2="915"/>
  <line style="fill:none;stroke:rgb(255,127,0);stroke-opacity:0.4980392156862745;stroke-miterlimit:2;stroke-dasharray:2;" x1="254" x2="254" y1="300" y2="928"/>
  <line style="fill:none;stroke:rgb(255,127,0);stroke-opacity:0.4980392156862745;stroke-miterlimit:2;stroke-dasharray:2;" x1="254" x2="254" y1="300" y2="941"/>
  <line style="fill:none;stroke:rgb(255,127,0);stroke-opacity:0.4980392156862745;stroke-miterlimit:2;stroke-dasharray:2;" x1="268" x2="268" y1="300" y2="954"/>
  <line style="fill:none;stroke:rgb(255,127,0);stroke-opacity:0.4980392156862745;stroke-miterlimit:2;stroke-dasharray:2;" x1="268" x2="268" y1="300" y2="967"/>
  <line style="fill:none;stroke:rgb(255,127,0);stroke-opacity:0.4980392156862745;stroke-miterlimit:2;stroke-dasharray:2;" x1="268" x2="268" y1="300" y2="980"/>
  <line style="fill:none;stroke:rgb(255,127,0);stroke-opacity:0.4980392156862745;stroke-miterlimit:2;stroke-dasharray:2;" x1="283" x2="283" y1="300" y2="993"/>
  <line style="fill:none;stroke:rgb(255,127,0);stroke-opacity:0.4980392156862745;stroke-miterlimit:2;stroke-dasharray:2;" x1="283" x2="283" y1="300" y2="1006"/>
  <line style="fill:none;stroke:rgb(255,127,0);stroke-opacity:0.4980392156862745;stroke-miterlimit:2;stroke-dasharray:2;" x1="283" x2="283" y1="300" y2="1019"/>
  <line style="fill:none;stroke:rgb(255,127,0);stroke-opacity:0.4980392156862745;stroke-miterlimit:2;stroke-dasharray:2;" x1="297" x2="297" y1="300" y2="1032"/>
  <line style="fill:none;stroke:rgb(255,127,0);stroke-opacity:0.4980392156862745;stroke-miterlimit:2;stroke-dasharray:2;" x1="297" x2="297" y1="300" y2="1045"/>
  <line style="fill:none;stroke:rgb(255,127,0);stroke-opacity:0.4980392156862745;stroke-miterlimit:2;stroke-dasharray:2;" x1="327" x2="327" y1="300" y2="1058"/>
  <line style="fill:none;stroke:rgb(255,127,0);stroke-opacity:0.4980392156862745;stroke-miterlimit:2;stroke-dasharray:2;" x1="327" x2="327" y1="300" y2="1071"/>
  <line style="fill:none;stroke:rgb(255,127,0);stroke-opacity:0.4980392156862745;stroke-miterlimit:2;stroke-dasharray:2;" x1="341" x2="341" y1="300" y2="1084"/>
  <line style="fill:none;stroke:rgb(255,127,0);stroke-opacity:0.4980392156862745;stroke-miterlimit:2;stroke-dasharray:2;" x1="341" x2="341" y1="300" y2="1097"/>
  <line style="fill:none;stroke:rgb(255,127,0);stroke-opacity:0.4980392156862745;stroke-miterlimit:2;stroke-dasharray:2;" x1="341" x2="341" y1="300" y2="1110"/>
  <line style="fill:none;stroke:rgb(255,127,0);stroke-opacity:0.4980392156862745;stroke-miterlimit:2;stroke-dasharray:2;" x1="356" x2="356" y1="300" y2="1123"/>
  <line style="fill:none;stroke:rgb(255,127,0);stroke-opacity:0.4980392156862745;stroke-miterlimit:2;stroke-dasharray:2;" x1="356" x2="356" y1="300" y2="1136"/>
  <line style="fill:none;stroke:rgb(255,127,0);stroke-opacity:0.4980392156862745;stroke-miterlimit:2;stroke-dasharray:2;" x1="370" x2="370" y1="300" y2="1151"/>
  <line style="fill:none;stroke:rgb(255,127,0);stroke-opacity:0.4980392156862745;stroke-miterlimit:2;stroke-dasharray:2;" x1="370" x2="370" y1="300" y2="1166"/>
  <line style="fill:none;stroke:rgb(255,127,0);stroke-opacity:0.4980392156862745;stroke-miterlimit:2;stroke-dasharray:2;" x1="370" x2="370" y1="300" y2="1181"/>
  <line style="fill:none;stroke:rgb(255,127,0);stroke-opacity:0.4980392156862745;stroke-miterlimit:2;stroke-dasharray:2;" x1="370" x2="370" y1="300" y2="1196"/>
  <line style="fill:none;stroke:rgb(255,127,0);stroke-opacity:0.4980392156862745;stroke-miterlimit:2;stroke-dasharray:2;" x1="385" x2="385" y1="300" y2="1211"/>
  <line style="fill:none;stroke:rgb(255,127,0);stroke-opacity:0.4980392156862745;stroke-miterlimit:2;stroke-dasharray:2;" x1="385" x2="385" y1="300" y2="1226"/>
  <line style="fill:none;stroke:rgb(255,127,0);stroke-opacity:0.4980392156862745;stroke-miterlimit:2;stroke-dasharray:2;" x1="385" x2="385" y1="300" y2="1241"/>
  <line style="fill:none;stroke:rgb(255,127,0);stroke-opacity:0.4980392156862745;stroke-miterlimit:2;stroke-dasharray:2;" x1="385" x2="385" y1="300" y2="1256"/>
  <line style="fill:none;stroke:rgb(255,127,0);stroke-opacity:0.4980392156862745;stroke-miterlimit:2;stroke-dasharray:2;" x1="385" x2="385" y1="300" y2="1271"/>
  <line style="fill:none;stroke:rgb(255,127,0);stroke-opacity:0.4980392156862745;stroke-miterlimit:2;stroke-dasharray:2;" x1="385" x2="385" y1="300" y2="1286"/>
  <line style="fill:none;stroke:rgb(255,127,0);stroke-opacity:0.4980392156862745;stroke-miterlimit:2;stroke-dasharray:2;" x1="385" x2="385" y1="300" y2="1301"/>
  <line style="fill:none;stroke:rgb(255,127,0);stroke-opacity:0.4980392156862745;stroke-miterlimit:2;stroke-dasharray:2;" x1="385" x2="385" y1="300" y2="1316"/>
  <line style="fill:none;stroke:rgb(255,127,0);stroke-opacity:0.4980392156862745;stroke-miterlimit:2;stroke-dasharray:2;" x1="400" x2="400" y1="300" y2="1331"/>
  <line style="fill:none;stroke:rgb(255,127,0);stroke-opacity:0.4980392156862745;stroke-miterlimit:2;stroke-dasharray:2;" x1="400" x2="400" y1="300" y2="1346"/>
  <line style="fill:none;stroke:rgb(255,127,0);stroke-opacity:0.4980392156862745;stroke-miterlimit:2;stroke-dasharray:2;" x1="400" x2="400" y1="300" y2="1361"/>
  <line style="fill:none;stroke:rgb(0,0,0);stroke-width:2;stroke-miterlimit:10;stroke-linecap:square;" x1="48" x2="48" y1="60" y2="300"/>
  <line style="fill:none;stroke:rgb(0,0,0);stroke-width:2;stroke-miterlimit:10;stroke-linecap:square;" x1="48" x2="402" y1="300" y2="300"/>
  <rect height="30" style="fill:rgb(255,255,255);stroke:none;" width="17" x="42" y="308"/>
  <text style="fill:rgb(0,0,0);stroke:none;font-size:25px;font-weight:bold;" x="42" y="332">0</text>
  <rect height="30" style="fill:rgb(255,255,255);stroke:none;" width="34" x="383" y="308"/>
  <text style="fill:rgb(0,0,0);stroke:none;font-size:25px;font-weight:bold;" x="383" y="332">24</text>
  <text style="fill:rgb(0,0,0);stroke:none;font-size:25px;font-weight:bold;" x="25" y="312">0</text>
  <text style="fill:rgb(0,0,0);stroke:none;font-size:25px;font-weight:bold;" x="25" y="72">1</text>
  <text style="fill:rgb(0,0,0);stroke:none;font-size:18px;font-weight:bold;" x="3" y="38">GRAESSMANN_APOPTOSIS_BY_DOXORUBICIN_UP</text>
  <rect height="12" style="fill:rgb(255,255,255);stroke:none;" width="35" x="50" y="338"/>
  <text style="fill:rgb(128,128,128);stroke:none;" x="50" y="350">GCDH</text>
  <rect height="12" style="fill:rgb(255,255,255);stroke:none;" width="31" x="50" y="353"/>
  <text style="fill:rgb(128,128,128);stroke:none;" x="50" y="365">NFYB</text>
  <rect height="12" style="fill:rgb(255,255,255);stroke:none;" width="49" x="50" y="368"/>
  <text style="fill:rgb(128,128,128);stroke:none;" x="50" y="380">SAC3D1</text>
  <rect height="12" style="fill:rgb(255,255,255);stroke:none;" width="51" x="50" y="383"/>
  <text style="fill:rgb(128,128,128);stroke:none;" x="50" y="395">NMNAT1</text>
  <rect height="12" style="fill:rgb(255,255,255);stroke:none;" width="26" x="64" y="398"/>
  <text style="fill:rgb(128,128,128);stroke:none;" x="64" y="410">JPT1</text>
  <rect height="12" style="fill:rgb(255,255,255);stroke:none;" width="34" x="64" y="413"/>
  <text style="fill:rgb(128,128,128);stroke:none;" x="64" y="425">RBM4</text>
  <rect height="12" style="fill:rgb(255,255,255);stroke:none;" width="26" x="64" y="428"/>
  <text style="fill:rgb(128,128,128);stroke:none;" x="64" y="440">IRF7</text>
  <rect height="12" style="fill:rgb(255,255,255);stroke:none;" width="30" x="64" y="443"/>
  <text style="fill:rgb(128,128,128);stroke:none;" x="64" y="455">IFIH1</text>
  <rect height="12" style="fill:rgb(255,255,255);stroke:none;" width="39" x="64" y="458"/>
  <text style="fill:rgb(128,128,128);stroke:none;" x="64" y="470">ZMIZ2</text>
  <rect height="12" style="fill:rgb(255,255,255);stroke:none;" width="41" x="64" y="473"/>
  <text style="fill:rgb(128,128,128);stroke:none;" x="64" y="485">NABP1</text>
  <rect height="12" style="fill:rgb(255,255,255);stroke:none;" width="48" x="64" y="488"/>
  <text style="fill:rgb(128,128,128);stroke:none;" x="64" y="500">STARD5</text>
  <rect height="12" style="fill:rgb(255,255,255);stroke:none;" width="45" x="64" y="503"/>
  <text style="fill:rgb(128,128,128);stroke:none;" x="64" y="515">DNAJA1</text>
  <rect height="12" style="fill:rgb(255,255,255);stroke:none;" width="53" x="64" y="518"/>
  <text style="fill:rgb(128,128,128);stroke:none;" x="64" y="530">PSMC3IP</text>
  <rect height="12" style="fill:rgb(255,255,255);stroke:none;" width="31" x="79" y="533"/>
  <text style="fill:rgb(128,128,128);stroke:none;" x="79" y="545">PEX6</text>
  <rect height="12" style="fill:rgb(255,255,255);stroke:none;" width="27" x="79" y="548"/>
  <text style="fill:rgb(128,128,128);stroke:none;" x="79" y="560">PIGF</text>
  <rect height="12" style="fill:rgb(255,255,255);stroke:none;" width="36" x="79" y="563"/>
  <text style="fill:rgb(128,128,128);stroke:none;" x="79" y="575">TRIM5</text>
  <rect height="12" style="fill:rgb(255,255,255);stroke:none;" width="42" x="79" y="578"/>
  <text style="fill:rgb(128,128,128);stroke:none;" x="79" y="590">NMRK1</text>
  <rect height="12" style="fill:rgb(255,255,255);stroke:none;" width="40" x="79" y="593"/>
  <text style="fill:rgb(128,128,128);stroke:none;" x="79" y="605">CYHR1</text>
  <rect height="12" style="fill:rgb(255,255,255);stroke:none;" width="40" x="79" y="608"/>
  <text style="fill:rgb(128,128,128);stroke:none;" x="79" y="620">GKAP1</text>
  <rect height="12" style="fill:rgb(255,255,255);stroke:none;" width="48" x="79" y="623"/>
  <text style="fill:rgb(128,128,128);stroke:none;" x="79" y="635">ANGEL1</text>
  <rect height="12" style="fill:rgb(255,255,255);stroke:none;" width="54" x="79" y="638"/>
  <text style="fill:rgb(128,128,128);stroke:none;" x="79" y="650">SLC27A1</text>
  <rect height="12" style="fill:rgb(255,255,255);stroke:none;" width="24" x="93" y="653"/>
  <text style="fill:rgb(128,128,128);stroke:none;" x="93" y="665">SPR</text>
  <rect height="12" style="fill:rgb(255,255,255);stroke:none;" width="32" x="93" y="668"/>
  <text style="fill:rgb(128,128,128);stroke:none;" x="93" y="680">PDK4</text>
  <rect height="12" style="fill:rgb(255,255,255);stroke:none;" width="56" x="93" y="683"/>
  <text style="fill:rgb(128,128,128);stroke:none;" x="93" y="695">ALDH4A1</text>
  <rect height="12" style="fill:rgb(255,255,255);stroke:none;" width="36" x="108" y="698"/>
  <text style="fill:rgb(128,128,128);stroke:none;" x="108" y="710">DESI1</text>
  <rect height="12" style="fill:rgb(255,255,255);stroke:none;" width="41" x="108" y="713"/>
  <text style="fill:rgb(128,128,128);stroke:none;" x="108" y="725">USP18</text>
  <rect height="12" style="fill:rgb(255,255,255);stroke:none;" width="39" x="108" y="728"/>
  <text style="fill:rgb(128,128,128);stroke:none;" x="108" y="740">NPTX1</text>
  <rect height="12" style="fill:rgb(255,255,255);stroke:none;" width="41" x="108" y="743"/>
  <text style="fill:rgb(128,128,128);stroke:none;" x="108" y="755">CD207</text>
  <rect height="12" style="fill:rgb(255,255,255);stroke:none;" width="45" x="108" y="758"/>
  <text style="fill:rgb(128,128,128);stroke:none;" x="108" y="770">PHYKPL</text>
  <rect height="12" style="fill:rgb(255,255,255);stroke:none;" width="48" x="108" y="773"/>
  <text style="fill:rgb(128,128,128);stroke:none;" x="108" y="785">TBC1D1</text>
  <rect height="10" style="fill:rgb(255,255,255);stroke:none;" width="53" x="122" y="788"/>
  <text style="fill:rgb(128,128,128);stroke:none;font-size:10px;" x="122" y="798">SLC9A3R2</text>
  <rect height="10" style="fill:rgb(255,255,255);stroke:none;" width="37" x="152" y="801"/>
  <text style="fill:rgb(128,128,128);stroke:none;font-size:10px;" x="152" y="811">CITED4</text>
  <rect height="10" style="fill:rgb(255,255,255);stroke:none;" width="44" x="181" y="814"/>
  <text style="fill:rgb(128,128,128);stroke:none;font-size:10px;" x="181" y="824">TFCP2L1</text>
  <rect height="10" style="fill:rgb(255,255,255);stroke:none;" width="36" x="210" y="827"/>
  <text style="fill:rgb(128,128,128);stroke:none;font-size:10px;" x="210" y="837">CABYR</text>
  <rect height="10" style="fill:rgb(255,255,255);stroke:none;" width="48" x="210" y="840"/>
  <text style="fill:rgb(128,128,128);stroke:none;font-size:10px;" x="210" y="850">HSD11B2</text>
  <rect height="10" style="fill:rgb(255,255,255);stroke:none;" width="29" x="225" y="853"/>
  <text style="fill:rgb(128,128,128);stroke:none;font-size:10px;" x="225" y="863">MXD3</text>
  <rect height="10" style="fill:rgb(255,255,255);stroke:none;" width="34" x="225" y="866"/>
  <text style="fill:rgb(128,128,128);stroke:none;font-size:10px;" x="225" y="876">SMIM3</text>
  <rect height="10" style="fill:rgb(255,255,255);stroke:none;" width="41" x="239" y="879"/>
  <text style="fill:rgb(128,128,128);stroke:none;font-size:10px;" x="239" y="889">UBE2E1</text>
  <rect height="10" style="fill:rgb(255,255,255);stroke:none;" width="48" x="239" y="892"/>
  <text style="fill:rgb(128,128,128);stroke:none;font-size:10px;" x="239" y="902">ZFAND2A</text>
  <rect height="10" style="fill:rgb(255,255,255);stroke:none;" width="52" x="239" y="905"/>
  <text style="fill:rgb(128,128,128);stroke:none;font-size:10px;" x="239" y="915">SERPINE2</text>
  <rect height="10" style="fill:rgb(255,255,255);stroke:none;" width="33" x="254" y="918"/>
  <text style="fill:rgb(128,128,128);stroke:none;font-size:10px;" x="254" y="928">RAB43</text>
  <rect height="10" style="fill:rgb(255,255,255);stroke:none;" width="33" x="254" y="931"/>
  <text style="fill:rgb(128,128,128);stroke:none;font-size:10px;" x="254" y="941">MTFR2</text>
  <rect height="10" style="fill:rgb(255,255,255);stroke:none;" width="33" x="268" y="944"/>
  <text style="fill:rgb(128,128,128);stroke:none;font-size:10px;" x="268" y="954">GTSE1</text>
  <rect height="10" style="fill:rgb(255,255,255);stroke:none;" width="42" x="268" y="957"/>
  <text style="fill:rgb(128,128,128);stroke:none;font-size:10px;" x="268" y="967">PSTPIP2</text>
  <rect height="10" style="fill:rgb(255,255,255);stroke:none;" width="46" x="268" y="970"/>
  <text style="fill:rgb(128,128,128);stroke:none;font-size:10px;" x="268" y="980">DNAJC18</text>
  <rect height="10" style="fill:rgb(255,255,255);stroke:none;" width="28" x="283" y="983"/>
  <text style="fill:rgb(128,128,128);stroke:none;font-size:10px;" x="283" y="993">UPP1</text>
  <rect height="10" style="fill:rgb(255,255,255);stroke:none;" width="29" x="283" y="996"/>
  <text style="fill:rgb(128,128,128);stroke:none;font-size:10px;" x="283" y="1006">VASN</text>
  <rect height="10" style="fill:rgb(255,255,255);stroke:none;" width="33" x="283" y="1009"/>
  <text style="fill:rgb(128,128,128);stroke:none;font-size:10px;" x="283" y="1019">SAP30</text>
  <rect height="10" style="fill:rgb(255,255,255);stroke:none;" width="33" x="297" y="1022"/>
  <text style="fill:rgb(128,128,128);stroke:none;font-size:10px;" x="297" y="1032">ARNTL</text>
  <rect height="10" style="fill:rgb(255,255,255);stroke:none;" width="40" x="297" y="1035"/>
  <text style="fill:rgb(128,128,128);stroke:none;font-size:10px;" x="297" y="1045">SLC6A8</text>
  <rect height="10" style="fill:rgb(255,255,255);stroke:none;" width="22" x="327" y="1048"/>
  <text style="fill:rgb(128,128,128);stroke:none;font-size:10px;" x="327" y="1058">IL4R</text>
  <rect height="10" style="fill:rgb(255,255,255);stroke:none;" width="34" x="327" y="1061"/>
  <text style="fill:rgb(128,128,128);stroke:none;font-size:10px;" x="327" y="1071">RGS16</text>
  <rect height="10" style="fill:rgb(255,255,255);stroke:none;" width="26" x="341" y="1074"/>
  <text style="fill:rgb(128,128,128);stroke:none;font-size:10px;" x="341" y="1084">JUNB</text>
  <rect height="10" style="fill:rgb(255,255,255);stroke:none;" width="38" x="341" y="1087"/>
  <text style="fill:rgb(128,128,128);stroke:none;font-size:10px;" x="341" y="1097">NFKBIE</text>
  <rect height="10" style="fill:rgb(255,255,255);stroke:none;" width="49" x="341" y="1100"/>
  <text style="fill:rgb(128,128,128);stroke:none;font-size:10px;" x="341" y="1110">ADAMTS4</text>
  <rect height="10" style="fill:rgb(255,255,255);stroke:none;" width="27" x="356" y="1113"/>
  <text style="fill:rgb(128,128,128);stroke:none;font-size:10px;" x="356" y="1123">RXRB</text>
  <rect height="10" style="fill:rgb(255,255,255);stroke:none;" width="37" x="356" y="1126"/>
  <text style="fill:rgb(128,128,128);stroke:none;font-size:10px;" x="356" y="1136">DRAM1</text>
  <rect height="12" style="fill:rgb(255,255,255);stroke:none;" width="30" x="370" y="1139"/>
  <text style="fill:rgb(128,128,128);stroke:none;" x="370" y="1151">CCL2</text>
  <rect height="12" style="fill:rgb(255,255,255);stroke:none;" width="42" x="370" y="1154"/>
  <text style="fill:rgb(128,128,128);stroke:none;" x="370" y="1166">PDRG1</text>
  <rect height="12" style="fill:rgb(255,255,255);stroke:none;" width="40" x="370" y="1169"/>
  <text style="fill:rgb(128,128,128);stroke:none;" x="370" y="1181">PKDCC</text>
  <rect height="12" style="fill:rgb(255,255,255);stroke:none;" width="42" x="370" y="1184"/>
  <text style="fill:rgb(128,128,128);stroke:none;" x="370" y="1196">DDIT4L</text>
  <rect height="12" style="fill:rgb(255,255,255);stroke:none;" width="31" x="385" y="1199"/>
  <text style="fill:rgb(128,128,128);stroke:none;" x="385" y="1211">RTP4</text>
  <rect height="12" style="fill:rgb(255,255,255);stroke:none;" width="31" x="385" y="1214"/>
  <text style="fill:rgb(128,128,128);stroke:none;" x="385" y="1226">OASL</text>
  <rect height="12" style="fill:rgb(255,255,255);stroke:none;" width="30" x="385" y="1229"/>
  <text style="fill:rgb(128,128,128);stroke:none;" x="385" y="1241">FLCN</text>
  <rect height="12" style="fill:rgb(255,255,255);stroke:none;" width="30" x="385" y="1244"/>
  <text style="fill:rgb(128,128,128);stroke:none;" x="385" y="1256">ATF3</text>
  <rect height="12" style="fill:rgb(255,255,255);stroke:none;" width="42" x="385" y="1259"/>
  <text style="fill:rgb(128,128,128);stroke:none;" x="385" y="1271">ARMC7</text>
  <rect height="12" style="fill:rgb(255,255,255);stroke:none;" width="40" x="385" y="1274"/>
  <text style="fill:rgb(128,128,128);stroke:none;" x="385" y="1286">UBE2T</text>
  <rect height="12" style="fill:rgb(255,255,255);stroke:none;" width="54" x="385" y="1289"/>
  <text style="fill:rgb(128,128,128);stroke:none;" x="385" y="1301">ST3GAL2</text>
  <rect height="12" style="fill:rgb(255,255,255);stroke:none;" width="61" x="385" y="1304"/>
  <text style="fill:rgb(128,128,128);stroke:none;" x="385" y="1316">EPM2AIP1</text>
  <rect height="12" style="fill:rgb(255,255,255);stroke:none;" width="33" x="400" y="1319"/>
  <text style="fill:rgb(128,128,128);stroke:none;" x="400" y="1331">EGR1</text>
  <rect height="12" style="fill:rgb(255,255,255);stroke:none;" width="43" x="400" y="1334"/>
  <text style="fill:rgb(128,128,128);stroke:none;" x="400" y="1346">AMPD2</text>
  <rect height="12" style="fill:rgb(255,255,255);stroke:none;" width="42" x="400" y="1349"/>
  <text style="fill:rgb(128,128,128);stroke:none;" x="400" y="1361">LRWD1</text>
</svg>
