<?xml version="1.0" encoding="UTF-8" standalone="no"?>
<!DOCTYPE svg PUBLIC "-//W3C//DTD SVG 1.1//EN" "http://www.w3.org/Graphics/SVG/1.1/DTD/svg11.dtd">
<svg xmlns:xlink="http://www.w3.org/1999/xlink" height="158.74999999999997mm" version="1.1" viewBox="0 0 500 600" width="132.29166666666666mm" x="0mm" y="0mm" xmlns="http://www.w3.org/2000/svg">
  <rect height="1200" style="fill:rgb(255,255,255);stroke:none;" width="1000" x="0" y="0"/>
  <rect height="240" style="fill:rgb(191,191,191);fill-opacity:0.4980392156862745;stroke:none;" width="175" x="225" y="60"/>
  <rect height="5" style="fill:rgb(63,63,191);fill-opacity:0.7490196078431373;stroke:none;" width="2" x="49" y="294"/>
  <line style="fill:none;stroke:rgb(63,63,191);stroke-opacity:0.24705882352941178;stroke-miterlimit:10;stroke-linecap:square;" x1="50" x2="50" y1="300" y2="300"/>
  <line style="fill:none;stroke:rgb(63,63,191);stroke-opacity:0.24705882352941178;stroke-miterlimit:10;stroke-linecap:square;" x1="50" x2="50" y1="299" y2="295"/>
  <rect height="14" style="fill:rgb(63,63,191);fill-opacity:0.7490196078431373;stroke:none;" width="2" x="63" y="285"/>
  <line style="fill:none;stroke:rgb(63,63,191);stroke-opacity:0.24705882352941178;stroke-miterlimit:10;stroke-linecap:square;" x1="50" x2="64" y1="294" y2="294"/>
  <line style="fill:none;stroke:rgb(63,63,191);stroke-opacity:0.24705882352941178;stroke-miterlimit:10;stroke-linecap:square;" x1="64" x2="64" y1="293" y2="280"/>
  <rect height="12" style="fill:rgb(63,63,191);fill-opacity:0.7490196078431373;stroke:none;" width="2" x="78" y="287"/>
  <line style="fill:none;stroke:rgb(63,63,191);stroke-opacity:0.24705882352941178;stroke-miterlimit:10;stroke-linecap:square;" x1="64" x2="79" y1="279" y2="279"/>
  <line style="fill:none;stroke:rgb(63,63,191);stroke-opacity:0.24705882352941178;stroke-miterlimit:10;stroke-linecap:square;" x1="79" x2="79" y1="278" y2="268"/>
  <rect height="10" style="fill:rgb(63,63,191);fill-opacity:0.7490196078431373;stroke:none;" width="2" x="92" y="289"/>
  <line style="fill:none;stroke:rgb(63,63,191);stroke-opacity:0.24705882352941178;stroke-miterlimit:10;stroke-linecap:square;" x1="79" x2="93" y1="267" y2="267"/>
  <line style="fill:none;stroke:rgb(63,63,191);stroke-opacity:0.24705882352941178;stroke-miterlimit:10;stroke-linecap:square;" x1="93" x2="93" y1="266" y2="258"/>
  <rect height="7" style="fill:rgb(63,63,191);fill-opacity:0.7490196078431373;stroke:none;" width="2" x="107" y="292"/>
  <line style="fill:none;stroke:rgb(63,63,191);stroke-opacity:0.24705882352941178;stroke-miterlimit:10;stroke-linecap:square;" x1="93" x2="108" y1="257" y2="257"/>
  <line style="fill:none;stroke:rgb(63,63,191);stroke-opacity:0.24705882352941178;stroke-miterlimit:10;stroke-linecap:square;" x1="108" x2="108" y1="256" y2="250"/>
  <rect height="5" style="fill:rgb(63,63,191);fill-opacity:0.7490196078431373;stroke:none;" width="2" x="121" y="294"/>
  <line style="fill:none;stroke:rgb(63,63,191);stroke-opacity:0.24705882352941178;stroke-miterlimit:10;stroke-linecap:square;" x1="108" x2="122" y1="249" y2="249"/>
  <line style="fill:none;stroke:rgb(63,63,191);stroke-opacity:0.24705882352941178;stroke-miterlimit:10;stroke-linecap:square;" x1="122" x2="122" y1="248" y2="245"/>
  <rect height="4" style="fill:rgb(63,63,191);fill-opacity:0.7490196078431373;stroke:none;" width="2" x="136" y="295"/>
  <line style="fill:none;stroke:rgb(63,63,191);stroke-opacity:0.24705882352941178;stroke-miterlimit:10;stroke-linecap:square;" x1="122" x2="137" y1="244" y2="244"/>
  <line style="fill:none;stroke:rgb(63,63,191);stroke-opacity:0.24705882352941178;stroke-miterlimit:10;stroke-linecap:square;" x1="137" x2="137" y1="243" y2="241"/>
  <rect height="2" style="fill:rgb(63,63,191);fill-opacity:0.7490196078431373;stroke:none;" width="2" x="151" y="297"/>
  <line style="fill:none;stroke:rgb(63,63,191);stroke-opacity:0.24705882352941178;stroke-miterlimit:10;stroke-linecap:square;" x1="137" x2="152" y1="240" y2="240"/>
  <line style="fill:none;stroke:rgb(63,63,191);stroke-opacity:0.24705882352941178;stroke-miterlimit:10;stroke-linecap:square;" x1="152" x2="152" y1="239" y2="238"/>
  <rect height="2" style="fill:rgb(63,63,191);fill-opacity:0.7490196078431373;stroke:none;" width="2" x="165" y="297"/>
  <line style="fill:none;stroke:rgb(63,63,191);stroke-opacity:0.24705882352941178;stroke-miterlimit:10;stroke-linecap:square;" x1="152" x2="166" y1="237" y2="237"/>
  <line style="fill:none;stroke:rgb(63,63,191);stroke-opacity:0.24705882352941178;stroke-miterlimit:10;stroke-linecap:square;" x1="166" x2="166" y1="236" y2="235"/>
  <rect height="4" style="fill:rgb(63,63,191);fill-opacity:0.7490196078431373;stroke:none;" width="2" x="180" y="295"/>
  <line style="fill:none;stroke:rgb(63,63,191);stroke-opacity:0.24705882352941178;stroke-miterlimit:10;stroke-linecap:square;" x1="166" x2="181" y1="234" y2="234"/>
  <line style="fill:none;stroke:rgb(63,63,191);stroke-opacity:0.24705882352941178;stroke-miterlimit:10;stroke-linecap:square;" x1="181" x2="181" y1="233" y2="231"/>
  <rect height="8" style="fill:rgb(63,63,191);fill-opacity:0.7490196078431373;stroke:none;" width="2" x="194" y="291"/>
  <line style="fill:none;stroke:rgb(63,63,191);stroke-opacity:0.24705882352941178;stroke-miterlimit:10;stroke-linecap:square;" x1="181" x2="195" y1="230" y2="230"/>
  <line style="fill:none;stroke:rgb(63,63,191);stroke-opacity:0.24705882352941178;stroke-miterlimit:10;stroke-linecap:square;" x1="195" x2="195" y1="229" y2="222"/>
  <rect height="17" style="fill:rgb(63,63,191);fill-opacity:0.7490196078431373;stroke:none;" width="2" x="209" y="282"/>
  <line style="fill:none;stroke:rgb(63,63,191);stroke-opacity:0.24705882352941178;stroke-miterlimit:10;stroke-linecap:square;" x1="195" x2="210" y1="221" y2="221"/>
  <line style="fill:none;stroke:rgb(63,63,191);stroke-opacity:0.24705882352941178;stroke-miterlimit:10;stroke-linecap:square;" x1="210" x2="210" y1="220" y2="204"/>
  <rect height="26" style="fill:rgb(63,63,191);fill-opacity:0.7490196078431373;stroke:none;" width="2" x="224" y="273"/>
  <line style="fill:none;stroke:rgb(63,63,191);stroke-opacity:0.24705882352941178;stroke-miterlimit:10;stroke-linecap:square;" x1="210" x2="225" y1="203" y2="203"/>
  <line style="fill:none;stroke:rgb(63,63,191);stroke-opacity:0.24705882352941178;stroke-miterlimit:10;stroke-linecap:square;" x1="225" x2="225" y1="202" y2="178"/>
  <rect height="31" style="fill:rgb(63,63,191);fill-opacity:0.7490196078431373;stroke:none;" width="2" x="238" y="268"/>
  <line style="fill:none;stroke:rgb(63,63,191);stroke-opacity:0.24705882352941178;stroke-miterlimit:10;stroke-linecap:square;" x1="225" x2="239" y1="177" y2="177"/>
  <line style="fill:none;stroke:rgb(63,63,191);stroke-opacity:0.24705882352941178;stroke-miterlimit:10;stroke-linecap:square;" x1="239" x2="239" y1="176" y2="146"/>
  <rect height="26" style="fill:rgb(63,63,191);fill-opacity:0.7490196078431373;stroke:none;" width="2" x="253" y="273"/>
  <line style="fill:none;stroke:rgb(63,63,191);stroke-opacity:0.24705882352941178;stroke-miterlimit:10;stroke-linecap:square;" x1="239" x2="254" y1="145" y2="145"/>
  <line style="fill:none;stroke:rgb(63,63,191);stroke-opacity:0.24705882352941178;stroke-miterlimit:10;stroke-linecap:square;" x1="254" x2="254" y1="144" y2="119"/>
  <rect height="17" style="fill:rgb(63,63,191);fill-opacity:0.7490196078431373;stroke:none;" width="2" x="267" y="282"/>
  <line style="fill:none;stroke:rgb(63,63,191);stroke-opacity:0.24705882352941178;stroke-miterlimit:10;stroke-linecap:square;" x1="254" x2="268" y1="118" y2="118"/>
  <line style="fill:none;stroke:rgb(63,63,191);stroke-opacity:0.24705882352941178;stroke-miterlimit:10;stroke-linecap:square;" x1="268" x2="268" y1="117" y2="101"/>
  <rect height="8" style="fill:rgb(63,63,191);fill-opacity:0.7490196078431373;stroke:none;" width="2" x="282" y="291"/>
  <line style="fill:none;stroke:rgb(63,63,191);stroke-opacity:0.24705882352941178;stroke-miterlimit:10;stroke-linecap:square;" x1="268" x2="283" y1="100" y2="100"/>
  <line style="fill:none;stroke:rgb(63,63,191);stroke-opacity:0.24705882352941178;stroke-miterlimit:10;stroke-linecap:square;" x1="283" x2="283" y1="99" y2="93"/>
  <rect height="4" style="fill:rgb(63,63,191);fill-opacity:0.7490196078431373;stroke:none;" width="2" x="296" y="295"/>
  <line style="fill:none;stroke:rgb(63,63,191);stroke-opacity:0.24705882352941178;stroke-miterlimit:10;stroke-linecap:square;" x1="283" x2="297" y1="92" y2="92"/>
  <line style="fill:none;stroke:rgb(63,63,191);stroke-opacity:0.24705882352941178;stroke-miterlimit:10;stroke-linecap:square;" x1="297" x2="297" y1="91" y2="88"/>
  <rect height="3" style="fill:rgb(63,63,191);fill-opacity:0.7490196078431373;stroke:none;" width="2" x="311" y="296"/>
  <line style="fill:none;stroke:rgb(63,63,191);stroke-opacity:0.24705882352941178;stroke-miterlimit:10;stroke-linecap:square;" x1="297" x2="312" y1="87" y2="87"/>
  <line style="fill:none;stroke:rgb(63,63,191);stroke-opacity:0.24705882352941178;stroke-miterlimit:10;stroke-linecap:square;" x1="312" x2="312" y1="86" y2="85"/>
  <rect height="2" style="fill:rgb(63,63,191);fill-opacity:0.7490196078431373;stroke:none;" width="2" x="326" y="297"/>
  <line style="fill:none;stroke:rgb(63,63,191);stroke-opacity:0.24705882352941178;stroke-miterlimit:10;stroke-linecap:square;" x1="312" x2="327" y1="84" y2="84"/>
  <line style="fill:none;stroke:rgb(63,63,191);stroke-opacity:0.24705882352941178;stroke-miterlimit:10;stroke-linecap:square;" x1="327" x2="327" y1="83" y2="83"/>
  <rect height="4" style="fill:rgb(63,63,191);fill-opacity:0.7490196078431373;stroke:none;" width="2" x="340" y="295"/>
  <line style="fill:none;stroke:rgb(63,63,191);stroke-opacity:0.24705882352941178;stroke-miterlimit:10;stroke-linecap:square;" x1="327" x2="341" y1="82" y2="82"/>
  <line style="fill:none;stroke:rgb(63,63,191);stroke-opacity:0.24705882352941178;stroke-miterlimit:10;stroke-linecap:square;" x1="341" x2="341" y1="81" y2="78"/>
  <rect height="4" style="fill:rgb(63,63,191);fill-opacity:0.7490196078431373;stroke:none;" width="2" x="355" y="295"/>
  <line style="fill:none;stroke:rgb(63,63,191);stroke-opacity:0.24705882352941178;stroke-miterlimit:10;stroke-linecap:square;" x1="341" x2="356" y1="77" y2="77"/>
  <line style="fill:none;stroke:rgb(63,63,191);stroke-opacity:0.24705882352941178;stroke-miterlimit:10;stroke-linecap:square;" x1="356" x2="356" y1="76" y2="74"/>
  <rect height="4" style="fill:rgb(63,63,191);fill-opacity:0.7490196078431373;stroke:none;" width="2" x="369" y="295"/>
  <line style="fill:none;stroke:rgb(63,63,191);stroke-opacity:0.24705882352941178;stroke-miterlimit:10;stroke-linecap:square;" x1="356" x2="370" y1="73" y2="73"/>
  <line style="fill:none;stroke:rgb(63,63,191);stroke-opacity:0.24705882352941178;stroke-miterlimit:10;stroke-linecap:square;" x1="370" x2="370" y1="72" y2="69"/>
  <rect height="5" style="fill:rgb(63,63,191);fill-opacity:0.7490196078431373;stroke:none;" width="2" x="384" y="294"/>
  <line style="fill:none;stroke:rgb(63,63,191);stroke-opacity:0.24705882352941178;stroke-miterlimit:10;stroke-linecap:square;" x1="370" x2="385" y1="68" y2="68"/>
  <line style="fill:none;stroke:rgb(63,63,191);stroke-opacity:0.24705882352941178;stroke-miterlimit:10;stroke-linecap:square;" x1="385" x2="385" y1="67" y2="64"/>
  <rect height="3" style="fill:rgb(63,63,191);fill-opacity:0.7490196078431373;stroke:none;" width="2" x="399" y="296"/>
  <line style="fill:none;stroke:rgb(63,63,191);stroke-opacity:0.24705882352941178;stroke-miterlimit:10;stroke-linecap:square;" x1="385" x2="400" y1="63" y2="63"/>
  <line style="fill:none;stroke:rgb(63,63,191);stroke-opacity:0.24705882352941178;stroke-miterlimit:10;stroke-linecap:square;" x1="400" x2="400" y1="62" y2="61"/>
  <line style="fill:none;stroke:rgb(63,63,191);stroke-opacity:0.24705882352941178;stroke-miterlimit:10;stroke-linecap:square;" x1="400" x2="400" y1="60" y2="60"/>
  <rect height="17" style="fill:rgb(255,127,0);fill-opacity:0.7490196078431373;stroke:none;" width="4" x="62" y="282"/>
  <line style="fill:none;stroke:rgb(255,127,0);stroke-opacity:0.24705882352941178;stroke-width:2;stroke-miterlimit:10;stroke-linecap:square;" x1="50" x2="64" y1="300" y2="300"/>
  <line style="fill:none;stroke:rgb(255,127,0);stroke-opacity:0.24705882352941178;stroke-width:2;stroke-miterlimit:10;stroke-linecap:square;" x1="64" x2="64" y1="298" y2="284"/>
  <rect height="26" style="fill:rgb(255,127,0);fill-opacity:0.7490196078431373;stroke:none;" width="4" x="77" y="273"/>
  <line style="fill:none;stroke:rgb(255,127,0);stroke-opacity:0.24705882352941178;stroke-width:2;stroke-miterlimit:10;stroke-linecap:square;" x1="64" x2="79" y1="282" y2="282"/>
  <line style="fill:none;stroke:rgb(255,127,0);stroke-opacity:0.24705882352941178;stroke-width:2;stroke-miterlimit:10;stroke-linecap:square;" x1="79" x2="79" y1="280" y2="257"/>
  <rect height="44" style="fill:rgb(255,127,0);fill-opacity:0.7490196078431373;stroke:none;" width="4" x="91" y="255"/>
  <line style="fill:none;stroke:rgb(255,127,0);stroke-opacity:0.24705882352941178;stroke-width:2;stroke-miterlimit:10;stroke-linecap:square;" x1="79" x2="93" y1="255" y2="255"/>
  <line style="fill:none;stroke:rgb(255,127,0);stroke-opacity:0.24705882352941178;stroke-width:2;stroke-miterlimit:10;stroke-linecap:square;" x1="93" x2="93" y1="253" y2="213"/>
  <rect height="35" style="fill:rgb(255,127,0);fill-opacity:0.7490196078431373;stroke:none;" width="4" x="106" y="264"/>
  <line style="fill:none;stroke:rgb(255,127,0);stroke-opacity:0.24705882352941178;stroke-width:2;stroke-miterlimit:10;stroke-linecap:square;" x1="93" x2="108" y1="211" y2="211"/>
  <line style="fill:none;stroke:rgb(255,127,0);stroke-opacity:0.24705882352941178;stroke-width:2;stroke-miterlimit:10;stroke-linecap:square;" x1="108" x2="108" y1="209" y2="177"/>
  <rect height="26" style="fill:rgb(255,127,0);fill-opacity:0.7490196078431373;stroke:none;" width="4" x="120" y="273"/>
  <line style="fill:none;stroke:rgb(255,127,0);stroke-opacity:0.24705882352941178;stroke-width:2;stroke-miterlimit:10;stroke-linecap:square;" x1="108" x2="122" y1="175" y2="175"/>
  <line style="fill:none;stroke:rgb(255,127,0);stroke-opacity:0.24705882352941178;stroke-width:2;stroke-miterlimit:10;stroke-linecap:square;" x1="122" x2="122" y1="173" y2="150"/>
  <rect height="8" style="fill:rgb(255,127,0);fill-opacity:0.7490196078431373;stroke:none;" width="4" x="135" y="291"/>
  <line style="fill:none;stroke:rgb(255,127,0);stroke-opacity:0.24705882352941178;stroke-width:2;stroke-miterlimit:10;stroke-linecap:square;" x1="122" x2="137" y1="148" y2="148"/>
  <line style="fill:none;stroke:rgb(255,127,0);stroke-opacity:0.24705882352941178;stroke-width:2;stroke-miterlimit:10;stroke-linecap:square;" x1="137" x2="137" y1="146" y2="142"/>
  <rect height="8" style="fill:rgb(255,127,0);fill-opacity:0.7490196078431373;stroke:none;" width="4" x="164" y="291"/>
  <line style="fill:none;stroke:rgb(255,127,0);stroke-opacity:0.24705882352941178;stroke-width:2;stroke-miterlimit:10;stroke-linecap:square;" x1="137" x2="166" y1="140" y2="140"/>
  <line style="fill:none;stroke:rgb(255,127,0);stroke-opacity:0.24705882352941178;stroke-width:2;stroke-miterlimit:10;stroke-linecap:square;" x1="166" x2="166" y1="138" y2="133"/>
  <rect height="8" style="fill:rgb(255,127,0);fill-opacity:0.7490196078431373;stroke:none;" width="4" x="208" y="291"/>
  <line style="fill:none;stroke:rgb(255,127,0);stroke-opacity:0.24705882352941178;stroke-width:2;stroke-miterlimit:10;stroke-linecap:square;" x1="166" x2="210" y1="131" y2="131"/>
  <line style="fill:none;stroke:rgb(255,127,0);stroke-opacity:0.24705882352941178;stroke-width:2;stroke-miterlimit:10;stroke-linecap:square;" x1="210" x2="210" y1="129" y2="124"/>
  <rect height="17" style="fill:rgb(255,127,0);fill-opacity:0.7490196078431373;stroke:none;" width="4" x="223" y="282"/>
  <line style="fill:none;stroke:rgb(255,127,0);stroke-opacity:0.24705882352941178;stroke-width:2;stroke-miterlimit:10;stroke-linecap:square;" x1="210" x2="225" y1="122" y2="122"/>
  <line style="fill:none;stroke:rgb(255,127,0);stroke-opacity:0.24705882352941178;stroke-width:2;stroke-miterlimit:10;stroke-linecap:square;" x1="225" x2="225" y1="120" y2="106"/>
  <rect height="17" style="fill:rgb(255,127,0);fill-opacity:0.7490196078431373;stroke:none;" width="4" x="237" y="282"/>
  <line style="fill:none;stroke:rgb(255,127,0);stroke-opacity:0.24705882352941178;stroke-width:2;stroke-miterlimit:10;stroke-linecap:square;" x1="225" x2="239" y1="104" y2="104"/>
  <line style="fill:none;stroke:rgb(255,127,0);stroke-opacity:0.24705882352941178;stroke-width:2;stroke-miterlimit:10;stroke-linecap:square;" x1="239" x2="239" y1="102" y2="88"/>
  <rect height="8" style="fill:rgb(255,127,0);fill-opacity:0.7490196078431373;stroke:none;" width="4" x="266" y="291"/>
  <line style="fill:none;stroke:rgb(255,127,0);stroke-opacity:0.24705882352941178;stroke-width:2;stroke-miterlimit:10;stroke-linecap:square;" x1="239" x2="268" y1="86" y2="86"/>
  <line style="fill:none;stroke:rgb(255,127,0);stroke-opacity:0.24705882352941178;stroke-width:2;stroke-miterlimit:10;stroke-linecap:square;" x1="268" x2="268" y1="84" y2="79"/>
  <rect height="8" style="fill:rgb(255,127,0);fill-opacity:0.7490196078431373;stroke:none;" width="4" x="281" y="291"/>
  <line style="fill:none;stroke:rgb(255,127,0);stroke-opacity:0.24705882352941178;stroke-width:2;stroke-miterlimit:10;stroke-linecap:square;" x1="268" x2="283" y1="77" y2="77"/>
  <line style="fill:none;stroke:rgb(255,127,0);stroke-opacity:0.24705882352941178;stroke-width:2;stroke-miterlimit:10;stroke-linecap:square;" x1="283" x2="283" y1="75" y2="70"/>
  <rect height="8" style="fill:rgb(255,127,0);fill-opacity:0.7490196078431373;stroke:none;" width="4" x="354" y="291"/>
  <line style="fill:none;stroke:rgb(255,127,0);stroke-opacity:0.24705882352941178;stroke-width:2;stroke-miterlimit:10;stroke-linecap:square;" x1="283" x2="356" y1="68" y2="68"/>
  <line style="fill:none;stroke:rgb(255,127,0);stroke-opacity:0.24705882352941178;stroke-width:2;stroke-miterlimit:10;stroke-linecap:square;" x1="356" x2="356" y1="66" y2="62"/>
  <line style="fill:none;stroke:rgb(255,127,0);stroke-opacity:0.24705882352941178;stroke-width:2;stroke-miterlimit:10;stroke-linecap:square;" x1="356" x2="400" y1="60" y2="60"/>
  <line style="fill:none;stroke:rgb(255,127,0);stroke-opacity:0.4980392156862745;stroke-miterlimit:2;stroke-dasharray:2;" x1="64" x2="64" y1="300" y2="350"/>
  <line style="fill:none;stroke:rgb(255,127,0);stroke-opacity:0.4980392156862745;stroke-miterlimit:2;stroke-dasharray:2;" x1="64" x2="64" y1="300" y2="363"/>
  <line style="fill:none;stroke:rgb(255,127,0);stroke-opacity:0.4980392156862745;stroke-miterlimit:2;stroke-dasharray:2;" x1="79" x2="79" y1="300" y2="380"/>
  <line style="fill:none;stroke:rgb(255,127,0);stroke-opacity:0.4980392156862745;stroke-miterlimit:2;stroke-dasharray:2;" x1="79" x2="79" y1="300" y2="397"/>
  <line style="fill:none;stroke:rgb(255,127,0);stroke-opacity:0.4980392156862745;stroke-miterlimit:2;stroke-dasharray:2;" x1="79" x2="79" y1="300" y2="414"/>
  <line style="fill:none;stroke:rgb(255,127,0);stroke-opacity:0.4980392156862745;stroke-miterlimit:2;stroke-dasharray:2;" x1="93" x2="93" y1="300" y2="431"/>
  <line style="fill:none;stroke:rgb(255,127,0);stroke-opacity:0.4980392156862745;stroke-miterlimit:2;stroke-dasharray:2;" x1="93" x2="93" y1="300" y2="448"/>
  <line style="fill:none;stroke:rgb(255,127,0);stroke-opacity:0.4980392156862745;stroke-miterlimit:2;stroke-dasharray:2;" x1="93" x2="93" y1="300" y2="465"/>
  <line style="fill:none;stroke:rgb(255,127,0);stroke-opacity:0.4980392156862745;stroke-miterlimit:2;stroke-dasharray:2;" x1="93" x2="93" y1="300" y2="482"/>
  <line style="fill:none;stroke:rgb(255,127,0);stroke-opacity:0.4980392156862745;stroke-miterlimit:2;stroke-dasharray:2;" x1="93" x2="93" y1="300" y2="499"/>
  <line style="fill:none;stroke:rgb(255,127,0);stroke-opacity:0.4980392156862745;stroke-miterlimit:2;stroke-dasharray:2;" x1="108" x2="108" y1="300" y2="516"/>
  <line style="fill:none;stroke:rgb(255,127,0);stroke-opacity:0.4980392156862745;stroke-miterlimit:2;stroke-dasharray:2;" x1="108" x2="108" y1="300" y2="533"/>
  <line style="fill:none;stroke:rgb(255,127,0);stroke-opacity:0.4980392156862745;stroke-miterlimit:2;stroke-dasharray:2;" x1="108" x2="108" y1="300" y2="550"/>
  <line style="fill:none;stroke:rgb(255,127,0);stroke-opacity:0.4980392156862745;stroke-miterlimit:2;stroke-dasharray:2;" x1="108" x2="108" y1="300" y2="567"/>
  <line style="fill:none;stroke:rgb(255,127,0);stroke-opacity:0.4980392156862745;stroke-miterlimit:2;stroke-dasharray:2;" x1="122" x2="122" y1="300" y2="584"/>
  <line style="fill:none;stroke:rgb(255,127,0);stroke-opacity:0.4980392156862745;stroke-miterlimit:2;stroke-dasharray:2;" x1="122" x2="122" y1="300" y2="601"/>
  <line style="fill:none;stroke:rgb(255,127,0);stroke-opacity:0.4980392156862745;stroke-miterlimit:2;stroke-dasharray:2;" x1="122" x2="122" y1="300" y2="618"/>
  <line style="fill:none;stroke:rgb(255,127,0);stroke-opacity:0.4980392156862745;stroke-miterlimit:2;stroke-dasharray:2;" x1="137" x2="137" y1="300" y2="635"/>
  <line style="fill:none;stroke:rgb(255,127,0);stroke-opacity:0.4980392156862745;stroke-miterlimit:2;stroke-dasharray:2;" x1="166" x2="166" y1="300" y2="648"/>
  <line style="fill:none;stroke:rgb(255,127,0);stroke-opacity:0.4980392156862745;stroke-miterlimit:2;stroke-dasharray:2;" x1="210" x2="210" y1="300" y2="350"/>
  <line style="fill:none;stroke:rgb(255,127,0);stroke-opacity:0.4980392156862745;stroke-miterlimit:2;stroke-dasharray:2;" x1="225" x2="225" y1="300" y2="360"/>
  <line style="fill:none;stroke:rgb(255,127,0);stroke-opacity:0.4980392156862745;stroke-miterlimit:2;stroke-dasharray:2;" x1="225" x2="225" y1="300" y2="370"/>
  <line style="fill:none;stroke:rgb(255,127,0);stroke-opacity:0.4980392156862745;stroke-miterlimit:2;stroke-dasharray:2;" x1="239" x2="239" y1="300" y2="380"/>
  <line style="fill:none;stroke:rgb(255,127,0);stroke-opacity:0.4980392156862745;stroke-miterlimit:2;stroke-dasharray:2;" x1="239" x2="239" y1="300" y2="390"/>
  <line style="fill:none;stroke:rgb(255,127,0);stroke-opacity:0.4980392156862745;stroke-miterlimit:2;stroke-dasharray:2;" x1="268" x2="268" y1="300" y2="350"/>
  <line style="fill:none;stroke:rgb(255,127,0);stroke-opacity:0.4980392156862745;stroke-miterlimit:2;stroke-dasharray:2;" x1="283" x2="283" y1="300" y2="360"/>
  <line style="fill:none;stroke:rgb(255,127,0);stroke-opacity:0.4980392156862745;stroke-miterlimit:2;stroke-dasharray:2;" x1="356" x2="356" y1="300" y2="350"/>
  <line style="fill:none;stroke:rgb(0,0,0);stroke-width:2;stroke-miterlimit:10;stroke-linecap:square;" x1="48" x2="48" y1="60" y2="300"/>
  <line style="fill:none;stroke:rgb(0,0,0);stroke-width:2;stroke-miterlimit:10;stroke-linecap:square;" x1="48" x2="402" y1="300" y2="300"/>
  <rect height="30" style="fill:rgb(255,255,255);stroke:none;" width="17" x="42" y="308"/>
  <text style="fill:rgb(0,0,0);stroke:none;font-size:25px;font-weight:bold;" x="42" y="332">0</text>
  <rect height="30" style="fill:rgb(255,255,255);stroke:none;" width="34" x="383" y="308"/>
  <text style="fill:rgb(0,0,0);stroke:none;font-size:25px;font-weight:bold;" x="383" y="332">24</text>
  <text style="fill:rgb(0,0,0);stroke:none;font-size:25px;font-weight:bold;" x="25" y="312">0</text>
  <text style="fill:rgb(0,0,0);stroke:none;font-size:25px;font-weight:bold;" x="25" y="72">1</text>
  <text style="fill:rgb(0,0,0);stroke:none;font-size:25px;font-weight:bold;" x="20" y="42">ELVIDGE_HYPOXIA_BY_DMOG_UP</text>
  <rect height="10" style="fill:rgb(255,255,255);stroke:none;" width="35" x="64" y="340"/>
  <text style="fill:rgb(128,128,128);stroke:none;font-size:10px;" x="64" y="350">CXCR4</text>
  <rect height="10" style="fill:rgb(255,255,255);stroke:none;" width="29" x="64" y="353"/>
  <text style="fill:rgb(128,128,128);stroke:none;font-size:10px;" x="64" y="363">NFIL3</text>
  <rect height="13" style="fill:rgb(255,255,255);stroke:none;" width="43" x="79" y="367"/>
  <text style="fill:rgb(128,128,128);stroke:none;font-size:13px;" x="79" y="380">STBD1</text>
  <rect height="13" style="fill:rgb(255,255,255);stroke:none;" width="51" x="79" y="384"/>
  <text style="fill:rgb(128,128,128);stroke:none;font-size:13px;" x="79" y="397">ZNF395</text>
  <rect height="13" style="fill:rgb(255,255,255);stroke:none;" width="50" x="79" y="401"/>
  <text style="fill:rgb(128,128,128);stroke:none;font-size:13px;" x="79" y="414">SLC2A1</text>
  <rect height="13" style="fill:rgb(255,255,255);stroke:none;" width="26" x="93" y="418"/>
  <text style="fill:rgb(128,128,128);stroke:none;font-size:13px;" x="93" y="431">HK2</text>
  <rect height="13" style="fill:rgb(255,255,255);stroke:none;" width="34" x="93" y="435"/>
  <text style="fill:rgb(128,128,128);stroke:none;font-size:13px;" x="93" y="448">PDK1</text>
  <rect height="13" style="fill:rgb(255,255,255);stroke:none;" width="43" x="93" y="452"/>
  <text style="fill:rgb(128,128,128);stroke:none;font-size:13px;" x="93" y="465">ERO1A</text>
  <rect height="13" style="fill:rgb(255,255,255);stroke:none;" width="41" x="93" y="469"/>
  <text style="fill:rgb(128,128,128);stroke:none;font-size:13px;" x="93" y="482">VLDLR</text>
  <rect height="13" style="fill:rgb(255,255,255);stroke:none;" width="38" x="93" y="486"/>
  <text style="fill:rgb(128,128,128);stroke:none;font-size:13px;" x="93" y="499">DDIT4</text>
  <rect height="13" style="fill:rgb(255,255,255);stroke:none;" width="30" x="108" y="503"/>
  <text style="fill:rgb(128,128,128);stroke:none;font-size:13px;" x="108" y="516">ELF3</text>
  <rect height="13" style="fill:rgb(255,255,255);stroke:none;" width="46" x="108" y="520"/>
  <text style="fill:rgb(128,128,128);stroke:none;font-size:13px;" x="108" y="533">KDM3A</text>
  <rect height="13" style="fill:rgb(255,255,255);stroke:none;" width="43" x="108" y="537"/>
  <text style="fill:rgb(128,128,128);stroke:none;font-size:13px;" x="108" y="550">VEGFA</text>
  <rect height="13" style="fill:rgb(255,255,255);stroke:none;" width="45" x="108" y="554"/>
  <text style="fill:rgb(128,128,128);stroke:none;font-size:13px;" x="108" y="567">BNIP3L</text>
  <rect height="13" style="fill:rgb(255,255,255);stroke:none;" width="36" x="122" y="571"/>
  <text style="fill:rgb(128,128,128);stroke:none;font-size:13px;" x="122" y="584">ENO2</text>
  <rect height="13" style="fill:rgb(255,255,255);stroke:none;" width="31" x="122" y="588"/>
  <text style="fill:rgb(128,128,128);stroke:none;font-size:13px;" x="122" y="601">PFKP</text>
  <rect height="13" style="fill:rgb(255,255,255);stroke:none;" width="43" x="122" y="605"/>
  <text style="fill:rgb(128,128,128);stroke:none;font-size:13px;" x="122" y="618">PPFIA4</text>
  <rect height="13" style="fill:rgb(255,255,255);stroke:none;" width="37" x="137" y="622"/>
  <text style="fill:rgb(128,128,128);stroke:none;font-size:13px;" x="137" y="635">PGM1</text>
  <rect height="10" style="fill:rgb(255,255,255);stroke:none;" width="28" x="166" y="638"/>
  <text style="fill:rgb(128,128,128);stroke:none;font-size:10px;" x="166" y="648">EGR1</text>
  <rect height="8" style="fill:rgb(255,255,255);stroke:none;" width="27" x="210" y="342"/>
  <text style="fill:rgb(128,128,128);stroke:none;font-size:8px;" x="210" y="350">CSRP2</text>
  <rect height="8" style="fill:rgb(255,255,255);stroke:none;" width="20" x="225" y="352"/>
  <text style="fill:rgb(128,128,128);stroke:none;font-size:8px;" x="225" y="360">SAT1</text>
  <rect height="8" style="fill:rgb(255,255,255);stroke:none;" width="20" x="225" y="362"/>
  <text style="fill:rgb(128,128,128);stroke:none;font-size:8px;" x="225" y="370">ATF3</text>
  <rect height="8" style="fill:rgb(255,255,255);stroke:none;" width="17" x="239" y="372"/>
  <text style="fill:rgb(128,128,128);stroke:none;font-size:8px;" x="239" y="380">MET</text>
  <rect height="8" style="fill:rgb(255,255,255);stroke:none;" width="21" x="239" y="382"/>
  <text style="fill:rgb(128,128,128);stroke:none;font-size:8px;" x="239" y="390">GLRX</text>
  <rect height="8" style="fill:rgb(255,255,255);stroke:none;" width="21" x="268" y="342"/>
  <text style="fill:rgb(128,128,128);stroke:none;font-size:8px;" x="268" y="350">CAV1</text>
  <rect height="8" style="fill:rgb(255,255,255);stroke:none;" width="19" x="283" y="352"/>
  <text style="fill:rgb(128,128,128);stroke:none;font-size:8px;" x="283" y="360">KLF7</text>
  <rect height="8" style="fill:rgb(255,255,255);stroke:none;" width="28" x="356" y="342"/>
  <text style="fill:rgb(128,128,128);stroke:none;font-size:8px;" x="356" y="350">IGFBP3</text>
</svg>
