<?xml version="1.0" encoding="UTF-8" standalone="no"?>
<!DOCTYPE svg PUBLIC "-//W3C//DTD SVG 1.1//EN" "http://www.w3.org/Graphics/SVG/1.1/DTD/svg11.dtd">
<svg xmlns:xlink="http://www.w3.org/1999/xlink" height="158.74999999999997mm" version="1.1" viewBox="0 0 500 600" width="132.29166666666666mm" x="0mm" y="0mm" xmlns="http://www.w3.org/2000/svg">
  <rect height="1200" style="fill:rgb(255,255,255);stroke:none;" width="1000" x="0" y="0"/>
  <rect height="240" style="fill:rgb(191,191,191);fill-opacity:0.4980392156862745;stroke:none;" width="175" x="225" y="60"/>
  <rect height="5" style="fill:rgb(63,63,191);fill-opacity:0.7490196078431373;stroke:none;" width="2" x="49" y="294"/>
  <line style="fill:none;stroke:rgb(63,63,191);stroke-opacity:0.24705882352941178;stroke-miterlimit:10;stroke-linecap:square;" x1="50" x2="50" y1="300" y2="300"/>
  <line style="fill:none;stroke:rgb(63,63,191);stroke-opacity:0.24705882352941178;stroke-miterlimit:10;stroke-linecap:square;" x1="50" x2="50" y1="299" y2="295"/>
  <rect height="14" style="fill:rgb(63,63,191);fill-opacity:0.7490196078431373;stroke:none;" width="2" x="63" y="285"/>
  <line style="fill:none;stroke:rgb(63,63,191);stroke-opacity:0.24705882352941178;stroke-miterlimit:10;stroke-linecap:square;" x1="50" x2="64" y1="294" y2="294"/>
  <line style="fill:none;stroke:rgb(63,63,191);stroke-opacity:0.24705882352941178;stroke-miterlimit:10;stroke-linecap:square;" x1="64" x2="64" y1="293" y2="280"/>
  <rect height="12" style="fill:rgb(63,63,191);fill-opacity:0.7490196078431373;stroke:none;" width="2" x="78" y="287"/>
  <line style="fill:none;stroke:rgb(63,63,191);stroke-opacity:0.24705882352941178;stroke-miterlimit:10;stroke-linecap:square;" x1="64" x2="79" y1="279" y2="279"/>
  <line style="fill:none;stroke:rgb(63,63,191);stroke-opacity:0.24705882352941178;stroke-miterlimit:10;stroke-linecap:square;" x1="79" x2="79" y1="278" y2="268"/>
  <rect height="10" style="fill:rgb(63,63,191);fill-opacity:0.7490196078431373;stroke:none;" width="2" x="92" y="289"/>
  <line style="fill:none;stroke:rgb(63,63,191);stroke-opacity:0.24705882352941178;stroke-miterlimit:10;stroke-linecap:square;" x1="79" x2="93" y1="267" y2="267"/>
  <line style="fill:none;stroke:rgb(63,63,191);stroke-opacity:0.24705882352941178;stroke-miterlimit:10;stroke-linecap:square;" x1="93" x2="93" y1="266" y2="258"/>
  <rect height="7" style="fill:rgb(63,63,191);fill-opacity:0.7490196078431373;stroke:none;" width="2" x="107" y="292"/>
  <line style="fill:none;stroke:rgb(63,63,191);stroke-opacity:0.24705882352941178;stroke-miterlimit:10;stroke-linecap:square;" x1="93" x2="108" y1="257" y2="257"/>
  <line style="fill:none;stroke:rgb(63,63,191);stroke-opacity:0.24705882352941178;stroke-miterlimit:10;stroke-linecap:square;" x1="108" x2="108" y1="256" y2="250"/>
  <rect height="5" style="fill:rgb(63,63,191);fill-opacity:0.7490196078431373;stroke:none;" width="2" x="121" y="294"/>
  <line style="fill:none;stroke:rgb(63,63,191);stroke-opacity:0.24705882352941178;stroke-miterlimit:10;stroke-linecap:square;" x1="108" x2="122" y1="249" y2="249"/>
  <line style="fill:none;stroke:rgb(63,63,191);stroke-opacity:0.24705882352941178;stroke-miterlimit:10;stroke-linecap:square;" x1="122" x2="122" y1="248" y2="245"/>
  <rect height="4" style="fill:rgb(63,63,191);fill-opacity:0.7490196078431373;stroke:none;" width="2" x="136" y="295"/>
  <line style="fill:none;stroke:rgb(63,63,191);stroke-opacity:0.24705882352941178;stroke-miterlimit:10;stroke-linecap:square;" x1="122" x2="137" y1="244" y2="244"/>
  <line style="fill:none;stroke:rgb(63,63,191);stroke-opacity:0.24705882352941178;stroke-miterlimit:10;stroke-linecap:square;" x1="137" x2="137" y1="243" y2="241"/>
  <rect height="2" style="fill:rgb(63,63,191);fill-opacity:0.7490196078431373;stroke:none;" width="2" x="151" y="297"/>
  <line style="fill:none;stroke:rgb(63,63,191);stroke-opacity:0.24705882352941178;stroke-miterlimit:10;stroke-linecap:square;" x1="137" x2="152" y1="240" y2="240"/>
  <line style="fill:none;stroke:rgb(63,63,191);stroke-opacity:0.24705882352941178;stroke-miterlimit:10;stroke-linecap:square;" x1="152" x2="152" y1="239" y2="238"/>
  <rect height="2" style="fill:rgb(63,63,191);fill-opacity:0.7490196078431373;stroke:none;" width="2" x="165" y="297"/>
  <line style="fill:none;stroke:rgb(63,63,191);stroke-opacity:0.24705882352941178;stroke-miterlimit:10;stroke-linecap:square;" x1="152" x2="166" y1="237" y2="237"/>
  <line style="fill:none;stroke:rgb(63,63,191);stroke-opacity:0.24705882352941178;stroke-miterlimit:10;stroke-linecap:square;" x1="166" x2="166" y1="236" y2="235"/>
  <rect height="4" style="fill:rgb(63,63,191);fill-opacity:0.7490196078431373;stroke:none;" width="2" x="180" y="295"/>
  <line style="fill:none;stroke:rgb(63,63,191);stroke-opacity:0.24705882352941178;stroke-miterlimit:10;stroke-linecap:square;" x1="166" x2="181" y1="234" y2="234"/>
  <line style="fill:none;stroke:rgb(63,63,191);stroke-opacity:0.24705882352941178;stroke-miterlimit:10;stroke-linecap:square;" x1="181" x2="181" y1="233" y2="231"/>
  <rect height="8" style="fill:rgb(63,63,191);fill-opacity:0.7490196078431373;stroke:none;" width="2" x="194" y="291"/>
  <line style="fill:none;stroke:rgb(63,63,191);stroke-opacity:0.24705882352941178;stroke-miterlimit:10;stroke-linecap:square;" x1="181" x2="195" y1="230" y2="230"/>
  <line style="fill:none;stroke:rgb(63,63,191);stroke-opacity:0.24705882352941178;stroke-miterlimit:10;stroke-linecap:square;" x1="195" x2="195" y1="229" y2="222"/>
  <rect height="17" style="fill:rgb(63,63,191);fill-opacity:0.7490196078431373;stroke:none;" width="2" x="209" y="282"/>
  <line style="fill:none;stroke:rgb(63,63,191);stroke-opacity:0.24705882352941178;stroke-miterlimit:10;stroke-linecap:square;" x1="195" x2="210" y1="221" y2="221"/>
  <line style="fill:none;stroke:rgb(63,63,191);stroke-opacity:0.24705882352941178;stroke-miterlimit:10;stroke-linecap:square;" x1="210" x2="210" y1="220" y2="204"/>
  <rect height="26" style="fill:rgb(63,63,191);fill-opacity:0.7490196078431373;stroke:none;" width="2" x="224" y="273"/>
  <line style="fill:none;stroke:rgb(63,63,191);stroke-opacity:0.24705882352941178;stroke-miterlimit:10;stroke-linecap:square;" x1="210" x2="225" y1="203" y2="203"/>
  <line style="fill:none;stroke:rgb(63,63,191);stroke-opacity:0.24705882352941178;stroke-miterlimit:10;stroke-linecap:square;" x1="225" x2="225" y1="202" y2="178"/>
  <rect height="31" style="fill:rgb(63,63,191);fill-opacity:0.7490196078431373;stroke:none;" width="2" x="238" y="268"/>
  <line style="fill:none;stroke:rgb(63,63,191);stroke-opacity:0.24705882352941178;stroke-miterlimit:10;stroke-linecap:square;" x1="225" x2="239" y1="177" y2="177"/>
  <line style="fill:none;stroke:rgb(63,63,191);stroke-opacity:0.24705882352941178;stroke-miterlimit:10;stroke-linecap:square;" x1="239" x2="239" y1="176" y2="146"/>
  <rect height="26" style="fill:rgb(63,63,191);fill-opacity:0.7490196078431373;stroke:none;" width="2" x="253" y="273"/>
  <line style="fill:none;stroke:rgb(63,63,191);stroke-opacity:0.24705882352941178;stroke-miterlimit:10;stroke-linecap:square;" x1="239" x2="254" y1="145" y2="145"/>
  <line style="fill:none;stroke:rgb(63,63,191);stroke-opacity:0.24705882352941178;stroke-miterlimit:10;stroke-linecap:square;" x1="254" x2="254" y1="144" y2="119"/>
  <rect height="17" style="fill:rgb(63,63,191);fill-opacity:0.7490196078431373;stroke:none;" width="2" x="267" y="282"/>
  <line style="fill:none;stroke:rgb(63,63,191);stroke-opacity:0.24705882352941178;stroke-miterlimit:10;stroke-linecap:square;" x1="254" x2="268" y1="118" y2="118"/>
  <line style="fill:none;stroke:rgb(63,63,191);stroke-opacity:0.24705882352941178;stroke-miterlimit:10;stroke-linecap:square;" x1="268" x2="268" y1="117" y2="101"/>
  <rect height="8" style="fill:rgb(63,63,191);fill-opacity:0.7490196078431373;stroke:none;" width="2" x="282" y="291"/>
  <line style="fill:none;stroke:rgb(63,63,191);stroke-opacity:0.24705882352941178;stroke-miterlimit:10;stroke-linecap:square;" x1="268" x2="283" y1="100" y2="100"/>
  <line style="fill:none;stroke:rgb(63,63,191);stroke-opacity:0.24705882352941178;stroke-miterlimit:10;stroke-linecap:square;" x1="283" x2="283" y1="99" y2="93"/>
  <rect height="4" style="fill:rgb(63,63,191);fill-opacity:0.7490196078431373;stroke:none;" width="2" x="296" y="295"/>
  <line style="fill:none;stroke:rgb(63,63,191);stroke-opacity:0.24705882352941178;stroke-miterlimit:10;stroke-linecap:square;" x1="283" x2="297" y1="92" y2="92"/>
  <line style="fill:none;stroke:rgb(63,63,191);stroke-opacity:0.24705882352941178;stroke-miterlimit:10;stroke-linecap:square;" x1="297" x2="297" y1="91" y2="88"/>
  <rect height="3" style="fill:rgb(63,63,191);fill-opacity:0.7490196078431373;stroke:none;" width="2" x="311" y="296"/>
  <line style="fill:none;stroke:rgb(63,63,191);stroke-opacity:0.24705882352941178;stroke-miterlimit:10;stroke-linecap:square;" x1="297" x2="312" y1="87" y2="87"/>
  <line style="fill:none;stroke:rgb(63,63,191);stroke-opacity:0.24705882352941178;stroke-miterlimit:10;stroke-linecap:square;" x1="312" x2="312" y1="86" y2="85"/>
  <rect height="2" style="fill:rgb(63,63,191);fill-opacity:0.7490196078431373;stroke:none;" width="2" x="326" y="297"/>
  <line style="fill:none;stroke:rgb(63,63,191);stroke-opacity:0.24705882352941178;stroke-miterlimit:10;stroke-linecap:square;" x1="312" x2="327" y1="84" y2="84"/>
  <line style="fill:none;stroke:rgb(63,63,191);stroke-opacity:0.24705882352941178;stroke-miterlimit:10;stroke-linecap:square;" x1="327" x2="327" y1="83" y2="83"/>
  <rect height="4" style="fill:rgb(63,63,191);fill-opacity:0.7490196078431373;stroke:none;" width="2" x="340" y="295"/>
  <line style="fill:none;stroke:rgb(63,63,191);stroke-opacity:0.24705882352941178;stroke-miterlimit:10;stroke-linecap:square;" x1="327" x2="341" y1="82" y2="82"/>
  <line style="fill:none;stroke:rgb(63,63,191);stroke-opacity:0.24705882352941178;stroke-miterlimit:10;stroke-linecap:square;" x1="341" x2="341" y1="81" y2="78"/>
  <rect height="4" style="fill:rgb(63,63,191);fill-opacity:0.7490196078431373;stroke:none;" width="2" x="355" y="295"/>
  <line style="fill:none;stroke:rgb(63,63,191);stroke-opacity:0.24705882352941178;stroke-miterlimit:10;stroke-linecap:square;" x1="341" x2="356" y1="77" y2="77"/>
  <line style="fill:none;stroke:rgb(63,63,191);stroke-opacity:0.24705882352941178;stroke-miterlimit:10;stroke-linecap:square;" x1="356" x2="356" y1="76" y2="74"/>
  <rect height="4" style="fill:rgb(63,63,191);fill-opacity:0.7490196078431373;stroke:none;" width="2" x="369" y="295"/>
  <line style="fill:none;stroke:rgb(63,63,191);stroke-opacity:0.24705882352941178;stroke-miterlimit:10;stroke-linecap:square;" x1="356" x2="370" y1="73" y2="73"/>
  <line style="fill:none;stroke:rgb(63,63,191);stroke-opacity:0.24705882352941178;stroke-miterlimit:10;stroke-linecap:square;" x1="370" x2="370" y1="72" y2="69"/>
  <rect height="5" style="fill:rgb(63,63,191);fill-opacity:0.7490196078431373;stroke:none;" width="2" x="384" y="294"/>
  <line style="fill:none;stroke:rgb(63,63,191);stroke-opacity:0.24705882352941178;stroke-miterlimit:10;stroke-linecap:square;" x1="370" x2="385" y1="68" y2="68"/>
  <line style="fill:none;stroke:rgb(63,63,191);stroke-opacity:0.24705882352941178;stroke-miterlimit:10;stroke-linecap:square;" x1="385" x2="385" y1="67" y2="64"/>
  <rect height="3" style="fill:rgb(63,63,191);fill-opacity:0.7490196078431373;stroke:none;" width="2" x="399" y="296"/>
  <line style="fill:none;stroke:rgb(63,63,191);stroke-opacity:0.24705882352941178;stroke-miterlimit:10;stroke-linecap:square;" x1="385" x2="400" y1="63" y2="63"/>
  <line style="fill:none;stroke:rgb(63,63,191);stroke-opacity:0.24705882352941178;stroke-miterlimit:10;stroke-linecap:square;" x1="400" x2="400" y1="62" y2="61"/>
  <line style="fill:none;stroke:rgb(63,63,191);stroke-opacity:0.24705882352941178;stroke-miterlimit:10;stroke-linecap:square;" x1="400" x2="400" y1="60" y2="60"/>
  <rect height="20" style="fill:rgb(255,127,0);fill-opacity:0.7490196078431373;stroke:none;" width="4" x="62" y="279"/>
  <line style="fill:none;stroke:rgb(255,127,0);stroke-opacity:0.24705882352941178;stroke-width:2;stroke-miterlimit:10;stroke-linecap:square;" x1="50" x2="64" y1="300" y2="300"/>
  <line style="fill:none;stroke:rgb(255,127,0);stroke-opacity:0.24705882352941178;stroke-width:2;stroke-miterlimit:10;stroke-linecap:square;" x1="64" x2="64" y1="298" y2="281"/>
  <rect height="30" style="fill:rgb(255,127,0);fill-opacity:0.7490196078431373;stroke:none;" width="4" x="77" y="269"/>
  <line style="fill:none;stroke:rgb(255,127,0);stroke-opacity:0.24705882352941178;stroke-width:2;stroke-miterlimit:10;stroke-linecap:square;" x1="64" x2="79" y1="279" y2="279"/>
  <line style="fill:none;stroke:rgb(255,127,0);stroke-opacity:0.24705882352941178;stroke-width:2;stroke-miterlimit:10;stroke-linecap:square;" x1="79" x2="79" y1="277" y2="250"/>
  <rect height="24" style="fill:rgb(255,127,0);fill-opacity:0.7490196078431373;stroke:none;" width="4" x="91" y="276"/>
  <line style="fill:none;stroke:rgb(255,127,0);stroke-opacity:0.24705882352941178;stroke-width:2;stroke-miterlimit:10;stroke-linecap:square;" x1="79" x2="93" y1="248" y2="248"/>
  <line style="fill:none;stroke:rgb(255,127,0);stroke-opacity:0.24705882352941178;stroke-width:2;stroke-miterlimit:10;stroke-linecap:square;" x1="93" x2="93" y1="246" y2="226"/>
  <rect height="17" style="fill:rgb(255,127,0);fill-opacity:0.7490196078431373;stroke:none;" width="4" x="106" y="282"/>
  <line style="fill:none;stroke:rgb(255,127,0);stroke-opacity:0.24705882352941178;stroke-width:2;stroke-miterlimit:10;stroke-linecap:square;" x1="93" x2="108" y1="224" y2="224"/>
  <line style="fill:none;stroke:rgb(255,127,0);stroke-opacity:0.24705882352941178;stroke-width:2;stroke-miterlimit:10;stroke-linecap:square;" x1="108" x2="108" y1="222" y2="209"/>
  <rect height="13" style="fill:rgb(255,127,0);fill-opacity:0.7490196078431373;stroke:none;" width="4" x="120" y="286"/>
  <line style="fill:none;stroke:rgb(255,127,0);stroke-opacity:0.24705882352941178;stroke-width:2;stroke-miterlimit:10;stroke-linecap:square;" x1="108" x2="122" y1="207" y2="207"/>
  <line style="fill:none;stroke:rgb(255,127,0);stroke-opacity:0.24705882352941178;stroke-width:2;stroke-miterlimit:10;stroke-linecap:square;" x1="122" x2="122" y1="205" y2="195"/>
  <rect height="3" style="fill:rgb(255,127,0);fill-opacity:0.7490196078431373;stroke:none;" width="4" x="135" y="296"/>
  <line style="fill:none;stroke:rgb(255,127,0);stroke-opacity:0.24705882352941178;stroke-width:2;stroke-miterlimit:10;stroke-linecap:square;" x1="122" x2="137" y1="193" y2="193"/>
  <line style="fill:none;stroke:rgb(255,127,0);stroke-opacity:0.24705882352941178;stroke-width:2;stroke-miterlimit:10;stroke-linecap:square;" x1="137" x2="137" y1="191" y2="192"/>
  <rect height="10" style="fill:rgb(255,127,0);fill-opacity:0.7490196078431373;stroke:none;" width="4" x="150" y="289"/>
  <line style="fill:none;stroke:rgb(255,127,0);stroke-opacity:0.24705882352941178;stroke-width:2;stroke-miterlimit:10;stroke-linecap:square;" x1="137" x2="152" y1="190" y2="190"/>
  <line style="fill:none;stroke:rgb(255,127,0);stroke-opacity:0.24705882352941178;stroke-width:2;stroke-miterlimit:10;stroke-linecap:square;" x1="152" x2="152" y1="188" y2="182"/>
  <rect height="10" style="fill:rgb(255,127,0);fill-opacity:0.7490196078431373;stroke:none;" width="4" x="164" y="289"/>
  <line style="fill:none;stroke:rgb(255,127,0);stroke-opacity:0.24705882352941178;stroke-width:2;stroke-miterlimit:10;stroke-linecap:square;" x1="152" x2="166" y1="180" y2="180"/>
  <line style="fill:none;stroke:rgb(255,127,0);stroke-opacity:0.24705882352941178;stroke-width:2;stroke-miterlimit:10;stroke-linecap:square;" x1="166" x2="166" y1="178" y2="171"/>
  <rect height="6" style="fill:rgb(255,127,0);fill-opacity:0.7490196078431373;stroke:none;" width="4" x="179" y="293"/>
  <line style="fill:none;stroke:rgb(255,127,0);stroke-opacity:0.24705882352941178;stroke-width:2;stroke-miterlimit:10;stroke-linecap:square;" x1="166" x2="181" y1="169" y2="169"/>
  <line style="fill:none;stroke:rgb(255,127,0);stroke-opacity:0.24705882352941178;stroke-width:2;stroke-miterlimit:10;stroke-linecap:square;" x1="181" x2="181" y1="167" y2="164"/>
  <rect height="17" style="fill:rgb(255,127,0);fill-opacity:0.7490196078431373;stroke:none;" width="4" x="208" y="282"/>
  <line style="fill:none;stroke:rgb(255,127,0);stroke-opacity:0.24705882352941178;stroke-width:2;stroke-miterlimit:10;stroke-linecap:square;" x1="181" x2="210" y1="162" y2="162"/>
  <line style="fill:none;stroke:rgb(255,127,0);stroke-opacity:0.24705882352941178;stroke-width:2;stroke-miterlimit:10;stroke-linecap:square;" x1="210" x2="210" y1="160" y2="147"/>
  <rect height="10" style="fill:rgb(255,127,0);fill-opacity:0.7490196078431373;stroke:none;" width="4" x="223" y="289"/>
  <line style="fill:none;stroke:rgb(255,127,0);stroke-opacity:0.24705882352941178;stroke-width:2;stroke-miterlimit:10;stroke-linecap:square;" x1="210" x2="225" y1="145" y2="145"/>
  <line style="fill:none;stroke:rgb(255,127,0);stroke-opacity:0.24705882352941178;stroke-width:2;stroke-miterlimit:10;stroke-linecap:square;" x1="225" x2="225" y1="143" y2="137"/>
  <rect height="6" style="fill:rgb(255,127,0);fill-opacity:0.7490196078431373;stroke:none;" width="4" x="237" y="293"/>
  <line style="fill:none;stroke:rgb(255,127,0);stroke-opacity:0.24705882352941178;stroke-width:2;stroke-miterlimit:10;stroke-linecap:square;" x1="225" x2="239" y1="135" y2="135"/>
  <line style="fill:none;stroke:rgb(255,127,0);stroke-opacity:0.24705882352941178;stroke-width:2;stroke-miterlimit:10;stroke-linecap:square;" x1="239" x2="239" y1="133" y2="130"/>
  <rect height="27" style="fill:rgb(255,127,0);fill-opacity:0.7490196078431373;stroke:none;" width="4" x="252" y="272"/>
  <line style="fill:none;stroke:rgb(255,127,0);stroke-opacity:0.24705882352941178;stroke-width:2;stroke-miterlimit:10;stroke-linecap:square;" x1="239" x2="254" y1="128" y2="128"/>
  <line style="fill:none;stroke:rgb(255,127,0);stroke-opacity:0.24705882352941178;stroke-width:2;stroke-miterlimit:10;stroke-linecap:square;" x1="254" x2="254" y1="126" y2="103"/>
  <rect height="13" style="fill:rgb(255,127,0);fill-opacity:0.7490196078431373;stroke:none;" width="4" x="266" y="286"/>
  <line style="fill:none;stroke:rgb(255,127,0);stroke-opacity:0.24705882352941178;stroke-width:2;stroke-miterlimit:10;stroke-linecap:square;" x1="254" x2="268" y1="101" y2="101"/>
  <line style="fill:none;stroke:rgb(255,127,0);stroke-opacity:0.24705882352941178;stroke-width:2;stroke-miterlimit:10;stroke-linecap:square;" x1="268" x2="268" y1="99" y2="89"/>
  <rect height="3" style="fill:rgb(255,127,0);fill-opacity:0.7490196078431373;stroke:none;" width="4" x="281" y="296"/>
  <line style="fill:none;stroke:rgb(255,127,0);stroke-opacity:0.24705882352941178;stroke-width:2;stroke-miterlimit:10;stroke-linecap:square;" x1="268" x2="283" y1="87" y2="87"/>
  <line style="fill:none;stroke:rgb(255,127,0);stroke-opacity:0.24705882352941178;stroke-width:2;stroke-miterlimit:10;stroke-linecap:square;" x1="283" x2="283" y1="85" y2="86"/>
  <rect height="3" style="fill:rgb(255,127,0);fill-opacity:0.7490196078431373;stroke:none;" width="4" x="310" y="296"/>
  <line style="fill:none;stroke:rgb(255,127,0);stroke-opacity:0.24705882352941178;stroke-width:2;stroke-miterlimit:10;stroke-linecap:square;" x1="283" x2="312" y1="84" y2="84"/>
  <line style="fill:none;stroke:rgb(255,127,0);stroke-opacity:0.24705882352941178;stroke-width:2;stroke-miterlimit:10;stroke-linecap:square;" x1="312" x2="312" y1="82" y2="82"/>
  <rect height="6" style="fill:rgb(255,127,0);fill-opacity:0.7490196078431373;stroke:none;" width="4" x="339" y="293"/>
  <line style="fill:none;stroke:rgb(255,127,0);stroke-opacity:0.24705882352941178;stroke-width:2;stroke-miterlimit:10;stroke-linecap:square;" x1="312" x2="341" y1="80" y2="80"/>
  <line style="fill:none;stroke:rgb(255,127,0);stroke-opacity:0.24705882352941178;stroke-width:2;stroke-miterlimit:10;stroke-linecap:square;" x1="341" x2="341" y1="78" y2="75"/>
  <rect height="6" style="fill:rgb(255,127,0);fill-opacity:0.7490196078431373;stroke:none;" width="4" x="354" y="293"/>
  <line style="fill:none;stroke:rgb(255,127,0);stroke-opacity:0.24705882352941178;stroke-width:2;stroke-miterlimit:10;stroke-linecap:square;" x1="341" x2="356" y1="73" y2="73"/>
  <line style="fill:none;stroke:rgb(255,127,0);stroke-opacity:0.24705882352941178;stroke-width:2;stroke-miterlimit:10;stroke-linecap:square;" x1="356" x2="356" y1="71" y2="68"/>
  <rect height="3" style="fill:rgb(255,127,0);fill-opacity:0.7490196078431373;stroke:none;" width="4" x="368" y="296"/>
  <line style="fill:none;stroke:rgb(255,127,0);stroke-opacity:0.24705882352941178;stroke-width:2;stroke-miterlimit:10;stroke-linecap:square;" x1="356" x2="370" y1="66" y2="66"/>
  <line style="fill:none;stroke:rgb(255,127,0);stroke-opacity:0.24705882352941178;stroke-width:2;stroke-miterlimit:10;stroke-linecap:square;" x1="370" x2="370" y1="64" y2="65"/>
  <rect height="3" style="fill:rgb(255,127,0);fill-opacity:0.7490196078431373;stroke:none;" width="4" x="383" y="296"/>
  <line style="fill:none;stroke:rgb(255,127,0);stroke-opacity:0.24705882352941178;stroke-width:2;stroke-miterlimit:10;stroke-linecap:square;" x1="370" x2="385" y1="63" y2="63"/>
  <line style="fill:none;stroke:rgb(255,127,0);stroke-opacity:0.24705882352941178;stroke-width:2;stroke-miterlimit:10;stroke-linecap:square;" x1="385" x2="385" y1="61" y2="62"/>
  <line style="fill:none;stroke:rgb(255,127,0);stroke-opacity:0.24705882352941178;stroke-width:2;stroke-miterlimit:10;stroke-linecap:square;" x1="385" x2="400" y1="60" y2="60"/>
  <line style="fill:none;stroke:rgb(255,127,0);stroke-opacity:0.4980392156862745;stroke-miterlimit:2;stroke-dasharray:2;" x1="64" x2="64" y1="300" y2="350"/>
  <line style="fill:none;stroke:rgb(255,127,0);stroke-opacity:0.4980392156862745;stroke-miterlimit:2;stroke-dasharray:2;" x1="64" x2="64" y1="300" y2="365"/>
  <line style="fill:none;stroke:rgb(255,127,0);stroke-opacity:0.4980392156862745;stroke-miterlimit:2;stroke-dasharray:2;" x1="64" x2="64" y1="300" y2="380"/>
  <line style="fill:none;stroke:rgb(255,127,0);stroke-opacity:0.4980392156862745;stroke-miterlimit:2;stroke-dasharray:2;" x1="64" x2="64" y1="300" y2="395"/>
  <line style="fill:none;stroke:rgb(255,127,0);stroke-opacity:0.4980392156862745;stroke-miterlimit:2;stroke-dasharray:2;" x1="64" x2="64" y1="300" y2="410"/>
  <line style="fill:none;stroke:rgb(255,127,0);stroke-opacity:0.4980392156862745;stroke-miterlimit:2;stroke-dasharray:2;" x1="64" x2="64" y1="300" y2="425"/>
  <line style="fill:none;stroke:rgb(255,127,0);stroke-opacity:0.4980392156862745;stroke-miterlimit:2;stroke-dasharray:2;" x1="79" x2="79" y1="300" y2="440"/>
  <line style="fill:none;stroke:rgb(255,127,0);stroke-opacity:0.4980392156862745;stroke-miterlimit:2;stroke-dasharray:2;" x1="79" x2="79" y1="300" y2="455"/>
  <line style="fill:none;stroke:rgb(255,127,0);stroke-opacity:0.4980392156862745;stroke-miterlimit:2;stroke-dasharray:2;" x1="79" x2="79" y1="300" y2="470"/>
  <line style="fill:none;stroke:rgb(255,127,0);stroke-opacity:0.4980392156862745;stroke-miterlimit:2;stroke-dasharray:2;" x1="79" x2="79" y1="300" y2="485"/>
  <line style="fill:none;stroke:rgb(255,127,0);stroke-opacity:0.4980392156862745;stroke-miterlimit:2;stroke-dasharray:2;" x1="79" x2="79" y1="300" y2="500"/>
  <line style="fill:none;stroke:rgb(255,127,0);stroke-opacity:0.4980392156862745;stroke-miterlimit:2;stroke-dasharray:2;" x1="79" x2="79" y1="300" y2="515"/>
  <line style="fill:none;stroke:rgb(255,127,0);stroke-opacity:0.4980392156862745;stroke-miterlimit:2;stroke-dasharray:2;" x1="79" x2="79" y1="300" y2="530"/>
  <line style="fill:none;stroke:rgb(255,127,0);stroke-opacity:0.4980392156862745;stroke-miterlimit:2;stroke-dasharray:2;" x1="79" x2="79" y1="300" y2="545"/>
  <line style="fill:none;stroke:rgb(255,127,0);stroke-opacity:0.4980392156862745;stroke-miterlimit:2;stroke-dasharray:2;" x1="79" x2="79" y1="300" y2="560"/>
  <line style="fill:none;stroke:rgb(255,127,0);stroke-opacity:0.4980392156862745;stroke-miterlimit:2;stroke-dasharray:2;" x1="93" x2="93" y1="300" y2="575"/>
  <line style="fill:none;stroke:rgb(255,127,0);stroke-opacity:0.4980392156862745;stroke-miterlimit:2;stroke-dasharray:2;" x1="93" x2="93" y1="300" y2="590"/>
  <line style="fill:none;stroke:rgb(255,127,0);stroke-opacity:0.4980392156862745;stroke-miterlimit:2;stroke-dasharray:2;" x1="93" x2="93" y1="300" y2="605"/>
  <line style="fill:none;stroke:rgb(255,127,0);stroke-opacity:0.4980392156862745;stroke-miterlimit:2;stroke-dasharray:2;" x1="93" x2="93" y1="300" y2="620"/>
  <line style="fill:none;stroke:rgb(255,127,0);stroke-opacity:0.4980392156862745;stroke-miterlimit:2;stroke-dasharray:2;" x1="93" x2="93" y1="300" y2="635"/>
  <line style="fill:none;stroke:rgb(255,127,0);stroke-opacity:0.4980392156862745;stroke-miterlimit:2;stroke-dasharray:2;" x1="93" x2="93" y1="300" y2="650"/>
  <line style="fill:none;stroke:rgb(255,127,0);stroke-opacity:0.4980392156862745;stroke-miterlimit:2;stroke-dasharray:2;" x1="93" x2="93" y1="300" y2="665"/>
  <line style="fill:none;stroke:rgb(255,127,0);stroke-opacity:0.4980392156862745;stroke-miterlimit:2;stroke-dasharray:2;" x1="108" x2="108" y1="300" y2="680"/>
  <line style="fill:none;stroke:rgb(255,127,0);stroke-opacity:0.4980392156862745;stroke-miterlimit:2;stroke-dasharray:2;" x1="108" x2="108" y1="300" y2="695"/>
  <line style="fill:none;stroke:rgb(255,127,0);stroke-opacity:0.4980392156862745;stroke-miterlimit:2;stroke-dasharray:2;" x1="108" x2="108" y1="300" y2="710"/>
  <line style="fill:none;stroke:rgb(255,127,0);stroke-opacity:0.4980392156862745;stroke-miterlimit:2;stroke-dasharray:2;" x1="108" x2="108" y1="300" y2="725"/>
  <line style="fill:none;stroke:rgb(255,127,0);stroke-opacity:0.4980392156862745;stroke-miterlimit:2;stroke-dasharray:2;" x1="108" x2="108" y1="300" y2="740"/>
  <line style="fill:none;stroke:rgb(255,127,0);stroke-opacity:0.4980392156862745;stroke-miterlimit:2;stroke-dasharray:2;" x1="122" x2="122" y1="300" y2="755"/>
  <line style="fill:none;stroke:rgb(255,127,0);stroke-opacity:0.4980392156862745;stroke-miterlimit:2;stroke-dasharray:2;" x1="122" x2="122" y1="300" y2="770"/>
  <line style="fill:none;stroke:rgb(255,127,0);stroke-opacity:0.4980392156862745;stroke-miterlimit:2;stroke-dasharray:2;" x1="122" x2="122" y1="300" y2="785"/>
  <line style="fill:none;stroke:rgb(255,127,0);stroke-opacity:0.4980392156862745;stroke-miterlimit:2;stroke-dasharray:2;" x1="122" x2="122" y1="300" y2="800"/>
  <line style="fill:none;stroke:rgb(255,127,0);stroke-opacity:0.4980392156862745;stroke-miterlimit:2;stroke-dasharray:2;" x1="137" x2="137" y1="300" y2="815"/>
  <line style="fill:none;stroke:rgb(255,127,0);stroke-opacity:0.4980392156862745;stroke-miterlimit:2;stroke-dasharray:2;" x1="152" x2="152" y1="300" y2="830"/>
  <line style="fill:none;stroke:rgb(255,127,0);stroke-opacity:0.4980392156862745;stroke-miterlimit:2;stroke-dasharray:2;" x1="152" x2="152" y1="300" y2="845"/>
  <line style="fill:none;stroke:rgb(255,127,0);stroke-opacity:0.4980392156862745;stroke-miterlimit:2;stroke-dasharray:2;" x1="152" x2="152" y1="300" y2="860"/>
  <line style="fill:none;stroke:rgb(255,127,0);stroke-opacity:0.4980392156862745;stroke-miterlimit:2;stroke-dasharray:2;" x1="166" x2="166" y1="300" y2="875"/>
  <line style="fill:none;stroke:rgb(255,127,0);stroke-opacity:0.4980392156862745;stroke-miterlimit:2;stroke-dasharray:2;" x1="166" x2="166" y1="300" y2="890"/>
  <line style="fill:none;stroke:rgb(255,127,0);stroke-opacity:0.4980392156862745;stroke-miterlimit:2;stroke-dasharray:2;" x1="166" x2="166" y1="300" y2="905"/>
  <line style="fill:none;stroke:rgb(255,127,0);stroke-opacity:0.4980392156862745;stroke-miterlimit:2;stroke-dasharray:2;" x1="181" x2="181" y1="300" y2="920"/>
  <line style="fill:none;stroke:rgb(255,127,0);stroke-opacity:0.4980392156862745;stroke-miterlimit:2;stroke-dasharray:2;" x1="181" x2="181" y1="300" y2="935"/>
  <line style="fill:none;stroke:rgb(255,127,0);stroke-opacity:0.4980392156862745;stroke-miterlimit:2;stroke-dasharray:2;" x1="210" x2="210" y1="300" y2="949"/>
  <line style="fill:none;stroke:rgb(255,127,0);stroke-opacity:0.4980392156862745;stroke-miterlimit:2;stroke-dasharray:2;" x1="210" x2="210" y1="300" y2="963"/>
  <line style="fill:none;stroke:rgb(255,127,0);stroke-opacity:0.4980392156862745;stroke-miterlimit:2;stroke-dasharray:2;" x1="210" x2="210" y1="300" y2="977"/>
  <line style="fill:none;stroke:rgb(255,127,0);stroke-opacity:0.4980392156862745;stroke-miterlimit:2;stroke-dasharray:2;" x1="210" x2="210" y1="300" y2="991"/>
  <line style="fill:none;stroke:rgb(255,127,0);stroke-opacity:0.4980392156862745;stroke-miterlimit:2;stroke-dasharray:2;" x1="210" x2="210" y1="300" y2="1005"/>
  <line style="fill:none;stroke:rgb(255,127,0);stroke-opacity:0.4980392156862745;stroke-miterlimit:2;stroke-dasharray:2;" x1="225" x2="225" y1="300" y2="1019"/>
  <line style="fill:none;stroke:rgb(255,127,0);stroke-opacity:0.4980392156862745;stroke-miterlimit:2;stroke-dasharray:2;" x1="225" x2="225" y1="300" y2="1033"/>
  <line style="fill:none;stroke:rgb(255,127,0);stroke-opacity:0.4980392156862745;stroke-miterlimit:2;stroke-dasharray:2;" x1="225" x2="225" y1="300" y2="1047"/>
  <line style="fill:none;stroke:rgb(255,127,0);stroke-opacity:0.4980392156862745;stroke-miterlimit:2;stroke-dasharray:2;" x1="239" x2="239" y1="300" y2="1061"/>
  <line style="fill:none;stroke:rgb(255,127,0);stroke-opacity:0.4980392156862745;stroke-miterlimit:2;stroke-dasharray:2;" x1="239" x2="239" y1="300" y2="1075"/>
  <line style="fill:none;stroke:rgb(255,127,0);stroke-opacity:0.4980392156862745;stroke-miterlimit:2;stroke-dasharray:2;" x1="254" x2="254" y1="300" y2="1089"/>
  <line style="fill:none;stroke:rgb(255,127,0);stroke-opacity:0.4980392156862745;stroke-miterlimit:2;stroke-dasharray:2;" x1="254" x2="254" y1="300" y2="1103"/>
  <line style="fill:none;stroke:rgb(255,127,0);stroke-opacity:0.4980392156862745;stroke-miterlimit:2;stroke-dasharray:2;" x1="254" x2="254" y1="300" y2="1117"/>
  <line style="fill:none;stroke:rgb(255,127,0);stroke-opacity:0.4980392156862745;stroke-miterlimit:2;stroke-dasharray:2;" x1="254" x2="254" y1="300" y2="1131"/>
  <line style="fill:none;stroke:rgb(255,127,0);stroke-opacity:0.4980392156862745;stroke-miterlimit:2;stroke-dasharray:2;" x1="254" x2="254" y1="300" y2="1145"/>
  <line style="fill:none;stroke:rgb(255,127,0);stroke-opacity:0.4980392156862745;stroke-miterlimit:2;stroke-dasharray:2;" x1="254" x2="254" y1="300" y2="1159"/>
  <line style="fill:none;stroke:rgb(255,127,0);stroke-opacity:0.4980392156862745;stroke-miterlimit:2;stroke-dasharray:2;" x1="254" x2="254" y1="300" y2="1173"/>
  <line style="fill:none;stroke:rgb(255,127,0);stroke-opacity:0.4980392156862745;stroke-miterlimit:2;stroke-dasharray:2;" x1="254" x2="254" y1="300" y2="1187"/>
  <line style="fill:none;stroke:rgb(255,127,0);stroke-opacity:0.4980392156862745;stroke-miterlimit:2;stroke-dasharray:2;" x1="268" x2="268" y1="300" y2="1201"/>
  <line style="fill:none;stroke:rgb(255,127,0);stroke-opacity:0.4980392156862745;stroke-miterlimit:2;stroke-dasharray:2;" x1="268" x2="268" y1="300" y2="1215"/>
  <line style="fill:none;stroke:rgb(255,127,0);stroke-opacity:0.4980392156862745;stroke-miterlimit:2;stroke-dasharray:2;" x1="268" x2="268" y1="300" y2="1229"/>
  <line style="fill:none;stroke:rgb(255,127,0);stroke-opacity:0.4980392156862745;stroke-miterlimit:2;stroke-dasharray:2;" x1="268" x2="268" y1="300" y2="1243"/>
  <line style="fill:none;stroke:rgb(255,127,0);stroke-opacity:0.4980392156862745;stroke-miterlimit:2;stroke-dasharray:2;" x1="283" x2="283" y1="300" y2="1257"/>
  <line style="fill:none;stroke:rgb(255,127,0);stroke-opacity:0.4980392156862745;stroke-miterlimit:2;stroke-dasharray:2;" x1="312" x2="312" y1="300" y2="1271"/>
  <line style="fill:none;stroke:rgb(255,127,0);stroke-opacity:0.4980392156862745;stroke-miterlimit:2;stroke-dasharray:2;" x1="341" x2="341" y1="300" y2="350"/>
  <line style="fill:none;stroke:rgb(255,127,0);stroke-opacity:0.4980392156862745;stroke-miterlimit:2;stroke-dasharray:2;" x1="341" x2="341" y1="300" y2="364"/>
  <line style="fill:none;stroke:rgb(255,127,0);stroke-opacity:0.4980392156862745;stroke-miterlimit:2;stroke-dasharray:2;" x1="356" x2="356" y1="300" y2="378"/>
  <line style="fill:none;stroke:rgb(255,127,0);stroke-opacity:0.4980392156862745;stroke-miterlimit:2;stroke-dasharray:2;" x1="356" x2="356" y1="300" y2="392"/>
  <line style="fill:none;stroke:rgb(255,127,0);stroke-opacity:0.4980392156862745;stroke-miterlimit:2;stroke-dasharray:2;" x1="370" x2="370" y1="300" y2="406"/>
  <line style="fill:none;stroke:rgb(255,127,0);stroke-opacity:0.4980392156862745;stroke-miterlimit:2;stroke-dasharray:2;" x1="385" x2="385" y1="300" y2="420"/>
  <line style="fill:none;stroke:rgb(0,0,0);stroke-width:2;stroke-miterlimit:10;stroke-linecap:square;" x1="48" x2="48" y1="60" y2="300"/>
  <line style="fill:none;stroke:rgb(0,0,0);stroke-width:2;stroke-miterlimit:10;stroke-linecap:square;" x1="48" x2="402" y1="300" y2="300"/>
  <rect height="30" style="fill:rgb(255,255,255);stroke:none;" width="17" x="42" y="308"/>
  <text style="fill:rgb(0,0,0);stroke:none;font-size:25px;font-weight:bold;" x="42" y="332">0</text>
  <rect height="30" style="fill:rgb(255,255,255);stroke:none;" width="34" x="383" y="308"/>
  <text style="fill:rgb(0,0,0);stroke:none;font-size:25px;font-weight:bold;" x="383" y="332">24</text>
  <text style="fill:rgb(0,0,0);stroke:none;font-size:25px;font-weight:bold;" x="25" y="312">0</text>
  <text style="fill:rgb(0,0,0);stroke:none;font-size:25px;font-weight:bold;" x="25" y="72">1</text>
  <text style="fill:rgb(0,0,0);stroke:none;font-size:25px;font-weight:bold;" x="16" y="42">KRIEG_HYPOXIA_NOT_VIA_KDM3A</text>
  <rect height="12" style="fill:rgb(255,255,255);stroke:none;" width="41" x="64" y="338"/>
  <text style="fill:rgb(128,128,128);stroke:none;" x="64" y="350">GPER1</text>
  <rect height="12" style="fill:rgb(255,255,255);stroke:none;" width="39" x="64" y="353"/>
  <text style="fill:rgb(128,128,128);stroke:none;" x="64" y="365">PPTC7</text>
  <rect height="12" style="fill:rgb(255,255,255);stroke:none;" width="33" x="64" y="368"/>
  <text style="fill:rgb(128,128,128);stroke:none;" x="64" y="380">NFIL3</text>
  <rect height="12" style="fill:rgb(255,255,255);stroke:none;" width="58" x="64" y="383"/>
  <text style="fill:rgb(128,128,128);stroke:none;" x="64" y="395">HNRNPDL</text>
  <rect height="12" style="fill:rgb(255,255,255);stroke:none;" width="55" x="64" y="398"/>
  <text style="fill:rgb(128,128,128);stroke:none;" x="64" y="410">KBTBD11</text>
  <rect height="12" style="fill:rgb(255,255,255);stroke:none;" width="60" x="64" y="413"/>
  <text style="fill:rgb(128,128,128);stroke:none;" x="64" y="425">SERPINE2</text>
  <rect height="12" style="fill:rgb(255,255,255);stroke:none;" width="29" x="79" y="428"/>
  <text style="fill:rgb(128,128,128);stroke:none;" x="79" y="440">ING2</text>
  <rect height="12" style="fill:rgb(255,255,255);stroke:none;" width="25" x="79" y="443"/>
  <text style="fill:rgb(128,128,128);stroke:none;" x="79" y="455">FJX1</text>
  <rect height="12" style="fill:rgb(255,255,255);stroke:none;" width="33" x="79" y="458"/>
  <text style="fill:rgb(128,128,128);stroke:none;" x="79" y="470">CDS2</text>
  <rect height="12" style="fill:rgb(255,255,255);stroke:none;" width="41" x="79" y="473"/>
  <text style="fill:rgb(128,128,128);stroke:none;" x="79" y="485">USP31</text>
  <rect height="12" style="fill:rgb(255,255,255);stroke:none;" width="40" x="79" y="488"/>
  <text style="fill:rgb(128,128,128);stroke:none;" x="79" y="500">STBD1</text>
  <rect height="12" style="fill:rgb(255,255,255);stroke:none;" width="39" x="79" y="503"/>
  <text style="fill:rgb(128,128,128);stroke:none;" x="79" y="515">FUT11</text>
  <rect height="12" style="fill:rgb(255,255,255);stroke:none;" width="40" x="79" y="518"/>
  <text style="fill:rgb(128,128,128);stroke:none;" x="79" y="530">FOXN3</text>
  <rect height="12" style="fill:rgb(255,255,255);stroke:none;" width="46" x="79" y="533"/>
  <text style="fill:rgb(128,128,128);stroke:none;" x="79" y="545">SLC2A1</text>
  <rect height="12" style="fill:rgb(255,255,255);stroke:none;" width="57" x="79" y="548"/>
  <text style="fill:rgb(128,128,128);stroke:none;" x="79" y="560">FAM107B</text>
  <rect height="12" style="fill:rgb(255,255,255);stroke:none;" width="24" x="93" y="563"/>
  <text style="fill:rgb(128,128,128);stroke:none;" x="93" y="575">HK2</text>
  <rect height="12" style="fill:rgb(255,255,255);stroke:none;" width="32" x="93" y="578"/>
  <text style="fill:rgb(128,128,128);stroke:none;" x="93" y="590">PDK1</text>
  <rect height="12" style="fill:rgb(255,255,255);stroke:none;" width="36" x="93" y="593"/>
  <text style="fill:rgb(128,128,128);stroke:none;" x="93" y="605">DDIT4</text>
  <rect height="12" style="fill:rgb(255,255,255);stroke:none;" width="50" x="93" y="608"/>
  <text style="fill:rgb(128,128,128);stroke:none;" x="93" y="620">DHRS13</text>
  <rect height="12" style="fill:rgb(255,255,255);stroke:none;" width="46" x="93" y="623"/>
  <text style="fill:rgb(128,128,128);stroke:none;" x="93" y="635">DPYSL3</text>
  <rect height="12" style="fill:rgb(255,255,255);stroke:none;" width="55" x="93" y="638"/>
  <text style="fill:rgb(128,128,128);stroke:none;" x="93" y="650">GALNT18</text>
  <rect height="12" style="fill:rgb(255,255,255);stroke:none;" width="56" x="93" y="653"/>
  <text style="fill:rgb(128,128,128);stroke:none;" x="93" y="665">PPP1R3C</text>
  <rect height="12" style="fill:rgb(255,255,255);stroke:none;" width="34" x="108" y="668"/>
  <text style="fill:rgb(128,128,128);stroke:none;" x="108" y="680">ANO6</text>
  <rect height="12" style="fill:rgb(255,255,255);stroke:none;" width="38" x="108" y="683"/>
  <text style="fill:rgb(128,128,128);stroke:none;" x="108" y="695">ARNTL</text>
  <rect height="12" style="fill:rgb(255,255,255);stroke:none;" width="40" x="108" y="698"/>
  <text style="fill:rgb(128,128,128);stroke:none;" x="108" y="710">CALM1</text>
  <rect height="12" style="fill:rgb(255,255,255);stroke:none;" width="50" x="108" y="713"/>
  <text style="fill:rgb(128,128,128);stroke:none;" x="108" y="725">PMEPA1</text>
  <rect height="12" style="fill:rgb(255,255,255);stroke:none;" width="42" x="108" y="728"/>
  <text style="fill:rgb(128,128,128);stroke:none;" x="108" y="740">BNIP3L</text>
  <rect height="12" style="fill:rgb(255,255,255);stroke:none;" width="34" x="122" y="743"/>
  <text style="fill:rgb(128,128,128);stroke:none;" x="122" y="755">ENO2</text>
  <rect height="12" style="fill:rgb(255,255,255);stroke:none;" width="32" x="122" y="758"/>
  <text style="fill:rgb(128,128,128);stroke:none;" x="122" y="770">LDHA</text>
  <rect height="12" style="fill:rgb(255,255,255);stroke:none;" width="30" x="122" y="773"/>
  <text style="fill:rgb(128,128,128);stroke:none;" x="122" y="785">PFKP</text>
  <rect height="12" style="fill:rgb(255,255,255);stroke:none;" width="42" x="122" y="788"/>
  <text style="fill:rgb(128,128,128);stroke:none;" x="122" y="800">PPFIA4</text>
  <rect height="12" style="fill:rgb(255,255,255);stroke:none;" width="35" x="137" y="803"/>
  <text style="fill:rgb(128,128,128);stroke:none;" x="137" y="815">PGM1</text>
  <rect height="12" style="fill:rgb(255,255,255);stroke:none;" width="40" x="152" y="818"/>
  <text style="fill:rgb(128,128,128);stroke:none;" x="152" y="830">MTFP1</text>
  <rect height="12" style="fill:rgb(255,255,255);stroke:none;" width="39" x="152" y="833"/>
  <text style="fill:rgb(128,128,128);stroke:none;" x="152" y="845">TGFB1</text>
  <rect height="12" style="fill:rgb(255,255,255);stroke:none;" width="46" x="152" y="848"/>
  <text style="fill:rgb(128,128,128);stroke:none;" x="152" y="860">SLC6A8</text>
  <rect height="12" style="fill:rgb(255,255,255);stroke:none;" width="32" x="166" y="863"/>
  <text style="fill:rgb(128,128,128);stroke:none;" x="166" y="875">RRP1</text>
  <rect height="12" style="fill:rgb(255,255,255);stroke:none;" width="27" x="166" y="878"/>
  <text style="fill:rgb(128,128,128);stroke:none;" x="166" y="890">IER3</text>
  <rect height="12" style="fill:rgb(255,255,255);stroke:none;" width="40" x="166" y="893"/>
  <text style="fill:rgb(128,128,128);stroke:none;" x="166" y="905">SAP30</text>
  <rect height="12" style="fill:rgb(255,255,255);stroke:none;" width="35" x="181" y="908"/>
  <text style="fill:rgb(128,128,128);stroke:none;" x="181" y="920">ITGA3</text>
  <rect height="12" style="fill:rgb(255,255,255);stroke:none;" width="62" x="181" y="923"/>
  <text style="fill:rgb(128,128,128);stroke:none;" x="181" y="935">SLC6A10P</text>
  <rect height="11" style="fill:rgb(255,255,255);stroke:none;" width="19" x="210" y="938"/>
  <text style="fill:rgb(128,128,128);stroke:none;font-size:11px;" x="210" y="949">MPI</text>
  <rect height="11" style="fill:rgb(255,255,255);stroke:none;" width="28" x="210" y="952"/>
  <text style="fill:rgb(128,128,128);stroke:none;font-size:11px;" x="210" y="963">BFAR</text>
  <rect height="11" style="fill:rgb(255,255,255);stroke:none;" width="36" x="210" y="966"/>
  <text style="fill:rgb(128,128,128);stroke:none;font-size:11px;" x="210" y="977">DCAF7</text>
  <rect height="11" style="fill:rgb(255,255,255);stroke:none;" width="37" x="210" y="980"/>
  <text style="fill:rgb(128,128,128);stroke:none;font-size:11px;" x="210" y="991">CSRP2</text>
  <rect height="11" style="fill:rgb(255,255,255);stroke:none;" width="38" x="210" y="994"/>
  <text style="fill:rgb(128,128,128);stroke:none;font-size:11px;" x="210" y="1005">AMPD2</text>
  <rect height="11" style="fill:rgb(255,255,255);stroke:none;" width="39" x="225" y="1008"/>
  <text style="fill:rgb(128,128,128);stroke:none;font-size:11px;" x="225" y="1019">ARID5A</text>
  <rect height="11" style="fill:rgb(255,255,255);stroke:none;" width="47" x="225" y="1022"/>
  <text style="fill:rgb(128,128,128);stroke:none;font-size:11px;" x="225" y="1033">SNHG12</text>
  <rect height="11" style="fill:rgb(255,255,255);stroke:none;" width="50" x="225" y="1036"/>
  <text style="fill:rgb(128,128,128);stroke:none;font-size:11px;" x="225" y="1047">PPP2R5B</text>
  <rect height="11" style="fill:rgb(255,255,255);stroke:none;" width="44" x="239" y="1050"/>
  <text style="fill:rgb(128,128,128);stroke:none;font-size:11px;" x="239" y="1061">KCTD15</text>
  <rect height="11" style="fill:rgb(255,255,255);stroke:none;" width="50" x="239" y="1064"/>
  <text style="fill:rgb(128,128,128);stroke:none;font-size:11px;" x="239" y="1075">SLC26A6</text>
  <rect height="11" style="fill:rgb(255,255,255);stroke:none;" width="24" x="254" y="1078"/>
  <text style="fill:rgb(128,128,128);stroke:none;font-size:11px;" x="254" y="1089">JPT2</text>
  <rect height="11" style="fill:rgb(255,255,255);stroke:none;" width="31" x="254" y="1092"/>
  <text style="fill:rgb(128,128,128);stroke:none;font-size:11px;" x="254" y="1103">THBD</text>
  <rect height="11" style="fill:rgb(255,255,255);stroke:none;" width="26" x="254" y="1106"/>
  <text style="fill:rgb(128,128,128);stroke:none;font-size:11px;" x="254" y="1117">OIP5</text>
  <rect height="11" style="fill:rgb(255,255,255);stroke:none;" width="38" x="254" y="1120"/>
  <text style="fill:rgb(128,128,128);stroke:none;font-size:11px;" x="254" y="1131">ABCB6</text>
  <rect height="11" style="fill:rgb(255,255,255);stroke:none;" width="37" x="254" y="1134"/>
  <text style="fill:rgb(128,128,128);stroke:none;font-size:11px;" x="254" y="1145">NUAK1</text>
  <rect height="11" style="fill:rgb(255,255,255);stroke:none;" width="38" x="254" y="1148"/>
  <text style="fill:rgb(128,128,128);stroke:none;font-size:11px;" x="254" y="1159">DRAM1</text>
  <rect height="11" style="fill:rgb(255,255,255);stroke:none;" width="47" x="254" y="1162"/>
  <text style="fill:rgb(128,128,128);stroke:none;font-size:11px;" x="254" y="1173">CCDC9B</text>
  <rect height="11" style="fill:rgb(255,255,255);stroke:none;" width="47" x="254" y="1176"/>
  <text style="fill:rgb(128,128,128);stroke:none;font-size:11px;" x="254" y="1187">DBNDD2</text>
  <rect height="11" style="fill:rgb(255,255,255);stroke:none;" width="23" x="268" y="1190"/>
  <text style="fill:rgb(128,128,128);stroke:none;font-size:11px;" x="268" y="1201">ZYX</text>
  <rect height="11" style="fill:rgb(255,255,255);stroke:none;" width="24" x="268" y="1204"/>
  <text style="fill:rgb(128,128,128);stroke:none;font-size:11px;" x="268" y="1215">IRX3</text>
  <rect height="11" style="fill:rgb(255,255,255);stroke:none;" width="36" x="268" y="1218"/>
  <text style="fill:rgb(128,128,128);stroke:none;font-size:11px;" x="268" y="1229">APOL2</text>
  <rect height="11" style="fill:rgb(255,255,255);stroke:none;" width="57" x="268" y="1232"/>
  <text style="fill:rgb(128,128,128);stroke:none;font-size:11px;" x="268" y="1243">SLC39A14</text>
  <rect height="11" style="fill:rgb(255,255,255);stroke:none;" width="38" x="283" y="1246"/>
  <text style="fill:rgb(128,128,128);stroke:none;font-size:11px;" x="283" y="1257">ACTG1</text>
  <rect height="11" style="fill:rgb(255,255,255);stroke:none;" width="24" x="312" y="1260"/>
  <text style="fill:rgb(128,128,128);stroke:none;font-size:11px;" x="312" y="1271">NHS</text>
  <rect height="11" style="fill:rgb(255,255,255);stroke:none;" width="25" x="341" y="339"/>
  <text style="fill:rgb(128,128,128);stroke:none;font-size:11px;" x="341" y="350">IRS2</text>
  <rect height="11" style="fill:rgb(255,255,255);stroke:none;" width="46" x="341" y="353"/>
  <text style="fill:rgb(128,128,128);stroke:none;font-size:11px;" x="341" y="364">CCDC80</text>
  <rect height="11" style="fill:rgb(255,255,255);stroke:none;" width="38" x="356" y="367"/>
  <text style="fill:rgb(128,128,128);stroke:none;font-size:11px;" x="356" y="378">DUSP1</text>
  <rect height="11" style="fill:rgb(255,255,255);stroke:none;" width="40" x="356" y="381"/>
  <text style="fill:rgb(128,128,128);stroke:none;font-size:11px;" x="356" y="392">IGFBP3</text>
  <rect height="11" style="fill:rgb(255,255,255);stroke:none;" width="45" x="370" y="395"/>
  <text style="fill:rgb(128,128,128);stroke:none;font-size:11px;" x="370" y="406">TNFAIP6</text>
  <rect height="11" style="fill:rgb(255,255,255);stroke:none;" width="40" x="385" y="409"/>
  <text style="fill:rgb(128,128,128);stroke:none;font-size:11px;" x="385" y="420">LHFPL6</text>
</svg>
