<?xml version="1.0" encoding="UTF-8" standalone="no"?>
<!DOCTYPE svg PUBLIC "-//W3C//DTD SVG 1.1//EN" "http://www.w3.org/Graphics/SVG/1.1/DTD/svg11.dtd">
<svg xmlns:xlink="http://www.w3.org/1999/xlink" height="158.74999999999997mm" version="1.1" viewBox="0 0 500 600" width="132.29166666666666mm" x="0mm" y="0mm" xmlns="http://www.w3.org/2000/svg">
  <rect height="1200" style="fill:rgb(255,255,255);stroke:none;" width="1000" x="0" y="0"/>
  <rect height="240" style="fill:rgb(191,191,191);fill-opacity:0.4980392156862745;stroke:none;" width="175" x="225" y="60"/>
  <rect height="14" style="fill:rgb(63,63,191);fill-opacity:0.7490196078431373;stroke:none;" width="2" x="49" y="285"/>
  <line style="fill:none;stroke:rgb(63,63,191);stroke-opacity:0.24705882352941178;stroke-miterlimit:10;stroke-linecap:square;" x1="50" x2="50" y1="300" y2="300"/>
  <line style="fill:none;stroke:rgb(63,63,191);stroke-opacity:0.24705882352941178;stroke-miterlimit:10;stroke-linecap:square;" x1="50" x2="50" y1="299" y2="286"/>
  <rect height="32" style="fill:rgb(63,63,191);fill-opacity:0.7490196078431373;stroke:none;" width="2" x="63" y="267"/>
  <line style="fill:none;stroke:rgb(63,63,191);stroke-opacity:0.24705882352941178;stroke-miterlimit:10;stroke-linecap:square;" x1="50" x2="64" y1="285" y2="285"/>
  <line style="fill:none;stroke:rgb(63,63,191);stroke-opacity:0.24705882352941178;stroke-miterlimit:10;stroke-linecap:square;" x1="64" x2="64" y1="284" y2="253"/>
  <rect height="25" style="fill:rgb(63,63,191);fill-opacity:0.7490196078431373;stroke:none;" width="2" x="78" y="274"/>
  <line style="fill:none;stroke:rgb(63,63,191);stroke-opacity:0.24705882352941178;stroke-miterlimit:10;stroke-linecap:square;" x1="64" x2="79" y1="252" y2="252"/>
  <line style="fill:none;stroke:rgb(63,63,191);stroke-opacity:0.24705882352941178;stroke-miterlimit:10;stroke-linecap:square;" x1="79" x2="79" y1="251" y2="228"/>
  <rect height="17" style="fill:rgb(63,63,191);fill-opacity:0.7490196078431373;stroke:none;" width="2" x="92" y="282"/>
  <line style="fill:none;stroke:rgb(63,63,191);stroke-opacity:0.24705882352941178;stroke-miterlimit:10;stroke-linecap:square;" x1="79" x2="93" y1="227" y2="227"/>
  <line style="fill:none;stroke:rgb(63,63,191);stroke-opacity:0.24705882352941178;stroke-miterlimit:10;stroke-linecap:square;" x1="93" x2="93" y1="226" y2="210"/>
  <rect height="9" style="fill:rgb(63,63,191);fill-opacity:0.7490196078431373;stroke:none;" width="2" x="107" y="290"/>
  <line style="fill:none;stroke:rgb(63,63,191);stroke-opacity:0.24705882352941178;stroke-miterlimit:10;stroke-linecap:square;" x1="93" x2="108" y1="209" y2="209"/>
  <line style="fill:none;stroke:rgb(63,63,191);stroke-opacity:0.24705882352941178;stroke-miterlimit:10;stroke-linecap:square;" x1="108" x2="108" y1="208" y2="200"/>
  <rect height="5" style="fill:rgb(63,63,191);fill-opacity:0.7490196078431373;stroke:none;" width="2" x="121" y="294"/>
  <line style="fill:none;stroke:rgb(63,63,191);stroke-opacity:0.24705882352941178;stroke-miterlimit:10;stroke-linecap:square;" x1="108" x2="122" y1="199" y2="199"/>
  <line style="fill:none;stroke:rgb(63,63,191);stroke-opacity:0.24705882352941178;stroke-miterlimit:10;stroke-linecap:square;" x1="122" x2="122" y1="198" y2="195"/>
  <rect height="3" style="fill:rgb(63,63,191);fill-opacity:0.7490196078431373;stroke:none;" width="2" x="136" y="296"/>
  <line style="fill:none;stroke:rgb(63,63,191);stroke-opacity:0.24705882352941178;stroke-miterlimit:10;stroke-linecap:square;" x1="122" x2="137" y1="194" y2="194"/>
  <line style="fill:none;stroke:rgb(63,63,191);stroke-opacity:0.24705882352941178;stroke-miterlimit:10;stroke-linecap:square;" x1="137" x2="137" y1="193" y2="192"/>
  <rect height="2" style="fill:rgb(63,63,191);fill-opacity:0.7490196078431373;stroke:none;" width="2" x="151" y="297"/>
  <line style="fill:none;stroke:rgb(63,63,191);stroke-opacity:0.24705882352941178;stroke-miterlimit:10;stroke-linecap:square;" x1="137" x2="152" y1="191" y2="191"/>
  <line style="fill:none;stroke:rgb(63,63,191);stroke-opacity:0.24705882352941178;stroke-miterlimit:10;stroke-linecap:square;" x1="152" x2="152" y1="190" y2="189"/>
  <rect height="4" style="fill:rgb(63,63,191);fill-opacity:0.7490196078431373;stroke:none;" width="2" x="165" y="295"/>
  <line style="fill:none;stroke:rgb(63,63,191);stroke-opacity:0.24705882352941178;stroke-miterlimit:10;stroke-linecap:square;" x1="152" x2="166" y1="188" y2="188"/>
  <line style="fill:none;stroke:rgb(63,63,191);stroke-opacity:0.24705882352941178;stroke-miterlimit:10;stroke-linecap:square;" x1="166" x2="166" y1="187" y2="185"/>
  <rect height="3" style="fill:rgb(63,63,191);fill-opacity:0.7490196078431373;stroke:none;" width="2" x="180" y="296"/>
  <line style="fill:none;stroke:rgb(63,63,191);stroke-opacity:0.24705882352941178;stroke-miterlimit:10;stroke-linecap:square;" x1="166" x2="181" y1="184" y2="184"/>
  <line style="fill:none;stroke:rgb(63,63,191);stroke-opacity:0.24705882352941178;stroke-miterlimit:10;stroke-linecap:square;" x1="181" x2="181" y1="183" y2="181"/>
  <rect height="4" style="fill:rgb(63,63,191);fill-opacity:0.7490196078431373;stroke:none;" width="2" x="194" y="295"/>
  <line style="fill:none;stroke:rgb(63,63,191);stroke-opacity:0.24705882352941178;stroke-miterlimit:10;stroke-linecap:square;" x1="181" x2="195" y1="180" y2="180"/>
  <line style="fill:none;stroke:rgb(63,63,191);stroke-opacity:0.24705882352941178;stroke-miterlimit:10;stroke-linecap:square;" x1="195" x2="195" y1="179" y2="177"/>
  <rect height="4" style="fill:rgb(63,63,191);fill-opacity:0.7490196078431373;stroke:none;" width="2" x="209" y="295"/>
  <line style="fill:none;stroke:rgb(63,63,191);stroke-opacity:0.24705882352941178;stroke-miterlimit:10;stroke-linecap:square;" x1="195" x2="210" y1="176" y2="176"/>
  <line style="fill:none;stroke:rgb(63,63,191);stroke-opacity:0.24705882352941178;stroke-miterlimit:10;stroke-linecap:square;" x1="210" x2="210" y1="175" y2="172"/>
  <rect height="10" style="fill:rgb(63,63,191);fill-opacity:0.7490196078431373;stroke:none;" width="2" x="224" y="289"/>
  <line style="fill:none;stroke:rgb(63,63,191);stroke-opacity:0.24705882352941178;stroke-miterlimit:10;stroke-linecap:square;" x1="210" x2="225" y1="171" y2="171"/>
  <line style="fill:none;stroke:rgb(63,63,191);stroke-opacity:0.24705882352941178;stroke-miterlimit:10;stroke-linecap:square;" x1="225" x2="225" y1="170" y2="162"/>
  <rect height="14" style="fill:rgb(63,63,191);fill-opacity:0.7490196078431373;stroke:none;" width="2" x="238" y="285"/>
  <line style="fill:none;stroke:rgb(63,63,191);stroke-opacity:0.24705882352941178;stroke-miterlimit:10;stroke-linecap:square;" x1="225" x2="239" y1="161" y2="161"/>
  <line style="fill:none;stroke:rgb(63,63,191);stroke-opacity:0.24705882352941178;stroke-miterlimit:10;stroke-linecap:square;" x1="239" x2="239" y1="160" y2="147"/>
  <rect height="13" style="fill:rgb(63,63,191);fill-opacity:0.7490196078431373;stroke:none;" width="2" x="253" y="286"/>
  <line style="fill:none;stroke:rgb(63,63,191);stroke-opacity:0.24705882352941178;stroke-miterlimit:10;stroke-linecap:square;" x1="239" x2="254" y1="146" y2="146"/>
  <line style="fill:none;stroke:rgb(63,63,191);stroke-opacity:0.24705882352941178;stroke-miterlimit:10;stroke-linecap:square;" x1="254" x2="254" y1="145" y2="134"/>
  <rect height="9" style="fill:rgb(63,63,191);fill-opacity:0.7490196078431373;stroke:none;" width="2" x="267" y="290"/>
  <line style="fill:none;stroke:rgb(63,63,191);stroke-opacity:0.24705882352941178;stroke-miterlimit:10;stroke-linecap:square;" x1="254" x2="268" y1="133" y2="133"/>
  <line style="fill:none;stroke:rgb(63,63,191);stroke-opacity:0.24705882352941178;stroke-miterlimit:10;stroke-linecap:square;" x1="268" x2="268" y1="132" y2="124"/>
  <rect height="7" style="fill:rgb(63,63,191);fill-opacity:0.7490196078431373;stroke:none;" width="2" x="282" y="292"/>
  <line style="fill:none;stroke:rgb(63,63,191);stroke-opacity:0.24705882352941178;stroke-miterlimit:10;stroke-linecap:square;" x1="268" x2="283" y1="123" y2="123"/>
  <line style="fill:none;stroke:rgb(63,63,191);stroke-opacity:0.24705882352941178;stroke-miterlimit:10;stroke-linecap:square;" x1="283" x2="283" y1="122" y2="116"/>
  <rect height="5" style="fill:rgb(63,63,191);fill-opacity:0.7490196078431373;stroke:none;" width="2" x="296" y="294"/>
  <line style="fill:none;stroke:rgb(63,63,191);stroke-opacity:0.24705882352941178;stroke-miterlimit:10;stroke-linecap:square;" x1="283" x2="297" y1="115" y2="115"/>
  <line style="fill:none;stroke:rgb(63,63,191);stroke-opacity:0.24705882352941178;stroke-miterlimit:10;stroke-linecap:square;" x1="297" x2="297" y1="114" y2="111"/>
  <rect height="3" style="fill:rgb(63,63,191);fill-opacity:0.7490196078431373;stroke:none;" width="2" x="311" y="296"/>
  <line style="fill:none;stroke:rgb(63,63,191);stroke-opacity:0.24705882352941178;stroke-miterlimit:10;stroke-linecap:square;" x1="297" x2="312" y1="110" y2="110"/>
  <line style="fill:none;stroke:rgb(63,63,191);stroke-opacity:0.24705882352941178;stroke-miterlimit:10;stroke-linecap:square;" x1="312" x2="312" y1="109" y2="107"/>
  <rect height="2" style="fill:rgb(63,63,191);fill-opacity:0.7490196078431373;stroke:none;" width="2" x="326" y="297"/>
  <line style="fill:none;stroke:rgb(63,63,191);stroke-opacity:0.24705882352941178;stroke-miterlimit:10;stroke-linecap:square;" x1="312" x2="327" y1="106" y2="106"/>
  <line style="fill:none;stroke:rgb(63,63,191);stroke-opacity:0.24705882352941178;stroke-miterlimit:10;stroke-linecap:square;" x1="327" x2="327" y1="105" y2="105"/>
  <rect height="2" style="fill:rgb(63,63,191);fill-opacity:0.7490196078431373;stroke:none;" width="2" x="340" y="297"/>
  <line style="fill:none;stroke:rgb(63,63,191);stroke-opacity:0.24705882352941178;stroke-miterlimit:10;stroke-linecap:square;" x1="327" x2="341" y1="104" y2="104"/>
  <line style="fill:none;stroke:rgb(63,63,191);stroke-opacity:0.24705882352941178;stroke-miterlimit:10;stroke-linecap:square;" x1="341" x2="341" y1="103" y2="102"/>
  <rect height="4" style="fill:rgb(63,63,191);fill-opacity:0.7490196078431373;stroke:none;" width="2" x="355" y="295"/>
  <line style="fill:none;stroke:rgb(63,63,191);stroke-opacity:0.24705882352941178;stroke-miterlimit:10;stroke-linecap:square;" x1="341" x2="356" y1="101" y2="101"/>
  <line style="fill:none;stroke:rgb(63,63,191);stroke-opacity:0.24705882352941178;stroke-miterlimit:10;stroke-linecap:square;" x1="356" x2="356" y1="100" y2="97"/>
  <rect height="8" style="fill:rgb(63,63,191);fill-opacity:0.7490196078431373;stroke:none;" width="2" x="369" y="291"/>
  <line style="fill:none;stroke:rgb(63,63,191);stroke-opacity:0.24705882352941178;stroke-miterlimit:10;stroke-linecap:square;" x1="356" x2="370" y1="96" y2="96"/>
  <line style="fill:none;stroke:rgb(63,63,191);stroke-opacity:0.24705882352941178;stroke-miterlimit:10;stroke-linecap:square;" x1="370" x2="370" y1="95" y2="89"/>
  <rect height="18" style="fill:rgb(63,63,191);fill-opacity:0.7490196078431373;stroke:none;" width="2" x="384" y="281"/>
  <line style="fill:none;stroke:rgb(63,63,191);stroke-opacity:0.24705882352941178;stroke-miterlimit:10;stroke-linecap:square;" x1="370" x2="385" y1="88" y2="88"/>
  <line style="fill:none;stroke:rgb(63,63,191);stroke-opacity:0.24705882352941178;stroke-miterlimit:10;stroke-linecap:square;" x1="385" x2="385" y1="87" y2="71"/>
  <rect height="10" style="fill:rgb(63,63,191);fill-opacity:0.7490196078431373;stroke:none;" width="2" x="399" y="289"/>
  <line style="fill:none;stroke:rgb(63,63,191);stroke-opacity:0.24705882352941178;stroke-miterlimit:10;stroke-linecap:square;" x1="385" x2="400" y1="70" y2="70"/>
  <line style="fill:none;stroke:rgb(63,63,191);stroke-opacity:0.24705882352941178;stroke-miterlimit:10;stroke-linecap:square;" x1="400" x2="400" y1="69" y2="61"/>
  <line style="fill:none;stroke:rgb(63,63,191);stroke-opacity:0.24705882352941178;stroke-miterlimit:10;stroke-linecap:square;" x1="400" x2="400" y1="60" y2="60"/>
  <rect height="21" style="fill:rgb(255,127,0);fill-opacity:0.7490196078431373;stroke:none;" width="4" x="48" y="278"/>
  <line style="fill:none;stroke:rgb(255,127,0);stroke-opacity:0.24705882352941178;stroke-width:2;stroke-miterlimit:10;stroke-linecap:square;" x1="50" x2="50" y1="300" y2="300"/>
  <line style="fill:none;stroke:rgb(255,127,0);stroke-opacity:0.24705882352941178;stroke-width:2;stroke-miterlimit:10;stroke-linecap:square;" x1="50" x2="50" y1="298" y2="280"/>
  <rect height="10" style="fill:rgb(255,127,0);fill-opacity:0.7490196078431373;stroke:none;" width="4" x="77" y="289"/>
  <line style="fill:none;stroke:rgb(255,127,0);stroke-opacity:0.24705882352941178;stroke-width:2;stroke-miterlimit:10;stroke-linecap:square;" x1="50" x2="79" y1="278" y2="278"/>
  <line style="fill:none;stroke:rgb(255,127,0);stroke-opacity:0.24705882352941178;stroke-width:2;stroke-miterlimit:10;stroke-linecap:square;" x1="79" x2="79" y1="276" y2="269"/>
  <rect height="10" style="fill:rgb(255,127,0);fill-opacity:0.7490196078431373;stroke:none;" width="4" x="120" y="289"/>
  <line style="fill:none;stroke:rgb(255,127,0);stroke-opacity:0.24705882352941178;stroke-width:2;stroke-miterlimit:10;stroke-linecap:square;" x1="79" x2="122" y1="267" y2="267"/>
  <line style="fill:none;stroke:rgb(255,127,0);stroke-opacity:0.24705882352941178;stroke-width:2;stroke-miterlimit:10;stroke-linecap:square;" x1="122" x2="122" y1="265" y2="258"/>
  <rect height="10" style="fill:rgb(255,127,0);fill-opacity:0.7490196078431373;stroke:none;" width="4" x="223" y="289"/>
  <line style="fill:none;stroke:rgb(255,127,0);stroke-opacity:0.24705882352941178;stroke-width:2;stroke-miterlimit:10;stroke-linecap:square;" x1="122" x2="225" y1="256" y2="256"/>
  <line style="fill:none;stroke:rgb(255,127,0);stroke-opacity:0.24705882352941178;stroke-width:2;stroke-miterlimit:10;stroke-linecap:square;" x1="225" x2="225" y1="254" y2="247"/>
  <rect height="32" style="fill:rgb(255,127,0);fill-opacity:0.7490196078431373;stroke:none;" width="4" x="237" y="267"/>
  <line style="fill:none;stroke:rgb(255,127,0);stroke-opacity:0.24705882352941178;stroke-width:2;stroke-miterlimit:10;stroke-linecap:square;" x1="225" x2="239" y1="245" y2="245"/>
  <line style="fill:none;stroke:rgb(255,127,0);stroke-opacity:0.24705882352941178;stroke-width:2;stroke-miterlimit:10;stroke-linecap:square;" x1="239" x2="239" y1="243" y2="214"/>
  <rect height="21" style="fill:rgb(255,127,0);fill-opacity:0.7490196078431373;stroke:none;" width="4" x="252" y="278"/>
  <line style="fill:none;stroke:rgb(255,127,0);stroke-opacity:0.24705882352941178;stroke-width:2;stroke-miterlimit:10;stroke-linecap:square;" x1="239" x2="254" y1="212" y2="212"/>
  <line style="fill:none;stroke:rgb(255,127,0);stroke-opacity:0.24705882352941178;stroke-width:2;stroke-miterlimit:10;stroke-linecap:square;" x1="254" x2="254" y1="210" y2="192"/>
  <rect height="54" style="fill:rgb(255,127,0);fill-opacity:0.7490196078431373;stroke:none;" width="4" x="266" y="245"/>
  <line style="fill:none;stroke:rgb(255,127,0);stroke-opacity:0.24705882352941178;stroke-width:2;stroke-miterlimit:10;stroke-linecap:square;" x1="254" x2="268" y1="190" y2="190"/>
  <line style="fill:none;stroke:rgb(255,127,0);stroke-opacity:0.24705882352941178;stroke-width:2;stroke-miterlimit:10;stroke-linecap:square;" x1="268" x2="268" y1="188" y2="138"/>
  <rect height="21" style="fill:rgb(255,127,0);fill-opacity:0.7490196078431373;stroke:none;" width="4" x="281" y="278"/>
  <line style="fill:none;stroke:rgb(255,127,0);stroke-opacity:0.24705882352941178;stroke-width:2;stroke-miterlimit:10;stroke-linecap:square;" x1="268" x2="283" y1="136" y2="136"/>
  <line style="fill:none;stroke:rgb(255,127,0);stroke-opacity:0.24705882352941178;stroke-width:2;stroke-miterlimit:10;stroke-linecap:square;" x1="283" x2="283" y1="134" y2="116"/>
  <rect height="21" style="fill:rgb(255,127,0);fill-opacity:0.7490196078431373;stroke:none;" width="4" x="295" y="278"/>
  <line style="fill:none;stroke:rgb(255,127,0);stroke-opacity:0.24705882352941178;stroke-width:2;stroke-miterlimit:10;stroke-linecap:square;" x1="283" x2="297" y1="114" y2="114"/>
  <line style="fill:none;stroke:rgb(255,127,0);stroke-opacity:0.24705882352941178;stroke-width:2;stroke-miterlimit:10;stroke-linecap:square;" x1="297" x2="297" y1="112" y2="94"/>
  <rect height="32" style="fill:rgb(255,127,0);fill-opacity:0.7490196078431373;stroke:none;" width="4" x="310" y="267"/>
  <line style="fill:none;stroke:rgb(255,127,0);stroke-opacity:0.24705882352941178;stroke-width:2;stroke-miterlimit:10;stroke-linecap:square;" x1="297" x2="312" y1="92" y2="92"/>
  <line style="fill:none;stroke:rgb(255,127,0);stroke-opacity:0.24705882352941178;stroke-width:2;stroke-miterlimit:10;stroke-linecap:square;" x1="312" x2="312" y1="90" y2="62"/>
  <line style="fill:none;stroke:rgb(255,127,0);stroke-opacity:0.24705882352941178;stroke-width:2;stroke-miterlimit:10;stroke-linecap:square;" x1="312" x2="400" y1="60" y2="60"/>
  <line style="fill:none;stroke:rgb(255,127,0);stroke-opacity:0.4980392156862745;stroke-miterlimit:2;stroke-dasharray:2;" x1="50" x2="50" y1="300" y2="350"/>
  <line style="fill:none;stroke:rgb(255,127,0);stroke-opacity:0.4980392156862745;stroke-miterlimit:2;stroke-dasharray:2;" x1="50" x2="50" y1="300" y2="359"/>
  <line style="fill:none;stroke:rgb(255,127,0);stroke-opacity:0.4980392156862745;stroke-miterlimit:2;stroke-dasharray:2;" x1="79" x2="79" y1="300" y2="368"/>
  <line style="fill:none;stroke:rgb(255,127,0);stroke-opacity:0.4980392156862745;stroke-miterlimit:2;stroke-dasharray:2;" x1="122" x2="122" y1="300" y2="350"/>
  <line style="fill:none;stroke:rgb(255,127,0);stroke-opacity:0.4980392156862745;stroke-miterlimit:2;stroke-dasharray:2;" x1="225" x2="225" y1="300" y2="350"/>
  <line style="fill:none;stroke:rgb(255,127,0);stroke-opacity:0.4980392156862745;stroke-miterlimit:2;stroke-dasharray:2;" x1="239" x2="239" y1="300" y2="367"/>
  <line style="fill:none;stroke:rgb(255,127,0);stroke-opacity:0.4980392156862745;stroke-miterlimit:2;stroke-dasharray:2;" x1="239" x2="239" y1="300" y2="384"/>
  <line style="fill:none;stroke:rgb(255,127,0);stroke-opacity:0.4980392156862745;stroke-miterlimit:2;stroke-dasharray:2;" x1="239" x2="239" y1="300" y2="401"/>
  <line style="fill:none;stroke:rgb(255,127,0);stroke-opacity:0.4980392156862745;stroke-miterlimit:2;stroke-dasharray:2;" x1="254" x2="254" y1="300" y2="418"/>
  <line style="fill:none;stroke:rgb(255,127,0);stroke-opacity:0.4980392156862745;stroke-miterlimit:2;stroke-dasharray:2;" x1="254" x2="254" y1="300" y2="435"/>
  <line style="fill:none;stroke:rgb(255,127,0);stroke-opacity:0.4980392156862745;stroke-miterlimit:2;stroke-dasharray:2;" x1="268" x2="268" y1="300" y2="452"/>
  <line style="fill:none;stroke:rgb(255,127,0);stroke-opacity:0.4980392156862745;stroke-miterlimit:2;stroke-dasharray:2;" x1="268" x2="268" y1="300" y2="469"/>
  <line style="fill:none;stroke:rgb(255,127,0);stroke-opacity:0.4980392156862745;stroke-miterlimit:2;stroke-dasharray:2;" x1="268" x2="268" y1="300" y2="486"/>
  <line style="fill:none;stroke:rgb(255,127,0);stroke-opacity:0.4980392156862745;stroke-miterlimit:2;stroke-dasharray:2;" x1="268" x2="268" y1="300" y2="503"/>
  <line style="fill:none;stroke:rgb(255,127,0);stroke-opacity:0.4980392156862745;stroke-miterlimit:2;stroke-dasharray:2;" x1="268" x2="268" y1="300" y2="520"/>
  <line style="fill:none;stroke:rgb(255,127,0);stroke-opacity:0.4980392156862745;stroke-miterlimit:2;stroke-dasharray:2;" x1="283" x2="283" y1="300" y2="537"/>
  <line style="fill:none;stroke:rgb(255,127,0);stroke-opacity:0.4980392156862745;stroke-miterlimit:2;stroke-dasharray:2;" x1="283" x2="283" y1="300" y2="554"/>
  <line style="fill:none;stroke:rgb(255,127,0);stroke-opacity:0.4980392156862745;stroke-miterlimit:2;stroke-dasharray:2;" x1="297" x2="297" y1="300" y2="571"/>
  <line style="fill:none;stroke:rgb(255,127,0);stroke-opacity:0.4980392156862745;stroke-miterlimit:2;stroke-dasharray:2;" x1="297" x2="297" y1="300" y2="588"/>
  <line style="fill:none;stroke:rgb(255,127,0);stroke-opacity:0.4980392156862745;stroke-miterlimit:2;stroke-dasharray:2;" x1="312" x2="312" y1="300" y2="605"/>
  <line style="fill:none;stroke:rgb(255,127,0);stroke-opacity:0.4980392156862745;stroke-miterlimit:2;stroke-dasharray:2;" x1="312" x2="312" y1="300" y2="622"/>
  <line style="fill:none;stroke:rgb(255,127,0);stroke-opacity:0.4980392156862745;stroke-miterlimit:2;stroke-dasharray:2;" x1="312" x2="312" y1="300" y2="639"/>
  <line style="fill:none;stroke:rgb(0,0,0);stroke-width:2;stroke-miterlimit:10;stroke-linecap:square;" x1="48" x2="48" y1="60" y2="300"/>
  <line style="fill:none;stroke:rgb(0,0,0);stroke-width:2;stroke-miterlimit:10;stroke-linecap:square;" x1="48" x2="402" y1="300" y2="300"/>
  <rect height="30" style="fill:rgb(255,255,255);stroke:none;" width="17" x="42" y="308"/>
  <text style="fill:rgb(0,0,0);stroke:none;font-size:25px;font-weight:bold;" x="42" y="332">0</text>
  <rect height="30" style="fill:rgb(255,255,255);stroke:none;" width="34" x="383" y="308"/>
  <text style="fill:rgb(0,0,0);stroke:none;font-size:25px;font-weight:bold;" x="383" y="332">24</text>
  <text style="fill:rgb(0,0,0);stroke:none;font-size:25px;font-weight:bold;" x="25" y="312">0</text>
  <text style="fill:rgb(0,0,0);stroke:none;font-size:25px;font-weight:bold;" x="25" y="72">1</text>
  <text style="fill:rgb(0,0,0);stroke:none;font-size:16px;font-weight:bold;" x="15" y="37">MARTORIATI_MDM4_TARGETS_NEUROEPITHELIUM_UP</text>
  <rect height="7" style="fill:rgb(255,255,255);stroke:none;" width="15" x="50" y="343"/>
  <text style="fill:rgb(128,128,128);stroke:none;font-size:7px;" x="50" y="350">CAD</text>
  <rect height="7" style="fill:rgb(255,255,255);stroke:none;" width="32" x="50" y="352"/>
  <text style="fill:rgb(128,128,128);stroke:none;font-size:7px;" x="50" y="359">MAB21L3</text>
  <rect height="7" style="fill:rgb(255,255,255);stroke:none;" width="24" x="79" y="361"/>
  <text style="fill:rgb(128,128,128);stroke:none;font-size:7px;" x="79" y="368">DDIT4L</text>
  <rect height="7" style="fill:rgb(255,255,255);stroke:none;" width="21" x="122" y="343"/>
  <text style="fill:rgb(128,128,128);stroke:none;font-size:7px;" x="122" y="350">EPHX2</text>
  <rect height="7" style="fill:rgb(255,255,255);stroke:none;" width="26" x="225" y="343"/>
  <text style="fill:rgb(128,128,128);stroke:none;font-size:7px;" x="225" y="350">RNF126</text>
  <rect height="13" style="fill:rgb(255,255,255);stroke:none;" width="36" x="239" y="354"/>
  <text style="fill:rgb(128,128,128);stroke:none;font-size:13px;" x="239" y="367">NAV1</text>
  <rect height="13" style="fill:rgb(255,255,255);stroke:none;" width="49" x="239" y="371"/>
  <text style="fill:rgb(128,128,128);stroke:none;font-size:13px;" x="239" y="384">LRRFIP1</text>
  <rect height="13" style="fill:rgb(255,255,255);stroke:none;" width="62" x="239" y="388"/>
  <text style="fill:rgb(128,128,128);stroke:none;font-size:13px;" x="239" y="401">SERPINE2</text>
  <rect height="13" style="fill:rgb(255,255,255);stroke:none;" width="30" x="254" y="405"/>
  <text style="fill:rgb(128,128,128);stroke:none;font-size:13px;" x="254" y="418">ADM</text>
  <rect height="13" style="fill:rgb(255,255,255);stroke:none;" width="50" x="254" y="422"/>
  <text style="fill:rgb(128,128,128);stroke:none;font-size:13px;" x="254" y="435">SLC2A1</text>
  <rect height="13" style="fill:rgb(255,255,255);stroke:none;" width="26" x="268" y="439"/>
  <text style="fill:rgb(128,128,128);stroke:none;font-size:13px;" x="268" y="452">HK2</text>
  <rect height="13" style="fill:rgb(255,255,255);stroke:none;" width="43" x="268" y="456"/>
  <text style="fill:rgb(128,128,128);stroke:none;font-size:13px;" x="268" y="469">ERO1A</text>
  <rect height="13" style="fill:rgb(255,255,255);stroke:none;" width="40" x="268" y="473"/>
  <text style="fill:rgb(128,128,128);stroke:none;font-size:13px;" x="268" y="486">SALL4</text>
  <rect height="13" style="fill:rgb(255,255,255);stroke:none;" width="38" x="268" y="490"/>
  <text style="fill:rgb(128,128,128);stroke:none;font-size:13px;" x="268" y="503">DDIT4</text>
  <rect height="13" style="fill:rgb(255,255,255);stroke:none;" width="61" x="268" y="507"/>
  <text style="fill:rgb(128,128,128);stroke:none;font-size:13px;" x="268" y="520">ANKRD37</text>
  <rect height="13" style="fill:rgb(255,255,255);stroke:none;" width="43" x="283" y="524"/>
  <text style="fill:rgb(128,128,128);stroke:none;font-size:13px;" x="283" y="537">VEGFA</text>
  <rect height="13" style="fill:rgb(255,255,255);stroke:none;" width="42" x="283" y="541"/>
  <text style="fill:rgb(128,128,128);stroke:none;font-size:13px;" x="283" y="554">GTSE1</text>
  <rect height="13" style="fill:rgb(255,255,255);stroke:none;" width="36" x="297" y="558"/>
  <text style="fill:rgb(128,128,128);stroke:none;font-size:13px;" x="297" y="571">LDHA</text>
  <rect height="13" style="fill:rgb(255,255,255);stroke:none;" width="31" x="297" y="575"/>
  <text style="fill:rgb(128,128,128);stroke:none;font-size:13px;" x="297" y="588">PFKP</text>
  <rect height="13" style="fill:rgb(255,255,255);stroke:none;" width="21" x="312" y="592"/>
  <text style="fill:rgb(128,128,128);stroke:none;font-size:13px;" x="312" y="605">ID1</text>
  <rect height="13" style="fill:rgb(255,255,255);stroke:none;" width="33" x="312" y="609"/>
  <text style="fill:rgb(128,128,128);stroke:none;font-size:13px;" x="312" y="622">DEF6</text>
  <rect height="13" style="fill:rgb(255,255,255);stroke:none;" width="37" x="312" y="626"/>
  <text style="fill:rgb(128,128,128);stroke:none;font-size:13px;" x="312" y="639">PGM1</text>
</svg>
