<?xml version="1.0" encoding="UTF-8" standalone="no"?>
<!DOCTYPE svg PUBLIC "-//W3C//DTD SVG 1.1//EN" "http://www.w3.org/Graphics/SVG/1.1/DTD/svg11.dtd">
<svg xmlns:xlink="http://www.w3.org/1999/xlink" height="158.74999999999997mm" version="1.1" viewBox="0 0 500 600" width="132.29166666666666mm" x="0mm" y="0mm" xmlns="http://www.w3.org/2000/svg">
  <rect height="1200" style="fill:rgb(255,255,255);stroke:none;" width="1000" x="0" y="0"/>
  <rect height="240" style="fill:rgb(191,191,191);fill-opacity:0.4980392156862745;stroke:none;" width="175" x="225" y="60"/>
  <rect height="11" style="fill:rgb(63,63,191);fill-opacity:0.7490196078431373;stroke:none;" width="2" x="49" y="288"/>
  <line style="fill:none;stroke:rgb(63,63,191);stroke-opacity:0.24705882352941178;stroke-miterlimit:10;stroke-linecap:square;" x1="50" x2="50" y1="300" y2="300"/>
  <line style="fill:none;stroke:rgb(63,63,191);stroke-opacity:0.24705882352941178;stroke-miterlimit:10;stroke-linecap:square;" x1="50" x2="50" y1="299" y2="289"/>
  <rect height="23" style="fill:rgb(63,63,191);fill-opacity:0.7490196078431373;stroke:none;" width="2" x="63" y="276"/>
  <line style="fill:none;stroke:rgb(63,63,191);stroke-opacity:0.24705882352941178;stroke-miterlimit:10;stroke-linecap:square;" x1="50" x2="64" y1="288" y2="288"/>
  <line style="fill:none;stroke:rgb(63,63,191);stroke-opacity:0.24705882352941178;stroke-miterlimit:10;stroke-linecap:square;" x1="64" x2="64" y1="287" y2="265"/>
  <rect height="26" style="fill:rgb(63,63,191);fill-opacity:0.7490196078431373;stroke:none;" width="2" x="78" y="273"/>
  <line style="fill:none;stroke:rgb(63,63,191);stroke-opacity:0.24705882352941178;stroke-miterlimit:10;stroke-linecap:square;" x1="64" x2="79" y1="264" y2="264"/>
  <line style="fill:none;stroke:rgb(63,63,191);stroke-opacity:0.24705882352941178;stroke-miterlimit:10;stroke-linecap:square;" x1="79" x2="79" y1="263" y2="238"/>
  <rect height="15" style="fill:rgb(63,63,191);fill-opacity:0.7490196078431373;stroke:none;" width="2" x="92" y="284"/>
  <line style="fill:none;stroke:rgb(63,63,191);stroke-opacity:0.24705882352941178;stroke-miterlimit:10;stroke-linecap:square;" x1="79" x2="93" y1="237" y2="237"/>
  <line style="fill:none;stroke:rgb(63,63,191);stroke-opacity:0.24705882352941178;stroke-miterlimit:10;stroke-linecap:square;" x1="93" x2="93" y1="236" y2="223"/>
  <rect height="12" style="fill:rgb(63,63,191);fill-opacity:0.7490196078431373;stroke:none;" width="2" x="107" y="287"/>
  <line style="fill:none;stroke:rgb(63,63,191);stroke-opacity:0.24705882352941178;stroke-miterlimit:10;stroke-linecap:square;" x1="93" x2="108" y1="222" y2="222"/>
  <line style="fill:none;stroke:rgb(63,63,191);stroke-opacity:0.24705882352941178;stroke-miterlimit:10;stroke-linecap:square;" x1="108" x2="108" y1="221" y2="210"/>
  <rect height="6" style="fill:rgb(63,63,191);fill-opacity:0.7490196078431373;stroke:none;" width="2" x="121" y="293"/>
  <line style="fill:none;stroke:rgb(63,63,191);stroke-opacity:0.24705882352941178;stroke-miterlimit:10;stroke-linecap:square;" x1="108" x2="122" y1="209" y2="209"/>
  <line style="fill:none;stroke:rgb(63,63,191);stroke-opacity:0.24705882352941178;stroke-miterlimit:10;stroke-linecap:square;" x1="122" x2="122" y1="208" y2="204"/>
  <rect height="7" style="fill:rgb(63,63,191);fill-opacity:0.7490196078431373;stroke:none;" width="2" x="136" y="292"/>
  <line style="fill:none;stroke:rgb(63,63,191);stroke-opacity:0.24705882352941178;stroke-miterlimit:10;stroke-linecap:square;" x1="122" x2="137" y1="203" y2="203"/>
  <line style="fill:none;stroke:rgb(63,63,191);stroke-opacity:0.24705882352941178;stroke-miterlimit:10;stroke-linecap:square;" x1="137" x2="137" y1="202" y2="196"/>
  <rect height="6" style="fill:rgb(63,63,191);fill-opacity:0.7490196078431373;stroke:none;" width="2" x="151" y="293"/>
  <line style="fill:none;stroke:rgb(63,63,191);stroke-opacity:0.24705882352941178;stroke-miterlimit:10;stroke-linecap:square;" x1="137" x2="152" y1="195" y2="195"/>
  <line style="fill:none;stroke:rgb(63,63,191);stroke-opacity:0.24705882352941178;stroke-miterlimit:10;stroke-linecap:square;" x1="152" x2="152" y1="194" y2="189"/>
  <rect height="5" style="fill:rgb(63,63,191);fill-opacity:0.7490196078431373;stroke:none;" width="2" x="165" y="294"/>
  <line style="fill:none;stroke:rgb(63,63,191);stroke-opacity:0.24705882352941178;stroke-miterlimit:10;stroke-linecap:square;" x1="152" x2="166" y1="188" y2="188"/>
  <line style="fill:none;stroke:rgb(63,63,191);stroke-opacity:0.24705882352941178;stroke-miterlimit:10;stroke-linecap:square;" x1="166" x2="166" y1="187" y2="184"/>
  <rect height="2" style="fill:rgb(63,63,191);fill-opacity:0.7490196078431373;stroke:none;" width="2" x="180" y="297"/>
  <line style="fill:none;stroke:rgb(63,63,191);stroke-opacity:0.24705882352941178;stroke-miterlimit:10;stroke-linecap:square;" x1="166" x2="181" y1="183" y2="183"/>
  <line style="fill:none;stroke:rgb(63,63,191);stroke-opacity:0.24705882352941178;stroke-miterlimit:10;stroke-linecap:square;" x1="181" x2="181" y1="182" y2="181"/>
  <rect height="3" style="fill:rgb(63,63,191);fill-opacity:0.7490196078431373;stroke:none;" width="2" x="194" y="296"/>
  <line style="fill:none;stroke:rgb(63,63,191);stroke-opacity:0.24705882352941178;stroke-miterlimit:10;stroke-linecap:square;" x1="181" x2="195" y1="180" y2="180"/>
  <line style="fill:none;stroke:rgb(63,63,191);stroke-opacity:0.24705882352941178;stroke-miterlimit:10;stroke-linecap:square;" x1="195" x2="195" y1="179" y2="177"/>
  <rect height="5" style="fill:rgb(63,63,191);fill-opacity:0.7490196078431373;stroke:none;" width="2" x="209" y="294"/>
  <line style="fill:none;stroke:rgb(63,63,191);stroke-opacity:0.24705882352941178;stroke-miterlimit:10;stroke-linecap:square;" x1="195" x2="210" y1="176" y2="176"/>
  <line style="fill:none;stroke:rgb(63,63,191);stroke-opacity:0.24705882352941178;stroke-miterlimit:10;stroke-linecap:square;" x1="210" x2="210" y1="175" y2="172"/>
  <rect height="7" style="fill:rgb(63,63,191);fill-opacity:0.7490196078431373;stroke:none;" width="2" x="224" y="292"/>
  <line style="fill:none;stroke:rgb(63,63,191);stroke-opacity:0.24705882352941178;stroke-miterlimit:10;stroke-linecap:square;" x1="210" x2="225" y1="171" y2="171"/>
  <line style="fill:none;stroke:rgb(63,63,191);stroke-opacity:0.24705882352941178;stroke-miterlimit:10;stroke-linecap:square;" x1="225" x2="225" y1="170" y2="165"/>
  <rect height="12" style="fill:rgb(63,63,191);fill-opacity:0.7490196078431373;stroke:none;" width="2" x="238" y="287"/>
  <line style="fill:none;stroke:rgb(63,63,191);stroke-opacity:0.24705882352941178;stroke-miterlimit:10;stroke-linecap:square;" x1="225" x2="239" y1="164" y2="164"/>
  <line style="fill:none;stroke:rgb(63,63,191);stroke-opacity:0.24705882352941178;stroke-miterlimit:10;stroke-linecap:square;" x1="239" x2="239" y1="163" y2="152"/>
  <rect height="10" style="fill:rgb(63,63,191);fill-opacity:0.7490196078431373;stroke:none;" width="2" x="253" y="289"/>
  <line style="fill:none;stroke:rgb(63,63,191);stroke-opacity:0.24705882352941178;stroke-miterlimit:10;stroke-linecap:square;" x1="239" x2="254" y1="151" y2="151"/>
  <line style="fill:none;stroke:rgb(63,63,191);stroke-opacity:0.24705882352941178;stroke-miterlimit:10;stroke-linecap:square;" x1="254" x2="254" y1="150" y2="141"/>
  <rect height="13" style="fill:rgb(63,63,191);fill-opacity:0.7490196078431373;stroke:none;" width="2" x="267" y="286"/>
  <line style="fill:none;stroke:rgb(63,63,191);stroke-opacity:0.24705882352941178;stroke-miterlimit:10;stroke-linecap:square;" x1="254" x2="268" y1="140" y2="140"/>
  <line style="fill:none;stroke:rgb(63,63,191);stroke-opacity:0.24705882352941178;stroke-miterlimit:10;stroke-linecap:square;" x1="268" x2="268" y1="139" y2="128"/>
  <rect height="7" style="fill:rgb(63,63,191);fill-opacity:0.7490196078431373;stroke:none;" width="2" x="282" y="292"/>
  <line style="fill:none;stroke:rgb(63,63,191);stroke-opacity:0.24705882352941178;stroke-miterlimit:10;stroke-linecap:square;" x1="268" x2="283" y1="127" y2="127"/>
  <line style="fill:none;stroke:rgb(63,63,191);stroke-opacity:0.24705882352941178;stroke-miterlimit:10;stroke-linecap:square;" x1="283" x2="283" y1="126" y2="120"/>
  <rect height="5" style="fill:rgb(63,63,191);fill-opacity:0.7490196078431373;stroke:none;" width="2" x="296" y="294"/>
  <line style="fill:none;stroke:rgb(63,63,191);stroke-opacity:0.24705882352941178;stroke-miterlimit:10;stroke-linecap:square;" x1="283" x2="297" y1="119" y2="119"/>
  <line style="fill:none;stroke:rgb(63,63,191);stroke-opacity:0.24705882352941178;stroke-miterlimit:10;stroke-linecap:square;" x1="297" x2="297" y1="118" y2="114"/>
  <rect height="1" style="fill:rgb(63,63,191);fill-opacity:0.7490196078431373;stroke:none;" width="2" x="311" y="298"/>
  <line style="fill:none;stroke:rgb(63,63,191);stroke-opacity:0.24705882352941178;stroke-miterlimit:10;stroke-linecap:square;" x1="297" x2="312" y1="113" y2="113"/>
  <line style="fill:none;stroke:rgb(63,63,191);stroke-opacity:0.24705882352941178;stroke-miterlimit:10;stroke-linecap:square;" x1="312" x2="312" y1="112" y2="112"/>
  <rect height="5" style="fill:rgb(63,63,191);fill-opacity:0.7490196078431373;stroke:none;" width="2" x="326" y="294"/>
  <line style="fill:none;stroke:rgb(63,63,191);stroke-opacity:0.24705882352941178;stroke-miterlimit:10;stroke-linecap:square;" x1="312" x2="327" y1="111" y2="111"/>
  <line style="fill:none;stroke:rgb(63,63,191);stroke-opacity:0.24705882352941178;stroke-miterlimit:10;stroke-linecap:square;" x1="327" x2="327" y1="110" y2="107"/>
  <rect height="4" style="fill:rgb(63,63,191);fill-opacity:0.7490196078431373;stroke:none;" width="2" x="340" y="295"/>
  <line style="fill:none;stroke:rgb(63,63,191);stroke-opacity:0.24705882352941178;stroke-miterlimit:10;stroke-linecap:square;" x1="327" x2="341" y1="106" y2="106"/>
  <line style="fill:none;stroke:rgb(63,63,191);stroke-opacity:0.24705882352941178;stroke-miterlimit:10;stroke-linecap:square;" x1="341" x2="341" y1="105" y2="102"/>
  <rect height="6" style="fill:rgb(63,63,191);fill-opacity:0.7490196078431373;stroke:none;" width="2" x="355" y="293"/>
  <line style="fill:none;stroke:rgb(63,63,191);stroke-opacity:0.24705882352941178;stroke-miterlimit:10;stroke-linecap:square;" x1="341" x2="356" y1="101" y2="101"/>
  <line style="fill:none;stroke:rgb(63,63,191);stroke-opacity:0.24705882352941178;stroke-miterlimit:10;stroke-linecap:square;" x1="356" x2="356" y1="100" y2="96"/>
  <rect height="9" style="fill:rgb(63,63,191);fill-opacity:0.7490196078431373;stroke:none;" width="2" x="369" y="290"/>
  <line style="fill:none;stroke:rgb(63,63,191);stroke-opacity:0.24705882352941178;stroke-miterlimit:10;stroke-linecap:square;" x1="356" x2="370" y1="95" y2="95"/>
  <line style="fill:none;stroke:rgb(63,63,191);stroke-opacity:0.24705882352941178;stroke-miterlimit:10;stroke-linecap:square;" x1="370" x2="370" y1="94" y2="86"/>
  <rect height="16" style="fill:rgb(63,63,191);fill-opacity:0.7490196078431373;stroke:none;" width="2" x="384" y="283"/>
  <line style="fill:none;stroke:rgb(63,63,191);stroke-opacity:0.24705882352941178;stroke-miterlimit:10;stroke-linecap:square;" x1="370" x2="385" y1="85" y2="85"/>
  <line style="fill:none;stroke:rgb(63,63,191);stroke-opacity:0.24705882352941178;stroke-miterlimit:10;stroke-linecap:square;" x1="385" x2="385" y1="84" y2="70"/>
  <rect height="9" style="fill:rgb(63,63,191);fill-opacity:0.7490196078431373;stroke:none;" width="2" x="399" y="290"/>
  <line style="fill:none;stroke:rgb(63,63,191);stroke-opacity:0.24705882352941178;stroke-miterlimit:10;stroke-linecap:square;" x1="385" x2="400" y1="69" y2="69"/>
  <line style="fill:none;stroke:rgb(63,63,191);stroke-opacity:0.24705882352941178;stroke-miterlimit:10;stroke-linecap:square;" x1="400" x2="400" y1="68" y2="61"/>
  <line style="fill:none;stroke:rgb(63,63,191);stroke-opacity:0.24705882352941178;stroke-miterlimit:10;stroke-linecap:square;" x1="400" x2="400" y1="60" y2="60"/>
  <rect height="240" style="fill:rgb(255,127,0);fill-opacity:0.7490196078431373;stroke:none;" width="4" x="62" y="60"/>
  <line style="fill:none;stroke:rgb(255,127,0);stroke-opacity:0.24705882352941178;stroke-width:2;stroke-miterlimit:10;stroke-linecap:square;" x1="50" x2="64" y1="300" y2="300"/>
  <line style="fill:none;stroke:rgb(255,127,0);stroke-opacity:0.24705882352941178;stroke-width:2;stroke-miterlimit:10;stroke-linecap:square;" x1="64" x2="64" y1="298" y2="62"/>
  <line style="fill:none;stroke:rgb(255,127,0);stroke-opacity:0.24705882352941178;stroke-width:2;stroke-miterlimit:10;stroke-linecap:square;" x1="64" x2="400" y1="60" y2="60"/>
  <line style="fill:none;stroke:rgb(255,127,0);stroke-opacity:0.4980392156862745;stroke-miterlimit:2;stroke-dasharray:2;" x1="64" x2="64" y1="300" y2="350"/>
  <line style="fill:none;stroke:rgb(255,127,0);stroke-opacity:0.4980392156862745;stroke-miterlimit:2;stroke-dasharray:2;" x1="64" x2="64" y1="300" y2="365"/>
  <line style="fill:none;stroke:rgb(255,127,0);stroke-opacity:0.4980392156862745;stroke-miterlimit:2;stroke-dasharray:2;" x1="64" x2="64" y1="300" y2="380"/>
  <line style="fill:none;stroke:rgb(255,127,0);stroke-opacity:0.4980392156862745;stroke-miterlimit:2;stroke-dasharray:2;" x1="64" x2="64" y1="300" y2="395"/>
  <line style="fill:none;stroke:rgb(255,127,0);stroke-opacity:0.4980392156862745;stroke-miterlimit:2;stroke-dasharray:2;" x1="64" x2="64" y1="300" y2="410"/>
  <line style="fill:none;stroke:rgb(0,0,0);stroke-width:2;stroke-miterlimit:10;stroke-linecap:square;" x1="48" x2="48" y1="60" y2="300"/>
  <line style="fill:none;stroke:rgb(0,0,0);stroke-width:2;stroke-miterlimit:10;stroke-linecap:square;" x1="48" x2="402" y1="300" y2="300"/>
  <rect height="30" style="fill:rgb(255,255,255);stroke:none;" width="17" x="42" y="308"/>
  <text style="fill:rgb(0,0,0);stroke:none;font-size:25px;font-weight:bold;" x="42" y="332">0</text>
  <rect height="30" style="fill:rgb(255,255,255);stroke:none;" width="34" x="383" y="308"/>
  <text style="fill:rgb(0,0,0);stroke:none;font-size:25px;font-weight:bold;" x="383" y="332">24</text>
  <text style="fill:rgb(0,0,0);stroke:none;font-size:25px;font-weight:bold;" x="25" y="312">0</text>
  <text style="fill:rgb(0,0,0);stroke:none;font-size:25px;font-weight:bold;" x="25" y="72">1</text>
  <text style="fill:rgb(0,0,0);stroke:none;font-size:20px;font-weight:bold;" x="0" y="39">LAIHO_COLORECTAL_CANCER_SERRATED_DN</text>
  <rect height="12" style="fill:rgb(255,255,255);stroke:none;" width="35" x="64" y="338"/>
  <text style="fill:rgb(128,128,128);stroke:none;" x="64" y="350">HGH1</text>
  <rect height="12" style="fill:rgb(255,255,255);stroke:none;" width="40" x="64" y="353"/>
  <text style="fill:rgb(128,128,128);stroke:none;" x="64" y="365">APBB3</text>
  <rect height="12" style="fill:rgb(255,255,255);stroke:none;" width="57" x="64" y="368"/>
  <text style="fill:rgb(128,128,128);stroke:none;" x="64" y="380">ZNF767P</text>
  <rect height="12" style="fill:rgb(255,255,255);stroke:none;" width="57" x="64" y="383"/>
  <text style="fill:rgb(128,128,128);stroke:none;" x="64" y="395">ZNF518A</text>
  <rect height="12" style="fill:rgb(255,255,255);stroke:none;" width="54" x="64" y="398"/>
  <text style="fill:rgb(128,128,128);stroke:none;" x="64" y="410">SLC26A6</text>
</svg>
